<svg xmlns="http://www.w3.org/2000/svg" xmlns:xlink="http://www.w3.org/1999/xlink" width="287" height="80" viewBox="0 0 287 80"><defs><clipPath id="a"><rect width="287" height="80" transform="translate(11 8)" fill="#fdfcf8" stroke="#6c655d" stroke-width="1"/></clipPath></defs><g transform="translate(-11 -8)" clip-path="url(#a)"><g transform="translate(0 1)"><path d="M429.7,137.977l-1.7.191-12.983,1.467m14.205-7.5-1.954.2-13.144,1.4-.081.007m61.719-2.055a3.029,3.029,0,0,0,1.286-3.485,3.6,3.6,0,0,0-2.753-2.387m-28.078,3.532c-.322.917-.138,3.945,1.88,5.046m7.568-4.113a.349.349,0,1,0,0,.7.349.349,0,0,0,0-.7Zm1.229-1.588-1.471.154a1.949,1.949,0,0,0-1.746,1.937c0,.067,0,.138.01.208a1.95,1.95,0,0,0,2.145,1.736l1.981-.208,1.336-.141,8.971-.943a1.95,1.95,0,0,0,1.749-1.941c0-.067,0-.138-.01-.2a1.956,1.956,0,0,0-2.149-1.739l-9.457,1-1.36.144Zm1.289,8.457a7.441,7.441,0,0,0,.876-1.618,6.649,6.649,0,0,0,.091-3.152m-2.777,4.986a9.989,9.989,0,0,0,1.42-2.283,5.662,5.662,0,0,0,.02-2.562m.44-3.972a4.274,4.274,0,0,0-.94-1.753m-.42,1.9a3.628,3.628,0,0,0-1.35-1.726m-25.429,4.989a.951.951,0,0,0-1.3-.688m1.074,7.548a.951.951,0,0,0,.836-1.216m-1.413.675a.978.978,0,0,0,.389-.3c.712-.86.574-3.008.453-3.683a5.875,5.875,0,0,0-.93-2.162.59.59,0,0,0-.225-.191m-14.954,1.8c-.661.111-.984,1.521-.715,3.146s1.027,2.86,1.689,2.75.984-1.518.715-3.146c-.258-1.561-.964-2.756-1.608-2.756m13.144-1.4c.641-.98,1.84-1.729,4.72-2.441a150.26,150.26,0,0,1,18.681-2.491c1.363-.111,3.031-.262,4.875-.44.292-.027.587-.054.886-.084s.584-.057.883-.087c8.564-.843,19.8-2.075,22.911-2.36,4.032-.373,9.918-.252,11.251.316,2.081.893,2.881,4.72.9,6.688-1.786,1.776-24.563,4.569-34.192,5.711-.319.037-.621.074-.907.107h0c-.319.037-.621.074-.9.107-1.269.148-2.109.245-2.364.282-1.857.259-22.639,3.871-26.01.524" transform="translate(677.99 -62.836) rotate(150)" fill="none" stroke="#b3b0a7" stroke-linecap="round" stroke-linejoin="round" stroke-width="0.5"/><g transform="translate(-720.809 -127.09) rotate(-8)"><path d="M854.869,308.267c-.1,0-.2.008-.291.016s-.19.024-.285.037-.189.034-.282.053-.189.035-.281.058-.186.051-.276.08-.182.063-.271.1-.182.067-.268.106-.173.087-.255.131-.168.1-.247.146-.167.1-.241.157a2.744,2.744,0,0,0-.22.186,2.215,2.215,0,0,0-.2.207,1.608,1.608,0,0,0-.165.234,1.127,1.127,0,0,0-.1.267.829.829,0,0,0-.024.283.76.76,0,0,0,.072.273.963.963,0,0,0,.16.234,1.379,1.379,0,0,0,.21.192,2.108,2.108,0,0,0,.245.149,2.784,2.784,0,0,0,.26.12c.084.034.173.07.269.1s.191.055.286.079.193.044.289.063.194.042.291.056.2.014.3.022.2.023.3.025.2-.007.3-.01.2,0,.3-.007.2-.025.294-.039.2-.031.292-.05.195-.038.289-.062.19-.058.283-.087.19-.062.28-.1.187-.071.275-.112.177-.093.262-.14.172-.1.251-.156a2.933,2.933,0,0,0,.239-.174,2.38,2.38,0,0,0,.217-.2,1.828,1.828,0,0,0,.185-.231,1.26,1.26,0,0,0,.129-.265.932.932,0,0,0,.066-.287.825.825,0,0,0-.051-.292,2.478,2.478,0,0,1-.273.11,2.872,2.872,0,0,1-.283.076c-.095.021-.192.03-.289.041s-.194.019-.292.021-.2,0-.293,0a2.675,2.675,0,0,1-.289-.039,2.4,2.4,0,0,1-.285-.065,1.9,1.9,0,0,1-.272-.106,1.481,1.481,0,0,1-.249-.154,1.1,1.1,0,0,1-.208-.2.881.881,0,0,1-.136-.257.908.908,0,0,1-.037-.288A1.174,1.174,0,0,1,854.869,308.267Z" transform="translate(-6.563 -7.503)" fill="#b3b0a7"/><path d="M844.209,301.642c.063-.074.131-.144.2-.214s.137-.137.208-.2.136-.139.211-.2.155-.118.232-.178.147-.128.227-.185.165-.1.247-.157.158-.114.242-.165.173-.089.259-.137.169-.1.255-.141.167-.1.255-.142.177-.079.266-.118.175-.086.265-.123.184-.061.276-.1.185-.059.277-.092.173-.095.266-.125.189-.049.283-.077.186-.055.281-.081.189-.048.283-.072.19-.041.285-.064.19-.04.286-.061.188-.049.285-.069.189-.048.285-.065.192-.036.288-.051.192-.039.288-.053.195-.019.292-.032.195-.015.292-.025.2-.01.293-.019.193-.027.291-.035.195-.011.293-.018.195-.018.292-.023.2,0,.293,0,.194-.035.292-.037.2.01.294.008.2.009.293.009l.293,0c.1,0,.2,0,.294,0s.2,0,.293,0,.2,0,.294.006.195.026.292.034.2.015.293.023l.292.029c.1.01.2,0,.294.013s.192.042.289.055.2.011.293.026.194.032.29.048.194.032.289.049.19.052.285.071.194.029.289.051.187.061.281.084.188.054.282.079.195.031.288.057.182.076.274.106.192.044.283.074.186.067.277.1.19.057.28.092.18.081.269.119.183.073.27.114.177.085.263.129.17.1.254.145.171.1.253.147.159.115.239.169.168.1.245.159.154.122.228.184.14.137.209.2.144.133.207.2" transform="translate(-2.245 -1.729)" fill="none" stroke="#b3b0a7" stroke-linecap="round" stroke-linejoin="round" stroke-width="0.425"/><path d="M863.858,311.628a2.238,2.238,0,0,1-.079.27,2.679,2.679,0,0,1-.113.258c-.04.082-.083.166-.133.249s-.1.156-.159.234-.113.148-.177.22-.125.14-.194.207-.139.126-.214.186-.147.116-.227.169-.16.1-.244.144-.165.088-.252.128-.171.075-.262.107-.177.06-.27.085-.182.043-.277.061-.184.03-.28.04-.187.015-.283.019-.188.011-.285.009" transform="translate(-11.896 -9.505)" fill="none" stroke="#b3b0a7" stroke-linecap="round" stroke-linejoin="round" stroke-width="0.425"/><path d="M851.769,363.6c-.1,0-.194.019-.289.025s-.193.015-.289.022-.2-.017-.292-.008-.191.039-.287.05-.191.032-.287.045-.192.029-.286.044-.191.032-.285.049-.193.024-.287.043-.19.038-.283.06-.189.044-.282.067-.19.039-.283.065-.188.047-.28.074-.177.083-.268.114-.192.039-.282.071-.172.092-.261.127-.186.056-.274.093-.179.075-.266.115-.171.092-.256.135-.169.094-.254.139-.171.089-.254.137-.167.1-.247.15-.18.08-.259.133-.146.13-.223.187-.156.115-.231.174-.153.119-.225.182-.146.129-.215.194-.126.148-.191.217-.146.13-.208.2-.121.152-.179.228-.125.15-.179.228-.084.176-.132.259-.107.162-.149.247-.1.17-.133.258-.065.183-.093.275-.035.191-.055.284-.047.188-.059.283a2.842,2.842,0,0,0-.009.288c0,.1-.029.194-.021.29s.044.188.061.283.048.184.075.278.044.186.08.277.087.169.131.256.074.177.126.26.1.161.162.239.129.141.194.214.128.14.2.209.122.149.2.213.148.121.226.181.158.108.239.164.16.1.243.156.16.1.246.152.173.082.26.127.162.1.251.145.186.053.276.092.169.09.261.126.182.06.274.093.18.064.273.095.183.056.277.084.181.062.275.088.184.053.279.077.188.034.282.056.188.032.283.052.185.049.28.068.184.056.28.073.194,0,.29.019.187.049.283.062.19.028.287.041.189.025.285.036.191.016.288.025.191.017.289.025.192.012.29.019.192,0,.289.009.191.035.289.04.193-.013.291-.009.2,0,.3.008l.295.007c.1,0,.2.01.295.011s.2.007.294.007.2.011.3.008.2,0,.295,0,.2-.029.293-.033.2,0,.294-.008.2-.005.294-.013.2-.027.292-.036.2-.01.294-.02.194-.037.29-.048.2-.02.292-.033.194-.032.289-.047.2-.014.293-.031.191-.048.286-.066.191-.045.285-.066.192-.039.287-.061.2-.021.291-.045.191-.049.283-.076.18-.082.272-.111.193-.042.284-.074.185-.065.275-.1.179-.08.268-.116.189-.057.276-.1.179-.081.266-.123.172-.1.256-.14.175-.089.259-.136.156-.121.237-.172.18-.084.259-.138.164-.11.241-.168.148-.13.222-.192.131-.147.2-.213.167-.112.232-.182.121-.156.182-.23.115-.159.171-.237.129-.15.178-.233.093-.173.135-.26.086-.177.121-.266.05-.19.077-.282.038-.191.055-.286.064-.188.072-.284,0-.2,0-.293-.028-.193-.039-.289-.029-.19-.05-.286-.03-.192-.06-.285-.059-.184-.1-.275-.089-.172-.134-.259-.094-.167-.146-.251-.1-.162-.161-.242-.121-.149-.184-.225-.128-.142-.2-.214-.128-.144-.2-.212-.13-.144-.2-.208-.15-.122-.227-.183-.165-.1-.246-.157-.15-.123-.232-.176-.174-.085-.258-.135-.159-.109-.245-.156-.171-.087-.259-.131-.171-.088-.261-.129-.17-.091-.261-.129-.178-.075-.27-.111-.191-.04-.284-.074-.179-.073-.272-.1-.183-.063-.277-.091-.184-.059-.279-.086-.182-.07-.277-.1-.2-.016-.292-.039-.189-.042-.285-.063-.185-.054-.281-.072-.188-.038-.285-.055-.19-.035-.287-.05-.19-.038-.287-.052-.193-.014-.291-.026-.194-.01-.291-.02-.193-.025-.29-.034-.192-.038-.29-.046-.194.011-.291,0-.192-.04-.289-.045-.194,0-.292-.007-.195.007-.294,0-.195.01-.294.009l-.292,0c-.1,0-.2-.03-.294-.028s-.195,0-.294.007S851.869,363.6,851.769,363.6Z" transform="translate(-1.772 -40.45)" fill="none" stroke="#b3b0a7" stroke-linecap="round" stroke-linejoin="round" stroke-width="0.425"/><path d="M840.667,307.783c-.139.054.047.078.092.257.019.078,0,.182.022.29.019.086.062.175.083.278s.046.182.065.282.042.184.059.283-.018.194,0,.292.07.183.082.28.037.188.047.285.015.192.023.289.023.191.03.287.007.193.011.291-.036.194-.034.292-.008.188-.015.283.028.194.016.289-.074.182-.089.276-.011.191-.026.285,0,.191-.014.286-.021.188-.027.283-.017.188-.015.283-.014.188-.011.283,0,.187,0,.282.044.186.047.281-.051.189-.048.284l.008.28c0,.093.016.186.019.28s.052.185.055.279,0,.187.006.281-.023.187-.021.282.034.186.037.28-.037.189-.034.283.015.187.018.281.022.187.025.281.024.187.027.281-.041.189-.038.283.044.187.047.281-.009.188-.006.282,0,.188.006.282-.008.188-.005.282.04.187.042.281-.039.189-.036.283.038.187.041.281-.021.189-.019.283.013.188.016.282.042.187.045.282,0,.189,0,.284,0,.189,0,.283,0,.189,0,.284.018.189.021.283,0,.189,0,.284.009.189.012.284-.012.19-.009.284,0,.19,0,.285.013.189.016.284-.01.19-.007.285.027.189.03.284,0,.19,0,.285-.019.191-.016.285.036.189.039.284.014.19.017.284,0,.19.007.285-.019.191-.016.286.033.189.036.284.015.19.018.284-.018.191-.015.285.016.19.019.285-.032.191-.029.286.034.189.036.284.008.19.012.284.007.19.01.284,0,.191.007.285.007.19.01.284.028.189.031.284,0,.19,0,.284.015.19.018.283-.016.191-.013.284-.013.191-.01.284.032.189.035.282.021.189.024.282-.053.191-.05.284.059.188.062.28,0,.19,0,.282.011.189.014.281-.013.19-.01.282-.027.191-.024.282.049.189.052.28,0,.191.005.281-.018.191-.015.282,0,.192.008.281.009.194.013.282.051.193.054.278c0,.105,0,.2,0,.28.005.122-.022.217-.019.28a2.263,2.263,0,0,0,.055.278,2.638,2.638,0,0,0,.093.265,2.6,2.6,0,0,0,.06.277c.036.084.093.162.139.248s.071.174.125.256.1.159.161.236.148.123.212.2.122.143.191.212.133.132.207.2.129.14.2.2.157.108.236.166.15.118.232.172.174.082.258.133.167.09.253.138.155.112.243.157.158.112.247.153.176.078.266.117.184.061.275.1.189.045.282.079.183.059.276.09.171.1.265.124.193.029.288.055.186.051.281.075.19.036.285.059.176.092.272.113.192.027.289.046.193.011.29.028.185.059.281.075.2-.012.294,0,.19.036.287.049.188.057.285.068.2-.018.3-.008.188.066.287.075.192.022.289.029l.291.021c.1.006.2-.032.295-.026s.192.05.291.054.194-.015.293-.012.194.014.294.016.194.021.293.021.2-.025.3-.025.2-.009.293-.01l.293,0c.1,0,.2.013.294.01s.2-.024.292-.029.2-.022.292-.028.2,0,.292-.011.194-.027.29-.036.2.021.3.011.189-.07.285-.082.2,0,.293-.015.194-.041.289-.056.194-.032.29-.05.194-.035.288-.055.2-.03.289-.051.191-.046.285-.069.186-.062.279-.088.188-.056.279-.084.184-.067.274-.1.2-.02.291-.053.165-.112.253-.148.184-.067.27-.106.192-.053.277-.1.167-.1.25-.148.176-.087.257-.136.166-.1.244-.156.156-.116.232-.172.161-.111.234-.171.151-.123.22-.186.107-.165.173-.232.146-.128.207-.2.115-.153.171-.228.12-.149.172-.226.1-.161.149-.241.082-.172.122-.255.131-.153.165-.239.039-.19.067-.276.028-.19.049-.278.093-.178.106-.266.008-.194.013-.281c0-.046.02-.141.024-.282,0-.08,0-.174,0-.281,0-.086-.006-.18,0-.283s.023-.182.025-.282-.01-.184-.007-.282.018-.184.02-.281,0-.185,0-.282-.019-.186-.017-.282,0-.186,0-.282-.009-.186-.007-.282.006-.185.008-.28.013-.185.015-.28,0-.186,0-.281.01-.186.012-.281,0-.186,0-.281.034-.186.036-.281-.024-.187-.022-.282,0-.187,0-.282.023-.186.025-.281,0-.187.006-.282.01-.187.012-.282-.02-.188-.018-.283.028-.187.029-.282-.018-.188-.016-.283.03-.187.032-.282-.015-.188-.013-.283.04-.186.042-.28.017-.187.019-.281,0-.187,0-.281-.011-.188-.009-.282-.009-.188-.007-.282.025-.187.027-.281-.038-.189-.036-.283.023-.188.025-.282.037-.188.039-.282-.038-.189-.036-.283.035-.187.037-.281-.023-.189-.021-.283.022-.188.024-.282.005-.188.007-.283-.011-.189-.008-.283.006-.189.008-.283,0-.189,0-.284.017-.189.019-.284.017-.189.019-.283-.039-.19-.037-.285.053-.189.055-.283,0-.189,0-.284-.018-.19-.016-.285,0-.19,0-.285.032-.189.034-.284-.048-.191-.046-.285.031-.189.033-.284.005-.19.007-.284.01-.19.012-.285.023-.189.025-.284-.05-.191-.048-.285.042-.189.044-.283-.017-.191-.015-.285.024-.189.026-.284.02-.189.021-.284-.024-.19-.022-.284.034-.191.035-.285-.041-.191-.04-.286,0-.19,0-.285.024-.189.026-.283.016-.189.018-.283-.018-.19-.016-.284,0-.189,0-.282.019-.189.021-.283.039-.188.041-.281,0-.189,0-.283-.037-.187-.035-.278.008-.189,0-.283-.039-.186-.051-.28-.009-.19-.026-.284,0-.193-.018-.285-.043-.185-.059-.278-.034-.187-.047-.28-.026-.187-.033-.281-.052-.189-.051-.283.01-.191.014-.285.047-.189.053-.282-.006-.192,0-.285.006-.192.016-.285.044-.189.055-.28.042-.189.055-.28.025-.191.04-.281-.01-.2.006-.287.033-.2.051-.282c.022-.107.089-.19.106-.268.04-.175.185-.24.049-.288a7.442,7.442,0,0,1-3.644,3.222,16.492,16.492,0,0,1-3.549.9,24.6,24.6,0,0,1-3.353.284c-3.61-.183-4.76-.131-7.294-1.185A4.327,4.327,0,0,1,840.667,307.783Z" transform="translate(-0.105 -5.949)" fill="none" stroke="#b3b0a7" stroke-linecap="round" stroke-linejoin="round" stroke-width="0.425"/><path d="M849.953,295.712c-.1,0-.2-.011-.292-.006s-.195.007-.292.013-.192.036-.289.043l-.29.025c-.1.009-.2-.01-.293,0s-.193.027-.289.039-.192.033-.287.047-.194.018-.289.034-.192.034-.287.051-.189.046-.284.066-.187.055-.281.076-.2.013-.29.035-.183.069-.276.094-.194.031-.286.057-.186.059-.278.087-.176.087-.267.118-.187.054-.277.087-.181.071-.27.106-.182.069-.27.105-.184.065-.271.1-.184.065-.271.106-.171.092-.257.136-.168.1-.251.145-.169.1-.252.144-.166.1-.247.152-.171.095-.25.148-.152.122-.229.18-.166.1-.24.163-.14.137-.212.2-.136.14-.2.206-.144.131-.211.2-.127.147-.189.219-.135.14-.194.216-.12.153-.174.232-.112.16-.16.242-.1.167-.145.252-.073.181-.11.269-.078.179-.107.27-.055.187-.076.281-.01.194-.022.289a2.864,2.864,0,0,0-.021.287c0,.1-.039.194-.032.291a2.842,2.842,0,0,0,.067.284,2.793,2.793,0,0,0,.079.277,2.9,2.9,0,0,0,.062.285c.036.088.089.171.135.257s.082.175.135.257.121.149.181.227.1.163.169.237.155.116.226.184.12.151.195.215.145.126.223.186.16.1.242.161.169.09.252.142.152.116.238.165.173.08.26.125.164.1.253.141.175.078.265.117.184.056.275.093.179.067.271.1.178.071.271.1.182.059.276.089.182.061.276.088.182.061.277.086.184.055.279.077.193.016.289.037.183.056.279.075.186.045.281.063.191.019.287.036.188.041.284.056.188.047.284.059.2-.014.293,0,.191.027.288.037.187.045.284.055.19.03.287.038.195-.023.292-.015.19.046.288.052.192.015.289.02.194.006.291.01.194-.02.291-.017.2.036.3.038.2.008.294.009.2-.038.294-.038.2.024.294.023.2-.023.293-.025.2,0,.293,0,.2.027.295.023.2-.024.292-.029.195-.029.292-.036.2.017.295.009.195-.024.291-.033.193-.04.29-.05.194-.026.29-.037.195-.019.291-.032.193-.033.289-.047.2.008.3-.007.194-.03.289-.047.191-.047.286-.065.192-.037.287-.057.191-.044.285-.066.184-.074.277-.1.2-.021.29-.046.185-.065.277-.092.193-.04.284-.069.186-.062.277-.093.187-.057.278-.091.171-.1.261-.134.187-.058.275-.1.182-.074.269-.113.184-.068.27-.11.169-.1.253-.144.17-.1.253-.143.174-.089.255-.139.161-.112.24-.165.157-.116.235-.172.159-.114.234-.173.148-.127.22-.19.149-.126.218-.192.141-.135.207-.2.147-.132.208-.2.112-.161.169-.238.122-.154.173-.234.1-.168.146-.253.1-.172.134-.26.072-.183.1-.274.047-.19.068-.284.041-.191.053-.286.006-.194.008-.291a173.148,173.148,0,0,1-.043-.578c-.018-.094-.063-.182-.091-.276s-.047-.186-.084-.277-.075-.176-.12-.263-.082-.174-.134-.257-.106-.161-.164-.24-.129-.142-.194-.216-.128-.141-.2-.211-.126-.146-.2-.212-.133-.139-.209-.2-.168-.1-.247-.154-.146-.126-.227-.181-.154-.117-.237-.168-.182-.07-.267-.118-.154-.118-.242-.163-.17-.088-.259-.13-.186-.055-.275-.094-.173-.082-.264-.118-.178-.072-.27-.106-.174-.084-.266-.116-.189-.04-.283-.07-.179-.071-.273-.1-.186-.048-.281-.074-.183-.061-.278-.085-.194-.017-.29-.038-.187-.048-.283-.068-.186-.051-.283-.07-.188-.048-.284-.065-.192-.023-.289-.038-.188-.04-.284-.054-.192-.013-.288-.025-.189-.04-.286-.051-.193-.009-.29-.019-.193-.006-.291-.015-.191-.028-.289-.036-.193-.009-.291-.016-.193-.008-.291-.013-.192-.017-.289-.021-.193-.006-.29-.009l-.291-.008c-.1,0-.194,0-.292,0s-.194-.032-.292-.033-.194.015-.291.015-.194.008-.293.009-.194.009-.292.011S850.053,295.709,849.953,295.712Z" transform="translate(0)" fill="none" stroke="#b3b0a7" stroke-linecap="round" stroke-linejoin="round" stroke-width="0.425"/><path d="M851.023,297c-.1,0-.2.015-.293.019s-.2,0-.294,0-.2.015-.292.023-.193.046-.289.055-.2,0-.294.011-.2.006-.293.018-.19.057-.286.071-.2.008-.293.024-.191.046-.286.063-.194.026-.289.045-.188.055-.283.076-.19.045-.284.068-.2.027-.289.053-.182.076-.275.1-.188.052-.281.081-.183.069-.275.1-.19.049-.28.082-.179.08-.268.116-.179.077-.268.115-.19.055-.277.1-.168.1-.254.146-.174.089-.259.135-.169.1-.252.147-.174.09-.255.142-.174.093-.253.148-.16.115-.236.173-.15.128-.223.19-.143.135-.214.2-.153.124-.22.192-.144.135-.207.207-.127.151-.185.227-.093.175-.145.254-.127.153-.172.237-.09.175-.128.264a2.846,2.846,0,0,0-.094.277,2.617,2.617,0,0,0-.055.286,2.358,2.358,0,0,0-.042.287,2.243,2.243,0,0,0,0,.29,2.338,2.338,0,0,0,.016.291,2.4,2.4,0,0,0,.081.28,2.374,2.374,0,0,0,.089.278,2.637,2.637,0,0,0,.136.259,2.821,2.821,0,0,0,.158.246c.056.076.132.139.2.214s.134.136.206.205.121.152.2.216.167.1.247.157.154.113.238.167.152.12.238.169.178.075.266.121.175.078.265.12.161.111.252.15.19.044.282.08.177.076.271.109.183.059.277.089.18.069.275.1.186.05.281.076.187.046.283.07.185.056.281.078.187.041.283.061.185.055.282.073.19.035.286.051.2,0,.293.013.19.032.288.046.192.028.289.04.192.027.29.038.19.032.287.041.192.024.289.032.195,0,.293,0,.193.025.292.031.193.015.291.019.194.022.293.026.195-.013.293-.009.2.023.3.026.2-.027.293-.026.2.031.292.032.2-.015.293-.016.2.014.293.012.2-.011.292-.015.2,0,.292,0,.194-.044.29-.05.2,0,.292,0,.2.008.293,0,.192-.049.288-.058l.29-.03c.1-.01.2,0,.292-.013s.2-.013.291-.026.191-.046.286-.061.191-.04.286-.056.192-.036.286-.054.2,0,.293-.021.19-.044.284-.064.186-.063.279-.085.191-.039.284-.063.19-.043.283-.07.187-.056.278-.084.181-.074.272-.1.193-.037.283-.069.183-.067.272-.1.173-.093.261-.129.185-.062.272-.1.179-.077.265-.119.167-.1.251-.145.177-.082.26-.13.161-.111.242-.161.158-.114.237-.167.177-.087.253-.144.14-.139.212-.2.15-.125.22-.189.133-.142.2-.211.135-.14.2-.213.116-.156.171-.233.112-.159.159-.241.116-.16.155-.246a2.64,2.64,0,0,0,.094-.275,2.516,2.516,0,0,0,.1-.275,2.344,2.344,0,0,0,.033-.29,2.386,2.386,0,0,0,0-.29,2.248,2.248,0,0,0-.052-.284,2.3,2.3,0,0,0-.048-.285,2.53,2.53,0,0,0-.1-.272c-.038-.087-.08-.174-.129-.26s-.089-.17-.146-.251-.122-.148-.185-.223-.123-.146-.192-.217-.153-.115-.226-.181-.135-.134-.212-.2-.148-.12-.229-.177-.147-.125-.23-.177-.166-.1-.251-.145-.168-.091-.255-.137-.173-.083-.261-.126-.174-.078-.264-.117-.182-.059-.272-.1-.175-.077-.267-.11-.183-.054-.276-.086-.178-.07-.271-.1-.183-.055-.277-.082-.182-.063-.276-.088-.184-.057-.279-.08-.186-.049-.282-.07-.193-.016-.289-.036-.186-.05-.283-.068-.19-.03-.287-.046-.187-.037-.283-.051-.193,0-.289-.015-.185-.059-.282-.071-.19-.024-.287-.035-.191-.021-.288-.03-.194.005-.291,0-.191-.031-.288-.038-.193-.008-.291-.014-.192.008-.289,0-.191-.027-.288-.031-.193,0-.29,0-.193,0-.291,0-.194-.019-.292-.02l-.291,0c-.1,0-.194.022-.292.024l-.291,0C851.222,297.018,851.123,297,851.023,297Z" transform="translate(-1.009 -0.783)" fill="none" stroke="#b3b0a7" stroke-linecap="round" stroke-linejoin="round" stroke-width="0.425"/><path d="M879.044,301.519c.1.021.193.047.287.072s.191.053.283.082.189.061.28.094.185.07.275.108.18.083.268.125.177.089.262.135.175.092.258.142.167.107.247.161.165.112.242.169.157.123.231.184.159.122.23.185.147.137.214.2.143.144.207.212.139.151.2.22c.073.085.135.161.186.227a1.72,1.72,0,0,1,.164.238" transform="translate(-22.997 -3.483)" fill="none" stroke="#b3b0a7" stroke-linecap="round" stroke-linejoin="round" stroke-width="0.425"/><path d="M850.285,300.69c-.1.01-.2.017-.291.03s-.194.029-.289.044-.194.026-.289.044-.192.041-.286.062-.19.052-.284.076-.193.042-.286.068-.187.061-.279.091-.186.065-.276.1-.184.068-.274.1-.183.072-.271.111-.179.08-.266.121-.179.08-.264.125-.17.1-.253.145-.172.095-.253.145-.164.109-.243.162-.166.105-.243.162-.158.117-.233.176-.149.129-.22.192-.148.13-.217.2-.136.143-.2.212-.135.145-.194.217-.124.156-.177.232-.114.163-.159.243a2.194,2.194,0,0,0-.122.262" transform="translate(-2.367 -2.989)" fill="none" stroke="#b3b0a7" stroke-linecap="round" stroke-linejoin="round" stroke-width="0.425"/><path d="M852.907,307.2a2.423,2.423,0,0,0-.294.022,2.712,2.712,0,0,0-.291.049c-.1.022-.189.053-.283.084s-.184.068-.275.107-.18.08-.267.127-.173.095-.256.147-.165.108-.244.166-.159.118-.232.182-.145.136-.213.2-.139.144-.2.219a2.373,2.373,0,0,0-.167.243,1.794,1.794,0,0,0-.136.261,1.274,1.274,0,0,0-.08.283.888.888,0,0,0,0,.293" transform="translate(-5.67 -6.867)" fill="none" stroke="#b3b0a7" stroke-linecap="round" stroke-linejoin="round" stroke-width="0.425"/><path d="M841.9,316.713a1.341,1.341,0,0,0,.106.268,2.034,2.034,0,0,0,.167.236,2.737,2.737,0,0,0,.191.215c.063.067.12.145.2.212s.154.11.233.171.15.114.231.171.139.134.223.187.164.1.25.147.17.087.257.133.175.077.264.12.171.082.261.122.177.07.268.108.181.061.272.1.174.079.266.112.184.055.277.085.18.067.273.1.179.072.273.1.19.034.284.06l.281.072c.093.023.188.04.283.062s.18.074.276.094.188.042.284.061.192.011.287.028.184.056.28.072.192.015.288.03.188.043.284.057.194,0,.291.01.191.02.288.03.192.015.289.025.192.025.289.033.189.036.286.043.192.007.29.013.193,0,.29.009.193.017.291.021.192,0,.29,0,.193.012.291.014.193.006.291.006.2,0,.3,0,.2.005.295,0,.2.011.3.008.2-.024.294-.028.2-.007.294-.013.2.006.3,0,.2-.023.293-.032.2-.013.293-.024.2-.028.292-.04.194-.035.29-.049.194-.029.29-.044.194-.03.29-.047.189-.055.284-.074.192-.037.287-.057.2-.019.291-.041.184-.074.277-.1.2-.015.292-.041.181-.08.273-.107.194-.037.285-.066.189-.054.28-.085.181-.078.271-.111.188-.06.277-.1.184-.07.273-.108.169-.1.256-.144.185-.07.272-.112.171-.1.257-.143.18-.08.264-.126.176-.089.258-.138.16-.115.241-.165.165-.107.244-.16.165-.109.241-.165.17-.1.244-.163.149-.131.22-.193.135-.145.2-.21.143-.138.206-.207.151-.135.207-.209a2.394,2.394,0,0,0,.151-.249,1.732,1.732,0,0,0,.144-.255.767.767,0,0,0,.021-.287" transform="translate(-0.872 -12.082)" fill="none" stroke="#b3b0a7" stroke-linecap="round" stroke-linejoin="round" stroke-width="0.425"/><path d="M865.927,300.092c-.09-.044-.184-.074-.269-.114s-.177-.085-.263-.124-.178-.084-.264-.12-.182-.076-.27-.11-.184-.074-.273-.1-.189-.059-.279-.081a2.892,2.892,0,0,0-.286-.047,2.176,2.176,0,0,0-.289-.021,1.792,1.792,0,0,0-.289.01,1.6,1.6,0,0,0-.281.068,1.735,1.735,0,0,0-.26.126,2.213,2.213,0,0,0-.249.146c-.075.054-.153.111-.229.177s-.131.131-.211.2-.15.114-.229.177-.144.123-.223.185-.156.11-.235.171-.154.113-.232.173-.148.121-.224.18-.155.114-.232.173-.155.115-.232.174-.153.12-.229.179l-.231.177-.228.181c-.078.061-.152.123-.225.183s-.149.13-.221.19-.157.121-.227.182-.147.135-.213.2-.15.139-.209.2a1.256,1.256,0,0,0-.169.23.934.934,0,0,0-.109.267.775.775,0,0,0-.014.288.853.853,0,0,0,.091.276,1.15,1.15,0,0,0,.175.231,1.538,1.538,0,0,0,.221.188,1.943,1.943,0,0,0,.247.152,2.324,2.324,0,0,0,.266.117,2.74,2.74,0,0,0,.278.083,2.839,2.839,0,0,0,.284.056c.094.015.189.039.287.045s.193,0,.291,0,.192-.013.289-.025.189-.034.285-.055.188-.043.281-.073a2.875,2.875,0,0,0,.272-.1c.079-.035.169-.072.262-.122s.166-.088.254-.139.162-.1.248-.15.156-.11.239-.164l.243-.158c.08-.053.166-.1.247-.153s.157-.11.236-.165.159-.109.238-.165l.236-.17.235-.171c.079-.058.151-.124.228-.182s.16-.113.236-.171.153-.122.228-.18.156-.119.23-.177l.227-.182q.121-.1.223-.184c.083-.07.154-.135.216-.19a1.926,1.926,0,0,0,.2-.2,1.711,1.711,0,0,0,.15-.222,1.255,1.255,0,0,0,.114-.243.9.9,0,0,0,.041-.265.714.714,0,0,0-.053-.262.683.683,0,0,0-.146-.22A.754.754,0,0,0,865.927,300.092Zm-4.58,3.884a1.8,1.8,0,0,1-.268.077,1.673,1.673,0,0,1-.278.016,1.707,1.707,0,0,1-.276-.033,1.778,1.778,0,0,1-.268-.074,1.866,1.866,0,0,1-.251-.117,1.888,1.888,0,0,1-.233-.148,1.719,1.719,0,0,1-.216-.175,1.081,1.081,0,0,1-.17-.218.345.345,0,0,1,0-.283.883.883,0,0,1,.142-.25,1.552,1.552,0,0,1,.192-.218,1.822,1.822,0,0,1,.239-.167,1.458,1.458,0,0,1,.261-.127.838.838,0,0,1,.28-.072,1.1,1.1,0,0,1,.305.076c.091.031.193.065.3.109s.188.095.283.14.193.1.281.143c.109.054.208.1.282.135a.366.366,0,0,1,.175.207.5.5,0,0,1,.016.272.667.667,0,0,1-.105.253.924.924,0,0,1-.19.2,1.3,1.3,0,0,1-.233.15A1.826,1.826,0,0,1,861.346,303.976Zm3.869-3.017a.682.682,0,0,1-.138.245,2.466,2.466,0,0,1-.2.2c-.065.06-.142.119-.219.181s-.149.113-.228.169-.159.1-.239.153-.162.1-.245.144-.165.1-.248.139-.176.082-.261.114a2.052,2.052,0,0,1-.275.072,1.019,1.019,0,0,1-.279.026,2,2,0,0,1-.289-.028,2.854,2.854,0,0,1-.279-.083c-.093-.03-.183-.069-.271-.107a2.319,2.319,0,0,1-.267-.12,1.356,1.356,0,0,1-.23-.178.519.519,0,0,1-.163-.238.278.278,0,0,1,.1-.262c.044-.043.116-.116.207-.209.06-.063.125-.138.2-.213s.14-.129.217-.2.148-.125.226-.188.153-.121.234-.178.165-.108.25-.156a2.508,2.508,0,0,1,.263-.132,1.79,1.79,0,0,1,.279-.093,1.275,1.275,0,0,1,.291-.042,1.255,1.255,0,0,1,.276.052,2.693,2.693,0,0,1,.27.081c.086.032.173.071.26.111s.177.075.258.121a2.222,2.222,0,0,1,.236.158,1.034,1.034,0,0,1,.2.2A.286.286,0,0,1,865.215,300.959Z" transform="translate(-10.774 -2.204)" fill="none" stroke="#b3b0a7" stroke-linecap="round" stroke-linejoin="round" stroke-width="0.425"/></g></g></g></svg>