<svg xmlns="http://www.w3.org/2000/svg" xmlns:xlink="http://www.w3.org/1999/xlink" width="287" height="80" viewBox="0 0 287 80"><defs><clipPath id="a"><rect width="287" height="80" transform="translate(180 206)" fill="#fdfcf8" stroke="#6c655d" stroke-width="1"/></clipPath><clipPath id="b"><rect width="243.605" height="147.216" fill="none"/></clipPath></defs><g transform="translate(-180 -206)" clip-path="url(#a)"><g transform="translate(248.507 -134.459)"><g transform="translate(-0.172 342.344)"><g clip-path="url(#b)"><path d="M146.228,351.46l-8.067,10.581m-26.542-11.7,8.058,8.2m31.477-11.117.534-2.645-2.424,1.185-2.351-1.325.378,2.672-1.987,1.826,2.658.466,1.123,2.453,1.264-2.384,2.681-.31-1.876-1.939ZM111.115,346.3l.786-2.581-2.527.946-2.212-1.545.119,2.7-2.153,1.626,2.6.719.881,2.551,1.488-2.251,2.7-.05-1.681-2.111Zm-4.684,25.344a8.379,8.379,0,0,0-2-.281,8.474,8.474,0,0,0-1.788.156m1.56,29.528c-3.14.042-5.676.756-5.665,1.595s2.566,1.486,5.706,1.445,5.676-.756,5.665-1.6-2.566-1.486-5.705-1.445ZM111,391.415h0a6.347,6.347,0,0,0,.836-2.041,37.249,37.249,0,0,1,1.8-5.047,8.525,8.525,0,0,0,.507-2.938,6.519,6.519,0,0,0-.249-2.047c-.443-1.315-1.313-1.414-1.784-1.366a2.771,2.771,0,0,0-.859.345c-.39.213-.785.47-.995.6-.406.258-2.02,1.535-.308,2.318a2.669,2.669,0,0,0,1.19.256,3.121,3.121,0,0,0,1.97-.875M95.963,393.259a2.823,2.823,0,0,1,.892-1.619c.024-.012.053-.028.086-.047a9.635,9.635,0,0,1,2.674-1.253,20.8,20.8,0,0,0,3.034-.331c1.342-.257,1.538-.8,1.56-1.327s-.992-.878-2.049-1.06a14.468,14.468,0,0,0-3.647-.083c-.493.081-1.061.164-1.6.261-.327.057-.645.121-.932.19a1.775,1.775,0,0,0-.462.19,3.056,3.056,0,0,0-.857.775m12.6,15.138a22.336,22.336,0,0,0-1.912,5.573,155.018,155.018,0,0,0-.621,16.111c.041.557.128,1.42.236,2.448.369,3.5,1,8.91,1.053,10.6.028.928.129,3.583.224,6.418.126,3.825.242,7.978.146,8.665M94.843,383.843a6.32,6.32,0,0,1,1.627-.646,1.3,1.3,0,0,1,.146-.015c.06,0,.148,0,.254.007.975.042,3.635.327,4.391.421.839.1,4.5.512,4.237,2.208s-3.7.639-4.133.579-3.337.306-3.958.365a1.279,1.279,0,0,0-.506.208,7.122,7.122,0,0,0-1.387,1.21m-2.21,6.1a14.587,14.587,0,0,1-.812-2.743,3.089,3.089,0,0,1,.021-.735c.139-.965.637-1.8.462-2.1a3.97,3.97,0,0,1,.154-2.185,5.231,5.231,0,0,0,.466-2,17.349,17.349,0,0,1-.183-3.391,8.989,8.989,0,0,1,.273-1.281c.175-.539.462-.985,1-1,.483-.012,1.279-.006,2.045,0h.123c.7.008,1.358.021,1.725.025a14.062,14.062,0,0,1,3.962.746c.625.375,2.608,2.22,1.964,2.806a2.063,2.063,0,0,1-2.46.173,4.35,4.35,0,0,0-2.01-.469,14.716,14.716,0,0,0-2.87.481c-.031.017-.156.123-.294.242-.16.138-.339.3-.4.344m-.518,28.537v0a46.777,46.777,0,0,1-.522,6.539c-.6,2.84-2.565,13.513-2.866,17.547-.156,2.078-.4,5.979-.567,9.419a64.043,64.043,0,0,0-.147,6.588M96,410.447v0c.062-1.744.128-3.381.26-4.539a14.278,14.278,0,0,0-.721-5.925c-.227-.7-.472-1.328-.692-1.848-.17-.4-.378-.9-.6-1.439m2.482-17.844.128-.122c.485-.463,1.1-1.01,1.4-.879a6.96,6.96,0,0,0,1.937.546c.707.062,1.759-.521,1.063-1.425A6.862,6.862,0,0,0,97.8,375.2a1.118,1.118,0,0,0-.491.02,18.1,18.1,0,0,0-2.781,1.4,1.983,1.983,0,0,0-1.106,1.623,4.555,4.555,0,0,0,.261,1.6m13.207-22.964a9.259,9.259,0,0,0-2.23-.41,6.051,6.051,0,0,0-2.179.2m4.4,1.07a9.257,9.257,0,0,0-2.231-.41,6.052,6.052,0,0,0-2.18.2m2.31,2.188a17.139,17.139,0,0,1,2.578.307h.01c.049.01.146-.075.21-.186.081-.139.013-.221-.007-.638a.914.914,0,0,0-.074-.469s-.031-.146-.148-.169l-.033-.005a19.762,19.762,0,0,0-5.382-.236l-.063.005c-.1.01-.129.121-.163.161a2.564,2.564,0,0,0-.132.515,2.592,2.592,0,0,0-.011.648.177.177,0,0,0,.2.2c.026,0,.054-.007.081-.01a17.269,17.269,0,0,1,2.937-.121Zm2.535-1.159c-.022-.87-.03-1.553-.035-1.694v-.008c-.008-.314-.417-1.1-2.249-1.354s-2.855.378-2.9.683c-.008.065-.026.229-.05.453-.043.428-.1,1.074-.15,1.682m5.425,1.7c.04,1.057.1,2.119.183,2.733.207,1.481,1.013,7.2,1.1,8.4a4.716,4.716,0,0,0,1.295,2.677c.618.874,1.314,1.713,1.316,4.476M97.8,375.2a15.909,15.909,0,0,1,2.182-3.333c.535-.621,1.745-10.45,1.86-12.028h0m-4.9,31.749h0c.028,3.3.05,6.092.055,6.616a6.929,6.929,0,0,0,1.1,4.48c1.131,1.559,4.844,1.717,6.312,1.612a22.841,22.841,0,0,0,2.849-.206,7.455,7.455,0,0,0,1.721-.553c1.828-.833,2.091-3.442,2.028-5.215-.026-.751-.028-3.6-.006-6.911m.143-9.916c-.071,2.613-.119,6.51-.142,9.915m-14.13-8.226c0-.114,0-.225,0-.335m-.011-4.126c0,.042-.006.083-.007.124m.061,8.949v0c0-.278,0-.553-.008-.828m29.988.094a3.018,3.018,0,0,0,.261-.278,1.579,1.579,0,0,0,.033-2.173l-.024-.017s-.025-.017-.071-.042a1.235,1.235,0,0,0-1.291.025,2.95,2.95,0,0,0-.724,3.118h0a3.481,3.481,0,0,0-.411,1.4m3.224,9.162c.175-.125.363-.27.55-.425v0c.7-.585,1.394-1.346,1.335-1.981-.078-.836-.974-.9-1.657-.8a3.587,3.587,0,0,0-.4.087m-.065-.408c.121-.125.253-.255.386-.385.376-.364.764-.715,1-.9a1.78,1.78,0,0,0,.754-1.628c-.076-.656-.764-.8-1.888-.664a2.327,2.327,0,0,0-.236.042,3.968,3.968,0,0,0-.943.36q-.123.063-.238.128m.232-.139c.01-.486.439-.8.865-1.057.221-.132.442-.246.6-.359a2.518,2.518,0,0,0,.93-1.875c-.072-.6-.645-.961-1.656-1.167a1.661,1.661,0,0,0-.274-.032,2.617,2.617,0,0,0-.29.008,5.1,5.1,0,0,0-1.816.634m36.171,62.209a46.342,46.342,0,0,1-3.084-4.666,82.351,82.351,0,0,1-4.433-8.156c-1.181-2.836-4.378-10.393-5.379-13.48a85.389,85.389,0,0,0-4.971-10.6c-.536-.935-2.855-2.109-4.144-2.708m8.4-17.311a8.7,8.7,0,0,0-1.831-4.433,16.1,16.1,0,0,1-1.439-3.708c-.29-1.267-1.584-1.429-2.223-1.55a10.14,10.14,0,0,1-1.029-.256,6.991,6.991,0,0,1-1.449-.587c-.674-.4-1.955-1.013-2.264-.224a2.688,2.688,0,0,0,.367,2.229,15.437,15.437,0,0,0,2.717,2.587,8.382,8.382,0,0,1,1.5,1.977c.02.036.035.065.045.086,0,0,.339,1.439.439,1.734m31.672,54.4c-1.15-4.821-5.445-11.64-7.694-15.124s-8.02-12.429-10.458-18.018c-.681-1.56-1.384-3.09-2.063-4.518M134.2,410.205a15.309,15.309,0,0,0,2.567.059,12.2,12.2,0,0,0,4.308-.945c.814-.387,1.292-.856,1.264-1.334-.062-1.075-2.659-1.8-5.8-1.618a10.374,10.374,0,0,0-4.931,1.3m4.927-29.637a7.858,7.858,0,0,0-5.751.382m3.033-14.7a4.3,4.3,0,0,0-2.07-.288,3.772,3.772,0,0,0-1.917.52m4.024.42a4.264,4.264,0,0,0-2.07-.289,3.79,3.79,0,0,0-1.917.52m-.461,2.866a.785.785,0,0,0,.063.056,4.147,4.147,0,0,1,2.477-.754,10.515,10.515,0,0,1,3.075.421.2.2,0,0,0,.027-.036,1.443,1.443,0,0,0-.093-1.509.784.784,0,0,0-.2-.157,5.963,5.963,0,0,0-2.8-.551,5.221,5.221,0,0,0-2.526.7.639.639,0,0,0-.093.079v0a1.492,1.492,0,0,0-.268,1.3,1.521,1.521,0,0,0,.341.451Zm-2.233,19.591v0c-.01-.1-.021-.184-.029-.269m.964,8.269v0c-.028-.236-.056-.472-.084-.706m7.024-27.193c.36,1.362,1.285,4.365,1.484,5.345a33.632,33.632,0,0,0,1.8,6.1c.517.779,2.1,1.963,2.779,4.443m-12.37,17.526c-.093-.843-.2-1.77-.307-2.734m5.694,12.8a18.01,18.01,0,0,0,3.152-.026,12.918,12.918,0,0,0,1.881-.292l.069-.015a7.788,7.788,0,0,0,1.97-.75c3.731-2.1,2.431-6.553,2.282-8.25-.093-1.048-.593-5.118-1.1-9.086-.137-1.093-.276-2.178-.407-3.189m-14.4,1.466h0c.027.233.055.469.083.709m-.572-6.643a.069.069,0,0,1,0-.024,9.534,9.534,0,0,1,1.1-4c.279-.424,1.035-1.1,1.013-1.967-.039-1.4.021-4.587.027-5.636,0-.985.122-3.857.182-5.456m5.349-1.98c-.077-.542-.149-1.133-.168-1.651-.032-.8-.749-1.2-2.787-1.169s-2.691.948-2.689,1.457a13.515,13.515,0,0,0,.224,1.592m31.545,7.313a4.631,4.631,0,0,0-3.227-.538m-.379,35.473a.043.043,0,0,0,.014,0c1.456.054,2.409-.065,2.457-.364.086-.533-2.741-1.435-6.315-2.016q-.258-.042-.513-.079m0,0c-3.342-.5-6.035-.513-6.117,0-.014.084.045.177.168.276m18.086-47.612a3.955,3.955,0,0,0-2.5-1.53,3.072,3.072,0,0,0-2.663.417M165,358.823a4.556,4.556,0,0,0-2.823-1.589,3.936,3.936,0,0,0-2.5.438M214.75,463.022c-1.921-1.182-10.04-10.779-15.829-17.781-2.814-3.405-5.079-6.2-5.814-7.109-2.248-2.794-8.016-9.656-11.355-13.057a111.072,111.072,0,0,0-9.238-8.155c-1.524-1.2-2.809-1.243-4.733-2.285s-2.648-2.166-4.17-4.172c-1.321-1.736-2.159-2.933-2.8-3.768m3.3-17.543h0a.071.071,0,0,1,.021.008c.544.233,1.434.606,2.176.878a5.719,5.719,0,0,1,3.2,2.77c.488,1.279,1.98,4.232,2.772,5.846a14.031,14.031,0,0,0,4.873,5.631c2.931,2.1,16.879,13.239,24.8,17.978,5.979,3.577,26.7,16.736,36.5,22.976l5.222,3.327M145.742,404a1.654,1.654,0,0,0-.411.319c-.214.275-.395,1.4,1.492,1.859a11.153,11.153,0,0,0,1.663.282c.156.014.3.021.432.025h0m-2.455-7.575a4.2,4.2,0,0,0-1.774.783,1.364,1.364,0,0,0,1.107,2.276m1.909-9.008-.071.028a2.674,2.674,0,0,0-1.513,1.285,1.431,1.431,0,0,0,.95,1.732m2.084-10.083a1.606,1.606,0,0,0-.721.953.969.969,0,0,0,.31,1.051m18.827,6.03a44.653,44.653,0,0,1-3.463-4.8c-.27-.413-.478-.735-.59-.9-.482-.723-1.41-2.474-1.719-2.852s-1.444-.653-3.024-1.408-3.264-2.337-3.986-2.063a2.062,2.062,0,0,0-1.306,2.406,6.841,6.841,0,0,0,2.99,4.536,10.111,10.111,0,0,1,3.918,4.639,19.626,19.626,0,0,1,.926,4.123,18.576,18.576,0,0,0,.81,2.785,22.269,22.269,0,0,0,.874,2.13c.688,1.409,1.685,3.333,2.2,4.158m-.182-46.64h0c.033-.325.1-.8.143-1.224.027-.253.047-.49.051-.669a1.267,1.267,0,0,0-.011-.249,3.342,3.342,0,0,0-2.9-1.951c-2-.269-2.717.754-2.749,1,0,.012,0,.029-.008.05-.019.114-.064.337-.117.595-.089.438-.2.97-.255,1.214m5.846,1.231a3.22,3.22,0,0,0-3.116-2.191,2.983,2.983,0,0,0-2.73.96,2.771,2.771,0,0,0-.647,1.413,1.925,1.925,0,0,0,.171.755m5.957,1.371c.6-.449.511-1.614.445-1.973a2.7,2.7,0,0,0-.079-.333m-.89,29.1c.586-2.848,1.631-7.928,1.739-9.5.147-2.162-1.3-4.211-1.624-4.9a5.813,5.813,0,0,1-.024-2.756c.107-.825.386-8.287.433-9.633,0-.126.007-.2.007-.207a2.818,2.818,0,0,0-2.731-2.8c-2.562-.339-3.037.991-3.233,1.638-.016.056-.031.1-.044.149-.174.558-2.89,8.688-3.486,10.387-.163.464-.2.6-1.111,1.295s-2.7,2.245-3.065,4.1c-.146.741-.926,4.573-1.835,8.995-.135.657-.272,1.328-.411,2-.349,1.69-.7,3.411-1.039,5.033-.017.082-.033.163-.051.243h0c-.2.982-.4,1.925-.582,2.8-.227,1.092-.433,2.078-.609,2.9-.275,1.295-.469,2.192-.539,2.472-.05.2-.093.4-.128.587a5.629,5.629,0,0,0-.056,2.031,3.622,3.622,0,0,0,.427,1.177,1.08,1.08,0,0,0,.3.306,3.219,3.219,0,0,0,.508.3,12.308,12.308,0,0,0,1.945.7h0c1.553.449,3.406.817,4.59,1.028.136.024.272.047.411.07,1.149.185,2.381.317,3.356.385l.014,0A10.655,10.655,0,0,0,159,408a1.959,1.959,0,0,0,1.8-1.3.323.323,0,0,1,.015-.035c.217-.495.751-3.215,1.306-6.245m-42.135-29.339-5.03.425m-.121-.77,4.932-.307m.97,3.461.243-.022a.135.135,0,0,0,.1-.055.138.138,0,0,0,.022-.11,4.217,4.217,0,0,0-.426-1.731.136.136,0,0,0-.14-.1l-.024,0-6.128.422-.035,0a.136.136,0,0,0-.089.042.149.149,0,0,0-.037.09,5.479,5.479,0,0,0-.121.91,5.286,5.286,0,0,0,.048,1.007.135.135,0,0,0,.147.138l.233-.021,6.208-.57Zm-6.208.57v.01c.051.785-.242,4.531-.276,6.922-.006.386,0,.739.007,1.036.077,2.134.27,4.889.343,6.272s-.874,2.972-1.517,4.026a9.006,9.006,0,0,0-.643,4.873c.117,1.216.766,6.458,1.164,9.659.186,1.483.318,2.528.318,2.528a28.619,28.619,0,0,0,.579,4.557c.222,1.034.624,1.213,1.217,1.327a2.952,2.952,0,0,0,2.858-.85c1.035-1.1,4.719-5.243,5.584-6.431s3.238-5.087,3.48-5.51l.377-.864s-.027-.689-.063-1.67c-.024-.614-.05-1.342-.077-2.087-.019-.548-.037-1.1-.054-1.63a13.084,13.084,0,0,0-.122-1.487c-.02-.142-.042-.278-.065-.408a9.375,9.375,0,0,0-.852-2.5,4.97,4.97,0,0,0-.314-.549c-.455-.715-1.218-1.725-1.817-2.59a9.9,9.9,0,0,1-.783-1.266c-.479-1.036-1.2-6.383-1.6-8s-1.309-4.93-1.487-5.674c-.015-.066-.032-.157-.05-.268v0m-.228-2.02c-.063-.642-.117-1.28-.154-1.721a.6.6,0,0,0-.638-.548l-4.9.321a.6.6,0,0,0-.558.639c.03.446.073,1.086.118,1.731h0m4.1,117.564c1.135-2.13,3.541-10.949,4.754-18.427a167.681,167.681,0,0,0,1.506-21.261,47.353,47.353,0,0,1,.363-4.925c.385-3.285,1.061-6.989,1.949-8.06,1.442-1.739,4.385-4.758,5.732-7.3s2.827-3.076,3.4-5.433-1.542-3.149-1.827-3.479a2.39,2.39,0,0,1-.371-1.788c.108-.77.347-2.183-.089-2.9a2.869,2.869,0,0,0-2.1-.957m-.363,1.15a5.585,5.585,0,0,1,.363-1.15,22.464,22.464,0,0,1,1.7-3.272,4.8,4.8,0,0,0,.628-1.419,2.961,2.961,0,0,0,.072-.427,2.286,2.286,0,0,0-.635-1.867,3.179,3.179,0,0,0-1.955-.668,7.221,7.221,0,0,0-1.417.035M127.519,412c.153-.223,1.507-2.3,2.677-4.293a18.768,18.768,0,0,0,1.7-3.4,2.276,2.276,0,0,0-.841-2.845,7.677,7.677,0,0,0-2.316-.893c-.275-.077-.54-.149-.781-.222m-27.441,85.913c2.289-4.215,5.287-15.929,6.182-19.887s3.376-12.793,4.24-16.527c.267-1.159.543-2.806.793-4.6a77.031,77.031,0,0,0,.878-10.419c-.145-2.478-.95-7.259-1.254-9.186s-1.362-5.111-1.592-7.282-.42-6.358-.371-7.125a3.067,3.067,0,0,1,.6-1.582,3.374,3.374,0,0,1,1.125-.969c.834-.451,1.819-.993,2.491-1.422M25.376,456.177c1.184-.988,8.337-7.8,11.989-10.855l.1-.081c3.794-3.2,17.632-16.322,19.589-19.013,1.973-2.713,9.9-10.847,13.132-11.655s6.626-4.365,7.96-5.7c.386-.386.926-.882,1.528-1.4a20.814,20.814,0,0,1,4.129-3c1.132-.4,5.051-.525,6.385-.768a14.015,14.015,0,0,0,3.233-.809c.174-.058.335-.121.483-.186v0c1.609-.721,1.756-1.9,1.5-2.681-.185-.557-1.382-.47-2.387-.332-.526.071-1,.157-1.249.171-.728.04-2.667.444-3.719.444s-4.243.364-5.172.322-.767-.767-.242-.929,4.848-1.939,5.576-1.98,1.171.04,3.637-.121c.189-.012.367-.032.535-.058a3.173,3.173,0,0,0,1.868-.849,1.8,1.8,0,0,0,.506-1.559c-.074-.424-.7-.689-1.448-.855a13.621,13.621,0,0,0-1.963-.249c-.212-.014-.4-.022-.55-.028a36.817,36.817,0,0,0-3.8.161c-.768.082-4.486,1.213-5.415,1.213s-1.374,0-1.131-.929,3.313-3.233,4.041-3.516a14.89,14.89,0,0,1,3.6-.081c1.05,0,1.252.525,1.98.728a2.88,2.88,0,0,0,.582.1,1.465,1.465,0,0,0,1.519-.7.757.757,0,0,0,.058-.175c.161-.781-.757-1.967-1.432-2.491a6.546,6.546,0,0,0-1.373-.8v0a8.944,8.944,0,0,0-2.3-.657,8.844,8.844,0,0,0-4.768.486c-.97.565-5.536,3.6-5.9,3.8s-1.374.4-1.091-.445,2.95-7.153,3.6-7.638,2.828-2.183,3.637-2.263c.615-.061,1.912-.264,2.691-.375.243-.034.436-.06.542-.069.445-.04.686-1.616-1.011-1.818-.313-.038-.67-.083-1.05-.128v0c-1.683-.2-3.83-.4-4.687.13a21.713,21.713,0,0,0-4.054,3.023,2.866,2.866,0,0,0-.311.412c-.686,1.131-3.281,5.64-5.224,8.687s-8.491,13.785-10.158,15.337S48.02,414.948,45.1,416.927s-11.176,7.823-18.141,11.606c-5.707,3.1-17.794,11.957-23.628,16.709-1.285,1.046-2.266,1.894-2.809,2.437m76.689-83.8a45.19,45.19,0,0,0-4.879,1.491m4.773-2.21s-1.281.315-2.246.6-2.808.965-2.808.965m.828,3.954h0c.582-.171,2.117-.617,3.287-.972a22.244,22.244,0,0,0,2.594-.9m-6.643-.432a27.373,27.373,0,0,0,2.662-.639c1.264-.378,2.788-.957,3.206-1.118m11.433,22.891c-.271-.918-.46-1.566-.535-1.825a7.55,7.55,0,0,0-2.145-3.8c-.414-.4-.934-.889-1.459-1.466M75.018,381.55c-.129-1.132-.422-2.608-.58-3.826-.243-1.86-1.453-8.506-1.495-8.87a.389.389,0,0,0-.064-.177m10.881,9.72a7.751,7.751,0,0,1-.581-1.21c-.769-2.063-4.126-9.587-4.329-9.952a.972.972,0,0,1-.09-.429,4.115,4.115,0,0,0-.044-1.1,6.538,6.538,0,0,0-.731-1.089,1.066,1.066,0,0,1-.068-.108c-.093-.185-.093-1.874-.83-1.935a9.134,9.134,0,0,0-2.566.5,10.568,10.568,0,0,0-2.59,1.092c-.525.486-.04,1.7.122,1.982a.677.677,0,0,1,.063.231,7.569,7.569,0,0,0,.139,1.551c.164.456.485.544.622.753m19.5,28.865c.212.724.425,1.445.633,2.151m-13.339,7.778c.7,2.556,1.576,6.063,2.294,7.177.81,1.253,1.174,1.253,1.618,1.295s4.612-1.254,6.149-1.7,4.814-1.538,5.7-1.821a.856.856,0,0,0,.517-.686m0,0A4.059,4.059,0,0,0,96,410.447m0,0a8.148,8.148,0,0,0-.2-1.177l-.2-.81-1.7-5.75m-2.56-8.676c-.24-.813-.474-1.6-.695-2.355" transform="translate(-0.306 -342.877)" fill="none" stroke="#b3b0a7" stroke-linecap="round" stroke-linejoin="round" stroke-width="0.5"/></g></g></g></g></svg>