<svg xmlns="http://www.w3.org/2000/svg" xmlns:xlink="http://www.w3.org/1999/xlink" width="287" height="80" viewBox="0 0 287 80"><defs><clipPath id="a"><rect width="287" height="80" transform="translate(11 77.522)" fill="#fff" stroke="#707070" stroke-width="1"/></clipPath></defs><g transform="translate(-11 -77.522)" clip-path="url(#a)"><path d="M826.491,2717.824l2.327-1.079m-50.941-5.677a10.164,10.164,0,0,0,1.673.908m-4.714-6.372a5.494,5.494,0,0,0-.674,2.488m-47.766-7.084a.574.574,0,0,0-.435.543.6.6,0,0,0,1.192,0,.548.548,0,0,0-.055-.239m-1.5-3.678a1.8,1.8,0,0,0,.143-.651m.033-5.335a3.02,3.02,0,0,0-1.53-.883.66.66,0,0,0-.4,0,.508.508,0,0,0-.289.4m2.075,6.867c.229.03.526-.868.583-1.6.055-.684.108-1.985.133-2.641m15.671-20.972a1.143,1.143,0,1,0,.1,1.615,1.14,1.14,0,0,0-.1-1.615Zm34.482-21.107a1.915,1.915,0,1,0,.161,2.7,1.914,1.914,0,0,0-.161-2.7Zm-10.074-1.5a2.089,2.089,0,1,0,.173,2.948,2.089,2.089,0,0,0-.173-2.948Zm2.785,9.946a1.827,1.827,0,1,0,.151,2.579,1.828,1.828,0,0,0-.151-2.579Zm-15.159-3.969a1.716,1.716,0,1,0,.143,2.423,1.716,1.716,0,0,0-.143-2.423Zm1.263,11.828a1.377,1.377,0,1,0,.2,2.015,1.433,1.433,0,0,0-.2-2.015ZM730.765,2698.4c0-.362-.09-2.45-.09-2.45m-.028-1.719a11.71,11.71,0,0,0,2.946,1.06m1.368,8.079c1.3,1.892,5.152,5.839,15.043,7.034m67.525,1.843s-1.14,4.017,2.07,5.446m-9.388-12.152c-1.162-3.572-5.423-2.883-5.423-2.883m-23.1,5.481a32.858,32.858,0,0,0,3.424.413,1.322,1.322,0,0,0,.692-.164.365.365,0,0,0,.118-.473.762.762,0,0,0-.038-.085.577.577,0,0,0-.423-.277c-.359-.089-.913-.091-1.635-.237a22.813,22.813,0,0,1-3.992-1.6,7.116,7.116,0,0,0-3.192-.488,5.516,5.516,0,0,1-1.954-.412s-.02.022-.055.065a4.992,4.992,0,0,0-.948,1.892,3.221,3.221,0,0,0-.013,1.723.7.7,0,0,0,.038.1l1.081.412a21.06,21.06,0,0,1,2.626,2.626c.307.513,1.157,1.286,1.648,1.9s.745.8,1.26.694-.025-1.285-.309-1.673c-.264-.36-.438-.563-.46-.589m0,0,0,0c.113.045,3.7,1.549,5.275,1.954,1.595.41,1.157-.775.154-1.238-.876-.4-2.38-.963-2.936-1.273a.24.24,0,0,1-.007-.42.012.012,0,0,1,.01,0,28.312,28.312,0,0,1,3.524.257c1.159.053,1.6-.257,1.572-.822-.018-.388-.458-.631-.734-.745m-4.775-.259a14.237,14.237,0,0,0,4.093.438,1.85,1.85,0,0,0,.682-.179.652.652,0,0,0,.425-.672c-.058-.445-.714-.586-1.034-.626m-23.748,10.975-.217,1.278m-3.064-2.151-.188.758m0,0a.525.525,0,0,0-.689.276l-.068.156a.525.525,0,0,0,.277.689l3.253,1.394a.525.525,0,0,0,.689-.277l.068-.156a.526.526,0,0,0-.277-.689l-3.252-1.393Zm10.394-17.065c.07-1.024.126-1.952.138-2.611.04-2.131.9-2.7.9-2.7a25.272,25.272,0,0,0-3.442-2.251,1.853,1.853,0,0,0-.237-.083l0,0c-1.484-.45-7.159-1.364-10.492-1.965-.44-.081-.838-.153-1.18-.219-.478-.091-.848-.171-1.069-.229-.463-.123-1.323-.337-2.365-.583v0l-1.114-.261c-1.685-.4-3.6-.833-5.028-1.15l-1.059-.229c-.3-.065-.556-.118-.742-.154a12.688,12.688,0,0,0-5.358-.221,3.128,3.128,0,0,0-1.26.752,12.145,12.145,0,0,0-3.076,5.021c-.005.015-.008.03-.013.045a18.35,18.35,0,0,0-.116,4.387,20.385,20.385,0,0,0,.516,3.708.511.511,0,0,0,.976-.022.149.149,0,0,0,0-.038,18.14,18.14,0,0,0-.015-1.876,25.457,25.457,0,0,1,.035-3.16c.181-1.594.591-2.986,2.163-3.6a17.138,17.138,0,0,1,6.13-1.313,4.767,4.767,0,0,1,4,2.948m1.507,7.114a29.9,29.9,0,0,1,.9,4.888,7.928,7.928,0,0,0,.1,1.029A7.473,7.473,0,0,0,750,2710.4a10.792,10.792,0,0,0,3.791,5.159,21.056,21.056,0,0,0,4.978,2.928,12.391,12.391,0,0,0,3.28.873,5.976,5.976,0,0,0,4.933-1.487c.6-.563,1.137-3.335,1.434-5.8.04-.322.075-.642.106-.948a21.654,21.654,0,0,0,.141-2.629c-.02-.435-.007-1.034.023-1.723m16.77.778c-1.18-.931-2.8-2.209-4.324-3.4l-.113-.091a4.151,4.151,0,0,1-1.125-1.346c-2.286-4.4-7.058-5.092-9.88-5.846m15.9,11.048c.325.254.6.473.81.639,1.733,1.369,4.178,3.529,4.8,4.075.093.086.146.131.146.131l3.165-2.427c1.761-1.351,3.818-2.928,4.935-3.778,2.209-1.683,5.016-3.9,5.016-3.9.38-.969.221-.9-.382-2.4-.287-.707-.651-1.439.584-1.849a18.416,18.416,0,0,1,3.461-.423M773.669,2708.5c-1.157-.43-3.14-1.124-4.981-1.723-.931-.3-1.824-.581-2.556-.787-2.656-.755-7.707-1.729-10.055-2.171a61.065,61.065,0,0,0-7.3-.34c-2.943-.023-5.733.023-6.347.073-1.846.156-5.232-.327-5.836-2.264m38.031,3.6c-.865-.407-3.24-1.562-5.652-2.7-2.6-1.232-5.24-2.447-6.078-2.707-1.728-.531-6.337-1.549-8.771-1.992-1.376-.252-4.3-.742-6.855-1.119-1.97-.294-3.718-.521-4.352-.521M827.049,2716a30.339,30.339,0,0,0-2.269-3.876c-1.037-1.333-1.975-1.286-2.765-.989-.4.148-1.187.528-1.874.868a3.659,3.659,0,0,1-2.614.241,60.53,60.53,0,0,0-8.762-1.876c-.757-.081-1.72-.136-2.787-.166m-24.845-6.055c4.744,2.342,9.7,4.782,11.783,5.785a4.044,4.044,0,0,0,1.9.4h.018m-3.311,2.3a15.958,15.958,0,0,0-.065,4.566m-49.7-35.617.114.026a.227.227,0,0,0,.269-.171l.068-.31a.227.227,0,0,0-.174-.269l-1.213-.267a.226.226,0,0,0-.269.171l-.068.309a.227.227,0,0,0,.171.269l.035.008,1.066.234Zm-1.066-.234-.051.189-.445,1.7-.528,2,.071.021.86.249.118.033.534-2.03.46-1.745.048-.182m2.611.636-2.659-.455m1.846,2.468-2.307-.722m-.609-1.972-.191-.04a.274.274,0,0,0-.32.2l-.312,1.187a.248.248,0,0,0,.178.3l.2.05m-11.7,9.745c-.05-.09-.106-.184-.163-.279-.1-.168-.211-.344-.314-.521m1.715,2.671c.365.083.674-.191.911-.619a4.067,4.067,0,0,0,.4-2.614c-.312-.85-1.079-.6-1.517-.123a1.249,1.249,0,0,0-.191.284m7.328-1.509c.008-.168.02-.327.033-.468s.015-.425.01-.757c0-.247-.015-.521-.028-.8a10.878,10.878,0,0,0-.146-1.6,1.152,1.152,0,0,1,0-.468m.241-.745a.486.486,0,0,1,.209-.237c.256-.093.279-.442-.211-.654s-1.472-.983-1.308-1.193.513-.468-.282-.538-.164-.863.025-1.074.817-.747.372-.654-1.356.164-2.289.349-3.811,1.66-3.507,1.263.282-.725-.561-.186-1.612.372-2.968,1.4-3.061,3.388-3.154,4.7.257,1.52.584,1.567l.055-.015c.194-.053.845-.224,1.159-.266.538-.071,1.474.984,1.474.984l.911.022.181.32m-3.62-.455-.105-.6m4.83,1.7c-.2.113-.382.219-.548.317-.687.4-1.1.682-1.1.682m9.79-3.816a18.444,18.444,0,0,0-7.32,2.367m-.558-.958c-.531.277-1,.543-1.369.767-.639.38-1.016.642-1.016.642m10.235-3.615a15.066,15.066,0,0,0-6.855,1.708m-3.59,4,.108-.174.573-.926-.473-1-.676-.214-1.223-.382m1,5.524a19.8,19.8,0,0,0-2.576-5.625m1.182,6a1.111,1.111,0,0,0,.141.2.465.465,0,0,0,.438.086,1.629,1.629,0,0,0,.649-.39,1.225,1.225,0,0,0,.166-.266c.36-.75.133-1.887.621-2.639a.466.466,0,0,0,.071-.191,3.5,3.5,0,0,0-1.29-2.37,2.725,2.725,0,0,0-.4-.322.916.916,0,0,0-.44-.09c-.194,0-.382-.008-.553-.013a4.861,4.861,0,0,0-.584,0l-.956.6a.408.408,0,0,0-.055.028.736.736,0,0,0-.259.941s1.881,3.537,2.452,4.43Zm3.343,3.25a.129.129,0,0,0,.048.063s0,0,.01,0c.141.035.616-.166.865-.058a5.681,5.681,0,0,0,1.741.682.619.619,0,0,0,.123-.012c.883-.045.886-1.378,1.351-1.472a5.335,5.335,0,0,1,1.828.1m34.958,12.353a14.82,14.82,0,0,1,4.3,1.283c5.325,3.413,16.046,9.584,18.909,10.1,3.2.581,5.869-2.848,7.451-5.082.136-.188.264-.372.382-.543.737-1.049,4.035-4.822,6.52-7.634,1.618-1.832,2.893-3.255,2.893-3.255s.538-.631,1.338-1.409a16.069,16.069,0,0,1,2.714-2.2c.516-.312,1.242-.775,2.07-1.313,1.439-.938,3.172-2.11,4.586-3.132a28.109,28.109,0,0,0,2.232-1.738c1.582-1.447,10.459-11.629,11.493-13.418s1.789-3.509-.76-4.817-4.058-.757-5.3.757-8.12,9.841-9.632,11.9a18.582,18.582,0,0,1-8.673,5.61.726.726,0,0,0-.489.409.476.476,0,0,0,0,.381c.086.2.34.412.908.586a4.816,4.816,0,0,0,1.4.191,7.6,7.6,0,0,0,1.517-.164,11.569,11.569,0,0,0,2.81-.991c1.831-.916,2.473-2.518,3.756-2.883s2.244-.6,1.924.732a19.182,19.182,0,0,1-1.18,3.441m-84.635,2.6a8.809,8.809,0,0,0,1.474,2.475,20.881,20.881,0,0,0,4.543,3.212,49.767,49.767,0,0,0,8.814,2.213m-25.623-12.23c-.083.37-.015.624.32.652.49.042,1.157-.063,1.157.216,0,.264-.043.8.382.921a.579.579,0,0,0,.073.018,2.594,2.594,0,0,1,.9.3.355.355,0,0,1,.108.1m-1.084-.42-.546.815m2.078.709c-.06.261-.1.523-.131.687m.37-1.449a1.758,1.758,0,0,0-.113.282v0m-1.077.576-1.127-.808-.229-.166a.21.21,0,0,0-.294.05l-.883,1.227m3.255,2.3.868-1.208a.212.212,0,0,0-.048-.3l-.722-.516-.186-.136m98.493,18.647s2.613,7.2,4.191,9.813a39.478,39.478,0,0,0,3.4,4.732m-10.789-14.2a4.863,4.863,0,0,0,2.335-.465M815,2702.029c.013-2.008-1.806-3.042-2.724-3.431m-84.985,4.563-3.157-2.241c-.023-.015-.045-.027-.068-.04a.469.469,0,0,0-.581.151l-.3.42a.464.464,0,0,0,.108.649l3.16,2.241a.463.463,0,0,0,.646-.111l.3-.42a.467.467,0,0,0-.081-.626l-.03-.023Zm12.451-17.907a2.763,2.763,0,0,1-.964.216,13.091,13.091,0,0,1-2-.035l-.279-.022c-.236-.02-.425-.035-.549-.038a7.16,7.16,0,0,0-6.213,3.235,6.338,6.338,0,0,0-.9,1.844,7.4,7.4,0,0,0-.264,1.409c-.038.37-.055.742-.07,1.117,0,.053,0,.1-.007.156a14.1,14.1,0,0,1-.395,3.187,26.7,26.7,0,0,1-1,3.052c-.178.46-.352.865-.5,1.2-.07.161-.138.3-.2.432-.068.146-.128.272-.178.372a.382.382,0,0,0,.684.34c.055-.111.121-.25.2-.408.04-.088.085-.181.131-.284.083-.184.174-.387.269-.614q.083-.2.173-.415m12.927-14.5c-.606.933-2.7.788-4.065.677l-.1-.008c-.214-.018-.4-.033-.5-.035a6.334,6.334,0,0,0-5.577,2.908,6.043,6.043,0,0,0-.528.911,5.428,5.428,0,0,0-.438,1.456c-.02.121-.035.244-.05.367-.05.443-.068.9-.091,1.386a14.814,14.814,0,0,1-.417,3.348,28.408,28.408,0,0,1-1.049,3.2m31.257-19.5a9.647,9.647,0,0,0-2.845,5.524,22.056,22.056,0,0,0-.352,6.832m-1.539-12.99c-.614.4-2.022,2.344-2.682,5.423a18.88,18.88,0,0,0-.392,6.533m30.151-7.473-1.965,11.586a.767.767,0,0,0,.106.533h0a.857.857,0,0,0,.611.4l5.625.868a.854.854,0,0,0,.991-.666l1.964-11.586a.825.825,0,0,0-.722-.931l-5.622-.868a.9.9,0,0,0-.556.091.793.793,0,0,0-.435.576Zm-15.043,10.474,11.856,1.59a7.1,7.1,0,0,0,1.328.055m2.294-12.7a7.285,7.285,0,0,0-1.71-.443l-21.065-2.827-4.737-.634-3.106-.417a6.962,6.962,0,0,0-6.83,3.056,6.066,6.066,0,0,0-.812,2.013c-.025.116-.045.231-.063.349l-.063.433a6.133,6.133,0,0,0,1.658,5.112m53.99,28.261c2.279-.42,4.7-.835,6.168-1.056,3.059-.463,12.98.186,14.353.367a4.551,4.551,0,0,1,2.714,1.985c.066.111.136.224.211.345.674,1.086,1.64,2.536,2.485,3.713.435.609.84,1.145,1.155,1.522,0,0,1.683,3.044,3.477,5.61s8.62,9.2,10.364,10.8,3.587,2.568,3.876,2.181,1.937-1.165,2.616-2.664,1.016-2.375.87-3.248-4.747-5.715-6.2-7.265-7.267-7.41-8.623-9.058a55.456,55.456,0,0,1-3.753-6.09.431.431,0,0,0-.377-.224.452.452,0,0,0-.229.065c-.143.091-.609.347-1.137.637-.709.387-1.532.83-1.839.993a.427.427,0,0,0-.2.239,4.813,4.813,0,0,0-.161,1.474c0,.216,0,.508.013.848.03,1.26.108,3.167.151,4.178m2.953-43.638c-.624,1.059-8.786,12.962-8.786,12.962" transform="translate(-565.325 -2587.299)" fill="none" stroke="#b3b0a7" stroke-linecap="round" stroke-linejoin="round" stroke-width="0.5"/></g></svg>