<svg xmlns="http://www.w3.org/2000/svg" xmlns:xlink="http://www.w3.org/1999/xlink" width="285" height="78" viewBox="0 0 285 78"><defs><clipPath id="a"><rect width="285" height="78" transform="translate(42 48)" fill="#fdfcf8" stroke="#6c655d" stroke-width="1"/></clipPath></defs><g transform="translate(-42 -48)" clip-path="url(#a)"><g transform="translate(-8.883 29.094) rotate(-7)"><g transform="translate(112.812 -3277.778)"><g transform="translate(102.032 3330.177)"><path d="M164.852,3350.984l-.71.225.486.336-.412.411.86.037.188.6.448-.785.9-.3-.821-.412.148-.9-.6.41m-3.289-8.3-.636.074.71.412-.261.486.821-.075.375.786.15-.71.374-.039-.336-.56m-10.4,17.533-.516.632,1.148-.172.747.4.345-.746.8-.287-.764-.338-.016-.422-.81.087m-29.947,1.158-1.114.089.536.356-.268.446,1.159-.135.445.536.268-.624.49-.178-.669-.58m-15.613-15.8-.161-.452-.231.393-.931.078.2.542-.155.387.71.069.22.4.35-.7.5-.349m-1.062,7.7-.715-.471.029.623-1.085.121,1.145.542.154.9.6-.5.814.155-.117-.736m2.122,9.777c6.257,2.674,15.19,4.173,25.018,4.173,19.317,0,35.177-5.793,34.06-14.913m-68.12,0c-.358,2.934,1.038,5.522,3.742,7.685m27.5,17.958a5.191,5.191,0,0,1,3.888-1.985c3.159-.1,5.936,2.685,9.079,2.362,2.273-.233,4.029-2.012,5.642-3.628a5.113,5.113,0,0,1,1.242-1c1.64-.839,3.928.117,5.315-1.093.891-.779,1.27-2.348,2.454-2.4.589-.026,1.123.387,1.714.4a1.913,1.913,0,0,0,1.625-1.206,17.854,17.854,0,0,0,.632-2.043c.212-.63.754-1.321,1.393-1.14.444.126.665.61,1,.928s1.057.338,1.1-.121m-7.989-14.7a4.039,4.039,0,0,0,.173-3.969m-10.2,3.73c1.034,2.293,5.753,4.271,8.81,3.326M155.1,3341.4a3.93,3.93,0,0,0,.014-1.434,3.669,3.669,0,0,0-.961-1.937m-24.039,3a2.911,2.911,0,0,0,2.313.852l2.1.119m-19.376.405a2.647,2.647,0,0,0-.041,2.9m.163,4.649c-1.239,1.061-.717,3.5.033,4.615a5.07,5.07,0,0,0,4.106,2.083m43.717-14.609a2.569,2.569,0,0,0-2.539.029,1.727,1.727,0,0,0-.595.661,2.536,2.536,0,0,0,4.434,2.244,1.691,1.691,0,0,0,.177-.641,2.5,2.5,0,0,0-1.478-2.292Zm.3,11.924c.04.045.081.089.124.131a2.793,2.793,0,0,0,3.715-.221,2.479,2.479,0,1,0-3.163-3.688,3.543,3.543,0,0,0-.519.549,2.577,2.577,0,0,0-.157,3.23Zm-9.957,5.015a3.388,3.388,0,0,0-1.645.956h0a2.3,2.3,0,0,0-.629,2.135,3.034,3.034,0,0,0,5.76-1.478,2.048,2.048,0,0,0-.433-.825,3.031,3.031,0,0,0-3.052-.788Zm-44.454-6.625a2.337,2.337,0,1,0,1.557,3.266,2.585,2.585,0,0,0-1.557-3.266Zm15.412,7.525a3.086,3.086,0,0,0-2.87.937,2.075,2.075,0,0,0-.452.988,3.034,3.034,0,0,0,5.87.949,1.687,1.687,0,0,0,.021-.185,2.8,2.8,0,0,0-2.568-2.689Zm-16.892-15.887a2.453,2.453,0,0,0-1.292,1.967,1.625,1.625,0,0,0,.214.879,2.4,2.4,0,0,0,4.082-2.357,1.729,1.729,0,0,0-1.159-.81,2.594,2.594,0,0,0-1.844.321Zm21.645,1.629a10.223,10.223,0,0,0,3.395.527,9.236,9.236,0,0,0,2.326-.3c.251-.061.507-.124.765-.175m-7.178-1.237a7.1,7.1,0,0,0,.309-.644,3.4,3.4,0,0,0-.294-2.417,5.282,5.282,0,0,0-.933-1.677,2.607,2.607,0,0,0-.759-.58,0,0,0,0,0,0,0m15.906-1.365a4.55,4.55,0,0,0-.707.332,7.317,7.317,0,0,0-2.151,1.817,5.32,5.32,0,0,0-.909,2.748h0m2.568-1.964c.232-.028.466-.044.7-.052a8.39,8.39,0,0,1,2.206.224,14.848,14.848,0,0,0,1.825.427,15.215,15.215,0,0,0,2.6-.159h0v0m-1.677,4.8a6,6,0,0,1-.652.06,2.938,2.938,0,0,0-1.789.63,1.924,1.924,0,0,0-.379.484m-12.271,3.307c-.007-.019-.014-.037-.021-.058a4.826,4.826,0,0,0-.529-.992c-.115-.182-.229-.363-.345-.543-.071-.111-.143-.224-.227-.331a2.375,2.375,0,0,0-.766-.64m-25.455,17.888c1.078,1.151.853,3.046.994,4.715a3.691,3.691,0,0,0,.485,1.706,1.626,1.626,0,0,0,1.494.787,4.125,4.125,0,0,0,1.8-1c.564-.406,1.327-.729,1.866-.384.4.257.521.787.758,1.21a2.218,2.218,0,0,0,2.2,1.078,7.836,7.836,0,0,1,1.437-.238c.478.031.963.46.8.937m29.315-24.351h0a4.209,4.209,0,0,0,1.236.457,4.075,4.075,0,0,0,1.524.019,25.384,25.384,0,0,1,2.913-.806,7.215,7.215,0,0,1,1.283.082,24.255,24.255,0,0,0,2.715.169,2.958,2.958,0,0,0,1.082-.135,2.025,2.025,0,0,0,.467-.273,0,0,0,0,0,0,0l.062-.047,0,0c.069-.053.134-.11.2-.163l.909-.758a5.1,5.1,0,0,0,.393-.353,1.711,1.711,0,0,0,.261-.337.908.908,0,0,0,.03-.909m-30.3-10.4a1.1,1.1,0,0,0,.442.876,4.247,4.247,0,0,0,.754.512,4.531,4.531,0,0,0,.486.249,1.9,1.9,0,0,0,.291.1.5.5,0,0,0,.062.012,2.611,2.611,0,0,0,.7.029,8.509,8.509,0,0,1,2.182-.126c.049.01.1.021.147.033s.122.033.183.051a5.013,5.013,0,0,0,1.251.338c1.2.055,2.081-1.137,3.273-1.2a2.617,2.617,0,0,0,.514-.037l.014,0c.446-.121.63-.591.747-1m-22.13,4.509a3.019,3.019,0,0,0,.088,1.125,1.191,1.191,0,0,0,.3.493c.422.411,1.184.5,1.48,1,.2.345.122.791.276,1.159a2.35,2.35,0,0,0,.82.854m-1.059,2.21a6.738,6.738,0,0,0-.225,1.463,1.476,1.476,0,0,0,0,.174,1.99,1.99,0,0,0,.656,1.465,6.308,6.308,0,0,0,2.109.737,11.256,11.256,0,0,1,2.942,1.95,4.043,4.043,0,0,0,3.042.919,0,0,0,0,0,0,0m14.726-17.012v0a2.894,2.894,0,0,0-.349-1.04,5.616,5.616,0,0,0-1.777-1.8,7.583,7.583,0,0,0-2.763-1.225m-7.618.86h0a7.1,7.1,0,0,0-1.759.983,6.339,6.339,0,0,0-2.041,2.693v0m30.764,6.451a4.753,4.753,0,0,0,1.042-2.1,2.146,2.146,0,0,0,.019-.958,1.82,1.82,0,0,0-.214-.5c-.269-.453-.695-.854-.99-1.3-.181-.273-.313-.567-.492-.841a5.459,5.459,0,0,0-2.321-1.8,11.95,11.95,0,0,0-4.684-1.1m6.953,23.821a4.084,4.084,0,0,0,1.2-.634,8.112,8.112,0,0,1,1.185-1c1.138-.688,1.836-.464,2.727-1.015a4.873,4.873,0,0,0,1.671-2.162q.144-.447.242-.861m.033-3.361a6.038,6.038,0,0,0-1.217-2.42,6.629,6.629,0,0,0-1.781-1.762A13.377,13.377,0,0,0,158.04,3345a7.034,7.034,0,0,0-.71-.227m-6.83,14.764a6.992,6.992,0,0,0,1.323.395m-32.294-21.57a6.844,6.844,0,0,0-2.111.211,5.97,5.97,0,0,0-2.159.971,7.886,7.886,0,0,0-2.059,2.159q-.169.243-.347.521a13.212,13.212,0,0,0-.9,1.389,4.883,4.883,0,0,0-.155,3.034,7.329,7.329,0,0,0,2.351,3.889m6.058-3.967a4.754,4.754,0,0,0-2.578.8,12.157,12.157,0,0,0-3.48,3.164,7.453,7.453,0,0,0-.812,3.53c-.284,4.28,3.16,6.163,6.545,6.3a3.774,3.774,0,0,1,1.675.45m5.437,1.752h0a10.147,10.147,0,0,0,1.106-.347m10.875-24.646a7.445,7.445,0,0,0-.161-.9,21.863,21.863,0,0,0-.952-3.119c-.823-2.042-1.879-3.246-3.278-3.371-1.384-.125-3.186,2.016-4.34,4.231h0a11.232,11.232,0,0,0-1.056,2.779c-.029.147-.054.29-.069.43h0m-1.5,5.611a7.437,7.437,0,0,0-.143-1.375,24.624,24.624,0,0,0-.662-2.736h0c-.115-.366-.236-.71-.367-1.03v0c-.728-1.8-1.695-2.859-2.992-2.979-1.17-.107-2.7,1.414-3.922,3.255a14.4,14.4,0,0,0-1.847,3.847m13.271,9.036a7.148,7.148,0,0,0-.076-.905,12.532,12.532,0,0,0-.684-2.5,18.727,18.727,0,0,0-.8-1.832c-.069-.134-.137-.265-.207-.4-.038-.074-.078-.147-.119-.22-.183-.331-.375-.652-.573-.96a13.2,13.2,0,0,0-.872-1.207c-.938-1.145-1.949-1.89-2.854-1.8-1.7.158-3.067,1.688-4.2,4.286q-.14.309-.269.643c-.027.069-.058.143-.084.215-.328.847-.64,1.79-.931,2.815m8.75,5.245a4.134,4.134,0,0,0-.525.547m23.69-16.017a13.873,13.873,0,0,0-1.622-3.215c-1.075-1.6-2.4-2.885-3.446-2.79-1.571.141-2.631,1.764-3.369,4.459v0c-.014.047-.027.091-.037.139-.129.477-.249.989-.357,1.53a6.284,6.284,0,0,0-.143,1.353m16.468,7.747c-.03-.176-.067-.356-.115-.543a14.518,14.518,0,0,0-1.239-3.068c-.04-.08-.082-.157-.122-.234a19.713,19.713,0,0,0-2.107-3.142,6.875,6.875,0,0,0-2.749-2.212,1.793,1.793,0,0,0-.735-.1,2.931,2.931,0,0,0-.427.071,3.9,3.9,0,0,0-2.342,1.968v0a11.513,11.513,0,0,0-1.018,2.317,23.772,23.772,0,0,0-.658,2.483q-.132.607-.247,1.259a5.682,5.682,0,0,0,.2,3.466m-17.311,5.609a2.966,2.966,0,0,0,1.005,2.966,11.249,11.249,0,0,0,4.251,2.394m-.564-5.162c2.061,2.4,3.646,3.288,7.317,4.179a13.945,13.945,0,0,0,4.816.031m-14.669-7.81a13.3,13.3,0,0,1,1.486-.109,5.134,5.134,0,0,1,2.006.332c1.191.487,2.082,1.558,3.34,1.889a9.989,9.989,0,0,0,2.246.134c1.3.037,2.341-.212,3.477.417a3.874,3.874,0,0,0,1.548.643.722.722,0,0,0,.1,0c.534-.012,1.079-.423.97-.923m-12.952-5.669a6.622,6.622,0,0,0-2.111.833,6.927,6.927,0,0,0-1.128.836,6.187,6.187,0,0,0-1.149,1.356,2.891,2.891,0,0,0-.17.3,4.4,4.4,0,0,1-.494.843,5.379,5.379,0,0,1-.9.713c-.073.057-.147.116-.216.175l-.527.549a5.07,5.07,0,0,0-.9,4.362c.012.048.023.094.038.139a6.321,6.321,0,0,0,1.465,2.541,8.674,8.674,0,0,0,2.343,1.779,10.585,10.585,0,0,0,3.882,1.159,41.082,41.082,0,0,0,5.2-.141c1.649-.051,3.308.082,4.951-.056a8.053,8.053,0,0,0,4.527-1.605,4.125,4.125,0,0,0,1.5-3.814,2.886,2.886,0,0,0-.111-.429c-.2-.594-.566-1.128-.753-1.721a22.97,22.97,0,0,1-.29-2.859,3.648,3.648,0,0,0-.374-1.081,6.671,6.671,0,0,0-2.793-2.477v0h0m-.005,5.2a4.764,4.764,0,0,0,.437-3.663,12.591,12.591,0,0,0-.43-1.535v0c-.088-.252-.184-.511-.288-.771a22.006,22.006,0,0,0-1.541-3.094c-1.52-2.539-3.487-4.649-5.047-4.5a3.375,3.375,0,0,0-.354.052c-1.312.268-2.387,1.317-3.282,3.024a17.035,17.035,0,0,0-.971,2.285q-.264.76-.505,1.615-.29,1.026-.549,2.186c-.078.35-.139.677-.183.989m-27.214-6.8h0a10.506,10.506,0,0,0-3.825,6.426c-1.114,3.266.53,19.209.569,19.845.581,9.524,14.04,16.7,33.492,16.7s32.911-7.178,33.491-16.7c.038-.636,1.128-15.629.57-19.845h0c-.364-2.988-2.519-5.731-5.907-8.037l-.026-.015m-4.016-2.262h0q-1.209-.568-2.534-1.081m-48.675,2.679a32.344,32.344,0,0,1,3.807-1.971" transform="translate(-102.032 -3330.177)" fill="none" stroke="#b3b0a7" stroke-linecap="round" stroke-linejoin="round" stroke-width="0.5"/></g><path d="M234.837,3367.89a.007.007,0,0,0,.005,0,.276.276,0,0,0,.055-.014h0l0,0m2.527-12.6c-.054.143-.019.28.077.306s.217-.067.271-.209.018-.28-.078-.306-.217.067-.269.209Zm2.778,4.672a0,0,0,0,0,0,0,.317.317,0,0,0,.141-.246c.016-.155-.055-.286-.157-.294s-.2.111-.216.264a.33.33,0,0,0,.048.225s0,0,0,0m-1.493-.47c.005.154.095.275.2.271s.181-.133.174-.287-.095-.274-.2-.269-.181.132-.174.286Zm-1.54.533a.282.282,0,0,0,.016-.071c.018-.154-.052-.286-.154-.293s-.2.1-.216.254h0m1.015-1.6c-.014.152.059.28.161.286s.2-.114.209-.267-.059-.279-.161-.284-.2.113-.209.265Zm-.9-.555c-.055.145-.021.284.077.312s.22-.069.273-.213.019-.285-.078-.312-.218.067-.272.213Zm2.328-.365c-.054.146-.018.284.08.312s.218-.069.272-.213.015-.284-.081-.31-.218.067-.271.211Zm-1.334-.83c-.054.144-.019.283.078.309s.218-.067.271-.211.018-.282-.078-.309-.218.069-.271.211Zm-11.687,3.848c-.06.148-.032.291.066.319s.224-.07.284-.219.032-.29-.065-.317-.225.07-.286.217Zm.941,4.318c0,.161.085.286.19.281s.191-.139.191-.3-.084-.284-.19-.28-.19.139-.191.3Zm-.842-1.225c-.019.159.048.292.152.3s.2-.118.224-.278-.048-.291-.151-.3-.2.118-.225.276Zm-.894-.577c-.062.151-.033.3.065.326s.228-.071.288-.223.033-.3-.065-.324-.227.07-.288.221Zm2.391-.379c-.06.15-.03.3.067.324s.227-.072.287-.223.029-.3-.069-.323-.225.07-.286.221Zm-1.323-.862c-.06.148-.032.292.066.321s.225-.071.286-.221.032-.292-.066-.32-.225.07-.286.22Zm8.566,6.249a.319.319,0,0,0,.084-.376c-.055-.181-.2-.3-.314-.266s-.169.207-.114.388c.049.161.168.273.276.272a.132.132,0,0,0,.04-.005.149.149,0,0,0,.025-.01m-3.536,4.893c-.125.009-.22.177-.21.375s.119.347.246.338.218-.178.209-.375-.119-.347-.244-.338Zm1.825-.342c-.125-.005-.24.148-.258.344s.07.363.2.368.24-.148.258-.346-.07-.361-.2-.366Zm2.228.583c-.125.01-.217.177-.206.373s.124.35.25.341.217-.178.2-.376-.124-.347-.249-.338Zm-1.128-2.062c-.125.008-.22.17-.214.365s.113.347.238.341.22-.172.214-.366-.113-.347-.238-.34Zm1.049-.642c-.119.034-.17.213-.114.4s.2.308.32.273.17-.214.113-.4-.2-.306-.319-.272Zm-2.806-.464c-.119.034-.172.211-.118.4s.2.308.316.273.173-.213.118-.4-.2-.3-.316-.271Zm1.673-1.056c-.118.034-.17.21-.114.393s.2.305.316.271.17-.212.115-.394-.2-.3-.317-.269Zm21.263-10.93c-.089.025-.118.154-.064.288s.17.224.258.2.118-.154.065-.288-.169-.222-.258-.2Zm-2.208,4.1c-.095.008-.156.132-.137.276s.113.257.209.249.157-.13.137-.276-.113-.256-.209-.249Zm1.379-.251c-.1,0-.176.11-.177.254s.074.266.17.271.176-.11.177-.254-.074-.266-.17-.271Zm.755-1.09c-.1.005-.159.126-.143.269s.107.257.2.251.159-.126.143-.269-.107-.256-.2-.251Zm.768-.474c-.091.026-.119.156-.065.294s.172.228.261.2.118-.158.065-.294-.172-.228-.261-.2Zm-2.182-.343c-.091.025-.119.156-.067.292s.169.227.26.2.119-.158.066-.294-.169-.227-.258-.2Zm1.222-.781c-.091.025-.119.155-.066.291s.17.225.26.2.118-.155.065-.291-.169-.225-.258-.2Zm6.727,5.8c-.113.033-.147.2-.073.382s.225.3.339.262.146-.2.073-.383-.225-.294-.339-.261Zm-2.723,5.44c-.124.01-.2.174-.17.367s.152.342.276.332.2-.174.17-.368-.154-.342-.276-.331Zm1.774-.336c-.125-.006-.224.145-.221.339s.1.354.229.361.224-.147.221-.34-.106-.354-.229-.36Zm2.421,1.263a.135.135,0,0,0,.066-.049.394.394,0,0,0,.058-.309c-.032-.194-.157-.342-.28-.333s-.2.175-.166.368.158.343.282.333a.142.142,0,0,0,.037-.008m-1.476-2.718c-.122.007-.2.167-.176.358s.147.341.269.333.2-.167.176-.358-.146-.341-.269-.333Zm.976-.631c-.115.034-.148.209-.074.392s.229.3.345.268.147-.21.073-.391-.229-.3-.343-.268Zm-2.828-.456c-.115.034-.15.209-.077.389s.225.3.341.268.15-.208.077-.39-.225-.3-.341-.267Zm1.552-1.037c-.114.033-.147.206-.074.386s.227.3.341.265.148-.207.074-.387-.225-.3-.341-.264Zm-11.767,2.535c-.128.037-.173.231-.1.431s.235.335.364.3.174-.231.1-.433-.236-.334-.365-.3Zm-3.318,6.168c-.137.011-.231.2-.209.417s.154.39.293.378.231-.2.209-.419-.154-.387-.293-.376Zm2-.382c-.139-.007-.257.166-.264.386s.1.4.238.409.257-.166.264-.386-.1-.4-.238-.409Zm2.5.651c-.139.011-.229.2-.2.418s.159.391.3.38.229-.2.2-.419-.158-.39-.3-.379Zm-1.378-2.3c-.137.007-.232.189-.214.406s.147.387.284.379.233-.191.214-.408-.147-.386-.284-.378Zm1.121-.716c-.13.038-.176.238-.1.444s.24.344.371.3.176-.238.1-.443-.239-.342-.369-.3Zm-3.131-.518c-.129.039-.177.236-.106.443s.236.342.367.3.177-.236.106-.442-.236-.341-.367-.3Zm2.151-.875c.073.2.027.4-.1.438s-.294-.1-.367-.3-.027-.4.1-.437.294.095.367.3Z" transform="translate(-106.287 -21.469)" fill="none" stroke="#b3b0a7" stroke-linecap="round" stroke-linejoin="round" stroke-width="0.5"/></g><g transform="matrix(0.974, 0.225, -0.225, 0.974, 246.874, -3140.757)"><g transform="translate(610.106 3154.639)"><path d="M618.88,3183.053a49.763,49.763,0,0,0,23.214,6.667c13.334.356,18.394-1.191,18.394-1.191m-3.434-5.456c1.313-.12,2.67-.145,3.555-1.02.565-.56.8-1.368,1.381-1.916a9.921,9.921,0,0,1,2.425-1.214,3.094,3.094,0,0,0,1.459-1.463,1.912,1.912,0,0,0-.233-1.953c-.408-.486-1.1-.757-1.346-1.332a4.405,4.405,0,0,1-.169-.727,2.982,2.982,0,0,0-2.187-1.971,5.3,5.3,0,0,0-.822-.159m-31.134.174h0a6.606,6.606,0,0,0-2.516,3.125,6.29,6.29,0,0,0,.528,5.43,3.511,3.511,0,0,0,.934,1.06,16.6,16.6,0,0,0,2.113.923c1.372.7,2.146,2.178,3.5,2.9a5.671,5.671,0,0,0,2.168.569,47.607,47.607,0,0,0,6.237-.288h0m2.476.1h.006c.118.018.24.039.358.061,1.952.364,4.035,1.353,5.8.489a12.009,12.009,0,0,0,1.967-1.549h0m-26.919-12.2a6.244,6.244,0,0,0-1.816,8.255m41.685.674a5.39,5.39,0,0,0,1.678-5.75,7.514,7.514,0,0,0-4.226-4.507m-27.988-14.466c-14.966,2.193-25.87,8.969-25.87,16.989,0,9.794,16.265,17.734,36.33,17.734s36.33-7.94,36.33-17.734c0-8.459-12.133-15.536-28.367-17.308m-14.857,28.763a1.187,1.187,0,0,1-.047-.714,26.714,26.714,0,0,0,.431-6.032v-.064c-.031-.723.259-3.956.173-5.014a24.413,24.413,0,0,1-.266-3.3c0-1.43-.745-.692-.853-3.3a2.818,2.818,0,0,0-.8-2.082c-1.043-.669-2.215-.023-3.3-.619-.355-.195-.623-.528-.992-.694a4.059,4.059,0,0,0-1.474-.15,1.9,1.9,0,0,1-.228-.025m26.314-1.848q-.229.634-.459,1.269a1.048,1.048,0,0,1-.406.609,1.11,1.11,0,0,1-.392.1,7.512,7.512,0,0,0-4.449,2.3,4.875,4.875,0,0,0-1.036,1.6,5.985,5.985,0,0,1-.7,1.78c-.257.32-.628.532-.888.85a3.059,3.059,0,0,0-.542,1.4,17.65,17.65,0,0,0-.119,5.931c.084.552.133,1.25-.422,1.49a.865.865,0,0,1-1.093-.405c-.7-1.3-.136-2.69.041-4.052a7.314,7.314,0,0,0-.064-2.291c-.1-.55-.562-1.257-1.134-.7a.664.664,0,0,0-.08.828c.247.4.043,1.4-.5,1.207a.512.512,0,0,1-.329-.513,13.6,13.6,0,0,0-.205-4.939,2.373,2.373,0,0,0-1.067-1.448,1.3,1.3,0,0,0-.506-.145c-.805-.057-1.228.61-1.421,1.259-.464,1.563.009,3.321-.611,4.829-.168.41-.412.787-.584,1.2a7.513,7.513,0,0,0-.41,2.768c-.054,2.486-.107,4.976.039,7.457a2.639,2.639,0,0,1-.165,1.4,1,1,0,0,1-.221.278m0,0q1.06.157,2.176.244h0c.807.063,1.635.1,2.476.1h.146a31.111,31.111,0,0,0,7.99-1h0a21.9,21.9,0,0,0,3.491-1.242c2.649-1.223,4.517-2.862,5.185-4.71a3.787,3.787,0,0,0,.1-2.211l-1.218-4.833-2.622-10.4-.191-.757-.312-1.237c0-.007,0-.013,0-.02-.257-1.1-1.553-2.131-3.59-2.9a25.8,25.8,0,0,0-8.827-1.362,24.007,24.007,0,0,0-9.6,1.681c-1.567.719-2.565,1.616-2.82,2.582l-.006.019-.312,1.237-.657,2.605-2.2,8.731h0l-1.173,4.659a3.786,3.786,0,0,0,.1,2.211c1.065,2.944,5.174,5.359,10.637,6.4m17.087-24.233a9.923,9.923,0,0,1-2.228,1.28,18.2,18.2,0,0,1-3.485,1.061,26.76,26.76,0,0,1-5.345.52c-4.225,0-7.967-.912-10.266-2.313a6.082,6.082,0,0,1-1.81-1.588" transform="translate(-610.106 -3154.639)" fill="none" stroke="#b3b0a7" stroke-linecap="round" stroke-linejoin="round" stroke-width="0.5"/></g></g></g></g></svg>