<svg xmlns="http://www.w3.org/2000/svg" xmlns:xlink="http://www.w3.org/1999/xlink" width="285" height="78" viewBox="0 0 285 78"><defs><clipPath id="a"><rect width="285" height="78" transform="translate(13 9)" fill="#fff" stroke="#707070" stroke-width="1"/></clipPath></defs><g transform="translate(-13 -9)" clip-path="url(#a)"><g transform="translate(0 -1)"><g transform="translate(-291 -204)"><path d="M528.5,277.952a13.23,13.23,0,0,1-2.339,1.853,2.775,2.775,0,0,0-1.889,2.241,3.033,3.033,0,0,1-2.19,2.6,20.134,20.134,0,0,1-3.185.983c-3.586.719-7.212,1.257-10.773,2.082-1.842.427-3.215-1.365-4.008-2.761-.74-1.3-1.584-1.316-2.891-1.793-1.5-.545-2.868-1.5-4.364-2.063-3.779-1.41-6.123-3.988-8.082-7.491a49.618,49.618,0,0,1-5.119-14,16.94,16.94,0,0,1,2.033-13.116,7.72,7.72,0,0,1,1.512-1.8c2.843-2.458,5.729-4.864,9.885-5.587-1.279-2.892-.6-5.54-.253-8.211.284-2.178.149-2.383-1.148-4.079,1.612.687,2.131,1.459,1.968,3.151-.107,1.108-.328,2.207-.514,3.307-.421,2.482-.409,2.62.723,5.277l9.68-2.581a23.331,23.331,0,0,1,.722-9.926c.359-1.345.647-2.8-.938-3.857,1.776.459,2.152.932,1.889,2.618-.245,1.572-.715,3.108-1.057,4.668a10.815,10.815,0,0,0,.262,6.132c1.636,0,3.231.129,4.8-.023,6.187-.594,11.821,1.2,17.216,3.942a53.886,53.886,0,0,1,5.07,3.189c.526.348,1.265.751,1.4,1.26.725,2.815,2.076,5.449,1.826,8.546-.428,5.283-1.845,10.345-2.976,15.475a16.688,16.688,0,0,1-5.1,8.763,9.54,9.54,0,0,1-2.044,1.207c.193-.324.117-.668.4-.872a15.751,15.751,0,0,0,6.4-9.449c.464-2.18.964-4.633,1.451-6.808a32.888,32.888,0,0,0,.686-3.57,46.338,46.338,0,0,1-5.08,4.548c-3.143,2.592-7.107,3.676-10.944,4.7-4.61,1.231-8.932,1.466-13.725,1.809-8.127.582-15.287-.39-21.561-5.625-.2-.164-1.7-4.014-2.218-4.2.91,5.23,4,13.552,7.149,17.479a10.568,10.568,0,0,0,2.777,2.913,70.681,70.681,0,0,0,7.728,3.923,17.822,17.822,0,0,0,5.9,1.1c4.293.091,8.493-1.151,12.658-2.148a20.75,20.75,0,0,0,3.555-1.723C525.342,279.3,526.924,278.641,528.5,277.952ZM514.4,257.818c.044-.188.087-.377.131-.565l3.811-3.271a5.2,5.2,0,0,0-3.811-1.9,10.221,10.221,0,0,0-2.365.5c-1.17.3-2.879,1.238-4.022,1.644,4.576-3.334,7.755-3.4,11.587-.518.743-.1,1.6-.485,2.126-.222,1.039.516,1.574-.2,2.293-.527-.043.23-.013.511-.136.684-1.973,2.756-1.018,5.259.693,7.661a3.757,3.757,0,0,0,1.3.889,7.539,7.539,0,0,0,1.106.412c-.9.451-1.891.293-2.544.7-1.916,1.177-3.774.919-5.7.222-.426-.633-.851-1.267-1.328-1.977-2.975.81-5.4,3.38-8.694,1.651a34.759,34.759,0,0,1-4.51,4.225c.735.064,2.039.012,2.407,0,4.419-.145,8.26-1.892,12.166-3.954-.214.375-.337.943-.657,1.093-1.359.641-2.768,1.186-4.179,1.709-.7.259-4.5,1.26-5.227,1.452,1.168.4,5.339-.318,6.4-.49,1.885-.306,3.724-.9,5.609-1.2a26.423,26.423,0,0,0,10.317-4.23,2.447,2.447,0,0,0,.957-.978,27.047,27.047,0,0,0,.988-3.149,3.9,3.9,0,0,0-1.138-4.252c-.111.608-.2,1.11-.3,1.611a5.252,5.252,0,0,1-.9-1.925,1.548,1.548,0,0,0-1.762-1.281c-1.671.307-3.308.8-4.96,1.222.139-.437.279-.872.469-1.469a12.866,12.866,0,0,0-2.228-2.017,10.409,10.409,0,0,0-3.1-.989c-.916-.182-1.92.163-3.351-.233,4.448-1.438,6.289-.774,9.305,2.814a27.028,27.028,0,0,1,5.359.074,4.415,4.415,0,0,1,3.489,3.6,23.028,23.028,0,0,1-.321,5.049,9.662,9.662,0,0,0,2.014-1.372c.552-.63,1.345-1.983,1.161-2.17-1.135-1.163-.269-2.671-.514-3.917a6.758,6.758,0,0,0-4.212-4.753,56.223,56.223,0,0,0-5.974-2.2,62.938,62.938,0,0,0-9.163-1.5c-4.627-.39-8.559.894-13.081,1.94-2.86.662-5.945,1.235-8.359,2.754a19,19,0,0,0-8.083,11.49c-.118.432-.632,1.766-.4,2.017,1.193,1.289,3.363,3.106,5.377,3.547-2.054-3.807-2.415-8.538-.216-11-.49,2.762-1.884,5.162-.608,7.915a4.989,4.989,0,0,0,1.76,3.41c.868.758,2.762,1.092,4.489,1.2l3.031.49-2.5-1.344c-3.691-2.326-4.632-5.908-4.738-9.974-.121-4.635-.064-4.727,4.212-6.63,2.58-1.148,4.987-2.052,6.88,1l2.688-1.3c-.917,1.173-2.2,1.423-2,3.111,1.357-.53,2.579-1,3.794-1.482,3.053-1.216,6.251-1.207,9.444-1.03a2.107,2.107,0,0,1,2.276,2.008c-.982-.454-2.337-1.641-3.411-1.676-4.159-.135-5.39-.19-11.922,2.862.272.995.858,2.216,1.125,3.195l2.1-.667-2.827,3.033c2.482-.288,4.521-1.125,6.147.345l1.994-1.119a6.08,6.08,0,0,1-3.84,3.445,13.533,13.533,0,0,0-1.984,1.1,8.86,8.86,0,0,1-1.859-.252c-.237-.081-.312-.631-.616-1.316,2.268,1.149,3.716.182,5.731-1.014a13.213,13.213,0,0,0-2.561-.752,5.1,5.1,0,0,0-3.17.881,42.917,42.917,0,0,0-4.96,4.414,2.555,2.555,0,0,0,1.578,2.671c1.721.529,4.859-2.461,5.808-4.684.239.011.537-.068.708.046a3.946,3.946,0,0,0,5.536-.636,1.9,1.9,0,0,1,1.418-.753,2.309,2.309,0,0,0,2.5-1.66c1.869.64,2.424-.078,1.973-2.39.747-.83,1.88-1.49,1.384-3.261-1.086.338-2.08.65-3.078.961.7,2.206.211,2.975-2.314,4,.388-.993,2.785-.871,1.84-4C516.889,255.58,515.569,257.2,514.4,257.818Zm-17.057-18.155c-2.9.163-4.921,1.8-7.155,3.205-3.6,2.263-5.89,6.6-6.663,10.57-.344,3.576,1.221,5.537,2.7,7.764a42.721,42.721,0,0,1,3.832-8.069,13.856,13.856,0,0,1,5.943-5.246,48.755,48.755,0,0,1,23.208-4.275,40.008,40.008,0,0,1,14.192,4.052c2.038.964,3.6,2.353,3.505,4.9-.016.44.477,2.269.63,3.224,1.523-3.894.135-6.828-.686-9.89a10.609,10.609,0,0,0-1.451-2.288,32.078,32.078,0,0,0-9.392-5.527,52.823,52.823,0,0,0-7.335-2.128c-2.964-.552-6.934.484-10.259.536.757,1.334,1.5,2.611,2.069,3.617l-.4.219c-.753-1.079-1.488-2.672-2.3-3.836a37.031,37.031,0,0,0-9.758,2.887c.82.959,1.67,2.042,2.7,3.245C498.885,242.133,498.355,240.531,497.347,239.663Zm2.385,21.443a35.859,35.859,0,0,0,4.071-.492c.457-.1.841-.785,1.131-1.277.169-.287.313-1.056.507-1.287,1.24-1.47.494-2.69,0-4.068a19.486,19.486,0,0,0-1.1-2.827c-1.462-2.524-3.971-2.278-6.3-.379-.345.281-.833.743-1.131.663-1.694-.454-2.2.788-2.469,1.872-.4,1.624.674,3.286.17,4.975-.014.049.074.137.125.2A7.246,7.246,0,0,0,499.732,261.106Zm4.644,22.943c.673,1.653,1.949,3.289,3.195,3.208,4.483-.292,9.588-1.942,13.948-2.826.587-.119,1.5-1.184,1.986-1.58.706-1.705.275-1.93.157-1.891-3.1,1.014-7.1,2.075-10.5,2.8-.849.011-4.814.781-5.988.674C506.635,284.383,505.233,284.141,504.376,284.049Zm14.468-22.613c1.594,2.233,1.337,3.254,6.311,1.11-.327-.588-2.093-2.419-2.645-4.728a16.164,16.164,0,0,1,.464-3.926c-.89,1-1.612,3.8-2.117,4.957C519.768,261.364,519.644,260.8,518.844,261.436ZM501.67,267.72c-.586-1.469-1.963-4.072-2.46-5.1a1.709,1.709,0,0,0-.99-.853c-.718-.16-2.864-2.128-3.784-2.169C496.749,267.134,499.84,266.478,501.67,267.72Zm-.959-3.662c.907-.72,1.43-1.514,2.171-2.1-.082-.167.082-.353,0-.52-.874.1-2.766-.1-3.672,0,0,.5.943,1.259,1,1.471A10.256,10.256,0,0,0,500.711,264.058Z" transform="translate(-0.103 -0.333)" fill="#b3b0a7" fill-rule="evenodd"/><path d="M529.076,266.267a12.8,12.8,0,0,1,1.789-1.05c1.084-.427,2.211-.749,3.33-1.079a3.268,3.268,0,0,1,.881-.012c-.023.272,0,.527-.053.546-2.416.821-2.448.827-1.806,3.435a1.624,1.624,0,0,1-1.124,2.252c-.151.051-.285.158-.438.195-3.23.783-6.459,1.578-9.7,2.319-.416.1-1.161.046-1.289-.19a2.049,2.049,0,0,1-.068-1.528c.469-1.269,1.4-1.707,3.238-1.547l-2.489,1.82q.117.3.236.6l4.4-.732c-.184-.814-.3-1.339-.424-1.862a1,1,0,0,0-.177-.439c-1.61-1.737-3.248.133-4.893.019-.964-.065-1.171.9-.933,1.8a7.552,7.552,0,0,1,.2.937c.19,1.475-.067,2.084-1.436,2.224a34.967,34.967,0,0,1-5.735.067c-1.062-.067-1.3-1.131-.54-1.935a2.112,2.112,0,0,1,.781-.518c1.536-.555,3.007-.025,4.513-.04,0,.219,0,.438.005.658l-4.893.2c1.587,1.042,3.415,1.105,6.4.423-.155-.88-.312-1.774-.495-2.823-1.93.213-3.752.308-5.533.634-3.11.571-3.1.63-3.133,3.791h-6.975c.3-2.939,1.84-3.433,5.02-1.7-1.1,1.272-2.741-.851-3.99.777h4.828V271.1l-6.624.4c-.361,1.2-.371,2.621-.99,2.974-1,.567-2.4.429-3.865.621-.171-1.132-.293-1.946-.46-3.055l2.6.217c.018.173.036.344.054.516l-1.139.536c.024.082.051.32.1.326.657.068,1.83.286,1.89.117a14.488,14.488,0,0,0,.43-3l-4.108.279c-.1,1.227-.183,2.158-.285,3.378a24.607,24.607,0,0,1-3.03.192,1.908,1.908,0,0,1-1.478-2.1c.091-.593.488-.741,2.18-.707-.32.333-.524.524-.7.738a6.294,6.294,0,0,0-.371.569c1.123.931,1.886.159,2.383-.548.543-.775-.1-1.84-1.164-2.152-1.715-.5-3.394-.765-4.612,1.487-.312-1.722.371-2.429,1.528-2.511a11.865,11.865,0,0,1,4.019.208,7.307,7.307,0,0,0,3.446.343c1.088-.188,2.325-.527,3.364.564.309.323,1.217.122,1.846.085,1.968-.116,3.937-.7,5.9.089.191.077.465-.049.7-.091q3.518-.633,7.037-1.271c.391-.072.781-.162,1.164-.273,1.825-.528,3.637-1.105,5.473-1.589,1.743-.458,3.51-.822,5.264-1.223-.12.468-.237.931-.353,1.4a1.683,1.683,0,0,0-2.128.4c-.2.268-.071.79-.089,1.163l2.212-1.568,1.059-.238c-.672,1.1-2.651,1.1-1.807,3.277,1.333-.934,3.177-.141,4.307-1.678-.215-.71-.391-1.4-.639-2.063a3.237,3.237,0,0,0-.529-.731Z" transform="translate(-0.103 -0.345)" fill="#b3b0a7" fill-rule="evenodd"/><path d="M502.418,256.337c-1.658-.3-2.766-.352-2.709,1.42a1.465,1.465,0,0,0,2.236-.284,2.791,2.791,0,0,0,.464-3.124,3.164,3.164,0,0,0-3.06-1.868,2.936,2.936,0,0,0-2.084,2.621,24.254,24.254,0,0,0,.389,3.418,3.805,3.805,0,0,1-.338-5.388c1.388-1.686,2.89-1.933,4.592-.756a3.493,3.493,0,0,1,1.157,4.982,4.2,4.2,0,0,1-2.053,1.436c-.855.271-1.977-.023-2.079-1.027a3.414,3.414,0,0,1,.991-2.227C500.659,254.714,501.451,255.028,502.418,256.337Z" transform="translate(-0.103 -0.325)" fill="#b3b0a7" fill-rule="evenodd"/><path d="M514.595,257.332c-.415-.236-.956-.376-1.223-.726-1.332-1.746-2.9-1.657-4.618-.724C511.1,253.36,513.42,253.936,514.595,257.332Z" transform="translate(0.897 -0.325)" fill="#b3b0a7" fill-rule="evenodd"/><path d="M508.308,249.018a8.969,8.969,0,0,1,6.725-.818Z" transform="translate(0.897 -0.315)" fill="#b3b0a7" fill-rule="evenodd"/><path d="M526.409,253.757c-1.352,2.558-.923,4.837,1.446,7.135a2.463,2.463,0,0,1-2.692-2.038C524.7,257,524.6,255.153,526.409,253.757Z" transform="translate(0.897 -0.328)" fill="#b3b0a7" fill-rule="evenodd"/></g><path d="M352.04,222.012c.8.08,1.171.357,1.2,1.034.136,3.463.194,8.943-1,12.482-2.957,1.3-3.549,1.393-2.547,4.183a13.179,13.179,0,0,1-5.5,2.1,37.034,37.034,0,0,1-7.252.738c-.764-.046-1.521-.153-2.285-.181-2.787-.1-4.3-1.325-5-3.25a2.918,2.918,0,0,0-1.765-1.852,2.5,2.5,0,0,1-1.182-1.405,22.11,22.11,0,0,1-1.366-7.216,33,33,0,0,0-.561-6.97c-.443-1.79.46-2.8,2.737-3.618a2.6,2.6,0,0,0,.963-.55,3.5,3.5,0,0,1,2.925-1.279,1.822,1.822,0,0,0,1.02-.47,3.824,3.824,0,0,1,4.211-.874c1.366-.959,2.341-2.556,4.53-1.19.427-.262.712-.411.958-.591A2.4,2.4,0,0,1,344.96,213a2.759,2.759,0,0,0,2.086.385,3,3,0,0,1,3.058,1.56c.6,1.166,1.639,2.22,1.5,3.594-.042.417.476.86.693,1.3.366.746.7,1.5-.226,2.176-.348.045-.472.381-.764.46-1.446.391-2.886.826-4.375,1.094a45.1,45.1,0,0,1-10.331,1.1c-3.4-.173-6.849-.272-10-1.469a4.246,4.246,0,0,0-1-.221c.115,2.026.078,6.229.289,7.993.272,2.257.622,2.148,1.047,4.395.134.711,1.368,1.573,2.177,1.9a22.169,22.169,0,0,0,5.99,1.275,15.2,15.2,0,0,1,2.057.063c-.456.859-1.321.421-2.057.361-1.482-.122-3.882-.952-5.442-.737.542,1.9,1.4,3.206,3.777,3.583a34.6,34.6,0,0,0,13.019-.908,29.887,29.887,0,0,0,2.826-1.2l-.34-2.682c-2.136.542-4.193,1.2-6.2,1.587-1.766.339-4.135,1.152-5.582,0,.829-.035,1.647-.108,2.477-.1a24.926,24.926,0,0,0,11.969-3.5c.819-.47.95-2.482,1.007-3.334.133-2.009.33-4.708.35-6.716C352.977,223.134,352.246,223.849,352.04,222.012Zm-26.7.466c1.087.243,2.028.511,2.958.722,1.071.243,2.343.545,3.435.7,6.437.918,11.641.182,17.735-1.422,3.716-1,3.147-1.457,2.569-2.455-.251-.433-1.055-1.12-.962-1.484.325-1.278-.325-2.054-.974-3.013-1.119-1.653-1.685-2.29-3.907-1.495-.723-.465-1.916-.681-2.81-1.255-.707.68-1.606.879-2.22,1.469-.742-.411-.945-.4-1.77-.86-.819.8-2.028,1.426-2.76,2.141-.31-.088-.281-.279-.45-.362-1.473-.724-2.033-.361-3.177.589-.415.344-.8.57-1.274,1-2.123-.993-2.526.987-3.255,1.789C325.622,218.694,324.813,219.948,325.344,222.478Z" transform="translate(-161.013 -157.16)" fill="#b3b0a7" fill-rule="evenodd"/></g></g></svg>