<svg xmlns="http://www.w3.org/2000/svg" xmlns:xlink="http://www.w3.org/1999/xlink" width="285" height="78" viewBox="0 0 285 78"><defs><clipPath id="a"><rect width="285" height="78" transform="translate(13 38.638)" fill="#fff" stroke="#707070" stroke-width="1"/></clipPath><clipPath id="b"><rect width="14.331" height="11" transform="translate(22)" fill="none"/></clipPath></defs><g transform="translate(-13 -38.638)" clip-path="url(#a)"><g transform="translate(1560.238 -1294.041) rotate(48)"><g transform="translate(51.449 1940.495) rotate(-48)"><path d="M555.366,2190.707a16.251,16.251,0,0,0,3.942-.949,9.6,9.6,0,0,0,2.89-1.407,3.67,3.67,0,0,0,1.507-2.735c.009-.814-.344-1.607-.284-2.419m-12.307-22.021c-3.344-4.6-2.163-11.323-5.309-16.056a4.387,4.387,0,0,0-1.458-1.472,2.072,2.072,0,0,0-2-.07m1.885,33.226a6.993,6.993,0,0,0-3.834-.854m-35.49,6.081a2.585,2.585,0,0,0-.484,1.651m35.263,4.642a5.742,5.742,0,0,0-1.877,1.388m14.942-23.626s3.356,6.339,9.88,6.9M545.7,2157.309c1.8,8.6,7.393,17.538,14.615,19.429m-28.2.258a29.936,29.936,0,0,0-9.458,6.963m37.166,7.289a34.3,34.3,0,0,0,4.242-.432c2.012-.359,2.516-1.293,1.94-2.084m-25.27-10.291c-3.593.288-6.324,3.163-7.331,5.176m16.677-42.2c.288,2.731,4.456,9.777,5.967,10.208m-4.593-12.212s2.926,5.724,5.593,7.1m6.263-3.205a2.415,2.415,0,0,1,.366-1.815,16.8,16.8,0,0,0,.982-1.63,5.758,5.758,0,0,0-.193-4.112,14.357,14.357,0,0,1-1.119-4.046c-.03-.793.191-1.586.117-2.375-.231-2.47-1.01-4.385-4.8-5.263m3.826,12.416c.53,1.53.949,3.44.026,4.772-1.233,1.779-1.784,4.395-.27,8.8m3.935-5.135a4.835,4.835,0,0,0-.4,1.753,4.5,4.5,0,0,0,.04.859,32.028,32.028,0,0,1,.426,4.056v0m-65.041,40.659a2.017,2.017,0,0,0,1.366.139c.816-.128,2.956-.739,4.714-1.146a35.522,35.522,0,0,1,5.74-.94c.3-.009.6-.019.9-.031a15.256,15.256,0,0,1,1.591.046,32.193,32.193,0,0,1,4.967.75c2.663.651,8.229,1.833,10.894,2.25.544.084,1.132.173,1.749.26a31.636,31.636,0,0,0,7.958.272c3.373-.414,4.854-1.184,5.859-2.781a12.455,12.455,0,0,0,1.495-3.177m-47.775,4.146a1.108,1.108,0,0,0,.542.214,5.493,5.493,0,0,0,.935.088m-2-.767a.659.659,0,0,0,.523.465,1.96,1.96,0,0,0,.432.072,4.728,4.728,0,0,0,2.012-.305m-2.565-1.64c-.27.121-.877.447-.877.951,0,.333.2.444.475.458a5,5,0,0,0,.918-.1,8.675,8.675,0,0,0,2.07-.647m1.984-4.368a11.084,11.084,0,0,0-2.307.905c-.549.356-2.784.809-2.686,2.234a.581.581,0,0,0,.423.57c.828.265,2.595-.639,2.846-.765m11.763-3.909a17.293,17.293,0,0,0,4.784.842c.026,0,.054,0,.082,0,1.547.079,7.225-.36,10.944-.417,2.344-.037,3.905-.049,5.237.056a16.228,16.228,0,0,1,2.328.349m-.907-23.883a13.067,13.067,0,0,0,3.03-3.1M487.9,2180.766a1.059,1.059,0,0,0-.477.8c-.041.486.709.607,1.377.892a7.193,7.193,0,0,0,1.882.445,20.88,20.88,0,0,0,2.207.221c1.032.041,2.974-.435,5.038.011a7.871,7.871,0,0,0,2.812.126m-12.309-3.37c-.484-.028-.6.277-.6.48a1.253,1.253,0,0,0,.072.391.707.707,0,0,0,.353.438,6.483,6.483,0,0,0,1.721.365m.548-1.761a4.335,4.335,0,0,1-1.034-.363.479.479,0,0,0-.054-.056v0c-.161-.154-.505-.384-.754-.205-.284.2-.365.363-.263.667a.432.432,0,0,0,.018.044,1.952,1.952,0,0,0,.71.705,2.131,2.131,0,0,0,.669.2m.967-2.267s-1.279.19-1.346.853m12.084-1.191a14.959,14.959,0,0,0-1.538-.114c-1.07-.032-2.851-.291-3.856-.387s-2.656-.293-3.433-.26a4.619,4.619,0,0,0-1.942.388c-.325.228-.325.649.031.712s.647,0,.777.065m15.686-.477a28.307,28.307,0,0,0-5.4.018c-.114.019-.221.039-.323.058-1.623.3-1.83.579-1.83.579m.389,4.24a2.6,2.6,0,0,1,.663.248,16.635,16.635,0,0,1,2.154,1.694,12.622,12.622,0,0,0,2.223,1.5,7.641,7.641,0,0,0,2.153.71c1.868.323,4.954-.437,7.886-1.675.175-.074.353-.149.526-.228,1.374-.609,4.631-2.133,7.821-3.637m8.805-17.309a17.137,17.137,0,0,0-5.716,2.388c-3.772,2.514-6.321,4.5-10.535,7.064-2.67,1.625-8.007,3.784-8.816,4.353-.67.472-1.69,1.054-1.69,1.054m67.5,3.659a.424.424,0,0,0-.28-.7c-.074-.016-.263-.079-.525-.172-1.2-.426-2.962-1.13-2.962-1.13m2.574,2.486c.3.026,1.035.244,1.24-.167a.283.283,0,0,0-.048-.316,3.927,3.927,0,0,0-1.424-.756c-.654-.254-2.142-.867-2.451-1.012a1.282,1.282,0,0,1-.334-.181m-2.5,1.273h0c.907.193,1.573.489,2.031.581a17.749,17.749,0,0,1,2.323.74,1.4,1.4,0,0,0,.872.218.338.338,0,0,0,.286-.379.7.7,0,0,0-.212-.347,7.3,7.3,0,0,0-1.979-.884,7.4,7.4,0,0,1-1.3-.817m-2.961.146a4.285,4.285,0,0,0,.936.744m-1.763.647c.547.317,1.072.547,1.542.84.581.363,1.416.309,1.4-.126a1.1,1.1,0,0,0-.661-1.033c-.165-.1-.342-.216-.514-.328m.623-42.652a5.749,5.749,0,0,1,.854.956c1.333,1.935,1.233,6.173,1.2,7.877s-.87,9.047-.837,10.619a32.16,32.16,0,0,1-.721,8.091c-.56,2.072-1.665,5.884-2.221,8.254-.095.407-.174.772-.232,1.079a6.126,6.126,0,0,0-.1.725c-.009.195-.01.372-.005.533a2.535,2.535,0,0,0,.53,1.663,16.91,16.91,0,0,0,3.9,1.39c.124.033.237.065.333.093a20.263,20.263,0,0,0,2.279.533c.382.077.516.483.3.642m-36.044,4.013c.593-3.509,4.9-5.793,7.432-5.023,2.572.784,4.026,3.468,4.474,5.035a15.254,15.254,0,0,1,.335,1.905c.2,1.411,1.772,4.8,4.751,5.138,3.377.386,14.628-.77,16.6-1.254,3.193-.786.688-1.805-.579-2.316-1.4-.565-3.36-3.656-4.631-6.654-.914-2.158-1.475-4.267-1.219-5.347.014-.065.028-.13.044-.195a17.518,17.518,0,0,0,.339-2.335h0c.409-5.051.595-10.384,1.9-15.065,1.14-4.087,1.451-6.349.607-8.27v0a7.287,7.287,0,0,0-1.332-1.963m-11.208-11.884h0c.205,1.029,1.3,3.349,6.261,7.59m-21.533,25.327c-.046.053-.093.107-.144.16a17.576,17.576,0,0,1-3.714,2.3,49.745,49.745,0,0,0-5.286,3.41,32.375,32.375,0,0,0-5.795,5.093,24.663,24.663,0,0,0-2.049,2.7c-.426.651-.889,1.328-1.432,2.009m19.758-20.479a40.492,40.492,0,0,1,.874-6.519c0-.021.009-.042.012-.062.518-2.335.818-2.74.991-3.7.041-.225.074-.479.1-.794.035-.406.053-.8.053-1.2a16.389,16.389,0,0,0-2.089-7.7q-.082-.155-.163-.3m-2,16.972a4.7,4.7,0,0,0-1.095-.258m5.2-6.721c-.016.031-.031.063-.047.093-.532,1.041-3.5,5.963-3.986,6.774-.044.073-.068.112-.068.112.154.24,1.24,1.865,2.224,3.3.591.863,1.146,1.66,1.442,2.049.787,1.035,4.093,4.5,4.97,5.465s5.533,5.016,5.916,5.714a10.686,10.686,0,0,1,.73,3.419c-.06.453-.226,1.98-.251,2.412s-.216.847-.405.835a.451.451,0,0,1-.395-.288m-.905.205v0c.1.623.419.593.547.593s.239-.214.31-.535c.01-.054.028-.147.047-.265.1-.579.27-1.782.31-2.159a4.6,4.6,0,0,0-.095-1.565c-.131-.418-.551-1.672-.551-1.672m-1.265,4.723c-.042,1.395.483,1.423.586,1.344a1.258,1.258,0,0,0,.109-.463m0,0c.063-.454.114-1.116.128-1.386a8.7,8.7,0,0,0,0-1.863c-.107-.489-.6-1.815-.763-2.353m-10.524-34.187c-.463,1-1.109,2.384-1.735,3.709s-1.23,2.588-1.607,3.338c-.123.242-.221.432-.289.551a71.267,71.267,0,0,0-3.679,9.125,3.789,3.789,0,0,0-.1,1.714,4.146,4.146,0,0,0,1.484,2.23c.611.56,2.688,2.393,4.649,4.114,1.839,1.615,3.577,3.134,3.9,3.411A5.407,5.407,0,0,1,544,2176.31a3.626,3.626,0,0,0,.226.493,7.429,7.429,0,0,0,1.628,1.936,17.091,17.091,0,0,1,2.588,2.684c.416.7,1.432,2.956,1.575,3.194a.523.523,0,0,0,.166.174c.144.088.306.069.348-.137a3.761,3.761,0,0,0-.193-1.326c-.13-.5-.872-2.149-1-2.459s-.275-.634-.275-.634m4.448-42.776a1.415,1.415,0,0,0-.667.16c-.681.34-1.66-.182-2.319.4a2.346,2.346,0,0,1-1.382.381,4.316,4.316,0,0,0-1.752.53c-1.426.8-2.525,1.36-3.451,1.881a17.953,17.953,0,0,0-3.128,2.754,8.446,8.446,0,0,0-1.452,1.906c-.647,1.117-1.121,2.353-1.688,3.582a21.64,21.64,0,0,0-1.291,3.881m15.073-20.892a.408.408,0,0,0-.528.2c-.146.225.289,1.481.493,2.031a.833.833,0,0,0,.789.605m-.754-2.833a.353.353,0,0,0,.01.054c.076.4.188.921.29,1.376a10.448,10.448,0,0,0,.454,1.4,13.653,13.653,0,0,0,1.3,2.589c.065.1.131.195.2.286.051.071.1.137.154.2a3.568,3.568,0,0,0,4.56,1.079,8.942,8.942,0,0,0,.873-.6m-10.157-.032a6.258,6.258,0,0,0,.288-.588,34.222,34.222,0,0,0,.753-4.131c.319-1.363-.109-.96.332-4.386.363-2.811,1.232-4.514,2.926-5.572a3.975,3.975,0,0,1,3.112-1.693c1.021-.071,4.006-.136,6.036,1.923a8.362,8.362,0,0,1,2.5,5.352c.261,1.6.028,3.542.232,4.877s.816,1.679,1.188,2.715a5.753,5.753,0,0,1,.462,2.614c0,.063-.007.126-.013.193a6.458,6.458,0,0,1-1,2.961c-.43.858-.34,2.479-.4,4.005a7.364,7.364,0,0,1-.391,2.4c-.08.2-.161.384-.244.565a8.111,8.111,0,0,1-3.024,3.565c-1.832,1.328-6.57.6-5.833.386a7.177,7.177,0,0,0,4.088-4.637,19.345,19.345,0,0,0-.175-3.609c-.091-.928-.179-1.9-.2-2.809-.031-1.684,1.662-3.126,1.6-4.258a19.025,19.025,0,0,0-.616-3.363c-.377-1.8.493-3.165-.551-5.719a5.542,5.542,0,0,0-5.833-3.442c-.83.139-2.307,3.05-2.6,5.11-.083.577-.121.969-.421,1.12-.02.008.12.111.1.118" transform="translate(-487.423 -2122)" fill="none" stroke="#b3b0a7" stroke-linecap="round" stroke-linejoin="round" stroke-width="0.5"/></g><g transform="translate(87.96 1882)" clip-path="url(#b)"><path d="M105.362,1918.767a.9.9,0,0,1,.069-.133.682.682,0,0,1,.312-.263.423.423,0,0,1,.231-.025.763.763,0,0,1,.238.093l.063.038.064.041c.022.013.042.028.063.043s.042.028.062.044c.083.06.162.129.241.2.156.14.307.294.46.454s.308.326.481.49a4.3,4.3,0,0,0,.566.461,3.087,3.087,0,0,0,.331.192,2.542,2.542,0,0,0,.369.145,2.154,2.154,0,0,0,.4.075,2.009,2.009,0,0,0,.407-.008,2.577,2.577,0,0,0,.743-.213,3.575,3.575,0,0,0,.329-.169c.106-.061.206-.125.308-.2a2.536,2.536,0,0,0,.3-.242,1.843,1.843,0,0,0,.137-.146,1.52,1.52,0,0,0,.122-.166,1.406,1.406,0,0,0,.169-.378,1.58,1.58,0,0,0,.059-.391,2.354,2.354,0,0,0-.1-.729,6.3,6.3,0,0,0-.243-.648c-.087-.208-.173-.415-.241-.633a3.566,3.566,0,0,0,.048.686c.032.226.071.447.089.661a2.646,2.646,0,0,1,.01.315,1.861,1.861,0,0,1-.031.3,1.26,1.26,0,0,1-.082.268.959.959,0,0,1-.138.222,1.632,1.632,0,0,1-.439.349c-.087.051-.181.1-.274.146s-.187.086-.28.122a2.114,2.114,0,0,1-.557.137,1.38,1.38,0,0,1-.529-.051,1.9,1.9,0,0,1-.26-.1,2.6,2.6,0,0,1-.256-.141c-.085-.054-.168-.112-.251-.174s-.164-.129-.246-.2a13.605,13.605,0,0,0-1.049-.883,3.147,3.147,0,0,0-.311-.193c-.026-.016-.054-.029-.082-.043s-.055-.028-.083-.041l-.085-.038-.089-.035a1.444,1.444,0,0,0-.195-.057.928.928,0,0,0-.217-.021.864.864,0,0,0-.113.011.828.828,0,0,0-.3.12.926.926,0,0,0-.28.293.905.905,0,0,0-.083.178.971.971,0,0,0-.043.185c0,.03-.006.059-.008.088h0a1.155,1.155,0,0,0,.02.274,1.363,1.363,0,0,0,.108.33,1.643,1.643,0,0,1,.011-.418,1.07,1.07,0,0,1,.062-.226Zm-.437.454a1.451,1.451,0,0,0-.328.167,1.755,1.755,0,0,0-.18.142,1.81,1.81,0,0,0-.159.168c-.025.03-.05.06-.072.092s-.044.064-.065.1a2.176,2.176,0,0,0-.113.2,2.55,2.55,0,0,0-.16.427,3.273,3.273,0,0,0-.089.438c-.021.146-.032.29-.038.436a3.808,3.808,0,0,0,.008.445c.007.075.015.151.027.226.006.038.013.076.021.114s.016.076.026.114c.019.076.043.151.07.225a2.124,2.124,0,0,0,.1.219l.028.053.031.053c.02.035.044.069.067.1s.049.066.074.1.054.062.08.092a1.622,1.622,0,0,0,.384.3,1.3,1.3,0,0,0,.465.157l.061.007.062,0a.9.9,0,0,0,.123,0l.031,0,.032,0a.617.617,0,0,0,.062-.011l.061-.015.059-.02a.973.973,0,0,0,.214-.113.816.816,0,0,0,.17-.166c.011-.016.024-.031.034-.048l.029-.051a.644.644,0,0,0,.041-.108.464.464,0,0,0,.006-.22.518.518,0,0,1-.23.3.744.744,0,0,1-.164.075.82.82,0,0,1-.172.032l-.042,0h-.042a.327.327,0,0,1-.041,0l-.02,0-.021,0a.749.749,0,0,1-.083-.019l-.041-.011-.04-.015a1.114,1.114,0,0,1-.151-.071c-.024-.016-.048-.03-.071-.047s-.046-.031-.067-.051a1.368,1.368,0,0,1-.233-.246c-.016-.024-.033-.046-.048-.07s-.031-.047-.043-.073l-.02-.037c-.007-.012-.012-.025-.018-.038l-.018-.038-.017-.04a2.336,2.336,0,0,1-.155-.7c-.01-.124-.014-.252-.014-.381s0-.261.011-.39a3.331,3.331,0,0,1,.117-.743l.028-.088c.01-.029.019-.059.031-.087s.023-.057.036-.084.012-.028.019-.042l.02-.041a1.647,1.647,0,0,1,.2-.31l.03-.037.032-.034c.021-.024.045-.045.067-.068s.048-.042.072-.064l.044-.035M98.175,1908.2a2.144,2.144,0,0,1,.153-.259,1.208,1.208,0,0,1,.271-.288.851.851,0,0,1,.162-.094l.042-.018a.341.341,0,0,1,.044-.013l.044-.013c.014,0,.03-.005.045-.008l.044-.007.045,0a.658.658,0,0,1,.09,0,.285.285,0,0,1,.045,0l.045.005c.03.007.06.013.09.021a1.368,1.368,0,0,1,.346.161,2.2,2.2,0,0,1,.314.245c.024.024.049.046.073.07s.048.047.072.073c.048.05.1.1.144.155.1.1.2.212.3.317a2.821,2.821,0,0,0,.349.295,1.592,1.592,0,0,0,.423.215,1.448,1.448,0,0,0,.471.066l.059,0a.441.441,0,0,0,.059,0l.116-.016a1.805,1.805,0,0,0,.223-.057,2.028,2.028,0,0,0,.412-.185,2.6,2.6,0,0,0,.668-.566q-.178.125-.363.23a3.205,3.205,0,0,1-.38.182l-.1.037-.1.031c-.016.006-.033.01-.049.014l-.049.012-.049.013-.05.009c-.066.014-.133.021-.2.028l-.1,0a.346.346,0,0,1-.049,0l-.049,0c-.016,0-.033,0-.048,0l-.048-.007-.048-.007a.361.361,0,0,1-.047-.01l-.047-.011a.293.293,0,0,1-.046-.013l-.09-.031a1.4,1.4,0,0,1-.332-.193,2.7,2.7,0,0,1-.3-.27c-.1-.1-.192-.2-.289-.311-.049-.052-.1-.106-.151-.159s-.107-.107-.164-.157a2.335,2.335,0,0,0-.374-.271,1.545,1.545,0,0,0-.443-.177,1.041,1.041,0,0,0-.493.008,1,1,0,0,0-.424.238,1.292,1.292,0,0,0-.271.376,1.921,1.921,0,0,0-.079.188h0m-.28.568h0a5.026,5.026,0,0,0-.6-.464,5.22,5.22,0,0,0-.691-.386c-.119-.056-.242-.105-.366-.153-.062-.023-.125-.044-.187-.066l-.188-.06-.37-.107q-.183-.052-.357-.114a2.685,2.685,0,0,1-.334-.144,2.135,2.135,0,0,1-.308-.191,2.583,2.583,0,0,1-.882-1.188,2.006,2.006,0,0,0,.222.755,2.189,2.189,0,0,0,.217.339,2.142,2.142,0,0,0,.277.3c.05.046.1.088.158.13s.112.079.171.114a2.546,2.546,0,0,0,.365.183c.124.052.25.094.375.134s.249.074.37.112l.181.055.178.06c.059.021.118.041.177.064s.117.045.175.069a7.506,7.506,0,0,1,.683.32,8.375,8.375,0,0,1,.88.542m-2.378-6.277a39.737,39.737,0,0,0,2.23,5.975h0c.048.1.1.2.148.3.312.63.655,1.263,1.032,1.887,1.293,2.138,3.849,5.687,5.922,8.419l.119.156c.9,1.185,6.157,7.144,7.323,8.143a.144.144,0,1,0,.186-.22c-.559-.464-6.332-7.08-7.252-8.307M96.132,1902.7a39.543,39.543,0,0,0,1.97,5.345h0l.073.157a25.561,25.561,0,0,0,1.252,2.349c1.263,2.088,3.711,5.55,5.734,8.256m-11.583-18.165a9.071,9.071,0,0,0,.657.89,4.363,4.363,0,0,0,1.357,1.106l.09.043.016.008.089.049a.3.3,0,0,0,.344-.038.324.324,0,0,0,.033-.033,5.433,5.433,0,0,0,1.209-3.965m-.632-.323h0a.325.325,0,0,0,.212.252c.126.051.2,0,.3-.026a.066.066,0,0,1,.082.061.142.142,0,0,1,0,.04.124.124,0,0,0,.04,0c.1-.026.194-.145.295-.116a1.4,1.4,0,0,1,.212.2c.2.23.229.469.561.274.3-.177.2.039.435.115s.353-.24.562-.238c.119,0,.155.119.27.074.082-.032.092-.126.133-.191.135-.218.336-.128.471-.322.083-.119.069-.227.2-.295.055-.028.161.042.216-.072s-.071-.226.019-.336c.059-.073.157-.038.219-.088.211-.174-.048-.385.013-.563a.165.165,0,0,1,.068-.08h0m-.477-.733c-.1-.312-.4-.161-.568-.328a1.676,1.676,0,0,0-.207-.173m.6,1.328.054,0a1.484,1.484,0,0,0,.6-.1m0,0,.159-.055c.119-.041.177-.005.292-.024.153-.025.081-.085.137-.173.088-.141.27-.175.285-.384.019-.257-.2-.352-.318-.5-.047-.058-.039-.125-.093-.187s-.13-.066-.168-.121c-.079-.115-.051-.276-.115-.4-.052-.1-.209-.233-.169-.332a.2.2,0,0,0-.046-.214,1.147,1.147,0,0,0-.487-.308,1.018,1.018,0,0,0-.158-.023m-1.279,2.143a.274.274,0,0,0,.161-.012c.166-.076.291-.408.426-.539a1.279,1.279,0,0,1,.122-.1,3.029,3.029,0,0,0,.443-.335.379.379,0,0,0,.106-.335.5.5,0,0,1,.025-.208c.013-.03.072-.033.081-.058a.963.963,0,0,0-.083-.552c-.014-.033-.027-.063-.039-.089a.915.915,0,0,0-.169-.233c-.086-.078-.091-.055-.2-.086a3.476,3.476,0,0,0-.5-.191c-.139-.019-.183,0-.285-.07a.194.194,0,0,1-.052-.06c-.027-.044-.047-.089-.118-.109-.136-.038-.241.1-.372.1-.15.01-.155-.089-.29-.125-.112-.03-.149.033-.241.067-.129.048-.17.011-.3.024s-.257.164-.332.327m1.654-.288a.088.088,0,0,1,0-.011c.01-.106.05-.084.011-.181a.45.45,0,0,0-.119-.147c-.084-.07-.1-.05-.161-.134-.036-.048-.022-.109-.08-.153-.107-.081-.238-.061-.358-.172a3.229,3.229,0,0,1-.2-.274c-.135-.148-.306-.113-.483-.11a1.071,1.071,0,0,1-.163-.016c-.091-.031-.092-.076-.175-.123-.154-.087-.32-.006-.486,0-.136.007-.179-.053-.3-.1-.143-.05-.246.028-.375.018-.174-.015-.158-.091-.322.021a.389.389,0,0,1-.275.1.967.967,0,0,0-.317.022c-.142.065-.141.245-.247.307s-.234.049-.329.182c-.044.063,0,.109-.092.163-.067.041-.108.013-.18.032l-.025.007m.539.961h0c-.028-.04-.06-.078-.091-.116a.584.584,0,0,1-.1-.162c-.049-.139.025-.207-.077-.307s-.131-.074-.2-.221c-.029-.062-.015-.106-.076-.154l-.008-.006c-.044-.033-.116-.015-.146-.037-.084-.063-.065-.175-.159-.232-.065-.04-.2-.029-.275-.065s-.106-.116-.213-.1c-.127.018-.151.137-.272.159a.41.41,0,0,1-.264-.068c-.155-.073-.282-.2-.48-.125-.144.057-.118.083-.28.068a.481.481,0,0,0-.291.005.508.508,0,0,0-.187.2c-.026.04-.034.113-.071.145-.054.046-.074-.006-.124.022a.692.692,0,0,0-.358.764m4.25,2.453a.611.611,0,0,0,.1-.034,1.272,1.272,0,0,0,.144-.078h0c.107-.066.211-.143.316-.2a4,4,0,0,0,.884-.438.511.511,0,0,0,.144-.193c.022-.075-.017-.149,0-.2.033-.13.238-.26.107-.35a.285.285,0,0,0-.069-.033c-.141-.049-.343.063-.452.015-.042-.019-.046-.109-.094-.13-.081-.035-.125.019-.2.044-.258.084-.118-.062-.3-.126-.133-.047-.308.112-.272.234h-.015m2.671.847.051-.036a1.123,1.123,0,0,0,.267-.162c.047-.055.048-.128.09-.173s.123-.012.172-.1,0-.072,0-.154c.01-.138.041-.242-.106-.323-.061-.033-.113-.056-.165-.082a1.089,1.089,0,0,1-.144-.084c-.142-.1-.178-.038-.323-.063-.129-.022-.173-.125-.333-.075s-.134.125-.279.039c-.192-.114-.179-.34-.294-.469a.281.281,0,0,0-.051-.044c-.077-.052-.192-.047-.269-.105s-.057-.074-.11-.156c-.084-.13-.1-.134-.25-.169-.025-.006-.052.03-.071.026s-.039-.048-.057-.051a.7.7,0,0,0-.159-.025c-.074,0-.134.06-.209.036-.051-.016-.074-.087-.115-.11-.118-.066-.182-.043-.309.028a.713.713,0,0,1-.355.112.3.3,0,0,0-.28.157c-.04.057-.024.095-.073.135a.978.978,0,0,0-.143.041.464.464,0,0,0-.127.117m.685,2.11-.022-.016h0a.319.319,0,0,0-.063-.034c-.206-.084-.374.113-.568-.022-.065-.045-.1-.16-.2-.178s-.1.04-.184.048c-.219.022-.343-.136-.439-.3-.141-.238-.265-.423-.58-.383-.11.014-.141.055-.264.014-.044-.015-.1-.069-.133-.076s-.088.031-.127.016c-.153-.062-.314-.2-.52-.151s-.259.2-.338.357c-.159.322-.18.021-.413.053a.216.216,0,0,0-.174.139.545.545,0,0,0-.035.119m4.056.412a1.537,1.537,0,0,0,.211-.163.693.693,0,0,0,.154-.245c.1-.232-.01-.183-.066-.383-.047-.17.1-.26.021-.421a.207.207,0,0,0-.037-.051c-.052-.055-.128-.09-.169-.14-.066-.08-.083-.261-.158-.324-.1-.081-.129.027-.222-.006-.123-.042-.135-.221-.293-.262a.1.1,0,0,0-.035,0m0,0a.348.348,0,0,1-.1.007.6.6,0,0,1-.09-.057,1.141,1.141,0,0,0-.147-.1c-.073-.012-.144.063-.225.05-.054-.009-.123-.072-.182-.09-.086-.026-.162,0-.21-.082-.039-.063.046-.2.013-.249-.071-.1-.229.046-.34-.094s-.044-.26-.282-.25c-.077,0-.077.062-.168.035-.069-.021-.093-.1-.165-.132a.423.423,0,0,0-.365.075.684.684,0,0,0-.11.086c-.056.055-.061.14-.1.184-.06.061-.1.023-.177.058-.15.066-.152.175-.226.3s-.2.118-.268.249c-.089.185.148.3.078.488s-.222.215-.2.447c.02.211.04.15-.091.3a.232.232,0,0,0-.065.246m1.163-2.355a.251.251,0,0,0-.18-.005c-.045.02-.087.113-.167.141a.862.862,0,0,1-.183.03.464.464,0,0,0-.228.054c-.059.035-.093.13-.149.159-.107.055-.3-.036-.4.071-.068.074-.012.147-.1.211l-.02.013c-.05.029-.148,0-.212.034-.3.165-.085.521.01.748a1.44,1.44,0,0,1,.067.632c0,.055-.005.1,0,.143m7.077,1.644a.761.761,0,0,0,.114.147c.1.095.22.094.306.169s.124.171.229.23a.8.8,0,0,0,.109.052.942.942,0,0,0,.269.055c.021,0,.036-.036.054-.036s.059.048.078.047a.527.527,0,0,0,.2-.046,1.851,1.851,0,0,1,.322-.1c.177-.04.149-.079.26-.2a1,1,0,0,1,.225-.154c.029-.017.057-.033.083-.05.2-.128.122-.154.12-.359,0-.155.076-.24-.02-.405m-5.527.578c.122.124.272.01.4.132.049.046.035.118.1.159.04.025.128,0,.152.019.1.069.063.221.21.259.118.03.194-.087.284-.057.017.006.091.115.115.134a.611.611,0,0,0,.178.085c.041.01.126-.011.159,0,.056.023.058.073.108.1.085.05.242.123.284-.006a1.123,1.123,0,0,0,.433.031.394.394,0,0,0,.332-.214c.028-.066-.035-.138-.022-.2a.508.508,0,0,1,.1-.167.469.469,0,0,1,.346-.213.223.223,0,0,1,.091.026c.067-.088.133-.09.233-.1s.136.033.227-.037a.528.528,0,0,0,.089-.119.108.108,0,0,1,.02-.02c.067-.053.127-.005.18-.114a.188.188,0,0,0,.015-.142.674.674,0,0,0-.03-.083c-.044-.1-.1-.2-.123-.288a.957.957,0,0,0-.238-.421c-.034-.031-.125-.067-.166-.1a.07.07,0,0,1-.016-.019c-.033-.057.015-.142-.029-.2s-.117-.035-.165-.064-.061-.059-.1-.1c-.082-.079-.162-.231-.266-.281-.074-.035-.124,0-.2-.01-.014,0-.062.033-.072.027-.05-.028-.018-.069-.036-.085s-.018-.059-.053-.085a.625.625,0,0,0-.137-.02.794.794,0,0,0-.2-.014m-5.741.855-.036.032a1,1,0,0,0-.374.679.425.425,0,0,0,.072.233c.019.035.075.036.09.072s-.022.105,0,.136c.07.115.231.174.352.247a.548.548,0,0,1,.069.048c.065.054.1.171.2.185s.142-.089.234-.1.163.066.263.059.148-.067.224-.126c.255-.2.2.016.45.052.217.033.23-.169.435-.026.031.021.036.1.073.109.084.031.092-.037.162-.048s.056-.036.117-.028c.018,0,.038.025.058.05a.2.2,0,0,0,.064.058c.038.015.09-.036.138-.024s.07.074.12.089c.119.034.268,0,.242-.15.243.009.352-.107.558-.205l.025-.011a1.269,1.269,0,0,0,.262-.115c.062-.043.159-.115.172-.194s-.06-.1-.054-.145c.012-.1.109-.125.131-.225a.092.092,0,0,0,0-.014c0-.047,0-.179-.005-.216a.054.054,0,0,0,0-.008l0-.019m-4.977-.408c-.215-.105-.413-.333-.635-.421-.174-.069-.228.019-.358.028a.247.247,0,0,0-.169.087c-.094.111-.217-.016-.385.017a.353.353,0,0,0-.237.264.27.27,0,0,1-.057.143.178.178,0,0,0,0,.223.213.213,0,0,1,.049.188c-.019.081-.011.146.047.176a.182.182,0,0,1,.092.2.124.124,0,0,0,0,.077.064.064,0,0,0,.052.04c.024.005.048.006.061.026.024.037,0,.076.024.114.071.12.2.236.333.191a.131.131,0,0,1,.134.035c.109.109.179-.051.352-.014.136.029.084.11.153.172.105.094.1.039.226.02a.746.746,0,0,1,.177-.008.234.234,0,0,1,.1.03c.087.056.07.139.165.171s.144-.068.236,0c.068.051.03.136.08.2.074.089.227.069.311.159.046.05.037.127.088.176.071.069.164.026.237.074.126.082.07.156.1.289.069.316.3.253.537.284a1.015,1.015,0,0,0,.229.006m-.155.32c.007-.03.016-.059.025-.089a.735.735,0,0,1,.129-.231h0a.653.653,0,0,0,.357-.134c.043-.035.067-.1.109-.128s.1-.035.142-.066a1.278,1.278,0,0,0,.219-.189c.148-.164.293-.562.558-.847m-2.421-1.542a.673.673,0,0,0-.517-.32c-.2-.022-.4.052-.389.275v.007a.216.216,0,0,0-.148.251.2.2,0,0,0,.031.081.222.222,0,0,1,.018.211.278.278,0,0,0-.03.15c.019.105.093.1.13.186s-.022.184.063.278a.516.516,0,0,0,.112.078.191.191,0,0,1,.1.18c-.012.131.251.065.33.086.045.012.068.1.141.105a.284.284,0,0,0,.295-.2m5.353,1.233,0,0a.549.549,0,0,0,.36.2.225.225,0,0,0,.135-.048c.176.152.31.067.473.048.181-.021.382.091.517-.1.024-.033,0-.1.026-.135.041-.053.061-.037.112-.071.085-.056.2-.068.273-.148a.583.583,0,0,0,.121-.224c.011-.058-.014-.114,0-.161h0m-6.626,1.26a.229.229,0,0,0,.014.156c.028.054.1.063.122.1.084.17-.037.213.21.257.191.034.222-.036.381-.089.059-.02.128,0,.2-.029a1.188,1.188,0,0,0,.142-.094c.138-.084.181-.111.335-.063s.226.145.351,0c.141-.167.084-.173.234-.187a.118.118,0,0,0,.106-.1.17.17,0,0,1,.118-.166c.084-.036.18,0,.264-.042s.127-.134.214-.161.2.041.295.008c.036-.012.055-.079.074-.084.064-.019.1,0,.169,0a.913.913,0,0,0,.319-.137c.226-.1.4.139.559-.064.108.1.143.187.315.149.048-.01.081-.069.13-.078a.155.155,0,0,1,.058,0h.006a.259.259,0,0,0,.3-.108c.028-.066-.043-.147-.015-.2.046-.079.174-.077.212-.136m-8.5-1.179,0,.006c-.037.112.064.143.071.231.01.115-.038.062-.073.166-.062.186.074.2.118.359.009.031-.022.118-.009.174a.415.415,0,0,0,.1.178c.094.1.2.089.28.215.042.064.028.128.089.182s.173.021.222.065c.087.077.074.214.185.305a2.94,2.94,0,0,0,.294.167.552.552,0,0,0,.292.125c.1.014.225.055.34.072m-.443-1.707a.722.722,0,0,0-.218.293.2.2,0,0,1-.078.108c-.106.067-.13.283-.115.39a.232.232,0,0,0,.1.182c.072.065.21.059.263.114.069.072,0,.128.019.207a.842.842,0,0,0,.122.182c.108.162.22.117.352.229l0,0c.11.1.047.219.244.215a3.027,3.027,0,0,0,.338-.048.99.99,0,0,1,.347-.042c.068.009.121.022.176.024a.363.363,0,0,0,.148-.026,1.167,1.167,0,0,0,.23-.125m-.378.151c-.08.18-.04.438-.133.621a1.108,1.108,0,0,0-.189.838,1.029,1.029,0,0,0,.435.561c.059.031.1.008.146.025s.194.073.235.083a.367.367,0,0,0,.355-.04c.043-.022.072-.093.132-.12s.161.026.229-.008c.115-.056.176-.217.306-.285a.516.516,0,0,1,.072-.032c.108-.036.156.007.3.01.272.005.2-.066.355-.249.092-.107.229-.159.3-.25.039-.05.039-.173.094-.246a.782.782,0,0,1,.262-.187c.151-.081.209-.045.356-.059.215-.02.217-.093.415-.184.14-.064.346,0,.441-.162.11-.191,0-.3.215-.474a2.714,2.714,0,0,0,.332-.375.6.6,0,0,1,.1-.086h0c.075-.055.159-.1.237-.152l0,0m18.429-10.35a.4.4,0,0,0-.091.078c-.1.117-.028.153-.061.272-.043.153-.286.283-.1.454-.127.054-.137.191-.1.319a.211.211,0,0,0,.2.152c.16.006.166.406.2.524a.115.115,0,0,0,.008.022c.041.075.115.056.168.117.036.041.012.105.062.153.14.136.273.061.435.086.285.043.642.275.942.124a.716.716,0,0,0,.2-.179m4.086,17.68a.667.667,0,0,1,.15-.069c.02-.006.041-.011.061-.016l.032-.006.032,0a.935.935,0,0,1,.128,0,1.238,1.238,0,0,1,.13.012c.043.006.087.016.13.026a2.135,2.135,0,0,1,.258.083,1.606,1.606,0,0,1,.234.116,1.057,1.057,0,0,1,.193.15.789.789,0,0,1,.137.184,1.148,1.148,0,0,1,.123.475,2.5,2.5,0,0,1,0,.273l0,.07-.006.071c0,.047-.009.095-.016.143-.024.193-.057.386-.1.581-.019.1-.041.2-.064.294l-.071.3a2.188,2.188,0,0,0,.19-.246,2.953,2.953,0,0,0,.161-.268,3.342,3.342,0,0,0,.239-.581c.015-.05.03-.1.043-.154s.024-.105.034-.158a1.982,1.982,0,0,0,.033-.331,1.6,1.6,0,0,0-.031-.346,1.256,1.256,0,0,0-.125-.344l-.023-.041-.025-.039-.026-.039c-.009-.013-.019-.025-.028-.037a1.17,1.17,0,0,0-.127-.137,1.318,1.318,0,0,0-.3-.2,1.547,1.547,0,0,0-.322-.119q-.082-.021-.164-.035c-.055-.009-.11-.015-.167-.019a1.322,1.322,0,0,0-.17,0,1.144,1.144,0,0,0-.173.021.9.9,0,0,0-.326.132l-.048.035h0m-.523.524c-.031.012-.061.025-.091.039l-.065.031-.062.036a.7.7,0,0,0-.061.039l-.06.041-.057.044-.028.023-.027.024-.054.049-.051.051a2.032,2.032,0,0,0-.338.474,2.612,2.612,0,0,0-.119.263q-.053.134-.094.27c-.027.09-.051.181-.074.272s-.042.18-.061.27c-.039.178-.072.354-.11.525s-.08.339-.13.506-.1.333-.161.5-.122.326-.191.485-.143.319-.221.469a3.235,3.235,0,0,1-.26.426,1.781,1.781,0,0,1-.328.345l-.047.036-.049.032-.049.032-.052.029c-.017.009-.034.02-.052.028l-.055.024a1.157,1.157,0,0,1-.112.045,1.84,1.84,0,0,1-.488.1,2.5,2.5,0,0,1-.519-.02,3.369,3.369,0,0,1-.525-.12,2.182,2.182,0,0,0,.486.264,2.213,2.213,0,0,0,.55.139,1.919,1.919,0,0,0,.585-.02,1.705,1.705,0,0,0,.565-.219,2.021,2.021,0,0,0,.246-.182,2.429,2.429,0,0,0,.211-.214,3.163,3.163,0,0,0,.337-.476c.049-.082.094-.165.136-.249s.084-.167.124-.252q.117-.255.213-.52c.062-.177.118-.355.166-.537s.088-.364.118-.548.055-.365.077-.542c.011-.089.024-.176.036-.263s.026-.173.042-.257a3.488,3.488,0,0,1,.126-.494c.014-.039.028-.078.045-.116s.034-.076.052-.114c.008-.019.019-.037.028-.056s.019-.037.03-.055c.022-.036.042-.073.066-.107l.035-.053.038-.05.019-.026.02-.024.041-.049.044-.046a.582.582,0,0,1,.045-.045l.047-.044.05-.041.014-.012h0c.029-.023.06-.042.091-.065l.056-.033L121,1908l.03-.014.059-.029.062-.024.031-.012.032-.01.065-.02a1.089,1.089,0,0,0-.456.071Zm-.807-12.476a.742.742,0,0,0-.12-.083.827.827,0,0,0-.133-.058.785.785,0,0,0-.144-.032.714.714,0,0,0-.149,0c-.025,0-.05.005-.074.009s-.049.01-.073.017a.854.854,0,0,0-.274.13.87.87,0,0,0-.117.1c-.018.019-.035.04-.051.06s-.03.042-.044.064a1.305,1.305,0,0,0-.121.27c-.03.09-.055.177-.084.257a1.866,1.866,0,0,1-.185.474,1.088,1.088,0,0,1-.336.37.815.815,0,0,1-.485.13.716.716,0,0,1-.254-.059.582.582,0,0,1-.212-.159.6.6,0,0,0,.2.189.763.763,0,0,0,.262.1.914.914,0,0,0,.56-.081,1.258,1.258,0,0,0,.437-.375,2.062,2.062,0,0,0,.273-.5,3.108,3.108,0,0,1,.156-.492.73.73,0,0,1,.058-.1.627.627,0,0,1,.076-.087.667.667,0,0,1,.2-.129.645.645,0,0,1,.482-.01.747.747,0,0,1,.169.091m.586-.27h0c.007-.086.017-.171.03-.254a2.182,2.182,0,0,1,.071-.3,3.1,3.1,0,0,1,.109-.29c.082-.19.18-.376.281-.561.051-.092.1-.184.155-.275s.109-.18.164-.269.11-.178.16-.27.1-.185.146-.278l.148-.281a2.5,2.5,0,0,0,.137-.307,1.811,1.811,0,0,0,.083-.329,1.778,1.778,0,0,0,.021-.334,1.651,1.651,0,0,0-.142-.634,1.948,1.948,0,0,1-.2,1.193,2.512,2.512,0,0,1-.16.255c-.058.085-.122.173-.181.263s-.119.179-.172.273a3.1,3.1,0,0,0-.144.289c-.086.2-.17.4-.249.6s-.155.4-.216.61a2.961,2.961,0,0,0-.073.319c-.009.053-.016.106-.021.159h0m.264,13.086c0-.01,0-.02,0-.03-.01-1.634-.059-3.215-.113-4.574-.11-2.77-.411-5.567-.683-7.784l-.011-.089,0-.03c-.17-1.38-.336-2.527-.452-3.289m1.264,15.948c.023,5.146-.316,13.492-.369,14.953a.214.214,0,0,0,.19.232h.01a.21.21,0,0,0,.2-.209c.082-1.464.514-9.906.5-15.2q0-.109,0-.216t0-.194c0-.014,0-.029,0-.043h0c-.012-1.468-.018-2.878-.066-4.109-.113-2.867-.389-5.762-.667-8.024h0q-.026-.219-.053-.428h0l-.009-.075c-.152-1.189-.3-2.172-.4-2.836m-2.645-1.822a2.254,2.254,0,0,0,.513.938,4.059,4.059,0,0,0,.959.764c.128.077.26.151.383.236a.585.585,0,0,0,.334.1.583.583,0,0,0,.455-.22.606.606,0,0,0,.075-.121,2.608,2.608,0,0,1,.27-.442,4.441,4.441,0,0,0,.626-1.087,2.569,2.569,0,0,0,.16-.7m-6.174-3.816c-.178.071-.339.231-.513.286a2.277,2.277,0,0,1-.294.03c-.122.022-.176.129-.219.235a.609.609,0,0,1-.07.151.283.283,0,0,1-.076.064.522.522,0,0,0-.261.256.388.388,0,0,0-.017.187c.016.071.022.045.063.1.077.095.043.081,0,.2-.077.187.152.38.284.481.073.056.141.14.235.131.113-.011.227-.125.35-.108s.168.091.3.062a.492.492,0,0,0,.277-.194c.05-.062.1-.129.145-.187a.557.557,0,0,1,.263-.205c.086-.014.142.038.211,0a.168.168,0,0,0,.036-.03c.1-.109.033-.307.12-.411.066-.08.3-.057.394-.041.074.013.147.045.222.052m3.465-.653a.264.264,0,0,1,.033-.028c.122-.088.226-.134.245-.309.014-.13-.088-.178-.1-.278s.052-.22-.006-.323-.225-.084-.326-.148-.059-.1-.094-.183a.373.373,0,0,0-.3-.225m3.32-.651-.009,0c-.054-.022-.065-.01-.108-.043a.926.926,0,0,0-.114-.1c-.111-.065-.151-.039-.2-.164a.473.473,0,0,0-.267-.29c-.133-.035-.171.123-.285.134-.086.008-.163-.062-.27-.033a.231.231,0,0,0-.1.054m.76.814a.292.292,0,0,0-.19-.1c-.16-.027-.22.007-.192-.162a.427.427,0,0,0-.072-.4c-.081-.078-.236-.067-.307-.153a.159.159,0,0,1-.024-.041c-.044-.111.016-.211-.112-.3-.1-.071-.234,0-.325-.061-.152-.1-.129-.379-.327-.379a.473.473,0,0,1-.162-.013.252.252,0,0,0-.136-.021c-.123.03-.116.108-.257.041-.115-.055-.221-.13-.359-.065a.53.53,0,0,0-.231.349m1.079,1.133h0a.168.168,0,0,1-.1-.1c-.046-.114-.011-.253-.047-.372-.066-.214-.246-.245-.4-.355-.077-.054-.212-.093-.265-.17a.225.225,0,0,0-.125-.084c-.041-.012-.09-.034-.14-.054-.092-.036-.189-.064-.252,0-.04.04-.039.116-.073.16-.052.067-.029.041-.1.041s-.162-.042-.249-.016c-.1.031-.118.1-.162.181a.249.249,0,0,1-.062.075.345.345,0,0,1-.132.056.71.71,0,0,0-.31.156h0m4.159,2.539a2.713,2.713,0,0,0,.918-.193c.091-.061.071-.124.069-.205-.006-.165.071-.1.17-.2.031-.029.024-.076.042-.094.035-.034.1-.034.138-.073a.137.137,0,0,0,.043-.122.588.588,0,0,1-.012-.138c.008-.07.054-.149.068-.22s.057-.154.074-.235c.023-.109-.06-.112-.065-.215s.09-.18.113-.26.024-.033-.015-.1c-.03-.049-.05-.047-.057-.1-.01-.078.036-.185.008-.266-.081-.233-.3.023-.435.062-.1.031-.206-.052-.313-.062-.165-.016-.2.068-.285.159a.516.516,0,0,1-.045.042c-.133.109-.145-.045-.262-.024-.152.027-.24.222-.283.349l0,.008a.663.663,0,0,1-.039.124c-.036.055-.106.059-.163.107a.223.223,0,0,0-.047.057m-.841,4.641a.411.411,0,0,1,.052.048.954.954,0,0,1,.128.212.528.528,0,0,0,.069.105.236.236,0,0,0,.2.083c.029,0,.053-.023.082-.023.059,0,.029,0,.093.031a.978.978,0,0,0,.458.146c.117-.011.341,0,.417-.115.03-.047.015-.127.041-.163.041-.059.069-.021.136-.04.087-.025.049-.026.08-.1.011-.025,0-.045.011-.067s.083-.032.1-.072c.034-.067-.016-.128-.022-.2a.448.448,0,0,1,.035-.225c.038-.053.135-.05.18-.1s.023-.118.032-.186-.008-.072.07-.109a1.143,1.143,0,0,1,.218-.045.453.453,0,0,0,.235-.1c.065-.064.051-.165.105-.224.069-.075.176-.008.264-.035.107-.033.043-.085.1-.175s.145-.065.225-.114.063-.106.105-.183.1-.065.145-.128.009-.105.031-.164c.033-.089.158-.136.154-.249,0-.1-.1-.09-.113-.172-.008-.04.031-.105.042-.146.025-.092.006-.077-.011-.159a1.483,1.483,0,0,0-.073-.419c-.021-.041-.05-.047-.065-.094a.35.35,0,0,1,0-.129.269.269,0,0,0-.036-.2c-.055-.067-.166-.078-.217-.153-.07-.1-.029-.224-.166-.293a.54.54,0,0,0-.335.019.643.643,0,0,1-.162.011m-3.71,1.948c.021.092.013.178.026.27a.2.2,0,0,0,.135.174c.063.025.138.037.209.071.137.066.027.192.095.3.05.077.212.073.282.152.043.049.035.087.093.118s.165-.018.235.02a.246.246,0,0,1,.1.168c.027.095.014.106.079.142a2.261,2.261,0,0,1,.377.173.313.313,0,0,1,.088.114c.058.125-.02.259.03.373a.629.629,0,0,1,.054.143c.018.077.006.089.093.125a.522.522,0,0,0,.2.026.211.211,0,0,0,.183-.1.2.2,0,0,1,.092-.085c.124-.048.19.046.235-.125a.414.414,0,0,0,.012-.167h0m0,0a.487.487,0,0,0-.028-.212c-.027-.07-.07-.077-.055-.155s.095-.13.094-.227a.33.33,0,0,0-.106-.24.1.1,0,0,1,0-.122.187.187,0,0,0,.039-.166c-.01-.063,0-.151-.02-.216-.01-.043-.041-.068-.053-.1a.553.553,0,0,1-.01-.082,1.95,1.95,0,0,1-.021-.219.5.5,0,0,0-.084-.32c-.09-.093-.086-.024-.06-.139.022-.1.014-.132-.049-.183-.014-.012-.032-.024-.053-.038a1.146,1.146,0,0,0-.183-.1.2.2,0,0,1-.12-.163.2.2,0,0,0-.053-.115.187.187,0,0,0-.145-.076.146.146,0,0,1-.111-.083c-.023-.042-.147-.061-.182-.074-.088-.033-.143-.11-.228-.143a.542.542,0,0,0-.253-.007c-.087.032-.1.141-.165.184-.059-.075-.205-.027-.265.016l0,0m2.119,2.977a.063.063,0,0,1-.031.052c-.111.044-.151-.177-.193-.235-.031-.043-.089-.056-.121-.1-.051-.067-.01-.07-.02-.14-.018-.125-.135-.244-.19-.353a.576.576,0,0,0-.218-.287.361.361,0,0,1-.2-.378c0-.078.015-.12-.035-.183a2.006,2.006,0,0,0-.192-.175c-.089-.083-.236-.112-.318-.207-.055-.063-.022-.165-.074-.217s-.182-.029-.248-.056m-2.669-3.385a.334.334,0,0,1,.064.175h0c0,.008,0,.015,0,.023,0,.077-.027.134.015.2s.134.085.15.186-.037.125.057.181c.076.044.118,0,.148.094.009.028-.018.069,0,.1s.077.068.117.087c.083.039.113.013.2.02.262.022.447.334.618.038l.01-.017c.055.01.218.074.268.052.117-.052-.029-.159-.057-.222-.014-.032-.061-.172-.03-.205s.142-.006.184-.032c.076-.045.092-.109.19-.109s.1.058.183.1c.108.056.244-.022.366-.02m1.668,2.625.007-.013c.042-.1-.047-.169-.08-.266.154,0,.085-.1.1-.2a.269.269,0,0,1,.048-.089.1.1,0,0,0,.013-.037c.01-.073-.034-.068-.049-.12-.038-.135.075-.118.112-.23a.373.373,0,0,0-.062-.263c-.082-.132-.174-.124-.1-.27a.231.231,0,0,0-.062-.292c-.03-.033-.076-.061-.1-.094-.043-.054-.027-.043-.038-.1-.014-.073-.016-.159-.09-.188a.138.138,0,0,0-.046-.009c0-.066.027-.124,0-.19a.285.285,0,0,0-.285-.158.416.416,0,0,0-.311.175c-.049.06-.077.115-.16.131-.035-.043-.111-.222-.154-.241-.079-.035-.14.092-.217,0l0-.005a.229.229,0,0,1-.033-.064c-.016-.045-.026-.081-.118-.1a.239.239,0,0,0-.038,0m-1.972-.693a.564.564,0,0,0-.265-.065c-.128,0-.142.033-.238.1l0,0c-.048.035-.043.054-.12.019-.051-.023-.077-.071-.131-.081-.116-.02-.116.094-.194.113-.095.024-.149-.084-.223-.1a.384.384,0,0,0-.122.01l-.009.006c-.037.029-.027.083-.061.107-.051.036-.151-.011-.227.019-.1.039-.157.114-.125.207a.225.225,0,0,0,.015.033c.081.145.186.1.084.29-.073.133-.061.146.031.256s.043.135.02.274a.164.164,0,0,0,.017.142c.035.046.094.028.124.057.069.07-.022.183.036.257.075.1.228,0,.319.111.047.055.044.13.095.185a.372.372,0,0,0,.306.088c.084-.01.126-.05.208,0s.086.161.15.229.148.043.232.053c.117.014.086.015.094.111a.291.291,0,0,0,.141.23h0m-1.873-2.312c-.076,0-.16-.018-.228.061-.042.048-.038.113-.079.165-.074.093-.133.042-.23.054s-.127.066-.194.123c-.033.028-.021.051-.063.06s-.1-.034-.126-.04a.284.284,0,0,0-.318.126,1.456,1.456,0,0,0-.145.225,1.374,1.374,0,0,1-.067.162c-.039.05-.127.069-.158.134s0,.134,0,.2c.008.145-.084.1-.14.214-.04.083-.006.185-.018.272a.778.778,0,0,0-.027.131.13.13,0,0,0,0,.023.225.225,0,0,0,.187.163c.2.024.4-.139.608-.082.119.033.175.088.3.082.186-.01.2.043.3.174a.242.242,0,0,0,.153.082.783.783,0,0,0,.184,0c.074-.005.162-.045.229,0,.015.01-.022.054.008.072s.032-.014.049-.01c.106.027.27-.045.359.042s.026.182.155.238c.19.082.472-.278.658-.133.066.051.056.1.147.093a.271.271,0,0,0,.152-.1,1.14,1.14,0,0,0,.182-.21l.006-.01m-3.01,1.073c.014.1.051.207.063.3.017.14.047.126.125.228s.014.084,0,.2c-.036.236.192.408.336.551-.056.113.058.3.149.367a1.246,1.246,0,0,0,.548.125.467.467,0,0,1,.173.046c.074.04.069.091.117.139.074.073.142,0,.255-.017.091-.016.187-.031.279-.044s.091.007.158.026a.241.241,0,0,0,.22-.013c.077-.043.12-.12.217-.126.077,0,.128.035.206.022a.35.35,0,0,0,.206-.124c.058-.071.071-.176.167-.194s.11.042.179-.07c.052-.084.059-.133.151-.182a.4.4,0,0,1,.306-.049c.046.024.009.066.082.072.045,0,.062-.014.095-.041.074-.062.044-.16.111-.238s.129-.07.164-.169a1.548,1.548,0,0,0,.022-.19.148.148,0,0,1,.053-.081m-3.5-1.6a1.419,1.419,0,0,1-.032.44c-.02.064-.05.127-.076.19a.555.555,0,0,0-.052.217c0,.1.049.11.089.195a.559.559,0,0,1,0,.285.672.672,0,0,0-.021.243c.026.1.108.093.124.2s-.018.144.069.218a.24.24,0,0,0,.3.011c-.007-.013-.011-.031-.017-.041a.509.509,0,0,1,.247.184c.047.062.051.154.134.184.064.023.132-.023.2,0a.437.437,0,0,1,.09.049.275.275,0,0,0,.249.036c.065-.025.187.048.243.06.116.024.112-.03.161-.124.065-.123.121-.051.209-.118s.049-.27.088-.364a.224.224,0,0,1,.2-.146c.1-.013.2.056.3.031.119-.031.094-.171.182-.237s.135,0,.219-.01.124-.085.172-.162a.329.329,0,0,1,.263-.188h.037c.06,0,.07.027.128,0a.13.13,0,0,0,.04-.028c.048-.049.053-.128.1-.177.1-.105.316.04.429-.092.025-.03.026-.065.045-.1a.1.1,0,0,1,.02-.023c.037-.032.1-.031.14-.068a.546.546,0,0,0,.151-.24c.029-.179-.121-.168-.219-.243-.041-.031-.05-.108-.089-.131a.074.074,0,0,0-.02-.008.777.777,0,0,0-.23.008l-.036.006a.419.419,0,0,1-.242,0c-.077-.023-.15-.068-.229-.084l-.039-.005a2.445,2.445,0,0,0-.357.061,2.382,2.382,0,0,1-.3,0c-.178-.009-.355-.035-.532-.046h-.024m-1.46-2.646a1.123,1.123,0,0,0-.49-.109.4.4,0,0,0-.119.051c-.038.026-.049.069-.072.087-.046.038-.075.037-.154.037a3.547,3.547,0,0,0-.443-.034.234.234,0,0,0-.188.106c-.064.087-.009.088-.131.085s-.251-.026-.3.123c-.017.058,0,.139-.045.182s-.156.023-.207.032c-.13.024-.179.068-.195.2-.019.157-.036.119-.175.152-.085.02-.174.038-.257.059-.123.031-.093.1-.163.194-.129.167-.435.028-.533.223-.049.1.079.149.065.25-.017.125-.174.13-.194.242s.077.16.042.263a.4.4,0,0,0-.051.214.894.894,0,0,0,.079.262,1.111,1.111,0,0,0,.233.325m1.149,1.17a.642.642,0,0,1,.077.056c.057.047.113.1.169.147s.129.114.2.169a.56.56,0,0,1,.184.2,1.321,1.321,0,0,0,.383.772.274.274,0,0,1,.075.183c0,.087.166.134.231.19.049.043.069.119.138.131.044.008.116-.029.165-.031.232-.006.119.131.211.263.055.079.149.065.212.123a.214.214,0,0,1,.06.119l.007.021c.05.138.125.134.239.125l.044,0a.333.333,0,0,1,.306.093c.076.076.226.182.29.093.047-.065.02-.139.1-.2a.154.154,0,0,1,.189-.022c.093.038.224.172.339.131s.158-.345.316-.329c.046,0,.084.077.13.093a.177.177,0,0,0,.157-.021,3,3,0,0,0,.334-.167c.042-.027.092-.118.149-.1.027.01.042.105.081.129.136.084.176-.1.247-.176.141-.152.147.013.285.057a.289.289,0,0,0,.306-.113c.045-.089.043-.337.167-.329l.023,0,.015.006c.042.021.044.071.113.062h0c.06-.01.082-.068.115-.108.018-.023.034-.049.052-.074a.207.207,0,0,1,.055-.055c.085-.054.042-.005.12,0s.171-.041.164-.148m-6.159.7-.021.023a1.145,1.145,0,0,0-.222.324c-.031.072-.063.235-.133.277-.05.03-.109-.013-.152,0-.074.03-.081.135-.125.19-.055-.013-.1.03-.154.023s-.109-.074-.168-.1c-.16-.069-.21.059-.342.106-.017-.1-.1-.129-.19-.13-.117,0-.158.086-.258.112-.195.052-.307-.308-.27-.455.009-.038.061-.09.053-.13s-.1-.086-.114-.135a.62.62,0,0,1-.009-.3c.033-.122.034-.1-.015-.215-.058-.136.059-.152.068-.263,0-.065-.06-.138-.036-.207.019-.054.119-.078.119-.133s-.159-.156-.183-.217c-.039-.1-.06-.252.04-.321a.675.675,0,0,1-.139-.377c0-.112.04-.044.085-.118s-.113-.331-.1-.467a1.553,1.553,0,0,1,.08-.4c.016-.039.039-.049.044-.1s-.042-.094-.03-.145c.028-.12.208-.172.3-.234.059-.042.174-.058.206-.109" transform="translate(-88.608 -1882.647)" fill="none" stroke="#b3b0a7" stroke-linecap="round" stroke-linejoin="round" stroke-width="0.3"/></g></g></g></svg>