<svg xmlns="http://www.w3.org/2000/svg" xmlns:xlink="http://www.w3.org/1999/xlink" width="285" height="78" viewBox="0 0 285 78"><defs><clipPath id="a"><rect width="285" height="78" transform="translate(13 9)" fill="#fff" stroke="#707070" stroke-width="1"/></clipPath></defs><g transform="translate(-13 -9)" clip-path="url(#a)"><g transform="translate(-305 -3416.626)"><path d="M537.246,3451.743h-.319m-.425.427v.288m-.426-.714h-.327m.752-.765v.339m-.426.426a.426.426,0,1,0,.426-.426.426.426,0,0,0-.426.426Zm3.172-5.827h.318m-.745.427v.288m-.426-.714h-.326m.752-.764v.339m-.426.426a.426.426,0,1,0,.426-.426.426.426,0,0,0-.426.426Zm-18.723,5.827h-.318m.745.427v.288m.426-.714h.326m-.752-.765v.339m0,0a.426.426,0,1,0,.426.426.427.427,0,0,0-.426-.426Zm-2.746-5.4h-.319m.745.427v.288m.426-.714h.327m-.752-.764v.339m0,0a.426.426,0,1,0,.426.426.426.426,0,0,0-.426-.426Zm23.591,23.949-1.5-.591m-24.706.031,1.466-.8m27.353-6.186a.864.864,0,0,0-.485-.219.8.8,0,0,0-.459.068m.805.854a.808.808,0,0,0-.409-.136,1.551,1.551,0,0,0-.419.018m-25.739,15.053a2.5,2.5,0,0,0-1.437-.53m11.308-11.8a5.178,5.178,0,0,0-1.848.79m1.417,10.64a5.8,5.8,0,0,0-1.851-1.672m6.032.538c-.418.119-1.493,1.374-1.493,1.374m3.864-2.079a15.387,15.387,0,0,0-3.184,2.537m7.825-8.575-3.576-1.33a2.779,2.779,0,0,0,1.452,1.356l.99.4m-16.127-.64.991-.4a2.8,2.8,0,0,0,1.452-1.356l-3.576,1.33m9.676-4.1a.414.414,0,1,0,.414.414.414.414,0,0,0-.414-.414Zm-2.863,6.455h0c-.186.258-.408.5-.575.7a9.591,9.591,0,0,1,2.283.666,4.262,4.262,0,0,0,.637.23c.037-.007.224-.087.486-.195a7.889,7.889,0,0,1,2-.615c-.1-.141-.2-.283-.307-.427m-10.176-14.172s-.278,1.948-.389,3.782m17.238.167a9.13,9.13,0,0,0-1.055-3.892m-17.206,39.051c.507.08,1.181.067,1.469-.461h0m5.385-31.272a12.576,12.576,0,0,0-4.04.808m14.092.83a10.479,10.479,0,0,0-4.244-1.441m-4.468-23.4a2.12,2.12,0,0,0,1.212-.007m.576-1.791a1.847,1.847,0,0,0-2.267.18m.273,48.5a1.259,1.259,0,0,0,1.355-.031m1.322-1.628a2.434,2.434,0,0,0,2.367.391m-8.983-.38a1.978,1.978,0,0,0,2.367-.153m17.034,10.234a1.041,1.041,0,0,0-.684-.707,5.88,5.88,0,0,0-1.335-.137l-.06-.007m.822-4.275c.1-.239.21-.475.312-.7a4.94,4.94,0,0,0,.489-2.807,2.9,2.9,0,0,0-.243-.762h0m1.451,9.285a.523.523,0,0,0-.752.113.577.577,0,0,0-.155.492.989.989,0,0,0,1.145.652,1.5,1.5,0,0,0,1.073-2.029c-.638-1.351-2.976-1.186-3.5-2.583a1.343,1.343,0,0,1-.046-.145h0m-25.168,2.759-.09.011a5.881,5.881,0,0,0-1.335.137,1.041,1.041,0,0,0-.684.707m1.441-3.476h0l0,.007c-.524,1.4-2.864,1.233-3.5,2.583a1.5,1.5,0,0,0,1.073,2.029.989.989,0,0,0,1.145-.652.577.577,0,0,0-.155-.492.523.523,0,0,0-.752-.113m1.33-9a2.862,2.862,0,0,0-.123.473,4.94,4.94,0,0,0,.489,2.807c.093.21.195.425.288.643h0m27.266-30.7h0a3.739,3.739,0,0,1-.46-2.3,11.282,11.282,0,0,1,1.222-3.418,18.961,18.961,0,0,0,1.9-6.355,10.855,10.855,0,0,0-.1-2.657h0a11.3,11.3,0,0,0,.146-4.789,7.74,7.74,0,0,0-2.914-4.745A16.278,16.278,0,0,0,538,3434.12a8.273,8.273,0,0,1-3.912-2.408,3.668,3.668,0,0,1-.592-3.535.177.177,0,0,0-.285-.2,4.938,4.938,0,0,0-1.079,5,10.226,10.226,0,0,0,4.01,4.8,6.61,6.61,0,0,1,1.649,1.514h0l-.083.014a17.949,17.949,0,0,1-3.3.721,3.535,3.535,0,0,1-.854-.124h0l-.128-.086a4.252,4.252,0,0,0-1.815-.9l-.048,0a1.763,1.763,0,0,0-1.636,2.708,1.651,1.651,0,0,0,.175.234,1.813,1.813,0,0,0,1.929.473,1.284,1.284,0,0,0,.833-.871.883.883,0,0,0-.033-.483m-9.484,0a.883.883,0,0,0-.034.483,1.284,1.284,0,0,0,.834.871,1.812,1.812,0,0,0,1.929-.473,1.656,1.656,0,0,0,.175-.234h0a1.762,1.762,0,0,0-1.543-2.711l-.093,0a4.113,4.113,0,0,0-1.862.909l0,0a1.1,1.1,0,0,1-.466.178,3.591,3.591,0,0,1-.39.031,17.9,17.9,0,0,1-3.3-.721c-.04-.007-.079-.013-.118-.019h0a6.623,6.623,0,0,1,1.646-1.509,10.236,10.236,0,0,0,4.01-4.8,4.939,4.939,0,0,0-1.081-5,.178.178,0,0,0-.283.2,3.668,3.668,0,0,1-.595,3.529,8.267,8.267,0,0,1-3.911,2.408,16.278,16.278,0,0,0-4.251,1.855,7.735,7.735,0,0,0-2.913,4.745,11.335,11.335,0,0,0,.168,4.884,10.863,10.863,0,0,0-.083,2.563,18.979,18.979,0,0,0,1.9,6.355,11.26,11.26,0,0,1,1.223,3.418,4.075,4.075,0,0,1,0,.871m11.934-17.191h0a4.067,4.067,0,0,0,3.675,0m11.482,17.978a4.718,4.718,0,0,1-.467-3.567,20.743,20.743,0,0,1,1.415-3.652,11.7,11.7,0,0,0,1.076-7.251c-.58-2.419-2.72-4.593-5.207-4.514-1.809.057-3.7,1.222-5.315.4l-.079-.042c-.264-.146-.5-.331-.773-.465a1.188,1.188,0,0,0-.956-.107.613.613,0,0,0-.356.8c.158.29.7.244.743-.084m-6.8,0c.037.328.585.374.743.084a.615.615,0,0,0-.357-.8,1.187,1.187,0,0,0-.956.107c-.269.135-.51.319-.772.465l-.08.042c-1.615.821-3.506-.345-5.315-.4-2.486-.078-4.627,2.1-5.207,4.514a11.7,11.7,0,0,0,1.076,7.251,20.663,20.663,0,0,1,1.414,3.652,4.692,4.692,0,0,1-.488,3.6m2.118-20.319a6.539,6.539,0,0,0-4.077,2.531,7.266,7.266,0,0,0-.558.867m31.942.184a7.469,7.469,0,0,0-.656-1.052,6.471,6.471,0,0,0-4.507-2.585m-7.4-.341c-.524-.37-1.03-.787-1.532-1.168l-.017-.013a3.165,3.165,0,0,0-3.817,0l-.018.013c-.5.378-1,.79-1.518,1.158M542.995,3461a8.712,8.712,0,0,0-4.986,2.216m8.114,5.787a.8.8,0,0,0-1.2-.306,1.237,1.237,0,0,0-.346,1.325,1.582,1.582,0,0,0,.405.68,1.614,1.614,0,0,0,2.41-.185,1.705,1.705,0,0,0,.223-.386,3.246,3.246,0,0,0-.075-2.644,2.53,2.53,0,0,0-3.383-.947,4.069,4.069,0,0,0-1.883,3.368c-.165,1.771.435,3.582.117,5.322a10.594,10.594,0,0,1-.642,1.961m1.247,2.05h0a5.825,5.825,0,0,1,.184-.68c.448-1.32,1.432-2.434,1.433-3.861a10.6,10.6,0,0,0-.375-2.048,2.5,2.5,0,0,1,.276-1.986,1.131,1.131,0,0,1,.25-.23m2.627.083.026,0,.094,0c1.331-.006,2.455-1.494,2.605-3.095a5.886,5.886,0,0,0-1.481-4.3,10.237,10.237,0,0,0-2.034-1.849h0m-29.19,12.526h0c-.172.127-.34.258-.5.385a7.752,7.752,0,0,0-.988.917,13.58,13.58,0,0,0-1.415,1.932,8.444,8.444,0,0,0-1.083,2.833h0c-.02.108-.037.218-.052.329a8.189,8.189,0,0,0,.385,4.421c.122.363.461,1.4.778,2.4.294.931.569,1.831.631,2.132a14.078,14.078,0,0,1,.023,1.79h0a2.111,2.111,0,0,0,.107.7,2.678,2.678,0,0,1,.1,1.014h0c-.02.5-.089,1-.074,1.229a4.546,4.546,0,0,0,.743,1.391c.133.192.247.347.3.419a.751.751,0,0,0,.237.185,2.66,2.66,0,0,0,2.015.077l.648-.2c.612-.187,1.112-.342,1.469-.461h0a5.257,5.257,0,0,0,.5-.187l.038-.018c.288-.145-.366-2.969-.392-3.523a19.557,19.557,0,0,0-.235-2.607c-.071-.315-.125-1.313-.178-2.39-.037-.738-.072-1.512-.112-2.128h0c-.031-.482-.065-.865-.1-1.057-.157-.8-.313-1.979-.313-1.979s2.463-.944,3.624-1.3c.856-.264,2.84-1.129,3.824-1.565a1.554,1.554,0,0,1,1.171-.033c.812.305,2.278.858,3.275,1.24,1.443.553,2.639.976,3.238,1.237a5.63,5.63,0,0,1,.74.357,17.288,17.288,0,0,0-.071,3.221c.014.061.026.128.038.2a12.432,12.432,0,0,1,.118,1.7,5.685,5.685,0,0,1-.085,1.254,16.073,16.073,0,0,0-.775,2.83,18.387,18.387,0,0,0,.457,1.822,8.857,8.857,0,0,0-.141,2.114,4.367,4.367,0,0,0,1.292.451l.155.041c1.1.288,2.529.6,3.158.74l.209.046.113.024.353-.506.738-1.056s-.105-1.268-.14-1.593a.682.682,0,0,1,0-.113h0c.015-.294.137-.911.226-1.512a7.381,7.381,0,0,0,.092-.977,15.308,15.308,0,0,1,.352-2.635c.026-.149.066-.376.114-.66h0c.124-.729.3-1.824.457-2.878v0h0a6.747,6.747,0,0,0,.19-.967c.1-.807.1-1.637.169-2.448h0c.122-.42.4-.385.265-.883a3.274,3.274,0,0,0-.1-.314h0a8.8,8.8,0,0,0-.776-1.474c-.047-.074-.216-.282-.471-.575-.509-.587-1.359-1.517-2.255-2.4-.229-.225-.46-.448-.689-.66m-19.023-11.469a9.354,9.354,0,0,0-4.35-1.659m-.926,16.034a9.631,9.631,0,0,1-.58-1.806c-.318-1.74.283-3.551.117-5.322a4.067,4.067,0,0,0-1.883-3.368,2.529,2.529,0,0,0-3.382.947,3.219,3.219,0,0,0-.154,2.431,1.727,1.727,0,0,0,.338.6,1.645,1.645,0,0,0,2.464.056,1.314,1.314,0,0,0,.116-.145,1.336,1.336,0,0,0,.2-.4,1.237,1.237,0,0,0-.346-1.325.8.8,0,0,0-1.2.306m14.462,18.833a5.057,5.057,0,0,0,6.921-.012h0M529,3485.052h0a1.372,1.372,0,0,0-.39,1.064,1.9,1.9,0,0,0,1.164,1.473,3.722,3.722,0,0,0,1.8.238h0l.13-.011a8.092,8.092,0,0,0,2.317-.574,16.231,16.231,0,0,1,1.878-.774m-15.43.108c.523.186,1.02.453,1.535.666a8.092,8.092,0,0,0,2.317.574c.11.01.22.019.33.023a3.548,3.548,0,0,0,1.6-.249,1.9,1.9,0,0,0,1.164-1.473,1.37,1.37,0,0,0-.377-1.051m-17.178-23.88h0a9.78,9.78,0,0,0-2.182,1.94,5.886,5.886,0,0,0-1.482,4.3c.151,1.6,1.274,3.089,2.605,3.095l.094,0,.062,0m2.58-.089.008.005a1.181,1.181,0,0,1,.254.233,2.5,2.5,0,0,1,.276,1.986,10.662,10.662,0,0,0-.375,2.048c0,1.427.985,2.541,1.433,3.861a6.75,6.75,0,0,1,.288,1.309h0m12.342.484s3.085,0,4.219-.031m-.986,4.728c2.429-.03,5.716-.123,6.783-.285m-15.423-.319h0a28.639,28.639,0,0,0,5.28.61c.36.005.843.008,1.4.008.586,0,1.255-.005,1.957-.013m5.2-27.489.013-.365-1.5.256m12.409,7,.054-2.772m.86.823a1.226,1.226,0,0,1,.417.672c.055.419.146,1.35.511,1.35s.346-.437.218-1.186a12.921,12.921,0,0,0-.565-2.005l-.02-.061m0,0a2.2,2.2,0,0,0-1.09-1.4,2.67,2.67,0,0,0-1.787.037,1.343,1.343,0,0,0-.472.59c-.089.172-.171.351-.253.5a1.581,1.581,0,0,1-.1.153,6.957,6.957,0,0,0-.8,1.2c-.219.474-.237.857-.638,1.2s-.584,1.039.2.929c.595-.082,1.085-.932,1.359-1.385m.1-1.823a1.893,1.893,0,0,0-.081.455c-.019.225-.022.484-.022.736,0,.228,0,.45,0,.632,0,.106,0,.2-.009.274-.037.455-.128,1.149.273,1.2s.492-.492.492-1a9.28,9.28,0,0,1,.068-.988,3.247,3.247,0,0,1,.139-.7.193.193,0,0,1,.049-.078c.146-.109.31.11.291.493s-.109,1.458-.109,1.842.037.947.437.947.437-.328.474-.637c0,0,0,.619.419.71s.382-.473.419-.929c.025-.3.056-1.166.076-1.73.009-.3.016-.512.016-.512m-33.249-.738a1.535,1.535,0,0,0-1.06-.212m1.293-.389c-.3-.389-.989-.3-.989-.3m0,0a2.279,2.279,0,0,0-.3.693,4.589,4.589,0,0,0-.121.561,5.548,5.548,0,0,0-.054.749v0c0,.659.1,1.266.277,1.333.239.092.663-.129.663-.683a8.039,8.039,0,0,1,.3-1.75,2.544,2.544,0,0,1,.232-.6l.006-.009c.163-.245.231-.033.258.254.016.167.019.359.019.5,0,.387-.46,1.677-.2,1.99s.775.038.848-.441c.041-.26.118-.825.182-1.327.053-.425.094-.805.094-.923m-2.987-.312s-.089.134-.2.346a4.357,4.357,0,0,0-.3.722h0a2.621,2.621,0,0,0-.1.443c-.092.756-.111,1.622.185,1.659s.516-.184.59-.59c.026-.14.075-.372.129-.614m-1.707-1.17-.008.014c-.185.331-.775,1.382-.517,1.622s.572.018.738-.2c.149-.2.507-.934.685-1.162m3.387.167a2.807,2.807,0,0,1,.684.367c.277.239.609.811,1.106,1.069a.518.518,0,0,0,.811-.424c0-.295-.7-.516-.977-.977-.128-.213-.236-.441-.342-.657a3.333,3.333,0,0,0-.395-.67,2.04,2.04,0,0,1-.275-.673l-.009-.029a1.663,1.663,0,0,0-.417-.809l-.014-.011a2.147,2.147,0,0,0-1.572-.4,3.178,3.178,0,0,0-1.77,1.2c-.4.526-.924,1.232-1.117,1.571m27.426,39.328a4,4,0,0,0,.344,1.138,2.667,2.667,0,0,0,1.389.881,7.2,7.2,0,0,0,1.775.14,2.688,2.688,0,0,0,1.573-.6,1.439,1.439,0,0,0,.044-1.309h0m-5.226-.483-.241.091m-.7-1.376v.773l.7.6-.021-.684m-.277-4.744c0,.058,0,.112,0,.159,0,.1,0,.17,0,.207a2.466,2.466,0,0,0,1.7.59,9.505,9.505,0,0,1,1.472-.015.147.147,0,0,0,.135-.161m-3.312-.621a1.942,1.942,0,0,0-.243.248,4.3,4.3,0,0,0-.4,2.469,3.142,3.142,0,0,0,.235,1.177.926.926,0,0,0,.2.292c.163.151.353.275.481.4a.622.622,0,0,1,.1.127c.025.042.065.223.157.466.028.074.062.153.1.237a2.811,2.811,0,0,0,3.256,1.524c1.389-.175,1.825-.7,1.868-1.278h0a3.983,3.983,0,0,0-.563-1.723c-.174-.481-1.472-2.125-1.682-3.271m-20.1,5h-.634m-6.283.235a2.09,2.09,0,0,0-.012,1.181c.087.209.522.451,1.689.532a4.278,4.278,0,0,0,2.681-.435c.7-.434,1.55-1.094,1.55-1.094l.375-.419.634-.707v.707a5.52,5.52,0,0,0,1.323-.659,1.28,1.28,0,0,0,.453-.74,6.681,6.681,0,0,0-.074-.9h0m-5.165-2.579a10.787,10.787,0,0,1-1.917,2.319,4.015,4.015,0,0,0-1.549,2.7c0,.031.007.061.012.089.109.661.7.945,1.9,1.038a4.163,4.163,0,0,0,2.838-.612c.871-.531,1.776-1.433,2.455-1.754s1.131-.386,1.358-.934a1.259,1.259,0,0,0,.065-.271h0c.128-.837.037-2.89-.532-3.349m-4.284-.3-.745-11.172m24.9,2.729-.826,9.42m-3.876-13.8.776-.718m-1.369.076,1.529-1.239m-17.978-1.406.719,1.717m-.142.994L518.7,3480.2m10.145-18.269a15.209,15.209,0,0,0-.517,2.9,9.725,9.725,0,0,0,.308,3.287h0a4.153,4.153,0,0,0,.864,1.537,9.223,9.223,0,0,0,1.347,1.179,31.743,31.743,0,0,0,3.65,2.2,20.915,20.915,0,0,0,4.3,1.111c.454.082.75.13.75.13m-22.146-.458-.3.05m.3-.051.653-.106.368-.059a7.352,7.352,0,0,0,1.366-.351,35.934,35.934,0,0,0,6.422-2.76l.112-.064m0,0a8.738,8.738,0,0,0,2.312-2.352m10.852,6.682c1.569-3.832-1.914-8.424-1.914-8.914a16.275,16.275,0,0,1,.432-2.661c.013-.055.026-.109.039-.161m-21.141,11.133a11.557,11.557,0,0,1,.619-4.18c.619-1.966,2.757-4.853,2.791-5.291a10.168,10.168,0,0,0-.537-2.055c-.06-.18-.1-.3-.1-.3m22.774-2.12a7.619,7.619,0,0,0,.8.26m-.8-.261c-.036-.014-.071-.029-.105-.044a5.917,5.917,0,0,1-.935-.6c-.343-.255-.689-.536-.935-.747-.5-.427-1.538-1.4-1.916-1.656s-1.184-1.183-1.7-1.514-.663-.19-.663-.19a13.184,13.184,0,0,0-1.666-.586c-.512-.122-1.838-.583-2.454-.8m-6.851.238h0c-1.085.261-3.884.948-4.244,1.154a1.7,1.7,0,0,0-.928.336c-.449.335-1.232,1.183-1.424,1.344s-1.1.623-1.408.831-.464.656-.832.9a17.682,17.682,0,0,1-1.627.755m11.224-5.372c0,.054-.009.139-.015.25a11.237,11.237,0,0,0,.277,3.387,8.7,8.7,0,0,0,1.117,2.047c.716,1.042,1.487,1.954,1.487,1.954s.64-1.172,1.118-2.259a7.791,7.791,0,0,0,.469-1.294c.169-.76.6-2.332.84-3.372.046-.192.084-.367.114-.514a2.477,2.477,0,0,0,.063-.44m-1.744,7.244s.185-.144.458-.391c.22-.2.5-.467.781-.782a25.959,25.959,0,0,0,1.766-2.665c.44-.723.779-1.3.779-1.3l-1.094-.9.5-.288a4.944,4.944,0,0,0-.518-.576c-.073-.069-.18-.169-.306-.278a3.766,3.766,0,0,0-.484-.359m-5.764.183c-.142.087-.294.185-.427.283l-.176.131m0,0c-.326.244-.625.481-.625.481l.443.365-1.211.941a20.865,20.865,0,0,0,1.745,3.569,9.472,9.472,0,0,0,1.527,1.41c.389.3.684.5.684.5m2.183-1.94-.538-3.319m-1.221-.048-.845,3.672m.385-4.32.377.562a.334.334,0,0,0,.3.147,4.029,4.029,0,0,1,.463,0c.09.006.2.016.3.029a.452.452,0,0,0,.246-.038.467.467,0,0,0,.2-.176c.072-.117.139-.235.212-.353m-.152-.255.152.255.537.9.9-1.718m-5.307-.463c.184.51.983,2.249.983,2.249l.8-1.135.031-.046m3.982-8.6a4.081,4.081,0,0,0-3.267-1.523,3.437,3.437,0,0,0-3.084,1.546m-.8,3.433c-.237-.163-.292-.592-.312-.878-.021-.312.28-.571.183-.7a2.069,2.069,0,0,1,.076-1.282c.184-.334.873-1.014.852-.572a1.753,1.753,0,0,0,.279.876.308.308,0,0,1,.044.154l.015.769a.394.394,0,0,1-.066.226l-.228.342a.4.4,0,0,0-.065.2l-.062,1.668-.205-.655a.321.321,0,0,0-.508-.153l0,0a.54.54,0,0,0-.173.34,3.246,3.246,0,0,0,.754,1.876.429.429,0,0,0,.3.06,5.766,5.766,0,0,0,.335,1.194c.026.063.1.226.157.359.033.073.063.137.078.168a3.541,3.541,0,0,0,1.641,1.13c.025.007.05.015.076.021a3.624,3.624,0,0,0,.833.1,3.427,3.427,0,0,0,1.075-.144l.018-.006a2.693,2.693,0,0,0,1.242-.841c.115-.137.244-.3.353-.45.042-.056.08-.113.114-.166l.033-.058a2.712,2.712,0,0,0,.143-.3,2.291,2.291,0,0,0,.129-.446c.054-.294.091-.544.119-.753h0c.748.134,1.039-1.51.965-1.84a.747.747,0,0,0-.192-.357.317.317,0,0,0-.529.132l-.239.781-.062-1.687a.335.335,0,0,0-.055-.169l-.249-.374a.328.328,0,0,1-.055-.188l.015-.789a.316.316,0,0,1,.044-.154,1.745,1.745,0,0,0,.28-.876V3447c0-.4.672.264.853.594a2.073,2.073,0,0,1,.075,1.282c-.1.13.205.388.183.7a1.279,1.279,0,0,1-.26.77m-2.75,4.256a1.177,1.177,0,0,1-.577.289,2.31,2.31,0,0,1-.545.061,2.667,2.667,0,0,1-.473-.043,2.741,2.741,0,0,1-.924-.343" transform="translate(-10.022 -0.022)" fill="none" stroke="#b3b0a7" stroke-linecap="round" stroke-linejoin="round" stroke-width="0.5"/><path d="M532.148,3455.578a.46.46,0,0,0,.735,0" transform="translate(-13.889 -4.138)" fill="none" stroke="#b3b0a7" stroke-linecap="round" stroke-linejoin="round" stroke-width="0.2"/><path d="M531.194,3453.695a.4.4,0,0,1-.561.217.529.529,0,0,1-.376-.562l.937.345Z" transform="translate(-13.606 -3.807)" fill="#b3b0a7"/><path d="M533.676,3453.695a.4.4,0,0,0,.561.217.529.529,0,0,0,.376-.562l-.937.345Z" transform="translate(-14.117 -3.807)" fill="#b3b0a7"/><path d="M531.135,3452.247a.8.8,0,0,0-.8.132m2.907-.133a.806.806,0,0,1,.415-.043.8.8,0,0,1,.383.176" transform="translate(-13.619 -3.634)" fill="none" stroke="#b3b0a7" stroke-linecap="round" stroke-linejoin="round" stroke-width="0.5"/><path d="M534.281,3455.749a.163.163,0,0,1,.18.083.237.237,0,0,1,.031.188" transform="translate(-14.207 -4.001)" fill="none" stroke="#b3b0a7" stroke-linecap="round" stroke-linejoin="round" stroke-width="0.2"/><line x1="0.344" y2="0.358" transform="translate(517.297 3450.286)" fill="none" stroke="#b3b0a7" stroke-linecap="round" stroke-linejoin="round" stroke-width="0.2"/><path d="M531.561,3457.309a1.353,1.353,0,0,0,.807.026,1.3,1.3,0,0,0,.649-.333m-.714-.6a.433.433,0,0,1-.3.415c-.185.049-.257-.108-.488-.1-.188.005-.326.172-.492.261a.634.634,0,0,1-.647-.042.373.373,0,0,1-.18-.242.276.276,0,0,1,.074-.238.268.268,0,0,1,.28-.049s-.1.065-.083.121a.171.171,0,0,0,.124.109.45.45,0,0,0,.395-.106,2.626,2.626,0,0,0,.288-.313.685.685,0,0,1,.347-.232.56.56,0,0,1,.42.045.48.48,0,0,1,.26.376Zm2.124.288a.375.375,0,0,1-.181.242.634.634,0,0,1-.647.042c-.167-.089-.3-.256-.493-.261-.231,0-.3.153-.488.1a.434.434,0,0,1-.3-.415.478.478,0,0,1,.26-.376.559.559,0,0,1,.42-.045.683.683,0,0,1,.346.232,2.7,2.7,0,0,0,.288.313.451.451,0,0,0,.395.106.171.171,0,0,0,.125-.109c.016-.055-.084-.121-.084-.121a.268.268,0,0,1,.28.049.278.278,0,0,1,.075.238Z" transform="translate(-13.598 -3.832)" fill="none" stroke="#b3b0a7" stroke-linecap="round" stroke-linejoin="round" stroke-width="0.2"/><path d="M2.057.153,1.495,1.294.236,1.478a.276.276,0,0,0-.152.47l.911.887L.779,4.089a.276.276,0,0,0,.4.29L2.3,3.787l1.126.592a.276.276,0,0,0,.4-.29L3.615,2.835l.911-.887a.276.276,0,0,0-.152-.47L3.114,1.294,2.552.153a.276.276,0,0,0-.495,0Z" transform="translate(536.671 3449.728) rotate(-60)" fill="none" stroke="#b3b0a7" stroke-width="0.5"/><path d="M2.057.153,1.495,1.294.236,1.478a.276.276,0,0,0-.152.47l.911.887L.779,4.089a.276.276,0,0,0,.4.29L2.3,3.787l1.126.592a.276.276,0,0,0,.4-.29L3.615,2.835l.911-.887a.276.276,0,0,0-.152-.47L3.114,1.294,2.552.153a.276.276,0,0,0-.495,0Z" transform="translate(495.671 3432.728) rotate(-60)" fill="none" stroke="#b3b0a7" stroke-width="0.5"/><path d="M2.057.153,1.495,1.294.236,1.478a.276.276,0,0,0-.152.47l.911.887L.779,4.089a.276.276,0,0,0,.4.29L2.3,3.787l1.126.592a.276.276,0,0,0,.4-.29L3.615,2.835l.911-.887a.276.276,0,0,0-.152-.47L3.114,1.294,2.552.153a.276.276,0,0,0-.495,0Z" transform="translate(496.671 3488.728) rotate(-60)" fill="none" stroke="#b3b0a7" stroke-width="0.5"/><path d="M2.057.153,1.495,1.294.236,1.478a.276.276,0,0,0-.152.47l.911.887L.779,4.089a.276.276,0,0,0,.4.29L2.3,3.787l1.126.592a.276.276,0,0,0,.4-.29L3.615,2.835l.911-.887a.276.276,0,0,0-.152-.47L3.114,1.294,2.552.153a.276.276,0,0,0-.495,0Z" transform="translate(517.671 3498.728) rotate(-60)" fill="none" stroke="#b3b0a7" stroke-width="0.5"/></g></g></svg>