<svg xmlns="http://www.w3.org/2000/svg" xmlns:xlink="http://www.w3.org/1999/xlink" width="285" height="78" viewBox="0 0 285 78"><defs><clipPath id="a"><rect width="285" height="78" transform="translate(180 207)" fill="#fdfcf8" stroke="#6c655d" stroke-width="1"/></clipPath></defs><g transform="translate(-180 -207)" clip-path="url(#a)"><path d="M134.459,998.213c-.231,1.406-.624,3.446-1.016,3.856m28.858-.376c-.685,1.34-1.675,2.761-2.787,2.761m8.5-23.077a10.555,10.555,0,0,0,1.763-.264c.1-.022.179-.04.219-.05l.014,0,.016,0m-12.477-11.944a7.127,7.127,0,0,0,.424,1.249m.892-.528s.053,2.244.611,2.587m-36.522-4.291a4.945,4.945,0,0,1-.192-1.6l-.435.905m26.114-.412a1.218,1.218,0,0,0,.512.362m-46.594-9.317h.2a.346.346,0,0,0,.345-.374c-.078-.981-.126-2.04-.122-3.17,0-.987.047-1.92.114-2.791a.465.465,0,0,0-.462-.5h-1.192a.463.463,0,0,0-.461.414,28.435,28.435,0,0,0,.012,6.114.346.346,0,0,0,.345.309h1.219ZM121.008,991.2H105.146c.033,1.206.022,2.494-.045,3.948m16.388.071H105.1m19.986,5.034H104.722m20.367.645H104.658m.488-9.7c-.162-5.909-1.4-9.888-2.458-22a105.182,105.182,0,0,1-.335-11.135h-1.14a65.257,65.257,0,0,0,.465,11.135c.911,11.345,2.825,17.161,2.444,25.946-.01.247-.022.5-.038.75-.3,5.271-1.045,10.816-1.045,10.816-.59,4.034-1.206,7.518-1.206,7.518h1.071s1.087-6.656,1.752-13.334c.022-.216.043-.43.064-.645.134-1.409.248-2.81.328-4.141.005-.071.009-.143.012-.214.014-.231.026-.457.036-.68,0-.024,0-.048,0-.071m16.95.75h-16.99m20.012,2.616.01,1.738.005.645.09,13.441.654.019.6-16.875v0m59.83-39.242h.081a.346.346,0,0,0,.345-.309,28.4,28.4,0,0,0,.012-6.114.463.463,0,0,0-.46-.414h-1.192a.465.465,0,0,0-.462.5c.067.871.11,1.8.112,2.791.005,1.13-.043,2.189-.121,3.17a.346.346,0,0,0,.345.374h1.34Zm-3.882,37.152h-18.7m18.7-.071c-.067-1.454-.078-2.742-.045-3.948h-15.51m15.934,9.053H162.389m20.424.645H162.384m19.987-5.75c0,.022,0,.047,0,.071.01.222.022.448.036.679,0,.071.007.143.012.214.08,1.332.193,2.732.328,4.141l.062.645c.667,6.678,1.752,13.334,1.752,13.334h1.073s-.616-3.484-1.206-7.518c0,0-.743-5.545-1.045-10.816-.016-.253-.028-.5-.038-.75-.381-8.786,1.533-14.6,2.444-25.946a65.09,65.09,0,0,0,.464-11.135h-1.138a106.2,106.2,0,0,1-.335,11.135c-1.063,12.111-2.3,16.09-2.458,22m.084,4.7h-19.2m-.805,1.692,0,0-.016,2.661-.005.645-.007,1.064v0m-1.011,4.657.274,7.737.654-.019.059-8.8v0m-11.421-10.879c-.566,3.718-1.264,9.25-.417,9.25a17.076,17.076,0,0,1,3.472,1.2,7.844,7.844,0,0,0,.774.234,2.932,2.932,0,0,0,1.271.072c.053-.012.1-.026.153-.041a1.74,1.74,0,0,1,.361-.079m1.411.221.109.041a21.349,21.349,0,0,0,2.646,1.156,1.292,1.292,0,0,0,.655-.09,1.914,1.914,0,0,0,.987-1.08v0a4.029,4.029,0,0,0,.271-1.694,17.431,17.431,0,0,0-.246-1.878v0c-.124-.731-.281-1.58-.442-2.459v0m9.753-8.517h0c-1.343.088-3.406.169-4.87.216-.749.022-1.342.036-1.6.036a4.883,4.883,0,0,0-1.676.476m2.265-38.425.2.536.4-.619m-4.929,29.63.1-.071m.416,2.282a.867.867,0,0,0,.141-.16,2.183,2.183,0,0,0,.247-.495.007.007,0,0,0,0-.005m1.3-18.071a13.946,13.946,0,0,0,2.237-6.951m5.992.531a32.346,32.346,0,0,0,.512-5.695v0a5.32,5.32,0,0,0,.167-1.1,7.026,7.026,0,0,0-.222-1.63,4.169,4.169,0,0,0-2.132-2.9c-2.122-.975-4.131-1.206-6.138.4-1.72,1.376-1.352,2.006-1.29,2.089a.038.038,0,0,0,.007.01h0s1.626,2.014,2.939,2.214a.5.5,0,0,0,.05.007,1.033,1.033,0,0,0,.6-.083l.012-.005a1.377,1.377,0,0,0,.635-.764s.417-.952,1.168-.645.226,1.266.162,1.33c-.045.043-.543.812-.919,1.282-.172.219-.319.372-.381.36a.249.249,0,0,1-.214-.2m.6-.164h0a3.161,3.161,0,0,0,.7,1.78c.819.693,1.119.291,1.894,1.247a4.37,4.37,0,0,1,.554.885,2.592,2.592,0,0,0,.793,1.571m-58.838-7.2c.172-.162.307-.19.642-.166.3.022.678-1.406.71-1.666.1-.548-.315-2.208.047-2.775a1.248,1.248,0,0,1,.757-.372c.864-.053,1.409,1.2,1.409,1.2l.566,1.612,1.035-1.562a3.919,3.919,0,0,0,3.177-1.173,4.28,4.28,0,0,0,.353-.355c-.952-7.025-8.1-4.326-8.287-4.16-.236.2-.195.293-.195.293-4.862,2.929-.271,9.182-.271,9.182.019-.021.038-.038.055-.055h0v0Zm2.159-4.981,0,0a1.347,1.347,0,0,0-.655,1.123c0,.181.455,1.816,1.09,1.84s.75-.181.75-.181m2.816,4.495a2.8,2.8,0,0,0-.469.735m-5.626-2.784c-.017-.081-.038-.164-.062-.247m5.062,1.839a6.087,6.087,0,0,0,1.1.457,2.777,2.777,0,0,0,.76.128c1,0,.823-.819.823-1.049s.3-.416.323-.485a3.989,3.989,0,0,0-.045-.574,2.9,2.9,0,0,0,.3-.436c.022-.093-.278-.76.047-.783a1.03,1.03,0,0,0,.757-.483c.069-.184-.781-1.174-.966-1.587s.114-1.357.162-1.7c0-.033.014-.114.026-.229m35.638,46.562v24.829h1.411v-24.9m-31.336,2.813v22.09h1.413v-25.2m19.531-31.276a5.53,5.53,0,0,0-1.711-.362,5.624,5.624,0,0,0-2.054.285m-2.242.086a11.661,11.661,0,0,0-3.886.026h0m-26.05-6.783a2.189,2.189,0,0,0-.83.143m6.769,2.323a3.122,3.122,0,0,0-.875-.549m-1.854,19.524c2.058.607,4.022-4.351,4.022-4.351m-2.478,9.684a9.738,9.738,0,0,0,2.572-1.749c.021-.017.031-.028.031-.028m-11.783,2.463c.4.243,1.488,1.042,4.2.317m61.825.595c1.8.066,2.127-3.689,2.127-3.689m-9.5,3.1c4.569,5.993,9.881,4.538,9.881,4.538M152.86,966.178a3.842,3.842,0,0,0-.794,1.787m12.858,9.891s.647,2.051,1.745,1.906m-4.6,2.121a3.456,3.456,0,0,0,1.728,1.547M115.756,986.9a8.375,8.375,0,0,0,.826-2.913c0-.057-.093-.141-.219-.227m18.149,10.922c-.081,5.162-.164,11.994-.164,11.994M119.173,982.32v0a3.066,3.066,0,0,0,.983,1.036s.773.081,1.954.217m8.7,27.026.017.333.028.6a.224.224,0,0,0,.222.212.222.222,0,0,0,.222-.233l-.022-.535-.019-.431m5.971,1.154c1-.116,2.49-.509,3.049-.609a3.6,3.6,0,0,0,1.209-.529m-4.193,1.2c.231-.017.471-.04.711-.071a11.659,11.659,0,0,0,3.22-.8,1.638,1.638,0,0,0,.373-.295m-3.929,1.525a21.7,21.7,0,0,0,3.294-.612c.559-.172.79-.466.8-.536a1.394,1.394,0,0,0-.166-.376l-.111-.031a.836.836,0,0,0-.069-.217c-.586-.823-2.625-.761-3.054-.81s-1.545-1.235-2.479-1.711a4.135,4.135,0,0,1-1.235-1.288m-.336,8.3h.005a16.966,16.966,0,0,0,2.289.209,37.441,37.441,0,0,0,3.863-.4,4.135,4.135,0,0,0,1.435-.485m-13.279-1.042c.3.4,2.308.6,3.187.766a7.108,7.108,0,0,1,1.223.414c.459.19.923.4,1.276.533h.005a2.224,2.224,0,0,0,.476.143,21.181,21.181,0,0,0,3.02.131,13.364,13.364,0,0,0,3.76-.6,1.919,1.919,0,0,0,.454-.3m-13.156-4.008c-.109.854-.315,1.956-.315,2.184a5.108,5.108,0,0,0,.071.736,6.681,6.681,0,0,0,.009,1.362,4.2,4.2,0,0,0,1.776.433,5.676,5.676,0,0,0,1.19.021v-.555a5.271,5.271,0,0,1,1.306.236c.024.012.047.024.066.036a6.478,6.478,0,0,0,3.56.918,26.153,26.153,0,0,0,4.679-.383,1.416,1.416,0,0,0,.969-.535,1.651,1.651,0,0,0-.154-.445l-.122-.047a.975.975,0,0,0-.057-.255c-.588-1-2.925-1.13-3.41-1.23a2.319,2.319,0,0,1-.771-.559c-.119-.109-.245-.229-.374-.355l-.065-.062a10.111,10.111,0,0,0-1.451-1.223,3.848,3.848,0,0,1-1.029-1.173m19.241-4.027c.012.1.026.183.038.262m.75.052c-.355-.021-.642-.043-.75-.052-.029,0-.045,0-.045,0-.578.514-.916,1.863-1.35,2.877-.388.9-3.942,2.3-4.058,2.875s.921.576,2.647.614a2.562,2.562,0,0,0,.626-.076h0m4.7-4.465c-.626-.026-1.233-.072-1.466-.091l-.1-.009c-.654.585-1.038,2.113-1.532,3.265a4.3,4.3,0,0,1-1.6,1.3h0c-1.3.774-2.915,1.55-3,1.959-.131.652,1.043.652,3,.7,1.461.033,3.575-1.461,4.7-2.222m1.411,2.158h.055a.894.894,0,0,0,.445-.11s-.419-2.082.105-2.515a1.812,1.812,0,0,0,.536-2.144c-.217-.391-.816-2.387-.816-2.387a.621.621,0,0,1-.326.089M139.883,964.59a9.556,9.556,0,0,0-.316,1.307,8.8,8.8,0,0,0-.116,1.383q-.008,1.609-.016,3.218l0,.076-.017,2.544a.974.974,0,0,0,.043.286.96.96,0,0,0,.224.376m4.475-7.561c-.007-.057-.015-.114-.024-.171a9.69,9.69,0,0,0-.359-1.557q-.223-.694-.419-1.456c-.005-.022-.012-.047-.017-.071v0a24.709,24.709,0,0,1-.688-4.187c-.059-.757-.08-1.482-.073-2.17h.007a.077.077,0,0,0,.078-.078V956.4a.077.077,0,0,0-.078-.078h-1.452a.078.078,0,0,0-.077.078v.129a.078.078,0,0,0,.077.078h0c0,.7-.028,1.444-.093,2.216-.035.409-.079.811-.131,1.2a4.267,4.267,0,0,1,1.107.776,4.1,4.1,0,0,1-.464,2.071c-.008.017-.019.034-.029.052a3.385,3.385,0,0,1-2.927,1.982.2.2,0,0,0-.074.071,2.4,2.4,0,0,1,.281.592.511.511,0,0,1-.076.212,2.642,2.642,0,0,1,.105.438,2.23,2.23,0,0,1-.15.452.826.826,0,0,1,.105.288,2.634,2.634,0,0,1-.393.738,2.852,2.852,0,0,1-.842.026l-.1-.01c0,.01,0,.021,0,.033.6.347,1.186.8.874.788a4.9,4.9,0,0,1-1.457-.662c-.293.178-.724.433-1.066.611a8.669,8.669,0,0,1-1.057.514,5.168,5.168,0,0,1-.664.029c0,.012-.005.024-.009.034s-.561.269-.949.467c-.138.071-.254.133-.316.171a13.16,13.16,0,0,1-4.1,1.212c-.09,0-.222.019-.39.041a26.5,26.5,0,0,1-5.407.509,14.891,14.891,0,0,1-3.555-1.126.079.079,0,0,1,0,.019v0c.033.333.445,4.546.526,4.9.086.371,2.192,1.918,2.647,3.117a1.644,1.644,0,0,0,.286.2l.581-4.107a.762.762,0,0,1,.759-.688h19.87a.839.839,0,0,0,.191-.376.874.874,0,0,0,.019-.178v-5.76a10.021,10.021,0,0,0-.079-1.247Zm19.381,25.665-.079-.338-1.473-6.328-.028-.114-.488-2.1-1.97-8.453a1.017,1.017,0,0,0-.064-.21.947.947,0,0,0-.866-.564h-4.536c-3.3,2.765-11.512,11.112-11.512,11.112-2.054-1.616-9.208-7.935-13.051-10.455-.367-.241-.705-.462-1.005-.657h-4.31a.762.762,0,0,0-.759.688l-.581,4.107-.1.673L122.193,983l0,.026-.08.549-1.029,7.278-.072.519-.414,2.918h0l-.01.079-.014.1.1-.038.14-.052a10.981,10.981,0,0,1,2.116-.543,33.683,33.683,0,0,1,3.694.185h.007l1.147.091.266.022c.112.009.224.017.336.028,1.894.157,4.062.345,6.144.517l.459.038c3.115.255,5.981.466,7.392.466,1.751,0,5.188-.172,8.568-.359,2.013-.111,4.007-.228,5.614-.316.514-.028.988-.054,1.411-.074l.348-.016a.407.407,0,0,0,.043,0c.6-.028,1.068-.045,1.357-.047.024,0,.048,0,.069,0a38.253,38.253,0,0,1,4.431.362l-.664-2.851Zm-35.072-18.1c.3.195.638.416,1.005.657,3.842,2.52,11,8.839,13.051,10.455,0,0,8.215-8.348,11.512-11.112Zm41.551,7.276c1.056-.186,1.74-.528,1.958-1.086s.9-1.088,1.088-1.866a4.081,4.081,0,0,0-.25-1.459,8.225,8.225,0,0,1-.031-3.2,23.78,23.78,0,0,0,.592-5.5c-.093-.9-.592-3.325-.592-3.325m-2.794,16.445a1.935,1.935,0,0,0-.219.05,5.532,5.532,0,0,0-2.3,1.373,9.976,9.976,0,0,1-1.625,1.411,2.817,2.817,0,0,1-1.263.612m-2.123-4.457s.381-.3.505-.3.559-.528.869-.559a.175.175,0,0,0,.078-.029c.326-.2.868-1.307,1.01-1.307s.062-.683.714-1.211a2.011,2.011,0,0,0,.591-1.554,49.932,49.932,0,0,1,.435-5.564c.341-1.552.9-4.5,1.15-5m-21.128,3.465c-.371.178-.7.379-.7.505s1.207-.14,1.638-.274a7.189,7.189,0,0,0,.736-.286h0c.293-.131.536-.265.526-.326-.016-.092-.567-.1-1.069-.012l-.114.021a2.479,2.479,0,0,0-.286.074h0l0,0c-.086.028-.186.064-.293.107-.028.01-.055.021-.083.033-.119.048-.241.1-.359.157Zm.3-1.214c-.026-.071-.052-.145-.081-.219v0m.222,1.245c.028-.111.061-.229.067-.274a.442.442,0,0,0-.017-.133v-.007m.533.231-.041-.066a1.748,1.748,0,0,0-.126-.181,2.766,2.766,0,0,1-.445-.84v0s0,0,0,0,0,0,0,0c-.014-.04-.029-.084-.043-.126h0a.035.035,0,0,1,0-.012c-.055-.162-.107-.329-.148-.495a7.224,7.224,0,0,1-.176-.831,1.332,1.332,0,0,1-.021-.322,2.559,2.559,0,0,0,.862-1.871,3.659,3.659,0,0,0-.157-1.2c-.167-.562-.916-2.083-.916-2.083a3.6,3.6,0,0,0-1.63.034,2.551,2.551,0,0,0-1.268.923,19.455,19.455,0,0,0,.2,2.249.5.5,0,0,0,.014.062c.005.021.012.043.019.066a2.987,2.987,0,0,0,2.334,1.942,4.313,4.313,0,0,1,.219.438c.1.214.211.48.323.75a.114.114,0,0,0,.009.024m-.449,1.2a1.81,1.81,0,0,0,.266.167,1.009,1.009,0,0,1,.291.3c.024.053.131.155.219.1s.047-.252.047-.252m.09-.186a1.09,1.09,0,0,0,.008-.26.855.855,0,0,0-.2-.35c-.052-.064-.1-.112-.116-.131l-.009-.009m-.528.005c-.029.155.186.376.221.428s.221.276.259.357.169.226.274.147a.276.276,0,0,0,.09-.179m-.28-1.506a.077.077,0,0,1,.054-.009,2.407,2.407,0,0,0,.414-.022m-1.157.6a.118.118,0,0,0,.012.014l0,0a1.912,1.912,0,0,1,.121.159.4.4,0,0,1,.055.093c.029.083.057.155.25.112a.334.334,0,0,0,.221-.195.442.442,0,0,0,.035-.088m0,0a.386.386,0,0,0,.017-.126,1.006,1.006,0,0,0-.209-.362.194.194,0,0,1-.016-.017l.007-.007m1.9-.059a.73.73,0,0,1-.352.221,1.584,1.584,0,0,1-.626-.029c-.083-.047-.262-.214-.328-.207s-.272-.062-.272.25a.786.786,0,0,0,.016.164m0,.014a.521.521,0,0,0,.045.126m0,.009a.647.647,0,0,0,.185.224,1.715,1.715,0,0,0,.836.355,1.286,1.286,0,0,0,.316-.09,5.889,5.889,0,0,1,.736-.29m2.073-.854a2.388,2.388,0,0,0-.3-.152c-.157-.046-1.98-.757-2.1-.847a2.015,2.015,0,0,0-1.394-.033c-.333.091-.566.16-.722.21m1.645,2.878a1.39,1.39,0,0,0,.224.131,7.115,7.115,0,0,0,1.428.172m-2.2-.642a.64.64,0,0,0-.1-.043.138.138,0,0,0-.059,0m-1.287-2.259c-.081.195-.21.548-.234.586a.7.7,0,0,0-.026.411,1.135,1.135,0,0,0,.1.183l0,0a.108.108,0,0,1,.012.064.849.849,0,0,0,.029.724c.019.074.005.2.022.262a2.511,2.511,0,0,0,.4.464m18.444-2.563c-.393.286-.91.664-1.449,1.059-1.026.754-2.132,1.575-2.613,1.971-1.014.833-1.652,1.007-1.8.935s-.412.441-.412.441-.207-.654-.424-.581a2.528,2.528,0,0,1-.892-.14s-3.368-2.689-3.875-2.87a1.088,1.088,0,0,0-.809-.066,14.428,14.428,0,0,1-1.485-.435c-.021,0-.067.049-.129.135a11.5,11.5,0,0,0-1.225,2.361.507.507,0,0,0-.023.184c.073.362,1.485.652,1.485.652a1.433,1.433,0,0,1,.122.485,2.607,2.607,0,0,0,1.1,1.4c.579.362,2.433,1.737,2.946,2.059.2.128.747.45,1.325.764m6.2-.6c-.7.193-1.525.3-1.709.352-.241.069-1.228.555-2.028.816M162.8,951.23a5.389,5.389,0,0,0,.047,1.174,3.643,3.643,0,0,1,.069,1.357,8.476,8.476,0,0,1-.905,1.687.416.416,0,0,0,.2.552,3.761,3.761,0,0,1,.529.248.744.744,0,0,1,.047.579c-.059.167.324.293.324.293s-.114.371.012.459a1.118,1.118,0,0,1,.4.769.724.724,0,0,0,.541.774,4.513,4.513,0,0,0,1.458-.095c.136-.028.279-.06.431-.1m-.121,5.441s0,0,0,0,0,0,0,0c.176-.362.395-.793.395-.793a6.59,6.59,0,0,0,.669-1.476,6.772,6.772,0,0,0-.311-1.244,4.494,4.494,0,0,0-.679-1.314,5.946,5.946,0,0,0-.388-.507m-3.07,21.024a1.631,1.631,0,0,0-.529,1.273c0,.45.133.557.133.557l-.424.478a1.562,1.562,0,0,0-.067.576,3.586,3.586,0,0,0,.172,1.042,1.556,1.556,0,0,0,.633.58l.005,0c.231.14.459.25.557.3l.052.022,1.023-.238.005,0,.564-.131.017.036c.328.614,2.8,3.418,4.122,4.9a6.052,6.052,0,0,0,2.692,1.637c.091.028.183.054.271.076h0a3.736,3.736,0,0,0,2.038.064c1.114-.4,2-2.784,2-2.784,1.069-.273.845-.812.845-1.644s-1.157-5.272-1.228-6-.4-4.767-.326-7.078a83.524,83.524,0,0,0-1.192-10.365,7.626,7.626,0,0,0-1.878-3.286.31.31,0,0,0-.038,0c-.079-.005-.268-.012-.507-.01a5.408,5.408,0,0,0-1.4.157,5.812,5.812,0,0,0-2.818,1.913c-.2.4-.728,1.3-1.337,2.237l0,.007c-.231.355-.471.716-.711,1.057a11.131,11.131,0,0,1-1.378,1.709q-.142.147-.269.29v0c-2.446,2.772-.859,4.531-.471,5.35.059.122.112.255.164.4a19.8,19.8,0,0,1,.744,5.343c0,.129,0,.257,0,.385a2.249,2.249,0,0,1-.01.259v0m-.973,5.693c-.271.06-.54.128-.81.2m-4.065,20.669c-.045.285-.081.535-.109.752m-3.2-.966c0,.026.009.054.014.079.017.1.033.195.05.29.091.517.179.985.255,1.388m-35.763-44.08a1.443,1.443,0,0,1-.252-.357c0-.007,0-.012,0-.017a9.809,9.809,0,0,0-.224-1.185c-.176-.755-1.221-1.859-1.192-1.947a5.305,5.305,0,0,0-.086-1.1,4.6,4.6,0,0,1,.842-1.626.672.672,0,0,0,.116-.814,1.618,1.618,0,0,0-.262-.252,14.569,14.569,0,0,0-2.73-1.752,17.652,17.652,0,0,0-2.613-.93,1.977,1.977,0,0,1-.283-.1c-.212-.067-.443-.022-.443.769,0,1.221-1.366,2.151-1.4,2.383s-.495.638-.726.959-1.221,1.278-1.54,1.714a19.517,19.517,0,0,0-1.133,3.6c-.174.785-.813,5.143-.959,5.84s-.2,3.456-.2,3.6-.319,1.4-.348,1.918-.174,2.063-.174,2.847.19,3.182.271,4.272c.157,2.149.821,2.292,1.09,2.446.3.172,0,.324.055,1a5.189,5.189,0,0,0,.364,1.951s.133-.185.212-.326a19.7,19.7,0,0,0,2.918-.543c.271-.024,2.018-.512,2.842-.714.388-.095,1.659-.569,2.906-1.064a20.991,20.991,0,0,0,2.818-1.244.493.493,0,0,0-.008-.2v0c-.055-.321-.236-.9-.236-1.119a.149.149,0,0,1,.009-.06c.005-.017.016-.028.031-.028a1.2,1.2,0,0,0,.309-.085c.222-.083.479-.2.533-.222l.01-.005-.012,0c.323-.257.371-.552.409-1.264a14.244,14.244,0,0,0-.328-1.977c-.026-.209-.012-2.308-.012-2.308m-.568-12.063a0,0,0,0,1,0,0c-.076-.11-.16-.229-.252-.357-.978-1.359-1.916-2.9-4.074-3.751m4.369,11.269a24.223,24.223,0,0,1-3.891-2c-1.757-1.166-5.95-3.206-5.824-6.923m27.73,6.268h0c.026.014.05.029.076.045m3.461-7.72-.036-.021a7.663,7.663,0,0,0-1.316-.531,5.7,5.7,0,0,0-1.532,1.675,3.779,3.779,0,0,0-.359,1.75,3.564,3.564,0,0,0,.431,1.709v0m.024,2.885a2.121,2.121,0,0,0-.53.131.177.177,0,0,0-.04.1m1.13-1.052a7.184,7.184,0,0,0-1.311-.055m1.356-.835c-.021,0-.047-.005-.079-.007-.376-.023-1.5.012-1.5.012m1.5-.012a.676.676,0,0,0-.066-.267,2.018,2.018,0,0,0-.831-.331,5.316,5.316,0,0,1-.819-.238m-.067,2.934c.2-.119.338-.2.338-.2l.016,0c.05.01.1.021.152.029h0c.026.005.053.009.079.012m1.071-2.735a1.018,1.018,0,0,0-.262-.314.79.79,0,0,0-.162-.053v0a14.46,14.46,0,0,0-2.094-.312c-.266.016-.705.549-.862.705s-.864.771-1.35,1.131c-.043.031-.088.064-.133.093m-14.377,14.8a8.217,8.217,0,0,0,2.278,1.592c.172.072.341.245.557.367.022.014.045.028.069.039m11.892-14a11.476,11.476,0,0,0-.39-2.81.164.164,0,0,1-.029.01c-.09.031-.372.126-.641.2a3.037,3.037,0,0,1-.46.1c-.171.016-2.951-.253-3.976-.253h-.133c-1.219.021-5.241.279-5.267.171s-.314-.057-.428.084-.284-.057-.341-.2c-.047-.119-2.321-2.227-3.1-3.137m9.051,30.974c-.007.081-.015.155-.027.224-.073.462-.207,1.371-.309,2.3m0,3.656c.141,1.28.343,2.77.329,3.118-.021.495.3,6.4.278,6.542-.007.041.077.112.229.19a4.129,4.129,0,0,0,1.832.4c.035,0,.069,0,.105,0,.133-.009.285-.028.448-.053a13.6,13.6,0,0,0,3.51-1.112l-.019-.129-.4-2.628.3-.141.312-.15s0-7.706.012-11.664m-7.987-5.381c-.136-1.016-.245-10.764-1.721-12.392m32.093.647c-.712,1.609-1,9.986-.234,12.9m1.183,3.924-.2,1.164a2.545,2.545,0,0,0,.752,2.263,2.941,2.941,0,0,0,.249.207l2,1.475.773.569c.012-.134.029-.278.052-.426v0a9.854,9.854,0,0,1,.469-1.909l0,0a9.13,9.13,0,0,1,.805-1.692l.072-.117q.189-.3.387-.562c.178-.24.357-.459.534-.655m-43.542-.3a8.531,8.531,0,0,1,.826.783c.052.055.1.114.155.173.093.107.186.219.278.338.045.057.088.112.129.169s.085.116.124.172a8.647,8.647,0,0,1,1.43,3.527q.732-.543,1.466-1.083h0l1.116-.826a2.009,2.009,0,0,0,.212-.183.351.351,0,0,0,.026-.024s0,0,.007-.005a2.254,2.254,0,0,0,.186-.219,2.03,2.03,0,0,0,.345-1.64l-.05-.231-.295-1.33-.007-.031m-7.44-11.706a13.132,13.132,0,0,0,2.694.617c.067.016.152.031.253.05l.072.014m-1.112,7.853c-2.38-.034-8.327.209-9.436.209a3.975,3.975,0,0,1-3.9-3.213,11.277,11.277,0,0,1-.043-1.766" transform="translate(228.534 -733.766)" fill="none" stroke="#b3b0a7" stroke-linecap="round" stroke-linejoin="round" stroke-width="0.5"/></g></svg>