<svg xmlns="http://www.w3.org/2000/svg" xmlns:xlink="http://www.w3.org/1999/xlink" width="285" height="78" viewBox="0 0 285 78"><defs><clipPath id="a"><rect width="285" height="78" transform="translate(13 9)" fill="none"/></clipPath></defs><g transform="translate(-13 -9)" clip-path="url(#a)"><path d="M709.961,3606.121a5.143,5.143,0,0,0,.547,2.2m11.375-7.7c-.186.247-.794,1.309-.794,1.309m-6.681-11.379a3.733,3.733,0,0,0,1.73-.9m27.4,31.446.67.71.359-.377-.548-.736-.481.4Zm2.387,8.177.974.069v-.7l-.9-.208-.07.835Zm3.64-3.521-.166-.69-.749.04-.242.8,1.157-.152Zm-7.468,3.9.491-.479-.439-.776-.827.569.775.686Zm6.921-7.511,1.022-.471-.621-1.066-1.19-.263.789,1.8Zm-5.547,16.065.142,3.848m13.828-25.659,1.426,3.135m16.536-24.091-2.851,2,.571,3.136m-3.422,32.788,1.283-5.132-1.426-4.134-3.706-.427m-8.411,8.268-3.278,3.849.713,3.279-1.568,3.421m5.559-35.353,5.275,4.134,5.559-.427m-40.295,36.155h51.51v-61.03l-8.792-1.212-6.415,4.562L765,3592.45l-2,3.564-4.847,2.423-5.417,7.27.143,7.556,2.28,6.842-1.567,6.272-8.7,6.985-1.425,4.848-3.564,1.567-.285,2.994-5.56,1.426-4.419,2.138-.237.659Zm-27.9-66.57a38.978,38.978,0,0,0-1.763,8.463v.008c0,.162,0,.318.007.468m6.865-18.123v0a78.332,78.332,0,0,0-4.4,7.487m-2.472,10.158a21.729,21.729,0,0,1,1.541-8.483h0l.221.021.96.086a.188.188,0,0,0,.169-.069.21.21,0,0,0,.028-.046l.354-.84a.186.186,0,0,0,.017-.071.2.2,0,0,0-.077-.16l-.742-.6-.194-.156h0a26.135,26.135,0,0,1,4.594-7.332v0c.041-.04-.027-.078-.078-.053-1.158.564-3.7,3.1-5.477,7.172q-.212.485-.408,1-.107.282-.2.556c-1.684,4.733-1.4,8.035-.832,9.431.029.072.136.094.135.016,0-.152,0-.307-.007-.468m1.316-10.535-.476-.154a.364.364,0,0,0-.448.206l-.341.811a.365.365,0,0,0,.181.47l.471.222m17.228,5.482.364.121,11.057,3.643m-10.921-4.44.213.073c3.557,1.216,7.084,2.381,10.636,3.524m2.823,1.75h0l.058.02,1.591.523,2.946.941a.375.375,0,0,0,.116.018.388.388,0,0,0,.126-.755c-.708-.242-1.49-.539-2.822-.958q-.886-.278-1.768-.558m-29.061-9.813q6.146,2.15,12.3,4.263m-.265.791-12.437-4.1m3.919,52.973c.5-.5,1.026-1.095,1.026-1.095m13.522.359a6.259,6.259,0,0,0,.181.643m-14.193-5.718a12.677,12.677,0,0,0-.027,1.844m13.446-.022s.422-.03.393-.271-1.01-.081-1.01-.081m10.364-31.115h0c-.233-1.355-.532-2.8-.532-2.8m-.263-1.9a3.748,3.748,0,0,0,.954.169m-11.255,12.548c.171-.137,1.609-2.447,1.609-2.447m-5.036-5.813s.069,6.581.96,8.843c.566,1.436.938,2.554,1.274,3.258a1.749,1.749,0,0,0,.576.786m6.2-11.51c.271-.188,1.387-.981,1.655-1.172h0m-13.851-1.661a1.42,1.42,0,0,0,1.382.238,4.321,4.321,0,0,0,2.048-1.572m.046-7.573a1.341,1.341,0,0,0-.332-.787m-1,20.238-.2-.212a16.274,16.274,0,0,1-3.084,1.6l.11.269a15.95,15.95,0,0,0,3.172-1.655Zm-4.253,9.786a4.552,4.552,0,0,0,1.727-2.383m-1.557,5.786-.279,1.92m-1.352-2.312-.368,2.657a.3.3,0,0,0,.255.333l2.709.349a.3.3,0,0,0,.331-.265l.234-2.573m-3.047-.443c.3.082.8.211,1.185.28.109.019.221.037.333.053.526.076,1.06.12,1.374.142a.285.285,0,0,0,.155-.032.291.291,0,0,0,.156-.23l.078-.789a.167.167,0,0,0-.157-.184,18.061,18.061,0,0,1-2.991-.572.167.167,0,0,0-.2.135l-.141.868a.291.291,0,0,0,.212.329Zm11.2,23.074c0,.227.007.531.018.648.019.2.81.357,1.2.371.429.015.9.015.963.015s.084-.4.084-.4a10.8,10.8,0,0,1,1.351.216,1.589,1.589,0,0,1,.571.264.96.96,0,0,0,.452.189,22.2,22.2,0,0,0,2.5.252,3.48,3.48,0,0,0,.744-.117s.265-.33.161-.557m-24.944,1.021a1.773,1.773,0,0,0,.24.476,5.8,5.8,0,0,0,2.155.646,4.048,4.048,0,0,0,1.8-.235.812.812,0,0,0,.22-.719h0m-4.438-.176h0l-.579.348m-1.225-.863h0l.03.686,1.195.177.047-.5m16.877-11.117a.679.679,0,0,0-.033.07,1.912,1.912,0,0,0,.072,1.15,31.433,31.433,0,0,1,.648,3.263,17.358,17.358,0,0,1,.072,2.524,11.486,11.486,0,0,0-.239,2.268.434.434,0,0,0,.052.1c.215.324.812.359,1.39.449a6.312,6.312,0,0,0,1.235.039,10.093,10.093,0,0,1,2.42.514c.394.08,2.8.592,3-.121a1.452,1.452,0,0,0-.962-1.659,9.521,9.521,0,0,1-2.933-1.01,2.442,2.442,0,0,1-1.058-1.563c-.264-1.669.646-5.574.544-6.2h0c-.009-.058-.028-.088-.057-.083-.2.031-.595.068-1.076.108h0c-.462.037-1,.076-1.514.111-.6.042-1.164.077-1.531.1m-15.655-1.057h0l-.037.022h0a.859.859,0,0,0-.308.357c-.192.4-1.053,4.569-1.212,5.253s-.773,4.253-.878,4.569-.39,1.108-.091,1.546h0a.627.627,0,0,0,.056.07c.2.217.492.207.814.235a3.652,3.652,0,0,1,.4.055,2.813,2.813,0,0,1,.532.155h0l.022.009a6.98,6.98,0,0,0,1.92.776c.466.086,1.741.223,2.3-.316a.77.77,0,0,0,.2-.292h0a.878.878,0,0,0-.388-.99,9.438,9.438,0,0,0-1.23-.527,3.594,3.594,0,0,1-1.124-1.651,5.392,5.392,0,0,1,.123-1.459,16.421,16.421,0,0,1,.587-1.733l0-.008.095-.252,0,0c.483-1.274,1.074-2.724,1.246-3.029a3.325,3.325,0,0,0,.562-1.278s0-.076,0-.16m13.276-42.306a17.468,17.468,0,0,0-2.605,1.326m2.34,3.038h0c.005.035.011.07.017.1a2.373,2.373,0,0,0,.167.6.456.456,0,0,0,.113.157.572.572,0,0,0,.217.116h0a.874.874,0,0,0,.464-.052,2.64,2.64,0,0,0,.323-.127,2.669,2.669,0,0,1,.537-.2c.164-.013.3-.215.48-.24s.5,0,.619-.126a1.474,1.474,0,0,0,.165-.443,1.972,1.972,0,0,1,.064-.19.352.352,0,0,1,.048-.086c.1-.114.823-.37,1.142-.8m-2.669-2.8h0a2.247,2.247,0,0,0,.061-.23,2.075,2.075,0,0,0-.112-.823c-.073-.336-.278-.341-.582-.329a.877.877,0,0,0-.745.746,2.483,2.483,0,0,0-.044.359c-.02.346.032.665.183.74.2.1.278.076.278.076a3.844,3.844,0,0,0-.228.592m3.2-.907a7.808,7.808,0,0,0-1.816.182m-.192-.4c-.657,1.085-1.542,2.56-1.747,2.946a2.8,2.8,0,0,0-.248.681,2.164,2.164,0,0,0,0,1.084.846.846,0,0,0,.082.182.815.815,0,0,0,.566.346,1.321,1.321,0,0,0,.215.018h.014a1.276,1.276,0,0,0,.735-.374m1.015-5.92-.629,1.037m-1.688,4.088c-.005.048-.007.1-.008.142h0a.9.9,0,0,0,.1.464.314.314,0,0,0,.095.095m2.437-5.609c-.151.25-.428.706-.74,1.224-.637,1.055-1.423,2.367-1.609,2.717a2.639,2.639,0,0,0-.27.948v.017m4.812-1.285h0a3.693,3.693,0,0,0,.576-3.1,5.63,5.63,0,0,0-2.185-2.615,4.927,4.927,0,0,0-2.856-.316,3.628,3.628,0,0,0-1.335.643m5.8,5.387a2.3,2.3,0,0,0,.161-.858,4.88,4.88,0,0,0-.757-2.165m-1.114,4.094a2.44,2.44,0,0,0,1.42-.54,2.481,2.481,0,0,0,.29-.531m-3.249-5.025a6.78,6.78,0,0,0-1.984-.4,2.527,2.527,0,0,0-.568.034,1.173,1.173,0,0,0-.9.558,1.767,1.767,0,0,0-.052.857m5.108,4.853c.228-.005.976-.059,1.148-.669a1.354,1.354,0,0,0,.042-.217,4.95,4.95,0,0,0-.32-2.095,3.5,3.5,0,0,0-.34-.48,6.517,6.517,0,0,0-1.076-1.042c-.1-.074-.2-.147-.3-.218a5.416,5.416,0,0,0-1.035-.547,5.269,5.269,0,0,0-2.646-.36h0c-.111.017-.171.031-.171.031-.24.013-.265.291-.265.518m.436-.549a3.706,3.706,0,0,0-.436.549c-.051.077-.1.152-.141.225a6.774,6.774,0,0,0-.541,1.195,4.832,4.832,0,0,1-.321.765m-.981-6.678a1.728,1.728,0,0,0,.611-.208.427.427,0,0,0,.114-.122c.014-.025.028-.048.04-.071a3.142,3.142,0,0,0,.186-.508.325.325,0,0,1,.314-.169h0c.009-.128.013-.226.013-.25a7.122,7.122,0,0,0-.184-.763.452.452,0,0,0-.26-.277c-.092-.017-.369-.008-.5-.159a.39.39,0,0,0-.352-.109c-.076-.008-.26-.21-.436-.21s-.276.185-.386.185a1.687,1.687,0,0,0-.369-.034c-.119.022-.3.4-.361.645a.621.621,0,0,0-.016.085,5.7,5.7,0,0,1-.156.663h0m2.356,1.094a.61.61,0,0,0,.517-.072m12.988,6.991c.013-.036.025-.073.04-.11a.937.937,0,0,1,.142-.249,3.653,3.653,0,0,0,.567-1.234,6.11,6.11,0,0,0,.129-.829m-.528-.043c.143.208.347.083.466.026l0,0h0a.176.176,0,0,0,.067-.069,2.085,2.085,0,0,0,.151-.486.892.892,0,0,0,.03-.215,1.113,1.113,0,0,0-.072-.44.241.241,0,0,0-.343-.122m-.769,1.012,0,.012a.341.341,0,0,0,.391.325.126.126,0,0,0,.073-.041.515.515,0,0,0,.079-.106,1.224,1.224,0,0,0,.135-.321c.018-.078.052-.275.077-.455a2.435,2.435,0,0,0,.032-.329.285.285,0,0,0-.021-.1.382.382,0,0,0-.234-.218.364.364,0,0,0-.322.045m-.8.959a.477.477,0,0,0,.01.048.373.373,0,0,0,.231.26.319.319,0,0,0,.336-.073l.008-.008a.412.412,0,0,0,.092-.164,3.814,3.814,0,0,0,.1-.6,3.769,3.769,0,0,0,.024-.419.273.273,0,0,0-.008-.066c-.034-.084-.156-.288-.332-.313a.485.485,0,0,0-.361.125m-.629.334h0c.027.095.049.186.057.235a3.419,3.419,0,0,0,.083.545l.005.014a.211.211,0,0,0,.294.146.146.146,0,0,0,.057-.031h0a.252.252,0,0,0,.034-.033,1.07,1.07,0,0,0,.185-.478,1.237,1.237,0,0,0,0-.25,2.369,2.369,0,0,0-.088-.485.6.6,0,0,0-.153-.286c-.161-.128-.507.008-.662.137m.958,3.248a2.111,2.111,0,0,0-.077-1,3.8,3.8,0,0,0-.572-.868.8.8,0,0,1-.023-.112c-.028-.183-.062-.533-.1-.779v0c0-.029-.009-.057-.013-.083-.007-.043-.016-.081-.023-.111a.8.8,0,0,0-.15-.29c-.089-.118-.2-.232-.314-.367-.195-.24-.481-.1-.41.044a2.558,2.558,0,0,1,.141.48,2.833,2.833,0,0,1,.07.55c0,.084,0,.185,0,.293,0,.369.009.819.022.942a10.593,10.593,0,0,0,.28,1.243,2.091,2.091,0,0,1,.038.522c0,.028-.005.057-.008.087h0a2.343,2.343,0,0,1-.061.311h0m0,0v.028a1.873,1.873,0,0,0,1.22.36.908.908,0,0,0,.443-.146.31.31,0,0,0,.054-.054m-1.655-.5a.7.7,0,0,0-.061.311m-8.981,4.133a16.768,16.768,0,0,0-.948,1.653,12.556,12.556,0,0,0-.582,2.7c-.034.685-.581,5.374-.581,6.059,0,.307-.1,1.617-.305,3a9.932,9.932,0,0,1-.962,3.567m3.681-17.467.024-.037m-16.651,36.51.028.013c.536.241,1.581.7,2.467,1.012a6.9,6.9,0,0,0,1.074.306l.049.009m1.239-24.284c-1,.508-1.513,1.994-1.774,3.376a16.284,16.284,0,0,0-.267,2.7c0,.577.577,1.087.577.577,0-.028,0-.063,0-.1a1.43,1.43,0,0,1-.409-.813,10.2,10.2,0,0,1,.175-2.344,4.726,4.726,0,0,1,.3-1.053,14.2,14.2,0,0,1,1.278-1.891h0m-1.344,6.1a1.575,1.575,0,0,0,.5.333m10.883-20.1a7.886,7.886,0,0,1-.6-.789c-.665-.916-1.5-1.691-1.6-1.907a6.222,6.222,0,0,1-.531-1.279,2.388,2.388,0,0,1-.077-.5c-.013-.452.06-1.37.11-2.1.028-.426.05-.788.042-.955-.022-.455-.152-1.214-.152-1.344a16.959,16.959,0,0,1,.886-1.554l0-.006c.108-.195.3-1.1-.065-1.452s-1.041-.174-1.452.043c-.067.035-.145.073-.23.113h0l-.093.043a5.675,5.675,0,0,0-1.3.732,10.364,10.364,0,0,0-.888,1.235,2.424,2.424,0,0,0-.52,1.236,5.543,5.543,0,0,1-.086,1.17,13.818,13.818,0,0,0-.195,2.471,15.865,15.865,0,0,1,.021,2.86c-.108.3-.824,3.945-.975,4.638a34.772,34.772,0,0,0-.867,3.511c-.086.954-.173,3.382-.3,3.728-.09.24-.695,2.066-1.04,3.326-.044.16-.083.31-.117.447h0a2.86,2.86,0,0,0-.121.713,3.891,3.891,0,0,0,.118.721.872.872,0,0,0,.39.491,8.718,8.718,0,0,0,2.038.136c.611.034,3.941.747,4.722.952a4.908,4.908,0,0,1,1.06.478,2.988,2.988,0,0,0,1.148.472.4.4,0,0,0,.263-.16,11.577,11.577,0,0,0,1.538-3.543,23.3,23.3,0,0,0,.068-3.771,9.357,9.357,0,0,1,.747-2.853,9.649,9.649,0,0,0,.315-1.6c.173-1.332.25-2.893.3-3.495m-.3,3.495a54.309,54.309,0,0,0,6-.606c.17-.171,1.7-.68,2.174-.986a6.111,6.111,0,0,0,.993-2.376h0c.139-.493.255-.962.331-1.292a20.428,20.428,0,0,0,.34-2.887,4.708,4.708,0,0,0,.154-1.324c0-.019-.009-.038-.014-.056m-5.539,6.789s.143-.238.371-.552c.107-.146.309-.414.532-.717.345-.465.743-1.011.928-1.321a30.759,30.759,0,0,0,1.6-3.567,2.711,2.711,0,0,1,.373-1.121.2.2,0,0,1,.1-.044m-8.58,5.718a1.214,1.214,0,0,0,.547-.174,22.262,22.262,0,0,0,2.187.512,27.981,27.981,0,0,0,2.809,0h.033M708.8,3611.328a5.843,5.843,0,0,0-.153.9c0,.022.025.044.072.068.623.306,5.1.752,6.993,1.257a12.4,12.4,0,0,1,2.643,1.141.07.07,0,0,0,.075-.053,2.8,2.8,0,0,0-.009-.942m1.971-18.382a15.522,15.522,0,0,0-2.033-2.579l-.008-.005a4.369,4.369,0,0,0-.455-.254,2.57,2.57,0,0,0-1.79-.226m5.161,4.694a1.386,1.386,0,0,0,.046.176c.025.062.066.191.095.291m2.53,35.775a4.6,4.6,0,0,0,.066-1.912,34.024,34.024,0,0,1,.262-3.54,13.307,13.307,0,0,0-1.427-4.368c-.636-1.271-3.275-6.389-4.482-8.675m1.4,18.731c-.011-.022-.023-.044-.033-.066-.529-.994.346-3.979.173-4.282s-1.081-1.643-1.644-2.638c-.4-.71-1.907-3.495-2.954-5.437m-11.206,11.4.008-.036h0c.524-2.187,2.621-4.1,2.993-4.761a10.545,10.545,0,0,0,.649-3.892c0-1.341-.043-4.2.129-6.487q.035-.453.082-.9a23.315,23.315,0,0,1,.764-4.034m8.554,4.144s-.277,1.109-.708,2.345A17.558,17.558,0,0,1,715.3,3621c-.606.974-1.257,2.01-1.544,2.626-.562,1.21-3.633,6.876-3.763,7.136a4.8,4.8,0,0,1-1.21,1.21c-.528.32-.534.549-1.094,1.744l-.006.013" transform="translate(-526.03 -3560.648)" fill="none" stroke="#b3b0a7" stroke-linecap="round" stroke-linejoin="round" stroke-width="0.5"/></g></svg>