<svg xmlns="http://www.w3.org/2000/svg" xmlns:xlink="http://www.w3.org/1999/xlink" width="287" height="80" viewBox="0 0 287 80"><defs><clipPath id="a"><rect width="287" height="80" transform="translate(11 8)" fill="#fff" stroke="#707070" stroke-width="1"/></clipPath><clipPath id="b"><rect width="66" height="67" transform="translate(554 2558)" fill="#fff" stroke="#707070" stroke-width="1"/></clipPath><clipPath id="c"><rect width="25" height="29" transform="translate(616 2612)" fill="#fff" stroke="#707070" stroke-width="1"/></clipPath></defs><g transform="translate(-11 -8)" clip-path="url(#a)"><g transform="matrix(0.995, 0.105, -0.105, 0.995, -93.899, -2587.162)" clip-path="url(#b)"><path d="M775.2,926.768c-1.843-.211-2.9,1.481-3.3,2.293m17.2,2.065a2.632,2.632,0,0,0-.24-2.122m.987-3.423s-3-.593-3.813.719a6.057,6.057,0,0,0-.726,1.918m.5-3.836a5.458,5.458,0,0,0-1.182-2.51m-4.861,3.5a11.646,11.646,0,0,0,.921-2.749c.054-.23.084-.373.084-.373m-.084.373a6.569,6.569,0,0,0-1.476-.389m2.752,4.893c-.973-1.294-2.045-.484-2.755.347-.04.049-.08.1-.12.145a15.343,15.343,0,0,0-1.45,3.511m1.789,0a7.282,7.282,0,0,0,2.63-3.4,3.7,3.7,0,0,0,.141-.57,1.321,1.321,0,0,0-.07-.912,3.3,3.3,0,0,0-1.288-.643h0l0,0a6.792,6.792,0,0,0-1.067-.23,6.192,6.192,0,0,0-2.468.163,4.444,4.444,0,0,0-1.029.459,8.26,8.26,0,0,0-1.079.776,17.289,17.289,0,0,0-2.437,2.6m6.713,50.568V931.127m-5.5,0V979.94m-21.007-37.916v37.5a.414.414,0,0,0,.414.416h45.723a.413.413,0,0,0,.413-.416v-37.5m-20.048,0H801.13a.56.56,0,0,0,.56-.565v-9.767a.562.562,0,0,0-.56-.565H751.365a.562.562,0,0,0-.56.565v9.767a.56.56,0,0,0,.56.565h22.615m12.239-10.9A8.41,8.41,0,0,0,788.867,929q-1.178-.3-2.372-.553c-.393-.083-.785-.161-1.18-.232q-1.618-.3-3.248-.491m-10.693-3.222c.031-.335.08-.85.153-1.479a7.777,7.777,0,0,0-.026-1.926,9.024,9.024,0,0,0-.186-.969m4.962,5.86a5.641,5.641,0,0,0-.926-.285c-.95-.216-1.963-.266-2.91-.484l-.033-.007a4.3,4.3,0,0,0-2.475-.088,2.879,2.879,0,0,0-1.631,1.93,5.828,5.828,0,0,0-.2,1.7m1.589,2.367a5.573,5.573,0,0,0-2.362-.551,3.711,3.711,0,0,0-2.407.551m10.885,0a9.826,9.826,0,0,0-1.194-.843,15.587,15.587,0,0,0-1.85-.912c-.282-.114-.569-.218-.858-.311a8.515,8.515,0,0,0-2.644-.428,5.819,5.819,0,0,0-1.159.126,5.559,5.559,0,0,0-1.685.651,4.272,4.272,0,0,0-1.657,1.717m21.738-2.676a10.151,10.151,0,0,0,3.359-2.87,4.994,4.994,0,0,0-4.036-1.2c-.181.016-.362.038-.541.066-.4.064-.806.152-1.2.254-1.079.278-2.137.655-3.225.9m3.225-.9a5.908,5.908,0,0,0,.562-2.83,16.94,16.94,0,0,0-3.006,1.287m-1.453-1.374a4.656,4.656,0,0,0-.957.446,14.454,14.454,0,0,0-3.869,3.476m5.491-.107a17.369,17.369,0,0,1,.788-2.441c.035-.09.07-.183.1-.278a1.922,1.922,0,0,0-.418-2.153,2.252,2.252,0,0,0-1.986-.055,17.9,17.9,0,0,0-2.212.85,17.009,17.009,0,0,0-3.726,2.327,8.5,8.5,0,0,0-1.175,1.2m4.9-3.528a11.682,11.682,0,0,0-5.474-2.248.924.924,0,0,0-.691.1.968.968,0,0,0-.254.753c-.007.159-.012.316-.014.473-.009.631,0,1.26,0,1.89,0,.752.016,1.308.031,1.688m1.728,1.045-.228-.171a8.849,8.849,0,0,0-.839-.546,5.993,5.993,0,0,0-.661-.328,2.548,2.548,0,0,0-1.314-.228c-.788.117-1.577.242-2.355.411a14.528,14.528,0,0,0-2.466.748,2.028,2.028,0,0,0-1.319,1.147,1.451,1.451,0,0,0,.353,1.273,4.246,4.246,0,0,0,1.077.828l1.725,1.054m.63-5.049a8.468,8.468,0,0,1-.334-2.474,3.527,3.527,0,0,1,.273-1.441,1.6,1.6,0,0,1,1.074-.923,2.513,2.513,0,0,1,1.725.529l.9.549m-48.1-43.792a18.983,18.983,0,0,1,2.39,3.452,42.755,42.755,0,0,1,3.563,8.917,81.779,81.779,0,0,1,2.012,32.658c1.411-1,4.093-3.77,4.734-4.295a.447.447,0,0,1,.129-.088,48.6,48.6,0,0,1,3.951,3.412c.322.292.618.568.874.8q.106-1.122.174-2.253a82.052,82.052,0,0,0-4.163-30.238,43.623,43.623,0,0,0-4.09-8.917,15.492,15.492,0,0,0-2.687-3.3m.286-5.534a3.58,3.58,0,0,0-1.558.052c-.98.245-3.145,1-4.384,1.446m3.545.168a3.944,3.944,0,0,0,2.865-.145m8.119,6.415a1.1,1.1,0,0,0,.075-.318c.078-.888-.834-1.512-1.646-1.87a20.593,20.593,0,0,0-10.878-1.572,20.158,20.158,0,0,0-2.369.449c-.139.036-.275.071-.413.109m.413-.109a19.5,19.5,0,0,1,5.945.907c.178.062.352.126.519.19.148.059.289.119.425.183a41.632,41.632,0,0,0,5.827,2.561,5.68,5.68,0,0,0,.992.2,3.317,3.317,0,0,0,.4.019,2.17,2.17,0,0,0,1.03-.245,1.638,1.638,0,0,0,.294-.2,2.355,2.355,0,0,0,.707-1.781c.026-.549-.014-1.137,0-1.7a2.911,2.911,0,0,1,.578-1.944,2.221,2.221,0,0,1,.181-.181,4.233,4.233,0,0,0,.719-.7,1.724,1.724,0,0,0-.19-1.933,2.932,2.932,0,0,0-.715-.651,6.325,6.325,0,0,0-.966-.5,16.964,16.964,0,0,0-14.24.5c-.273.15-.538.311-.8.482m-15.055,2.877a19.446,19.446,0,0,0-3.9,2.051,25.054,25.054,0,0,0-4.619,4.083,41.009,41.009,0,0,0-5.917,8.917c-.837,1.659-1.6,3.381-2.289,5.13v0a85.262,85.262,0,0,0-5.7,26.514,16.353,16.353,0,0,1,4.469-2.319,17.987,17.987,0,0,1,1.229,1.474v0c1.1,1.393,2.649,3.419,3.323,4.406.277-13.746,2.52-25.609,8.178-35.21a43.547,43.547,0,0,1,6.932-8.917h0a45.425,45.425,0,0,1,4.743-4.083c.235-.176.47-.349.71-.522m.174-3.67c-1-.741-3.086-2.26-4.024-2.818-1.754-1.042-4.365-.94-3.354.52.6.864,2.026.919,3.69,1.213m3.474-.7v0a.988.988,0,0,0,.007.565,6.108,6.108,0,0,1,.207,1.22,11.323,11.323,0,0,1-.19,2.818c-.017.095-.042.238-.057.38h0a.927.927,0,0,0,.021.38.385.385,0,0,0,.049.092,1.1,1.1,0,0,0,.472.363l.045.021a10.344,10.344,0,0,0,3.563.945,10.558,10.558,0,0,0,1.69,0,.969.969,0,0,0,.473-.176,1.521,1.521,0,0,0,.531-.653,1.382,1.382,0,0,0,.113-.43,11.255,11.255,0,0,1,.59-2.806c.084-.247.181-.494.284-.736a1.176,1.176,0,0,0,.2-.707.76.76,0,0,0-.063-.228,1.209,1.209,0,0,0-.379-.48,2.94,2.94,0,0,0-.571-.363,9.785,9.785,0,0,0-5.15-.99,5.614,5.614,0,0,0-1.321.228.826.826,0,0,0-.512.553Zm-.033,4.985-.07-.045a20.256,20.256,0,0,0-4.842-2.206,20.633,20.633,0,0,0-6.02-.9,19.87,19.87,0,0,0-2.515.159c-.877.112-1.925.446-2.1,1.32a1.087,1.087,0,0,0-.019.325m15.6-3.635a16.761,16.761,0,0,0-13.927-5.351,4.064,4.064,0,0,0-1.937.622,1.716,1.716,0,0,0-.726,1.8,9.37,9.37,0,0,0,.616,1.109c.809,1.738-1.344,3.962-.3,5.572a1.521,1.521,0,0,0,.115.157,2.051,2.051,0,0,0,.971.629,4.62,4.62,0,0,0,1.455.211,41.181,41.181,0,0,0,6.311-.779c.1-.016.2-.026.306-.038h0a14.768,14.768,0,0,1,3.472.147,18.176,18.176,0,0,1,3.54.864m4.224,1.847-3.451,3.276v46.249m-.157-50.492-.183.159-4.689,4.083v46.249M743.89,914.6V874.051h-3.467m-23.8,2.125h-1m-10.354,0h-8.4m44.672,41.665V876.176h-1.88m.743,43.239,1.138-1.574,2.346-3.245,2.943-4.069V879.536m-7.475,41.328-4.081,5.646m-42.831-32.2v-5.13m0,30.8v6.529h42.831V917.54M700.132,874.1l-3.26,2.075-6.414,4.083m34.574-9.494h-1.18m23.663,0h-7.277m-3.2,9.494.042,8.917m-.839,0h.839l4.461-4.414m-13.012,4.414H716.964m-16.312-8.917H690.457l.068,8.917h4.212m30.232-8.917h-8.006m-1.6,0h-1.238m-2.193,0h-1.053m1.053,8.917h-7.987m28.207-8.917h4.887l.19-.173m6.659,2.36,2.943-2.911.682-.674v-8.1l-3.624,3.286m-1.054.969-.464.4m-2.708,2.464,0,0,1.878-1.7" transform="translate(-130.554 1695.982)" fill="none" stroke="#b3b0a7" stroke-linecap="round" stroke-linejoin="round" stroke-width="0.5"/></g><g transform="matrix(0.951, -0.309, 0.309, 0.951, -1238.872, -2236.233)" clip-path="url(#c)"><path d="M725.613,892a1.54,1.54,0,0,0-1.448,1.008m7.559.907a1.156,1.156,0,0,0-.105-.933m.434-1.5s-1.318-.261-1.675.316a2.662,2.662,0,0,0-.319.843m.221-1.686a2.4,2.4,0,0,0-.519-1.1m-2.136,1.537a5.12,5.12,0,0,0,.4-1.208c.024-.1.037-.164.037-.164m-.037.164a2.886,2.886,0,0,0-.649-.171m1.209,2.15c-.427-.569-.9-.213-1.21.152l-.053.064a6.743,6.743,0,0,0-.637,1.543m.786,0a3.2,3.2,0,0,0,1.156-1.494,1.621,1.621,0,0,0,.062-.251.581.581,0,0,0-.031-.4,1.449,1.449,0,0,0-.566-.283h0a2.975,2.975,0,0,0-.469-.1,2.719,2.719,0,0,0-1.085.072,1.947,1.947,0,0,0-.452.2,3.629,3.629,0,0,0-.474.341,7.6,7.6,0,0,0-1.071,1.144m2.95,22.219V893.919m-2.415,0v21.448m-9.23-16.66v16.478a.182.182,0,0,0,.182.183h20.091a.181.181,0,0,0,.182-.183V898.707m-8.809,0h9.515a.246.246,0,0,0,.246-.248v-4.292a.247.247,0,0,0-.246-.248H715.141a.247.247,0,0,0-.246.248v4.292a.246.246,0,0,0,.246.248h9.937m5.378-4.788a3.693,3.693,0,0,0,1.164-.933q-.517-.133-1.042-.243c-.173-.036-.345-.071-.518-.1q-.711-.132-1.427-.216m-4.7-1.416c.013-.147.035-.373.067-.65a3.413,3.413,0,0,0-.011-.846,3.949,3.949,0,0,0-.082-.426m2.18,2.575a2.479,2.479,0,0,0-.407-.125c-.417-.095-.862-.117-1.279-.213l-.014,0a1.891,1.891,0,0,0-1.088-.039,1.265,1.265,0,0,0-.717.848,2.563,2.563,0,0,0-.089.748m.7,1.04a2.449,2.449,0,0,0-1.038-.242,1.63,1.63,0,0,0-1.057.242m4.783,0a4.321,4.321,0,0,0-.525-.37,6.849,6.849,0,0,0-.813-.4c-.124-.05-.25-.1-.377-.136a3.74,3.74,0,0,0-1.162-.188,2.563,2.563,0,0,0-.509.055,2.447,2.447,0,0,0-.741.286,1.878,1.878,0,0,0-.728.754m9.552-1.176a4.461,4.461,0,0,0,1.476-1.261,2.194,2.194,0,0,0-1.773-.527c-.08.007-.159.017-.238.029-.178.028-.354.067-.529.112-.474.122-.939.288-1.417.4m1.417-.4a2.6,2.6,0,0,0,.247-1.244,7.446,7.446,0,0,0-1.321.565m-.638-.6a2.045,2.045,0,0,0-.42.2,6.351,6.351,0,0,0-1.7,1.527m2.413-.047a7.64,7.64,0,0,1,.346-1.073c.015-.04.031-.08.044-.122a.845.845,0,0,0-.184-.946.99.99,0,0,0-.873-.024,7.872,7.872,0,0,0-.972.373,7.473,7.473,0,0,0-1.637,1.022,3.733,3.733,0,0,0-.516.528m2.153-1.55a5.133,5.133,0,0,0-2.406-.988.405.405,0,0,0-.3.044.425.425,0,0,0-.112.331c0,.07-.005.139-.006.208,0,.277,0,.554,0,.83,0,.331.007.575.013.742m.759.459-.1-.075a3.9,3.9,0,0,0-.369-.24,2.647,2.647,0,0,0-.29-.144,1.121,1.121,0,0,0-.577-.1c-.346.051-.693.106-1.035.181a6.387,6.387,0,0,0-1.083.329.891.891,0,0,0-.58.5.638.638,0,0,0,.155.559,1.864,1.864,0,0,0,.473.364l.758.463m.277-2.219a3.724,3.724,0,0,1-.147-1.087,1.55,1.55,0,0,1,.12-.633.705.705,0,0,1,.472-.406,1.1,1.1,0,0,1,.758.233l.395.241m-21.137-19.242a8.34,8.34,0,0,1,1.05,1.517,18.782,18.782,0,0,1,1.566,3.918,35.934,35.934,0,0,1,.884,14.35c.62-.438,1.8-1.657,2.08-1.887a.2.2,0,0,1,.057-.039,21.342,21.342,0,0,1,1.736,1.5c.141.128.272.249.384.354q.047-.493.076-.99a36.053,36.053,0,0,0-1.829-13.287,19.17,19.17,0,0,0-1.8-3.918,6.808,6.808,0,0,0-1.181-1.452m.126-2.432a1.572,1.572,0,0,0-.685.023c-.431.108-1.382.44-1.926.635m1.557.074a1.733,1.733,0,0,0,1.259-.064m3.567,2.819a.482.482,0,0,0,.033-.14c.034-.39-.367-.664-.723-.822a9.048,9.048,0,0,0-4.78-.691,8.84,8.84,0,0,0-1.041.2l-.182.048m.182-.048a8.568,8.568,0,0,1,2.612.4c.078.027.155.055.228.084s.127.052.187.08a18.3,18.3,0,0,0,2.56,1.125,2.493,2.493,0,0,0,.436.088,1.464,1.464,0,0,0,.178.008.953.953,0,0,0,.452-.108.717.717,0,0,0,.129-.089,1.035,1.035,0,0,0,.311-.782c.011-.241-.006-.5,0-.748a1.279,1.279,0,0,1,.254-.854.968.968,0,0,1,.08-.079,1.863,1.863,0,0,0,.316-.309.757.757,0,0,0-.084-.849,1.288,1.288,0,0,0-.314-.286,2.781,2.781,0,0,0-.424-.221,7.454,7.454,0,0,0-6.257.221c-.12.066-.237.137-.352.212m-6.615,1.264a8.544,8.544,0,0,0-1.716.9,11.01,11.01,0,0,0-2.029,1.794,18.02,18.02,0,0,0-2.6,3.918c-.368.729-.7,1.485-1.006,2.254h0a37.464,37.464,0,0,0-2.5,11.65,7.183,7.183,0,0,1,1.963-1.019,7.875,7.875,0,0,1,.54.648h0c.485.612,1.164,1.5,1.46,1.936.122-6.04,1.107-11.252,3.593-15.471a19.134,19.134,0,0,1,3.046-3.918h0a19.959,19.959,0,0,1,2.084-1.794c.1-.077.206-.153.312-.23m.076-1.613c-.44-.325-1.356-.993-1.768-1.238-.771-.458-1.918-.413-1.474.228.262.38.89.4,1.621.533m1.527-.309h0a.434.434,0,0,0,0,.248,2.679,2.679,0,0,1,.091.536,4.972,4.972,0,0,1-.084,1.238c-.007.042-.019.1-.025.167h0a.407.407,0,0,0,.009.167.164.164,0,0,0,.022.041.485.485,0,0,0,.208.16l.02.009a4.544,4.544,0,0,0,1.566.415,4.627,4.627,0,0,0,.743,0,.426.426,0,0,0,.208-.077.668.668,0,0,0,.233-.287.606.606,0,0,0,.05-.189,4.946,4.946,0,0,1,.259-1.233c.037-.109.079-.217.125-.323a.517.517,0,0,0,.086-.311.333.333,0,0,0-.028-.1.531.531,0,0,0-.166-.211,1.291,1.291,0,0,0-.251-.16,4.3,4.3,0,0,0-2.263-.435,2.467,2.467,0,0,0-.58.1.363.363,0,0,0-.225.243Zm-.015,2.191-.031-.02a8.9,8.9,0,0,0-2.128-.969,9.065,9.065,0,0,0-2.645-.4,8.744,8.744,0,0,0-1.105.07c-.385.049-.846.2-.923.58a.476.476,0,0,0-.008.143m6.854-1.6a7.365,7.365,0,0,0-6.119-2.351,1.786,1.786,0,0,0-.851.273.754.754,0,0,0-.319.79,4.123,4.123,0,0,0,.271.487c.355.764-.591,1.741-.132,2.448a.676.676,0,0,0,.051.069.9.9,0,0,0,.427.276,2.032,2.032,0,0,0,.639.093,18.1,18.1,0,0,0,2.773-.342c.043-.007.088-.011.134-.017h0a6.489,6.489,0,0,1,1.525.065,7.989,7.989,0,0,1,1.555.38m1.856.812-1.516,1.44V891.89m-.069-22.186-.081.07-2.06,1.794V891.89m14.041-5.235V868.84h-1.523m-10.458.934h-.439m-4.55,0H691.2m19.629,18.308V869.774H710m.326,19,.5-.692,1.031-1.426,1.293-1.788V871.25m-3.284,18.159-1.793,2.481m-18.82-14.15v-2.254m0,13.535v2.869h18.82v-3.941m-15.443-19.087-1.433.912-2.819,1.794M703.57,867.4h-.518m10.4,0h-3.2m-1.4,4.172.018,3.918m-.369,0h.369l1.96-1.939m-5.718,1.939h-5.083m-7.168-3.918h-4.479l.03,3.918h1.851m13.284-3.918h-3.518m-.7,0h-.544m-.964,0h-.463m.463,3.918h-3.51m12.394-3.918h2.147l.084-.076m2.926,1.037,1.293-1.279.3-.3V867.4l-1.593,1.444m-.463.426-.2.174M710,870.523h0l.825-.748" transform="translate(-97.027 1724.72)" fill="none" stroke="#b3b0a7" stroke-linecap="round" stroke-linejoin="round" stroke-width="0.5"/></g></g></svg>