<svg xmlns="http://www.w3.org/2000/svg" xmlns:xlink="http://www.w3.org/1999/xlink" width="287" height="79" viewBox="0 0 287 79"><defs><clipPath id="a"><rect width="287" height="79" transform="translate(48 690)" fill="#fff" stroke="#707070" stroke-width="1"/></clipPath></defs><g transform="translate(-48 -690)" clip-path="url(#a)"><g transform="translate(-562.245 -662.989)"><path d="M946.522,1315.27c0-.231-1.284-.928-1.284-.928m3.363,1.682a7.219,7.219,0,0,0-1.895-1.508m-4.83-.405s-1.957,1.1-2.019,1.739M929.6,1337.617s.943,1.31,1.684,2.287m29.242-.752-2.141,4.419m-26.606,7.1,1.535,2.864.468.87m12.664-43.335-1.041,1.48m-.811-.074.935-2.769m.495,2.9a1.991,1.991,0,0,0,1.162-.5,3.093,3.093,0,0,0,.541-1.156m-9.561,10.806a3.771,3.771,0,0,0,.922.882m10.047.326a3.579,3.579,0,0,0,.37-.351m-.746-.52a4.855,4.855,0,0,0,1.078-.921m1.862,104.921v0a31.055,31.055,0,0,1,.47,6.883,3.736,3.736,0,0,1-3.446,2.741,3.631,3.631,0,0,1-3-2.608,33.856,33.856,0,0,1,.365-6.408,10.123,10.123,0,0,1,.889-3.021v0m-.17-25.992c.116,2.449.719,12.768.757,13.955.038,1.233.116,5.329.116,5.926s-.038,1.393-.078,1.99a15.15,15.15,0,0,0-.505,2.585,6.913,6.913,0,0,1-.119,1.536v0c-.108.7-.265,1.5-.389,2.241a20,20,0,0,0-.392,4.734c.195.715,1.446,1.072,2.7,1.113s2.384-.121,2.657-.916a30.842,30.842,0,0,0,.154-4.76v0c-.014-1.159-.038-2.12-.038-2.318,0-.518.373-.972.332-1.807a8.263,8.263,0,0,1-.051-2.229c.154-1.072,1.36-7.659,1.636-10.165s.467-5.729.586-7.319c.089-1.228.2-3.831.251-4.952m-19.838.431c.5,3.872,1.67,12.991,2.146,15.347.5,2.462,1.281,7.073,1.4,8.206a20.247,20.247,0,0,0,.319,2.636,6.827,6.827,0,0,1,.135,1.182v0a15.859,15.859,0,0,1-.046,2.005c-.078.782-.27,3.244-.232,3.908s1.5.977,2.919.9,1.881-.156,2.379-.744a7.686,7.686,0,0,0,.305-3.067v0c-.016-1.228-.1-2.477-.151-3.029-.116-1.172-.614-2.267-.576-3.164a22.746,22.746,0,0,0-.614-2.972c-.078-.782-.384-10.945-.308-13.643.073-2.567.2-6.516.116-7.532m-3.792,27.339a29.242,29.242,0,0,0-.546,3.685,26.6,26.6,0,0,0-.114,4.339,2.767,2.767,0,0,0,2.725,2.7,3.326,3.326,0,0,0,3.108-1.68c.422-.782.462-1.8.346-3.752-.046-.767-.119-1.58-.195-2.287m-.238-44.279c2.781-2.085,7.466-11.527,7.466-11.527m-20.327-5.918v0a81.637,81.637,0,0,0-.13,12.819c.184,3.249,1.246,11.835,1.492,12.994.154.734.565,4.659.562,5.1a.426.426,0,0,0,.432.418c.324.005.814.01,1.419.018,1.946.02,5.087.046,7.79.036,1.306-.007,2.508-.021,3.425-.048.324-.008.665-.021,1.011-.033,2.53-.09,5.552-.254,7.612-.385,1.065-.067,1.87-.126,2.216-.161,0,0-.141-8.824.165-11.724s.17-6.847.229-10.093a43.42,43.42,0,0,0-.687-9.06m-9.674,9.514c.2-.036.416-.151.311-.474m-1.322.859a2.849,2.849,0,0,0,.311.069.921.921,0,0,0,.708-.1c.1-.1.065-.233-.008-.357a1.174,1.174,0,0,0-.111-.154m-1.676.918a1.867,1.867,0,0,0,.962-.036.225.225,0,0,0,.124-.274m-2.406.531c.024.154.289.205.862-.025.143-.059.3-.123.457-.195.251-.113.516-.241.776-.38.076-.041.149-.079.222-.12.238-.134.47-.275.678-.418l.1-.069c.1-.072.208-.159.322-.251a14.2,14.2,0,0,0,1.652-1.652,18.341,18.341,0,0,0,1.13-2.213m-7.255,4.754c-.224.279-.538.626-.311.936.17.236.816-.054,1.368-.367.176-.1.343-.2.481-.29a17.033,17.033,0,0,0,1.835-1.313,6.484,6.484,0,0,0,.587-.59m-5.044.882c-.373.359-.7.728-.595,1.087.122.411,1.125-.1,1.679-.346s.779-.328,1.192-.556,1.749-1.264,1.749-1.264m-1.176-4.1s-.2.518-.468,1.093a8.976,8.976,0,0,1-.484.91,7.6,7.6,0,0,1-1.906,1.969c-.219.134-.427.262-.6.38a2.873,2.873,0,0,0-.454.359c-.189.2-.33.574.224.608a2.293,2.293,0,0,0,.838-.139c.273-.087.565-.2.911-.3.708-.213,1.833-1.346,2.006-1.38m.838-4.752a8.713,8.713,0,0,0-1.373.944,2.5,2.5,0,0,0-.465.869m.465.536c-.141-.159-.3-.344-.465-.536-.316-.366-.646-.756-.868-1.033-.111-.136-.235-.277-.37-.421a12.391,12.391,0,0,0-1.227-1.128m-3.749,2.521a12.611,12.611,0,0,0,1.765,2.608,7.049,7.049,0,0,0,1.925,1.249m3.036-14.14a.672.672,0,1,0,.646.672.661.661,0,0,0-.646-.672Zm.168-3.975a.631.631,0,1,0,.57.628.6.6,0,0,0-.57-.628Zm-1.53-5.762a15.023,15.023,0,0,0,2.16.033m3.4-14.8a7.547,7.547,0,0,0-2.381.941m-2.589.036a10.219,10.219,0,0,0-3.03-.767m.568,4.541a10.126,10.126,0,0,0,3.925.713,8.756,8.756,0,0,0,3.43-.682m4.945,4.6,1.482-.123.282-.909a10.413,10.413,0,0,1-2.228.351m-7.955,11.3a27.333,27.333,0,0,0,2.289-1.882c.9-.877,4.771-6.7,5.666-9.419.041-.118.073-.231.1-.339.657-2.541,1.373-7.421,1.373-7.421l-3.447-.877-2.427-.618m2.427.618,2.479-1.518a20.546,20.546,0,0,0-1.214-1.893,12.483,12.483,0,0,0-2.489-2.649m-9.288,5.539-2.206.81-3.419,1.259a50.493,50.493,0,0,0,2.346,8.939c1.322,3.416,6.036,8.122,7.59,9.614,0,0,0,0,0,0,.157.152.281.27.368.349m-5.974-26.323a22.167,22.167,0,0,0-3.241,3.978l2.327,2.182m6.7,19.533a28.058,28.058,0,0,0,2.819-7.26,51.894,51.894,0,0,0,.692-7.845c.035-1.218.051-2.3.065-3.072.008-.533.013-1.118.013-1.71,0-.185,0-.369,0-.554,0-1.108-.005-2.177-.011-2.867v0m-5.933,36.814a21.475,21.475,0,0,0,2.946-6.947,19.077,19.077,0,0,0-.405-5.926c-.046-.174-.1-.346-.151-.516-.011-.038-.024-.077-.038-.115a7.393,7.393,0,0,0-.576-1.318,17.858,17.858,0,0,1-1.389-3.806,73.478,73.478,0,0,1-1.552-7.611c-.084-.551-.2-1.405-.327-2.4-.178-1.382-.384-3.039-.568-4.541-.027-.228-.054-.451-.081-.667-.249-2.026-.438-3.626-.438-3.626m13.485,37.291a8.784,8.784,0,0,0,3.336-2.926,2.069,2.069,0,0,0,.4-.759c.038-.574-.641-4.4-.641-4.4m-25.69.68v0c-.127,1.008-.268,2.2-.308,2.79a3.294,3.294,0,0,0,.7,1.813m0,0a5.905,5.905,0,0,0,2.425,2.1m.876-18.235-.532,2.218v0m19.454-.682v0l-.292-1.867m-2.595,3.593a31.418,31.418,0,0,0,2.595-3.593c.722-1.09,1.314-2.018,1.365-2.1a.007.007,0,0,0,0-.005s.576-1.492,1.2-3.29a39.5,39.5,0,0,0,1.476-4.977c.454-2.505,1.187-5,1.187-5m-3.868,13.27c-.032.126-.557,2.164-1.073,3.962v0c-.273.949-.543,1.834-.735,2.331-1.984,5.147-7.547,14.46-7.547,14.46s.151.169.433.431a12.39,12.39,0,0,0,2.4,1.751,6.555,6.555,0,0,0,2.187.674,12.319,12.319,0,0,0,1.741.128.807.807,0,0,0,.754-.495c.168-.418.435-1.085.751-1.882,1.038-2.618,2.625-6.657,3.1-8.088.716-2.185,3.735-11.527,4.035-15.607.17-2.28.368-4.459.389-6.344a13.552,13.552,0,0,0-.37-3.821,4.488,4.488,0,0,0-2.016-2.936l-8.82-2.687m-19.438,4.7c.608.757.86,2.649,1.095,4.024.184,1.09,1.487,6.531,2.3,9.467.214.767.392,1.364.508,1.667a5.537,5.537,0,0,0,.322.685,17.193,17.193,0,0,0,2.622,3.442c1.06.964,1.925,1.61,1.925,1.61m-.089-25.434-8.834,2.559s-1.6.659-2.565,3.8-.332,10.019-.1,12.142a50.24,50.24,0,0,0,1.749,9.3c.287.856.887,2.38,1.6,4.11v0c.9,2.2,1.981,4.751,2.817,6.7.438,1.023.808,1.882,1.049,2.441a.886.886,0,0,0,1.081.469c.47-.151,1.105-.366,1.765-.633a10.922,10.922,0,0,0,2.479-1.3,5.276,5.276,0,0,0,1.27-1.218c.135-.22.073-.29.073-.29s-4.311-7.162-4.965-8.45-2.011-4.567-2.2-5.1a15.76,15.76,0,0,1-.211-1.931v0c-.108-1.356-.219-3.165-.3-4.57m9.647-14.189a4.07,4.07,0,0,0,1.276.169,2.13,2.13,0,0,0,1.041-.223m.927-20.251a.2.2,0,0,0,.03-.087.244.244,0,0,0-.132-.238.3.3,0,0,0-.1-.026l-3.3-.31a.112.112,0,0,0-.027,0,.258.258,0,0,0-.062.008.24.24,0,0,0,.038.475l.119.01m3.333-.154a.24.24,0,0,0,.189-.21.243.243,0,0,0-.227-.264l-.062-.005-.557-.054-.811-.074-1.338-.125-.273-.026-.265-.026-.024,0a.253.253,0,0,0-.254.218.239.239,0,0,0,.133.238m2.365-4.905a3.539,3.539,0,0,0-2.544.713c-1.76,1.208-.1,3.121.589,3.765m2.979.279a6.267,6.267,0,0,0,1.254-1.123,5.337,5.337,0,0,1,.511-.528c.359-.328.657-.554.657-.762,0-.3-.127-.462-.827-1.167s-2.189-1.654-2.508-1.351a.859.859,0,0,0-.111.175c-.408.785-1.435,3.774-1.681,4.5m6.679,13.932v-.005l0,0c.4-1.372,1.241-1.782,1.468-2.236a2.349,2.349,0,0,0,.157-.415,9.043,9.043,0,0,0,.284-1.783,13.515,13.515,0,0,0-1.046-5.075,7.373,7.373,0,0,0-4.636-3.357,8.221,8.221,0,0,0-2.041-.254,11.078,11.078,0,0,0-1.395.082,7.134,7.134,0,0,0-4.755,2.639,9.206,9.206,0,0,0-1.957,5.546,4.161,4.161,0,0,0,.43,2.185c.2.4.427.708.562,1.008.192.428.459.941.632,1.262.038.069.07.131.1.179m1.616,3.705h.008c.492-.046,2.771-.254,3.19-.254a7.686,7.686,0,0,0,.881-.054,22.768,22.768,0,0,1-.111-2.721,7.047,7.047,0,0,1,.141-1.359s.108,3.923.633,4.054c0,0,2.592,0,3.281.026.468.018,1.414.072,1.979.105.268.016.449.028.449.028s.081-.628.124-1.492c.016-.328.027-.69.024-1.064,0-.244-.005-.5-.019-.744v-.01a8.061,8.061,0,0,0-.268-1.818c-.138-.469-.324-.98-.532-1.493-.122-.295-.249-.587-.376-.872-.546-1.216-1.108-2.275-1.243-2.529m-7.8.549s-.316,1.187-.624,2.526c-.214.926-.424,1.921-.527,2.649a5.91,5.91,0,0,0-.062.713,19.478,19.478,0,0,0,.949,5.416c.013.028.03.054.043.077,0,0-.092-.759-.127-1.734a13.044,13.044,0,0,1,.127-2.557,8.709,8.709,0,0,1,.665-2.323m-1.592.408h0a9.5,9.5,0,0,0-.849.538c.008.072.016.149.027.228.035.29.084.626.146.987.022.131.046.264.073.4.03.167.065.339.1.513a18.8,18.8,0,0,0,.5,1.913c.035.1.07.205.105.305a7.976,7.976,0,0,0,.595,1.336,3.871,3.871,0,0,0,.26.387c1.065,1.38,2.519,3.052,4.465,3.07a5.675,5.675,0,0,0,4.046-2.408v0a6.052,6.052,0,0,0,.865-1.495,11.282,11.282,0,0,0,.349-1.077c.024-.092.049-.185.073-.279.013-.049.024-.1.038-.149m.573-1.464a.651.651,0,0,0,.308.077.619.619,0,0,0,.635-.6.6.6,0,0,0-.362-.543.688.688,0,0,0-.273-.059.65.65,0,0,0-.284.064m.557-.005a7.665,7.665,0,0,0,1.284-2.429c.13-.477.124-.89-.232-.974m-13.677,3.42a.659.659,0,0,0-.308-.077.688.688,0,0,0-.273.059.6.6,0,0,0-.362.543.619.619,0,0,0,.635.6.644.644,0,0,0,.484-.213m-1.614-4.352c-.024,0-.051,0-.078,0-.47.021-.492.467-.349.99a7.666,7.666,0,0,0,1.284,2.429m7.458,5.749a1.016,1.016,0,0,1-.735.369,1.039,1.039,0,0,1-.819-.369" transform="translate(-110.671 48.782)" fill="none" stroke="#b3b0a7" stroke-linecap="round" stroke-linejoin="round" stroke-width="0.5"/><path d="M779.8,1360.709c-.065-.336-.774-.383-.982-.275a.636.636,0,0,0-.276.413c-.032.259-.032.811.582.749a.715.715,0,0,0,.676-.888Zm-.839-5.479A.732.732,0,0,0,780,1355a.7.7,0,0,0-.243-.842,1.029,1.029,0,0,0-1.047.2.842.842,0,0,0,.257.87Zm-5.521-35.039-.652-3.972m13.146,3.875-.479-.115c-4.463,2.864-10.371-2.967-10.371-2.967-.051,1.15-1.36,2.007-1.577,3.218v0m1.331,3.4-.168.072-.008.005a14.59,14.59,0,0,0-2.034,1.334c-.633.1-4.031,1.524-6.219,2.448a14.078,14.078,0,0,1-2.794,1s-.684-.3-1.052,1-.766,2.974-1.293,4.575a62.654,62.654,0,0,0-2.056,7.1c-.079,1.1-.319,11.009-.184,11.789.16.9.582,1.111,1.106,1.961,1.055,3,4.745,8.376,4.745,8.376a14.8,14.8,0,0,0-.2,1.571,6.733,6.733,0,0,0,1.307,5.055s-.5,4.25-.133,5.849c.27,1.168.33,2.266.525,3.755,0,.01,0,.018,0,.028.073.547.165,1.145.289,1.819.476,2.525,1.16,9.1,1.4,12.523a64.5,64.5,0,0,1,.262,10.2,99.787,99.787,0,0,0,.617,11.717c.119,1.239.216,2.153.254,2.458.13,1.124-.527,7.15-.527,7.15l-.054.393s.519.033,1.247.074c.793.041,1.839.09,2.721.1a9.512,9.512,0,0,0,1.637-.064,3.257,3.257,0,0,1,1.3.072c.167.039.333.082.476.126a5.365,5.365,0,0,1,1.05.57l.368-2.3s.476-9.651.562-11.317c.2-3.759-.536-8.6-.322-11.728m-3-77.641a4.392,4.392,0,0,0-.4,2.333c.022.228.1.816.224,1.647.033.21.065.439.1.68.565,3.793,1.7,11.019,2.248,14.235.111.665.2,1.16.249,1.414a61.973,61.973,0,0,0,2.291,6.7s1.5-4.35,2.161-6.775c.051-.19.116-.454.189-.78v0c.03-.118.057-.244.087-.377.719-3.218,2.172-10.758,2.835-14.245.113-.593.2-1.067.262-1.386.046-.254.073-.405.078-.436a8.283,8.283,0,0,0-.446-3v0m-9.711-.108c-.079.044-.138.082-.16.095m-6.6,70.189s.985,4.509,1.934,6.007m5.532,9.449a29.922,29.922,0,0,0,2.129-8c0-.015,0-.028,0-.041.046-.369.065-.608.07-.688a.212.212,0,0,0,0-.028M794.3,1352.51a9.805,9.805,0,0,0-1.745.418m-21.894,15.664a9.49,9.49,0,0,0,1.028,1.2l.151-.133,2.169-1.917,1.572-1.537.133-.128-.406-.354m7.566,7.011a10.862,10.862,0,0,0,3.863-3m-4.94,4.953c1.915.067,7.363-.9,8.445-1.565a6.73,6.73,0,0,0,1.661-1.376m-11.461,2.759c.176.033.365.069.568.1m-5.922-1.319s.119.052.46-.149c.143-.085.473-.31.809-.552m-.557,1.676s.839-.659,1.426-1.132m-4.588-48.081-1.791,3.3,1.052,1.524m14.837.226,1.16-1.75-1.477-2.776m-11.937,2.125-2.554,2.207-1.847,1.594s1.16,4.049,1.872,5.851,6.692,15.125,6.692,15.125l0,0,.736-1.748m-.736,1.748a95.412,95.412,0,0,0,6.411-10.167c.119-.231.23-.459.332-.68.057-.121.114-.241.168-.362a77.365,77.365,0,0,0,3.416-9.464l-2.242-1.7-2.053-1.552m-6.035,23.925a11.629,11.629,0,0,0-.817,3.7c.16,1.124-.368,4.2-.211,5.625s1.133,5.948,1.133,5.948m.054-33.551v.005c0,.033.022.208.473.321a1.322,1.322,0,0,0,1.317-.226m2.873,31.826.032.044a.009.009,0,0,1,0,.005,25.482,25.482,0,0,0,1.863,2.325c.479.475,1.085.988,1.377,1.232.109.09.176.144.176.144a2.517,2.517,0,0,0,1.239-.475m-7.761,4.9s0,0,.006,0a.008.008,0,0,1,.005,0s0,0,0,0a6.15,6.15,0,0,0,.6.3,3.177,3.177,0,0,0,.311.118.6.6,0,0,0,.476-.033c.163-.082.3-.441.3-.441.444.177.825-.026.784-.339s-.535-.726-.535-.726c.357.069.568-.126.533-.444a.886.886,0,0,0-.076-.267,37.587,37.587,0,0,0-2.491-2.961c-.254-.313-.668-.829-1.055-1.232a3.5,3.5,0,0,0-.538-.482.641.641,0,0,0-.173-.1c-.422-.151-1.607-.652-1.9-.8-.265-.136-.947-.606-1.063-.688l-.019-.013m-3.714,3.475a13.71,13.71,0,0,0,3.254,2.225.945.945,0,0,1,.124.049c.235.108.652.346,1.131.639.279.169.576.357.868.544.327.213.652.426.939.621.219.149.419.287.579.4.073.054.138.1.192.146s.095.069.138.1c.027.018.054.039.078.057.612.439.841.439,1.117.415.176-.016.192-.208.173-.367a1.113,1.113,0,0,0-.043-.208m-5.177-2.341a2.673,2.673,0,0,0-.435.69c-.065.249.092.624.3.636a1.99,1.99,0,0,0-.46.65c-.054.251-.027.662.633.588.446-.123.538-.262.538-.262s-.013.313.2.4a2.363,2.363,0,0,0,1.569-.488.4.4,0,0,0,.365.416,1.814,1.814,0,0,0,1-.29m.027-4.353s.527.652.844,1a17.242,17.242,0,0,0,2.532,2.235m-3.743-1.835a9.764,9.764,0,0,0,1.077,1.078,13.161,13.161,0,0,0,2.472,1.838m-.493,56.011s3.092.493,3.565,1.308c.446.765.319,1.312.852,1.719a1.008,1.008,0,0,0,.117.079,8.663,8.663,0,0,0,3.089.9c.671,0,5.467.149,5.948-.682m-32.228.949a16.931,16.931,0,0,0,2.968.367c1.618.049,5.464.1,6.289-.949.051-.067.1-.131.141-.195.638-.96.311-1.732,1.3-2.107,1.052-.4,3.135-1.042,3.135-1.042m9.8-114.651-.687,4.126v.008l-.024.141m9.67,9.551a32.6,32.6,0,0,0-1.974,5.05c-.422,1.85-1,3.6-1.106,4.6s-.793,3.452-.793,4.524m-24.783-.162c.04-2.787-.987-6.513-1.515-9.462a30.089,30.089,0,0,0-1.793-5.851m15.373-4a.869.869,0,0,0,1.653-.049m-1.055,5.651a1.833,1.833,0,0,0,.844-.026m6.067,11.025a35.293,35.293,0,0,0,4.212-.526m1.837,12.362c-.089-.76-.336-2.4-.444-3.336-.13-1.15.105-3.623.054-3.875s-.449-1.75-.449-1.75-.368,2.4-.473,3.652a26.982,26.982,0,0,0,.051,5.8c.122.7.268,1.406.409,2.007a14.574,14.574,0,0,0,.885-2.133c0-.062-.011-.187-.032-.364m-9.054,13.234c-.041-.044-.078-.085-.114-.126a2.026,2.026,0,0,1-.13-.169s4.8-5.4,5.191-6.023,2.716-3.077,2.9-3.6c.057-.159.192-.465.354-.819m-8.2,10.742c1.166,1.247,4.217,2.856,4.655,3.226a13.315,13.315,0,0,0,1.661,1.026s-.054.049.106-.026c.119-.057,2.083-4.175,2.083-4.175m-27.117-2.926s3.162,5.825,3.319,6.5c0,0,1.582-.824,2.451-1.2a41.8,41.8,0,0,0,3.822-2.325c.392-.259.676-.444.825-.544l.124-.079s-2.794-3.226-3.822-4.524a44.245,44.245,0,0,1-3.135-4.95c-.127-.326-1.358-2.168-1.907-2.956m-.254-.344c.03.031.122.159.254.344a.8.8,0,0,0,.163-.231,13.855,13.855,0,0,0,.928-5.6,13.463,13.463,0,0,0-.725-3.575,10.023,10.023,0,0,1-.619,2.538s.105,3.2.054,3.675,0,1.876-.054,2.851m17.074,13.167-.038.008s-2.583.323-2.818.423a3.462,3.462,0,0,0-.8.639,7.814,7.814,0,0,1-.977.636m.5.531a5.78,5.78,0,0,0,1.515-.857c.133-.161.081-.123.081-.123m-2.683,6.452-.6.423m-11.569-4.25s6.589,6.724,11.807,4.724c.044-.018.087-.038.127-.059m-.089-2.33s.7.67,1.526,1.327c.338.267.7.452,1.036.716m-10.525,51.589a1.3,1.3,0,0,0-.509.608,14.207,14.207,0,0,1-1.634,2.9c-.868,1.375-3.162,2.674-4.112,3.475a1.571,1.571,0,0,0-.631,1.675l-.186.1c-.211.226-.184,1.15-.184,1.15a14.44,14.44,0,0,0,8.275-.516,2.643,2.643,0,0,0,1.72-1.383c.014-.018.027-.039.043-.062a.978.978,0,0,1,.952-.439,5.5,5.5,0,0,0,3.268-.949l-.054-1.825m0,0v0s.133.275.078-1.352a6.54,6.54,0,0,0-.89-3.144m-3.416-.134a3.427,3.427,0,0,1,.987.485,1.993,1.993,0,0,0,1.685.385c.219-.095.268-.513.268-.862m6.76-.3a12.407,12.407,0,0,0-.809,3.567,1.935,1.935,0,0,0,.16,1v1.925s1.4.5,2.107.726.793.023,1.45.2a1.536,1.536,0,0,1,.446.187c.016.013.032.023.046.033a.93.93,0,0,1,.108.087,2.549,2.549,0,0,1,.349.467c.763,1.25,2.5,1.3,6.059,1.373s3.4-.624,3.4-.624-.027-.927-.395-1.049c.106-1.05-1.45-2.276-2.189-2.6a12.692,12.692,0,0,1-2.765-2.577,12.54,12.54,0,0,1-1.222-2.107c-.054-.11-.108-.213-.168-.31m-6.189-.38a.875.875,0,0,0,.314.672c.387.234,1.16-.1,1.723-.6a2.009,2.009,0,0,1,.306-.221m-12.234-109.254,0,0a.67.67,0,0,0-.062-.064c-.157-.156-.576-.508-.911-.208-.422.375.265,1.1.317,1.524a15.3,15.3,0,0,0,.484,2.017c.111.249.167.552.511.644a1.971,1.971,0,0,0,.317.062.163.163,0,0,0,.051,0l.016.039m0,0c.019.046.049.131.089.244.233.621.644,1.8,1.182,3,.008.021.027.072.051.131a.04.04,0,0,0,.008.023c.03.085.068.179.078.21a11.834,11.834,0,0,0,.847,1.65c.649.921,2.689,2.795,4.263,2.718,1.334-.067,3.143-1.791,3.96-3.367.176-.341.359-.726.541-1.126,0-.008.008-.015.011-.023.652-1.448,1.269-3.082,1.371-3.452l.032-.008a1.362,1.362,0,0,0,.2-.067,1,1,0,0,0,.535-.6c.176-.423.255-1.352.419-1.9.16-.526.719-1.553.4-1.876a.5.5,0,0,0-.768.054,1.019,1.019,0,0,0-.094.11l-.008.01m.008-.01a11.567,11.567,0,0,0,.281-3.28c-.157-2.251-2.789-3.87-4.585-4.434-2.862-.9-7.008-.167-7.923,1.832-1.125.267-1.531,1.527-1.669,3a24.514,24.514,0,0,0,.051,3.141m11.754,7.478,0,.023-.022.352a5.728,5.728,0,0,1-.606,2.2c-.66,1.6-3.268,3.375-3.373,3.5a.522.522,0,0,0-.105.3,8.156,8.156,0,0,1,1.071,1.1c.692.783,1.458,1.7,1.458,1.7.052-.5,1.055-2.951,1.317-3.775.181-.565.468-1.442.633-1.94m-3.408,4.019a23.633,23.633,0,0,0-.914,3.12,15.276,15.276,0,0,0,.711,2.451,8.272,8.272,0,0,1,.476,1.925,36.308,36.308,0,0,1,.038,4.116m-3.016-8.592a13.812,13.812,0,0,0-.452-2.612m.452,2.618c-.086.536-1.371,3.1-1.582,4.322-.176,1.024-.333,3.349-.379,4.085m-2.256-14.261.008.026a8.112,8.112,0,0,0,1.02,1.925,29.918,29.918,0,0,1,1.579,2.674l1.158-1.388,1.242-1.486a.677.677,0,0,0-.206-.221,28.229,28.229,0,0,1-3.768-3.567,9.289,9.289,0,0,1-.857-2.428m9.773-.162h.013m-5.4,50.737a12.084,12.084,0,0,1,.181,2.463c.024,1.026.289,5.151.289,5.151s-.133,4.1-.078,4.775.525,11.5.63,13.426,1.548,14.781,1.548,15.207a11.614,11.614,0,0,1,.211,2.867c-.184,1.075-.562,7.6-.562,7.6a9.162,9.162,0,0,1,.931-.244c.119-.028.249-.054.389-.079.276-.054.587-.1.928-.144a7.075,7.075,0,0,1,1.414-.005c1.35.1,3.068.39,3.847.529.362.044,1.414.144,1.414.144s-.13-6.377-.368-8.2-.289-13.424-.344-14.874-.657-8.35-.5-10.275,1.45-7.45,1.793-11.476a35.348,35.348,0,0,1,1.106-6.5,12.715,12.715,0,0,0-.079-3.075c1.025-2,.105-5.525.105-5.525s4.136-6,5.507-7.8a12.611,12.611,0,0,0,2.424-5.448,68.285,68.285,0,0,0-.078-7.827,38.3,38.3,0,0,0-1.16-5.5c-.473-1.45-2.212-8.25-2.4-8.925s-.395-.824-.711-.924a8.314,8.314,0,0,0-2.475-1.275c-.476-.175-6.246-2.725-6.695-2.951a14.464,14.464,0,0,1-1.869-1.848m-5.478,50.678a12.325,12.325,0,0,0-.4,2.7c-.051.4-.395,4.473-.395,5.325s-.211,3.824-.184,4.576.078,10.55-.344,13.6m0,.028c-.03.218-.054.447-.07.688m4.29,15.9a12.234,12.234,0,0,0,2.388,2.6m3.373-23.1a26.659,26.659,0,0,0,1.353-3.916m-20.009-48.25c2.74,3.5,5.234,6.367,7.168,7.665m8.854,7.2c2.177-.9,4.953-7.368,5.9-9.567m1.591,3.449c.606.552,2.662.552,2.662.552m-31.868-.367a5.408,5.408,0,0,0,2.932-.608c-.649-.008-3.354-2.194-3.354-2.194" transform="translate(13.531 48.535)" fill="none" stroke="#b3b0a7" stroke-linecap="round" stroke-linejoin="round" stroke-width="0.5"/></g></g></svg>