<svg xmlns="http://www.w3.org/2000/svg" xmlns:xlink="http://www.w3.org/1999/xlink" width="285" height="78" viewBox="0 0 285 78"><defs><clipPath id="a"><rect width="285" height="78" transform="translate(13 9)" fill="#fff" stroke="#707070" stroke-width="1"/></clipPath></defs><g transform="translate(-13 -9)" clip-path="url(#a)"><path d="M527.931,2908.636a21.82,21.82,0,0,0-.442-5.128c-.676-3.417-2.535-6.123-2.817-9.6-.227-2.8.642-7.078-.378-11.184-1.159-4.668-4.354-8.212-4.99-9.094a8.068,8.068,0,0,0-6.583-3.006,7.022,7.022,0,0,0-5.255-1.245c-3.226.46-8.712,2.534-11.709,7.33-2.814,4.5-2.812,14.042-2.075,16.863m31.5,217.833v0a43.816,43.816,0,0,1,.236,6.386.4.4,0,0,0,.364.406l.519.043a.4.4,0,0,0,.429-.42c-.042-.661-.106-1.888-.067-2.661.133-2.615-.188-5.947.043-8.424h0m-24.021,3.662c1.851,1.531,1.625,7.658,1.516,9.454a.426.426,0,0,0,.465.451l.818-.068a.357.357,0,0,0,.324-.355c0-.835-.014-3.113-.071-4.887a43.785,43.785,0,0,1,.81-6.547m5.81,6.685c-1.405,2.647-2.232,4.86-2.886,6.258-.688,1.473-1.775,5.823-.354,6.671s6.471-.231,10.07-2.16,4.777-4.1,5.15-6.881c.35-2.591.138-5.019.846-7.611v0q.076-.283.169-.571c.53-1.637,1-2.85,1.355-4.1h0a17.788,17.788,0,0,0,.59-2.9,4.856,4.856,0,0,0-2.158-5.032m-8.688-10.829a82.434,82.434,0,0,1-.509,10.647c-1.041,5.746-2.911,13.4-3.584,16.512-.062.282-.113.528-.153.729-.48,2.438-.533,3.845,1.215,4.475a8.766,8.766,0,0,0,6.779-1.177c1.763-1.276,3.932-6.088,4.3-7.915s-.394-5.635-.164-7.352.853-2.115.766-4.062a7.79,7.79,0,0,1,.034-1.027,55.579,55.579,0,0,1,1.3-6.33c.08-.359.223-1.1.4-2.076m-40.765,25.182a15.712,15.712,0,0,0-2.683,1.986c-.872.668-4.465,2.924-5.44,3.592a1.266,1.266,0,0,0,.462,2.361c1.334.41,7.391.206,10.47.155s6.467-1.284,7.134-3.543a17.952,17.952,0,0,1,3.644-7.081,8.732,8.732,0,0,1,3.019-2.649c.354-.165.728-.3,1.189-.483a4.635,4.635,0,0,0,2.673-1.47c.568-.782.9-2.052.562-4.174-.651-4.1-2.874-5.635-3.775-6.094m-9.089-12.375h0c.018,1.68,0,3.274-.085,4.71-.255,4.514-1.109,13.483-3.728,18.24a54.948,54.948,0,0,1-4.352,6.824,7.918,7.918,0,0,1-.882,1.028c-.4.316,1.11,1.586,3.252,1.667a10.312,10.312,0,0,0,7.155-3.16,31.921,31.921,0,0,0,7.755-16.272,4.162,4.162,0,0,0-.026-.664c-.16-1.544-.9-4.166-.766-6.553a38.1,38.1,0,0,1,.778-4.642m-10.774-129.607a43,43,0,0,0,12.839,3.154c6.915.507,20.288-.751,23.553-1.893m-40.5-35.163a6.308,6.308,0,0,0-5.768,5.757m20.594,59.475s4.833,9.5,5.5,15.167c.327,2.782,1.861,14.289,3.336,25.277,1.53,11.387,3,22.221,3,22.221.4,4.768.391,24.23.281,26.538a55.853,55.853,0,0,0,.329,8.892,2.636,2.636,0,0,0,.714,1.172,9.228,9.228,0,0,0,5.439,2.345,23.552,23.552,0,0,0,4.955.079,16.073,16.073,0,0,0,3.065-.628c2.527-.77,4.285-5.713,4.285-5.713s-.235-33.517.1-41.017,1.5-26.5,1.5-35.165a152.534,152.534,0,0,0-1.833-23.5,69.872,69.872,0,0,0-5.461-19.239m-36.06-1.26c-1.644,4.167-4,15.834-4.832,26.5s1.387,43.991,1.72,49.158,1.634,27.839,1.634,27.839c.285,2.943.656,16.421.656,16.421a22.36,22.36,0,0,0,2.629,2.012h0a9.949,9.949,0,0,0,4.622,1.831,15.838,15.838,0,0,0,4.478-.652,14.329,14.329,0,0,0,4.641-1.984,8.163,8.163,0,0,0,1.758-2.747s1.726-39.3,2.386-53.1m7.373-134.624a1.267,1.267,0,1,0,.547.124,1.268,1.268,0,0,0-.547-.124Zm-7.141,9.451h0c.753-.825,1.6-1.983,2.146-2.711m-14.335,14.261h0a56.155,56.155,0,0,0,4.5,8.233m-7.225-40.956c-.211-.289-.713-.079-.925.714s-1.135,3.143-1.5,4.094a18.066,18.066,0,0,0-.767,3.012c-.139.7-.37,1.893-.566,2.951-.1.541-.19,1.048-.252,1.434a4.728,4.728,0,0,0,.264,2.536c.238.739,2.3,5.256,2.8,7.4s-1.515,5.041-2.566,7.225l-.56,1.161c-1.1,2.286-3.252,6.734-4.9,10.149-1.049,2.167-1.9,3.917-2.147,4.435a64.763,64.763,0,0,0-3.041,7.548c-.085.292-.152.554-.2.78-.388,1.986.13,5.782,3.367,7.077a5.417,5.417,0,0,0,5.2-.7,7.122,7.122,0,0,0,1.577-1.453c.862-1.122,3.107-10.012,3.84-12.73.512-1.9,2.013-8.3,3.108-12.9h0c.223-.937.429-1.8.606-2.535.2-.823.362-1.484.472-1.91a38.629,38.629,0,0,1,2.489-6.3m-4.866-22.1a.808.808,0,0,0-.66-.872c-.316-.08-.633.106-.766,1a50.155,50.155,0,0,1-1.374,4.993c-.4,1.189-1.162,5.151-1.162,5.151m5.057-6.546c.223-2.347-.092-3.676-1.095-3.729-.5-.026-.423,1-.528,2.22s-1.559,7.555-1.77,8.188m4.009-6.1h0a.964.964,0,0,0-.314-.481.473.473,0,0,0-.3-.091c-.37.019-.461.395-.493.892-.006.1-.01.2-.014.3-.022.639-.022,1.654-.068,2.315s-.793,4.72-.793,4.72m-5.231,18.7c-3.311.446-4.833.844-6.307,3.11-1.625,2.494-5.076,9.589-5.459,11.656a12.5,12.5,0,0,0,1.674,7.366m17.5-22.467a11.836,11.836,0,0,0,3.743-1.922m-12.874,31.542c.006,1.063-.476,5.288-.6,7.674-.133,2.518.4,2.916.4,3.976a9.688,9.688,0,0,0,1.128,3.115l-.133,6.5a145.6,145.6,0,0,0,15.643,2.188c7.823.6,20.417-.928,20.417-.928l.464-6.5a20.721,20.721,0,0,1,.729-3.912c.729-2.983,1.723-5.767,1.922-7.756s1.392-3.645,2.518-5.833c.975-1.893.81-3.338,1.048-5.026m-12.526-17.828s-1.485,1.546-2.847,3.217c-1.294,1.59-3.374,4.749-3.679,6.81h0m9.826,8.359c2.393,1.606,6.577.46,9.228-.56.529-.2,1-.4,1.379-.573,2.47-1.105,4.793-3.243,4.793-4.535s-.48-7.483-.921-11.687-.848-6.894-2.877-8.3-4.091-.884-5.026-.944a5.77,5.77,0,0,1-2-.717c-.716-.409-1.381-1.023-2.3-.819a2.19,2.19,0,0,0-.295.093,16.049,16.049,0,0,0-1.791.877,25.193,25.193,0,0,0-5.029,3.534,76.571,76.571,0,0,0-7.2,9.041m26.67,7.76a8.332,8.332,0,0,0-1.2-2.674,7.815,7.815,0,0,0-2.827-2.269,23.775,23.775,0,0,0-8.127-2.133c-6.9-.8-10.079,2.535-12.3,5.54m0,0q-.216.29-.422.576m-3.5-34.854h0a26.323,26.323,0,0,1,.4-2.727c.059-.649.8-3.689,1.948-3.689s.591,1.86.561,3.719-.117,4.014-.147,4.6a16.126,16.126,0,0,1-1.358,4.664,17.257,17.257,0,0,0-1.256,3.373h0a7.563,7.563,0,0,0-.19,1.525c-.03,1.506.594,9.209,1.022,12.868a37.02,37.02,0,0,0,.723,3.716c.533,2.265,1.239,4.855,1.789,6.8.5,1.75.863,2.979.863,2.979m-3.541-36.075s-.4-.857-.817-1.758h0c-.339-.729-.695-1.486-.866-1.842-.382-.8-2.272-5.283-2.686-6.257s-1.3-3.57-1.829-4.515-.8-1.092-1.3-1.063c-.421.025-.594.612-.655,1.184h0m3.134,9.557a39.753,39.753,0,0,1-1.475-4.161c-.266-1.034-1.388-4.487-1.624-5.284-.01-.037-.022-.075-.035-.112h0c-.059-.193-.125-.391-.2-.577h0c-.225-.555-.533-1.02-.974-1.02-.619,0-1.033.737-.885,1.652.01.064.032.171.063.313h0c.059.277.156.689.275,1.192.69,2.89,2.17,8.734,2.17,8.734m-2.446-9.927a.831.831,0,0,0-.8-.255c-1.022.143-.759,2.2-.528,3.484.009.05.018.1.026.146l.143.759h0c.349,1.851,1.077,5.622,1.481,7.387m-1.481-7.387a.742.742,0,0,0-.486-.22c-.314,0-.592.348-.648,1.15h0a5.217,5.217,0,0,0,.012.814c.116,1.387.521,6.7.925,9.71.366,2.711,1.375,4.669,2.218,7.276.092.283.181.573.268.874a22.342,22.342,0,0,1,.515,5.42c.007,1.082-.008,2.194-.024,3.261-.032,2.144.046,6.262.175,9.43.059,1.466.129,2.729.206,3.5.237,2.425,1.424,12.023,1.758,13.735s2.994,3.85,7.509,2.091a46.434,46.434,0,0,0,11.808-6.411q.771-.588,1.546-1.24c3.5-2.941,7.493-8.33,9.06-10.528m-16.509-30.254a5.075,5.075,0,0,0,1.177-1.4c.855-1.51,1.774-4.139,1.512-5.649a1.6,1.6,0,0,0-2.891-.723c-1.052,1.117-1.511,2.036-1.971,1.97s-.461-.853-.789-1.51-1.84-2.956-3.613-5.715a39.6,39.6,0,0,0-5.124-5.914s-1.959,2.816-3.677,5.252m-4.4,5.528c.467-.479.912-.95,1.279-1.353m24.593,24.372a30.509,30.509,0,0,1-3.235-1.273c-2.551-1.2-4.352-2.4-5.177-5.552s.212-7.791.212-7.791a.733.733,0,0,0,.414.356" transform="translate(-286.06 -2860.192)" fill="none" stroke="#b3b0a7" stroke-linecap="round" stroke-linejoin="round" stroke-width="0.611"/></g></svg>