<svg xmlns="http://www.w3.org/2000/svg" xmlns:xlink="http://www.w3.org/1999/xlink" width="287" height="80" viewBox="0 0 287 80"><defs><clipPath id="a"><rect width="287" height="80" transform="translate(179 206)" fill="#fdfcf8" stroke="#6c655d" stroke-width="1"/></clipPath></defs><g transform="translate(-179 -206)" clip-path="url(#a)"><path d="M100.682,2582.045s.365,1.1,1.244.594c.021-.011.04-.023.061-.036m39.023,28.673-4.649.057m-27.281-7.541-9.342.059m73.773-5.988,4.03-.161a1.774,1.774,0,0,0,1.7-1.845l-1.02-22.583a4.791,4.791,0,0,0-4.978-4.594l-21.975-.313M94.821,2597.06c-.45.017-.773,1.116-.718,2.453s.461,2.407.911,2.388.771-1.116.718-2.453-.461-2.407-.911-2.388Zm4.568-7.017a.366.366,0,0,0-.5-.393l-1.143.414a.861.861,0,0,0-.545.636l-.325,1.513a.368.368,0,0,0,.5.4l.822-.3a1.489,1.489,0,0,0,.94-1.1l.251-1.169Zm44.307,27.205c.359.148.811.33,1.295.524m2.508-3.647c-.536.086-1.076.178-1.492.26M95.9,2587.68c.26.1,1.056.178,3.07-1.13m20.914-30.2h0a.089.089,0,0,0-.019.008,22.465,22.465,0,0,0-9.308,6.288c-3.083,3.677-9.016,17.134-9.961,19.44m1.4.516h0a6.558,6.558,0,0,0,1.118.013c.116-.006.234-.013.346-.023a2.06,2.06,0,0,0,.8-.212.509.509,0,0,0,.068-.048.352.352,0,0,0,.046-.049c.013-.019.034-.042.061-.074a.856.856,0,0,0,.173-.325.733.733,0,0,0,.028-.18c0-.021,0-.04,0-.061a17.293,17.293,0,0,0-.152-2.54,1.31,1.31,0,0,0-.042-.184v0a1.411,1.411,0,0,0-.264-.5c-.306-.351-1.524.04-1.952.579a10.2,10.2,0,0,0-.68,2.652c-.1.313-.568.365-.851.393a.184.184,0,0,0-.085.051,4.531,4.531,0,0,0-.547.662,8.025,8.025,0,0,0-1.067,2.113,2.3,2.3,0,0,0-.017,1.678h0c1.758.366,3.89-1.671,3.89-1.671a0,0,0,0,0,0,0,.409.409,0,0,0,.038-.112.26.26,0,0,0,.013-.046l0-.011s0,0,0,0c.009-.045.021-.1.032-.159a2.649,2.649,0,0,0,.036-.325,1.292,1.292,0,0,0,0-.192.49.49,0,0,0-.006-.074.5.5,0,0,0-.009-.091c0-.008,0-.015,0-.023a.286.286,0,0,0-.008-.04v0c0-.023-.01-.043-.015-.065s-.015-.053-.025-.078a.34.34,0,0,0-.021-.047.533.533,0,0,0-.074-.127.467.467,0,0,0-.059-.062,6.9,6.9,0,0,1-.841-.78l0,0m68.9,22.184,2.482,5.506.537-.023-2.436-5.472m.854.042h0a1.616,1.616,0,0,0,1.076-1.782c-.038-.965-.628-1.724-1.317-1.7h-.008m-3.121,1.553h0v0c-.011.765.011,1.714.216,1.787a10.954,10.954,0,0,0,1.715.083h0c.249.006.41.01.583.01h.021a1.724,1.724,0,0,1,.345.082,2.646,2.646,0,0,0,.5.1l-.01-.139-.249-3.478-.015-.266v0m-35.659,15.626a45.255,45.255,0,0,0,.023-5.422,1.194,1.194,0,0,0-.051-.122c-.006-.016-.013-.031-.021-.048s0-.005,0-.008c-.009-.021-.019-.042-.03-.064-.127-.268-.35-.7-.623-1.242l-.087-.17-.089-.177c-.036-.072-.074-.144-.112-.22-.051-.1-.1-.2-.154-.3s-.107-.209-.159-.315c-.027-.051-.053-.106-.082-.159-.051-.1-.1-.205-.154-.31-.013-.023-.025-.047-.036-.072-.043-.085-.089-.175-.133-.262-.279-.56-.562-1.135-.82-1.686l-.076-.161c-.328-.7-.611-1.352-.8-1.859-.011-.034-.025-.068-.034-.1-.023-.061-.044-.119-.061-.177-.011-.038-.023-.072-.032-.106a.751.751,0,0,1-.026-.1.7.7,0,0,1-.027-.1.22.22,0,0,1-.008-.034.222.222,0,0,1-.008-.034.273.273,0,0,1-.008-.04.957.957,0,0,1-.019-.129.082.082,0,0,1,0-.019.464.464,0,0,1,0-.072m-30.321-11.66s-1.743,4.376-2.113,5.826a32.784,32.784,0,0,0-.535,6.432,18.3,18.3,0,0,0,3.3,6.231c1.543,2,6.981,8.663,8.228,8.945a14.215,14.215,0,0,0,3.493.046M102.9,2584.766c-.015.045-.028.082-.04.112h0c1.49.082-1.46,7.165-2.105,8.615-.087.2-.873,1.781-1.363,2.8a28.589,28.589,0,0,0-1.052,7.6c.091,1.477.63,2.4,2.569,5.434a78.147,78.147,0,0,0,8.547,10.09,5.625,5.625,0,0,0,3.825,1.348c.752.032,4.093-.112,7.863-.332M102.917,2584.7l.057-.2a.221.221,0,0,0,.009-.038l.011-.038c0-.013.008-.026.011-.042s.008-.026.011-.042.008-.029.011-.044.015-.059.023-.089c.013-.047.025-.095.038-.144q.023-.1.051-.205c.009-.036.019-.072.027-.11q.028-.111.057-.228l.028-.12c.009-.04.021-.082.03-.123s.019-.084.03-.126m26.934,36.62h0c.788-.074,1.479-.148,2.029-.218,4.357-.562,5.3-1.146,6.081-1.726,2.411-1.707,7.4-9.021,10.3-12.872s3.015-5.881,2.983-6.719-.321-14.442-.33-14.666-.027-1.151-.027-1.151m-48.182.188.209.543h0l.427,1.113a3.689,3.689,0,0,1,.27,2.069l-1.627,5.253c.86.144,1.53.191,2.236.273a2.006,2.006,0,0,0,1.864-.845c.613-.9.909-1.348,1.475-2.24a8.446,8.446,0,0,1,1.34-1.769c.118-.057,1.24-.194,2.267-.311m17.443,14.8v0a.162.162,0,0,1,.008-.029.065.065,0,0,1,.008-.021.138.138,0,0,1,.008-.027.284.284,0,0,1,.015-.038c0-.006.006-.013.008-.019s.006-.011.008-.017v0l.017-.03.017-.029c.008-.013.015-.023.023-.034s.013-.017.019-.027a.6.6,0,0,1,.047-.051.14.14,0,0,1,.015-.017l.015-.013a.127.127,0,0,1,.025-.021.288.288,0,0,1,.027-.023c.017-.014.036-.025.053-.036a.183.183,0,0,1,.027-.015.035.035,0,0,1,.009-.006l0,0,.011-.006c.009,0,.017-.009.027-.013a.037.037,0,0,1,.015-.007.374.374,0,0,1,.04-.019l.034-.013c.017-.008.034-.013.051-.019,0,0,.006,0,.008,0l.036-.011a.1.1,0,0,1,.025-.006s0,0,0,0l.038-.011h.006a.443.443,0,0,1,.051-.014l.053-.011.038-.008a.351.351,0,0,1,.049-.008l.065-.012.063-.007c.021,0,.044-.006.065-.008.169-.019.336-.028.477-.045a.036.036,0,0,1,.015,0,.041.041,0,0,1,.015,0l.078-.006.049,0,.091-.006.063,0h.017c.019,0,.036,0,.055,0s.051,0,.078,0l.14-.006c.04,0,.082-.006.125-.006l.04,0c.053,0,.106,0,.163-.008l.118,0,.023,0,.085,0,.1,0,.1-.006.144-.005.135-.006c.038,0,.074,0,.112,0l.093-.006c.03,0,.061,0,.093,0,.063,0,.127,0,.192-.008l.2-.008c.047,0,.1,0,.146-.007H133l.181-.008c.036,0,.074,0,.11,0l.068,0,.216-.01c.036,0,.072,0,.11,0,.053,0,.108,0,.163-.008s.112,0,.169-.008a.392.392,0,0,0,.042,0l.159-.006a.191.191,0,0,0,.03,0l.23-.01c.076,0,.15-.008.226-.01l.125-.006c.08,0,.158-.008.237-.01l.237-.011.063,0c.057,0,.112-.006.167-.008s.112-.006.169-.007.112-.006.167-.008l.053,0c.074,0,.148-.006.22-.01l.138-.006.222-.011.37-.017.29-.013.287-.015.116-.005.114-.006.171-.008.158-.009h.013c.044,0,.087-.006.131-.008l.065,0c.021,0,.042,0,.064,0l.266-.013c.043,0,.087-.006.131-.008l.107-.006c.034,0,.07-.006.1-.006s.068-.006.1-.007l.1-.006.106-.006.091-.006.046,0,.108-.006.122-.01.049,0,.131-.009.171-.011c.021,0,.04,0,.061,0l.046,0,.084-.006a.032.032,0,0,1,.013,0l.089-.006.1-.01.034,0,.076-.006c.213-.019.4-.036.552-.053.019,0,.038,0,.057-.008a.041.041,0,0,0,.015,0,.425.425,0,0,0,.049-.006l.046-.006.044-.006.04-.006.051-.01a.069.069,0,0,0,.023,0,.22.22,0,0,0,.043-.01.663.663,0,0,0,.08-.019c1.146-.389,2.527-.83,3.007-.976l.011-.006h0c.006,0,.009-.006.015-.008a.092.092,0,0,0,.021-.01l.036-.023.011-.008.011-.007a0,0,0,0,1,0,0,.784.784,0,0,0,.065-.053l.025-.023a.275.275,0,0,0,.036-.034l.053-.053c.01-.011.019-.023.031-.034l.032-.034c.032-.036.065-.076.1-.116.019-.023.038-.046.057-.07s.049-.061.074-.093v0l.036-.047c.011-.015.023-.031.034-.043a.123.123,0,0,1,.015-.021.285.285,0,0,0,.027-.038l.04-.051c.025-.036.051-.072.078-.11.012-.017.025-.034.036-.051s.032-.045.047-.069.046-.064.068-.1.055-.081.084-.125l.038-.057c.095-.144.19-.29.279-.433.021-.034.042-.067.061-.1s.055-.087.082-.131c.009-.017.021-.032.028-.049.083-.137.159-.264.226-.382.013-.025.027-.048.04-.069l.042-.072c.01-.021.021-.04.03-.057s.028-.053.042-.078a.332.332,0,0,0,.019-.036l.006-.01c.009-.017.019-.034.026-.051l.012-.023.011-.021c.006-.013.013-.027.019-.04a.18.18,0,0,1,.013-.028.565.565,0,0,1,.027-.052c.005-.011.013-.023.019-.034s.023-.038.034-.059a.355.355,0,0,0,.019-.03c.013-.019.027-.04.042-.061a.007.007,0,0,1,0,0,.008.008,0,0,1,0,0c.011-.017.025-.034.036-.051l.023-.03c.015-.019.03-.04.046-.061l.025-.031c.017-.019.032-.04.049-.061.049-.059.1-.116.158-.173.026-.029.055-.057.084-.084a2.1,2.1,0,0,1,1.251-.661.192.192,0,0,1,.03,0h.034a.79.79,0,0,1,.592.285v-.031c.023-1.014.036-2.286.042-3.624.011-2.06.009-4.275,0-5.952v0c-.006-1.606-.013-2.715-.013-2.715l-.283-27.465c-.254.015-2.119.027-2.365.04l-.37.019c-18.795,1.031-27.8,2.868-31.122,5.086-4.52,3.013-8.727,14.353-9.851,16.948-.009.019-.017.038-.025.055s-.017.036-.025.053c-.017.036-.032.072-.047.1v0a1.7,1.7,0,0,1,.471.981c.154.913.518,2.086.025,2.468a3.816,3.816,0,0,1-.744.437m5.8,17.105c-.011.036-.023.072-.036.108-.021.066-.044.135-.065.2s-.049.146-.072.22c-.034.1-.068.209-.1.313-.019.059-.038.115-.055.175a.179.179,0,0,0-.009.03c-.023.068-.044.137-.065.2s-.038.119-.057.178-.044.148-.066.22l-.068.222c-.023.072-.044.144-.066.217l-.04.136c-.017.055-.034.11-.049.167s-.032.108-.047.163-.025.082-.036.122-.017.059-.025.089-.011.04-.017.061l-.028.1c-.009.032-.017.064-.027.1-.047.167-.089.329-.129.482-.021.076-.038.15-.057.222-.008.036-.017.072-.025.106s-.017.068-.025.1-.017.07-.025.106-.015.066-.023.1-.009.042-.013.063c-.019.085-.034.167-.047.245-.006.026-.011.055-.015.08s-.009.053-.013.078-.009.063-.013.093-.006.038-.008.055-.008.061-.009.09a.332.332,0,0,0,0,.042c0,.031,0,.059-.006.086,0,.009,0,.021,0,.03v.04a.322.322,0,0,0,0,.042c0,.013,0,.031,0,.045s0,.021,0,.033,0,.03,0,.045a.352.352,0,0,0,.008.043.459.459,0,0,0,.006.048c.008.046.017.095.027.146l.011.057c0,.019.008.038.013.059,0,0,0,.008,0,.013.008.032.015.064.025.1.011.055.025.11.04.169.009.034.019.068.028.1s.015.055.023.085.013.05.021.074.009.03.013.047.009.031.013.047c.009.036.021.074.032.112.066.226.142.469.226.727.01.032.021.063.03.095.025.07.047.143.072.217.074.222.152.452.235.687.034.1.07.2.106.305.025.071.051.143.076.215.019.053.04.108.059.164s.04.108.059.161a.026.026,0,0,1,0,.011c.044.118.085.235.129.353.049.137.1.274.152.41.025.07.051.138.078.209.061.165.123.33.186.5.009.026.021.052.028.078.023.057.044.112.065.169s.044.11.063.165l.08.205.006.017c.028.072.057.146.085.22,0,0,0,0,0,.006.042.108.084.215.123.321.021.053.044.108.063.161s.032.08.047.118l.046.118.011.028.04.106.2.51.144.367c.015.04.032.08.047.12.063.156.123.307.182.452.023.059.046.116.068.173.034.083.066.165.1.243s.065.156.093.23l.053.129c.1.239.184.444.253.607.006.017.013.032.019.047s0,0,0,.006c.013.029.023.055.034.08s.017.042.025.061.015.032.021.046c.021.049.038.089.053.119a.045.045,0,0,0,.008.017.131.131,0,0,0,.006.015.216.216,0,0,0,.019.038.085.085,0,0,1,.009.015,2.154,2.154,0,0,1,.089.208l.017.042a.254.254,0,0,1,.009.027c.009.023.019.045.027.07s.023.061.034.093.017.042.025.065c.036.1.076.211.114.319l.011.027c.011.036.025.07.036.106.028.076.055.15.082.22.006.013.01.028.015.042a.358.358,0,0,0,.015.04c.019.055.038.1.055.15,0,0,0,.009.006.015s.008.015.011.025c.015.04.03.076.044.106,0,.011.009.023.013.034s.009.019.013.027a.175.175,0,0,1,.009.017.045.045,0,0,1,.008.013c.1.158,1,3.307,1.357,3.326l.063,0h.053a.079.079,0,0,1,.021,0h.055l.074,0,.095,0c.017,0,.034,0,.053,0l.055,0,.04,0,.171-.006c.061,0,.127-.008.2-.01.034,0,.068,0,.1,0l.055,0h.019l.093,0c.019,0,.04,0,.059,0l.245-.011.112-.006c.051,0,.1,0,.154-.008l.139-.006.013,0,.131-.006.148-.008a.058.058,0,0,0,.017,0c.082,0,.165-.008.252-.011l.042,0,.243-.011.084-.006c.11-.006.226-.011.342-.019l.156-.008.385-.023c.049,0,.1,0,.152-.008l.226-.013.794-.047.294-.017c.04,0,.08-.006.122-.008l.188-.011a.09.09,0,0,1,.023,0l.213-.015c.072,0,.144-.008.216-.013h.021l.484-.032.163-.011m7.865-.665.213-.023.23-.025.23-.027c.636-.072,1.251-.148,1.838-.226l.158-.023c.019,0,.038,0,.057-.007l.254-.034.186-.028.226-.032.48-.074.142-.023c.142-.023.281-.047.417-.07l.135-.022c.072-.014.142-.027.213-.038l.086-.017.256-.048.163-.034.161-.032.239-.051c.049-.012.1-.023.144-.032l.218-.052.07-.017c.047-.011.091-.023.137-.036l.133-.034.065-.017.23-.066.072-.023c.019-.006.038-.011.057-.019.047-.015.095-.03.139-.046.025-.007.047-.017.072-.025l0,0c.038-.013.074-.026.11-.042l.038-.015.015-.006.053-.021c.015-.008.032-.013.047-.021a1.95,1.95,0,0,0,.368-.2l.024-.017.029-.021c.047-.038.095-.08.148-.129s.1-.1.159-.154.14-.146.216-.23c.051-.055.1-.116.158-.177.12-.135.245-.281.378-.442.019-.025.04-.05.061-.074l.046-.057.04-.047.04-.05.063-.08c.085-.106.174-.218.266-.334.046-.057.091-.116.138-.177.093-.12.186-.243.285-.372.636-.833,1.361-1.83,2.123-2.911.549-.776,1.116-1.6,1.686-2.432.089-.135.18-.266.271-.4.334-.492.668-.989,1-1.481q.091-.136.182-.275.308-.456.6-.909c.1-.146.2-.294.292-.442q.177-.268.347-.53c.057-.085.114-.175.171-.26.23-.354.454-.7.67-1.037.061-.095.123-.19.182-.283.091-.14.18-.281.268-.417-4.8.089-13.31.417-13.937.44l-.038,0a.11.11,0,0,1-.023,0l-.019,0s0,0,0,0l-.015,0-.017,0a.141.141,0,0,0-.028,0l-.034-.008-.038-.006a.417.417,0,0,0-.042-.008.262.262,0,0,0-.038-.008l-.032-.006a.483.483,0,0,0-.053-.01l-.084-.017c-.017,0-.034-.008-.051-.01l0,0a.017.017,0,0,1-.009,0l-.046-.008a.433.433,0,0,0-.046-.01l-.066-.015c-.053-.01-.108-.021-.165-.034l-.044-.009-.044-.009c-.121-.027-.251-.057-.383-.09l-.061-.013s0,0,0,0c-.027-.006-.055-.013-.082-.021l-.123-.03-.093-.025c-.01,0-.019-.006-.03-.009a.567.567,0,0,1-.055-.015.576.576,0,0,1-.068-.019.055.055,0,0,1-.019,0l-.087-.025a.156.156,0,0,0-.019-.006l-.112-.034c-.028-.008-.059-.017-.087-.027s-.044-.013-.065-.021c-.051-.015-.1-.031-.15-.047l-.125-.044-.082-.028-.087-.034c-.025-.008-.049-.019-.074-.027l-.087-.036c-.019-.008-.038-.015-.057-.025l-.055-.023-.055-.025c-.015-.007-.03-.015-.046-.021l-.108-.055m-16.522-11.264c-.015.046-.032.093-.049.142-.011.03-.021.061-.032.093a.106.106,0,0,0-.008.023c-.017.046-.034.093-.051.141-.008.023-.017.047-.025.072s-.021.061-.032.091c-.021.061-.044.124-.066.186l-.034.1c-.015.044-.028.085-.044.127-.025.068-.049.139-.074.209-.013.038-.028.078-.042.116l-.017.049c-.021.057-.04.114-.061.173l-.063.176c-.023.061-.044.122-.065.182l-.011.029c-.013.043-.028.085-.044.127s-.028.082-.044.122c-.034.1-.07.2-.106.3-.021.059-.042.118-.063.178l-.215.608c-.015.047-.032.093-.049.14-.006.019-.013.038-.019.055v0m-6.986-16.79c-.028.061-.051.112-.07.154a8.991,8.991,0,0,0-.372,1.006m42.253,23.89a31.9,31.9,0,0,0,2.377-4.042c.017-.229-.027-1.644-.1-3.523m-.683-.285a2.2,2.2,0,0,0-1.251.661m-19.683,26.653c3.275-.2,6.331-.4,8.479-.6h0l1.065-.1a8.571,8.571,0,0,0,5.158-2.371c.078-.078.154-.154.232-.236v0c.167-.173.327-.353.478-.543l.943-1.169,2.31-2.863,4.6-5.707a7.407,7.407,0,0,1,4.207-2.593l12.763-2.757a10.021,10.021,0,0,0,1.308-.378h0v0a9.963,9.963,0,0,0,3.106-1.819l0,0c.072-.061.142-.125.214-.188l.363-.33a3.256,3.256,0,0,0,1.057-2.383l0-.029a.576.576,0,0,0-.121-.336.592.592,0,0,0-.494-.231l-17.827.714a1.412,1.412,0,0,1-1.464-1.35l-.177-10.9a8.417,8.417,0,0,0-.393-3.066,1.151,1.151,0,0,0-1.111-.623l-.759.023-.017-14.06v-.008l-.05-13v0l-2.544.1m-21.491,66.831c-.243.013-.486.028-.731.043h0m24.369-66.865.4-.1.156-.042c2.009-.087,2.489-1.289,2.489-1.289a.224.224,0,0,0-.234-.217l-13.542.543c-3.563.144-16.539.9-20.209,2m-.023.008c-.165.048-.325.1-.475.15l-3.575,1.255c-4.084,1.371-7.446,5.192-9.582,8.934l-7.674,14.159c-.4.714-.562,1.208-.869,1.874-.638,1.633-1.242,3.288-1.786,4.951a63.549,63.549,0,0,0-1.927,7.1l-1.059,5.99a7.433,7.433,0,0,0,.414,4.095.616.616,0,0,0,.049.127,1.345,1.345,0,0,0,.461.572l1.346.951a11.431,11.431,0,0,1,1.9,1.545,11.111,11.111,0,0,1,1.073,1.257q.234.317.416.6c.961,1.458,2.028,2.977,3.22,4.532.813,1.06,1.686,2.138,2.618,3.224,0,0,.535.691,1.441,1.688.513.564,1.147,1.228,1.874,1.92l.063.059a6.742,6.742,0,0,0,2.031,1.42,6.267,6.267,0,0,0,2.652.493c1.5-.139,3.444-.279,5.6-.42m24.211-3.873a15.643,15.643,0,0,0,4.6,1.627c1.808.094,4.118.247,5.758.361m-7.641-3.178a.854.854,0,0,0,.378.594c.6.306,3.172,1.242,4.167,1.639l.228.091a29.861,29.861,0,0,0,2.869.852c1.238.321,2.479.612,3.089.752h0l.306.07a.937.937,0,0,1,.222-.087c.275-.086.655-.18.717-.535a8.236,8.236,0,0,1,16.1-.661.751.751,0,0,0,.26.4.76.76,0,0,0,.327.157.037.037,0,0,1,.015,0c.644.236,1.168.549,1.111.029a16.734,16.734,0,0,0-1.561-5.732,34.828,34.828,0,0,0-2.453-3.926c-1.766-2.546-2.61-3.262-3.662-3.626a4.84,4.84,0,0,0-1.481-.26c-1.046-.07-5.447-.108-6.44-.061-2.122.117-3.18.142-5.3.281a2.511,2.511,0,0,0-2.06.881c-.907,1.164-1.175,1.439-2.1,2.618-.479.615-1.357,1.745-2.227,2.876-1.111,1.443-2.206,2.892-2.44,3.286a.564.564,0,0,0-.068.359Zm-9.173,3.9,8.4.35,11.5-.317m-62.35-16.707a21.791,21.791,0,0,0-6.886,5.5,1.116,1.116,0,0,0-.423.82,1.064,1.064,0,0,0,.37.847l.513.442,2.432,2.105a3.669,3.669,0,0,0,.431.319c.028.019.057.036.085.053l.087.049q.088.048.177.091h0a3.268,3.268,0,0,0,.541.214h0a3.3,3.3,0,0,0,.533.116h0c.059.008.116.015.177.021l.066.006a1.034,1.034,0,0,0,.106.006.02.02,0,0,0,.009,0c.011,0,.025,0,.036,0h.046a.357.357,0,0,1,.047,0l.087,0a3.035,3.035,0,0,0,.33-.023l1.9-.216h0c.509-.061,1.021-.12,1.532-.177.068-.01.137-.017.205-.025.759-.085,1.517-.175,2.276-.26h0l.689-.08h0c.251-.03.5-.057.752-.087h0c.169-.019.336-.04.5-.059.592-.067,1.183-.137,1.777-.2h0m63,6.59a.9.9,0,1,0,.936.864.9.9,0,0,0-.936-.864Zm-.07-1.872a2.825,2.825,0,1,0,2.937,2.709,2.828,2.828,0,0,0-2.937-2.709Zm-.026-.7a3.53,3.53,0,1,0,3.668,3.387,3.529,3.529,0,0,0-3.668-3.387Zm4.234,3.364a4.1,4.1,0,1,0-3.93,4.256,4.1,4.1,0,0,0,3.93-4.256Zm-4.285-4.61a4.777,4.777,0,1,0,4.965,4.581,4.776,4.776,0,0,0-4.965-4.581Zm-8.384,4.465c0,.241.006.532.011.649a8.572,8.572,0,0,0,17.13-.686c-.01-.258-.032-.512-.065-.761m-76.778,1.241,2.086,1.857m1.162-1.3-2.085-1.855m-4.118-3.664-1.781-1.585m.625,2.892-2.085-1.855m2.25,4.507-1.861,2.077m1.3,1.16,1.866-2.081m5.534-6.172-1.866,2.083m.573-3.25-1.862,2.077m-4,1.883-2.785.112m2.869,1.631-2.793.112m11.013-2.187-2.787.112m2.85,1.631-2.795.112m-1.68,4.721-.112-2.791m-1.631,2.863-.112-2.789m1.523-5.574-.068-1.714m-1.737.2.032.822.03.757m-2.869-1.375v0l1.8,2.056,1.346,1.542.177.2.357.41.26-.226-.37-.423v0l-.19-.216-.066-.076-1.255-1.435-1.566-1.792m2.831,3.761a.507.507,0,0,0-.027.055.236.236,0,0,0-.017.038c0,.006,0,.012-.006.019a.335.335,0,0,0-.013.048s0,.005,0,.007a.309.309,0,0,0-.009.061.361.361,0,0,0,0,.065v.029a.325.325,0,0,0,.006.061.093.093,0,0,0,0,.023c.006.028.011.055.019.082,0,0,0,0,0,.006a.613.613,0,0,0,.234.3.237.237,0,0,0,.047.029.616.616,0,0,0,.1.045.262.262,0,0,0,.042.011.237.237,0,0,0,.036.008.53.53,0,0,0,.11.011h.025a.2.2,0,0,0,.034,0,.409.409,0,0,0,.084-.013c.019-.006.038-.01.057-.017a.745.745,0,0,0,.1-.047.592.592,0,0,0,.091-.066l.032-.029.009-.011a.739.739,0,0,0,.059-.07.127.127,0,0,1,.013-.021c.009-.015.017-.031.027-.045s.015-.032.023-.05a.6.6,0,0,0,.028-.083l.006-.028a.644.644,0,0,0,.011-.087v-.055c0-.021,0-.044-.006-.064a.407.407,0,0,0-.009-.047.224.224,0,0,0-.009-.034.442.442,0,0,0-.015-.048l-.017-.038c-.008-.015-.015-.032-.025-.047a.587.587,0,0,0-.188-.2.452.452,0,0,0-.053-.032.645.645,0,0,0-.169-.059.542.542,0,0,0-.1-.01h-.038a.385.385,0,0,0-.066.008h0a.433.433,0,0,0-.065.013c-.021.006-.042.013-.063.021a.544.544,0,0,0-.059.027m-2.432,1.54c.008.021.015.042.025.063.023.057.047.112.074.167a.494.494,0,0,0,.021.046c.034.07.072.138.112.2a.471.471,0,0,0,.038.057.539.539,0,0,0,.047.074.908.908,0,0,0,.072.1,1.02,1.02,0,0,0,.063.084c.025.03.049.061.076.089a2.621,2.621,0,0,0,.279.283c.051.046.1.089.159.129a1.031,1.031,0,0,0,.11.078,1.254,1.254,0,0,0,.125.082,2.5,2.5,0,0,0,.338.178c.066.029.135.057.2.082.053.019.106.037.159.052a.507.507,0,0,0,.051.015.387.387,0,0,0,.051.011,1.009,1.009,0,0,0,.11.027.067.067,0,0,0,.021,0c.027.006.053.011.082.015a.388.388,0,0,0,.047.008c.021,0,.042.008.063.009l.025,0,.148.015s.006,0,.01,0c.038,0,.076,0,.114,0s.057,0,.085,0,.076,0,.116,0c.025,0,.047,0,.072,0a.122.122,0,0,0,.027,0l.072-.006c.057-.006.112-.013.167-.021a2.734,2.734,0,0,0,.533-.139,2.989,2.989,0,0,0,.328-.142c.051-.027.1-.055.152-.083.021-.013.042-.025.063-.04.036-.021.072-.046.108-.07l.021-.013c.053-.038.106-.078.156-.12a.238.238,0,0,0,.036-.03,1.567,1.567,0,0,0,.133-.118c.011-.01.023-.021.034-.032.042-.04.082-.082.121-.125a.129.129,0,0,1,.017-.019,3.185,3.185,0,0,0,.249-.325.127.127,0,0,0,.013-.021,2.624,2.624,0,0,0,.213-.385c.017-.036.032-.072.047-.108l.034-.091c.017-.05.032-.1.047-.145.008-.021.013-.041.019-.062l.006-.025c.013-.044.025-.087.034-.131,0-.021.009-.04.013-.061s.009-.05.013-.072.008-.042.009-.063v0l.006-.026a.1.1,0,0,1,0-.025.017.017,0,0,1,0-.009c.006-.055.011-.11.015-.165,0-.01,0-.021,0-.031s0-.038,0-.057c0-.036,0-.07,0-.106s0-.085,0-.127a.094.094,0,0,0,0-.023c0-.053-.006-.106-.011-.159s-.013-.118-.023-.175-.019-.11-.032-.163a.418.418,0,0,0-.009-.042c-.013-.061-.03-.122-.049-.18-.011-.034-.023-.068-.034-.1a2.791,2.791,0,0,0-.226-.49c-.028-.047-.057-.095-.087-.141s-.063-.089-.095-.135v0c-.034-.042-.066-.085-.1-.125s-.072-.083-.108-.123l-.017-.017c-.04-.042-.082-.083-.125-.123-.061-.057-.123-.11-.19-.161l-.028-.023c-.017-.011-.034-.025-.051-.038l-.009-.006c-.036-.028-.074-.053-.112-.079l-.142-.086c-.023-.013-.046-.025-.068-.036-.049-.029-.1-.053-.154-.078-.034-.015-.066-.03-.1-.044s-.068-.029-.1-.042c-.078-.03-.159-.055-.239-.078-.047-.013-.093-.025-.142-.034a1.081,1.081,0,0,0-.137-.027,1.785,1.785,0,0,0-.178-.025.144.144,0,0,0-.03,0c-.044,0-.087-.008-.133-.01-.027,0-.053,0-.082,0-.059,0-.12,0-.18,0a3.225,3.225,0,0,0-.336.034l-.095.017c-.063.011-.125.027-.186.042s-.112.031-.167.05c-.027.008-.051.015-.076.025a.482.482,0,0,0-.047.019c-.044.015-.087.034-.131.053-.028.011-.057.025-.084.038s-.078.038-.116.059-.089.049-.133.076a2.289,2.289,0,0,0-.3.209m1.238,2.024a.093.093,0,0,1,.008-.021.331.331,0,0,0,.019-.034l-.175-.2-1.348-1.54a2.846,2.846,0,0,0-.746,1.3,2.826,2.826,0,0,0-.093.854,2.761,2.761,0,0,0,.178.888l.023.063c.023.057.047.112.074.167m.021.046c.009.017.017.034.027.049.027.053.055.1.085.156h0c.011.019.023.038.036.057m-1.4-5.635v0h0a5.53,5.53,0,0,0-.883,1.067v0a5.578,5.578,0,0,0-.852,2.394v0a5.51,5.51,0,0,0-.028.851,5.7,5.7,0,0,0,.106.892,5.621,5.621,0,0,0,1.162,2.447,5.739,5.739,0,0,0,1.3,1.158h0a5.563,5.563,0,0,0,2.392.856,5.71,5.71,0,0,0,.87.031,5.586,5.586,0,0,0,3.328-1.263,5.685,5.685,0,0,0,1.162-1.3v0a5.6,5.6,0,0,0,.858-2.373.038.038,0,0,0,0-.013c.017-.152.03-.305.036-.461,0-.141,0-.281,0-.424a5.611,5.611,0,0,0-.1-.845v0a5.547,5.547,0,0,0-1.145-2.457s0,0,0,0A5.561,5.561,0,0,0,98.239,2615c-.027-.019-.055-.036-.084-.055s-.065-.04-.095-.061m-7.359.55a5.86,5.86,0,0,0-.695.875,6,6,0,0,0-.968,2.726,6.317,6.317,0,0,0-.027.851,6.237,6.237,0,0,0,.1.89,6.082,6.082,0,0,0,5.342,4.911,6.283,6.283,0,0,0,.869.026,6.082,6.082,0,0,0,4.822-2.717,6.055,6.055,0,0,0,.961-2.572c0-.044.009-.086.015-.127.011-.11.019-.219.025-.329.009-.188.011-.378,0-.57a6.179,6.179,0,0,0-.093-.847,6.031,6.031,0,0,0-1.3-2.787,5.9,5.9,0,0,0-1.008-.963m-8.593.416a6.736,6.736,0,0,0-.564.723,6.558,6.558,0,0,0-1.1,3.115,6.3,6.3,0,0,0-.023.849,6.858,6.858,0,0,0,.1.892,6.618,6.618,0,0,0,10.831,3.865,6.665,6.665,0,0,0,1.164-1.3,6.564,6.564,0,0,0,1.078-2.8q.02-.145.034-.291c.006-.059.011-.116.015-.173a6.146,6.146,0,0,0,.009-.725,6.242,6.242,0,0,0-.089-.847,6.544,6.544,0,0,0-1.481-3.174m0,0a6.625,6.625,0,0,0-.623-.64m-11.336,6.1a6.986,6.986,0,0,0,1.635,3.44c.066.078.137.156.211.232l0,0,0,0a7.14,7.14,0,0,0,.8.718c.093.072.188.141.285.211a7.011,7.011,0,0,0,3.393,1.211c.159.013.319.021.48.025q.194,0,.387-.005c.129,0,.258-.014.387-.025.163-.017.327-.04.488-.064a6.974,6.974,0,0,0,3.451-1.635c.116-.1.226-.2.334-.308l0,0,0,0,0,0v0a6.982,6.982,0,0,0,.558-.625l0,0q.137-.171.262-.353a7,7,0,0,0,1.169-2.977c.019-.129.032-.26.046-.391,0-.021,0-.044,0-.067.006-.071.009-.14.013-.213.011-.2.009-.41,0-.617a5.959,5.959,0,0,0-.053-.615c-.008-.076-.019-.156-.03-.232a6.969,6.969,0,0,0-1.614-3.453c-.021-.025-.042-.048-.065-.072l0,0-.006-.006c-.1-.11-.2-.22-.309-.324m-10.2.37a7.033,7.033,0,0,0-.5.64l-.008.01s0,0,0,0a6.989,6.989,0,0,0-1.206,3.393c0,.04-.006.078-.008.116a6.723,6.723,0,0,0-.009.733,6.643,6.643,0,0,0,.068.733l.023.159m7.408-5.646-1.532.177m0,0,.034.822m-7.131-3.566a10.764,10.764,0,1,0,18.467,10.085,11.1,11.1,0,0,0,.3-1.333,10.909,10.909,0,0,0,.131-1.988m20.69-20.158s1.281.106,3.313.215a3.337,3.337,0,0,0,2.886-1.069m-4.275-13.681a1.577,1.577,0,0,0-1.076-.841h0m-6.624,33.592a.024.024,0,0,0,.008.008,2.388,2.388,0,0,0,2.772.444m.959-1.79c1.215-.577,1.618-3.14,1.618-3.14m-14.191-7.37c.613.634,2.413,2.289,4.129,1.874m24.264-8.4a6.7,6.7,0,0,0,2.447-3.245m-3.56,2.969a12.558,12.558,0,0,0,2.867-3.1m-12.752-.053a32.24,32.24,0,0,0,2.4-2.85m-3.214,2.559a27.3,27.3,0,0,0,2.145-2.939m-7.095-8.983c.478-.19.636-.8.471-.887a.9.9,0,0,0-1.025.5c-.167.387.346.471.554.387Zm3.22-2.479c.148.178.224.078.5-.087.249-.15.5-.661.194-.744s-.406.125-.6.34c0,0-.256.3-.095.492ZM114.4,2592.8c.03-.057.061-.118.091-.184m-1.253-1.549a5.262,5.262,0,0,0-.378.981c-.059.416.682.832,1.057,1.014m3.584-7.015c1.139-.5,2.762-1.333,4.03-2m8.963-6.947c-2.2,2.842-6.039,4.4-7.8,5.741a5.308,5.308,0,0,0-1.168,1.206,4.284,4.284,0,0,0-.57,1.167m-8.465,5.037a.826.826,0,0,0,.6-.456.817.817,0,0,0,.084-.36.829.829,0,1,0-1.58.347m13.006,9.956a4.894,4.894,0,0,0,2.191,1.187c1.693.651,2.219.285,2.253.26h0m-18.415-2.332a10.222,10.222,0,0,0,3.106,8.963q.3.274.634.536a4.533,4.533,0,0,1,1.642,2.365,2.056,2.056,0,0,0,.18.317m-6.263-21.658a.758.758,0,0,1,0-.146.957.957,0,0,1,.488-.754s1.1-.932,1.1-1.615m1.578,2.937a2.076,2.076,0,0,0,.532.441.467.467,0,0,0,.22.055m-3.068-.129c-.008.154-.025.719.218.793a7.869,7.869,0,0,0,1.993.173l.072-.023c.049-.013.106-.027.169-.04.159-.034.355-.069.537-.122m.442-3.734c-.4-.234-.756-.442-.809-.478-.129-.087-.845-.585-1.128-.564a.93.93,0,0,0-.71.534.014.014,0,0,0,0,.008,1.1,1.1,0,0,1-.063.14,3.917,3.917,0,0,1-.849,1.1c-.325.239-.649.348-.693.628a4.253,4.253,0,0,0-.025.634v.021c0,.07,0,.122,0,.146a1.362,1.362,0,0,0,.283.3c.165.15.376.334.56.492.205.176.376.323.414.361a2.063,2.063,0,0,0,1.409.152c.142-.076.072-.249-.11-.423a1.978,1.978,0,0,0-.892-.469,1.167,1.167,0,0,0-.252-.029.991.991,0,0,0-.133.01,1.006,1.006,0,0,0,.087-.691s.564-.456.564-.674a5.07,5.07,0,0,1,1.018.241,2.005,2.005,0,0,0,.953.562m11.809,18.277c3.127,1.766,5.57,3.1,5.828,3.126.771.069,1.788-2.593,1.648-3.294-.01-.047-.108-.138-.285-.267-2.4-1.775-19.184-10.768-20.646-12.678a.669.669,0,0,1-.084-.136s-.1.117-.256.315m0,0a6.666,6.666,0,0,0-1.564,3.186,2.531,2.531,0,0,0,.131,1.016c.1.2.22.1.22.1s7.269,4.232,13.225,7.617v0l.771.437m5.7-28.156c.095-.013.858-.14,1.071-.526a1.687,1.687,0,0,1,.452-.53c.245-.186.325-.133.547-.3.355-.264.256-.486.56-.72s.454-.061.879-.279c.292-.152.305-.277.537-.494l0,0m-2.069-5.868c-.57.444-.75.672-.82.976-.12.513.273.8.112,1.192-.194.469-.581.391-.892.794s0,1.149-.2,1.488c-.309.532.046.835.011,1.232a5.487,5.487,0,0,1-.106.659.973.973,0,0,0,.07.725l.021.032a.662.662,0,0,1,.106.361c0,.044-.131.2-.049.376.011.023.019.036.028.053s.017.036.03.07a.756.756,0,0,1,.049.249.422.422,0,0,1-.021.233.506.506,0,0,1-.319.275l-.009,0m7.2-6.381a.857.857,0,0,0,.061-.369,3.118,3.118,0,0,1,.006-.547h0v-.009c.089-.649.42-.615.4-1.092,0,0,0,0,0,0-.017-.34-.19-.406-.271-1a1.9,1.9,0,0,0-.065-.456c-.093-.228-.363-.482-1.122-.61.046-.266.093-.531.14-.8m-4.361,2.544s0,.017.123.043h0a2.065,2.065,0,0,1,1.555-.2c.182.116.611-.92.864-1.035a.891.891,0,0,0,.463-.6,4.63,4.63,0,0,0,0-.862s-.019-.161-.03-.258m4.706-1.874a47.415,47.415,0,0,0-8.086-1.758.987.987,0,0,0-.448.116.968.968,0,0,0-.131.082.79.79,0,0,0-.1.082,1.028,1.028,0,0,0-.23.321,4.881,4.881,0,0,0-.224,1.891.821.821,0,0,0,.423.731,3.783,3.783,0,0,0,.617.078,24.762,24.762,0,0,1,3.47.332,10.66,10.66,0,0,1,1.384.366c.178.063.357.129.535.2.139.057.3.129.475.211.934.438,2.337,1.182,3.336,1.725.163.09.317.173.455.251.205.112.378.209.505.281.01.008.091.045.192.091a2.484,2.484,0,0,0,.425.161.548.548,0,0,0,.528-.3.6.6,0,0,0,.034-.082c.057-.167.12-.353.186-.552m-6.567-1.528s.142.171.733.04a.388.388,0,0,0,.173-.089m-5.864-1.113a2.415,2.415,0,0,1,.061,1.3c-.1.418-.794,1.217-.788,1.564.009.5.917.412,1.221.378a.131.131,0,0,1,.123.043m11.594,1.3a2.392,2.392,0,0,0,.435.127c.591.114,1.284-.684,1.43-1.23a1.061,1.061,0,0,0-.917-1.34,1.659,1.659,0,0,0-.854.066,1.382,1.382,0,0,0-.72.526.624.624,0,0,0-.087.188,1.457,1.457,0,0,0,.072,1.145,1.274,1.274,0,0,0,.642.519Zm.093-2.377c-.775-2.706-1.063-7.97-3.531-8.319-7.19-1.044-8.807,1.365-9.13,2.927m7.452,1.016a1.119,1.119,0,0,1,1.042.536.327.327,0,0,1,.025.034c.006.019.009.038.017.057a6.438,6.438,0,0,0,1.251,2.293,11.44,11.44,0,0,0,2.1,1.938c.019.015.038.029.057.042m-29.66,38.29a.974.974,0,0,0-.129.934l.619,1.608a.971.971,0,0,0,1.141.6.914.914,0,0,0,.118-.038l.528-.2m7.957-3.554v0a.978.978,0,0,0-.049-.524l-.065-.165m-6.952,12.507a8.392,8.392,0,0,0,1.033-1.253s0-.021.013-.061c.042-.169.159-.667.247-1.128a2.406,2.406,0,0,0,.04-.57,2.457,2.457,0,0,0-.473-1.333c-.279-.382-.571-.727-.8-1a3.834,3.834,0,0,1-.368-.488c-.323-.6-.828-1.557-1.23-2.191m10.8-.833a.975.975,0,0,0,.188-1.092l-.718-1.551-.006-.013a.976.976,0,0,0-1.006-.558.938.938,0,0,0-.287.082l-.37.171-7.288,3.37a.973.973,0,0,0-.475,1.293l.723,1.564a.886.886,0,0,0,.112.184.97.97,0,0,0,1.067.336.906.906,0,0,0,.114-.043l7.657-3.539a.979.979,0,0,0,.289-.2Zm-10.518,18.021a2.519,2.519,0,0,0,1.505-.361c1.04-.488,2.941-1.365,4.572-2.3.826-.473,1.414-.814,1.9-1.143a8.332,8.332,0,0,0,1.255-1.016,22.161,22.161,0,0,1,3.636-3.227,7.309,7.309,0,0,0,1.242-.951m-9.225,2.876a4.834,4.834,0,0,0-.689.2c-.522.175-1.24.424-1.8.607a6.724,6.724,0,0,1-.826.241,3.48,3.48,0,0,0-2.126,1.741,4.339,4.339,0,0,0-.313,1.39.952.952,0,0,0,.027.484,6.048,6.048,0,0,0,.839,1.448v0l-.131.14s.03.516.325.547a36.417,36.417,0,0,0,4.674-2.043c.653-.353,2.3-1.4,3.372-2.124a10.984,10.984,0,0,0,.964-.691,13.274,13.274,0,0,0,1.194-1.206,4.082,4.082,0,0,1,.391-.442m0,0a2.768,2.768,0,0,1,.541-.431l.19.387.023.048.129-.059c.573-.264,2.88-1.375,3.06-2.234l-.148-.257m0,0-.368-.634-.1,0h0l-.006,0a4.806,4.806,0,0,0-.589-1.1,3.478,3.478,0,0,0-.666-.71m-8.653,4.885a13.531,13.531,0,0,0,1.272-1.735s0-.023.011-.063c.028-.171.112-.674.169-1.141a2.3,2.3,0,0,0,0-.572,2.461,2.461,0,0,0-.551-1.289m-2.643-3.522c.442.606,1.012,1.523,1.373,2.105.146.233.721.765,1.262,1.409m5.424-7.3c.017.34.03.668.03.936a16.051,16.051,0,0,0-.1,1.885,10.315,10.315,0,0,0,1.264,3.319,3.613,3.613,0,0,0,1.137,1.082.014.014,0,0,1,.008,0m-9.783-24.87.731.285a.638.638,0,0,0,.718-.176l.146-.171m25.863,4.42a2.159,2.159,0,0,0,.042-.406,1.324,1.324,0,0,0-.01-.177l-.1-.006a27.987,27.987,0,0,1-3.368-.444m-2.447,3.245a16.263,16.263,0,0,0,2.424.41h0a2.432,2.432,0,0,0,1.04-.093,5.524,5.524,0,0,0,1.234-.719m-13.3-5.878a76.4,76.4,0,0,0,10.352,2.9m-14.723-4.535c.756.317,1.519.594,1.519.594q.917.348,1.783.659m-1.331,3.229c3.476,1.228,7.1,2.43,9.885,3.155m-18.544-6.362c2,.769,4.834,1.84,7.845,2.916m-11.71-2.753.769-6.269a.375.375,0,0,0-.049-.237.084.084,0,0,0-.009-.019.387.387,0,0,0-.361-.178l-2.071.173a.886.886,0,0,0-.809.8l-.044.374-.365,3.081-.076.653-.12,1.006a.543.543,0,0,0,.594.592l.239.072.163.049h0l1.595.484a.6.6,0,0,0,.535-.524l.006-.053Zm26.6-21.713h-.074a7.8,7.8,0,0,0-2.823-.013,7.541,7.541,0,0,0-2.9,1.158m3.432-2.373c-.435.076-.917.169-1.422.285-.522.122-1.065.264-1.606.437m10.973,15.277c-.008-.049-.013-.085-.015-.114-.15-1.323-.826-7.417-2.925-10.962a25.34,25.34,0,0,0-1.993-3.174m2.092,24.866a7.4,7.4,0,0,0,2.84-4.661.007.007,0,0,0,0-.006m-34.317,1.086-.254.135c-.171.089-.33.178-.482.262-.471.266-.849.5-1.126.682a1.927,1.927,0,0,0-.6.623l-.006.01m20.674,12.638c-.368-1.8-2.28-3.5-3.273-4.644a2.683,2.683,0,0,1-.581-.868m.046-.317a.33.33,0,0,0-.046.315m.347-.454a.615.615,0,0,0-.3.137m-12.266-8.612c.448-.011,1.166-.057,1.946-.095.526-.026,1.078-.051,1.595-.063l.325-.006c.412,0,.792.032,1.1.025,1.5-.032,3.729-.879,5.115-1.162.066-.013.239-.068.473-.139a13.124,13.124,0,0,1,1.5-.38,1.722,1.722,0,0,0,.309-.082,22.414,22.414,0,0,0,3.765-1.883c1.722-.955,10.7-4.835,12.019-9.7a5.765,5.765,0,0,0,.226-3.168m-7.448-3.638a2,2,0,0,0-.188.086,10.881,10.881,0,0,0-3.142,3.531h0m-7.007,7.926a7.187,7.187,0,0,0,.647-.448c.414-.311,2.2-1.862,2.489-2.132a13.252,13.252,0,0,0,1.823-2.094c.152-.205.361-.536.613-.946.391-.64.887-1.468,1.434-2.3m-7.007,7.924a3.658,3.658,0,0,1-.835.355c-.486.165-3.227.64-5.582,1.031-.769.127-1.485.26-2.041.393-.18.042-.957.336-1.411.458" transform="translate(239.353 -2345.564)" fill="none" stroke="#b3b0a7" stroke-linecap="round" stroke-linejoin="round" stroke-width="0.5"/></g></svg>