<svg xmlns="http://www.w3.org/2000/svg" xmlns:xlink="http://www.w3.org/1999/xlink" width="285" height="78" viewBox="0 0 285 78"><defs><clipPath id="a"><rect width="285" height="78" transform="translate(13 78.522)" fill="#fff" stroke="#707070" stroke-width="1"/></clipPath></defs><g transform="translate(-13 -78.522)" clip-path="url(#a)"><path d="M819.77,2713.457l2.178-1.01m-47.676-5.313a9.51,9.51,0,0,0,1.566.85m-4.412-5.963a5.142,5.142,0,0,0-.631,2.329m-44.705-6.63a.537.537,0,0,0-.407.509.559.559,0,0,0,1.116,0,.514.514,0,0,0-.052-.224m-1.406-3.442a1.683,1.683,0,0,0,.134-.61m.031-4.994a2.828,2.828,0,0,0-1.432-.826.618.618,0,0,0-.372,0,.475.475,0,0,0-.27.375m1.942,6.427c.214.028.492-.812.546-1.5.052-.641.1-1.858.125-2.472m14.667-19.628a1.07,1.07,0,1,0,.09,1.512,1.067,1.067,0,0,0-.09-1.512Zm32.272-19.754a1.792,1.792,0,1,0,.151,2.531,1.792,1.792,0,0,0-.151-2.531Zm-9.429-1.4a1.955,1.955,0,1,0,.162,2.759,1.955,1.955,0,0,0-.162-2.759Zm2.606,9.309a1.71,1.71,0,1,0,.141,2.413,1.71,1.71,0,0,0-.141-2.413Zm-14.187-3.715a1.606,1.606,0,1,0,.134,2.267,1.606,1.606,0,0,0-.134-2.267Zm1.182,11.07a1.289,1.289,0,1,0,.188,1.885,1.341,1.341,0,0,0-.188-1.885Zm-22.977,28.439c0-.339-.085-2.293-.085-2.293m-.026-1.608a10.961,10.961,0,0,0,2.757.992m1.28,7.562c1.22,1.771,4.821,5.464,14.079,6.583m63.2,1.725s-1.067,3.76,1.937,5.1m-8.786-11.374c-1.087-3.343-5.076-2.7-5.076-2.7m-21.622,5.13a30.775,30.775,0,0,0,3.2.386,1.237,1.237,0,0,0,.647-.153.342.342,0,0,0,.111-.443.7.7,0,0,0-.035-.08.54.54,0,0,0-.4-.259c-.336-.083-.854-.085-1.53-.221a21.331,21.331,0,0,1-3.736-1.5,6.66,6.66,0,0,0-2.988-.457,5.164,5.164,0,0,1-1.829-.386s-.019.021-.052.061a4.672,4.672,0,0,0-.887,1.77,3.015,3.015,0,0,0-.012,1.613.665.665,0,0,0,.035.1l1.012.385a19.713,19.713,0,0,1,2.458,2.458c.287.48,1.083,1.2,1.542,1.782s.7.746,1.179.65-.023-1.2-.289-1.565c-.247-.337-.41-.527-.431-.551m0,0,0,0c.106.042,3.465,1.45,4.937,1.829,1.493.384,1.083-.725.144-1.158-.82-.376-2.227-.9-2.748-1.191a.225.225,0,0,1-.007-.393.011.011,0,0,1,.009,0,26.5,26.5,0,0,1,3.3.24c1.085.049,1.495-.24,1.471-.77-.017-.363-.428-.591-.687-.7m-4.469-.242a13.327,13.327,0,0,0,3.831.41,1.732,1.732,0,0,0,.638-.167.61.61,0,0,0,.4-.629c-.054-.417-.668-.548-.967-.586M759.462,2714.9l-.2,1.2m-2.868-2.013-.176.709m0,0a.491.491,0,0,0-.645.258l-.064.146a.492.492,0,0,0,.259.645l3.044,1.3a.491.491,0,0,0,.645-.259l.064-.146a.492.492,0,0,0-.259-.645l-3.044-1.3Zm9.728-15.972c.066-.958.118-1.827.129-2.444.038-1.994.843-2.531.843-2.531a23.665,23.665,0,0,0-3.221-2.107,1.723,1.723,0,0,0-.221-.078l0,0c-1.389-.422-6.7-1.276-9.82-1.839-.412-.075-.784-.143-1.1-.2-.447-.085-.794-.16-1-.214-.433-.115-1.238-.315-2.213-.546v0l-1.043-.245c-1.577-.37-3.369-.78-4.706-1.076l-.991-.214c-.285-.061-.52-.111-.694-.144a11.874,11.874,0,0,0-5.015-.207,2.928,2.928,0,0,0-1.179.7,11.367,11.367,0,0,0-2.879,4.7c0,.014-.007.028-.012.042a17.173,17.173,0,0,0-.109,4.106,19.081,19.081,0,0,0,.483,3.47.478.478,0,0,0,.914-.021.139.139,0,0,0,0-.035,16.977,16.977,0,0,0-.014-1.756,23.828,23.828,0,0,1,.033-2.957c.169-1.492.553-2.794,2.025-3.374a16.043,16.043,0,0,1,5.737-1.229,4.462,4.462,0,0,1,3.743,2.759m1.411,6.658a27.984,27.984,0,0,1,.843,4.574,7.422,7.422,0,0,0,.09.963,7,7,0,0,0,.212.945,10.1,10.1,0,0,0,3.548,4.828,19.7,19.7,0,0,0,4.659,2.74,11.6,11.6,0,0,0,3.07.817,5.594,5.594,0,0,0,4.616-1.392c.563-.527,1.064-3.122,1.342-5.429.038-.3.07-.6.1-.887a20.273,20.273,0,0,0,.132-2.46c-.019-.407-.007-.968.021-1.613m15.7.728c-1.1-.872-2.625-2.067-4.047-3.186l-.106-.085a3.881,3.881,0,0,1-1.053-1.26c-2.14-4.12-6.606-4.765-9.247-5.471m14.883,10.34c.3.238.56.443.758.6,1.622,1.281,3.91,3.3,4.489,3.814.087.08.137.123.137.123l2.962-2.272c1.648-1.264,3.574-2.74,4.619-3.536,2.067-1.575,4.694-3.647,4.694-3.647.355-.906.207-.843-.358-2.248-.268-.662-.61-1.347.546-1.73a17.238,17.238,0,0,1,3.239-.4m-32.552,9.841c-1.083-.4-2.938-1.052-4.661-1.613-.871-.282-1.707-.544-2.392-.737-2.486-.707-7.213-1.618-9.41-2.032a57.09,57.09,0,0,0-6.829-.318c-2.755-.021-5.365.021-5.94.068-1.728.146-4.9-.306-5.462-2.119m35.594,3.367c-.81-.381-3.032-1.462-5.29-2.529-2.432-1.154-4.9-2.291-5.688-2.533-1.617-.5-5.93-1.45-8.209-1.865-1.288-.236-4.028-.694-6.416-1.048-1.843-.275-3.479-.487-4.073-.487m78.736,18.867a28.4,28.4,0,0,0-2.124-3.628c-.97-1.248-1.848-1.2-2.587-.925-.372.138-1.111.494-1.754.812a3.425,3.425,0,0,1-2.446.226,56.659,56.659,0,0,0-8.2-1.756c-.708-.075-1.61-.127-2.609-.155m-23.253-5.667c4.44,2.192,9.076,4.476,11.028,5.415a3.787,3.787,0,0,0,1.78.372h.017m-3.1,2.149a14.933,14.933,0,0,0-.061,4.273m-46.518-33.334.106.024a.212.212,0,0,0,.252-.16l.064-.29a.213.213,0,0,0-.162-.251l-1.135-.25a.211.211,0,0,0-.252.16l-.064.289a.212.212,0,0,0,.16.252l.033.007,1,.219Zm-1-.219-.047.177-.417,1.591-.494,1.872.066.019.805.233.11.031.5-1.9.431-1.634.045-.17m2.444.6-2.488-.426m1.728,2.309-2.159-.676m-.57-1.845-.179-.038a.256.256,0,0,0-.3.186l-.292,1.111a.232.232,0,0,0,.167.285l.186.047m-10.947,9.121c-.047-.084-.1-.172-.153-.261-.1-.157-.2-.322-.294-.487m1.605,2.5c.341.078.631-.179.852-.579a3.806,3.806,0,0,0,.377-2.446c-.292-.8-1.01-.562-1.419-.115a1.16,1.16,0,0,0-.179.266m6.858-1.413c.007-.158.019-.306.031-.438s.014-.4.009-.708c0-.231-.014-.488-.026-.747a10.182,10.182,0,0,0-.137-1.5,1.078,1.078,0,0,1,0-.438m.226-.7a.454.454,0,0,1,.2-.221c.24-.087.261-.414-.2-.612s-1.377-.92-1.224-1.116.48-.437-.263-.5-.153-.808.024-1.005.765-.7.348-.612-1.269.153-2.142.327-3.567,1.554-3.282,1.182.264-.678-.525-.174-1.509.348-2.778,1.312-2.865,3.171-2.952,4.4.24,1.422.546,1.467l.052-.014c.181-.05.791-.21,1.085-.249.5-.066,1.38.92,1.38.92l.852.021s.066.115.169.3m-3.388-.426-.1-.565m4.52,1.592c-.186.106-.358.2-.513.3-.643.379-1.029.638-1.029.638m9.163-3.571a17.261,17.261,0,0,0-6.851,2.215m-.522-.9c-.5.259-.932.509-1.281.718-.6.355-.951.6-.951.6m9.579-3.383a14.1,14.1,0,0,0-6.415,1.6m-3.36,3.748.1-.163.537-.866-.443-.935-.633-.2-1.144-.358m.935,5.17a18.536,18.536,0,0,0-2.411-5.264m1.106,5.615a1.044,1.044,0,0,0,.132.184.435.435,0,0,0,.41.08,1.523,1.523,0,0,0,.607-.365,1.148,1.148,0,0,0,.156-.249c.337-.7.125-1.766.581-2.47a.437.437,0,0,0,.066-.179,3.279,3.279,0,0,0-1.208-2.218,2.55,2.55,0,0,0-.375-.3.859.859,0,0,0-.412-.084c-.181,0-.358-.008-.518-.012a4.545,4.545,0,0,0-.546,0l-.895.563a.4.4,0,0,0-.052.026.689.689,0,0,0-.242.88s1.761,3.31,2.3,4.146Zm3.129,3.042a.121.121,0,0,0,.045.059s0,0,.009,0c.132.033.577-.155.81-.054a5.314,5.314,0,0,0,1.629.638.578.578,0,0,0,.115-.012c.826-.042.829-1.29,1.264-1.377a4.992,4.992,0,0,1,1.711.1m32.717,11.562a13.868,13.868,0,0,1,4.021,1.2c4.984,3.195,15.018,8.969,17.7,9.457,2.992.543,5.492-2.665,6.973-4.756.127-.176.247-.348.358-.508.69-.981,3.776-4.513,6.1-7.145,1.514-1.714,2.708-3.046,2.708-3.046s.5-.591,1.252-1.319a15.057,15.057,0,0,1,2.54-2.058c.483-.292,1.163-.725,1.937-1.229,1.347-.878,2.969-1.975,4.292-2.931a26.225,26.225,0,0,0,2.089-1.627c1.481-1.354,9.789-10.884,10.757-12.558s1.674-3.284-.711-4.509-3.8-.709-4.958.709-7.6,9.21-9.014,11.14a17.39,17.39,0,0,1-8.117,5.25.68.68,0,0,0-.458.383.445.445,0,0,0,0,.356c.08.188.318.386.85.548a4.5,4.5,0,0,0,1.307.179,7.115,7.115,0,0,0,1.42-.153,10.838,10.838,0,0,0,2.63-.927c1.714-.857,2.314-2.357,3.515-2.7s2.1-.558,1.8.685a17.948,17.948,0,0,1-1.1,3.22m-79.211,2.43a8.242,8.242,0,0,0,1.379,2.316,19.544,19.544,0,0,0,4.252,3.007,46.589,46.589,0,0,0,8.249,2.072m-23.98-11.447c-.078.346-.014.584.3.61.459.04,1.083-.059,1.083.2s-.04.745.358.862a.553.553,0,0,0,.068.017,2.425,2.425,0,0,1,.845.28.332.332,0,0,1,.1.1m-1.014-.393-.511.763m1.945.664c-.056.245-.1.49-.122.643m.346-1.356a1.629,1.629,0,0,0-.106.264v0m-1.008.54-1.055-.756-.214-.156a.2.2,0,0,0-.275.047l-.826,1.149m3.046,2.157.812-1.13a.2.2,0,0,0-.045-.278l-.676-.483-.174-.127m92.181,17.452a80.067,80.067,0,0,0,3.922,9.184,36.964,36.964,0,0,0,3.183,4.428m-10.1-13.287a4.551,4.551,0,0,0,2.185-.436m-9.231-16.4c.012-1.879-1.69-2.846-2.549-3.211m-79.539,4.271-2.955-2.1c-.021-.014-.043-.025-.064-.038a.439.439,0,0,0-.544.141l-.278.393a.435.435,0,0,0,.1.608l2.957,2.1a.433.433,0,0,0,.605-.1l.28-.393a.437.437,0,0,0-.075-.586l-.028-.021Zm11.653-16.76a2.589,2.589,0,0,1-.9.2,12.208,12.208,0,0,1-1.872-.033l-.261-.021c-.221-.019-.4-.033-.513-.035a6.7,6.7,0,0,0-5.815,3.027,5.933,5.933,0,0,0-.843,1.726,6.927,6.927,0,0,0-.247,1.319c-.035.346-.052.694-.066,1.045,0,.05,0,.1-.007.146a13.193,13.193,0,0,1-.37,2.983,24.992,24.992,0,0,1-.935,2.856c-.167.431-.33.81-.471,1.126-.066.15-.129.284-.186.4-.063.137-.12.254-.167.348a.358.358,0,0,0,.64.318c.052-.1.113-.233.184-.382.038-.083.08-.169.122-.266.078-.172.163-.363.252-.574q.077-.183.162-.389m12.1-13.567c-.567.874-2.524.737-3.8.633l-.094-.007c-.2-.016-.375-.031-.466-.033a5.928,5.928,0,0,0-5.219,2.722,5.651,5.651,0,0,0-.494.852,5.08,5.08,0,0,0-.41,1.363c-.019.113-.033.229-.047.344-.047.414-.064.84-.085,1.3a13.866,13.866,0,0,1-.391,3.133,26.587,26.587,0,0,1-.982,3m29.254-18.255a9.028,9.028,0,0,0-2.663,5.17,20.642,20.642,0,0,0-.329,6.394m-1.441-12.157c-.574.379-1.893,2.193-2.51,5.076a17.671,17.671,0,0,0-.367,6.114m28.218-6.994-1.839,10.844a.718.718,0,0,0,.1.5h0a.8.8,0,0,0,.572.372l5.264.812a.8.8,0,0,0,.928-.624l1.839-10.844a.772.772,0,0,0-.676-.871l-5.262-.812a.846.846,0,0,0-.52.085.742.742,0,0,0-.407.539Zm-14.079,9.8,11.1,1.488a6.645,6.645,0,0,0,1.243.052m2.147-11.884a6.826,6.826,0,0,0-1.6-.414l-19.715-2.646-4.433-.594-2.907-.391a6.515,6.515,0,0,0-6.392,2.86,5.677,5.677,0,0,0-.76,1.884c-.023.108-.042.217-.059.327l-.059.4a5.74,5.74,0,0,0,1.551,4.784m50.529,26.45c2.133-.393,4.4-.781,5.772-.989,2.863-.433,12.148.175,13.433.344a4.259,4.259,0,0,1,2.54,1.857c.062.1.127.209.2.323.631,1.017,1.535,2.373,2.326,3.475.407.57.786,1.071,1.081,1.424,0,0,1.575,2.849,3.254,5.25s8.068,8.615,9.7,10.109,3.357,2.4,3.628,2.041,1.813-1.09,2.448-2.493.951-2.222.815-3.039-4.443-5.349-5.8-6.8-6.8-6.936-8.07-8.478a51.921,51.921,0,0,1-3.512-5.7.4.4,0,0,0-.353-.209.422.422,0,0,0-.215.061c-.134.085-.57.325-1.064.6-.664.362-1.434.776-1.721.929a.4.4,0,0,0-.191.224,4.5,4.5,0,0,0-.15,1.38c0,.2,0,.476.012.793.028,1.179.1,2.964.141,3.91m2.764-40.842c-.584.991-8.223,12.132-8.223,12.132" transform="translate(-565.325 -2577.258)" fill="none" stroke="#b3b0a7" stroke-linecap="round" stroke-linejoin="round" stroke-width="0.5"/></g></svg>