<svg xmlns="http://www.w3.org/2000/svg" xmlns:xlink="http://www.w3.org/1999/xlink" width="287" height="80" viewBox="0 0 287 80"><defs><clipPath id="a"><rect width="287" height="80" transform="translate(-24 8)" fill="#fff" stroke="#707070" stroke-width="1"/></clipPath><clipPath id="b"><rect width="80.277" height="67.452" transform="translate(-19.406 4.838)" fill="none"/></clipPath></defs><g transform="translate(24 -8)" clip-path="url(#a)"><g transform="translate(158.735 6.791) rotate(14)" clip-path="url(#b)"><path d="M121.177,1673.056a6.45,6.45,0,0,0,4.014-11.5,6.451,6.451,0,0,1-9.641,8.207,6.448,6.448,0,0,0,5.627,3.293Zm-30.465,24.432c.464-.211.782-1.736.934-2.656m-9.533-.455a3.707,3.707,0,0,0,2.012,1.83m1.133-23.31a.465.465,0,0,0,.461-.411c0-.018,0-.035,0-.053a.464.464,0,1,0-.557.455.485.485,0,0,0,.093.009Zm-9.281,4.4c0-.621-.311-.621-.311-.621m-.411,1.589a1.158,1.158,0,0,0-.559-1.118m-6.627,4.378s.125.994.684,1.119m.124-1.989s.311,1.74,1.18,2.113m42.948-.521-.016,0-.649,1.249-1.376-.226,0,.015.979.989-.654,1.257.011.005,1.262-.632.994,1,.012,0-.217-1.4,1.244-.623,0-.016-1.375-.226-.215-1.391ZM102.857,1659l-.024,0-.987,1.9-2.091-.344,0,.024,1.489,1.5-1,1.91.017.009,1.919-.96,1.51,1.525.019,0-.331-2.128,1.892-.947,0-.023-2.09-.344-.327-2.115ZM53.4,1668.641l-.021.009.186,1.978-1.8.784.009.02,1.917.422.186,1.99h.018l1.013-1.715,1.945.429.013-.012-1.329-1.493,1-1.69-.009-.021-1.8.784-1.319-1.485Zm33.123-1.219h0a25.627,25.627,0,0,0-6.717-1.95m-4.563,37.88c-.8,1.191-1.6,4.6-2.312,7.46-.661,2.644-.506,5.629,1.472,7.694h0m13.172.85-.268-.032c-.364-.041-.773-.075-1.156-.081m-8.594-32.835c-.078-.1-.174-.231-.3-.389l-.005-.007c-.421-.51-.787-.509-1-.26m-.891,2.526c.168,1.056.749,4.667,1.012,5.6.414,1.463.625.119.463-1.848-.052-.629-.1-1.389-.142-2.157h0c-.093-1.675-.165-3.389-.213-3.874a.855.855,0,0,0-.017-.123m-1.49,1.86a63.9,63.9,0,0,0,1.156,6.307c.878,3.579,1.229,2.472,2.656,2.142m-5.848-16.291s-.834,1.056-.612,1.721m4.155,4.383c-.078-.082-.155-.164-.229-.244-.264-.285-.5-.558-.668-.775a13.622,13.622,0,0,1-1.831-2.886,9.253,9.253,0,0,0,.573-1.778,10.007,10.007,0,0,1,.387-1.975c.188-.315.011-.525-.277-.324a1.835,1.835,0,0,0-.547.895,2.115,2.115,0,0,1-.416.743c-.1.051-.47-.567-.562-.921s-.533-2.125-.607-2.4-.25-.718-.508-.669-.082.672-.031.853.3,1.642.293,1.794-.167.284-.263.019-.558-1.843-.651-2.094-.293-.658-.571-.546-.071.694-.019.837.6,1.942.615,2.107-.266-.533-.4-.853-.318-.949-.438-1.181-.2-.286-.34-.233-.156.3-.091.522.766,2.3.779,2.422-.062.23-.331-.084-.756-.94-.88-1.057-.273-.29-.409-.14.088.365.294.658.907,1.417,1.123,1.822.531,1.1.734,1.474a3.522,3.522,0,0,0,.867,1.022c.356.284,2.126,3.533,2.784,4.556l.115.175c.123.183.253.365.387.544.434.581.911,1.13,1.333,1.592m-25.369,9.048.127-.559m51.854,9.2-1.143-.345m.162.86a5.1,5.1,0,0,0,.84.083m3.088-.458a3.132,3.132,0,0,0-.927-.212m-.064,1.07a9.618,9.618,0,0,0,1.62.775m15.419-4.025-1.714.008m2.216-.6a13.153,13.153,0,0,0-3.075.021m3.083,2.451c-2.212-.2-7.594-.174-7.594-.174m-5.991-.435a6.826,6.826,0,0,0-2.139.46m9.593-1.607a34.426,34.426,0,0,0-9.96,1.07m-6.354,2.183s1.258.2,1.561-.065m.464-2.073a16.994,16.994,0,0,0-2.344-1.127m2.581.632c-.827-.768-4.105-1.712-4.105-1.712m9.629,6.394s6.47,2.915,8.243,3.25m-11.412-4.39a29.559,29.559,0,0,0,3.8,2.194c1.694.752,3.625,1.586,3.625,1.586m-8.408-3.815a.355.355,0,0,0,.65.1,4.934,4.934,0,0,0,.621-1.69c.027-.157.045-.315.056-.474a4.955,4.955,0,0,0-.052-1.144.354.354,0,0,0-.641-.146m-1.271,3.236a.354.354,0,0,0,.636.121l.014-.022c.023-.039.045-.077.067-.117a4.909,4.909,0,0,0,.575-3.087c0-.035-.01-.07-.016-.1,0-.009,0-.017,0-.025a.354.354,0,0,0-.637-.121m-.62,3.334A4.919,4.919,0,0,0,104,1706.1c0-.009,0-.018-.005-.026a.354.354,0,0,0-.695.138,4.26,4.26,0,0,1,0,1.344c0,.015,0,.029-.007.043a4.116,4.116,0,0,1-.134.555,4.237,4.237,0,0,1-.4.893.355.355,0,0,0,.6.383l.014-.022Zm1.155.361a3.406,3.406,0,0,1,.411.5c.715,1.048,5.331,3.533,8.579,5.288a78.179,78.179,0,0,0,7.871,3.319c1.065.511,3.984,1.75,4.075,1.788h0l-4.581-3.156,5.734,2.083-4.218-2,4,1.023.052-.291-3.315-1.321,4.768.7-2.953-1.291,2.186.414-6.074-2.737,5.98,1.12-.029-.356-2.722-1.3,3.757.91.111-.259-4.57-1.517,5.04.82-5.228-1.588,5.9.516-2.793-.728,1.785.071-1.5-.589,2.9.332-4.237-1.09,4.682-.307-5.324-.5,3.316-.53-1-.26,1.5-.079.059-.314-1.1-.1,1.821-.27-2.169-.374,2.49-.18.031-.355-3.349-.055,4.353-.478-7.8-.207,6.15-.61-1.109-.246,1.982-.167-1.778-.336,2.755-1.139s-.074.018-.206.046a18.178,18.178,0,0,1-5.193.372,33.92,33.92,0,0,0-3.465-.131,81.9,81.9,0,0,0-8.874.188c-3.592.439-7.15,1.213-8.059,1.735m-1.8-.2c-1.753-2.427-6.574-2.767-6.574-2.767l-.361.3.409.554-.524-.136-.171.518,1.736,1.1-1.738-.7-.145.376,1.709.737h0l.256.11-1.918-.326-.2,1.062.263.087h0l.006,0a1.235,1.235,0,0,1,.127.042l.016.007h0l.464.153h0l.153.051-1.137.005-.181.955.354.067-.372.223-.08.425,2.27.209-2.011.17-.127.342s4.75,1.188,7.146-.142m-6.633-2.51c-.04-.01-.081-.019-.122-.026l-.261-.047-.522-.094-1.044-.188-2.089-.367q-.566-.1-1.133-.191m6.77-.022c-.073-.015-.146-.027-.217-.046-.172-.044-.332-.156-.506-.19a1.155,1.155,0,0,0-.265-.026c-.09,0-.181.012-.271.015a1.313,1.313,0,0,1-.266-.018l-.262-.041-.524-.081-1.048-.162-2.095-.334-.664-.109h0m-16.9-2.82q-1.684-.263-3.367-.542c-1.355-.226-18.689-3.3-20.039-3.555a.118.118,0,0,0-.139.1l-.145.867a.119.119,0,0,0,.1.137c1.36.2,18.7,3.262,20.05,3.49s2.733.471,4.1.716l.081.015.261.047c.087.016.175.028.26.052a5.137,5.137,0,0,1,.483.19l0,0m15.877,12.69a.49.49,0,0,1,.351-.6c.182-.057.7-.187,1.051-.272a.367.367,0,0,0,.273-.425c-.017-.087-.037-.179-.061-.263-.075-.267-.486-.932-.637-.908s-1.7.414-2.137.5a4.907,4.907,0,0,0-.651.179h0m-2.759,5.712a3.6,3.6,0,0,0-.07-.89c-.039-.261-.085-.527-.122-.716l-.009-.043m-.137.727c0,.133.033,1.05.342,1.108.169.031.769-.146,1.838-.281a4.416,4.416,0,0,1,2.568.406c1.2.411,1.808,2.313,2.163,2.641s1,.791,1.367-.052a4.959,4.959,0,0,0-.118-2.464m-5.063-6.148a1.131,1.131,0,0,0-.269.062,2.672,2.672,0,0,0-.819.467h0m2.715,1.181c-.294-.428-.413-.741-.572-1.009a1.142,1.142,0,0,0-1.054-.7m8.639,2.857c0-.048,0-.093,0-.136,0-.5.224-.67.517-.7.208-.022.8-.048,1.195-.064a.4.4,0,0,0,.389-.4c0-.1,0-.2-.008-.3-.022-.306-.321-1.113-.489-1.121s-1.924.075-2.42.074a5.508,5.508,0,0,0-.742.049m-4.235,5.567a3.18,3.18,0,0,0,.111-.818c.021-.339.033-.708.034-.96,0-.462-.16-1.6-.223-2.061-.01-.077-.018-.134-.022-.167m-.086,3.078c-.047.321-.116,1.021.15,1.128.176.071.863.011,2.048.1l.212.018a4.956,4.956,0,0,1,2.474.985c1.206.708,1.447,2.9,1.758,3.329s.9,1.073,1.488.243.481-3.737.153-4.384-1.16-1.612-1.907-2.785c-.159-.251-.287-.475-.39-.678h0a8.637,8.637,0,0,1-.58-1.606c-.152-.435-.413-.929-.984-.989a1.289,1.289,0,0,0-.306.008,5.1,5.1,0,0,0-1.937.88,6.194,6.194,0,0,1-2.081.486c-.073.013-.114.2-.135.365m-3.707-1.472-.419-.187m.419.187c.729.325,1.782.79,2.4,1.048l.318.133.185.077a1.944,1.944,0,0,0,.807.215c.046,0,.093,0,.144-.01m.189,3.021-.111-.045c-.054-.021-.116-.043-.186-.064a43.013,43.013,0,0,0-5.614-.84c-.369-.038-.666-.067-.849-.083M76.34,1703.629l-.008.017h0c-.572,1.372-1.456,4.291-1.942,5.465a13.6,13.6,0,0,0-.249,5.342c.086.531.153,2.242.264,4.049h0a19.362,19.362,0,0,0,.682,5.006c.665,1.213.9,2.582,1.448,2.622s7.992-4.336,9.618-6.891c.016-.025.031-.049.046-.074q.2-.339.4-.656.289-.47.556-.891c.385-.61.736-1.149,1.048-1.634.26-.405.494-.772.7-1.111.216-.357.4-.683.547-.989.543-1.124-.995-1.71-2.437-2.755m-11.428-3.49a19.44,19.44,0,0,1,2.624-3.1h0a16.09,16.09,0,0,0,1.233-1.59h0l.032-.048a14.773,14.773,0,0,0,1.084-1.914m-2.35,3.552a1.818,1.818,0,0,0-.245-.049c-.189-.036-.195-.312-.435-.181a.865.865,0,0,1-.626-.062m4.691-4.833a16.056,16.056,0,0,0-1.823,1.877,2.773,2.773,0,0,0-.319,1.605c0,.018,0,.035-.008.052m-3.1.7,0-.019c.053-.3.169-.721.233-.987.027-.108.049-.212.067-.305.045-.229.067-.394.067-.394m-.371,1.706a1.107,1.107,0,0,0-.024.255.632.632,0,0,0,.306.45c.064.032.182-.032.282-.1a1.988,1.988,0,0,0,.176-.142m2.721-6.255c-.4.764-1.437,2.717-1.538,2.839a8.72,8.72,0,0,1-1.343.516,5.276,5.276,0,0,0-.608.266,2.465,2.465,0,0,1-1.415.337c-.169-.018-.248.151-.2.3a.315.315,0,0,0,.109.149,2.1,2.1,0,0,0,.791.268,4.6,4.6,0,0,0,1.045-.2m6.889-18.661s-1.015,4.691-1.12,5.708a57.566,57.566,0,0,1-2.766,7.785c-.112.167-.036.411.153.685a6.75,6.75,0,0,0,1.795,1.564c.083.052.164.1.242.145a46.161,46.161,0,0,0,8,2.233c.771,0-.768-6.1-.838-7.289s-.879-8.6-.739-10.11a13.9,13.9,0,0,0,.105-3.959m-11.445,20.771c.637-1.385,1.242-2.914,1.412-3.363a14.679,14.679,0,0,0,.456-1.664,14.256,14.256,0,0,0,.417-3.135,31.3,31.3,0,0,0-1.283-5.691q-.057-.152-.112-.273a4.458,4.458,0,0,1-.243-.675,4.942,4.942,0,0,1,.019-2.458c.174-.8.373-3.357.6-4.178m2.843-3.059c-.866.284-2.65,1.135-3.12,2.28-.141.344-.262.655-.366.953a8.939,8.939,0,0,0-.457,2.039,24.661,24.661,0,0,0,.181,4.033m7.607,28.482s.709-1.225,1.365-2.247c.21-.327.478-.708.781-1.121,1.176-1.6,2.893-3.7,3.928-5.184a11.974,11.974,0,0,0,.652-1.015h0c.06-.109.11-.209.148-.3a11.136,11.136,0,0,0,.735-5.655c-.207-1.244-.5-2.765-.824-4.149-.175-.745-.361-1.449-.549-2.049-.54-1.717-.838-4.235-1.205-6.1a23.714,23.714,0,0,1-.37-4.115c0-.112-.008-.218-.012-.319a9.933,9.933,0,0,0-.871-3.184,5.066,5.066,0,0,0-.861-1.3m-2.61-4.875a5.354,5.354,0,0,0-.625,1.473,4.777,4.777,0,0,0-.134,1.984,1.146,1.146,0,0,0,.28.55,3.025,3.025,0,0,0,2.33.977c.292-.033.552-.073.759-.109.312-.054.5-.1.5-.1a1.472,1.472,0,0,1-1.033-1.1c-.125-.845.313-1.126.188-1.846m-.689-4.644a1.207,1.207,0,0,0,.165.173c.106.1.253.225.429.379s.379.339.6.547a12.658,12.658,0,0,1,.963,1.025,8.537,8.537,0,0,1,.891,1.287,6.061,6.061,0,0,0,3.894,2.886,4.585,4.585,0,0,0,2.208.079c.5-.175.1.232-.213.446a2.923,2.923,0,0,1-1.046.445c-.16.013.138.216.478.553.449.445-1.606,3.435-3.889,3.787-.523.08-.464.406-.464.561s-.689.393-1.238.323m-10.7-14.77a.644.644,0,0,0-.229.227,3.587,3.587,0,0,0-.309.566,4.571,4.571,0,0,0-.321,1.008,12.48,12.48,0,0,0-.09,2.631,8.334,8.334,0,0,1,.142,3.39c-.377,1.247-.9,3.581-.48,4.324m8.19-7.459a2,2,0,0,0,.638-1.507.638.638,0,0,0-1-.457,2.547,2.547,0,0,1-.163.205c-.384.429-.468.056-.937-.23a.806.806,0,0,1-.076-.053h0a3.515,3.515,0,0,1-.607-.726c-.247-.364-.476-.761-.609-1h0m-1.27-.362a5.5,5.5,0,0,0-1.307.442h0a4,4,0,0,0-.6.36,3.34,3.34,0,0,0-.511.457,2.985,2.985,0,0,0-.479.707l-.008.1c-.035.428-.082.891-.1,1.192a5.753,5.753,0,0,0,.512,2.411c.284.566.658,1.433,1.415,1.692a1.451,1.451,0,0,0,.521.073,2.743,2.743,0,0,0,1.823-.835m0-6.238-.445-.13c-.277-.08-.554-.157-.825-.232a10.522,10.522,0,0,0-2.884-.554c-.26.068-.259.167-.228.228m8.323,2.224c0-.048-.045-.1-.164-.173a23.841,23.841,0,0,0-3.777-1.362m6.367-4.188a3.506,3.506,0,0,0,.784-.021m-2.846-2.289c-1.072,0-3.691,1.423-4.867,2.062m3.808-.285s0,.788.1,1.823h0c.022.243.05.5.085.762.038.288.082.57.128.839h0c.119.695.253,1.3.326,1.73m2.521-5.455a5.663,5.663,0,0,0-1.069.409,2.761,2.761,0,0,0-.8.522c-.181.24-.331.721-.781.9a.984.984,0,0,0-.415.29m1.992-1.714a1.585,1.585,0,0,1,.948.642,6.815,6.815,0,0,0,1.053,1.443,1.691,1.691,0,0,0,1.172.631c.181,0-.331-.361-.722-.992s-.06-1.413-.21-1.954-1.263-1.293-1.894-1.8a9.238,9.238,0,0,0-3.487-1.263,4.036,4.036,0,0,0-2.525.992,21.4,21.4,0,0,0-2.615,3.337c-.071.112-.144.223-.216.332-.347.528-.695,1.016-.912,1.315h0m9.041,4.39c1.289.117,2.545.229,2.625-.032.093-.3-1.43-1.019-2.057-1.313-.4-.186-.865-.394-1.654-.679-.86-.311-2.1-.714-4.032-1.281-1.5-.441-.574-.142-3.157-.87-.289-.081-.54-.153-.766-.215h0a9.893,9.893,0,0,0-1.827-.374c-.862-.086-2.479-.161-2.558.185-.048.212.807.617,2.511,1.418.575.27.919.432,1.258.578m2.712,8.547a2.674,2.674,0,0,0-.85.752c-.35.525-.557,2.4-.159,2.865s1.4-.048,1.767-.717a9.856,9.856,0,0,1,1.989-2.372c.305-.254.639-.529.949-.772m-4.065-1.18a2.508,2.508,0,0,1,.392,1,1.1,1.1,0,0,1,0,.24c-.007.064-.016.126-.026.187a3.315,3.315,0,0,1-.34,1.038" transform="translate(-70.246 -1654.002)" fill="none" stroke="#b3b0a7" stroke-linecap="round" stroke-linejoin="round" stroke-width="0.5"/></g></g></svg>