<svg xmlns="http://www.w3.org/2000/svg" xmlns:xlink="http://www.w3.org/1999/xlink" width="285" height="78" viewBox="0 0 285 78"><defs><clipPath id="a"><rect width="285" height="78" transform="translate(181 208)" fill="#fdfcf8" stroke="#6c655d" stroke-width="1"/></clipPath></defs><g transform="translate(-181 -208)" clip-path="url(#a)"><g transform="translate(-337.269 -3231.171)"><g transform="translate(674.402 3436.689)"><path d="M746.975,3536.855s5.576,5.5,7.777,6.813m-1.13-14.687a3.451,3.451,0,0,0,.694-.036m13.352-14.853a.167.167,0,1,0,.167.166.168.168,0,0,0-.167-.166Zm-4.395,11.531a.168.168,0,1,0,.166.168.167.167,0,0,0-.166-.168Zm-6.2-29.105v0c-.008.253.049.673.069.987.02.294.069.1.207.087m-21.192,15.815h0a4.164,4.164,0,0,0,.414.112m23.922,35.587s.541.209.828.28m-13.247-.211a4.657,4.657,0,0,0,.682-.629m-3.288-17.16c-.167,2.392-.116,7.669-.051,9.008.069,1.419.189,5.989.189,5.989s.316.083.85.2a36.172,36.172,0,0,0,4.894.738c.6.043,1.213.067,1.817.061a28.117,28.117,0,0,0,4.428-.461,27.024,27.024,0,0,0,4.7-1.164l.134-.067.558-.278s-.884-7.73-1.353-11.929c-.034-.3-.067-.59-.095-.853-.049-.444-.093-.824-.124-1.116m1.1,35.51-.022,1.326m-.444-2.211a4.143,4.143,0,0,1,.219,1.224c-.02.539.01,1.564.01,1.564l.337.049.2-.069.018-1.651m3.329.687a8.222,8.222,0,0,1,1.069,2.14,12.974,12.974,0,0,1-.164,1.793c-.083.5-.594.568-1.3.24s-2.306-.947-2.511-1.864a21.281,21.281,0,0,1-.142-2.3,1.439,1.439,0,0,0-.069-.26,2.588,2.588,0,0,0-.211-.434c-.231-.39-.538-.751-.694-.99-.026-.04-.053-.083-.085-.128a5.363,5.363,0,0,1-.444-.766,2.742,2.742,0,0,1-.26-1.069,3,3,0,0,1,.7-1.927m-12.839,6.146-.01-2.134m-.513.416a2.091,2.091,0,0,1,.26.836c.012.446.063,1.8.063,1.8l.333.01.158-.11s-.031-1.623.02-2.231a4.064,4.064,0,0,1,.43-1.276m-4.874.6a8.764,8.764,0,0,1-.937,1.878,26.105,26.105,0,0,0-1.724,2.067c-.369.532-.674,1.126-.515,1.363s.982.188,1.868.03,2.43-.219,2.994-1.126.8-2.365,1.142-2.866a7.4,7.4,0,0,1,.781-.98,2.69,2.69,0,0,1,.41-.351c.034-.02.067-.043.1-.065a6.655,6.655,0,0,0,.752-.551,1.279,1.279,0,0,0,.384-.511c.136-.408.117-2.389-1.262-2.864m8.513-15.543a18.183,18.183,0,0,1,1.209,3.322,17.214,17.214,0,0,0,1.014,4.392c.655,1.5,1.789,5.926,1.965,6.572.081.3.176.732.274,1.17.112.505.231,1.02.335,1.363a21.716,21.716,0,0,1,.625,2.525,8.98,8.98,0,0,0,.264,1.355,4.083,4.083,0,0,0,.507,1.136,2.307,2.307,0,0,0,2.168.974c.475-.16.542-.576.426-1.134a4.994,4.994,0,0,0-.217-.653c-.163-.434-.392-.988-.586-1.529a6.7,6.7,0,0,1-.395-1.428,12.061,12.061,0,0,0-.345-2.173,20.423,20.423,0,0,1-.246-3.083,61.822,61.822,0,0,0-.633-7.559c-.408-1.556-1.117-3.763-1.377-4.957a12.066,12.066,0,0,1-.152-1.524m-15.975.893c.012.211.018.377.018.485a18.268,18.268,0,0,1-.118,2.5,47.882,47.882,0,0,0-.5,4.825c-.029,1.55.119,5.829.119,7.006a22.648,22.648,0,0,1-.706,4.5c-.053.162-.116.347-.181.543-.115.335-.237.694-.329,1a3.139,3.139,0,0,0-.16.7c0,.335.29.635,1.016.511s1.945-1.935,2.454-2.552a4.511,4.511,0,0,0,1.168-1.913,7.631,7.631,0,0,0-.14-1.487c0-.081-.008-.159-.012-.234a7.629,7.629,0,0,1,.071-1.687c.109-.69,1.029-4.7,1.345-6.205a12.89,12.89,0,0,0,.483-2.947,24.012,24.012,0,0,1,.1-3.087c.061-.337.164-.763.27-1.217m-.334-39.749a6.706,6.706,0,0,0,2.507.724,6.177,6.177,0,0,0,3.428-.905m3.681,3.558.035-.582-2.047-.075m.763,13.251-2.191-.184-.024.539m-7.079.023.023-.463-2.441.246m6.139-2.55a.465.465,0,1,0,.466.465.466.466,0,0,0-.466-.465Zm.127,5.767c.083.468.227,1.253.379,2.024.112.558.227,1.107.327,1.517.32,1.3.957,2.033,2.132,2.033a15.823,15.823,0,0,0,3.925-.669v0a3.643,3.643,0,0,0,.716-.312.638.638,0,0,0,.337-.371,32.45,32.45,0,0,0-.88-5.085c-.081-.282-.181-.684-.294-1.152-.219-.927-.476-2.1-.659-3.061h0a14.91,14.91,0,0,1-.254-1.618v-.049a14.93,14.93,0,0,1,.317-2.128c.266-1.352.633-2.922.834-3.634.347-1.225.533-3.187.671-3.927s.392-3.349.392-3.349m-15.62.929c.057.834-.3,3.586.174,5.333.225.831.41,1.821.6,2.74.132.651.264,1.267.412,1.764.355,1.191-.177,3.118-.584,5.122s-1.317,6.189-1.369,7l-.229,1.269a1.714,1.714,0,0,0,.2.089c.113.047.274.107.505.18a32.364,32.364,0,0,0,4.754.98,3.037,3.037,0,0,0,2.473-1.568,13.572,13.572,0,0,0,.422-2c.1-.627.211-1.342.313-2.06.231-1.6.434-3.223.513-3.978a16.761,16.761,0,0,0-.361-5.05m-4.992-8.263c-.033-.142-.065-.27-.093-.382m.12.5c.29,1.159.767,3.05,1.014,3.791.369,1.1,1.74,4.189,2.033,4.728a17.98,17.98,0,0,0,1.053,1.542m-2.207-11.736s1.032,4.142,1.326,5.05,1.745,4.773,1.745,4.773c.33-.9,2.4-7.919,2.6-8.886.075-.365.173-.972.268-1.617.113-.764.219-1.576.272-2.1.02-.209.032-.371.032-.466m7.477,13.269a8.242,8.242,0,0,0-1.1,3.541c-.006.087-.012.174-.016.262a7.057,7.057,0,0,1-.529,3.321c-.166.282-.388.625-.217.9a.522.522,0,0,0,.706.1,1.228,1.228,0,0,0,.436-.647,12.725,12.725,0,0,0,.4-3.091q.018-.189.041-.379a11.519,11.519,0,0,1,1.627-4.562,11.183,11.183,0,0,1,1.225-1.625,5.113,5.113,0,0,0,.614-.743,1.353,1.353,0,0,0,.229-.917.8.8,0,0,0-.605-.67h0a.2.2,0,0,0-.225.153,6.442,6.442,0,0,1-.962,2.022c-.413.612-.876,1.188-1.286,1.8-.118.173-.231.349-.337.53Zm7.15-.607.016,0c.172-.032.347-.028.517-.063a1.181,1.181,0,0,0,.842-.734.312.312,0,0,0,0-.265c-.077-.126-.268-.108-.4-.049a1.334,1.334,0,0,0-.57.48m-3.62,5.169a1.175,1.175,0,0,0-.383.361.405.405,0,0,0,.041.489.4.4,0,0,0,.418.043,1.179,1.179,0,0,0,.351-.266,1.739,1.739,0,0,0,.6-.905,2.313,2.313,0,0,0-.146-.907,1.878,1.878,0,0,1-.053-.284.9.9,0,0,1,.069-.493m-.888,1.968a.777.777,0,0,0,.29-.66c0-.25-.059-.5-.052-.751a1.645,1.645,0,0,1,.026-.221,2.735,2.735,0,0,1,.268-.738m3.554-2.909a2.332,2.332,0,0,1-.475.1c-.178.021-.355.039-.529.077a2.376,2.376,0,0,0-.854.387m-9.363,15.312a2.269,2.269,0,0,0,1.022-.365,25.679,25.679,0,0,0,7.01-5.909,34.839,34.839,0,0,0,4.935-7.878c.935-2.031.643-2.883.341-3.349a2.426,2.426,0,0,0-1.061-.852c-.111-.061-.227-.122-.351-.194-.04-.023-.079-.045-.119-.067a2.463,2.463,0,0,1-1.457-1.572,3.408,3.408,0,0,1,0-1.379,1.869,1.869,0,0,0-.069-1.174,3.263,3.263,0,0,0-2.11-1.144c-.059-.008-.119-.018-.18-.027a3.046,3.046,0,0,0-2.037.108,3.279,3.279,0,0,0-.716.851,2.726,2.726,0,0,1-1.418,1.274,6.377,6.377,0,0,1-1.256.268,3.874,3.874,0,0,0-.594.107m-2.568,8.841c-.1,1.176-.178,2.361-.255,3.606-.024.37-.047.747-.073,1.132m1.055,8.577a3.181,3.181,0,0,0,1.347-.471,26.476,26.476,0,0,0,7.245-6.1,35.657,35.657,0,0,0,5.057-8.069c.532-1.158,1.14-2.85.282-4.174a3.192,3.192,0,0,0-1.373-1.14c-.109-.06-.219-.119-.334-.184l-.122-.069c-.619-.349-.921-.539-1.047-1.037a2.684,2.684,0,0,1,.012-1.049,2.654,2.654,0,0,0-.152-1.679,4.022,4.022,0,0,0-2.746-1.6l-.175-.025a3.574,3.574,0,0,0-2.676.265,3.978,3.978,0,0,0-.919,1.061c-.29.432-.539.8-.961.933a5.4,5.4,0,0,1-1.1.237c-.152.02-.308.037-.5.078m-3.261,8.109c-.124,1.093-.211,2.174-.286,3.285m7.624-4.286a2.508,2.508,0,0,0-.639.891,5.438,5.438,0,0,0-.148,1.874c.008.1.02.2.033.3.119.779.213,1.328.442,1.509s.394.225.524.106m3.917-3.363a2.084,2.084,0,0,0-.278-.316c-.069-.055-.246-.17-.388-.256m-1.627.657a.57.57,0,0,0-.523.146c-.116.132.134.371.349.556.1.085.187.16.233.209a.68.68,0,0,1,.123.194,1.083,1.083,0,0,1,.073.219m.146-2s-.377.012-.51.2a.273.273,0,0,0-.052.119.5.5,0,0,0,.162.367c.108.134.74.7.8.765s.389.278.389.278m-.574-2.148a.386.386,0,0,0-.215.424.365.365,0,0,0,.085.188,4.885,4.885,0,0,0,1.069.809m-2.6-.681a5.066,5.066,0,0,0,.884,0m-.28,1.807c-.065-.024-.13-.049-.2-.075-.33-.133-.663-.289-.8-.345a3.614,3.614,0,0,0-1.189.345m2.736.232a2.317,2.317,0,0,0,.858.041c.3-.061.231-.364.426-.4s.377-.1.436-.23a.613.613,0,0,1,.388-.438c.28-.084.268-.473.256-.68s.217-.217.316-.46a.89.89,0,0,0-.1-.814.553.553,0,0,0-.193-.083,8.145,8.145,0,0,0-.978-.171l-.047-.006m-1,.091.142.45.063.205c.207.656.619.68.753.631a.359.359,0,0,0,.2-.388v-.012c-.026-.182-.087-.594-.11-.8a.62.62,0,0,0-.041-.175.937.937,0,0,0-.371-.383,1.03,1.03,0,0,0-1.008-.219,6.426,6.426,0,0,0-1.3.667,3.219,3.219,0,0,1-.422.13c-.077.02-.15.036-.211.049m-2.478.008c-.345,0-.665,0-.915,0-.065,0-.128,0-.191,0a2.957,2.957,0,0,0-2.286,1.177m4.408-1.2c.773-.014,1.477-.036,1.673-.042.033,0,.053,0,.053,0m-3.353,4.606c1.237.286,2.74.55,3.018.564.152.008.357-.162.556-.44a4.118,4.118,0,0,0,.714-1.913m-8.76-2.274c.067.152.142.325.223.51.12.283.255.586.377.868s.237.544.324.742l.022.051c.334.765,1.16,1.12,2.1,1.493a6.066,6.066,0,0,0,.584.188m.345-4.333.083-.544c0-.018,0-.036,0-.051a.352.352,0,0,0-.123-.264.347.347,0,0,1-.1-.369l.036-.113a.339.339,0,0,0,.017-.106.351.351,0,0,0-.071-.207,1.358,1.358,0,0,1-.264-.708c-.027-.4-.071-1.02-.085-1.367-.013-.329.022-1.463.022-2.509,0-.308,0-.608-.008-.878a7.184,7.184,0,0,0-.059-.844,13.131,13.131,0,0,0-.777-3.089c-.412-.891-.8-.753-.8-.753s-.436-.114-.984-.229c-.316-.067-1.174-.263-1.843-.415l-.588-.136m-2.672,13.076a44.937,44.937,0,0,0,2.341-5.7c.128-.406.328-1.193.535-2.065.42-1.768.878-3.88.878-3.88l-.732-.4.434-.5s-.392-.276-.783-.527c-.132-.085-.264-.167-.381-.235a9.962,9.962,0,0,0-1.726-.893M736.355,3517a1.4,1.4,0,0,0,.61-.58,3.054,3.054,0,0,0,.231-.512,6.009,6.009,0,0,0,.31-1.148,4.332,4.332,0,0,0-.124-1.712.938.938,0,0,0-.456-.487m7.476,4.205a11.876,11.876,0,0,0-1.675-.71m-6.74,1.357c.241.152.473.269.6.355.26.183,3.067,2.188,3.815,2.621s2.3,1.268,3.511.672,1.3-.887,1.572-1.4c.235-.44,1.148-2.673,1.552-3.519h0m-2.373,2.84a5.182,5.182,0,0,0-.584-.907,6.137,6.137,0,0,0-1.8-1.546c-.1-.049-.235-.12-.375-.205-.535-.321-1.253-.84-1.6-1.1-.436-.337-2.04-1.58-2.521-2.039a6.3,6.3,0,0,0-1.028-.943m.444,3.671c-.191-.2-.432-.454-.537-.566s-.533-.053-.939.014m1.31-2.4a1.017,1.017,0,0,0-.1-.395,3.021,3.021,0,0,0-.174-.323,5.168,5.168,0,0,0-.759-.937m-.172,1.941a.569.569,0,0,0,.307-.62.4.4,0,0,0-.158-.252m.106,1.777a.444.444,0,0,0,.233-.458.422.422,0,0,0-.154-.276h0a.9.9,0,0,0-.333-.17l-1.775.288m.919-1.113-1.028.13m1.316-1.138a.445.445,0,0,0-.042.043v0a.685.685,0,0,0-.075.1,1.6,1.6,0,0,0-.172.813v.048a.754.754,0,0,0,.044.248.406.406,0,0,0,.392.25.438.438,0,0,0,.187-.047.915.915,0,0,0,.383-.5c.012-.026.02-.051.03-.076a1.131,1.131,0,0,0,.055-.669.532.532,0,0,0-.215-.3m-2.393.353a.5.5,0,0,0-.172.505c.03.193.2.321.221.517.02.169-.095.4-.077.568a.537.537,0,0,0,.154.331.247.247,0,0,1,.081.219,1.1,1.1,0,0,0,.284.771c.138.164.093.5.268.63a.628.628,0,0,0,.168.085,1.3,1.3,0,0,0,.639.006,4.448,4.448,0,0,0,.673-.205,3.236,3.236,0,0,0,.373-.166c.284-.15.454-.8.018-.791l-1.712.241m.633,6.055a.826.826,0,0,0,.01.1.8.8,0,1,0,1.578-.232.721.721,0,0,0-.022-.1m.205-.347a.517.517,0,0,0,0-.057.393.393,0,0,0-.448-.332l-.061.008-1.178.176-.059.008a.394.394,0,0,0-.335.39c0,.018,0,.038,0,.058a.4.4,0,0,0,.31.327.372.372,0,0,0,.138,0l1.3-.191a.41.41,0,0,0,.13-.043.4.4,0,0,0,.205-.347Zm-1.083-4.761.034.252.266,2.057.27,2.071m-1.178.176-.7-4.357m-1.213-3.582-.807-.428-.69-.365m2.106.156-.5-.3-.671-.395-1.173.174-.584.4,1.5.884.827-.122.286-.043.335-.05.164-.024,1.1-.163.158-.024.048-.006.588-.087.152-.024.389-.057,1.734-1.308-.219-.3-1.308.193-1.109.8m-1.708.446.1-.015,1.1-.162.538-.081.793-.116.838-.562m-1.631.678-.027-.187-.1-.714-.511.077-1.16.172-.515.075.079.537m-3.641-32.972,4.281,29.82m.956,2.369a1.688,1.688,0,0,1,.045-.329,1.6,1.6,0,0,1,.27-.568l-3.248-31.3-2.8-4.1-1.708,4.678,5.712,31.029.008.006a1.6,1.6,0,0,1,.558.759m2.947,4.728a1,1,0,0,0,.493-.783m10.16-8.246-1.282.256s-.485-.051-.968.943-1.858,4.531-2.29,5.98c-.357,1.2-.732,2.691-.866,3.274m7.241-20.648c-.132-.029-.231-.152-.349-.221a.29.29,0,0,0-.235-.024.159.159,0,0,0-.106.118.348.348,0,0,0,.128.292l.392.426a.606.606,0,0,0-.292-.055.245.245,0,0,0-.207.207.4.4,0,0,0,.124.274v0a4.394,4.394,0,0,0,.513.507.283.283,0,0,0-.335.174.359.359,0,0,0,.095.4.227.227,0,0,0-.045.24.178.178,0,0,0,.193.111m-1.3-3.183a.547.547,0,0,0-.128.347,1.121,1.121,0,0,0,.118.477,2.343,2.343,0,0,0,.824.984.285.285,0,0,0-.369.132.529.529,0,0,0,.014.5.762.762,0,0,0,.367.317.654.654,0,0,0-.014.809.485.485,0,0,0,.536.14m-1.7-5.129a.277.277,0,0,0-.357.073.4.4,0,0,0-.024.332,1.034,1.034,0,0,0,.173.286q.275.363.555.728l.671.884m-.77-3.6-.03-.019a.351.351,0,0,0-.473.043.69.69,0,0,0,0,.62,6.731,6.731,0,0,0,.259.658,8.656,8.656,0,0,0,1.189,1.9m.422-1.089a6.649,6.649,0,0,1-.836-3.558c0-.1,0-.221-.081-.26s-.154.025-.207.091a1.626,1.626,0,0,0-.316,1.1,2.932,2.932,0,0,0,.077.509,5.035,5.035,0,0,0,.2.634,10.018,10.018,0,0,0,1.608,2.791v0m0,0a1.44,1.44,0,0,1,.146.592.871.871,0,0,1-.034.247c-.065.227-.229.42-.231.659s.15.452.1.674a.893.893,0,0,1-.247.369.446.446,0,0,0-.12.42.149.149,0,0,0,.024.044.263.263,0,0,0,.26.11.4.4,0,0,0,.063-.018.648.648,0,0,0,.233-.156l0,0a1.461,1.461,0,0,0,.4-.736,4.426,4.426,0,0,0,.13-1.58,3.217,3.217,0,0,0-.367-.923c-.031-.061-.065-.122-.1-.183-.12-.215-.241-.43-.359-.645-.063-.116-.158-.246-.274-.225a.148.148,0,0,0-.081.045.265.265,0,0,0-.073.162.6.6,0,0,0,.055.278c.114.286.3.532.434.807.01.02.02.039.03.061m9.517,2.479a.182.182,0,0,0,.2-.111.224.224,0,0,0-.047-.24.359.359,0,0,0,.1-.4.284.284,0,0,0-.337-.174,4.453,4.453,0,0,0,.515-.509.387.387,0,0,0,.122-.274.245.245,0,0,0-.207-.207.606.606,0,0,0-.292.055l.394-.426a.346.346,0,0,0,.126-.292.159.159,0,0,0-.1-.118.282.282,0,0,0-.234.024c-.12.069-.219.191-.349.221m.077,2.981a.483.483,0,0,0,.535-.14.655.655,0,0,0-.012-.809.767.767,0,0,0,.365-.317.535.535,0,0,0,.016-.5.287.287,0,0,0-.371-.132,2.344,2.344,0,0,0,.826-.984,1.108,1.108,0,0,0,.116-.477.543.543,0,0,0-.126-.347m-.673.884c.225-.294.448-.59.673-.884q.275-.364.554-.728a1.029,1.029,0,0,0,.172-.286.39.39,0,0,0-.024-.332.274.274,0,0,0-.357-.073m-1.188,1.9a8.674,8.674,0,0,0,1.188-1.9c.1-.213.184-.434.26-.658a.69.69,0,0,0-.006-.62.352.352,0,0,0-.474-.043.167.167,0,0,0-.027.019m-1.811,3.426v0a9.994,9.994,0,0,0,1.61-2.791,5.781,5.781,0,0,0,.2-.634,2.759,2.759,0,0,0,.075-.509,1.624,1.624,0,0,0-.314-1.1c-.055-.065-.136-.128-.207-.091s-.087.162-.081.26a6.686,6.686,0,0,1-.836,3.558m-.448,1.308c.01-.022.02-.041.03-.061.138-.274.32-.521.436-.807a.594.594,0,0,0,.053-.278.27.27,0,0,0-.071-.162.162.162,0,0,0-.081-.045c-.118-.021-.211.109-.276.225-.118.215-.238.43-.357.645-.036.065-.073.132-.109.2a3.225,3.225,0,0,0-.359.907,1.885,1.885,0,0,0-.03.361,6.153,6.153,0,0,0,.16,1.217,1.46,1.46,0,0,0,.4.738l0,0a.756.756,0,0,0,.178.132.358.358,0,0,0,.118.042.263.263,0,0,0,.26-.11.211.211,0,0,0,.026-.044.447.447,0,0,0-.122-.42.912.912,0,0,1-.245-.369c-.051-.222.1-.444.1-.674s-.166-.432-.231-.659a1.221,1.221,0,0,1,.112-.838m-2.268,5.679a8.94,8.94,0,0,0-.031,2.138,3.572,3.572,0,0,0,.079.391,2.554,2.554,0,0,0,.911,1.438m.909-5.947a2.63,2.63,0,0,0-.128,1.413c0,.04.01.079.016.119a8.613,8.613,0,0,1,.231,1.771,4.985,4.985,0,0,0-.061,1.335,2.138,2.138,0,0,0,.816,1.136m-9.312-5.662a2.025,2.025,0,0,1-.215.994,4.647,4.647,0,0,1-.377.65,4.562,4.562,0,0,0-.925,1.755c-.1.659.142,1.367-.116,1.981a6.306,6.306,0,0,1-.755,1.028c-.01.013-.02.03-.028.043a1.987,1.987,0,0,0-.1,1.949c.116.229.276.43.4.655a1.076,1.076,0,0,1,.15.734.545.545,0,0,1-.541.444,1.831,1.831,0,0,0,1.4-.125,1.767,1.767,0,0,0,.428-.317,1.835,1.835,0,0,0,.46-.767,1.027,1.027,0,0,1-.367,1.15.805.805,0,0,1-.152.089,1.514,1.514,0,0,0,.18.026,1.218,1.218,0,0,0,.878-.31,1.2,1.2,0,0,0,.367-1.03.78.78,0,0,1,.146.722,1.691,1.691,0,0,0,.5-1.057,3.737,3.737,0,0,0,0-.5,1.745,1.745,0,0,1,.069-.687,4.234,4.234,0,0,1,.566-.823,2.617,2.617,0,0,0,.316-1.738c-.067-.6-.243-1.178-.327-1.771a3.34,3.34,0,0,1,.037-1.3m-1.01-3.072.087-.041a10.79,10.79,0,0,0,2.134-1.323m4.45,2.722a.314.314,0,0,0-.313.278.116.116,0,0,0,0,.038.317.317,0,1,0,.458-.282.3.3,0,0,0-.14-.034Zm-6.584-1.4a9.9,9.9,0,0,0,.838,2.964c.028.052.055.1.085.148s.049.081.075.118a3.125,3.125,0,0,0,2.43,1.446,2.5,2.5,0,0,0,2.034-1.4c.016-.028.031-.057.047-.087.035-.061.069-.126.1-.191a7.329,7.329,0,0,0,.505-1.339.566.566,0,0,0,.156.021m.453-.246a1.933,1.933,0,0,0,.251-.617m-4.538-7.181a3.647,3.647,0,0,0-2.57,1.89m6.679.026a3.637,3.637,0,0,0-2.588-1.915m-5.326,6.974c-.018.065-.035.132-.055.2-.13.458-.254.716-.14,1.057a1.165,1.165,0,0,0,.288.448m8.525.307a1.437,1.437,0,0,0,.712-.756c.114-.341-.01-.6-.14-1.057-.022-.077-.041-.15-.061-.223m-.357-3.361c-.018-.084-.037-.172-.061-.26a4.284,4.284,0,0,0-.757-1.505s-.014.033-.039.091c-.144.313-.68,1.333-1.641,1.4a1.024,1.024,0,0,1-.11,0,.828.828,0,0,1-.633-.253,1.225,1.225,0,0,1-.211-.726c-.034-.546-.008-1.7.008-2.337,0-.028,0-.055,0-.081a.232.232,0,0,0-.195-.235c-.113-.016-.434-.028-.574-.028s-.449.012-.556.028a.23.23,0,0,0-.2.235v.081c.016.716.045,1.787.012,2.337a1.21,1.21,0,0,1-.211.726.814.814,0,0,1-.633.253c-.811-.008-1.574-1.162-1.738-1.426-.022-.036-.033-.053-.033-.053a3.689,3.689,0,0,0-.732,1.471c-.026.091-.045.179-.063.266m-.294,4.194a1.859,1.859,0,0,0,.2-.083,1.558,1.558,0,0,0,.72-.912,1.658,1.658,0,0,0,.1-.387,4.592,4.592,0,0,0,.049-.566,2.407,2.407,0,0,1,.106-.779,1.1,1.1,0,0,1,.5-.574,1.037,1.037,0,0,1,.744-.085,1.8,1.8,0,0,1,.665.393c.152.128.241.209.312.27a1.82,1.82,0,0,0,.3.213,1.731,1.731,0,0,0,.811.231,1.258,1.258,0,0,0,.718-.231,3.611,3.611,0,0,0,.613-.483,1.775,1.775,0,0,1,.663-.393,1.037,1.037,0,0,1,.744.085,1.107,1.107,0,0,1,.334.278v0a1.134,1.134,0,0,1,.17.294,2.407,2.407,0,0,1,.106.779,3.561,3.561,0,0,0,.116.828,1.662,1.662,0,0,0,.266.532,1.7,1.7,0,0,0,.4.392.705.705,0,0,0,.335.136" transform="translate(-727.426 -3473.695)" fill="none" stroke="#928d82" stroke-linecap="round" stroke-linejoin="round" stroke-width="0.5"/><path d="M799.01,3532.717a.544.544,0,1,1-.546.544.546.546,0,0,1,.546-.544Z" transform="translate(-772.483 -3511.13)" fill="none" stroke="#928d82" stroke-linecap="round" stroke-linejoin="round" stroke-width="0.25"/><path d="M799.077,3532.121a.856.856,0,1,0,.25.6.851.851,0,0,0-.25-.6Z" transform="translate(-771.946 -3510.594)" fill="none" stroke="#928d82" stroke-linecap="round" stroke-linejoin="round" stroke-width="0.25"/><path d="M768.979,3532.371a.179.179,0,1,1-.355,0,.179.179,0,1,1,.355,0Zm-8.76,0a.178.178,0,1,0,.176-.2.19.19,0,0,0-.176.2Zm-16.048,13.294,1.554-.231m18.529-14.541a.329.329,0,0,1,.323-.278m-2.931-.781a2.789,2.789,0,0,0,1.01.633,1.311,1.311,0,0,0,.779-.049m2.328.9a1.468,1.468,0,0,1,1.742-.318,1.133,1.133,0,0,1,.612.736m-7.079-.176a1.314,1.314,0,0,1,1.17-.706,1.578,1.578,0,0,1,1.193.525m1.582-2.326a1.292,1.292,0,0,0,.509,1.253,1.691,1.691,0,0,0,.195.122,1.027,1.027,0,0,0,.621.1,2.341,2.341,0,0,0,.783-.256" transform="translate(-738.047 -3508.808)" fill="none" stroke="#928d82" stroke-linecap="round" stroke-linejoin="round" stroke-width="0.5"/><path d="M798.29,3548.03a2.392,2.392,0,0,1,1.422,0" transform="translate(-772.372 -3520.775)" fill="none" stroke="#928d82" stroke-linecap="round" stroke-linejoin="round" stroke-width="0.75"/><path d="M795.5,3539.3a.444.444,0,1,1-.428-.325.387.387,0,0,1,.428.325Z" transform="translate(-770.062 -3515.1)" fill="#928d82"/><path d="M804.01,3539.3a.444.444,0,1,1-.428-.325.387.387,0,0,1,.428.325Z" transform="translate(-775.458 -3515.1)" fill="#928d82"/><path d="M799.72,3544.444a.2.2,0,0,0,.361,0" transform="translate(-773.28 -3518.568)" fill="none" stroke="#928d82" stroke-linecap="round" stroke-linejoin="round" stroke-width="0.75"/><path d="M796.986,3539.006a.477.477,0,0,0,.435-.436m2.676.436a.487.487,0,0,0,.507-.495" transform="translate(-771.545 -3514.806)" fill="none" stroke="#928d82" stroke-linecap="round" stroke-linejoin="round" stroke-width="0.25"/><line y1="0.194" x2="0.982" transform="translate(27.691 23.103)" fill="none" stroke="#928d82" stroke-linecap="round" stroke-linejoin="round" stroke-width="0.5"/></g><g transform="translate(645.9 3427)"><path d="M678.188,3468.06a2.015,2.015,0,0,0,0,.437,1.5,1.5,0,0,0,.382.919,2.482,2.482,0,0,1,.486-1.224,6.755,6.755,0,0,1,.533-.7m3.5.091a3.648,3.648,0,0,1,.591.66,3.543,3.543,0,0,1,.33.569,3.129,3.129,0,0,1,.23.861,9.313,9.313,0,0,0,.457-1.059c.051.022.1.044.151.069a2.611,2.611,0,0,1,.119.8,2.192,2.192,0,0,0,.312-.591,1.374,1.374,0,0,0,.083-.489m-12.287,20.329a1.5,1.5,0,0,0-1.2-.984c-.047-.007-.094-.011-.143-.013a1.527,1.527,0,0,0-.392.034,1.493,1.493,0,1,0,1.731.963Zm-2.054-1.062-.011.215m3.22-43.423-.361-.937-.446.9.359.934.448-.9Zm-1.278,32.758,1.07-29-.3-1.666-.455,1.63-1.688,28.975m1.619.078v0a1.172,1.172,0,0,1,1.115-1.084.3.3,0,0,0,.183-.073l.435-.4-.149-.163a1.185,1.185,0,0,1-.308-.843l.508-14.226a1.164,1.164,0,0,1,.381-.821l.116-.107-.125-.138a1.166,1.166,0,0,1-.3-.828l.571-15.935L674.06,3439l-1.907,3.448-.944,15.915a1.179,1.179,0,0,1-.381.794l-.141.129.107.118a1.167,1.167,0,0,1,.3.854l-.843,14.2a1.183,1.183,0,0,1-.386.81l-.169.154.4.435a.31.31,0,0,0,.176.092,1.165,1.165,0,0,1,1.008,1.187m2.25.642.009-.214a.319.319,0,0,0-.3-.336l-.029,0-.25-.011-1.369-.064-.279-.013a.145.145,0,0,0-.029,0,.319.319,0,0,0-.305.3l-.011.248m1.675,3.038.156-.018c.1-.013.2-.029.3-.049m.515-.134a6.6,6.6,0,0,0,3.9-3.66,4.546,4.546,0,0,1,.756-1.323.048.048,0,0,0,.014-.033.05.05,0,0,0-.049-.052h-.011l-2.792.375a.886.886,0,0,0-.77.611,2.273,2.273,0,0,1-.7,1.037,2.589,2.589,0,0,1-3,.208,2.4,2.4,0,0,1-.462-.373,2.249,2.249,0,0,1-.6-1.1.881.881,0,0,0-.707-.683l-2.748-.638a.013.013,0,0,0-.009,0,.052.052,0,0,0-.045.082,3.885,3.885,0,0,1,.578,1.2,6.465,6.465,0,0,0,3.847,4.309m-1.539,6.463L668,3489.376m7.786,42.345c.4-.627,2.623-6.374,2.623-6.374m-4.447-14.552.147,8.966m13.861,7.094,2.181,14.976m-1.61,3.771c.011.225.031.45.058.673.051.457.123.908.16,1.318a4.052,4.052,0,0,0,.638,2.188,4.74,4.74,0,0,0,2.453.727,2.062,2.062,0,0,0,1.59-1.01,3.894,3.894,0,0,0-.022-2.163m-5.478-3.214c0,.6.047,1.206.047,1.356a2.715,2.715,0,0,0,.611.8m-.694-3.687a11.125,11.125,0,0,0,.036,1.532,1.268,1.268,0,0,0,.047.178c.136.406.375.7.553,1.3.029.1.058.205.083.321.183.823.319,2.116.5,2.658a2.75,2.75,0,0,0,2.636,1.082,1.758,1.758,0,0,0,1.659-2.328,16.3,16.3,0,0,0-.933-2.73c-.245-.634-.673-2.253-.857-2.815m-17.434,3.709-.326.047m.308-.723.018.676a2.014,2.014,0,0,0,.718-.868,5.634,5.634,0,0,0,.069-1.255m-6.711,5.134a1.793,1.793,0,0,0,.281,1.269,2.192,2.192,0,0,0,1.688.473,3.176,3.176,0,0,0,1.889-.8,9.368,9.368,0,0,0,1.4-2.46,11.079,11.079,0,0,0,.335-1.448q.027-.147.053-.287m-2.743-3.526c-.234.461-1.557,3.078-2.027,3.751a4.5,4.5,0,0,0-.881,3.026c.007.03.016.056.022.085a1.807,1.807,0,0,0,2.148,1.006,3.327,3.327,0,0,0,2.257-1.333c.355-.524.629-1.713,1.08-2.707.047-.1.094-.2.145-.3a3.869,3.869,0,0,1,.255-.435,2.263,2.263,0,0,1,.5-.553,1.3,1.3,0,0,0,.306-.894c.009-.109.011-.223.011-.339a7.03,7.03,0,0,0-.065-.914m2.291-35.43c.424.533,1.9,5.009,3.178,8.83.413,1.229.8,2.389,1.135,3.33s.6,1.657.765,2a39.725,39.725,0,0,1,1.889,5.092c.3.979.993,5.043,1.291,6.227s.7,5.5.845,6.534a14.441,14.441,0,0,0,.546,3.035,5.924,5.924,0,0,0,.7.772l.339.076,2.4.54,1.329-1.338.511-.513s-.647-6.071-.994-8.283-1.193-8.18-1.392-8.9-.546-6.586-.647-8.385c-.08-1.441-.531-5.832-.785-8.243m-15.35-.582a67.579,67.579,0,0,0-.125,7.326,74.77,74.77,0,0,1,.083,7.763c-.047,1-1.2,7.962-1.289,10.107s-.819,7.877-.819,8.486a4.835,4.835,0,0,0,.033,1.365c.042.014.158-.08.326-.2a1.859,1.859,0,0,1,1.017-.415,7.759,7.759,0,0,1,2.255.719,1.272,1.272,0,0,0,.477.087c.259.006.522-.038.542-.183a10.073,10.073,0,0,0,.567-1.332,27.979,27.979,0,0,0,.727-4.179c.036-.968.437-5.482.575-6.2s2.079-7.884,2.217-9.032c.1-.863.562-3.836.841-5.674m-4.733-13.136,1.012,1.813.836-.814m-7.8-18.569a1.988,1.988,0,0,0,.281,1.073,1.154,1.154,0,0,0,.856.134m5.734.736a.514.514,0,0,0-.223-.054c-.359,0-.577.464-.945.995a4.047,4.047,0,0,0-.536,1.089,1.59,1.59,0,0,0-.067.292c0,.043.156.132.245.181m-3.171-1.517a1.355,1.355,0,0,0-.41-.136m1.327.64c.2.1.417.209.616.29l.132.049a1.465,1.465,0,0,0,.3.078,6.555,6.555,0,0,1,1.03.123m-3.312-2.01c-.1.036-.319.067-.5.127a.759.759,0,0,0-.172.076.287.287,0,0,0-.136.14.34.34,0,0,0,.107.451.636.636,0,0,0,.165.094,2.986,2.986,0,0,0,.323.1m.315-1.923a4.8,4.8,0,0,1-.682.245c-.051.018-.094.031-.12.042a.49.49,0,0,0-.261.406.444.444,0,0,0,.1.234,1.59,1.59,0,0,0,.19.212m1-2.188c-.187.147-.865.288-1.111.549a.293.293,0,0,0-.08.138.485.485,0,0,0,.151.535.012.012,0,0,0,.007,0,.485.485,0,0,0,.076.047c.013,0,.027.011.038.016l.009,0m5.377.618c-.078-.031-.163-.069-.248-.107a5.73,5.73,0,0,1-.658-.332c-.225-.154-.675-.632-1.371-1.12-.47-.33-.789-.674-1.079-.884a1,1,0,0,0-.408-.189,5.091,5.091,0,0,0-1.182-.009c-.433.018-.95.029-1.055.388a.955.955,0,0,0,.287.739c.058.062.1.112.136.151m-.7-1.458c-.091.185-.234.555-.375.932-.174.459-.341.932-.408,1.1-.136.334-.218.812.152.948.353.127.872-.14,1.394-.839a.01.01,0,0,0,0-.007m-.323-2.638a.29.29,0,0,0,.049.219m7.269,12.893a.38.38,0,1,0,.381.382.381.381,0,0,0-.381-.382Zm.352-4.327a.38.38,0,1,0,.381.379.379.379,0,0,0-.381-.379Zm-4.666,5.959c.063,0,.343-.016.422-.141s.5-1.327.5-1.327l-.531-.171m11.961.687c-1.06-.078-3.68.078-3.68.078l.011,1.168a.455.455,0,0,0,.457.451c1.039-.009,3.546-.029,4.039-.029a9.354,9.354,0,0,1,1.122.078m-13.546-17.4a14.272,14.272,0,0,0-.6,2.251m15.9-1.726a5.06,5.06,0,0,0-2.29.874m-9.7,8.928c-.145,1.477-.477,5.428-.52,7.23,0,.132-.007.252-.007.357,0,.063,0,.12,0,.172a24.136,24.136,0,0,0,.441,3.78,7.885,7.885,0,0,0,.691,2.166c.718,1.258,1.2,2.139,3.323,2.3a52.976,52.976,0,0,0,6.793-.388c.562-.058.915-.1.915-.1s-.5-4.962-.73-6.728-.751-5.765-.751-6.285c0-.368.386-2.29.613-3.4h0m-14.822-2.366a32.858,32.858,0,0,1,.477,3.852,12.919,12.919,0,0,1-.254,3.18c-.181.87-.781,4.467-.981,5.393s-.962,4.615-1.017,4.9.346.745.636.872a.737.737,0,0,0,.562.094,1.5,1.5,0,0,0,.638-.493,28.354,28.354,0,0,0,2.057-4c.457-1.008.852-1.925,1.03-2.373.125-.308.254-.629.381-.937m-4.021-18.234s0,.071-.009.181a2.649,2.649,0,0,0,0,.343,1.429,1.429,0,0,0,.047.314.273.273,0,0,0,.114.158.455.455,0,0,0,.268.062.314.314,0,0,0,.094-.018.392.392,0,0,0,.212-.225.748.748,0,0,0,.038-.118,2.664,2.664,0,0,0,.071-.513.441.441,0,0,0-.283-.5.169.169,0,0,0-.029-.009.567.567,0,0,0-.486.143,1.411,1.411,0,0,0-.259.272m.165,3.33c-.011-.078-.025-.174-.042-.3a.762.762,0,0,0-.12-.33c-.141-.189-.361-.181-.551-.214a4.531,4.531,0,0,1-1.186-.371m1.737.584a.356.356,0,0,0,.212-.339.723.723,0,0,0-.042-.232,1.02,1.02,0,0,0-.125-.229,1.111,1.111,0,0,0-.627-.285c-.268-.06-.874-.167-1.032-.228m1.784.742c.263-.049.272-.481.217-.595l-.056-.107-.009-.015c-.051-.1-.127-.228-.2-.346a1.029,1.029,0,0,0-.228-.266,11.071,11.071,0,0,0-1.294-.385m1.724,1a.634.634,0,0,0,.051-.509m-.161-.473a2.915,2.915,0,0,0-.214-.433.523.523,0,0,0-.181-.2.052.052,0,0,0-.018-.009,5.366,5.366,0,0,0-1.155-.265,1.242,1.242,0,0,0-.66.022.443.443,0,0,0-.225.232c-.074.152-.04.406-.087.473s-.341.107-.441.372.053.475.073.62a4.417,4.417,0,0,1,.007.6c0,.084-.027.47-.045.789-.009.123-.016.234-.02.317s-.009.134-.009.134m-1,6.073a14.173,14.173,0,0,0,1.307-2.561c.107-.252.218-.517.317-.76m-.6-3.2a14.737,14.737,0,0,0-2.291,1.938,7.881,7.881,0,0,0-1.51,2.061,7.4,7.4,0,0,0-.388,2.364c.094.64,1.16.945,1.76.972a7.158,7.158,0,0,0,1.668-.2,7.481,7.481,0,0,0,1.115-.609m2.957-1.557-.337.189m4.188-9.186c-.7.3-2.21.937-2.306.961a1.331,1.331,0,0,0-.829.6c-.094.141-.2.3-.31.442m-.654.823c.1-.118.31-.354.4-.479m13.174,7.181a4.193,4.193,0,0,0-2.188-.417m4.443-8.182a4.649,4.649,0,0,0-1.7,2.453c-.15.435-1.519,2.939-2.036,3.809-.5.845-1.193,2.07-1.231,2.134v0m2.748,2.2a4.049,4.049,0,0,0-.919-1.385,3.521,3.521,0,0,0-1.829-.819c-.5-.1-3.968-.923-4.536-1.084-.138-.04-.37-.12-.644-.218-.136-.049-.281-.1-.43-.156l-.02-.007c-.765-.281-1.639-.612-1.818-.638a.077.077,0,0,0-.022,0,.155.155,0,0,0-.051.011,1.2,1.2,0,0,0-.355.285,3.816,3.816,0,0,0-.43.553,7.581,7.581,0,0,0-.544,1.293c-.042.123-.082.243-.123.361-.122.368-.225.694-.279.856-.147.437-.074.745.109.854s1.091.328,1.746.547c.136.044.484.165.964.328,1.84.625,5.62,1.9,6.789,2.13a2.124,2.124,0,0,0,2.331-1.093c.192-.234.977-1.122,1.652-1.929a14.631,14.631,0,0,0,.968-1.238,11.317,11.317,0,0,0,1.088-2.6c.125-.546.647-3.009.709-3.655a6.386,6.386,0,0,0-.156-2.862,1.455,1.455,0,0,0-1.066-.609s-.618-.2-1.362-.493a12.812,12.812,0,0,1-1.865-1.075m-1.265,6.387.054-.8-3.156.352m-1.309,1.793a21.064,21.064,0,0,1,1.309-1.793c1.6-2.018,3.836-4.5,3.836-4.5l-.769-.6,1.278-.118s.031-.444.022-.711a.472.472,0,0,0-.031-.19c-.067-.092-.941-1.05-1.117-1.218a2.25,2.25,0,0,0-.982-.23m.48.357a3.9,3.9,0,0,0-.29.268,19.2,19.2,0,0,0-2.506,3.209q-.147.241-.288.475c-.308.515-.6,1.008-.857,1.469-.384.68-.709,1.291-.948,1.8-.359.77-1.039,2.525-1.3,3.2m.151-9.131v0a6.626,6.626,0,0,0-.517,1.891,34.153,34.153,0,0,0-.326,3.89c0,.823.17,2.5.241,3.185m.591-9.4c-.337.277-1.349,1.182-1.722,1.546a1.278,1.278,0,0,0-.138.147.935.935,0,0,0,0,.446l-.994.615s-.016,1.851,0,2.759a17.938,17.938,0,0,0,.515,2.828m4.443-3.776c-.025-.745-.064-1.628-.1-1.956m-1.068-.129c-.129.421-.493,1.615-.745,2.594-.2.785-.542,2.928-.756,4.334m1.289-7.6a3.042,3.042,0,0,0,.114.607.112.112,0,0,0,.1.065c.078.007.2-.025.444-.013a2.484,2.484,0,0,1,.624.142.041.041,0,0,0,.016,0,3.071,3.071,0,0,0,.471-.905m-2.357-2.643c-.181.114-.15.511-.127.937.007.145.013.292.011.433v0c-.009.573,0,1.494,0,1.739s.114,1.267.114,1.267a10.85,10.85,0,0,0,.593-1.633,1.172,1.172,0,0,0,.02-.116c.083-.571.254-1.42.97-1.2l0,0s0,0,0,0c-.054-.034-.479-.292-.8-.493a2.944,2.944,0,0,1-.747-.665l-.091-.1m5.68.174c-.056-.172-.129-.413-.189-.625-.018-.06-.033-.118-.049-.17-.094-.355-.158-.488-.332-.58m.085.3a.322.322,0,0,1-.056.065,7,7,0,0,1-1.488,1.053L680.7,3478.5a3.238,3.238,0,0,1,.64.9c.042.087.087.19.132.3.181.45.375,1.057.475,1.39m2.27-6.314a11.6,11.6,0,0,0-.047,1.256,3.178,3.178,0,0,0,.029.366m-5.047.936c-.011-.089-.022-.18-.038-.276a13.471,13.471,0,0,0-.359-1.568c-.02-.067-.038-.132-.056-.192-.049-.165-.091-.305-.125-.415h0m7.106-5.391a1.015,1.015,0,0,0,.377.031.644.644,0,0,1-.181-.424l.359.1a.563.563,0,0,1-.21-.542c.042.049.085.1.127.145a3.771,3.771,0,0,0-.724-1.793,5.1,5.1,0,0,0-1.111-1.145,6.471,6.471,0,0,0-1.8-.87,4.964,4.964,0,0,0-.774-.089c-.216-.031.027-.319-.19-.3a8.1,8.1,0,0,0-1.262.332,3.967,3.967,0,0,0-.964.751,4.45,4.45,0,0,0-.943.161,4.671,4.671,0,0,0-2,2.022.54.54,0,0,1,.4-.027,2.372,2.372,0,0,0-.587,1.137,1.3,1.3,0,0,1,.618-.118.825.825,0,0,0-.125.8.745.745,0,0,1,.265-.221M678,3470.6l-.089,1.793v0c-.06-.343-.15-.908-.19-1.171a.256.256,0,0,0-.221-.217h0a.318.318,0,0,0-.223.056.5.5,0,0,0-.2.33,4.133,4.133,0,0,0,.631,2.152.5.5,0,0,0,.462.147,5.05,5.05,0,0,0,.359,1.126l.04.073h0c.517.885,2,2.233,2.935,2.21,1.03-.024,2.353-1.425,2.708-2.317.009-.022.015-.045.025-.064a9.8,9.8,0,0,0,.227-1.044.526.526,0,0,0,.413-.132,4.692,4.692,0,0,0,.629-2.152.466.466,0,0,0-.161-.344.3.3,0,0,0-.178-.062h0a.308.308,0,0,0-.305.265c-.063.406-.136.877-.212,1.341l-.138-2.074m.658.469h0a5.318,5.318,0,0,0-.655-.469,6.1,6.1,0,0,0-3.049-.861,5.13,5.13,0,0,0-3.464.944c-.111.082-.223.169-.334.263-.056.047-.109.092-.165.143h0m6.182-2.756a.51.51,0,0,0-.058-.015,2.323,2.323,0,0,1-1.207-.716,1.546,1.546,0,0,0-2.306,0,2.266,2.266,0,0,1-1.055.676m6.294,2.852a2.157,2.157,0,0,0,.366-.9,2.083,2.083,0,0,0,.02-.479c0-.047-.051-.094-.058-.138a.055.055,0,0,1,0-.027c0-.04.018-.08.018-.116a.073.073,0,0,0,0-.023.618.618,0,0,0-.343-.435l-.069-.033m-8,2.168a2.731,2.731,0,0,1-.335-.825,1.78,1.78,0,0,1-.04-.446c0-.047.049-.094.054-.136.009-.073-.014-.143-.009-.2,0-.009,0-.018,0-.025a.628.628,0,0,1,.263-.375c.129-.087.29-.185.475-.29.154-.087.326-.178.5-.261" transform="translate(-665.9 -3439)" fill="none" stroke="#928d82" stroke-linecap="round" stroke-linejoin="round" stroke-width="0.5"/><path d="M681.4,3517.882a2.542,2.542,0,0,0,.911-.592,1.531,1.531,0,0,1,1.08-.529,1.32,1.32,0,0,1,1.05.506,2.342,2.342,0,0,0,.778.546m-5.278,1.63a7.242,7.242,0,0,1,7.023.087m-3.562-2.337a.523.523,0,1,1-.524.521.524.524,0,0,1,.524-.521Zm0-.183a.706.706,0,1,0,.707.7.705.705,0,0,0-.707-.7Zm-.323.693a.316.316,0,0,1,.332-.332m-4.173,1.608s.221-.174.417-.326m8.02.31s-.074-.1-.16-.2m-13.273,10.358a.4.4,0,1,1,.419-.381.4.4,0,0,1-.419.381Zm.018.542a4,4,0,0,0,1.519-.25,5.666,5.666,0,0,0,1.474-.808,6.157,6.157,0,0,0,2.021-2.564,6.432,6.432,0,0,1,.361-.774l-2.027.272-.009,0h-.009a.492.492,0,0,0-.428.339,2.653,2.653,0,0,1-.816,1.217,2.921,2.921,0,0,1-2.038.683l-.036,0a2.9,2.9,0,0,1-1.927-.872,2.645,2.645,0,0,1-.7-1.287.488.488,0,0,0-.395-.379l-.009,0-.009,0-1.98-.459a3.541,3.541,0,0,1,.23.625,5.956,5.956,0,0,0,1.737,2.859,4.819,4.819,0,0,0,3,1.4Z" transform="translate(-668.03 -3488.321)" fill="none" stroke="#928d82" stroke-linecap="round" stroke-linejoin="round" stroke-width="0.5"/><path d="M676.157,3543.684a.792.792,0,0,0-.723-.569H675.4a.792.792,0,0,0-.729.477.779.779,0,0,0-.065.279.791.791,0,0,0,.756.83h.04a.793.793,0,0,0,.759-1.017Zm0,0a3.509,3.509,0,0,0,2.578-2.3l1.182-.19m-8.879-.5,1.157.283a4.04,4.04,0,0,0,2.471,2.614m-2.623-1.015.332-.212m5.935.377.33.205m-4.574.8-.2.33m2.763-.1.194.274m-1.006,9.255a.916.916,0,1,0,.022.255.95.95,0,0,0-.022-.255Z" transform="translate(-669.159 -3503.501)" fill="none" stroke="#928d82" stroke-linecap="round" stroke-linejoin="round" stroke-width="0.5"/><path d="M705.722,3534.4a3.646,3.646,0,0,1,1.92,0m-1.3-1.568a.37.37,0,0,0,.35.267.38.38,0,0,0,.313-.267" transform="translate(-691.158 -3498.512)" fill="none" stroke="#928d82" stroke-linecap="round" stroke-linejoin="round" stroke-width="0.5"/><path d="M703.422,3527.21c0,.153-.188.278-.421.278s-.421-.125-.421-.278.188-.278.421-.278.421.125.421.278Z" transform="translate(-689.165 -3494.772)" fill="#928d82"/><path d="M712.135,3527.128c0,.154-.189.278-.421.278s-.421-.125-.421-.278.188-.278.421-.278.421.125.421.278Z" transform="translate(-694.691 -3494.72)" fill="#928d82"/><path d="M705.033,3525.136l1.413-.24m-3.247.24-1.412-.211" transform="translate(-688.662 -3493.481)" fill="none" stroke="#928d82" stroke-linecap="round" stroke-linejoin="round" stroke-width="0.5"/></g><g transform="translate(729.662 3446.28)"><path d="M848.04,3571.644a1.442,1.442,0,0,0,1-.045m-1.259-.59a1.926,1.926,0,0,0,1.512.018m9.352-26.257,1,.952.685-.806m6.855-24.255c-.048-.075-.094-.152-.142-.227l-.054.021a6.349,6.349,0,0,0-1.86,1.17l-.1.09.132.253m-12.6-.979a.164.164,0,0,0,.077.018,1.385,1.385,0,0,0,.178-.007,16.725,16.725,0,0,0,2.311-.94,6.391,6.391,0,0,0,.765-.419c.228-.155.326-.289.257-.414-.127-.224-.421-.135-1.245-.062a14.137,14.137,0,0,1-2.238-.032c-.169-.029-.219.005-.271.089m.29,1.726a1.255,1.255,0,0,0,.232-.931,1.237,1.237,0,0,0-.371-.785m-11.753,1.445c.3.432.845.835,2.456,1.136a1.916,1.916,0,0,0,.829-.027,1.766,1.766,0,0,0,.365-.137,3.137,3.137,0,0,0,1-4.471,1.587,1.587,0,0,0-.275-.253,3.473,3.473,0,0,0-2.816-.838v0h0m0,0a2.8,2.8,0,0,0-1.987,2,2.858,2.858,0,0,0,.426,2.593,2.023,2.023,0,0,0,1,.678,2.77,2.77,0,0,0,1.553-5.232,1.994,1.994,0,0,0-.988-.034m7.266,15.409v-.082c0-.129-.009-.262-.014-.4-.037-.78-.036-1.375-.018-1.928v0c.025-.9.089-1.675.089-2.921a32.161,32.161,0,0,1,.289-4.534.043.043,0,0,1,0-.014c-.539.093-1.083.166-1.633.216q-.578.054-1.161.073a33.276,33.276,0,0,0-.046,4.305c.059,1.678.432,3.4.662,5.084m.257,3.778c.007.262.016.533.025.81,0,.031,0,.062,0,.094.016.53.03,1.079.044,1.626,0,.139.007.278.011.416.048,1.876.1,3.688.161,4.628.141,2.028.1,11.223.091,13.239l0,.378c0,.125-.005.251-.007.376l-.007.378c0,.125-.007.251-.011.378-.014.5-.175,1.008-.2,1.514-.053,1.013-.123,6.031-.189,7.057-.032.512-.064,1.026-.091,1.541s-.05,1.033-.068,1.551c-.007.26-.016.519-.019.78s-.005.521-.007.779v.391l0,.389c0,.084,0,.166,0,.25,0,.175.005.351.011.526.021,1.033.066,2.06.109,3.082s.082,2.041.1,3.055l.009.76,0,.758c0,.128,0,.253-.007.38l-.009.378c0,.253-.018.5-.029.754a28.447,28.447,0,0,1-.294,3v0a.52.52,0,0,0,1.026.177,29.958,29.958,0,0,0,.415-3.1c.022-.259.045-.519.057-.778l.023-.389c.007-.13.014-.259.019-.389l.029-.775.018-.776c.018-1.032.012-2.062.007-3.087s-.014-2.044,0-3.059c0-.187.007-.373.011-.56,0-.066,0-.134,0-.2l.009-.378.014-.378c.011-.251.018-.5.034-.754s.028-.5.045-.756c.034-.5.075-1.008.12-1.514s.094-1.013.144-1.52c.1-1.016-.07-6.039.021-7.067.045-.515.087-1.033.121-1.552.007-.13.018-.259.023-.389l.022-.39c.007-.13.014-.26.019-.389l.016-.391c.068-1.748-.242-13.2-.383-18.027-.027-.917-.048-1.6-.059-1.924-.014-.4-.012-.751,0-1.075m-3.979-17.722a16.856,16.856,0,0,0,3.176,1.334,17.578,17.578,0,0,0,3.772.71l.151.01m-8.468,2.554a20.793,20.793,0,0,0,3.1.119m2.794-.289a20.045,20.045,0,0,0,2.591-.628l.125-.041m2.012,57.92a7.491,7.491,0,0,0,2.5-2.292m-2.809-26.83.153,12.226m10.646,3.624,1.23,14.828m-.364-14.048c.115-.532.53-4.528.619-5.4,0-.014,0-.027,0-.039.007-.082.012-.129.012-.129.15-1.464.564-11.166.656-13.359m-8.341-.513s.064.906.169,2.264.253,3.17.416,4.978c.262,2.9.565,5.8.817,6.825.56,2.308,1.184,7.358,1.371,9.167s.761,7.542.761,8.116a13.452,13.452,0,0,0,.494,2.977.759.759,0,0,0,.412.273c.606.232,1.71.378,2.313.528a1.7,1.7,0,0,0,1.692-.86c.034-.044.07-.089.1-.134.4-.539-.56-11.287-.594-13.278-.034-1.926-.414-5.111-.285-6.816m-14.421-13.352c.1,2.113.539,11.332.539,13.549,0,2.506-.275,12.569-.275,13.538s-.457,2.963-.514,3.76a9.333,9.333,0,0,0,.676,2.963.2.2,0,0,0,.05.048,4.219,4.219,0,0,0,3.159.392,6.4,6.4,0,0,0,.979-.467.785.785,0,0,0,.4-.494c.1-.295-.082-2.637-.057-3.1s.685-6.1.906-7.051.44-5.117.539-5.753c.063-.4.571-6.429.936-10.825m4.945,30.266-.319-.045m-.776-2.094v0c0,.095-.005.212-.005.337a4.144,4.144,0,0,0,.073.9,1.979,1.979,0,0,0,.708.854l.018-.667m.25.428c.016.093.034.187.052.283a10.632,10.632,0,0,0,.331,1.428,9.178,9.178,0,0,0,1.384,2.424,3.127,3.127,0,0,0,1.862.788,2.163,2.163,0,0,0,1.664-.467,1.756,1.756,0,0,0,.276-1.25m-6.608-5.832a5.368,5.368,0,0,0-.005.77v0a1.265,1.265,0,0,0,.3.879,2.348,2.348,0,0,1,.492.545,4.568,4.568,0,0,1,.25.428c.531,1.029.82,2.4,1.207,2.966a3.28,3.28,0,0,0,2.226,1.316,1.778,1.778,0,0,0,2.115-.993c.007-.027.014-.053.022-.082a4.412,4.412,0,0,0-.869-2.982c-.368-.528-1.264-2.261-1.734-3.182m-11.346,3.2-.319.045m.3-.712.016.667a1.979,1.979,0,0,0,.708-.854,4.019,4.019,0,0,0,.073-.888c0-.132,0-.253-.005-.351v0m-6.613,5.063a1.754,1.754,0,0,0,.276,1.25,2.163,2.163,0,0,0,1.664.467,3.128,3.128,0,0,0,1.862-.788,9.175,9.175,0,0,0,1.384-2.424,10.667,10.667,0,0,0,.332-1.428c.018-.1.035-.191.052-.282h0m-3.108-2.68c-.49.956-1.259,2.425-1.593,2.905a4.43,4.43,0,0,0-.868,2.982c.007.029.014.055.023.082a1.776,1.776,0,0,0,2.115.993,3.277,3.277,0,0,0,2.224-1.316c.352-.515.621-1.687,1.065-2.668.045-.1.093-.2.143-.3h0a4.22,4.22,0,0,1,.252-.428,2.3,2.3,0,0,1,.49-.545,1.264,1.264,0,0,0,.3-.881v0a5.657,5.657,0,0,0-.014-.9m4.018-56.588a23.207,23.207,0,0,0-.419-2.716m-1.182.007a12.737,12.737,0,0,0-.546,2.056c-.13.824-.455,2.854-.582,3.986m.772-6.773.314.692a.08.08,0,0,0,.041.039.076.076,0,0,0,.061,0,1.441,1.441,0,0,1,1.05,0,.072.072,0,0,0,.071-.007.091.091,0,0,0,.032-.039c.077-.209.153-.417.232-.624m4.946,16.3-1.679-.007.128.448a1.213,1.213,0,0,0,1.145.878l1.246.031m-13.426-.022,1.369-.009a1.211,1.211,0,0,0,1.145-.878l.13-.448-1.649.007m-2.9-4.051a3.607,3.607,0,0,0-.933-.207m1.636,1.265a5.487,5.487,0,0,0-1.923-1.172m-2.771,1.635c-.182.779-.614,2.124-.127,2.611a1.653,1.653,0,0,0,1.061.2m5.1-5.252c-.062.308-.152.74-.2,1a27.59,27.59,0,0,1-.722,2.851c-.189.412-.567.927-1.047,1-.214.03-.963.18-1.772.289m18.772-13.588-1.6-3.312m-.242,7.95h0a3.818,3.818,0,0,0,1.15,1.664,5.1,5.1,0,0,0,1.81,1.145,3.961,3.961,0,0,0,2.217-.384,1.827,1.827,0,0,0,.861-1.052,5,5,0,0,0,.161-1.229l.046-.307c0-.011,0-.023,0-.034a.222.222,0,0,0-.189-.22.221.221,0,0,1-.189-.219v-.023a.587.587,0,0,0-.114-.415c-.154-.2-.416-.564-.691-1-.43-.685-2.168-3.4-2.568-3.939s-1.719-2.283-1.719-2.283l-.007.005c-.039.025-.267.175-.528.339-.141.089-.292.182-.426.262-.339.2-.9.589-1.067.706l-.05.036s.3.886.558,1.716c.155.5.575,1.806.953,2.971.244.753.471,1.448.6,1.832a11.172,11.172,0,0,0,.779,1.785l0,0m-3.219-13.534a5.3,5.3,0,0,0-.1,2.226m-.906-2.845a.4.4,0,0,0-.373.394,3.818,3.818,0,0,0,.132.97,1.358,1.358,0,0,1,.084.551,5.756,5.756,0,0,0-.146,1.024,2.53,2.53,0,0,0,.02.38.981.981,0,0,0,.306.66c.225.177.535.232.674.427.022.029.062.091.114.175.088.139.207.337.333.544l.152.253c.02.031.038.063.057.093m-1.434-9.047v0c-.039-.145-.162-.53-.385-.485-.184.036-.135.444-.025.858.025.1.053.194.084.287s.054.157.08.227c.007.018.014.036.02.052m.761,2.356-.376-1.275m-.485-1.359c-.116.025-.207.107-.221.414a4.7,4.7,0,0,0,.148,1.088c.012.059.038.145.068.248.105.337.292.849.412,1.17.055.146.1.253.107.286a3.827,3.827,0,0,1,.185.836.045.045,0,0,1,0,.016.659.659,0,0,1-.076.4m.051-4.1c-.034-.13-.076-.29-.114-.428v0c-.011-.035-.019-.068-.029-.1-.019-.074-.037-.133-.048-.166a1.148,1.148,0,0,0-.138-.284.327.327,0,0,0-.022-.03v0a.271.271,0,0,0-.271-.13c-.08.019-.121.2-.1.467a2.656,2.656,0,0,0,.121.55c.021.064.044.13.071.2m3.469,6.8a9.4,9.4,0,0,1-.767-1.188,24.07,24.07,0,0,1-.535-2.579,1.354,1.354,0,0,0-.328-.767,12.981,12.981,0,0,1-.9-1.518c-.189-.358-.309-.629-.41-.815a1.251,1.251,0,0,0-.107-.166.273.273,0,0,0-.316-.112c-.093.027-.121.162-.1.348a2.26,2.26,0,0,0,.182.635,2.354,2.354,0,0,0,.105.214c.016.028.03.057.046.087.264.5.549,1.248.549,1.248m-4.8,21.164a.374.374,0,1,0,.375.374.374.374,0,0,0-.375-.374Zm.088-4.664a.374.374,0,1,0,.372.375.375.375,0,0,0-.372-.375Zm-8.427-8.189c.155.787.5,2.346.838,3.481a31.669,31.669,0,0,1,1.161,4.246,6.923,6.923,0,0,1-.036.885c-.123,1.448-.485,3.946-.594,4.594-.137.822-1.375,10.2-1.375,10.2l.988.059,1.63.094c1.585.091,2.986.213,4.173-1.8a11.251,11.251,0,0,0,.588-1.15,16.67,16.67,0,0,0,.936-2.757m-11.645-6.169a1.233,1.233,0,0,0,.143.134m-.781,1.779a1.05,1.05,0,0,0,.825-.152m-.078-2.529h0a.008.008,0,0,0,.005,0,1.608,1.608,0,0,1,.357-.1c.1,0,.727-.039.867-.039a.488.488,0,0,0,.155-.028.366.366,0,0,0,.257-.316.285.285,0,0,0-.077-.227.68.68,0,0,0-.463-.2c-.216,0-.747,0-1.4.02m1.862.178a.428.428,0,0,0,.146-.444.449.449,0,0,0-.027-.045c-.114-.191-.478-.672-.6-.672s-.965,0-1.446.02m2.049.652a.422.422,0,0,0,.241-.3c.005-.023.009-.046.012-.068.02-.168-.03-.325-.226-.69a1.274,1.274,0,0,0-.212-.291.27.27,0,0,0-.039-.041.8.8,0,0,0-.428-.229c-.185-.019-1.416.009-1.416.009m2.006-.81c-.007.009-.023.025-.041.046a1.468,1.468,0,0,0-.175.244,1.04,1.04,0,0,0,.109.717l.021.025a.284.284,0,0,1,.025.023.462.462,0,0,0,.267.108c.551.059.5-.57.523-.786a.419.419,0,0,0-.316-.5.87.87,0,0,0-.455.089m-.175.326c-.057-.047-.127-.1-.2-.157a.184.184,0,0,1-.018-.012,1.8,1.8,0,0,0-.531-.324,5.663,5.663,0,0,0-.91.048c-.428.057-.861.184-.941.444-.105.344.039.442.011.571s-.3.177-.335.423a.941.941,0,0,0,.207.629c.089.129-.009.207.011.464s.127.314.127.451a.827.827,0,0,0,.327.927l.037.037c.139.148.375.473.572.551.045.017.086.035.127.05m6.467-14.492-3.216,1.448s-.51,0-.851,1.29-.653,4.419-.726,4.888c0,.028-.011.064-.016.108m15.878-3.543-.059-.842-2.3.114m-3.693,5.612a12.508,12.508,0,0,0-.5,2.354c-.048.915-.025,4.961.119,6.358a29.168,29.168,0,0,0,.537,2.873c.248,1.1.535,2.213.753,2.9.048.152.093.283.132.389a3.6,3.6,0,0,0,3.563,2.506,24.1,24.1,0,0,0,3.317-.362c.881-.15,1.5-.289,1.5-.289s-1.9-9.536-2.047-10.427-.36-7.014-.38-7.592c0-.055,0-.116,0-.187h0c.007-.294.04-.706.082-1.122s.091-.835.129-1.138m-2.039-5.955-.4.15.731.394m-3.964,7.145,2.156-3.61,1.96-3.282m-2.456-2.54c.182.1.68.375.876.481m-6.586-.025-.547.416c-.624.476-1.544,1.184-1.96,1.486-.086.063-.152.108-.185.13l.31.148-1.068.554a19.582,19.582,0,0,0,1.054,3.064,29.464,29.464,0,0,0,2.862,3.79m5.065-10.522-.071.037-2.527,1.375a8.738,8.738,0,0,1,.549.852c.127.223.239.443.339.657a8.986,8.986,0,0,1,.492,1.332l.548-.677m.9-2.877c-.018-.077-.036-.151-.052-.221-.034-.143-.059-.264-.068-.332a.529.529,0,0,0-.177-.328m-5.741,2.228,1.783,2.208a8.324,8.324,0,0,1,.51-1.393c.1-.208.208-.423.335-.64a8.573,8.573,0,0,1,.535-.808l-2.532-1.377c-.021-.013-.045-.023-.066-.036m.064-.182a.543.543,0,0,0-.178.328c-.016.136-.1.485-.176.788-.069.275-.132.51-.132.51l-.143.6-.321,1.339a5.929,5.929,0,0,0,.118,3.015c.148.359.977,1.88,1.724,3.234.665,1.205,1.267,2.277,1.267,2.277s1.007-4.055,1.248-4.915c.039-.135.114-.378.214-.7.11-.344.251-.776.4-1.246s.319-.977.482-1.478c.208-.644.412-1.271.574-1.785s.284-.91.328-1.092a.566.566,0,0,0,.02-.1m-.009-3.01a.006.006,0,0,1,0,0,17.278,17.278,0,0,0-.305,2.223c0,.075-.007.15-.007.219m-5.1,0c0-.07,0-.143,0-.218a13.187,13.187,0,0,0-.328-2.223.006.006,0,0,1,0,0m-.71-5.3a3.451,3.451,0,0,0-.547.387m8.248.182a2.355,2.355,0,0,0-.539-.537m-1.712-4.531h-1.309V3504.9h-1.114v1.405h-1.309v1.115h1.309v1.407h1.114v-1.407h1.309v-1.115Zm2.046,6.3c.013-.116.025-.26.037-.4s.023-.264.03-.371a.6.6,0,0,0-.119-.4,1.3,1.3,0,0,0-.441-.378m-6.912-.037a1.172,1.172,0,0,0-.257.114.552.552,0,0,0-.268.5c0,.068.009.138.014.209.038.487.113,1,.113,1m7.84-.635a.21.21,0,0,0,.148-.2c0-.054.007-.289.02-.63.039-1.089.123-3.257.151-3.963a.446.446,0,0,0-.171-.368l-.212-.166m-7.813-.021-.171.105a.445.445,0,0,0-.214.4c.035.749.139,2.893.182,3.829.011.255.018.421.018.444a.22.22,0,0,0,.11.205m7.009-.851c.173-2.9.469-6.449.64-9.34a.673.673,0,0,0-.447-.706,12.389,12.389,0,0,0-6.349,0,.671.671,0,0,0-.449.7c.154,2.918.408,6.483.635,9.333h0m6.848-4.1c.164-1.989.337-4.018.46-5.809a.7.7,0,0,0-.537-.729,17.38,17.38,0,0,0-3.677-.425,17.145,17.145,0,0,0-3.934.427.7.7,0,0,0-.541.724c.111,1.792.259,3.82.417,5.791.112,1.379.23,2.727.344,3.949,0,.012,0,.027,0,.039a.247.247,0,0,0,.314.216c.1-.027.2-.053.3-.08.139-.034.285-.07.439-.1a12.318,12.318,0,0,1,2.391-.264,12.172,12.172,0,0,1,3.141.376c.089.021.175.044.257.068a.235.235,0,0,0,.157-.009.244.244,0,0,0,.159-.213c.084-1.236.193-2.587.305-3.959Zm-.324,8.106s0,0,0,.007a.7.7,0,0,1-.489.38,3.042,3.042,0,0,1-.193.733l0,0c-.859,1.66-1.689,2.552-2.873,2.552s-2.012-.892-2.871-2.552l0,0a3.057,3.057,0,0,1-.193-.733.7.7,0,0,1-.489-.38c-.3-.5-.815-1.689-.467-2.06a.341.341,0,0,1,.476-.036.54.54,0,0,1,.241.416c.014.2.043.533.084.908l.275-2.261.478-.806s.177.72,1.546,1a7.99,7.99,0,0,0,1.434.162l-.3-.458,0,0,0,0a5.514,5.514,0,0,0,1.62.6,3.067,3.067,0,0,0,1.15.05l.26,1.5c.029-.286.048-.534.061-.694a.537.537,0,0,1,.174-.364" transform="translate(-840.24 -3499.918)" fill="none" stroke="#928d82" stroke-linecap="round" stroke-linejoin="round" stroke-width="0.5"/><path d="M860.752,3550.686a.809.809,0,0,1,.212.53,2.283,2.283,0,0,1-.045.5m-8.046-2.59a3.441,3.441,0,0,1-.878,3.241" transform="translate(-847.696 -3531.129)" fill="none" stroke="#928d82" stroke-linecap="round" stroke-linejoin="round" stroke-width="0.25"/><path d="M856.835,3554.962c-.154,1.777.459,3.55.339,5.329m.662-3.076a9.325,9.325,0,0,0,.12,2.065m.226,8.137a17.387,17.387,0,0,0,.166,3.2m-.438,14.31a30.534,30.534,0,0,1,.069,5.011m.489-2.481q.038,1.468-.023,2.935m-.7.687v.963m.092,4.964v.275m.069,3.531q.03.571.06,1.141a5.475,5.475,0,0,1,0,.835m.477-31.132q-.071.183-.143.365m.125.527-.114.406m-2.579-22.736a1.1,1.1,0,0,0,.571.366c.146.037.3.044.444.077a1.276,1.276,0,0,1,.492.229m-1.854.427a6.944,6.944,0,0,1,.937.045.74.74,0,0,1,.276.072c.081.045.163.121.252.094m2.242-.1h.865a1.207,1.207,0,0,1,.212.012,2.261,2.261,0,0,1,.252.078,2.367,2.367,0,0,0,.578.077m-1.11.585a2.244,2.244,0,0,0,.816.022m-6.035,1.1,2.125.08a3.311,3.311,0,0,0,1.205-.1m-2.6-.576a3.218,3.218,0,0,0,.966-.076m1-.886h.377m.005,3a3.042,3.042,0,0,0,.02.736m-.626,5.823a5.344,5.344,0,0,1,.015.922m.775-1.822v.545m-.428,38,.368.221m-.23.383.367.222m-.249-28.877c-.414,1.563.544,3.208.293,4.8m.268-.842q.1,1.56.2,3.122m-.375-.608v2.211m.428.5v.839m-.24.75v1.3m.1,9.346a27.24,27.24,0,0,1-.039,2.9m-.393-.763-.178,1.292" transform="translate(-849.39 -3531.824)" fill="none" stroke="#928d82" stroke-linecap="round" stroke-linejoin="round" stroke-width="0.25"/><path d="M892.865,3504.45a.508.508,0,1,1-.508.508.508.508,0,0,1,.508-.508Zm-.312.483a.335.335,0,0,1,.357-.3" transform="translate(-873.296 -3502.792)" fill="none" stroke="#928d82" stroke-linecap="round" stroke-linejoin="round" stroke-width="0.25"/><path d="M892.485,3503.851a.728.728,0,1,0,.729.728.728.728,0,0,0-.729-.728Z" transform="translate(-872.916 -3502.413)" fill="none" stroke="#928d82" stroke-linecap="round" stroke-linejoin="round" stroke-width="0.25"/><path d="M891.794,3540.9a.376.376,0,0,0,.321.314.369.369,0,0,0,.342-.314m-1.267,1.586a4.494,4.494,0,0,1,1.872,0" transform="translate(-872.556 -3525.911)" fill="none" stroke="#928d82" stroke-linecap="round" stroke-linejoin="round" stroke-width="0.5"/><path d="M888.969,3535.246a.374.374,0,1,1-.363-.284.33.33,0,0,1,.363.284Z" transform="translate(-870.686 -3522.145)" fill="#6c655d"/><path d="M898,3535.246a.374.374,0,1,1-.363-.284.331.331,0,0,1,.363.284Z" transform="translate(-876.412 -3522.145)" fill="#6c655d"/><path d="M885.623,3535.206c-.08,0-.159,0-.241-.005a2.823,2.823,0,0,1-.467-.054,1.515,1.515,0,0,1-.222-.062l-.05-.018-.053-.024a.224.224,0,0,1-.068-.054.519.519,0,0,1-.066-.083.86.86,0,0,1-.056-.094,1.092,1.092,0,0,1-.084-.315,1.257,1.257,0,0,1-.005-.508.244.244,0,0,1,.065-.079.776.776,0,0,1,.368-.169l.022,0c.072-.011.143-.022.215-.03.053-.006.106-.01.159-.014l.08-.007c.106,0,.213-.006.32-.006h.163c.169,0,.329.013.477.028a1.828,1.828,0,0,1,.449.1.573.573,0,0,1,.183.1.324.324,0,0,1,.108.143.624.624,0,0,1-.038.409,1.694,1.694,0,0,1-.233.4,1.411,1.411,0,0,1-.152.171.369.369,0,0,1-.037.032.2.2,0,0,1-.036.022.5.5,0,0,1-.1.034,2.375,2.375,0,0,1-.464.08c-.079.007-.155.011-.236.011Zm3.477,0c-.079,0-.156,0-.236-.011a2.349,2.349,0,0,1-.463-.081.472.472,0,0,1-.1-.037.178.178,0,0,1-.03-.018.369.369,0,0,1-.039-.034,1.456,1.456,0,0,1-.151-.17,1.6,1.6,0,0,1-.231-.4.6.6,0,0,1-.038-.408.3.3,0,0,1,.106-.145.594.594,0,0,1,.185-.1,1.868,1.868,0,0,1,.447-.1c.083-.009.164-.014.251-.018s.151-.009.226-.01h.163c.107,0,.215,0,.318.006l.081.007.158.015c.08.009.157.021.234.033a.934.934,0,0,1,.277.1.548.548,0,0,1,.07.045.315.315,0,0,1,.091.1,1.253,1.253,0,0,1,0,.48,1.176,1.176,0,0,1-.087.341,1.08,1.08,0,0,1-.058.1.569.569,0,0,1-.068.085.174.174,0,0,1-.063.049l-.048.023-.059.02a1.411,1.411,0,0,1-.22.062,2.8,2.8,0,0,1-.47.054c-.08,0-.159.005-.24.005Zm1.945-1.264c0-.024,0-.049,0-.075a.177.177,0,0,0-.067-.163.446.446,0,0,0-.162-.058.3.3,0,0,0-.057-.011,10.5,10.5,0,0,0-1.238-.16c-.068-.006-.135-.007-.2-.008h-.05c-.083,0-.163,0-.248,0a4.718,4.718,0,0,0-.516.023l-.022,0c-.073.009-.142.02-.214.036a1.361,1.361,0,0,0-.251.072.756.756,0,0,0-.24.137.379.379,0,0,0-.046.042,3.391,3.391,0,0,0-.375-.02,3.618,3.618,0,0,0-.367.019.476.476,0,0,0-.041-.037.758.758,0,0,0-.242-.139,1.353,1.353,0,0,0-.251-.073,2.049,2.049,0,0,0-.256-.04,4.624,4.624,0,0,0-.5-.021c-.084,0-.165,0-.249,0H885.4c-.065,0-.133,0-.2.008-.215.018-.536.049-.843.09-.177.025-.328.052-.448.081-.187.041-.233.084-.233.222v.063c0,.039,0,.075,0,.1a.128.128,0,0,0,.127.128.281.281,0,0,1,.114.026.138.138,0,0,1,.073.093,2.817,2.817,0,0,0,.122.391,1.368,1.368,0,0,0,.068.155.586.586,0,0,0,.039.08,1.028,1.028,0,0,0,.153.222.443.443,0,0,0,.13.1l.117.049a1.767,1.767,0,0,0,.248.068,2.7,2.7,0,0,0,.5.058c.085,0,.166.006.249.006s.165-.005.254-.011a2.6,2.6,0,0,0,.5-.088.842.842,0,0,0,.144-.053.417.417,0,0,0,.057-.034c.016-.012.029-.024.056-.047a1.767,1.767,0,0,0,.173-.195,1.865,1.865,0,0,0,.263-.443,1.054,1.054,0,0,0,.065-.24.358.358,0,0,1,.232-.091h.023a.347.347,0,0,1,.2.088,1.126,1.126,0,0,0,.067.242,1.874,1.874,0,0,0,.262.442,1.772,1.772,0,0,0,.174.2c.017.015.034.03.052.045a.335.335,0,0,0,.056.034l.017.009a1.034,1.034,0,0,0,.128.045,2.63,2.63,0,0,0,.5.088c.083,0,.168.011.251.011s.166,0,.25-.006a2.667,2.667,0,0,0,.5-.057,1.594,1.594,0,0,0,.253-.07l.119-.049a.444.444,0,0,0,.127-.1,1,1,0,0,0,.152-.221,1.214,1.214,0,0,0,.063-.127c.016-.038.031-.073.046-.109a3.008,3.008,0,0,0,.121-.391.134.134,0,0,1,.077-.094l.028-.012a.282.282,0,0,1,.055-.011h.029a.131.131,0,0,0,.127-.126c0-.025,0-.057,0-.091Z" transform="translate(-867.792 -3521.195)" fill="#6c655d"/></g></g></g></svg>