<svg xmlns="http://www.w3.org/2000/svg" xmlns:xlink="http://www.w3.org/1999/xlink" width="344" height="29" viewBox="0 0 344 29"><defs><clipPath id="a"><rect width="344" height="29" transform="translate(15 20)" fill="#fff" stroke="#707070" stroke-width="1"/></clipPath></defs><g transform="translate(-15 -20)"><g clip-path="url(#a)"><g transform="translate(15 20)" fill="#fdfcf3"><path d="M 328.030029296875 771.0001831054688 L 15.96887397766113 771.0001831054688 C 15.73020648956299 767.1025390625 14.0983772277832 763.4716186523438 11.31320858001709 760.686279296875 C 8.527947425842285 757.9010009765625 4.897380352020264 756.2691040039062 1.000008463859558 756.0303955078125 L 1.000008463859558 17.96855735778809 C 4.899106979370117 17.72991943359375 8.528685569763184 16.09827613830566 11.31320858001709 13.31366062164307 C 14.33510875701904 10.29166126251221 15.99940872192383 6.273661136627197 15.99940872192383 1.999861001968384 C 15.99940872192383 1.666960597038269 15.98905658721924 1.332973837852478 15.96848964691162 1.00006103515625 L 328.0304260253906 1.00006103515625 C 328.0098571777344 1.332936763763428 327.99951171875 1.666910648345947 327.99951171875 1.999861001968384 C 327.99951171875 6.273860931396484 329.663818359375 10.29186058044434 332.6859130859375 13.31366062164307 C 335.4709777832031 16.09892082214355 339.1019897460938 17.7308464050293 342.9998168945312 17.96952629089355 L 342.9998168945312 756.0306396484375 C 339.1011657714844 756.270263671875 335.4698791503906 757.902099609375 332.6859130859375 760.686279296875 C 329.900634765625 763.471435546875 328.2687072753906 767.1024780273438 328.030029296875 771.0001831054688 Z" stroke="none"/><path d="M 327.1151123046875 770.0001831054688 C 327.5557556152344 766.2161865234375 329.2440795898438 762.7138671875 331.9786987304688 759.9791870117188 C 334.7123718261719 757.2453002929688 338.2147827148438 755.5570678710938 341.9998168945312 755.1158447265625 L 341.9998168945312 18.88442420959473 C 338.2156982421875 18.44376945495605 334.7134094238281 16.75544929504395 331.9788208007812 14.02086067199707 C 328.7679138183594 10.81006145477295 326.99951171875 6.540961265563965 326.99951171875 2.00006103515625 L 16.99940872192383 1.999861001968384 C 16.99940872192383 6.54076099395752 15.23110866546631 10.8098611831665 12.02030849456787 14.02076148986816 C 9.28603458404541 16.75511932373047 5.785189151763916 18.44311141967773 2.000008344650269 18.88352203369141 L 2.000008344650269 755.1155395507812 C 5.783735275268555 755.55615234375 9.285649299621582 757.244384765625 12.02040863037109 759.9791870117188 C 14.75491237640381 762.7139282226562 16.44313812255859 766.2161865234375 16.88376808166504 770.0001831054688 L 327.1151123046875 770.0001831054688 M 328.99951171875 772.0001831054688 L 14.99940872192383 772.0001831054688 C 14.99940872192383 767.9935913085938 13.43950843811035 764.2269897460938 10.60610866546631 761.3933715820312 C 7.772908210754395 758.5601806640625 4.006208419799805 756.9998779296875 8.447265827271622e-06 756.9998779296875 L 8.447265827271622e-06 17.00016021728516 L 8.447265827271622e-06 16.99906158447266 L 0.004908447153866291 16.99906158447266 C 4.008808612823486 16.99906158447266 7.773708343505859 15.43906116485596 10.60610866546631 12.60656070709229 C 13.43920803070068 9.773361206054688 14.99940872192383 6.006560802459717 14.99940872192383 1.999861001968384 C 14.99940872192383 1.331161022186279 14.95490837097168 0.6582610607147217 14.86720848083496 6.103515625e-05 L 329.1317138671875 6.103515625e-05 C 329.0443115234375 0.6558610200881958 328.99951171875 1.328161001205444 328.99951171875 1.999861001968384 C 328.99951171875 6.006560802459717 330.559814453125 9.773561477661133 333.3930053710938 12.60656070709229 C 336.2260131835938 15.43966102600098 339.992919921875 17.00006103515625 343.9998168945312 17.00006103515625 L 343.9998168945312 756.9998779296875 C 339.9906005859375 757.0009765625 336.2254028320312 758.560791015625 333.3930053710938 761.3933715820312 C 330.5599975585938 764.2263793945312 328.9996948242188 767.9927368164062 328.99951171875 771.9991455078125 L 328.99951171875 772.0001831054688 Z" stroke="none" fill="#6c655d"/></g></g></g></svg>