<svg xmlns="http://www.w3.org/2000/svg" width="18" height="14.748" viewBox="0 0 18 14.748"><path d="M8.76,6.08,3,11.079v5.4A.514.514,0,0,0,3.5,17l3.5-.01a.514.514,0,0,0,.5-.527V13.314a.514.514,0,0,1,.5-.527h2a.514.514,0,0,1,.5.527v3.149a.542.542,0,0,0,.146.374.487.487,0,0,0,.354.155l3.5.01a.514.514,0,0,0,.5-.527v-5.4l-5.76-5A.366.366,0,0,0,8.76,6.08Zm9.1,3.4L15.248,7.209V2.649a.385.385,0,0,0-.375-.4h-1.75a.385.385,0,0,0-.375.4V5.039l-2.8-2.425a1.441,1.441,0,0,0-1.906,0L.135,9.478a.41.41,0,0,0-.05.556l.8,1.021a.37.37,0,0,0,.254.142.362.362,0,0,0,.275-.089L8.76,4.73a.366.366,0,0,1,.478,0l7.35,6.379a.362.362,0,0,0,.528-.053l.8-1.021A.41.41,0,0,0,18,9.745a.4.4,0,0,0-.137-.267Z" transform="translate(0.001 -2.253)" fill="#6c655d"/></svg>