<svg xmlns="http://www.w3.org/2000/svg" xmlns:xlink="http://www.w3.org/1999/xlink" width="14" height="11" viewBox="0 0 14 11"><defs><style>.a{fill:none;stroke:#707070;}.b{clip-path:url(#a);}.c{fill:#e4e2d9;}.d,.g{fill:#6c655d;}.e{fill:#fdfcf8;}.f,.g{stroke:none;}.h{filter:url(#b);}</style><clipPath id="a"><path class="a" d="M0,0H14V11H0Z" transform="translate(5 84)"/></clipPath><filter id="b" x="-8.5" y="-82.5" width="321.999" height="104" filterUnits="userSpaceOnUse"><feOffset dx="1" dy="2" input="SourceAlpha"/><feGaussianBlur stdDeviation="1.5" result="c"/><feFlood flood-color="#6c655d" flood-opacity="0.6"/><feComposite operator="in" in2="c"/><feComposite in="SourceGraphic"/></filter></defs><g class="b" transform="translate(-5 -84)"><g transform="translate(5 9.999)"><g transform="translate(-5 -5.999)"><g class="h" transform="matrix(1, 0, 0, 1, 5, 80)"><g class="c" transform="translate(-5 -80)"><path class="f" d="M 312.499267578125 94.49955749511719 L 0.5000104308128357 94.49955749511719 L 0.5000104308128357 0.5016618371009827 L 312.4992980957031 1.49835193157196 L 312.4992980957031 3.324038028717041 C 309.0262756347656 3.451313495635986 306.2398071289062 6.316360950469971 306.2398071289062 9.819905281066895 C 306.2398071289062 13.32299900054932 309.0262756347656 16.18766975402832 312.499267578125 16.31492805480957 L 312.499267578125 22.32392311096191 C 309.0262756347656 22.45119857788086 306.2398071289062 25.31624603271484 306.2398071289062 28.81978988647461 C 306.2398071289062 32.32288360595703 309.0262756347656 35.18759155273438 312.499267578125 35.31484985351562 L 312.499267578125 41.32376861572266 C 309.0262756347656 41.45104598999023 306.2398071289062 44.31613159179688 306.2398071289062 47.8197135925293 C 306.2398071289062 51.32325744628906 309.0262756347656 54.1883430480957 312.499267578125 54.31562042236328 L 312.499267578125 60.32373046875 C 309.0262756347656 60.45100402832031 306.2398071289062 63.31605529785156 306.2398071289062 66.81959533691406 C 306.2398071289062 70.32314300537109 309.0262756347656 73.18822479248047 312.499267578125 73.31550598144531 L 312.499267578125 79.32361602783203 C 309.0262756347656 79.45088958740234 306.2398071289062 82.31597900390625 306.2398071289062 85.81951904296875 C 306.2398071289062 89.32306671142578 309.0262756347656 92.18814849853516 312.499267578125 92.3154296875 L 312.499267578125 94.49955749511719 Z"/><path class="g" d="M 311.9992980957031 93.99954223632812 L 311.9992980957031 92.78090667724609 C 308.4862976074219 92.40969848632812 305.7398376464844 89.42929840087891 305.7398376464844 85.81949615478516 C 305.7398376464844 82.20973968505859 308.4862976074219 79.2293701171875 311.9992980957031 78.85816955566406 L 311.9992980957031 73.78099060058594 C 308.4862976074219 73.40978240966797 305.7398376464844 70.42938232421875 305.7398376464844 66.819580078125 C 305.7398376464844 63.20982360839844 308.4862976074219 60.22941970825195 311.9992980957031 59.85821151733398 L 311.9992980957031 54.78107833862305 C 308.4862976074219 54.40986633300781 305.7398376464844 51.42946624755859 305.7398376464844 47.81970596313477 C 305.7398376464844 44.20991134643555 308.4862976074219 41.2295036315918 311.9992980957031 40.85829544067383 L 311.9992980957031 35.78033065795898 C 308.4862976074219 35.4091682434082 305.7398376464844 32.42911911010742 305.7398376464844 28.81978988647461 C 305.7398376464844 25.21003150939941 308.4862976074219 22.22962951660156 311.9992980957031 21.85842132568359 L 311.9992980957031 16.78037452697754 C 308.4862976074219 16.40921401977539 305.7398376464844 13.42920303344727 305.7398376464844 9.819873809814453 C 305.7398376464844 6.2101149559021 308.4862976074219 3.229747533798218 311.9992980957031 2.858543634414673 L 311.9993286132812 1.996730923652649 L 1.000039339065552 1.003244996070862 L 1.000039339065552 93.99954223632812 L 311.9992980957031 93.99954223632812 M 312.9993286132812 94.99954223632812 L 312.9992980957031 94.99954223632812 L 312.998291015625 94.99954223632812 L 312.9992980957031 94.99954223632812 L 312.9993286132812 94.99954223632812 Z M 312.9993286132812 94.99954223632812 L 3.93066402466502e-05 94.99954223632812 L 3.93066402466502e-05 4.019165135105141e-05 L 312.9993286132812 0.9999151825904846 L 312.9992980957031 3.825165271759033 C 312.9194030761719 3.821831941604614 312.8325500488281 3.819623470306396 312.7401123046875 3.819623470306396 C 309.4315490722656 3.819623470306396 306.7398376464844 6.511332035064697 306.7398376464844 9.819873809814453 C 306.7398376464844 13.12795639038086 309.4315490722656 15.81929016113281 312.7401123046875 15.81929016113281 C 312.8255920410156 15.81929016113281 312.9127807617188 15.81745719909668 312.9992980957031 15.8137903213501 L 312.9992980957031 22.82504081726074 C 312.9194030761719 22.82170677185059 312.8325500488281 22.81949806213379 312.7401123046875 22.81949806213379 C 309.4315490722656 22.81949806213379 306.7398376464844 25.51120758056641 306.7398376464844 28.81978988647461 C 306.7398376464844 32.12787246704102 309.4315490722656 34.81924819946289 312.7401123046875 34.81924819946289 C 312.8265075683594 34.81924819946289 312.9136657714844 34.81733322143555 312.9992980957031 34.81366348266602 L 312.9992980957031 41.82487487792969 C 312.9197387695312 41.82158279418945 312.8329467773438 41.81937408447266 312.7401123046875 41.81937408447266 C 309.4315490722656 41.81937408447266 306.7398376464844 44.51112365722656 306.7398376464844 47.81970596313477 C 306.7398376464844 51.12829208374023 309.4315490722656 53.81999969482422 312.7401123046875 53.81999969482422 C 312.8255920410156 53.81999969482422 312.9127807617188 53.81816482543945 312.9992980957031 53.81449890136719 L 312.9992980957031 60.82483291625977 C 312.9194030761719 60.82149887084961 312.8325500488281 60.81929016113281 312.7401123046875 60.81929016113281 C 309.4315490722656 60.81929016113281 306.7398376464844 63.5109977722168 306.7398376464844 66.819580078125 C 306.7398376464844 70.12820434570312 309.4315490722656 72.81991577148438 312.7401123046875 72.81991577148438 C 312.8262023925781 72.81991577148438 312.9134216308594 72.81808471679688 312.9992980957031 72.81437683105469 L 312.9992980957031 79.82474517822266 C 312.9197387695312 79.82141876220703 312.8329467773438 79.81925201416016 312.7401123046875 79.81925201416016 C 309.4315490722656 79.81925201416016 306.7398376464844 82.51091766357422 306.7398376464844 85.81949615478516 C 306.7398376464844 89.12808227539062 309.4315490722656 91.81983184814453 312.7401123046875 91.81983184814453 C 312.8255920410156 91.81983184814453 312.9127807617188 91.81795501708984 312.9992980957031 91.81429290771484 L 312.9992980957031 94.99854278564453 L 312.9992980957031 94.99954223632812 Z"/></g></g><path class="d" d="M4.3.212,3.519,1.8l-1.749.255a.383.383,0,0,0-.212.654L2.823,3.939l-.3,1.742a.383.383,0,0,0,.556.4l1.565-.823,1.565.823a.383.383,0,0,0,.556-.4l-.3-1.742L7.731,2.706a.383.383,0,0,0-.212-.654L5.77,1.8,4.988.212a.383.383,0,0,0-.687,0Z" transform="translate(3.559 5)"/><path class="d" d="M4.3.212,3.519,1.8l-1.749.255a.383.383,0,0,0-.212.654L2.823,3.939l-.3,1.742a.383.383,0,0,0,.556.4l1.565-.823,1.565.823a.383.383,0,0,0,.556-.4l-.3-1.742L7.731,2.706a.383.383,0,0,0-.212-.654L5.77,1.8,4.988.212a.383.383,0,0,0-.687,0Z" transform="translate(3.559 84)"/><path class="d" d="M4.3.212,3.519,1.8l-1.749.255a.383.383,0,0,0-.212.654L2.823,3.939l-.3,1.742a.383.383,0,0,0,.556.4l1.565-.823,1.565.823a.383.383,0,0,0,.556-.4l-.3-1.742L7.731,2.706a.383.383,0,0,0-.212-.654L5.77,1.8,4.988.212a.383.383,0,0,0-.687,0Z" transform="translate(291.559 5)"/><path class="d" d="M4.3.212,3.519,1.8l-1.749.255a.383.383,0,0,0-.212.654L2.823,3.939l-.3,1.742a.383.383,0,0,0,.556.4l1.565-.823,1.565.823a.383.383,0,0,0,.556-.4l-.3-1.742L7.731,2.706a.383.383,0,0,0-.212-.654L5.77,1.8,4.988.212a.383.383,0,0,0-.687,0Z" transform="translate(291.559 84)"/></g><g class="e" transform="translate(6 3.001)"><path class="f" d="M 278.7298278808594 79.50100708007812 L 6.31019926071167 79.50011444091797 C 6.404279708862305 79.08716583251953 6.451740741729736 78.66390991210938 6.451740741729736 78.23522186279297 C 6.451740741729736 75.06211853027344 3.819777011871338 72.45565795898438 0.4991337954998016 72.24144744873047 L 0.4991337954998016 6.919747829437256 C 0.6599352359771729 6.931108951568604 0.8211696743965149 6.93682861328125 0.9818837642669678 6.93682861328125 C 4.509598255157471 6.93682861328125 7.379598140716553 4.237221717834473 7.379598140716553 0.9189359545707703 C 7.379598140716553 0.7790449857711792 7.374455451965332 0.6391982436180115 7.36422872543335 0.5000073313713074 L 278.8516235351562 0.5000073313713074 C 278.7621154785156 0.9323135018348694 278.7169189453125 1.373466372489929 278.7169189453125 1.818007349967957 C 278.7169189453125 5.602793216705322 281.9963073730469 8.681936264038086 286.0272521972656 8.681936264038086 C 286.1846618652344 8.681936264038086 286.3426208496094 8.677165985107422 286.5001831054688 8.667690277099609 L 286.5001220703125 72.24144744873047 C 286.3426513671875 72.23198699951172 286.1847229003906 72.22721862792969 286.0272521972656 72.22721862792969 C 281.9963073730469 72.22721862792969 278.7169189453125 75.30636596679688 278.7169189453125 79.09111785888672 C 278.7169189453125 79.22758483886719 278.7212524414062 79.36443328857422 278.7298278808594 79.50100708007812 Z"/><path class="g" d="M 278.2174987792969 79.00100708007812 C 278.2686157226562 74.99016571044922 281.737548828125 71.74083709716797 286.0001220703125 71.72726440429688 L 286.0001831054688 9.181891441345215 C 281.705810546875 9.168220520019531 278.2169189453125 5.870080947875977 278.2169189453125 1.818007349967957 C 278.2169189453125 1.543779373168945 278.2328796386719 1.270743131637573 278.2646789550781 1.000007390975952 L 7.879071235656738 1.000007390975952 C 7.833164691925049 4.551411151885986 4.766055107116699 7.427969455718994 0.9991337656974792 7.436806678771973 L 0.9991337656974792 71.78778839111328 C 4.356968879699707 72.22271728515625 6.951740741729736 74.94828796386719 6.951740741729736 78.23522186279297 C 6.951740741729736 78.49225616455078 6.936044216156006 78.74752044677734 6.904808044433594 79.0001220703125 L 278.2174987792969 79.00100708007812 M 279.2860717773438 80.00100708007812 L 279.2860412597656 80.00100708007812 L 5.643026828765869 80.00011444091797 C 5.847526550292969 79.43589782714844 5.951740741729736 78.84257507324219 5.951740741729736 78.23522186279297 C 5.951740741729736 75.19811248779297 3.307240962982178 72.72721862792969 0.05670521780848503 72.72721862792969 C 0.0377766452729702 72.72721862792969 0.01895521767437458 72.72721862792969 -0.0008662109612487257 72.72811126708984 L -0.0008662109612487257 6.360328674316406 C 0.3207052052021027 6.410757541656494 0.650990903377533 6.43682861328125 0.9818837642669678 6.43682861328125 C 4.233883857727051 6.43682861328125 6.879598140716553 3.961507320404053 6.879598140716553 0.9189359545707703 C 6.879598140716553 0.6093645095825195 6.852026462554932 0.3001859188079834 6.797705173492432 7.354736226261593e-06 L 279.4988708496094 7.354736226261593e-06 C 279.3121032714844 0.5864002108573914 279.2169189453125 1.197614550590515 279.2169189453125 1.818007349967957 C 279.2169189453125 5.327078819274902 282.2720031738281 8.181936264038086 286.0272521972656 8.181936264038086 C 286.3523559570312 8.181936264038086 286.6797180175781 8.160222053527832 287.0001831054688 8.117435455322266 L 287.0001220703125 72.79168701171875 C 286.6824951171875 72.74925994873047 286.3555603027344 72.72721862792969 286.0272521972656 72.72721862792969 C 282.2720031738281 72.72721862792969 279.2169189453125 75.58204650878906 279.2169189453125 79.09111785888672 C 279.2169189453125 79.39500427246094 279.2401428222656 79.70075988769531 279.2858581542969 79.99986267089844 L 279.2860717773438 80.00100708007812 Z"/></g></g></g></svg>