<svg xmlns="http://www.w3.org/2000/svg" width="14" height="11"><defs><clipPath id="a"><path transform="translate(5 5)" fill="none" stroke="#707070" d="M0 0h14v11H0z"/></clipPath><filter id="b" x="-8.5" y="-7.5" width="321.999" height="104" filterUnits="userSpaceOnUse"><feOffset dx="1" dy="2"/><feGaussianBlur stdDeviation="1.5" result="c"/><feFlood flood-color="#6c655d" flood-opacity=".6"/><feComposite operator="in" in2="c"/><feComposite in="SourceGraphic"/></filter><style>.d,.g{fill:#6c655d}.f,.g{stroke:none}</style></defs><g transform="translate(-5 -5)" clip-path="url(#a)"><g transform="translate(5 5)" filter="url(#b)"><g fill="#e4e2d9"><path class="f" d="M307.49926758 89.4995575H-4.49998957V-4.49833816l311.99928767.9966901v1.82568609c-3.47302247.12727547-6.25949097 2.99232292-6.25949097 6.49586725 0 3.50309372 2.7864685 6.36776447 6.25946045 6.49502277v6.00899506c-3.47299195.12727547-6.25946045 2.99232292-6.25946045 6.49586678 0 3.50309372 2.7864685 6.36780166 6.25946045 6.49505996v6.00891877c-3.47299195.12727737-6.25946045 2.99236297-6.25946045 6.49594497 0 3.50354386 2.7864685 6.36862946 6.25946045 6.49590683v6.00811005c-3.47299195.12727356-6.25946045 2.99232483-6.25946045 6.49586487 0 3.50354767 2.7864685 6.36862945 6.25946045 6.49591064v6.00811005c-3.47299195.12727356-6.25946045 2.99236297-6.25946045 6.49590301 0 3.50354767 2.7864685 6.36862946 6.25946045 6.49591065v2.1841278z"/><path class="g" d="M306.9992981 88.99954224v-1.21863556c-3.5130005-.3712082-6.25946045-3.35160828-6.25946045-6.96141053 0-3.60975646 2.74645996-6.59012603 6.25946045-6.9613266V68.7809906c-3.5130005-.37120819-6.25946045-3.35160828-6.25946045-6.96141052 0-3.60975647 2.74645996-6.59016037 6.25946045-6.96136856v-5.07713318c-3.5130005-.371212-6.25946045-3.3516121-6.25946045-6.96137238 0-3.60979461 2.74645996-6.59020233 6.25946045-6.96141052v-5.07796478c-3.5130005-.37116242-6.25946045-3.35121155-6.25946045-6.96054077 0-3.60975838 2.74645996-6.59016037 6.25946045-6.96136856v-5.0780468c-3.5130005-.37116051-6.25946045-3.3511715-6.25946045-6.96050072 0-3.60975885 2.74645996-6.59012628 6.25946045-6.96133018l.00003051-.8618127L-3.99996066-3.996755v92.99629724H306.9992981m1.00003051 1H307.99829102 307.9993286zm0 0H-4.99996069V-4.99995981l312.9992893.999875-.00003051 2.82525008c-.07989502-.00333333-.16674805-.0055418-.2591858-.0055418-3.30856323 0-6.00027465 2.69170857-6.00027465 6.00025034 0 3.30808258 2.69171142 5.99941635 6.00027465 5.99941635.08547974 0 .17266846-.00183296.2591858-.00549984v7.0112505c-.07989502-.00333405-.16674805-.00554276-.2591858-.00554276-3.30856323 0-6.00027465 2.69170952-6.00027465 6.00029183 0 3.30808258 2.69171142 5.9994583 6.00027465 5.9994583.08639527 0 .17355347-.00191497.2591858-.0055847v7.01121139c-.07955933-.00329209-.16635132-.0055008-.2591858-.0055008-3.30856323 0-6.00027465 2.69174958-6.00027465 6.00033188 0 3.30858612 2.69171142 6.00029373 6.00027465 6.00029373.08547974 0 .17266846-.00183486.2591858-.00550079v7.01033402c-.07989502-.00333405-.16674805-.00554276-.2591858-.00554276-3.30856323 0-6.00027465 2.69170761-6.00027465 6.00028992 0 3.30862427 2.69171142 6.0003357 6.00027465 6.0003357.0860901 0 .17330933-.00183106.2591858-.00553895v7.01036835c-.07955933-.00332642-.16635132-.00549317-.2591858-.00549317-3.30856323 0-6.00027465 2.69166565-6.00027465 6.00024414 0 3.30858613 2.69171142 6.0003357 6.00027465 6.0003357.08547974 0 .17266846-.00187683.2591858-.00553894v3.18524933z"/></g></g><path class="d" d="M7.859 5.212L7.078 6.8l-1.749.255a.383.383 0 00-.212.654l1.265 1.23-.3 1.742a.383.383 0 00.556.4l1.565-.823 1.565.823a.383.383 0 00.556-.4l-.3-1.742 1.266-1.233a.383.383 0 00-.212-.654L9.329 6.8l-.782-1.588a.383.383 0 00-.687 0zM7.859 84.212L7.078 85.8l-1.749.255a.383.383 0 00-.212.654l1.265 1.23-.3 1.742a.383.383 0 00.556.4l1.565-.823 1.565.823a.383.383 0 00.556-.4l-.3-1.742 1.266-1.233a.383.383 0 00-.212-.654L9.329 85.8l-.782-1.588a.383.383 0 00-.687 0zM295.859 5.212l-.781 1.588-1.749.255a.383.383 0 00-.212.654l1.265 1.23-.3 1.742a.383.383 0 00.556.4l1.565-.823 1.565.823a.383.383 0 00.556-.4l-.3-1.742 1.266-1.233a.383.383 0 00-.212-.654l-1.749-.252-.782-1.588a.383.383 0 00-.687 0zM295.859 84.212l-.781 1.588-1.749.255a.383.383 0 00-.212.654l1.265 1.23-.3 1.742a.383.383 0 00.556.4l1.565-.823 1.565.823a.383.383 0 00.556-.4l-.3-1.742 1.266-1.233a.383.383 0 00-.212-.654l-1.749-.252-.782-1.588a.383.383 0 00-.687 0z"/><g fill="#fdfcf8"><path class="f" d="M289.72988892 87.50083923l-270.45965958-.00074005c.00858498-.13627624.01290321-.27285003.01290321-.4090042 0-3.78471375-3.27942848-6.8637848-7.31039297-6.8637848-.15710622 0-.31500995.00479889-.47274998.01433563v-65.3217783c.1603544.0112238.32173309.01686955.48325.01686955 3.52739291 0 6.39714294-2.6992855 6.39714294-6.01714271 0-.13938004-.00519943-.27947802-.0155387-.41960696l271.48687125.00007108c-.0895691.43230832-.13476563.87342316-.13476563 1.31789309 0 3.7847501 3.27905274 6.86389315 7.30950928 6.86389315.15777588 0 .31594849-.00478268.47366333-.01428795v63.57397461c-.15753174-.00946045-.31573486-.01422119-.47366333-.01422119-4.03045654 0-7.30950928 3.07907105-7.30950928 6.8637848 0 .13641356.0043335.27322387.01293946.40974425z"/><path class="g" d="M289.2175293 87.00083923c.05154419-4.01067352 3.52038574-7.26031494 7.78259277-7.2734909V17.18180275c-4.29425049-.01327038-7.7831726-3.3115654-7.7831726-7.36385119 0-.27418733.01596069-.5471692.04776-.81789327L18.87986422 8.99998754c-.04553652 3.55153567-3.11272145 6.42824513-6.8798746 6.43672902v64.2906394c4.26173724.01396179 7.73060502 3.2629013 7.78255356 7.27274322l269.43498612.00074005m1.068573 1.00000763l-271.57214833-.0007553c.04557133-.2972107.06917858-.60278321.06917858-.90899659 0-3.50907135-3.05517864-6.36378479-6.81039297-6.36378479-.32342857 0-.65067855.02171326-.97274997.06467438V14.3605585c.31867858.05021429.64910712.07617855.98324998.07617855 3.25171429 0 5.89714295-2.4750712 5.89714295-5.51714271 0-.30557138-.02742863-.61503569-.08142853-.91960712l272.70003891.00007143c-.18682861.58639287-.28204346 1.19767856-.28204346 1.8178929 0 3.50907147 3.05474854 6.36389315 6.80950928 6.36389315.32546997 0 .65304565-.0217142.97366333-.0646429v64.67467594c-.31796265-.04264069-.64517212-.06456757-.97366333-.06456757-3.75476074 0-6.80950928 2.85471344-6.80950928 6.3637848 0 .3039627.0232544.60971068.06896973.90864562l.0001831.00110626z"/></g></g></svg>