<svg xmlns="http://www.w3.org/2000/svg" width="14" height="11"><defs><clipPath id="a"><path d="M0 0h14v11H0z" transform="translate(5 84)" fill="none" stroke="#707070"/></clipPath><filter id="b" x="-8.5" y="-82.5" width="321.999" height="104" filterUnits="userSpaceOnUse"><feOffset dx="1" dy="2"/><feGaussianBlur stdDeviation="1.5" result="c"/><feFlood flood-color="#6c655d" flood-opacity=".6"/><feComposite operator="in" in2="c"/><feComposite in="SourceGraphic"/></filter><style>.d,.g{fill:#6c655d}.f,.g{stroke:none}</style></defs><g transform="translate(-5 -84)" clip-path="url(#a)"><g transform="translate(5 84)" filter="url(#b)"><g fill="#e4e2d9"><path class="f" d="M307.49926758 14.4995575H-4.49998957v-93.99789566l311.99928767.9966901v1.82568609c-3.47302247.12727547-6.25949097 2.99232292-6.25949097 6.49586725 0 3.50309372 2.7864685 6.36776447 6.25946045 6.49502277v6.00899506c-3.47299195.12727547-6.25946045 2.99232292-6.25946045 6.49586678 0 3.50309372 2.7864685 6.36780166 6.25946045 6.49505996v6.00891877c-3.47299195.12727737-6.25946045 2.99236297-6.25946045 6.49594497 0 3.50354386 2.7864685 6.36862946 6.25946045 6.49590683v6.00811005c-3.47299195.12727356-6.25946045 2.99232483-6.25946045 6.49586487 0 3.50354767 2.7864685 6.36862945 6.25946045 6.49591064v6.00811005c-3.47299195.12727356-6.25946045 2.99236297-6.25946045 6.49590301 0 3.50354767 2.7864685 6.36862946 6.25946045 6.49591065v2.1841278z"/><path class="g" d="M306.9992981 13.99954224v-1.21863556c-3.5130005-.3712082-6.25946045-3.35160828-6.25946045-6.96141053 0-3.60975646 2.74645996-6.59012603 6.25946045-6.9613266V-6.2190094c-3.5130005-.37120819-6.25946045-3.35160828-6.25946045-6.96141052 0-3.60975647 2.74645996-6.59016037 6.25946045-6.96136856v-5.07713318c-3.5130005-.371212-6.25946045-3.3516121-6.25946045-6.96137238 0-3.60979461 2.74645996-6.59020233 6.25946045-6.96141052v-5.07796478c-3.5130005-.37116242-6.25946045-3.35121155-6.25946045-6.96054077 0-3.60975838 2.74645996-6.59016037 6.25946045-6.96136856v-5.0780468c-3.5130005-.37116051-6.25946045-3.3511715-6.25946045-6.96050072 0-3.60975885 2.74645996-6.59012628 6.25946045-6.96133018l.00003051-.8618127L-3.99996066-78.996755v92.99629724H306.9992981m1.00003051 1H307.99829102 307.9993286zm0 0H-4.99996069v-94.99950205l312.9992893.999875-.00003051 2.82525008c-.07989502-.00333333-.16674805-.0055418-.2591858-.0055418-3.30856323 0-6.00027465 2.69170857-6.00027465 6.00025034 0 3.30808258 2.69171142 5.99941635 6.00027465 5.99941635.08547974 0 .17266846-.00183296.2591858-.00549984v7.0112505c-.07989502-.00333405-.16674805-.00554276-.2591858-.00554276-3.30856323 0-6.00027465 2.69170952-6.00027465 6.00029183 0 3.30808258 2.69171142 5.9994583 6.00027465 5.9994583.08639527 0 .17355347-.00191497.2591858-.0055847v7.01121139c-.07955933-.00329209-.16635132-.0055008-.2591858-.0055008-3.30856323 0-6.00027465 2.69174958-6.00027465 6.00033188 0 3.30858612 2.69171142 6.00029373 6.00027465 6.00029373.08547974 0 .17266846-.00183486.2591858-.00550079v7.01033402c-.07989502-.00333405-.16674805-.00554276-.2591858-.00554276-3.30856323 0-6.00027465 2.69170761-6.00027465 6.00028992 0 3.30862427 2.69171142 6.0003357 6.00027465 6.0003357.0860901 0 .17330933-.00183106.2591858-.00553895v7.01036835c-.07955933-.00332642-.16635132-.00549317-.2591858-.00549317-3.30856323 0-6.00027465 2.69166565-6.00027465 6.00024414 0 3.30858613 2.69171142 6.0003357 6.00027465 6.0003357.08547974 0 .17266846-.00187683.2591858-.00553894v3.18524933z"/></g></g><path class="d" d="M7.859 9.212L7.078 10.8l-1.749.255a.383.383 0 00-.212.654l1.265 1.23-.3 1.742a.383.383 0 00.556.4l1.565-.823 1.565.823a.383.383 0 00.556-.4l-.3-1.742 1.266-1.233a.383.383 0 00-.212-.654L9.329 10.8l-.782-1.588a.383.383 0 00-.687 0zM7.859 88.212L7.078 89.8l-1.749.255a.383.383 0 00-.212.654l1.265 1.23-.3 1.742a.383.383 0 00.556.4l1.565-.823 1.565.823a.383.383 0 00.556-.4l-.3-1.742 1.266-1.233a.383.383 0 00-.212-.654L9.329 89.8l-.782-1.588a.383.383 0 00-.687 0zM295.859 9.212l-.781 1.588-1.749.255a.383.383 0 00-.212.654l1.265 1.23-.3 1.742a.383.383 0 00.556.4l1.565-.823 1.565.823a.383.383 0 00.556-.4l-.3-1.742 1.266-1.233a.383.383 0 00-.212-.654l-1.749-.252-.782-1.588a.383.383 0 00-.687 0zM295.859 88.212l-.781 1.588-1.749.255a.383.383 0 00-.212.654l1.265 1.23-.3 1.742a.383.383 0 00.556.4l1.565-.823 1.565.823a.383.383 0 00.556-.4l-.3-1.742 1.266-1.233a.383.383 0 00-.212-.654l-1.749-.252-.782-1.588a.383.383 0 00-.687 0z"/><g fill="#fdfcf8"><path class="f" d="M289.72982788 92.50100708l-272.41962862-.00089264c.09408045-.4129486.14154148-.83620453.14154148-1.26489258 0-3.17310333-2.63196373-5.7795639-5.95260694-5.99377441V19.91974783c.16080144.01136112.32203587.01708078.48274996.01708078 3.5277145 0 6.39771438-2.6996069 6.39771438-6.01789266 0-.13989096-.00514269-.2797377-.01536941-.41892862h271.4873948c-.08950805.43230617-.13470458.87345904-.13470458 1.31800002 0 3.78478587 3.27938842 6.86392891 7.31033325 6.86392891.15740967 0 .31536865-.00477027.4729309-.01424598l-.00006103 63.57375717c-.1574707-.00946045-.31539917-.01422882-.47286987-.01422882-4.03094483 0-7.31033325 3.07914734-7.31033325 6.86389923 0 .13646698.0043335.27331543.01290893.40988922z"/><path class="g" d="M289.21749878 92.00100708c.05111694-4.01084137 3.52005005-7.26016998 7.78262329-7.27374268l.00006104-62.54537296c-4.29437256-.01367092-7.78326416-3.3118105-7.78326416-7.36388409 0-.27422798.01596069-.54726422.04776-.81799996H18.87907125c-.04590655 3.55140376-3.11301613 6.42796207-6.87993747 6.43679929v64.35098171c3.35783511.4349289 5.95260697 3.16049957 5.95260697 6.44743347 0 .2570343-.01569652.51229859-.0469327.76490021l271.31269074.00088501m1.068573 1h-.00003052l-273.64301443-.00089264c.20449972-.56421661.30871391-1.15753937.30871391-1.76489258 0-3.03710937-2.64449978-5.50800323-5.89503552-5.50800323-.01892857 0-.03775 0-.05757143.00089264v-66.3677826c.32157142.05042887.65185711.07649994.98274997.07649994 3.2520001 0 5.89771438-2.47532129 5.89771438-5.51789266 0-.30957144-.02757168-.61875003-.08189297-.9189286h272.70116568c-.18676758.58639286-.2819519 1.1976072-.2819519 1.818 0 3.50907147 3.05508422 6.36392891 6.81033325 6.36392891.32510376 0 .65246582-.0217142.9729309-.0645008l-.00006103 64.67425155c-.31762695-.04242706-.64456177-.06446838-.97286987-.06446838-3.75524903 0-6.81033325 2.85482788-6.81033325 6.36389923 0 .30388641.02322387.60964203.0689392.90874481l.00021363.00114441z"/></g></g></svg>