<svg xmlns="http://www.w3.org/2000/svg" width="14" height="11"><defs><clipPath id="a"><path transform="translate(289 5)" fill="none" stroke="#707070" d="M0 0h14v11H0z"/></clipPath><filter id="b" x="-292.5" y="-7.5" width="321.999" height="104" filterUnits="userSpaceOnUse"><feOffset dx="1" dy="2"/><feGaussianBlur stdDeviation="1.5" result="c"/><feFlood flood-color="#6c655d" flood-opacity=".6"/><feComposite operator="in" in2="c"/><feComposite in="SourceGraphic"/></filter><style>.d,.g{fill:#6c655d}.f,.g{stroke:none}</style></defs><g transform="translate(-289 -5)" clip-path="url(#a)"><g transform="translate(289 5)" filter="url(#b)"><g fill="#e4e2d9"><path class="f" d="M23.49926758 89.4995575h-311.99925715V-4.49833816l311.99928767.9966901v1.82568609c-3.47302247.12727547-6.25949097 2.99232292-6.25949097 6.49586725 0 3.50309372 2.7864685 6.36776447 6.25946045 6.49502277v6.00899506c-3.47299195.12727547-6.25946045 2.99232292-6.25946045 6.49586678 0 3.50309372 2.7864685 6.36780166 6.25946045 6.49505996v6.00891877c-3.47299195.12727737-6.25946045 2.99236297-6.25946045 6.49594497 0 3.50354386 2.7864685 6.36862946 6.25946045 6.49590683v6.00811005c-3.47299195.12727356-6.25946045 2.99232483-6.25946045 6.49586487 0 3.50354767 2.7864685 6.36862945 6.25946045 6.49591064v6.00811005c-3.47299195.12727356-6.25946045 2.99236297-6.25946045 6.49590301 0 3.50354767 2.7864685 6.36862946 6.25946045 6.49591065v2.1841278z"/><path class="g" d="M22.9992981 88.99954224v-1.21863556c-3.5130005-.3712082-6.25946045-3.35160828-6.25946045-6.96141053 0-3.60975646 2.74645996-6.59012603 6.25946045-6.9613266V68.7809906c-3.5130005-.37120819-6.25946045-3.35160828-6.25946045-6.96141052 0-3.60975647 2.74645996-6.59016037 6.25946045-6.96136856v-5.07713318c-3.5130005-.371212-6.25946045-3.3516121-6.25946045-6.96137238 0-3.60979461 2.74645996-6.59020233 6.25946045-6.96141052v-5.07796478c-3.5130005-.37116242-6.25946045-3.35121155-6.25946045-6.96054077 0-3.60975838 2.74645996-6.59016037 6.25946045-6.96136856v-5.0780468c-3.5130005-.37116051-6.25946045-3.3511715-6.25946045-6.96050072 0-3.60975885 2.74645996-6.59012628 6.25946045-6.96133018l.00003051-.8618127-310.99928927-.99348593v92.99629724H22.9992981m1.00003051 1H23.99829102 23.9993286zm0 0h-312.9992893V-4.99995981l312.9992893.999875-.00003051 2.82525008c-.07989502-.00333333-.16674805-.0055418-.2591858-.0055418-3.30856323 0-6.00027465 2.69170857-6.00027465 6.00025034 0 3.30808258 2.69171142 5.99941635 6.00027465 5.99941635.08547974 0 .17266846-.00183296.2591858-.00549984v7.0112505c-.07989502-.00333405-.16674805-.00554276-.2591858-.00554276-3.30856323 0-6.00027465 2.69170952-6.00027465 6.00029183 0 3.30808258 2.69171142 5.9994583 6.00027465 5.9994583.08639527 0 .17355347-.00191497.2591858-.0055847v7.01121139c-.07955933-.00329209-.16635132-.0055008-.2591858-.0055008-3.30856323 0-6.00027465 2.69174958-6.00027465 6.00033188 0 3.30858612 2.69171142 6.00029373 6.00027465 6.00029373.08547974 0 .17266846-.00183486.2591858-.00550079v7.01033402c-.07989502-.00333405-.16674805-.00554276-.2591858-.00554276-3.30856323 0-6.00027465 2.69170761-6.00027465 6.00028992 0 3.30862427 2.69171142 6.0003357 6.00027465 6.0003357.0860901 0 .17330933-.00183106.2591858-.00553895v7.01036835c-.07955933-.00332642-.16635132-.00549317-.2591858-.00549317-3.30856323 0-6.00027465 2.69166565-6.00027465 6.00024414 0 3.30858613 2.69171142 6.0003357 6.00027465 6.0003357.08547974 0 .17266846-.00187683.2591858-.00553894v3.18524933z"/></g></g><path class="d" d="M7.859 5.212L7.078 6.8l-1.749.255a.383.383 0 00-.212.654l1.265 1.23-.3 1.742a.383.383 0 00.556.4l1.565-.823 1.565.823a.383.383 0 00.556-.4l-.3-1.742 1.266-1.233a.383.383 0 00-.212-.654L9.329 6.8l-.782-1.588a.383.383 0 00-.687 0zM7.859 84.212L7.078 85.8l-1.749.255a.383.383 0 00-.212.654l1.265 1.23-.3 1.742a.383.383 0 00.556.4l1.565-.823 1.565.823a.383.383 0 00.556-.4l-.3-1.742 1.266-1.233a.383.383 0 00-.212-.654L9.329 85.8l-.782-1.588a.383.383 0 00-.687 0zM297.859 5.212l-.781 1.588-1.749.255a.383.383 0 00-.212.654l1.265 1.23-.3 1.742a.383.383 0 00.556.4l1.565-.823 1.565.823a.383.383 0 00.556-.4l-.3-1.742 1.266-1.233a.383.383 0 00-.212-.654l-1.749-.252-.782-1.588a.383.383 0 00-.687 0zM295.859 84.212l-.781 1.588-1.749.255a.383.383 0 00-.212.654l1.265 1.23-.3 1.742a.383.383 0 00.556.4l1.565-.823 1.565.823a.383.383 0 00.556-.4l-.3-1.742 1.266-1.233a.383.383 0 00-.212-.654l-1.749-.252-.782-1.588a.383.383 0 00-.687 0z"/><g fill="#fdfcf8"><path class="f" d="M289.7298584 87.50100708l-270.46033383-.00089264c.0085001-.1363144.01277256-.27287292.01277256-.40899658 0-3.7847519-3.27935695-6.86389923-7.31025004-6.86389923-.15774035 0-.31568855.00476837-.47292826.01422882l.00003511-65.32181072c.16141954.01143503.32297734.01719188.48367885.01719188 3.5271784 0 6.3967501-2.69921398 6.3967501-6.01699984 0-.14042628-.0050769-.2805792-.01516772-.41982144h271.37133312c-.0125122.15397304-.01879883.30858731-.01879883.463 0 3.31332123 2.86877442 6.00892842 6.39498902 6.00892842.46990966 0 .9345703-.04764176 1.38818359-.1420393v65.411551c-.15750122-.00946045-.31539917-.01422882-.47290039-.01422882-4.03088379 0-7.31027222 3.07914734-7.31027222 6.86389923 0 .13651276.00430298.27335358.01290894.40988922z"/><path class="g" d="M289.2175293 87.00100708c.05111694-4.01084137 3.52005005-7.26016998 7.78259277-7.27374268V15.41838074c-.29327393.03563547-.58978271.053555-.8881836.053555-3.78894042 0-6.87384033-2.8997445-6.89489745-6.47192835H18.87906694c-.04553651 3.55168367-3.1126542 6.42867065-6.87991327 6.43680167L11.9991191 79.7272644c4.26199168.0135727 7.73063726 3.26269532 7.78258866 7.27285004l269.43582154.00089264m1.06851196 1h-.00003052l-271.57210636-.00089264c.04503536-.29728699.06839275-.60275268.06839275-.90899658 0-3.50907135-3.05507135-6.36389923-6.81025004-6.36389923-.3266071 0-.65392855.02178955-.97292856.06475067l.00003571-66.43164063c.32339287.05042887.65396431.07649994.98367855.07649994 3.25146449 0 5.8967501-2.47492838 5.8967501-5.51699984 0-.31114286-.02721454-.62060714-.08092881-.91982142h272.50804758c-.05923462.31403572-.0897522.63764284-.0897522.96299998 0 3.03764308 2.64450074 5.50892842 5.89498902 5.50892842.64633178 0 1.28158569-.0971427 1.88818359-.28878546v66.60853672c-.31759644-.04242706-.64456177-.06446838-.97290039-.06446838-3.7552185 0-6.81027222 2.85482788-6.81027222 6.36389923 0 .30388641.02316284.60964203.0689087.90874481l.0001831.00114441z"/></g></g></svg>