<svg xmlns="http://www.w3.org/2000/svg" xmlns:xlink="http://www.w3.org/1999/xlink" width="14" height="11" viewBox="0 0 14 11"><defs><style>.a{fill:none;stroke:#707070;}.b{clip-path:url(#a);}.c{fill:#e4e2d9;}.d,.g{fill:#6c655d;}.e{fill:#fdfcf8;}.f,.g{stroke:none;}.h{filter:url(#b);}</style><clipPath id="a"><rect class="a" width="14" height="11" transform="translate(5 5)"/></clipPath><filter id="b" x="-8.5" y="-7.5" width="321.999" height="104" filterUnits="userSpaceOnUse"><feOffset dx="1" dy="2" input="SourceAlpha"/><feGaussianBlur stdDeviation="1.5" result="c"/><feFlood flood-color="#6c655d" flood-opacity="0.6"/><feComposite operator="in" in2="c"/><feComposite in="SourceGraphic"/></filter></defs><g class="b" transform="translate(-5 -5)"><g transform="translate(5 4.999)"><g transform="translate(-5 -4.999)"><g class="h" transform="matrix(1, 0, 0, 1, 5, 5)"><g class="c" transform="translate(-5 -5)"><path class="f" d="M 312.499267578125 94.49955749511719 L 0.5000104308128357 94.49955749511719 L 0.5000104308128357 0.5016618371009827 L 312.4992980957031 1.49835193157196 L 312.4992980957031 3.324038028717041 C 309.0262756347656 3.451313495635986 306.2398071289062 6.316360950469971 306.2398071289062 9.819905281066895 C 306.2398071289062 13.32299900054932 309.0262756347656 16.18766975402832 312.499267578125 16.31492805480957 L 312.499267578125 22.32392311096191 C 309.0262756347656 22.45119857788086 306.2398071289062 25.31624603271484 306.2398071289062 28.81978988647461 C 306.2398071289062 32.32288360595703 309.0262756347656 35.18759155273438 312.499267578125 35.31484985351562 L 312.499267578125 41.32376861572266 C 309.0262756347656 41.45104598999023 306.2398071289062 44.31613159179688 306.2398071289062 47.8197135925293 C 306.2398071289062 51.32325744628906 309.0262756347656 54.1883430480957 312.499267578125 54.31562042236328 L 312.499267578125 60.32373046875 C 309.0262756347656 60.45100402832031 306.2398071289062 63.31605529785156 306.2398071289062 66.81959533691406 C 306.2398071289062 70.32314300537109 309.0262756347656 73.18822479248047 312.499267578125 73.31550598144531 L 312.499267578125 79.32361602783203 C 309.0262756347656 79.45088958740234 306.2398071289062 82.31597900390625 306.2398071289062 85.81951904296875 C 306.2398071289062 89.32306671142578 309.0262756347656 92.18814849853516 312.499267578125 92.3154296875 L 312.499267578125 94.49955749511719 Z"/><path class="g" d="M 311.9992980957031 93.99954223632812 L 311.9992980957031 92.78090667724609 C 308.4862976074219 92.40969848632812 305.7398376464844 89.42929840087891 305.7398376464844 85.81949615478516 C 305.7398376464844 82.20973968505859 308.4862976074219 79.2293701171875 311.9992980957031 78.85816955566406 L 311.9992980957031 73.78099060058594 C 308.4862976074219 73.40978240966797 305.7398376464844 70.42938232421875 305.7398376464844 66.819580078125 C 305.7398376464844 63.20982360839844 308.4862976074219 60.22941970825195 311.9992980957031 59.85821151733398 L 311.9992980957031 54.78107833862305 C 308.4862976074219 54.40986633300781 305.7398376464844 51.42946624755859 305.7398376464844 47.81970596313477 C 305.7398376464844 44.20991134643555 308.4862976074219 41.2295036315918 311.9992980957031 40.85829544067383 L 311.9992980957031 35.78033065795898 C 308.4862976074219 35.4091682434082 305.7398376464844 32.42911911010742 305.7398376464844 28.81978988647461 C 305.7398376464844 25.21003150939941 308.4862976074219 22.22962951660156 311.9992980957031 21.85842132568359 L 311.9992980957031 16.78037452697754 C 308.4862976074219 16.40921401977539 305.7398376464844 13.42920303344727 305.7398376464844 9.819873809814453 C 305.7398376464844 6.2101149559021 308.4862976074219 3.229747533798218 311.9992980957031 2.858543634414673 L 311.9993286132812 1.996730923652649 L 1.000039339065552 1.003244996070862 L 1.000039339065552 93.99954223632812 L 311.9992980957031 93.99954223632812 M 312.9993286132812 94.99954223632812 L 312.9992980957031 94.99954223632812 L 312.998291015625 94.99954223632812 L 312.9992980957031 94.99954223632812 L 312.9993286132812 94.99954223632812 Z M 312.9993286132812 94.99954223632812 L 3.93066402466502e-05 94.99954223632812 L 3.93066402466502e-05 4.019165135105141e-05 L 312.9993286132812 0.9999151825904846 L 312.9992980957031 3.825165271759033 C 312.9194030761719 3.821831941604614 312.8325500488281 3.819623470306396 312.7401123046875 3.819623470306396 C 309.4315490722656 3.819623470306396 306.7398376464844 6.511332035064697 306.7398376464844 9.819873809814453 C 306.7398376464844 13.12795639038086 309.4315490722656 15.81929016113281 312.7401123046875 15.81929016113281 C 312.8255920410156 15.81929016113281 312.9127807617188 15.81745719909668 312.9992980957031 15.8137903213501 L 312.9992980957031 22.82504081726074 C 312.9194030761719 22.82170677185059 312.8325500488281 22.81949806213379 312.7401123046875 22.81949806213379 C 309.4315490722656 22.81949806213379 306.7398376464844 25.51120758056641 306.7398376464844 28.81978988647461 C 306.7398376464844 32.12787246704102 309.4315490722656 34.81924819946289 312.7401123046875 34.81924819946289 C 312.8265075683594 34.81924819946289 312.9136657714844 34.81733322143555 312.9992980957031 34.81366348266602 L 312.9992980957031 41.82487487792969 C 312.9197387695312 41.82158279418945 312.8329467773438 41.81937408447266 312.7401123046875 41.81937408447266 C 309.4315490722656 41.81937408447266 306.7398376464844 44.51112365722656 306.7398376464844 47.81970596313477 C 306.7398376464844 51.12829208374023 309.4315490722656 53.81999969482422 312.7401123046875 53.81999969482422 C 312.8255920410156 53.81999969482422 312.9127807617188 53.81816482543945 312.9992980957031 53.81449890136719 L 312.9992980957031 60.82483291625977 C 312.9194030761719 60.82149887084961 312.8325500488281 60.81929016113281 312.7401123046875 60.81929016113281 C 309.4315490722656 60.81929016113281 306.7398376464844 63.5109977722168 306.7398376464844 66.819580078125 C 306.7398376464844 70.12820434570312 309.4315490722656 72.81991577148438 312.7401123046875 72.81991577148438 C 312.8262023925781 72.81991577148438 312.9134216308594 72.81808471679688 312.9992980957031 72.81437683105469 L 312.9992980957031 79.82474517822266 C 312.9197387695312 79.82141876220703 312.8329467773438 79.81925201416016 312.7401123046875 79.81925201416016 C 309.4315490722656 79.81925201416016 306.7398376464844 82.51091766357422 306.7398376464844 85.81949615478516 C 306.7398376464844 89.12808227539062 309.4315490722656 91.81983184814453 312.7401123046875 91.81983184814453 C 312.8255920410156 91.81983184814453 312.9127807617188 91.81795501708984 312.9992980957031 91.81429290771484 L 312.9992980957031 94.99854278564453 L 312.9992980957031 94.99954223632812 Z"/></g></g><path class="d" d="M4.3.212,3.519,1.8l-1.749.255a.383.383,0,0,0-.212.654L2.823,3.939l-.3,1.742a.383.383,0,0,0,.556.4l1.565-.823,1.565.823a.383.383,0,0,0,.556-.4l-.3-1.742L7.731,2.706a.383.383,0,0,0-.212-.654L5.77,1.8,4.988.212a.383.383,0,0,0-.687,0Z" transform="translate(3.559 5)"/><path class="d" d="M4.3.212,3.519,1.8l-1.749.255a.383.383,0,0,0-.212.654L2.823,3.939l-.3,1.742a.383.383,0,0,0,.556.4l1.565-.823,1.565.823a.383.383,0,0,0,.556-.4l-.3-1.742L7.731,2.706a.383.383,0,0,0-.212-.654L5.77,1.8,4.988.212a.383.383,0,0,0-.687,0Z" transform="translate(3.559 84)"/><path class="d" d="M4.3.212,3.519,1.8l-1.749.255a.383.383,0,0,0-.212.654L2.823,3.939l-.3,1.742a.383.383,0,0,0,.556.4l1.565-.823,1.565.823a.383.383,0,0,0,.556-.4l-.3-1.742L7.731,2.706a.383.383,0,0,0-.212-.654L5.77,1.8,4.988.212a.383.383,0,0,0-.687,0Z" transform="translate(291.559 5)"/><path class="d" d="M4.3.212,3.519,1.8l-1.749.255a.383.383,0,0,0-.212.654L2.823,3.939l-.3,1.742a.383.383,0,0,0,.556.4l1.565-.823,1.565.823a.383.383,0,0,0,.556-.4l-.3-1.742L7.731,2.706a.383.383,0,0,0-.212-.654L5.77,1.8,4.988.212a.383.383,0,0,0-.687,0Z" transform="translate(291.559 84)"/></g><g class="e" transform="translate(6 3.001)"><path class="f" d="M 278.7298889160156 79.50083923339844 L 8.270229339599609 79.50009918212891 C 8.278814315795898 79.36382293701172 8.283132553100586 79.22724914550781 8.283132553100586 79.09109497070312 C 8.283132553100586 75.30638122558594 5.003704071044922 72.22731018066406 0.972739577293396 72.22731018066406 C 0.8156333565711975 72.22731018066406 0.6577296257019043 72.23210906982422 0.4999895989894867 72.24164581298828 L 0.4999895989894867 6.919867515563965 C 0.6603440046310425 6.93109130859375 0.821722686290741 6.936737060546875 0.9832395911216736 6.936737060546875 C 4.510632514953613 6.936737060546875 7.380382537841797 4.237451553344727 7.380382537841797 0.9195943474769592 C 7.380382537841797 0.7802143096923828 7.37518310546875 0.6401163339614868 7.364843845367432 0.49998739361763 L 278.8517150878906 0.5000584721565247 C 278.7621459960938 0.9323667883872986 278.7169494628906 1.373481631278992 278.7169494628906 1.817951560020447 C 278.7169494628906 5.602701663970947 281.9960021972656 8.681844711303711 286.0264587402344 8.681844711303711 C 286.1842346191406 8.681844711303711 286.3424072265625 8.677062034606934 286.5001220703125 8.667556762695312 L 286.5001220703125 72.24153137207031 C 286.3425903320312 72.23207092285156 286.1843872070312 72.22731018066406 286.0264587402344 72.22731018066406 C 281.9960021972656 72.22731018066406 278.7169494628906 75.30638122558594 278.7169494628906 79.09109497070312 C 278.7169494628906 79.22750854492188 278.7212829589844 79.36431884765625 278.7298889160156 79.50083923339844 Z"/><path class="g" d="M 278.217529296875 79.00083923339844 C 278.2690734863281 74.99016571044922 281.7379150390625 71.74052429199219 286.0001220703125 71.72734832763672 L 286.0001220703125 9.181802749633789 C 281.7058715820312 9.168532371520996 278.2169494628906 5.870237350463867 278.2169494628906 1.817951560020447 C 278.2169494628906 1.543764233589172 278.23291015625 1.270782351493835 278.2647094726562 1.00005829334259 L 7.87986421585083 0.9999875426292419 C 7.834327697753906 4.551523208618164 4.767142772674561 7.428232669830322 0.9999896287918091 7.436716556549072 L 0.9999896287918091 71.72735595703125 C 5.261726856231689 71.74131774902344 8.730594635009766 74.99025726318359 8.782543182373047 79.00009918212891 L 278.217529296875 79.00083923339844 M 279.2861022949219 80.00084686279297 L 7.713953971862793 80.00009155273438 C 7.759525299072266 79.702880859375 7.783132553100586 79.39730834960938 7.783132553100586 79.09109497070312 C 7.783132553100586 75.58202362060547 4.727953910827637 72.72731018066406 0.972739577293396 72.72731018066406 C 0.6493110060691833 72.72731018066406 0.3220610320568085 72.7490234375 -1.039341532305116e-05 72.79198455810547 L -1.039341532305116e-05 6.36055850982666 C 0.3186681866645813 6.410772800445557 0.6490967273712158 6.436737060546875 0.9832395911216736 6.436737060546875 C 4.234953880310059 6.436737060546875 6.880382537841797 3.961665868759155 6.880382537841797 0.9195943474769592 C 6.880382537841797 0.614022970199585 6.852953910827637 0.304558664560318 6.798954010009766 -1.276942657568725e-05 L 279.4989929199219 5.865914499736391e-05 C 279.3121643066406 0.586451530456543 279.2169494628906 1.197737216949463 279.2169494628906 1.817951560020447 C 279.2169494628906 5.327023029327393 282.2716979980469 8.181844711303711 286.0264587402344 8.181844711303711 C 286.3519287109375 8.181844711303711 286.6795043945312 8.160130500793457 287.0001220703125 8.117201805114746 L 287.0001220703125 72.79187774658203 C 286.6821594238281 72.74923706054688 286.3549499511719 72.72731018066406 286.0264587402344 72.72731018066406 C 282.2716979980469 72.72731018066406 279.2169494628906 75.58202362060547 279.2169494628906 79.09109497070312 C 279.2169494628906 79.39505767822266 279.2402038574219 79.7008056640625 279.2859191894531 79.99974060058594 L 279.2861022949219 80.00084686279297 Z"/></g></g></g></svg>