<svg xmlns="http://www.w3.org/2000/svg" xmlns:xlink="http://www.w3.org/1999/xlink" width="14" height="11" viewBox="0 0 14 11"><defs><style>.a{fill:none;stroke:#707070;}.b{clip-path:url(#a);}.c{fill:#e4e2d9;}.d,.g{fill:#6c655d;}.e{fill:#fdfcf8;}.f,.g{stroke:none;}.h{filter:url(#b);}</style><clipPath id="a"><rect class="a" width="14" height="11" transform="translate(289 5)"/></clipPath><filter id="b" x="-292.5" y="-7.5" width="321.999" height="104" filterUnits="userSpaceOnUse"><feOffset dx="1" dy="2" input="SourceAlpha"/><feGaussianBlur stdDeviation="1.5" result="c"/><feFlood flood-color="#6c655d" flood-opacity="0.6"/><feComposite operator="in" in2="c"/><feComposite in="SourceGraphic"/></filter></defs><g class="b" transform="translate(-289 -5)"><g transform="translate(5 4.999)"><g transform="translate(-5 -4.999)"><g class="h" transform="matrix(1, 0, 0, 1, 289, 5)"><g class="c" transform="translate(-289 -5)"><path class="f" d="M 312.499267578125 94.49955749511719 L 0.5000104308128357 94.49955749511719 L 0.5000104308128357 0.5016618371009827 L 312.4992980957031 1.49835193157196 L 312.4992980957031 3.324038028717041 C 309.0262756347656 3.451313495635986 306.2398071289062 6.316360950469971 306.2398071289062 9.819905281066895 C 306.2398071289062 13.32299900054932 309.0262756347656 16.18766975402832 312.499267578125 16.31492805480957 L 312.499267578125 22.32392311096191 C 309.0262756347656 22.45119857788086 306.2398071289062 25.31624603271484 306.2398071289062 28.81978988647461 C 306.2398071289062 32.32288360595703 309.0262756347656 35.18759155273438 312.499267578125 35.31484985351562 L 312.499267578125 41.32376861572266 C 309.0262756347656 41.45104598999023 306.2398071289062 44.31613159179688 306.2398071289062 47.8197135925293 C 306.2398071289062 51.32325744628906 309.0262756347656 54.1883430480957 312.499267578125 54.31562042236328 L 312.499267578125 60.32373046875 C 309.0262756347656 60.45100402832031 306.2398071289062 63.31605529785156 306.2398071289062 66.81959533691406 C 306.2398071289062 70.32314300537109 309.0262756347656 73.18822479248047 312.499267578125 73.31550598144531 L 312.499267578125 79.32361602783203 C 309.0262756347656 79.45088958740234 306.2398071289062 82.31597900390625 306.2398071289062 85.81951904296875 C 306.2398071289062 89.32306671142578 309.0262756347656 92.18814849853516 312.499267578125 92.3154296875 L 312.499267578125 94.49955749511719 Z"/><path class="g" d="M 311.9992980957031 93.99954223632812 L 311.9992980957031 92.78090667724609 C 308.4862976074219 92.40969848632812 305.7398376464844 89.42929840087891 305.7398376464844 85.81949615478516 C 305.7398376464844 82.20973968505859 308.4862976074219 79.2293701171875 311.9992980957031 78.85816955566406 L 311.9992980957031 73.78099060058594 C 308.4862976074219 73.40978240966797 305.7398376464844 70.42938232421875 305.7398376464844 66.819580078125 C 305.7398376464844 63.20982360839844 308.4862976074219 60.22941970825195 311.9992980957031 59.85821151733398 L 311.9992980957031 54.78107833862305 C 308.4862976074219 54.40986633300781 305.7398376464844 51.42946624755859 305.7398376464844 47.81970596313477 C 305.7398376464844 44.20991134643555 308.4862976074219 41.2295036315918 311.9992980957031 40.85829544067383 L 311.9992980957031 35.78033065795898 C 308.4862976074219 35.4091682434082 305.7398376464844 32.42911911010742 305.7398376464844 28.81978988647461 C 305.7398376464844 25.21003150939941 308.4862976074219 22.22962951660156 311.9992980957031 21.85842132568359 L 311.9992980957031 16.78037452697754 C 308.4862976074219 16.40921401977539 305.7398376464844 13.42920303344727 305.7398376464844 9.819873809814453 C 305.7398376464844 6.2101149559021 308.4862976074219 3.229747533798218 311.9992980957031 2.858543634414673 L 311.9993286132812 1.996730923652649 L 1.000039339065552 1.003244996070862 L 1.000039339065552 93.99954223632812 L 311.9992980957031 93.99954223632812 M 312.9993286132812 94.99954223632812 L 312.9992980957031 94.99954223632812 L 312.998291015625 94.99954223632812 L 312.9992980957031 94.99954223632812 L 312.9993286132812 94.99954223632812 Z M 312.9993286132812 94.99954223632812 L 3.93066402466502e-05 94.99954223632812 L 3.93066402466502e-05 4.019165135105141e-05 L 312.9993286132812 0.9999151825904846 L 312.9992980957031 3.825165271759033 C 312.9194030761719 3.821831941604614 312.8325500488281 3.819623470306396 312.7401123046875 3.819623470306396 C 309.4315490722656 3.819623470306396 306.7398376464844 6.511332035064697 306.7398376464844 9.819873809814453 C 306.7398376464844 13.12795639038086 309.4315490722656 15.81929016113281 312.7401123046875 15.81929016113281 C 312.8255920410156 15.81929016113281 312.9127807617188 15.81745719909668 312.9992980957031 15.8137903213501 L 312.9992980957031 22.82504081726074 C 312.9194030761719 22.82170677185059 312.8325500488281 22.81949806213379 312.7401123046875 22.81949806213379 C 309.4315490722656 22.81949806213379 306.7398376464844 25.51120758056641 306.7398376464844 28.81978988647461 C 306.7398376464844 32.12787246704102 309.4315490722656 34.81924819946289 312.7401123046875 34.81924819946289 C 312.8265075683594 34.81924819946289 312.9136657714844 34.81733322143555 312.9992980957031 34.81366348266602 L 312.9992980957031 41.82487487792969 C 312.9197387695312 41.82158279418945 312.8329467773438 41.81937408447266 312.7401123046875 41.81937408447266 C 309.4315490722656 41.81937408447266 306.7398376464844 44.51112365722656 306.7398376464844 47.81970596313477 C 306.7398376464844 51.12829208374023 309.4315490722656 53.81999969482422 312.7401123046875 53.81999969482422 C 312.8255920410156 53.81999969482422 312.9127807617188 53.81816482543945 312.9992980957031 53.81449890136719 L 312.9992980957031 60.82483291625977 C 312.9194030761719 60.82149887084961 312.8325500488281 60.81929016113281 312.7401123046875 60.81929016113281 C 309.4315490722656 60.81929016113281 306.7398376464844 63.5109977722168 306.7398376464844 66.819580078125 C 306.7398376464844 70.12820434570312 309.4315490722656 72.81991577148438 312.7401123046875 72.81991577148438 C 312.8262023925781 72.81991577148438 312.9134216308594 72.81808471679688 312.9992980957031 72.81437683105469 L 312.9992980957031 79.82474517822266 C 312.9197387695312 79.82141876220703 312.8329467773438 79.81925201416016 312.7401123046875 79.81925201416016 C 309.4315490722656 79.81925201416016 306.7398376464844 82.51091766357422 306.7398376464844 85.81949615478516 C 306.7398376464844 89.12808227539062 309.4315490722656 91.81983184814453 312.7401123046875 91.81983184814453 C 312.8255920410156 91.81983184814453 312.9127807617188 91.81795501708984 312.9992980957031 91.81429290771484 L 312.9992980957031 94.99854278564453 L 312.9992980957031 94.99954223632812 Z"/></g></g><path class="d" d="M4.3.212,3.519,1.8l-1.749.255a.383.383,0,0,0-.212.654L2.823,3.939l-.3,1.742a.383.383,0,0,0,.556.4l1.565-.823,1.565.823a.383.383,0,0,0,.556-.4l-.3-1.742L7.731,2.706a.383.383,0,0,0-.212-.654L5.77,1.8,4.988.212a.383.383,0,0,0-.687,0Z" transform="translate(3.559 5)"/><path class="d" d="M4.3.212,3.519,1.8l-1.749.255a.383.383,0,0,0-.212.654L2.823,3.939l-.3,1.742a.383.383,0,0,0,.556.4l1.565-.823,1.565.823a.383.383,0,0,0,.556-.4l-.3-1.742L7.731,2.706a.383.383,0,0,0-.212-.654L5.77,1.8,4.988.212a.383.383,0,0,0-.687,0Z" transform="translate(3.559 84)"/><path class="d" d="M4.3.212,3.519,1.8l-1.749.255a.383.383,0,0,0-.212.654L2.823,3.939l-.3,1.742a.383.383,0,0,0,.556.4l1.565-.823,1.565.823a.383.383,0,0,0,.556-.4l-.3-1.742L7.731,2.706a.383.383,0,0,0-.212-.654L5.77,1.8,4.988.212a.383.383,0,0,0-.687,0Z" transform="translate(293.559 5)"/><path class="d" d="M4.3.212,3.519,1.8l-1.749.255a.383.383,0,0,0-.212.654L2.823,3.939l-.3,1.742a.383.383,0,0,0,.556.4l1.565-.823,1.565.823a.383.383,0,0,0,.556-.4l-.3-1.742L7.731,2.706a.383.383,0,0,0-.212-.654L5.77,1.8,4.988.212a.383.383,0,0,0-.687,0Z" transform="translate(291.559 84)"/></g><g class="e" transform="translate(6 3.001)"><path class="f" d="M 278.7298583984375 79.50100708007812 L 8.269524574279785 79.50011444091797 C 8.278024673461914 79.36380004882812 8.282297134399414 79.22724151611328 8.282297134399414 79.09111785888672 C 8.282297134399414 75.30636596679688 5.00294017791748 72.22721862792969 0.9720470905303955 72.22721862792969 C 0.8143067359924316 72.22721862792969 0.656358540058136 72.23198699951172 0.499118834733963 72.24144744873047 L 0.4991539418697357 6.919636726379395 C 0.6605734825134277 6.931071758270264 0.8221312761306763 6.93682861328125 0.9828327894210815 6.93682861328125 C 4.510011196136475 6.93682861328125 7.37958288192749 4.237614631652832 7.37958288192749 0.9198287725448608 C 7.37958288192749 0.779402494430542 7.374505996704102 0.6392495632171631 7.364415168762207 0.5000073313713074 L 278.7357482910156 0.5000073313713074 C 278.7232360839844 0.6539803743362427 278.7169494628906 0.8085946440696716 278.7169494628906 0.9630073308944702 C 278.7169494628906 4.276328563690186 281.5857238769531 6.971935749053955 285.1119384765625 6.971935749053955 C 285.5818481445312 6.971935749053955 286.0465087890625 6.924293994903564 286.5001220703125 6.829896450042725 L 286.5001220703125 72.24144744873047 C 286.3426208496094 72.23198699951172 286.1847229003906 72.22721862792969 286.0272216796875 72.22721862792969 C 281.996337890625 72.22721862792969 278.7169494628906 75.30636596679688 278.7169494628906 79.09111785888672 C 278.7169494628906 79.22763061523438 278.7212524414062 79.36447143554688 278.7298583984375 79.50100708007812 Z"/><path class="g" d="M 278.217529296875 79.00100708007812 C 278.2686462402344 74.99016571044922 281.7375793457031 71.74083709716797 286.0001220703125 71.72726440429688 L 286.0001220703125 7.418380737304688 C 285.7068481445312 7.454016208648682 285.4103393554688 7.471935749053955 285.1119384765625 7.471935749053955 C 281.322998046875 7.471935749053955 278.2380981445312 4.57219123840332 278.217041015625 1.000007390975952 L 7.879066944122314 1.000007390975952 C 7.833530426025391 4.551691055297852 4.766412734985352 7.428678035736084 0.9991536736488342 7.436809062957764 L 0.9991191029548645 71.72726440429688 C 5.261110782623291 71.74083709716797 8.729756355285645 74.98995971679688 8.781707763671875 79.00011444091797 L 278.217529296875 79.00100708007812 M 279.2860412597656 80.00100708007812 L 279.2860107421875 80.00100708007812 L 7.71390438079834 80.00011444091797 C 7.758939743041992 79.70282745361328 7.782297134399414 79.39736175537109 7.782297134399414 79.09111785888672 C 7.782297134399414 75.58204650878906 4.727225780487061 72.72721862792969 0.9720470905303955 72.72721862792969 C 0.6454399824142456 72.72721862792969 0.318118542432785 72.74900817871094 -0.0008814697503112257 72.79196929931641 L -0.0008457554504275322 6.360328674316406 C 0.3225471079349518 6.410757541656494 0.6531185507774353 6.43682861328125 0.9828327894210815 6.43682861328125 C 4.234297275543213 6.43682861328125 6.87958288192749 3.961900234222412 6.87958288192749 0.9198287725448608 C 6.87958288192749 0.6086859107017517 6.852368354797363 0.2992216348648071 6.798654079437256 7.354736226261593e-06 L 279.3067016601562 7.354736226261593e-06 C 279.2474670410156 0.3140430748462677 279.2169494628906 0.637650191783905 279.2169494628906 0.9630073308944702 C 279.2169494628906 4.000650405883789 281.8614501953125 6.471935749053955 285.1119384765625 6.471935749053955 C 285.7582702636719 6.471935749053955 286.3935241699219 6.37479305267334 287.0001220703125 6.183150291442871 L 287.0001220703125 72.79168701171875 C 286.6825256347656 72.74925994873047 286.3555603027344 72.72721862792969 286.0272216796875 72.72721862792969 C 282.2720031738281 72.72721862792969 279.2169494628906 75.58204650878906 279.2169494628906 79.09111785888672 C 279.2169494628906 79.39500427246094 279.2401123046875 79.70075988769531 279.2858581542969 79.99986267089844 L 279.2860412597656 80.00100708007812 Z"/></g></g></g></svg>