<svg xmlns="http://www.w3.org/2000/svg" width="14" height="11"><defs><clipPath id="a"><path transform="translate(289 79)" fill="none" stroke="#707070" d="M0 0h14v11H0z"/></clipPath><filter id="b" x="-292.5" y="-81.5" width="321.999" height="104" filterUnits="userSpaceOnUse"><feOffset dx="1" dy="2"/><feGaussianBlur stdDeviation="1.5" result="c"/><feFlood flood-color="#6c655d" flood-opacity=".6"/><feComposite operator="in" in2="c"/><feComposite in="SourceGraphic"/></filter><style>.d,.g{fill:#6c655d}.f,.g{stroke:none}</style></defs><g transform="translate(-289 -79)" clip-path="url(#a)"><g transform="translate(289 79)" filter="url(#b)"><g fill="#e4e2d9"><path class="f" d="M23.49926758 15.4995575h-311.99925715v-93.99789566l311.99928767.9966901v1.82568609c-3.47302247.12727547-6.25949097 2.99232292-6.25949097 6.49586725 0 3.50309372 2.7864685 6.36776447 6.25946045 6.49502277v6.00899506c-3.47299195.12727547-6.25946045 2.99232292-6.25946045 6.49586678 0 3.50309372 2.7864685 6.36780166 6.25946045 6.49505996v6.00891877c-3.47299195.12727737-6.25946045 2.99236297-6.25946045 6.49594497 0 3.50354386 2.7864685 6.36862946 6.25946045 6.49590683v6.00811005c-3.47299195.12727356-6.25946045 2.99232483-6.25946045 6.49586487 0 3.50354767 2.7864685 6.36862945 6.25946045 6.49591064V.32361603c-3.47299195.12727356-6.25946045 2.99236297-6.25946045 6.49590301 0 3.50354767 2.7864685 6.36862946 6.25946045 6.49591065v2.1841278z"/><path class="g" d="M22.9992981 14.99954224v-1.21863556c-3.5130005-.3712082-6.25946045-3.35160828-6.25946045-6.96141053 0-3.60975646 2.74645996-6.59012603 6.25946045-6.9613266V-5.2190094c-3.5130005-.37120819-6.25946045-3.35160828-6.25946045-6.96141052 0-3.60975647 2.74645996-6.59016037 6.25946045-6.96136856v-5.07713318c-3.5130005-.371212-6.25946045-3.3516121-6.25946045-6.96137238 0-3.60979461 2.74645996-6.59020233 6.25946045-6.96141052v-5.07796478c-3.5130005-.37116242-6.25946045-3.35121155-6.25946045-6.96054077 0-3.60975838 2.74645996-6.59016037 6.25946045-6.96136856v-5.0780468c-3.5130005-.37116051-6.25946045-3.3511715-6.25946045-6.96050072 0-3.60975885 2.74645996-6.59012628 6.25946045-6.96133018l.00003051-.8618127-310.99928927-.99348593v92.99629724H22.9992981m1.00003051 1H23.99829102 23.9993286zm0 0h-312.9992893v-94.99950205l312.9992893.999875-.00003051 2.82525008c-.07989502-.00333333-.16674805-.0055418-.2591858-.0055418-3.30856323 0-6.00027465 2.69170857-6.00027465 6.00025034 0 3.30808258 2.69171142 5.99941635 6.00027465 5.99941635.08547974 0 .17266846-.00183296.2591858-.00549984v7.0112505c-.07989502-.00333405-.16674805-.00554276-.2591858-.00554276-3.30856323 0-6.00027465 2.69170952-6.00027465 6.00029183 0 3.30808258 2.69171142 5.9994583 6.00027465 5.9994583.08639527 0 .17355347-.00191497.2591858-.0055847v7.01121139c-.07955933-.00329209-.16635132-.0055008-.2591858-.0055008-3.30856323 0-6.00027465 2.69174958-6.00027465 6.00033188 0 3.30858612 2.69171142 6.00029373 6.00027465 6.00029373.08547974 0 .17266846-.00183486.2591858-.00550079v7.01033402c-.07989502-.00333405-.16674805-.00554276-.2591858-.00554276-3.30856323 0-6.00027465 2.69170761-6.00027465 6.00028992 0 3.30862427 2.69171142 6.0003357 6.00027465 6.0003357.0860901 0 .17330933-.00183106.2591858-.00553895V.82474518C23.91973877.82141876 23.83294678.819252 23.7401123.819252c-3.30856323 0-6.00027465 2.69166565-6.00027465 6.00024414 0 3.30858613 2.69171142 6.0003357 6.00027465 6.0003357.08547974 0 .17266846-.00187683.2591858-.00553894v3.18524933z"/></g></g><path class="d" d="M7.859 5.212L7.078 6.8l-1.749.255a.383.383 0 00-.212.654l1.265 1.23-.3 1.742a.383.383 0 00.556.4l1.565-.823 1.565.823a.383.383 0 00.556-.4l-.3-1.742 1.266-1.233a.383.383 0 00-.212-.654L9.329 6.8l-.782-1.588a.383.383 0 00-.687 0zM7.859 84.212L7.078 85.8l-1.749.255a.383.383 0 00-.212.654l1.265 1.23-.3 1.742a.383.383 0 00.556.4l1.565-.823 1.565.823a.383.383 0 00.556-.4l-.3-1.742 1.266-1.233a.383.383 0 00-.212-.654L9.329 85.8l-.782-1.588a.383.383 0 00-.687 0zM295.859 5.212l-.781 1.588-1.749.255a.383.383 0 00-.212.654l1.265 1.23-.3 1.742a.383.383 0 00.556.4l1.565-.823 1.565.823a.383.383 0 00.556-.4l-.3-1.742 1.266-1.233a.383.383 0 00-.212-.654l-1.749-.252-.782-1.588a.383.383 0 00-.687 0zM297.859 83.212l-.781 1.588-1.749.255a.383.383 0 00-.212.654l1.265 1.23-.3 1.742a.383.383 0 00.556.4l1.565-.823 1.565.823a.383.383 0 00.556-.4l-.3-1.742 1.266-1.233a.383.383 0 00-.212-.654l-1.749-.252-.782-1.588a.383.383 0 00-.687 0z"/><g fill="#fdfcf8"><path class="f" d="M290.85876465 87.50102997l-271.5892191-.00089264c.0085144-.13636017.01279736-.27293396.01279736-.40903473 0-3.78478241-3.27939272-6.86392975-7.31032115-6.86392975-.15764773 0-.31559247.00476837-.47289282.01424408V14.91725636c3.28551233-.2489624 5.880607-2.84709073 5.880607-5.99740333 0-.14098865-.00507068-.28116327-.01515054-.41985711h272.48706865c-.08950805.43231675-.13470459.87349477-.13470459 1.31803575 0 3.78471434 3.27938843 6.86382162 7.31027222 6.86382162.15731811 0 .31497192-.00474071.47210693-.01415634l.0007019 63.57046223c-.12933349-.00730896-.25891113-.01098633-.38818359-.01098633-3.52624511 0-6.39505005 2.69561005-6.39505005 6.00896454 0 .42792511.04760743.85119629.14196778 1.26489258z"/><path class="g" d="M290.26394653 87.00102997c-.03137207-.25281525-.04714965-.50811005-.04714965-.76489258 0-3.55380249 3.0326538-6.4515152 6.78320312-6.50811768l-.00067139-62.5462141c-4.29397583-.01407242-7.78237915-3.31201935-7.78237915-7.36377394 0-.27422798.0159607-.54729557.0477295-.81803578H17.87921953c-.04138517 3.22732955-2.58572674 5.902726-5.8800906 6.3659032v64.36131954c4.26206196.01356506 7.73067416 3.26273346 7.78262556 7.27292633l270.48219204.000885m1.2619629 1l-272.81199456-.00089263c.04507113-.29760742.06842852-.60307312.06842852-.90903473 0-3.50907135-3.05510712-6.36392975-6.81032163-6.36392975-.32639283 0-.65371427.02182007-.97289284.06478882V14.43678141c3.2430357-.00899983 5.88060703-2.48342824 5.88060703-5.51692838 0-.31446427-.02753544-.62399998-.08189297-.91985712h273.70102787c-.18673706.58635715-.28192139 1.19757143-.28192139 1.81803576 0 3.5090357 3.05508423 6.36382162 6.81027222 6.36382162.32550049 0 .65252686-.02164268.97207642-.06435775l.00073242 64.67185688c-.28967285-.04089356-.58810425-.06217957-.8881836-.06217957-3.25054931 0-5.89505005 2.4713211-5.89505005 5.50896454 0 .60360718.1038208 1.19692993.30859376 1.76353455l.0005188.00135803z"/></g></g></svg>