<svg xmlns="http://www.w3.org/2000/svg" xmlns:xlink="http://www.w3.org/1999/xlink" width="345.251" height="770" viewBox="0 0 345.251 770"><defs><clipPath id="a"><rect width="66" height="67" transform="translate(554 2558)" fill="#fff" stroke="#707070" stroke-width="1"/></clipPath><clipPath id="b"><rect width="25" height="29" transform="translate(616 2612)" fill="#fff" stroke="#707070" stroke-width="1"/></clipPath><clipPath id="c"><rect width="101.859" height="85.585" transform="translate(-19.406 4.838)" fill="none"/></clipPath><clipPath id="d"><rect width="39.444" height="45.755" transform="translate(616 2612)" fill="#fff" stroke="#707070" stroke-width="1"/></clipPath><clipPath id="e"><rect width="344" height="770" rx="1" transform="translate(15 20)" fill="#fdfcf3" stroke="#928d82" stroke-width="2"/></clipPath><clipPath id="f"><rect width="243.605" height="147.216" fill="none"/></clipPath></defs><g transform="translate(-15 -20)"><g transform="translate(233.185 53.5)"><path d="M57.586,292.3c.478-1.187.34-4.675.34-4.675M15.672,326.155l1.814-.063m53.648,9.894c.866-1.616,1.408-6.245,1.408-6.245M50.573,338.1s-1.987,3.128-1.987,4.363M47.7,320.674c1.509-2.684,1.509-11.381,1.509-11.381m24.342,36.52-4.185-.213m-.29-2.01,4.4.359m-4.4-1.939,3.824.5M52.482,293.25l1.344-.869M55.742,306.3a21.836,21.836,0,0,0-4.431-11.965m-.272-2.556,2.188-1.136m-3.235-.566,2.472-1.136m45.413,46.112a7.547,7.547,0,0,1,4.38,1.052,98.774,98.774,0,0,0,9.241,4.911c2.762,1.172,5.072.407,4.983-1.351s-3.987-3.921-5.346-5.184a18.865,18.865,0,0,1-3.715-5.227,21.165,21.165,0,0,0-3.443-5.679,2.807,2.807,0,0,0-3.992-.414,3.921,3.921,0,0,0-.673.64,6.929,6.929,0,0,1-2.292,2.058m-4.637.871a10.9,10.9,0,0,0-3.776-.381m11.378-3.189a29.865,29.865,0,0,0-1.352-4.408c-.77-1.486-1.631-2.388-3.76-2.162s-2.719,1.667-4.032,2.162a7.692,7.692,0,0,1-2.683.577m.208,8.135c.064-.244.147-.6.241-1.115.079-.424.165-.958.257-1.621a13.97,13.97,0,0,0-.706-5.4c-.1-.31-.163-.491-.163-.491a42.521,42.521,0,0,1-4.3.345c-1.728.043-7.551.628-10.207.9m3.047,22.375h0c1.466-.554,3.092-1.222,4.058-1.642a75.125,75.125,0,0,1,9.5-2.746,13.7,13.7,0,0,1,6.459.221,6.047,6.047,0,0,0,1.324-3.24,28.931,28.931,0,0,0,.389-5.384,6.312,6.312,0,0,0-1.245-3.809.991.991,0,0,0-.3-.257.3.3,0,0,0-.107-.015,35.523,35.523,0,0,0-4.231,1.143c-.419.119-.808.226-1.131.3-.513.12-1.593.277-2.886.435-2.869.348-6.792.7-7.933.666-1.479-.051-6.754.427-8.8.412m-4.281,8.265c1.265-1.309,3.456-5.938,4.281-8.265.074-.214.14-.409.191-.577.307-1.031,1.029-4.467,1.669-7.882.623-3.313,1.174-6.606,1.2-7.663.053-2.142.44-10.324.053-14.059a19.2,19.2,0,0,0-3.146-9.447c-1.766-2.363-5.631-3.242-7.62-3.351a31.763,31.763,0,0,0-7.358.379,4.18,4.18,0,0,0-2.238,1.39h0m.427-.046a3.708,3.708,0,0,0-.424.046h0a4.652,4.652,0,0,0-1.479.5m1.621,3.829a24.4,24.4,0,0,0,.285-4.378,2.021,2.021,0,0,0-.038-.224m1.3,29.888c.158,1.71.158,4.045.158,5.552,0,2.223.31,7.1.31,9.264,0,.4.01.848.036,1.326a20.613,20.613,0,0,0,.671,4.528M53.77,321.777c.008.628.015,1.3.02,1.931.01,1.149.023,2.193.046,2.714a13.812,13.812,0,0,0,1.065,5.14,2.793,2.793,0,0,0,.427.6,4.811,4.811,0,0,0,1.25.932m-2.787-9.386c-.361-.081-.75-.173-1.123-.249h0m2.236,8.1a31.063,31.063,0,0,1-3.151.005c-1.535,0-4.736.782-7.549,1.194h0m48.475,10.021a2.965,2.965,0,0,0-.607.882m.534,3.74a1.358,1.358,0,0,0,1.039-.856,21.593,21.593,0,0,0,.983-2.571,12.56,12.56,0,0,0,.076-1.718c0-.518-.038-1.128-.5-1.128-.379,0-.584.516-.668,1m-4.6,6.266a13.571,13.571,0,0,0,2.637-.259A1.8,1.8,0,0,0,92.6,347.4a4.333,4.333,0,0,0,.407-.775,11.262,11.262,0,0,0,.744-2.5c.046-.432.32-1.748-.224-2.007a.508.508,0,0,0-.173-.043c-.3-.02-.516.29-.681.7a13.8,13.8,0,0,0-.46,1.819,2.406,2.406,0,0,1-.307.6m-4.744-.607c.49-.013,1.316-.03,1.819-.03.531,0,1.283,0,1.733-.041m-4.551-.75a9.246,9.246,0,0,0,1,.821,1.851,1.851,0,0,0,.389.208,12.131,12.131,0,0,0,2.145.353,4.277,4.277,0,0,0,.925-.231m1.141-1.751a1.089,1.089,0,0,0-.8-.584,28.272,28.272,0,0,0-3.532.079c-1.113.04-2.742-.592-3.814-.592a10.785,10.785,0,0,0-2.937.475c-.595.2-.714.2-2.223.079-.562-.046-1.243-.1-1.918-.173h0c-.714-.069-1.42-.147-1.974-.221m10.009,3a11.3,11.3,0,0,0-2.975-1.817m-6.858,4.1a10.2,10.2,0,0,0,3.27.572,41.133,41.133,0,0,1,4.487.163c1.408.107,3.468.379,4.381.5a5.5,5.5,0,0,0,2.05-.361,9.8,9.8,0,0,0,1.522-.625A3.853,3.853,0,0,0,91.88,345.4c.005-.061.015-.125.025-.193a7.322,7.322,0,0,0,.16-1.54c-.02-.244-.1-.427-.267-.48l-.038-.008c-.5-.1-.955.811-1.034,1.273,0,.025-.008.051-.013.077a3.6,3.6,0,0,1-.094.4,2.4,2.4,0,0,1-.805,1.22c-.673.554-3.019-.119-3.019-.119M16.968,323.652a5.992,5.992,0,0,0-.727-.323,18.414,18.414,0,0,0-3.938-.889,27.81,27.81,0,0,0-7.183.806,15.276,15.276,0,0,0-3.636,2.007c-1.077.76-2.289,3.263-2.828,3.977a16.467,16.467,0,0,0-1.7,5.493c0,1.25-.4,3.615-1.481,4.6a10.947,10.947,0,0,1-3.636,1.786,6.974,6.974,0,0,1-1.885.4,12.566,12.566,0,0,0,2.871.447c1.3,0,.315,1.026-.089,1.026a6.8,6.8,0,0,0-.762.046,7.211,7.211,0,0,0,3.321.448c1.931-.181,3.367-.269,3.232.177s-1.031.892-1.031.892a21.092,21.092,0,0,0,4.487-.8c1.212-.536,2.515-.582,3.458-1.026a4.259,4.259,0,0,0,1.339-1.029m35.92-7.915c.5-.307,1-.65,1.5-1.011h0a27.07,27.07,0,0,0,5.112-4.632c.661-.9,2.03-2.726,3.351-4.67h0c.376-.557.75-1.123,1.1-1.682a28.059,28.059,0,0,0,1.461-2.551,14.6,14.6,0,0,0,.844-2.274,44.6,44.6,0,0,0,1.392-8.349,52.588,52.588,0,0,0-1.011-9.406c-.269-1.385-1.161-4.894-1.931-7.531a18.9,18.9,0,0,0-1.1-3.179,5.41,5.41,0,0,0-.523-.651,1.589,1.589,0,0,0-.361-.307s-1.784.719-2.16.879a3.763,3.763,0,0,1-1.558.643,7.086,7.086,0,0,0-3.275,1.281c-.808.7-4.673,3.69-5.425,4.543a39.769,39.769,0,0,1-3.384,3.636c-1.237,1.067-3.008,3.847-4.083,4.22s-.968.91-.968,1.5-1.88,2.566-2.523,3.42-2.848,4.756-3.6,5.557-1.934,1.5-2.416,2.3-1.235,3.1-1.827,3.687c-.562.559-4.286,2.462-5.082,4.139M27.3,328.488a4.972,4.972,0,0,0-4.04,3.877m-6.337-8.982c.013.086.025.175.043.269.107.666.282,1.494.516,2.439.32,1.306.744,2.838,1.235,4.487a22.007,22.007,0,0,0,3.133,7.005v0a8.956,8.956,0,0,0,1.464,1.527c2.467,2.008,6.581,3.062,9.409,4.025s5.732,1.768,8.039,2.36,7.8,1.806,11.889,2.4a85.435,85.435,0,0,0,8.563.592c1.639.147,4.914-.74,5.735-.816s7.3.455,7.567.455c.119,0,.185-.229.221-.605.043-.454.043-1.125.043-1.877a14.6,14.6,0,0,0-.219-3.407c-.074-.237-.175-.4-.313-.447-.584-.211-4.988-.951-5.465-1.108a18.8,18.8,0,0,0-3.715-1.428,50.907,50.907,0,0,1-7.219-1.426c-.175-.066-.379-.134-.6-.208a58.837,58.837,0,0,0-8.044-1.9,28.854,28.854,0,0,1-6.51-1.946,11.264,11.264,0,0,1-1.187-.587c-1.326-.793-4.723-3.961-7.216-4.965m-17.423-1.169-1.578-.457-.02-.005.005,0a.079.079,0,0,0,.015,0c.066.015.267.02.381-.44a2.584,2.584,0,0,0,.061-.4c.084-1-3.074-2.01-4.126-2.01s-1.857,1.092-1.517,1.717c.333.6,2.477,1.537,2.477,1.537s-2.7.569-3.212.762-1.062,1.3-1.8,2.363a2.958,2.958,0,0,0-.785,2.053c0,1,.526,2.4.307,3.138a7.209,7.209,0,0,0-1.667-2.528s.526,1.875,1.1,3.531a9.963,9.963,0,0,1-.02,5.321,1.432,1.432,0,0,1-.152.3m15.52-4.353a2.808,2.808,0,0,1-.4,1.657c-.508.948-4.317,2.525-7.236,2.779a33.577,33.577,0,0,1-7.445-.335c-.1-.018-.2-.033-.287-.051" transform="translate(10.331 -285.236)" fill="none" stroke="#b3b0a7" stroke-linecap="round" stroke-linejoin="round" stroke-width="0.5"/><path d="M60.9,473.029l.1-2.257m.032,6.812-.065,1.58" transform="translate(-41.51 -423.522)" fill="none" stroke="#b3b0a7" stroke-linecap="round" stroke-linejoin="round" stroke-width="1"/><path d="M70.152,472.394c0,.5-.253.9-.566.9s-.565-.4-.565-.9.253-.9.565-.9.566.4.566.9Z" transform="translate(-48.525 -423.966)" fill="#b3b0a7" stroke="rgba(0,0,0,0)" stroke-width="1"/><path d="M69.774,497.644c0,.5-.253.9-.565.9s-.566-.4-.566-.9.253-.9.566-.9.565.4.565.9Z" transform="translate(-48.243 -442.852)" fill="#b3b0a7" stroke="rgba(0,0,0,0)" stroke-width="1"/><path d="M81.373,490.894s.685.852,1.4.852a.73.73,0,0,0,.788-.614m2.675.135s-.392-1.417.325-1.845.682.607.574,1.249-.9.6-.9.6Z" transform="translate(-57.871 -437.329)" fill="none" stroke="#b3b0a7" stroke-linecap="round" stroke-linejoin="round" stroke-width="0.5"/></g><g transform="translate(-104 25)"><path d="M28.852,102.426a14.054,14.054,0,0,0,1.462.4m1.9.9c.078.387.387.827.543.852m-1.162-.671a1.938,1.938,0,0,0,.232-.774m2.285-.231a3.326,3.326,0,0,0-1.274.432h0l-.131.067m2.856.229c-.4-.007-.8,0-1.185,0h0c-.537.012-1.02.032-1.342.049m-1.936-.1a5.289,5.289,0,0,0-1.946-.009m4.4.723a1,1,0,0,0-.275-.413,3.008,3.008,0,0,0-.244-.2,2.976,2.976,0,0,1-.317-.273l-.009-.009c-.024-.025-.046-.05-.068-.075-.085-.1-.163-.2-.256-.287a1.032,1.032,0,0,0-.1-.084,1.518,1.518,0,0,0-.45-.183c-.129-.037-.293-.065-.378.04,0,0-.005.007-.008.011a.458.458,0,0,0-.054.2.947.947,0,0,1-.293.56l-.007.007c-.092.084-.2.149-.286.24a.529.529,0,0,0-.063.087l0,0a.312.312,0,0,0-.037.252.3.3,0,0,0,.069.11h0a.738.738,0,0,0,.117.1,3.92,3.92,0,0,0,2.191.709.708.708,0,0,0,.5-.561.571.571,0,0,0-.028-.229m0,0a.723.723,0,0,0,.227-.009,2.586,2.586,0,0,0,.332-.126,2.216,2.216,0,0,1,1.255.109,5.514,5.514,0,0,0,1.589.153h0c.078,0,.154-.009.23-.016.2-.019.47-.152.4-.34-.061-.158-.342-.206-.312-.372.017-.1.135-.137.232-.155l.943-.186c-.148-.561-.85-.777-1.428-.718a8.4,8.4,0,0,1-1.721.232,2.218,2.218,0,0,1,.534-.253c.179-.084.354-.249.332-.445-.033-.3-.443-.362-.743-.322a6.932,6.932,0,0,0-3.037,1.188m-.939-.217a7.366,7.366,0,0,0-3.16-.768.5.5,0,0,0-.347.086c-.175.158-.05.463.147.6a6.5,6.5,0,0,1,.623.33,5.3,5.3,0,0,1-1.9.142,2.539,2.539,0,0,0-1.251.453.5.5,0,0,0-.221.271c-.058.265.274.438.543.471a8.116,8.116,0,0,0,1.917-.146,11.982,11.982,0,0,1,2.025-.037c.318.016.634.039.95.064m-1.2.856s-1.475.666-1.617,1.278m13.318.86c-.3-.454-3.89-1.993-3.89-1.993m.348,12.552c.2-4.1-3.775-11.345-3.775-11.345m6.731,5.191a13.384,13.384,0,0,0-6.829-6.74m12.793,17.293a10.773,10.773,0,0,0,.614-2.864M31.7,104.9a9.287,9.287,0,0,0-2.187,4.357c-.522,2.665-.832,5.913-.832,5.913M18.341,128.849a10.3,10.3,0,0,0,4.272,2.317m-1.854-6.856a5.063,5.063,0,0,0,2.073,1.99m-3.07-6.02s2.413,5.664,5.41,6.923m24.27,2.84a28.956,28.956,0,0,0,.565-4.986m-6.146,3.7c3.378-.793,4.613-2.4,4.613-2.4M36.956,104.43c3.5.978,8.622,2.793,10.625,12.665a37.177,37.177,0,0,0,2.427,7.961c1.812,4.027,3.159,4.211,1.36,5.7-2.588,2.137-7.193,2.411-11.44,2.219s-8.274.353-13.092.7a71.67,71.67,0,0,1-11.175-.494.916.916,0,0,1-.706-1.346c.573-1.065,1.406-2.634,1.97-3.792.937-1.923,2.046-10.534,4.678-16.528,2.337-5.322,5.715-6.515,8.218-7.291" transform="translate(180.197 -86.703) rotate(-8)" fill="none" stroke="#b3b0a7" stroke-linecap="round" stroke-linejoin="round" stroke-width="0.5"/><path d="M37.968,102.806a23.2,23.2,0,0,0,2.414.666m3.137,1.486c.128.639.639,1.365.9,1.407M42.5,105.256a3.2,3.2,0,0,0,.384-1.278m3.772-.381a5.491,5.491,0,0,0-2.1.713h0c-.089.044-.164.084-.216.111m4.715.377c-.654-.011-1.326-.006-1.956.007h0c-.886.02-1.684.053-2.216.08m-3.2-.16a8.731,8.731,0,0,0-3.213-.015m7.265,1.193a1.647,1.647,0,0,0-.454-.682,4.962,4.962,0,0,0-.4-.336,4.912,4.912,0,0,1-.523-.45l-.015-.015c-.039-.041-.077-.083-.112-.125-.141-.161-.269-.331-.422-.474a1.7,1.7,0,0,0-.17-.139,2.506,2.506,0,0,0-.743-.3c-.213-.062-.484-.107-.624.065,0,.006-.009.011-.013.018a.757.757,0,0,0-.09.337,1.564,1.564,0,0,1-.484.924l-.011.011c-.152.138-.332.246-.471.4a.874.874,0,0,0-.1.143l0,0a.514.514,0,0,0-.06.416.492.492,0,0,0,.115.181h0a1.219,1.219,0,0,0,.194.162,6.471,6.471,0,0,0,3.616,1.171,1.169,1.169,0,0,0,.822-.927.942.942,0,0,0-.047-.379m0,0a1.193,1.193,0,0,0,.375-.015,4.27,4.27,0,0,0,.548-.207,3.658,3.658,0,0,1,2.072.18,9.1,9.1,0,0,0,2.623.252h0c.128,0,.254-.015.38-.026.333-.031.776-.25.653-.561-.1-.26-.564-.339-.514-.615.029-.162.222-.226.384-.257l1.556-.307c-.244-.927-1.4-1.282-2.357-1.186a13.865,13.865,0,0,1-2.841.382,3.662,3.662,0,0,1,.881-.417c.295-.138.584-.411.548-.734-.054-.5-.732-.6-1.226-.532a11.443,11.443,0,0,0-5.013,1.961m-1.55-.358A12.16,12.16,0,0,0,37.03,102.2a.826.826,0,0,0-.573.142c-.289.261-.083.764.242.982a10.725,10.725,0,0,1,1.028.544c-.953.455-2.077.151-3.129.234a4.192,4.192,0,0,0-2.066.748.817.817,0,0,0-.365.448c-.1.437.453.723.9.777a13.4,13.4,0,0,0,3.164-.241,19.78,19.78,0,0,1,3.343-.06c.524.026,1.046.064,1.568.1m-1.982,1.413s-2.436,1.1-2.669,2.11m21.985,1.419c-.489-.749-6.421-3.29-6.421-3.29m.575,20.72c.331-6.769-6.231-18.729-6.231-18.729m11.111,8.57a22.094,22.094,0,0,0-11.273-11.126M67.351,135.51a17.785,17.785,0,0,0,1.014-4.727m-25.7-23.891a15.331,15.331,0,0,0-3.611,7.193c-.861,4.4-1.373,9.761-1.373,9.761M20.617,146.423c1.42,1.666,5.471,3.525,7.052,3.825m-3.06-11.318a8.357,8.357,0,0,0,3.423,3.285m-5.068-9.938s3.983,9.349,8.931,11.429m40.064,4.689c.518-1.49.815-6.026.933-8.231m-10.146,6.115c5.576-1.309,7.616-3.955,7.616-3.955M51.346,106.114c5.783,1.614,14.233,4.61,17.539,20.907a61.37,61.37,0,0,0,4.007,13.141c2.991,6.648,5.215,6.952,2.246,9.4-4.272,3.528-11.874,3.979-18.885,3.663s-13.658.582-21.612,1.162c-5.9.431-14.442-.373-18.447-.816a1.512,1.512,0,0,1-1.166-2.222c.946-1.758,2.321-4.348,3.253-6.26,1.546-3.175,3.377-17.389,7.723-27.284,3.858-8.785,9.434-10.755,13.567-12.035" transform="translate(149.376 -96.235) rotate(9)" fill="none" stroke="#b3b0a7" stroke-linecap="round" stroke-linejoin="round" stroke-width="0.5"/></g><g transform="matrix(0.995, 0.105, -0.105, 0.995, -214.61, -2501.338)"><g transform="translate(610.106 3154.639)"><path d="M618.88,3183.053a49.763,49.763,0,0,0,23.214,6.667c13.334.356,18.394-1.191,18.394-1.191m-3.434-5.456c1.313-.12,2.67-.145,3.555-1.02.565-.56.8-1.368,1.381-1.916a9.921,9.921,0,0,1,2.425-1.214,3.094,3.094,0,0,0,1.459-1.463,1.912,1.912,0,0,0-.233-1.953c-.408-.486-1.1-.757-1.346-1.332a4.405,4.405,0,0,1-.169-.727,2.982,2.982,0,0,0-2.187-1.971,5.3,5.3,0,0,0-.822-.159m-31.134.174h0a6.606,6.606,0,0,0-2.516,3.125,6.29,6.29,0,0,0,.528,5.43,3.511,3.511,0,0,0,.934,1.06,16.6,16.6,0,0,0,2.113.923c1.372.7,2.146,2.178,3.5,2.9a5.671,5.671,0,0,0,2.168.569,47.607,47.607,0,0,0,6.237-.288h0m2.476.1h.006c.118.018.24.039.358.061,1.952.364,4.035,1.353,5.8.489a12.009,12.009,0,0,0,1.967-1.549h0m-26.919-12.2a6.244,6.244,0,0,0-1.816,8.255m41.685.674a5.39,5.39,0,0,0,1.678-5.75,7.514,7.514,0,0,0-4.226-4.507m-27.988-14.466c-14.966,2.193-25.87,8.969-25.87,16.989,0,9.794,16.265,17.734,36.33,17.734s36.33-7.94,36.33-17.734c0-8.459-12.133-15.536-28.367-17.308m-14.857,28.763a1.187,1.187,0,0,1-.047-.714,26.714,26.714,0,0,0,.431-6.032v-.064c-.031-.723.259-3.956.173-5.014a24.413,24.413,0,0,1-.266-3.3c0-1.43-.745-.692-.853-3.3a2.818,2.818,0,0,0-.8-2.082c-1.043-.669-2.215-.023-3.3-.619-.355-.195-.623-.528-.992-.694a4.059,4.059,0,0,0-1.474-.15,1.9,1.9,0,0,1-.228-.025m26.314-1.848q-.229.634-.459,1.269a1.048,1.048,0,0,1-.406.609,1.11,1.11,0,0,1-.392.1,7.512,7.512,0,0,0-4.449,2.3,4.875,4.875,0,0,0-1.036,1.6,5.985,5.985,0,0,1-.7,1.78c-.257.32-.628.532-.888.85a3.059,3.059,0,0,0-.542,1.4,17.65,17.65,0,0,0-.119,5.931c.084.552.133,1.25-.422,1.49a.865.865,0,0,1-1.093-.405c-.7-1.3-.136-2.69.041-4.052a7.314,7.314,0,0,0-.064-2.291c-.1-.55-.562-1.257-1.134-.7a.664.664,0,0,0-.08.828c.247.4.043,1.4-.5,1.207a.512.512,0,0,1-.329-.513,13.6,13.6,0,0,0-.205-4.939,2.373,2.373,0,0,0-1.067-1.448,1.3,1.3,0,0,0-.506-.145c-.805-.057-1.228.61-1.421,1.259-.464,1.563.009,3.321-.611,4.829-.168.41-.412.787-.584,1.2a7.513,7.513,0,0,0-.41,2.768c-.054,2.486-.107,4.976.039,7.457a2.639,2.639,0,0,1-.165,1.4,1,1,0,0,1-.221.278m0,0q1.06.157,2.176.244h0c.807.063,1.635.1,2.476.1h.146a31.111,31.111,0,0,0,7.99-1h0a21.9,21.9,0,0,0,3.491-1.242c2.649-1.223,4.517-2.862,5.185-4.71a3.787,3.787,0,0,0,.1-2.211l-1.218-4.833-2.622-10.4-.191-.757-.312-1.237c0-.007,0-.013,0-.02-.257-1.1-1.553-2.131-3.59-2.9a25.8,25.8,0,0,0-8.827-1.362,24.007,24.007,0,0,0-9.6,1.681c-1.567.719-2.565,1.616-2.82,2.582l-.006.019-.312,1.237-.657,2.605-2.2,8.731h0l-1.173,4.659a3.786,3.786,0,0,0,.1,2.211c1.065,2.944,5.174,5.359,10.637,6.4m17.087-24.233a9.923,9.923,0,0,1-2.228,1.28,18.2,18.2,0,0,1-3.485,1.061,26.76,26.76,0,0,1-5.345.52c-4.225,0-7.967-.912-10.266-2.313a6.082,6.082,0,0,1-1.81-1.588" transform="translate(-610.106 -3154.639)" fill="none" stroke="#b3b0a7" stroke-linecap="round" stroke-linejoin="round" stroke-width="0.5"/></g></g><g transform="translate(-252.689 -2892.101) rotate(-7)"><g transform="translate(102.032 3330.177)"><path d="M171.6,3353.218l-.786.25.538.373-.456.455.952.041.208.663.5-.87.993-.33-.909-.456.164-.993-.662.454m-3.642-9.188-.7.082.786.456-.289.538.909-.083.415.87.166-.787.414-.043-.373-.62M158.3,3363.446l-.572.7,1.272-.19.827.444.382-.826.89-.318-.846-.374-.018-.467-.9.1m-33.162,1.282-1.233.1.593.394-.3.494,1.284-.149.493.593.3-.69.543-.2-.741-.642m-17.29-17.5-.178-.5-.255.435-1.031.087.216.6-.172.429.786.076.243.439.388-.772.558-.386m-1.176,8.532-.792-.521.032.69-1.2.134,1.268.6.17.991.668-.551.9.172-.129-.815m2.35,10.827c6.929,2.96,16.821,4.621,27.7,4.621,21.391,0,38.953-6.415,37.717-16.514m-75.434,0c-.4,3.249,1.15,6.115,4.144,8.51m30.448,19.886a5.749,5.749,0,0,1,4.305-2.2c3.5-.108,6.573,2.973,10.054,2.616,2.517-.259,4.462-2.228,6.247-4.018a5.66,5.66,0,0,1,1.375-1.11c1.816-.929,4.349.13,5.885-1.21.987-.863,1.407-2.6,2.718-2.657.652-.029,1.244.429,1.9.444a2.119,2.119,0,0,0,1.8-1.335,19.786,19.786,0,0,0,.7-2.263c.234-.7.835-1.463,1.542-1.262.491.14.736.675,1.1,1.028s1.171.374,1.214-.134m-8.846-16.283a4.473,4.473,0,0,0,.192-4.395m-11.3,4.13c1.145,2.54,6.371,4.729,9.756,3.683m-4.9-15.6a4.351,4.351,0,0,0,.015-1.587,4.063,4.063,0,0,0-1.065-2.145m-26.62,3.317a3.224,3.224,0,0,0,2.561.943l2.324.132m-21.457.449a2.932,2.932,0,0,0-.046,3.212m.181,5.148c-1.372,1.175-.794,3.875.036,5.11a5.615,5.615,0,0,0,4.547,2.307m48.411-16.177a2.844,2.844,0,0,0-2.812.032,1.913,1.913,0,0,0-.659.732,2.808,2.808,0,0,0,4.911,2.485,1.873,1.873,0,0,0,.2-.71,2.764,2.764,0,0,0-1.636-2.539Zm.33,13.2c.044.05.09.1.137.145a3.093,3.093,0,0,0,4.114-.245c1.379-1.183,1.715-3.057.748-4.183a3.037,3.037,0,0,0-4.251.1,3.919,3.919,0,0,0-.575.608,2.853,2.853,0,0,0-.173,3.577Zm-11.026,5.554a3.751,3.751,0,0,0-1.822,1.059h0a2.548,2.548,0,0,0-.7,2.365c.37,1.439,2.1,2.239,3.858,1.787s2.889-1.984,2.52-3.423a2.266,2.266,0,0,0-.479-.914,3.356,3.356,0,0,0-3.379-.873Zm-49.226-7.336a2.588,2.588,0,1,0,1.725,3.617,2.862,2.862,0,0,0-1.725-3.617Zm17.066,8.333a3.418,3.418,0,0,0-3.178,1.037,2.3,2.3,0,0,0-.5,1.094c-.237,1.467,1.027,2.891,2.821,3.181s3.442-.664,3.679-2.13a1.865,1.865,0,0,0,.023-.2,3.1,3.1,0,0,0-2.844-2.978Zm-18.706-17.593a2.716,2.716,0,0,0-1.431,2.178,1.8,1.8,0,0,0,.237.973,2.663,2.663,0,0,0,4.52-2.61,1.914,1.914,0,0,0-1.284-.9,2.872,2.872,0,0,0-2.042.355Zm23.969,1.8a11.325,11.325,0,0,0,3.759.584,10.233,10.233,0,0,0,2.576-.327c.278-.067.561-.137.847-.193m-7.949-1.37a7.841,7.841,0,0,0,.342-.713,3.76,3.76,0,0,0-.325-2.677,5.847,5.847,0,0,0-1.033-1.857,2.887,2.887,0,0,0-.841-.642,0,0,0,0,0,0,0m17.614-1.512a5.018,5.018,0,0,0-.783.368,8.1,8.1,0,0,0-2.382,2.012,5.891,5.891,0,0,0-1.007,3.043h0m2.844-2.175c.257-.031.516-.049.774-.058a9.29,9.29,0,0,1,2.442.248,16.453,16.453,0,0,0,2.021.473,16.864,16.864,0,0,0,2.879-.176h0v0m-1.857,5.317a6.668,6.668,0,0,1-.722.066,3.255,3.255,0,0,0-1.982.7,2.135,2.135,0,0,0-.42.536m-13.588,3.662c-.008-.021-.015-.041-.023-.064a5.347,5.347,0,0,0-.585-1.1c-.128-.2-.254-.4-.382-.6-.079-.123-.158-.248-.251-.366a2.628,2.628,0,0,0-.849-.709m-28.188,19.808c1.194,1.274.944,3.373,1.1,5.221a4.087,4.087,0,0,0,.537,1.889,1.8,1.8,0,0,0,1.655.872,4.568,4.568,0,0,0,1.992-1.1c.625-.45,1.469-.807,2.067-.426.446.284.576.871.839,1.34a2.456,2.456,0,0,0,2.435,1.194,8.669,8.669,0,0,1,1.591-.263c.529.035,1.066.509.89,1.037m32.463-26.965,0,0a4.665,4.665,0,0,0,1.369.506,4.509,4.509,0,0,0,1.688.021,28.139,28.139,0,0,1,3.226-.893,7.985,7.985,0,0,1,1.42.091,26.846,26.846,0,0,0,3.007.187,3.276,3.276,0,0,0,1.2-.149,2.242,2.242,0,0,0,.517-.3.005.005,0,0,0,0,0l.068-.052a.007.007,0,0,1,0,0c.076-.059.149-.121.222-.181q.5-.42,1.007-.84a5.716,5.716,0,0,0,.435-.391,1.9,1.9,0,0,0,.289-.373,1.006,1.006,0,0,0,.033-1.007m-33.552-11.512a1.222,1.222,0,0,0,.49.97,4.7,4.7,0,0,0,.835.567,4.99,4.99,0,0,0,.538.275,2.1,2.1,0,0,0,.322.108.524.524,0,0,0,.068.014,2.9,2.9,0,0,0,.777.032,9.414,9.414,0,0,1,2.417-.14c.055.011.109.023.163.037.068.017.135.036.2.056a5.543,5.543,0,0,0,1.385.374c1.326.061,2.3-1.26,3.624-1.329a2.912,2.912,0,0,0,.569-.042l.015,0c.494-.134.7-.654.827-1.1m-24.506,4.993a3.344,3.344,0,0,0,.1,1.246,1.32,1.32,0,0,0,.333.546c.467.455,1.311.549,1.639,1.1.227.382.135.876.306,1.284a2.6,2.6,0,0,0,.908.946m-1.173,2.447a7.461,7.461,0,0,0-.249,1.62,1.633,1.633,0,0,0,0,.193,2.2,2.2,0,0,0,.727,1.623,6.993,6.993,0,0,0,2.336.816,12.461,12.461,0,0,1,3.258,2.159,4.476,4.476,0,0,0,3.369,1.017,0,0,0,0,0,0,0m16.307-18.838v0a3.206,3.206,0,0,0-.386-1.152,6.22,6.22,0,0,0-1.968-1.99,8.4,8.4,0,0,0-3.06-1.357m-8.436.952h0a7.862,7.862,0,0,0-1.948,1.089,7.018,7.018,0,0,0-2.26,2.982v0m34.067,7.143a5.263,5.263,0,0,0,1.154-2.321,2.376,2.376,0,0,0,.021-1.061,2.014,2.014,0,0,0-.237-.554c-.3-.5-.77-.946-1.1-1.438-.2-.3-.347-.628-.544-.931a6.047,6.047,0,0,0-2.57-1.991,13.233,13.233,0,0,0-5.187-1.223m7.7,26.378a4.527,4.527,0,0,0,1.332-.7,8.987,8.987,0,0,1,1.312-1.109c1.261-.762,2.033-.514,3.02-1.124a5.4,5.4,0,0,0,1.851-2.394q.16-.495.268-.953m.036-3.722a6.687,6.687,0,0,0-1.347-2.68,7.337,7.337,0,0,0-1.973-1.951,14.815,14.815,0,0,0-2.818-1.716,7.808,7.808,0,0,0-.786-.251m-7.563,16.35a7.743,7.743,0,0,0,1.465.437m-35.761-23.885a7.584,7.584,0,0,0-2.337.234,6.612,6.612,0,0,0-2.391,1.075,8.734,8.734,0,0,0-2.28,2.391q-.187.269-.385.576a14.642,14.642,0,0,0-1,1.539,5.407,5.407,0,0,0-.172,3.359,8.115,8.115,0,0,0,2.6,4.307m6.708-4.393a5.263,5.263,0,0,0-2.855.889c-2.079,1.493-3.212,2.435-3.854,3.5a8.254,8.254,0,0,0-.9,3.909c-.315,4.74,3.5,6.825,7.248,6.971a4.183,4.183,0,0,1,1.855.5m6.021,1.94h0a11.262,11.262,0,0,0,1.224-.385m12.043-27.292a8.251,8.251,0,0,0-.178-1,24.2,24.2,0,0,0-1.054-3.454c-.911-2.261-2.08-3.595-3.63-3.733-1.533-.138-3.528,2.233-4.806,4.685h0a12.436,12.436,0,0,0-1.169,3.077c-.032.163-.059.321-.076.476h0m-1.664,6.214a8.234,8.234,0,0,0-.158-1.522,27.259,27.259,0,0,0-.733-3.029h0c-.128-.406-.262-.786-.406-1.141v0c-.806-1.995-1.877-3.166-3.314-3.3-1.3-.119-2.994,1.566-4.343,3.6a15.952,15.952,0,0,0-2.045,4.26m14.7,10.007a7.92,7.92,0,0,0-.084-1,13.874,13.874,0,0,0-.757-2.763,20.724,20.724,0,0,0-.891-2.029c-.076-.148-.152-.294-.23-.438q-.064-.123-.132-.243c-.2-.366-.415-.722-.634-1.063a14.674,14.674,0,0,0-.966-1.337c-1.039-1.268-2.158-2.093-3.16-2-1.887.175-3.4,1.869-4.655,4.746q-.155.342-.3.711c-.03.076-.064.158-.093.238-.363.938-.709,1.982-1.031,3.117m9.689,5.808a4.566,4.566,0,0,0-.581.605m26.234-17.737a15.362,15.362,0,0,0-1.8-3.56c-1.191-1.769-2.663-3.195-3.816-3.09-1.74.156-2.914,1.954-3.73,4.938v0c-.015.052-.03.1-.041.154-.143.528-.275,1.095-.4,1.694a6.956,6.956,0,0,0-.158,1.5m18.236,8.579c-.033-.2-.075-.394-.128-.6a16.076,16.076,0,0,0-1.372-3.4c-.044-.088-.091-.174-.135-.259a21.834,21.834,0,0,0-2.333-3.479,7.614,7.614,0,0,0-3.045-2.45,1.99,1.99,0,0,0-.814-.108,3.244,3.244,0,0,0-.473.079,4.314,4.314,0,0,0-2.593,2.179l0,0a12.744,12.744,0,0,0-1.127,2.566,26.326,26.326,0,0,0-.728,2.75q-.146.672-.274,1.394a6.292,6.292,0,0,0,.225,3.839m-19.17,6.211a3.284,3.284,0,0,0,1.113,3.285A12.458,12.458,0,0,0,138.62,3365m-.625-5.717c2.283,2.655,4.038,3.641,8.1,4.628a15.44,15.44,0,0,0,5.334.035m-16.244-8.649a14.751,14.751,0,0,1,1.646-.12,5.683,5.683,0,0,1,2.222.368c1.319.539,2.306,1.725,3.7,2.091a11.062,11.062,0,0,0,2.487.148c1.435.041,2.593-.234,3.85.462a4.288,4.288,0,0,0,1.714.712.839.839,0,0,0,.108,0c.592-.014,1.2-.469,1.074-1.022m-14.343-6.278a7.33,7.33,0,0,0-2.337.923,7.677,7.677,0,0,0-1.249.926,6.852,6.852,0,0,0-1.273,1.5,3.21,3.21,0,0,0-.189.327,4.867,4.867,0,0,1-.548.934,5.951,5.951,0,0,1-.992.789c-.081.063-.163.128-.239.194l-.584.608a5.614,5.614,0,0,0-1,4.83c.014.053.026.1.043.154a7,7,0,0,0,1.623,2.813,9.6,9.6,0,0,0,2.594,1.969,11.716,11.716,0,0,0,4.3,1.283,45.522,45.522,0,0,0,5.755-.156c1.826-.056,3.664.091,5.482-.062a8.917,8.917,0,0,0,5.013-1.778,4.567,4.567,0,0,0,1.661-4.223,3.193,3.193,0,0,0-.123-.476c-.221-.657-.627-1.249-.834-1.906a25.436,25.436,0,0,1-.321-3.166,4.04,4.04,0,0,0-.414-1.2,7.387,7.387,0,0,0-3.093-2.743v0h0m-.006,5.758a5.276,5.276,0,0,0,.484-4.056,13.936,13.936,0,0,0-.476-1.7v0c-.1-.28-.2-.566-.319-.854a24.372,24.372,0,0,0-1.706-3.427c-1.683-2.812-3.861-5.148-5.589-4.987a3.7,3.7,0,0,0-.392.058c-1.452.3-2.643,1.458-3.635,3.348a18.871,18.871,0,0,0-1.075,2.531q-.292.841-.56,1.788-.322,1.136-.608,2.421c-.087.388-.154.75-.2,1.1m-30.136-7.527,0,0c-2.414,2.143-3.924,4.548-4.235,7.116-1.233,3.616.587,21.271.63,21.975.643,10.547,15.547,18.5,37.088,18.5s36.444-7.949,37.087-18.5c.043-.7,1.249-17.307.631-21.975h0c-.4-3.309-2.789-6.347-6.541-8.9l-.029-.016m-4.447-2.505h0q-1.339-.629-2.806-1.2m-53.9,2.967a35.835,35.835,0,0,1,4.216-2.183" transform="translate(-102.032 -3330.177)" fill="none" stroke="#b3b0a7" stroke-linecap="round" stroke-linejoin="round" stroke-width="0.5"/></g><path d="M235.867,3369.268s0,0,.006,0a.3.3,0,0,0,.061-.015h0l0,0m2.8-13.949c-.059.158-.021.31.085.339s.24-.075.3-.231.02-.31-.087-.339-.24.074-.3.231Zm3.077,5.174a0,0,0,0,0,0,0,.351.351,0,0,0,.157-.272c.018-.172-.061-.316-.173-.325s-.219.123-.239.292a.365.365,0,0,0,.053.249s0,0,0,0m-1.653-.52c.006.17.1.3.219.3s.2-.148.193-.318-.1-.3-.219-.3-.2.146-.193.316Zm-1.7.59a.311.311,0,0,0,.018-.079c.02-.17-.058-.317-.17-.324s-.216.114-.239.282h0m1.124-1.773c-.015.169.065.31.178.316s.217-.126.231-.3-.065-.309-.178-.315-.216.125-.231.293Zm-1-.614c-.061.161-.023.315.085.345s.243-.076.3-.236.021-.316-.087-.345-.242.074-.3.236Zm2.578-.4c-.059.161-.02.315.088.345s.242-.076.3-.236.017-.315-.09-.344-.242.074-.3.234Zm-1.477-.919c-.059.16-.021.313.087.342s.242-.074.3-.234.02-.312-.087-.342-.242.076-.3.234Zm-12.942,4.261c-.067.164-.035.322.073.353s.248-.077.315-.242.035-.321-.071-.351-.249.078-.316.24Zm1.042,4.781c0,.178.094.316.21.312s.211-.154.211-.332-.093-.315-.21-.31-.21.154-.211.33Zm-.932-1.357c-.021.177.053.324.169.33s.227-.131.248-.307-.053-.323-.167-.328-.227.131-.249.305Zm-.99-.639c-.068.167-.036.328.071.361s.252-.079.319-.247.037-.329-.071-.359-.251.078-.319.245Zm2.648-.42c-.067.166-.033.327.075.359s.251-.08.318-.247.032-.327-.076-.357-.249.078-.316.245Zm-1.465-.955c-.067.164-.035.323.073.355s.249-.079.316-.245.035-.324-.073-.354-.249.078-.316.244Zm9.485,6.919a.353.353,0,0,0,.093-.417c-.061-.2-.217-.333-.348-.295s-.187.229-.126.43c.055.178.186.3.306.3a.145.145,0,0,0,.044-.006.16.16,0,0,0,.027-.011m-3.916,5.419c-.138.01-.243.2-.233.415s.132.385.272.374.242-.2.231-.415-.132-.385-.271-.374Zm2.021-.378c-.138-.006-.266.164-.286.381s.078.4.216.407.266-.164.286-.383-.078-.4-.216-.406Zm2.467.646c-.138.011-.24.2-.228.413s.137.388.277.377.24-.2.227-.417-.137-.385-.275-.374Zm-1.249-2.284c-.138.009-.243.188-.237.4s.125.385.263.377.243-.19.237-.4-.125-.385-.263-.377Zm1.162-.71c-.132.038-.189.236-.126.441s.221.341.354.3.189-.237.125-.442-.221-.339-.353-.3Zm-3.107-.514c-.132.038-.19.234-.131.438s.217.341.35.3.192-.236.131-.441-.217-.338-.35-.3Zm1.852-1.17c-.131.038-.189.233-.126.435s.217.338.35.3.189-.234.128-.436-.219-.336-.351-.3Zm23.546-12.1c-.1.027-.131.17-.071.319s.188.248.286.219.131-.17.072-.319-.187-.246-.286-.219Zm-2.445,4.535c-.1.009-.173.146-.152.306s.125.284.231.275.173-.144.152-.305-.125-.283-.231-.275Zm1.527-.278c-.106,0-.195.122-.2.281s.082.295.189.3.195-.122.2-.281-.082-.295-.189-.3Zm.836-1.208c-.106.006-.176.14-.158.3s.119.284.224.278.176-.14.158-.3-.119-.283-.224-.278Zm.85-.525c-.1.029-.132.173-.071.325s.19.253.289.223.131-.175.071-.325-.19-.252-.289-.223Zm-2.417-.38c-.1.027-.132.173-.075.324s.187.251.287.224.132-.175.073-.325-.187-.251-.286-.222Zm1.354-.865c-.1.027-.132.172-.073.322s.189.25.287.221.131-.172.071-.322-.187-.25-.286-.221Zm7.449,6.425c-.125.037-.163.227-.081.423s.249.327.376.291.161-.227.081-.424-.249-.325-.376-.289Zm-3.016,6.024c-.137.011-.22.193-.189.406s.169.378.306.368.221-.193.189-.407-.17-.379-.306-.367Zm1.965-.373c-.138-.006-.248.161-.245.375s.116.393.254.4.248-.162.245-.377-.117-.392-.254-.4Zm2.681,1.4a.148.148,0,0,0,.073-.055.436.436,0,0,0,.064-.342c-.035-.215-.173-.379-.31-.368s-.219.193-.184.408.175.38.312.369a.161.161,0,0,0,.041-.009m-1.635-3.01c-.135.007-.222.186-.195.4s.163.377.3.369.224-.185.195-.4-.161-.377-.3-.369Zm1.081-.7c-.128.038-.164.231-.082.434s.254.334.382.3.163-.233.081-.433-.254-.333-.38-.3Zm-3.131-.5c-.128.038-.166.231-.085.431s.249.334.377.3.166-.231.085-.432-.249-.333-.377-.3Zm1.718-1.148c-.126.037-.163.228-.082.427s.251.332.377.293.164-.23.082-.429-.25-.33-.377-.292Zm-13.03,2.807c-.141.042-.192.256-.111.478s.26.371.4.328.193-.256.113-.479-.262-.37-.4-.327Zm-3.674,6.83c-.152.012-.255.219-.231.462s.17.432.324.418.255-.22.231-.464-.17-.428-.324-.416Zm2.214-.423c-.154-.007-.284.184-.292.427s.109.447.263.453.284-.184.292-.427-.109-.446-.263-.453Zm2.771.721c-.154.012-.254.219-.227.463s.176.433.328.421.254-.22.225-.464-.175-.432-.327-.42Zm-1.525-2.546c-.152.008-.257.21-.237.45s.163.429.315.419.259-.211.237-.451-.163-.427-.315-.418Zm1.241-.792c-.144.042-.195.263-.113.491s.266.38.411.336.195-.263.111-.491-.265-.379-.409-.336Zm-3.467-.573c-.143.043-.2.261-.117.49s.262.378.406.334.2-.261.117-.49-.262-.377-.406-.334Zm2.382-.969c.081.225.03.442-.112.485s-.326-.106-.406-.333-.03-.443.113-.483.325.1.406.332Z" transform="translate(-104.47 -21.102)" fill="none" stroke="#b3b0a7" stroke-linecap="round" stroke-linejoin="round" stroke-width="0.5"/></g><g transform="matrix(0.995, 0.105, -0.105, 0.995, -9.899, -2000.162)" clip-path="url(#a)"><path d="M775.2,926.768c-1.843-.211-2.9,1.481-3.3,2.293m17.2,2.065a2.632,2.632,0,0,0-.24-2.122m.987-3.423s-3-.593-3.813.719a6.057,6.057,0,0,0-.726,1.918m.5-3.836a5.458,5.458,0,0,0-1.182-2.51m-4.861,3.5a11.646,11.646,0,0,0,.921-2.749c.054-.23.084-.373.084-.373m-.084.373a6.569,6.569,0,0,0-1.476-.389m2.752,4.893c-.973-1.294-2.045-.484-2.755.347-.04.049-.08.1-.12.145a15.343,15.343,0,0,0-1.45,3.511m1.789,0a7.282,7.282,0,0,0,2.63-3.4,3.7,3.7,0,0,0,.141-.57,1.321,1.321,0,0,0-.07-.912,3.3,3.3,0,0,0-1.288-.643h0l0,0a6.792,6.792,0,0,0-1.067-.23,6.192,6.192,0,0,0-2.468.163,4.444,4.444,0,0,0-1.029.459,8.26,8.26,0,0,0-1.079.776,17.289,17.289,0,0,0-2.437,2.6m6.713,50.568V931.127m-5.5,0V979.94m-21.007-37.916v37.5a.414.414,0,0,0,.414.416h45.723a.413.413,0,0,0,.413-.416v-37.5m-20.048,0H801.13a.56.56,0,0,0,.56-.565v-9.767a.562.562,0,0,0-.56-.565H751.365a.562.562,0,0,0-.56.565v9.767a.56.56,0,0,0,.56.565h22.615m12.239-10.9A8.41,8.41,0,0,0,788.867,929q-1.178-.3-2.372-.553c-.393-.083-.785-.161-1.18-.232q-1.618-.3-3.248-.491m-10.693-3.222c.031-.335.08-.85.153-1.479a7.777,7.777,0,0,0-.026-1.926,9.024,9.024,0,0,0-.186-.969m4.962,5.86a5.641,5.641,0,0,0-.926-.285c-.95-.216-1.963-.266-2.91-.484l-.033-.007a4.3,4.3,0,0,0-2.475-.088,2.879,2.879,0,0,0-1.631,1.93,5.828,5.828,0,0,0-.2,1.7m1.589,2.367a5.573,5.573,0,0,0-2.362-.551,3.711,3.711,0,0,0-2.407.551m10.885,0a9.826,9.826,0,0,0-1.194-.843,15.587,15.587,0,0,0-1.85-.912c-.282-.114-.569-.218-.858-.311a8.515,8.515,0,0,0-2.644-.428,5.819,5.819,0,0,0-1.159.126,5.559,5.559,0,0,0-1.685.651,4.272,4.272,0,0,0-1.657,1.717m21.738-2.676a10.151,10.151,0,0,0,3.359-2.87,4.994,4.994,0,0,0-4.036-1.2c-.181.016-.362.038-.541.066-.4.064-.806.152-1.2.254-1.079.278-2.137.655-3.225.9m3.225-.9a5.908,5.908,0,0,0,.562-2.83,16.94,16.94,0,0,0-3.006,1.287m-1.453-1.374a4.656,4.656,0,0,0-.957.446,14.454,14.454,0,0,0-3.869,3.476m5.491-.107a17.369,17.369,0,0,1,.788-2.441c.035-.09.07-.183.1-.278a1.922,1.922,0,0,0-.418-2.153,2.252,2.252,0,0,0-1.986-.055,17.9,17.9,0,0,0-2.212.85,17.009,17.009,0,0,0-3.726,2.327,8.5,8.5,0,0,0-1.175,1.2m4.9-3.528a11.682,11.682,0,0,0-5.474-2.248.924.924,0,0,0-.691.1.968.968,0,0,0-.254.753c-.007.159-.012.316-.014.473-.009.631,0,1.26,0,1.89,0,.752.016,1.308.031,1.688m1.728,1.045-.228-.171a8.849,8.849,0,0,0-.839-.546,5.993,5.993,0,0,0-.661-.328,2.548,2.548,0,0,0-1.314-.228c-.788.117-1.577.242-2.355.411a14.528,14.528,0,0,0-2.466.748,2.028,2.028,0,0,0-1.319,1.147,1.451,1.451,0,0,0,.353,1.273,4.246,4.246,0,0,0,1.077.828l1.725,1.054m.63-5.049a8.468,8.468,0,0,1-.334-2.474,3.527,3.527,0,0,1,.273-1.441,1.6,1.6,0,0,1,1.074-.923,2.513,2.513,0,0,1,1.725.529l.9.549m-48.1-43.792a18.983,18.983,0,0,1,2.39,3.452,42.755,42.755,0,0,1,3.563,8.917,81.779,81.779,0,0,1,2.012,32.658c1.411-1,4.093-3.77,4.734-4.295a.447.447,0,0,1,.129-.088,48.6,48.6,0,0,1,3.951,3.412c.322.292.618.568.874.8q.106-1.122.174-2.253a82.052,82.052,0,0,0-4.163-30.238,43.623,43.623,0,0,0-4.09-8.917,15.492,15.492,0,0,0-2.687-3.3m.286-5.534a3.58,3.58,0,0,0-1.558.052c-.98.245-3.145,1-4.384,1.446m3.545.168a3.944,3.944,0,0,0,2.865-.145m8.119,6.415a1.1,1.1,0,0,0,.075-.318c.078-.888-.834-1.512-1.646-1.87a20.593,20.593,0,0,0-10.878-1.572,20.158,20.158,0,0,0-2.369.449c-.139.036-.275.071-.413.109m.413-.109a19.5,19.5,0,0,1,5.945.907c.178.062.352.126.519.19.148.059.289.119.425.183a41.632,41.632,0,0,0,5.827,2.561,5.68,5.68,0,0,0,.992.2,3.317,3.317,0,0,0,.4.019,2.17,2.17,0,0,0,1.03-.245,1.638,1.638,0,0,0,.294-.2,2.355,2.355,0,0,0,.707-1.781c.026-.549-.014-1.137,0-1.7a2.911,2.911,0,0,1,.578-1.944,2.221,2.221,0,0,1,.181-.181,4.233,4.233,0,0,0,.719-.7,1.724,1.724,0,0,0-.19-1.933,2.932,2.932,0,0,0-.715-.651,6.325,6.325,0,0,0-.966-.5,16.964,16.964,0,0,0-14.24.5c-.273.15-.538.311-.8.482m-15.055,2.877a19.446,19.446,0,0,0-3.9,2.051,25.054,25.054,0,0,0-4.619,4.083,41.009,41.009,0,0,0-5.917,8.917c-.837,1.659-1.6,3.381-2.289,5.13v0a85.262,85.262,0,0,0-5.7,26.514,16.353,16.353,0,0,1,4.469-2.319,17.987,17.987,0,0,1,1.229,1.474v0c1.1,1.393,2.649,3.419,3.323,4.406.277-13.746,2.52-25.609,8.178-35.21a43.547,43.547,0,0,1,6.932-8.917h0a45.425,45.425,0,0,1,4.743-4.083c.235-.176.47-.349.71-.522m.174-3.67c-1-.741-3.086-2.26-4.024-2.818-1.754-1.042-4.365-.94-3.354.52.6.864,2.026.919,3.69,1.213m3.474-.7v0a.988.988,0,0,0,.007.565,6.108,6.108,0,0,1,.207,1.22,11.323,11.323,0,0,1-.19,2.818c-.017.095-.042.238-.057.38h0a.927.927,0,0,0,.021.38.385.385,0,0,0,.049.092,1.1,1.1,0,0,0,.472.363l.045.021a10.344,10.344,0,0,0,3.563.945,10.558,10.558,0,0,0,1.69,0,.969.969,0,0,0,.473-.176,1.521,1.521,0,0,0,.531-.653,1.382,1.382,0,0,0,.113-.43,11.255,11.255,0,0,1,.59-2.806c.084-.247.181-.494.284-.736a1.176,1.176,0,0,0,.2-.707.76.76,0,0,0-.063-.228,1.209,1.209,0,0,0-.379-.48,2.94,2.94,0,0,0-.571-.363,9.785,9.785,0,0,0-5.15-.99,5.614,5.614,0,0,0-1.321.228.826.826,0,0,0-.512.553Zm-.033,4.985-.07-.045a20.256,20.256,0,0,0-4.842-2.206,20.633,20.633,0,0,0-6.02-.9,19.87,19.87,0,0,0-2.515.159c-.877.112-1.925.446-2.1,1.32a1.087,1.087,0,0,0-.019.325m15.6-3.635a16.761,16.761,0,0,0-13.927-5.351,4.064,4.064,0,0,0-1.937.622,1.716,1.716,0,0,0-.726,1.8,9.37,9.37,0,0,0,.616,1.109c.809,1.738-1.344,3.962-.3,5.572a1.521,1.521,0,0,0,.115.157,2.051,2.051,0,0,0,.971.629,4.62,4.62,0,0,0,1.455.211,41.181,41.181,0,0,0,6.311-.779c.1-.016.2-.026.306-.038h0a14.768,14.768,0,0,1,3.472.147,18.176,18.176,0,0,1,3.54.864m4.224,1.847-3.451,3.276v46.249m-.157-50.492-.183.159-4.689,4.083v46.249M743.89,914.6V874.051h-3.467m-23.8,2.125h-1m-10.354,0h-8.4m44.672,41.665V876.176h-1.88m.743,43.239,1.138-1.574,2.346-3.245,2.943-4.069V879.536m-7.475,41.328-4.081,5.646m-42.831-32.2v-5.13m0,30.8v6.529h42.831V917.54M700.132,874.1l-3.26,2.075-6.414,4.083m34.574-9.494h-1.18m23.663,0h-7.277m-3.2,9.494.042,8.917m-.839,0h.839l4.461-4.414m-13.012,4.414H716.964m-16.312-8.917H690.457l.068,8.917h4.212m30.232-8.917h-8.006m-1.6,0h-1.238m-2.193,0h-1.053m1.053,8.917h-7.987m28.207-8.917h4.887l.19-.173m6.659,2.36,2.943-2.911.682-.674v-8.1l-3.624,3.286m-1.054.969-.464.4m-2.708,2.464,0,0,1.878-1.7" transform="translate(-130.554 1695.982)" fill="none" stroke="#b3b0a7" stroke-linecap="round" stroke-linejoin="round" stroke-width="0.5"/></g><g transform="matrix(0.951, -0.309, 0.309, 0.951, -1163.872, -1631.233)" clip-path="url(#b)"><path d="M725.613,892a1.54,1.54,0,0,0-1.448,1.008m7.559.907a1.156,1.156,0,0,0-.105-.933m.434-1.5s-1.318-.261-1.675.316a2.662,2.662,0,0,0-.319.843m.221-1.686a2.4,2.4,0,0,0-.519-1.1m-2.136,1.537a5.12,5.12,0,0,0,.4-1.208c.024-.1.037-.164.037-.164m-.037.164a2.886,2.886,0,0,0-.649-.171m1.209,2.15c-.427-.569-.9-.213-1.21.152l-.053.064a6.743,6.743,0,0,0-.637,1.543m.786,0a3.2,3.2,0,0,0,1.156-1.494,1.621,1.621,0,0,0,.062-.251.581.581,0,0,0-.031-.4,1.449,1.449,0,0,0-.566-.283h0a2.975,2.975,0,0,0-.469-.1,2.719,2.719,0,0,0-1.085.072,1.947,1.947,0,0,0-.452.2,3.629,3.629,0,0,0-.474.341,7.6,7.6,0,0,0-1.071,1.144m2.95,22.219V893.919m-2.415,0v21.448m-9.23-16.66v16.478a.182.182,0,0,0,.182.183h20.091a.181.181,0,0,0,.182-.183V898.707m-8.809,0h9.515a.246.246,0,0,0,.246-.248v-4.292a.247.247,0,0,0-.246-.248H715.141a.247.247,0,0,0-.246.248v4.292a.246.246,0,0,0,.246.248h9.937m5.378-4.788a3.693,3.693,0,0,0,1.164-.933q-.517-.133-1.042-.243c-.173-.036-.345-.071-.518-.1q-.711-.132-1.427-.216m-4.7-1.416c.013-.147.035-.373.067-.65a3.413,3.413,0,0,0-.011-.846,3.949,3.949,0,0,0-.082-.426m2.18,2.575a2.479,2.479,0,0,0-.407-.125c-.417-.095-.862-.117-1.279-.213l-.014,0a1.891,1.891,0,0,0-1.088-.039,1.265,1.265,0,0,0-.717.848,2.563,2.563,0,0,0-.089.748m.7,1.04a2.449,2.449,0,0,0-1.038-.242,1.63,1.63,0,0,0-1.057.242m4.783,0a4.321,4.321,0,0,0-.525-.37,6.849,6.849,0,0,0-.813-.4c-.124-.05-.25-.1-.377-.136a3.74,3.74,0,0,0-1.162-.188,2.563,2.563,0,0,0-.509.055,2.447,2.447,0,0,0-.741.286,1.878,1.878,0,0,0-.728.754m9.552-1.176a4.461,4.461,0,0,0,1.476-1.261,2.194,2.194,0,0,0-1.773-.527c-.08.007-.159.017-.238.029-.178.028-.354.067-.529.112-.474.122-.939.288-1.417.4m1.417-.4a2.6,2.6,0,0,0,.247-1.244,7.446,7.446,0,0,0-1.321.565m-.638-.6a2.045,2.045,0,0,0-.42.2,6.351,6.351,0,0,0-1.7,1.527m2.413-.047a7.64,7.64,0,0,1,.346-1.073c.015-.04.031-.08.044-.122a.845.845,0,0,0-.184-.946.99.99,0,0,0-.873-.024,7.872,7.872,0,0,0-.972.373,7.473,7.473,0,0,0-1.637,1.022,3.733,3.733,0,0,0-.516.528m2.153-1.55a5.133,5.133,0,0,0-2.406-.988.405.405,0,0,0-.3.044.425.425,0,0,0-.112.331c0,.07-.005.139-.006.208,0,.277,0,.554,0,.83,0,.331.007.575.013.742m.759.459-.1-.075a3.9,3.9,0,0,0-.369-.24,2.647,2.647,0,0,0-.29-.144,1.121,1.121,0,0,0-.577-.1c-.346.051-.693.106-1.035.181a6.387,6.387,0,0,0-1.083.329.891.891,0,0,0-.58.5.638.638,0,0,0,.155.559,1.864,1.864,0,0,0,.473.364l.758.463m.277-2.219a3.724,3.724,0,0,1-.147-1.087,1.55,1.55,0,0,1,.12-.633.705.705,0,0,1,.472-.406,1.1,1.1,0,0,1,.758.233l.395.241m-21.137-19.242a8.34,8.34,0,0,1,1.05,1.517,18.782,18.782,0,0,1,1.566,3.918,35.934,35.934,0,0,1,.884,14.35c.62-.438,1.8-1.657,2.08-1.887a.2.2,0,0,1,.057-.039,21.342,21.342,0,0,1,1.736,1.5c.141.128.272.249.384.354q.047-.493.076-.99a36.053,36.053,0,0,0-1.829-13.287,19.17,19.17,0,0,0-1.8-3.918,6.808,6.808,0,0,0-1.181-1.452m.126-2.432a1.572,1.572,0,0,0-.685.023c-.431.108-1.382.44-1.926.635m1.557.074a1.733,1.733,0,0,0,1.259-.064m3.567,2.819a.482.482,0,0,0,.033-.14c.034-.39-.367-.664-.723-.822a9.048,9.048,0,0,0-4.78-.691,8.84,8.84,0,0,0-1.041.2l-.182.048m.182-.048a8.568,8.568,0,0,1,2.612.4c.078.027.155.055.228.084s.127.052.187.08a18.3,18.3,0,0,0,2.56,1.125,2.493,2.493,0,0,0,.436.088,1.464,1.464,0,0,0,.178.008.953.953,0,0,0,.452-.108.717.717,0,0,0,.129-.089,1.035,1.035,0,0,0,.311-.782c.011-.241-.006-.5,0-.748a1.279,1.279,0,0,1,.254-.854.968.968,0,0,1,.08-.079,1.863,1.863,0,0,0,.316-.309.757.757,0,0,0-.084-.849,1.288,1.288,0,0,0-.314-.286,2.781,2.781,0,0,0-.424-.221,7.454,7.454,0,0,0-6.257.221c-.12.066-.237.137-.352.212m-6.615,1.264a8.544,8.544,0,0,0-1.716.9,11.01,11.01,0,0,0-2.029,1.794,18.02,18.02,0,0,0-2.6,3.918c-.368.729-.7,1.485-1.006,2.254h0a37.464,37.464,0,0,0-2.5,11.65,7.183,7.183,0,0,1,1.963-1.019,7.875,7.875,0,0,1,.54.648h0c.485.612,1.164,1.5,1.46,1.936.122-6.04,1.107-11.252,3.593-15.471a19.134,19.134,0,0,1,3.046-3.918h0a19.959,19.959,0,0,1,2.084-1.794c.1-.077.206-.153.312-.23m.076-1.613c-.44-.325-1.356-.993-1.768-1.238-.771-.458-1.918-.413-1.474.228.262.38.89.4,1.621.533m1.527-.309h0a.434.434,0,0,0,0,.248,2.679,2.679,0,0,1,.091.536,4.972,4.972,0,0,1-.084,1.238c-.007.042-.019.1-.025.167h0a.407.407,0,0,0,.009.167.164.164,0,0,0,.022.041.485.485,0,0,0,.208.16l.02.009a4.544,4.544,0,0,0,1.566.415,4.627,4.627,0,0,0,.743,0,.426.426,0,0,0,.208-.077.668.668,0,0,0,.233-.287.606.606,0,0,0,.05-.189,4.946,4.946,0,0,1,.259-1.233c.037-.109.079-.217.125-.323a.517.517,0,0,0,.086-.311.333.333,0,0,0-.028-.1.531.531,0,0,0-.166-.211,1.291,1.291,0,0,0-.251-.16,4.3,4.3,0,0,0-2.263-.435,2.467,2.467,0,0,0-.58.1.363.363,0,0,0-.225.243Zm-.015,2.191-.031-.02a8.9,8.9,0,0,0-2.128-.969,9.065,9.065,0,0,0-2.645-.4,8.744,8.744,0,0,0-1.105.07c-.385.049-.846.2-.923.58a.476.476,0,0,0-.008.143m6.854-1.6a7.365,7.365,0,0,0-6.119-2.351,1.786,1.786,0,0,0-.851.273.754.754,0,0,0-.319.79,4.123,4.123,0,0,0,.271.487c.355.764-.591,1.741-.132,2.448a.676.676,0,0,0,.051.069.9.9,0,0,0,.427.276,2.032,2.032,0,0,0,.639.093,18.1,18.1,0,0,0,2.773-.342c.043-.007.088-.011.134-.017h0a6.489,6.489,0,0,1,1.525.065,7.989,7.989,0,0,1,1.555.38m1.856.812-1.516,1.44V891.89m-.069-22.186-.081.07-2.06,1.794V891.89m14.041-5.235V868.84h-1.523m-10.458.934h-.439m-4.55,0H691.2m19.629,18.308V869.774H710m.326,19,.5-.692,1.031-1.426,1.293-1.788V871.25m-3.284,18.159-1.793,2.481m-18.82-14.15v-2.254m0,13.535v2.869h18.82v-3.941m-15.443-19.087-1.433.912-2.819,1.794M703.57,867.4h-.518m10.4,0h-3.2m-1.4,4.172.018,3.918m-.369,0h.369l1.96-1.939m-5.718,1.939h-5.083m-7.168-3.918h-4.479l.03,3.918h1.851m13.284-3.918h-3.518m-.7,0h-.544m-.964,0h-.463m.463,3.918h-3.51m12.394-3.918h2.147l.084-.076m2.926,1.037,1.293-1.279.3-.3V867.4l-1.593,1.444m-.463.426-.2.174M710,870.523h0l.825-.748" transform="translate(-97.027 1724.72)" fill="none" stroke="#b3b0a7" stroke-linecap="round" stroke-linejoin="round" stroke-width="0.5"/></g><g transform="translate(96.943 617.107) rotate(-17)"><path d="M555.366,2190.707a16.251,16.251,0,0,0,3.942-.949,9.6,9.6,0,0,0,2.89-1.407,3.67,3.67,0,0,0,1.507-2.735c.009-.814-.344-1.607-.284-2.419m-12.307-22.021c-3.344-4.6-2.163-11.323-5.309-16.056a4.387,4.387,0,0,0-1.458-1.472,2.072,2.072,0,0,0-2-.07m1.885,33.226a6.993,6.993,0,0,0-3.834-.854m-35.49,6.081a2.585,2.585,0,0,0-.484,1.651m35.263,4.642a5.742,5.742,0,0,0-1.877,1.388m14.942-23.626s3.356,6.339,9.88,6.9M545.7,2157.309c1.8,8.6,7.393,17.538,14.615,19.429m-28.2.258a29.936,29.936,0,0,0-9.458,6.963m37.166,7.289a34.3,34.3,0,0,0,4.242-.432c2.012-.359,2.516-1.293,1.94-2.084m-25.27-10.291c-3.593.288-6.324,3.163-7.331,5.176m16.677-42.2c.288,2.731,4.456,9.777,5.967,10.208m-4.593-12.212s2.926,5.724,5.593,7.1m6.263-3.205a2.415,2.415,0,0,1,.366-1.815,16.8,16.8,0,0,0,.982-1.63,5.758,5.758,0,0,0-.193-4.112,14.357,14.357,0,0,1-1.119-4.046c-.03-.793.191-1.586.117-2.375-.231-2.47-1.01-4.385-4.8-5.263m3.826,12.416c.53,1.53.949,3.44.026,4.772-1.233,1.779-1.784,4.395-.27,8.8m3.935-5.135a4.835,4.835,0,0,0-.4,1.753,4.5,4.5,0,0,0,.04.859,32.028,32.028,0,0,1,.426,4.056v0m-65.041,40.659a2.017,2.017,0,0,0,1.366.139c.816-.128,2.956-.739,4.714-1.146a35.522,35.522,0,0,1,5.74-.94c.3-.009.6-.019.9-.031a15.256,15.256,0,0,1,1.591.046,32.193,32.193,0,0,1,4.967.75c2.663.651,8.229,1.833,10.894,2.25.544.084,1.132.173,1.749.26a31.636,31.636,0,0,0,7.958.272c3.373-.414,4.854-1.184,5.859-2.781a12.455,12.455,0,0,0,1.495-3.177m-47.775,4.146a1.108,1.108,0,0,0,.542.214,5.493,5.493,0,0,0,.935.088m-2-.767a.659.659,0,0,0,.523.465,1.96,1.96,0,0,0,.432.072,4.728,4.728,0,0,0,2.012-.305m-2.565-1.64c-.27.121-.877.447-.877.951,0,.333.2.444.475.458a5,5,0,0,0,.918-.1,8.675,8.675,0,0,0,2.07-.647m1.984-4.368a11.084,11.084,0,0,0-2.307.905c-.549.356-2.784.809-2.686,2.234a.581.581,0,0,0,.423.57c.828.265,2.595-.639,2.846-.765m11.763-3.909a17.293,17.293,0,0,0,4.784.842c.026,0,.054,0,.082,0,1.547.079,7.225-.36,10.944-.417,2.344-.037,3.905-.049,5.237.056a16.228,16.228,0,0,1,2.328.349m-.907-23.883a13.067,13.067,0,0,0,3.03-3.1M487.9,2180.766a1.059,1.059,0,0,0-.477.8c-.041.486.709.607,1.377.892a7.193,7.193,0,0,0,1.882.445,20.88,20.88,0,0,0,2.207.221c1.032.041,2.974-.435,5.038.011a7.871,7.871,0,0,0,2.812.126m-12.309-3.37c-.484-.028-.6.277-.6.48a1.253,1.253,0,0,0,.072.391.707.707,0,0,0,.353.438,6.483,6.483,0,0,0,1.721.365m.548-1.761a4.335,4.335,0,0,1-1.034-.363.479.479,0,0,0-.054-.056v0c-.161-.154-.505-.384-.754-.205-.284.2-.365.363-.263.667a.432.432,0,0,0,.018.044,1.952,1.952,0,0,0,.71.705,2.131,2.131,0,0,0,.669.2m.967-2.267s-1.279.19-1.346.853m12.084-1.191a14.959,14.959,0,0,0-1.538-.114c-1.07-.032-2.851-.291-3.856-.387s-2.656-.293-3.433-.26a4.619,4.619,0,0,0-1.942.388c-.325.228-.325.649.031.712s.647,0,.777.065m15.686-.477a28.307,28.307,0,0,0-5.4.018c-.114.019-.221.039-.323.058-1.623.3-1.83.579-1.83.579m.389,4.24a2.6,2.6,0,0,1,.663.248,16.635,16.635,0,0,1,2.154,1.694,12.622,12.622,0,0,0,2.223,1.5,7.641,7.641,0,0,0,2.153.71c1.868.323,4.954-.437,7.886-1.675.175-.074.353-.149.526-.228,1.374-.609,4.631-2.133,7.821-3.637m8.805-17.309a17.137,17.137,0,0,0-5.716,2.388c-3.772,2.514-6.321,4.5-10.535,7.064-2.67,1.625-8.007,3.784-8.816,4.353-.67.472-1.69,1.054-1.69,1.054m67.5,3.659a.424.424,0,0,0-.28-.7c-.074-.016-.263-.079-.525-.172-1.2-.426-2.962-1.13-2.962-1.13m2.574,2.486c.3.026,1.035.244,1.24-.167a.283.283,0,0,0-.048-.316,3.927,3.927,0,0,0-1.424-.756c-.654-.254-2.142-.867-2.451-1.012a1.282,1.282,0,0,1-.334-.181m-2.5,1.273h0c.907.193,1.573.489,2.031.581a17.749,17.749,0,0,1,2.323.74,1.4,1.4,0,0,0,.872.218.338.338,0,0,0,.286-.379.7.7,0,0,0-.212-.347,7.3,7.3,0,0,0-1.979-.884,7.4,7.4,0,0,1-1.3-.817m-2.961.146a4.285,4.285,0,0,0,.936.744m-1.763.647c.547.317,1.072.547,1.542.84.581.363,1.416.309,1.4-.126a1.1,1.1,0,0,0-.661-1.033c-.165-.1-.342-.216-.514-.328m.623-42.652a5.749,5.749,0,0,1,.854.956c1.333,1.935,1.233,6.173,1.2,7.877s-.87,9.047-.837,10.619a32.16,32.16,0,0,1-.721,8.091c-.56,2.072-1.665,5.884-2.221,8.254-.095.407-.174.772-.232,1.079a6.126,6.126,0,0,0-.1.725c-.009.195-.01.372-.005.533a2.535,2.535,0,0,0,.53,1.663,16.91,16.91,0,0,0,3.9,1.39c.124.033.237.065.333.093a20.263,20.263,0,0,0,2.279.533c.382.077.516.483.3.642m-36.044,4.013c.593-3.509,4.9-5.793,7.432-5.023,2.572.784,4.026,3.468,4.474,5.035a15.254,15.254,0,0,1,.335,1.905c.2,1.411,1.772,4.8,4.751,5.138,3.377.386,14.628-.77,16.6-1.254,3.193-.786.688-1.805-.579-2.316-1.4-.565-3.36-3.656-4.631-6.654-.914-2.158-1.475-4.267-1.219-5.347.014-.065.028-.13.044-.195a17.518,17.518,0,0,0,.339-2.335h0c.409-5.051.595-10.384,1.9-15.065,1.14-4.087,1.451-6.349.607-8.27v0a7.287,7.287,0,0,0-1.332-1.963m-11.208-11.884h0c.205,1.029,1.3,3.349,6.261,7.59m-21.533,25.327c-.046.053-.093.107-.144.16a17.576,17.576,0,0,1-3.714,2.3,49.745,49.745,0,0,0-5.286,3.41,32.375,32.375,0,0,0-5.795,5.093,24.663,24.663,0,0,0-2.049,2.7c-.426.651-.889,1.328-1.432,2.009m19.758-20.479a40.492,40.492,0,0,1,.874-6.519c0-.021.009-.042.012-.062.518-2.335.818-2.74.991-3.7.041-.225.074-.479.1-.794.035-.406.053-.8.053-1.2a16.389,16.389,0,0,0-2.089-7.7q-.082-.155-.163-.3m-2,16.972a4.7,4.7,0,0,0-1.095-.258m5.2-6.721c-.016.031-.031.063-.047.093-.532,1.041-3.5,5.963-3.986,6.774-.044.073-.068.112-.068.112.154.24,1.24,1.865,2.224,3.3.591.863,1.146,1.66,1.442,2.049.787,1.035,4.093,4.5,4.97,5.465s5.533,5.016,5.916,5.714a10.686,10.686,0,0,1,.73,3.419c-.06.453-.226,1.98-.251,2.412s-.216.847-.405.835a.451.451,0,0,1-.395-.288m-.905.205v0c.1.623.419.593.547.593s.239-.214.31-.535c.01-.054.028-.147.047-.265.1-.579.27-1.782.31-2.159a4.6,4.6,0,0,0-.095-1.565c-.131-.418-.551-1.672-.551-1.672m-1.265,4.723c-.042,1.395.483,1.423.586,1.344a1.258,1.258,0,0,0,.109-.463m0,0c.063-.454.114-1.116.128-1.386a8.7,8.7,0,0,0,0-1.863c-.107-.489-.6-1.815-.763-2.353m-10.524-34.187c-.463,1-1.109,2.384-1.735,3.709s-1.23,2.588-1.607,3.338c-.123.242-.221.432-.289.551a71.267,71.267,0,0,0-3.679,9.125,3.789,3.789,0,0,0-.1,1.714,4.146,4.146,0,0,0,1.484,2.23c.611.56,2.688,2.393,4.649,4.114,1.839,1.615,3.577,3.134,3.9,3.411A5.407,5.407,0,0,1,544,2176.31a3.626,3.626,0,0,0,.226.493,7.429,7.429,0,0,0,1.628,1.936,17.091,17.091,0,0,1,2.588,2.684c.416.7,1.432,2.956,1.575,3.194a.523.523,0,0,0,.166.174c.144.088.306.069.348-.137a3.761,3.761,0,0,0-.193-1.326c-.13-.5-.872-2.149-1-2.459s-.275-.634-.275-.634m4.448-42.776a1.415,1.415,0,0,0-.667.16c-.681.34-1.66-.182-2.319.4a2.346,2.346,0,0,1-1.382.381,4.316,4.316,0,0,0-1.752.53c-1.426.8-2.525,1.36-3.451,1.881a17.953,17.953,0,0,0-3.128,2.754,8.446,8.446,0,0,0-1.452,1.906c-.647,1.117-1.121,2.353-1.688,3.582a21.64,21.64,0,0,0-1.291,3.881m15.073-20.892a.408.408,0,0,0-.528.2c-.146.225.289,1.481.493,2.031a.833.833,0,0,0,.789.605m-.754-2.833a.353.353,0,0,0,.01.054c.076.4.188.921.29,1.376a10.448,10.448,0,0,0,.454,1.4,13.653,13.653,0,0,0,1.3,2.589c.065.1.131.195.2.286.051.071.1.137.154.2a3.568,3.568,0,0,0,4.56,1.079,8.942,8.942,0,0,0,.873-.6m-10.157-.032a6.258,6.258,0,0,0,.288-.588,34.222,34.222,0,0,0,.753-4.131c.319-1.363-.109-.96.332-4.386.363-2.811,1.232-4.514,2.926-5.572a3.975,3.975,0,0,1,3.112-1.693c1.021-.071,4.006-.136,6.036,1.923a8.362,8.362,0,0,1,2.5,5.352c.261,1.6.028,3.542.232,4.877s.816,1.679,1.188,2.715a5.753,5.753,0,0,1,.462,2.614c0,.063-.007.126-.013.193a6.458,6.458,0,0,1-1,2.961c-.43.858-.34,2.479-.4,4.005a7.364,7.364,0,0,1-.391,2.4c-.08.2-.161.384-.244.565a8.111,8.111,0,0,1-3.024,3.565c-1.832,1.328-6.57.6-5.833.386a7.177,7.177,0,0,0,4.088-4.637,19.345,19.345,0,0,0-.175-3.609c-.091-.928-.179-1.9-.2-2.809-.031-1.684,1.662-3.126,1.6-4.258a19.025,19.025,0,0,0-.616-3.363c-.377-1.8.493-3.165-.551-5.719a5.542,5.542,0,0,0-5.833-3.442c-.83.139-2.307,3.05-2.6,5.11-.083.577-.121.969-.421,1.12-.02.008.12.111.1.118" transform="translate(-487.423 -2122)" fill="none" stroke="#b3b0a7" stroke-linecap="round" stroke-linejoin="round" stroke-width="0.5"/></g><g transform="translate(71.735 381.791) rotate(14)" clip-path="url(#c)"><path d="M140.043,1676.835a8.184,8.184,0,0,0,5.093-14.592,8.186,8.186,0,0,1-12.232,10.413,8.181,8.181,0,0,0,7.14,4.179Zm-38.655,31c.589-.268.993-2.2,1.185-3.369m-12.1-.577a4.7,4.7,0,0,0,2.553,2.321m1.438-29.576a.59.59,0,0,0,.585-.522c0-.022,0-.044,0-.067a.589.589,0,1,0-.706.577.624.624,0,0,0,.118.012Zm-11.776,5.581c0-.788-.394-.788-.394-.788m-.522,2.016a1.47,1.47,0,0,0-.71-1.419m-8.408,5.555s.158,1.261.868,1.419m.158-2.523s.394,2.207,1.5,2.681m54.494-.66-.02,0-.824,1.585-1.745-.287,0,.02,1.243,1.254-.83,1.594.014.007,1.6-.8,1.261,1.273.015,0-.276-1.776,1.579-.79,0-.02-1.745-.287-.273-1.765ZM116.8,1659.005l-.03-.005-1.253,2.409-2.653-.437,0,.03,1.889,1.907-1.263,2.423.022.011,2.434-1.219,1.916,1.935.024,0-.42-2.7,2.4-1.2,0-.03-2.652-.437-.415-2.683Zm-62.75,12.227-.026.012.236,2.509-2.288,1,.011.026,2.433.536.235,2.525h.023l1.285-2.176,2.468.544.017-.015-1.687-1.894,1.267-2.145-.011-.026-2.288,1-1.674-1.884Zm42.027-1.547h0a32.516,32.516,0,0,0-8.523-2.475m-5.789,48.063c-1.021,1.511-2.027,5.841-2.933,9.466-.839,3.354-.643,7.142,1.867,9.762h0m16.713,1.079c-.109-.014-.223-.028-.341-.041-.462-.052-.981-.1-1.467-.1m-10.9-41.662c-.1-.133-.22-.293-.385-.494l-.007-.009c-.534-.648-1-.646-1.273-.331m-1.13,3.2c.213,1.34.951,5.922,1.284,7.1.525,1.857.793.151.588-2.344-.066-.8-.126-1.763-.18-2.738v0c-.118-2.125-.209-4.3-.271-4.915a1.087,1.087,0,0,0-.022-.156m-1.89,2.36a81.086,81.086,0,0,0,1.466,8c1.114,4.541,1.559,3.136,3.37,2.718m-7.42-20.67s-1.058,1.34-.776,2.184m5.272,5.562c-.1-.1-.2-.208-.291-.31-.335-.362-.635-.708-.848-.984-.7-.916-2.451-3.4-2.323-3.662a11.734,11.734,0,0,0,.727-2.256,12.692,12.692,0,0,1,.492-2.506c.238-.4.014-.666-.352-.411a2.328,2.328,0,0,0-.694,1.135,2.685,2.685,0,0,1-.528.943c-.125.065-.6-.72-.713-1.168s-.676-2.7-.77-3.046-.318-.91-.645-.849-.1.853-.039,1.083.379,2.083.372,2.277-.212.361-.333.024-.708-2.339-.826-2.657-.372-.835-.725-.692-.091.88-.024,1.062.766,2.464.78,2.673-.338-.676-.508-1.082-.4-1.2-.555-1.5-.25-.363-.432-.3-.2.387-.115.662.972,2.912.988,3.073-.078.292-.42-.106-.959-1.193-1.117-1.342-.347-.367-.518-.177.112.464.373.835,1.151,1.8,1.425,2.311.674,1.4.931,1.87a4.468,4.468,0,0,0,1.1,1.3c.451.361,2.7,4.483,3.532,5.78.048.074.1.147.145.222.156.233.321.464.491.691.551.738,1.156,1.434,1.691,2.02m-32.189,11.48.161-.709m65.794,11.677-1.451-.438m.206,1.091a6.472,6.472,0,0,0,1.066.106m3.919-.582a3.976,3.976,0,0,0-1.176-.269m-.082,1.357a12.2,12.2,0,0,0,2.056.983m19.564-5.107-2.175.01M142.1,1717a16.682,16.682,0,0,0-3.9.026m3.911,3.11c-2.807-.253-9.635-.221-9.635-.221m-7.6-.552a8.657,8.657,0,0,0-2.714.584m12.172-2.039a43.68,43.68,0,0,0-12.637,1.357m-8.062,2.77s1.6.256,1.98-.083m.588-2.63a21.547,21.547,0,0,0-2.974-1.43m3.275.8c-1.049-.975-5.209-2.173-5.209-2.173m12.218,8.112s8.21,3.7,10.459,4.125m-14.48-5.57a37.516,37.516,0,0,0,4.819,2.784c2.15.955,4.6,2.012,4.6,2.012m-10.669-4.84a.45.45,0,0,0,.676.277.448.448,0,0,0,.149-.153,6.258,6.258,0,0,0,.788-2.145c.034-.2.058-.4.071-.6a6.287,6.287,0,0,0-.066-1.452.45.45,0,0,0-.814-.185m-1.613,4.105a.447.447,0,0,0,.209.283.442.442,0,0,0,.228.063.449.449,0,0,0,.37-.193l.018-.028c.029-.049.057-.1.085-.148a6.229,6.229,0,0,0,.729-3.917c-.006-.044-.013-.088-.02-.133,0-.011,0-.021-.006-.031a.45.45,0,0,0-.808-.153m-.787,4.231a6.242,6.242,0,0,0,.793-4.2c0-.011,0-.022-.007-.032a.45.45,0,0,0-.509-.34.449.449,0,0,0-.372.516,5.407,5.407,0,0,1,0,1.7c0,.019-.006.036-.009.055a5.226,5.226,0,0,1-.17.7,5.372,5.372,0,0,1-.507,1.133.45.45,0,0,0,.757.486c.006-.009.013-.018.018-.028Zm1.465.458a4.324,4.324,0,0,1,.522.633c.907,1.33,6.764,4.483,10.886,6.709s8.614,3.552,9.987,4.212c1.351.648,5.055,2.22,5.171,2.269h0l-5.813-4.005,7.275,2.643-5.352-2.532,5.078,1.3.066-.369-4.207-1.676,6.05.884-3.747-1.638,2.774.525L139.9,1728.9l7.588,1.422-.037-.452L144,1728.228l4.767,1.155.141-.328-5.8-1.925,6.395,1.04-6.633-2.015,7.482.654-3.544-.924,2.265.09-1.9-.747,3.679.421-5.376-1.384,5.94-.389-6.755-.635,4.207-.672-1.267-.331,1.9-.1.075-.4-1.4-.126,2.31-.343-2.752-.474,3.16-.228.039-.451-4.25-.07,5.523-.606-9.9-.263,7.8-.774-1.408-.312,2.515-.212-2.256-.427,3.5-1.445s-.094.022-.261.058a23.071,23.071,0,0,1-6.589.471,43.1,43.1,0,0,0-4.4-.167c-1.519.113-6.611-.329-11.26.239-4.558.557-9.072,1.539-10.225,2.2m-2.279-.25c-2.224-3.079-8.341-3.511-8.341-3.511l-.458.377.519.7-.665-.173-.218.657,2.2,1.393-2.206-.882-.183.477,2.169.935h0l.325.14-2.434-.413-.255,1.347.334.11h0l.008,0a1.591,1.591,0,0,1,.162.053l.021.008h0l.588.194h0l.195.065-1.443.007-.229,1.212.449.085-.472.282-.1.539,2.88.265-2.552.215-.161.434s6.027,1.508,9.067-.181m-8.416-3.184c-.051-.013-.1-.024-.154-.032l-.332-.06-.662-.119-1.325-.238-2.651-.465q-.719-.123-1.437-.242m8.59-.028c-.092-.019-.185-.034-.276-.059-.218-.056-.422-.2-.642-.242a1.469,1.469,0,0,0-.336-.032c-.114,0-.23.015-.344.02a1.677,1.677,0,0,1-.337-.023l-.333-.052-.665-.1-1.33-.206-2.658-.424-.843-.139h0M81.061,1713.7q-2.137-.334-4.272-.688c-1.72-.287-23.713-4.188-25.426-4.511a.15.15,0,0,0-.177.123l-.184,1.1a.151.151,0,0,0,.127.174c1.725.252,23.721,4.139,25.44,4.427,1.736.291,3.468.6,5.2.908l.1.019.331.06c.11.02.222.036.33.066a6.474,6.474,0,0,1,.613.241l.005,0m20.145,16.1a.622.622,0,0,1,.445-.758c.231-.073.893-.238,1.333-.345a.466.466,0,0,0,.347-.539c-.022-.11-.047-.227-.078-.334-.1-.339-.617-1.183-.809-1.152s-2.152.525-2.711.636a6.251,6.251,0,0,0-.826.228h0m-3.5,7.248a4.565,4.565,0,0,0-.088-1.13c-.049-.332-.107-.668-.155-.909l-.012-.055m-.174.923c0,.168.041,1.332.433,1.406.214.04.975-.185,2.332-.356a5.6,5.6,0,0,1,3.259.516c1.523.522,2.294,2.934,2.745,3.351s1.266,1,1.734-.067a6.292,6.292,0,0,0-.15-3.126m-6.424-7.8a1.45,1.45,0,0,0-.342.078,3.394,3.394,0,0,0-1.039.593h0m3.445,1.5c-.373-.543-.523-.941-.726-1.28a1.449,1.449,0,0,0-1.337-.889m10.961,3.626c0-.061-.006-.118-.006-.172,0-.633.284-.85.655-.889.264-.028,1.017-.061,1.516-.081a.512.512,0,0,0,.493-.505c0-.124,0-.256-.01-.379-.028-.388-.408-1.412-.621-1.423s-2.441.1-3.07.094a6.976,6.976,0,0,0-.941.063m-5.374,7.064a4.033,4.033,0,0,0,.141-1.038c.027-.43.042-.9.044-1.218,0-.586-.2-2.034-.283-2.615-.013-.1-.023-.17-.028-.211m-.109,3.906c-.06.407-.147,1.295.19,1.431.223.09,1.094.015,2.6.127l.269.023a6.288,6.288,0,0,1,3.139,1.25c1.531.9,1.835,3.674,2.23,4.223s1.147,1.361,1.889.309.61-4.741.195-5.562-1.472-2.045-2.42-3.534c-.2-.318-.364-.6-.495-.86h0a10.954,10.954,0,0,1-.735-2.038c-.193-.552-.523-1.178-1.249-1.255a1.637,1.637,0,0,0-.388.01,6.476,6.476,0,0,0-2.457,1.117,7.863,7.863,0,0,1-2.64.616c-.093.016-.144.257-.171.463m-4.7-1.868-.531-.237m.532.237c.925.412,2.261,1,3.041,1.329l.4.169.235.1a2.465,2.465,0,0,0,1.023.273c.058,0,.118-.006.183-.013m.239,3.833-.141-.057c-.069-.027-.148-.055-.235-.082a54.616,54.616,0,0,0-7.124-1.066c-.469-.048-.845-.084-1.077-.106m-13.013-18.884-.01.021h0c-.726,1.741-1.847,5.444-2.465,6.934-.67,1.615-.552,5.32-.316,6.778.109.674.194,2.844.336,5.138h0c.166,2.677.411,5.522.865,6.351.844,1.539,1.142,3.276,1.837,3.326s10.141-5.5,12.2-8.743c.02-.031.04-.062.058-.094q.259-.431.505-.832.366-.6.706-1.131c.489-.774.934-1.458,1.329-2.073.33-.514.627-.98.885-1.41.274-.454.506-.867.695-1.255.689-1.426-1.262-2.17-3.093-3.5m-14.5-4.428c.667-1.286,1.943-2.351,3.329-3.934h0a20.438,20.438,0,0,0,1.565-2.018h0c.014-.02.028-.04.041-.061a18.731,18.731,0,0,0,1.375-2.428m-2.981,4.507a2.3,2.3,0,0,0-.311-.062c-.239-.046-.247-.4-.553-.23a1.1,1.1,0,0,1-.795-.078m5.952-6.133a20.372,20.372,0,0,0-2.313,2.382,3.519,3.519,0,0,0-.405,2.037c0,.022-.005.044-.01.066m-3.939.882,0-.024c.068-.375.214-.914.3-1.252.034-.137.062-.269.085-.387.057-.291.084-.5.084-.5m-.471,2.165a1.4,1.4,0,0,0-.03.323.8.8,0,0,0,.388.571c.081.041.23-.041.358-.131a2.52,2.52,0,0,0,.223-.18m3.452-7.937c-.511.969-1.823,3.447-1.952,3.6a11.054,11.054,0,0,1-1.7.654,6.7,6.7,0,0,0-.772.338,3.127,3.127,0,0,1-1.8.427c-.215-.023-.314.191-.248.386a.4.4,0,0,0,.138.189,2.667,2.667,0,0,0,1,.341,5.82,5.82,0,0,0,1.326-.25m8.742-23.677s-1.288,5.953-1.421,7.242a73.047,73.047,0,0,1-3.51,9.878c-.142.212-.046.522.194.869a8.565,8.565,0,0,0,2.277,1.984c.1.066.208.127.307.184a58.571,58.571,0,0,0,10.149,2.834c.978,0-.975-7.736-1.063-9.248s-1.115-10.916-.938-12.828a17.636,17.636,0,0,0,.134-5.024m-14.521,26.354c.808-1.757,1.576-3.7,1.792-4.267a18.627,18.627,0,0,0,.579-2.111,18.088,18.088,0,0,0,.529-3.978,39.717,39.717,0,0,0-1.629-7.22q-.073-.193-.142-.346a5.651,5.651,0,0,1-.309-.856,6.27,6.27,0,0,1,.024-3.118c.221-1.01.474-4.26.757-5.3m3.607-3.881c-1.1.361-3.362,1.44-3.959,2.893-.179.437-.332.831-.464,1.209a11.344,11.344,0,0,0-.58,2.587,31.287,31.287,0,0,0,.229,5.117m9.652,36.139s.9-1.554,1.732-2.85c.267-.416.606-.9.991-1.423,1.492-2.033,3.671-4.7,4.984-6.577a15.194,15.194,0,0,0,.827-1.287h0c.076-.138.14-.265.188-.378a14.13,14.13,0,0,0,.933-7.175c-.263-1.579-.631-3.509-1.046-5.264-.222-.945-.458-1.839-.7-2.6-.685-2.178-1.063-5.373-1.529-7.738a30.09,30.09,0,0,1-.47-5.222c0-.142-.01-.277-.016-.4a12.6,12.6,0,0,0-1.105-4.04,6.431,6.431,0,0,0-1.093-1.653m-3.312-6.186a6.8,6.8,0,0,0-.793,1.868,6.062,6.062,0,0,0-.17,2.518,1.453,1.453,0,0,0,.356.7,3.838,3.838,0,0,0,2.956,1.24c.37-.042.7-.093.963-.138.4-.068.639-.126.639-.126a1.868,1.868,0,0,1-1.311-1.39c-.158-1.073.4-1.429.238-2.343m-.875-5.893a1.526,1.526,0,0,0,.209.219c.134.124.321.286.544.481s.481.43.757.694a16.04,16.04,0,0,1,1.221,1.3,10.835,10.835,0,0,1,1.13,1.633,7.69,7.69,0,0,0,4.941,3.662,5.814,5.814,0,0,0,2.8.1c.639-.221.124.294-.27.566a3.713,3.713,0,0,1-1.327.564c-.2.016.174.274.607.7.57.564-2.037,4.358-4.935,4.8-.664.1-.588.515-.588.712,0,.178-.875.5-1.57.41m-13.582-18.74a.817.817,0,0,0-.29.288,4.556,4.556,0,0,0-.392.718,5.8,5.8,0,0,0-.408,1.279,15.834,15.834,0,0,0-.114,3.338c.057.84.672,2.678.181,4.3-.479,1.583-1.146,4.543-.609,5.487m10.392-9.465a2.535,2.535,0,0,0,.809-1.912.81.81,0,0,0-1.264-.58,3.27,3.27,0,0,1-.207.26c-.487.544-.594.071-1.189-.292a1.008,1.008,0,0,1-.1-.068h0a4.467,4.467,0,0,1-.77-.921c-.313-.461-.6-.966-.773-1.269h0m-1.612-.459a6.964,6.964,0,0,0-1.659.561h0a5.084,5.084,0,0,0-.757.456,4.249,4.249,0,0,0-.649.579,3.788,3.788,0,0,0-.607.9l-.01.129c-.045.543-.1,1.13-.128,1.512a7.3,7.3,0,0,0,.65,3.059c.36.719.835,1.818,1.8,2.146a1.833,1.833,0,0,0,.66.093,3.48,3.48,0,0,0,2.313-1.059m0-7.915-.565-.165c-.351-.1-.7-.2-1.047-.294a13.357,13.357,0,0,0-3.659-.7c-.33.086-.328.213-.289.289m10.56,2.822c0-.061-.057-.133-.208-.219a30.243,30.243,0,0,0-4.792-1.728m8.078-5.314a4.449,4.449,0,0,0,.994-.026m-3.611-2.9c-1.36,0-4.684,1.806-6.175,2.616m4.831-.361s0,1,.122,2.313h0c.028.308.064.633.108.967.048.365.1.724.163,1.065h0c.151.881.321,1.655.414,2.195m3.2-6.922a7.192,7.192,0,0,0-1.356.52,3.507,3.507,0,0,0-1.009.663c-.229.3-.42.915-.991,1.145a1.248,1.248,0,0,0-.527.368m2.527-2.175a2.012,2.012,0,0,1,1.2.815,8.644,8.644,0,0,0,1.336,1.832,2.145,2.145,0,0,0,1.487.8c.229,0-.42-.458-.916-1.259s-.076-1.792-.267-2.479-1.6-1.64-2.4-2.288a11.722,11.722,0,0,0-4.425-1.6,5.12,5.12,0,0,0-3.2,1.259,27.153,27.153,0,0,0-3.318,4.234c-.09.142-.182.282-.274.421-.44.67-.881,1.289-1.157,1.669h0m11.472,5.571c1.635.148,3.23.29,3.331-.041.118-.385-1.814-1.293-2.61-1.666-.5-.237-1.1-.5-2.1-.862-1.091-.395-2.663-.905-5.116-1.625-1.908-.559-.728-.181-4.006-1.1-.367-.1-.685-.194-.972-.272h0a12.54,12.54,0,0,0-2.318-.475c-1.093-.109-3.145-.2-3.246.235-.061.269,1.024.783,3.186,1.8.73.343,1.166.548,1.6.733m3.442,10.844a3.394,3.394,0,0,0-1.078.954c-.444.666-.707,3.049-.2,3.635s1.777-.061,2.242-.909a12.5,12.5,0,0,1,2.524-3.009c.387-.322.81-.671,1.2-.98m-5.157-1.5a3.182,3.182,0,0,1,.5,1.265,1.4,1.4,0,0,1,0,.3c-.009.082-.02.16-.032.237a4.205,4.205,0,0,1-.432,1.317" transform="translate(-70.203 -1653.959)" fill="none" stroke="#b3b0a7" stroke-linecap="round" stroke-linejoin="round" stroke-width="0.5"/></g><g transform="translate(-142.205 152.637) rotate(-9)"><path d="M193.073,53.062c-.023.161-.082.5-.155.9a17.861,17.861,0,0,1-.469,2.014,2.19,2.19,0,0,1-.144.354c-.36.65-1.735,2.681-3.406,2.681s-3.013-1.669-3.373-2.43c-.07-.149-.164-.389-.264-.676h0c-.17-.486-.375-1.106-.548-1.666-.044-.135-.082-.263-.12-.386v0c-.1-.325-.191-.609-.246-.8m-.771,1.089a1.906,1.906,0,0,0,.868,1.622,1.259,1.259,0,0,0,.378.158.73.73,0,0,0,.355.006.721.721,0,0,0,.085-.023h0m7.186.07a.531.531,0,0,0,.185.029,1.052,1.052,0,0,0,.624-.208,1.616,1.616,0,0,0,.407-.4,1.97,1.97,0,0,0,.381-1.106m-10.8-4.183c-.094.143-.179.281-.255.419v0a5.754,5.754,0,0,0-.51,1.2,1.991,1.991,0,0,0-.047.3v0c-.059.571-.059,1.522-.281,1.739s-.2.705.387.723a1.664,1.664,0,0,0,.56-.085,1.38,1.38,0,0,0,.472-.266v0a3.31,3.31,0,0,0,.771-1.086,6.481,6.481,0,0,0,.416-1.136l0,0a5.926,5.926,0,0,0,3.945-3.29,5.908,5.908,0,0,0,3.942,3.29,7.022,7.022,0,0,0,.422,1.145,2.837,2.837,0,0,0,.973,1.227,1.157,1.157,0,0,0,.267.123,1.833,1.833,0,0,0,.475.085c.668.029.7-.5.472-.723a2.2,2.2,0,0,1-.273-1.019v0a3.716,3.716,0,0,0-.191-.849c-.076-.176-.205-.448-.387-.8-.067-.129-.141-.269-.223-.422s-.182-.334-.287-.521c-.041-.073-.085-.149-.129-.228-.067-.12-.138-.231-.211-.34a4.51,4.51,0,0,0-.434-.547v0a4.428,4.428,0,0,0-.528-.492,6.1,6.1,0,0,0-.75-.509c-.114-.07-.234-.138-.36-.2a1.652,1.652,0,0,0-.176-.082,3.9,3.9,0,0,0-.665-.193,6.781,6.781,0,0,0-.818-.126c-.185-.02-.378-.035-.574-.044-.246-.009-.5-.012-.756,0q-.312.009-.624.035c-.284.026-.566.064-.841.117a6.983,6.983,0,0,0-.68.161,5.3,5.3,0,0,0-.563.2,4.157,4.157,0,0,0-.525.258c-.085.05-.17.1-.249.155a5.932,5.932,0,0,0-.577.433c-.164.141-.317.287-.46.436a5.5,5.5,0,0,0-.407.477,5.341,5.341,0,0,0-.322.448m.041,1.669a1.639,1.639,0,0,0,1.471.149l0,0m7.887,0a1.784,1.784,0,0,0,1.266,0m-.252,3.475c.191.77.58,2.333.953,3.7v0c.223.823.437,1.578.6,2.049.369,1.08.979,2.541,1.328,3.542m-2.57-.486a6.643,6.643,0,0,0-.141-.825c-.2-.8-1.65-4.716-1.82-5.172m-8.863.287c.032-.1.064-.211.094-.322a23.469,23.469,0,0,0,.53-3.153m.636,5.234a27.076,27.076,0,0,0,.41-4.326m-1.943,2.21a2.729,2.729,0,0,0,.366.035m-.7-3.674a4.8,4.8,0,0,1-.695,1.657,1.132,1.132,0,0,0-.176.79M194.618,59.1v0a1.559,1.559,0,0,0,1.237-2.163,7.791,7.791,0,0,1-1.067-2.435m.2-1.742v0a5.091,5.091,0,0,0,.105-.679c.029-.31.05-.711.053-1.232q0-.347-.009-.764a5.556,5.556,0,0,0-.053-.615,6.108,6.108,0,0,0-.3-1.25,6.237,6.237,0,0,0-.648-1.326A6.11,6.11,0,0,0,193,45.562a6,6,0,0,0-1.4-.91,6.6,6.6,0,0,0-2.031-.562,7.935,7.935,0,0,0-.932-.056c-.24,0-.481.009-.721.029a7.915,7.915,0,0,0-2.494.585,6.19,6.19,0,0,0-1.451.858,5.451,5.451,0,0,0-1.2,1.349,5.745,5.745,0,0,0-.607,1.32,6.263,6.263,0,0,0-.2.785,4.513,4.513,0,0,0-.07.5,4.261,4.261,0,0,0,.091,1.385,4.365,4.365,0,0,0,.463,1.183v0m2.509,8.948c.92-1.569.431-4.177.229-5.052m7.459.076a16.776,16.776,0,0,0-.621,2.2,9.423,9.423,0,0,0,.328,5.775m-2.775-19.89-.618-6.949-1.035,6.923m5.088,1.5,4.71-5.386L191.6,44.652m3.186,3.559,6.794-3.106-7.441,1.78m1.011,3.955L203,50.032l-7.913-.571m-9.666-4.812-6.111-4.473,4.66,5.33m-7.641.006,5.829,2.664m.607-1.32-6.445-1.54m5.656,5.532-2.726-.278m-.516-.881,3.151-.225m-9.754,1.455a18.185,18.185,0,0,0-3.482,7.286c-.557,2.924.067,6.13,1.046,7.315a1.485,1.485,0,0,0,1.521.422,6.792,6.792,0,0,0,3.57-2.582,25.848,25.848,0,0,0,2.931-4.666A32.508,32.508,0,0,0,179.8,54.2a3.614,3.614,0,0,0,.217-1.016,6.96,6.96,0,0,0-.768-2.617,6.643,6.643,0,0,0-.516-.881,3.48,3.48,0,0,0-.46-.542,3.332,3.332,0,0,0-1.805-.825m-6.178,11.729c.29.345,1.152.231,2.131-.173a3.243,3.243,0,0,0,1.008-1.019,51.391,51.391,0,0,0,3.195-5.418,9.834,9.834,0,0,0,.633-1.428,3.758,3.758,0,0,0,.229-2.184M174.044,59.7a18.964,18.964,0,0,0,4.651-7.295m-9.044,10.86s.032.89,1.644.776,3.8-3.281,3.8-3.281m-3.883,5.181c.05.732-.223,1.68.17,2.219.457.632,1.726.861,1.955,1.493s-.689,2.242-.114,2.875-.92,2.93-.114,4.081c.78,1.118,1.94,2.178,2.116,4.651m-.8-6.817a18.785,18.785,0,0,0,3.115-4.385c1.266-2.473,3.224-10.064,3.051-11.788M174.63,69.636a15.817,15.817,0,0,0,2.512-3.835m3.23,2.573a41.915,41.915,0,0,0,1.266-6.264M179.8,54.2a4.314,4.314,0,0,0,.955,1.827c.267.3.595.612.917.913.445.413.873.8,1.114,1.077.026.035.059.073.091.114.079.1.173.22.273.357.358.486.824,1.159,1.26,1.759.1.138.2.272.293.4.07.091.152.2.243.331.777,1.083,2.289,3.232,4.346,4.177a12.08,12.08,0,0,0,1.627.618M184.788,62.8c.451.9,1.483,2.954,3.063,3.4m4.871-.852a5.062,5.062,0,0,0-1.8.422,4.952,4.952,0,0,0-.95.571,86.362,86.362,0,0,0-10.577,9.613,40.277,40.277,0,0,0-4.165,5.3,26.858,26.858,0,0,0-1.849,3.715c-1.656,3.9-1.706,7.259-1.152,8.711.428,1.136,1.9,1.382,2.907,1.244m-4.891-60.2c.123,1.73.258,3.846.328,5.137a27.216,27.216,0,0,0,.929,6.411,25.906,25.906,0,0,1,.63,4.643c.047.626.082,1.15.126,1.49.026.193.05.492.082.861.129,1.528.358,4.242,1.09,5.591m3.828-6.847c-.1-.34-.3-1.027-.463-1.695-.041-.164-.079-.325-.114-.477-.053-.249-.1-.48-.126-.673-.035-.22-.062-.512-.085-.846-.059-.834-.1-1.932-.141-2.81,0-.067-.006-.132-.009-.2-.018-.322-.032-.606-.05-.828a23.358,23.358,0,0,0-.894-5.251,18.351,18.351,0,0,1-1.079-5.509c-.053-1.25-.012-5.849-.012-6.6a5.393,5.393,0,0,0-.416-2.219,3.871,3.871,0,0,1-.451-1.171,1.616,1.616,0,0,0-.659-.787c-.023-.015-.047-.032-.067-.044a1.862,1.862,0,0,1-.528-.533c-.193-.258-.5-.735-.97-.19-.185.211-.076.992.117,1.4a9.7,9.7,0,0,0,.715.986,1.4,1.4,0,0,1,.082.143c.106.214.287.571.445.875v0c.135.249.249.465.3.539m-4.607-5.2c0-.056,0-.12-.006-.2,0-.155-.015-.345-.038-.542-.012-.1-.026-.2-.047-.293a1.94,1.94,0,0,0-.158-.492c-.211-.407-.548-.281-.583-.053-.012.067-.029.211-.041.386a3.6,3.6,0,0,0,.041,1.262c.141.316.566.866.9,1.467m-.249,1.171s.34.041.736.056c.176.006.366.006.542-.006.566-.032,1.187-.015,1.2-.457.021-.5-.214-.656-1.046-.746a3.875,3.875,0,0,0-.777-.015,1.717,1.717,0,0,0-.384.073.945.945,0,0,0-.648.562c-.246.621.463.866.463.866a.05.05,0,0,0-.018.012.694.694,0,0,0-.284.5.708.708,0,0,0,.407.849,3.331,3.331,0,0,0,.648.1c.952.1,2.585.126,2.667-.31a.642.642,0,0,0-.082-.512.962.962,0,0,0-.7-.3c-.261-.029-1.19-.143-1.969-.24l-.686-.085m.618,3.158.249-.161c.246-.158,1.559-.246,1.843-.386s.267-.5-.073-.638a6.752,6.752,0,0,0-1.843-.146,2.116,2.116,0,0,0-.46.056c-.39.126-.352.831-.211,1.5a7.676,7.676,0,0,0,.888,1.944m3.54-6.4.076-1.5.021-.366a.344.344,0,0,0-.193-.325,4.9,4.9,0,0,0-2.013-.424,4.089,4.089,0,0,0-1.761.342.34.34,0,0,0-.188.331l.021.351h0l.07,1.153m3.555,8.465.273-5.342v0m-3.62.22-.023-.375m.1,1.546.144,2.333.1,1.642m-.428-6.888-.023-.375m3.965-2.286c.155-.026.355-.085.384-.2.047-.187.117-1.13.117-1.13a1.183,1.183,0,0,0-.2-.141h0a5.277,5.277,0,0,0-2.576-.495,3.329,3.329,0,0,0-2.037.495,1.158,1.158,0,0,0-.249.249m.041.542a2.078,2.078,0,0,0,.41.585h0m4.408-1.376h0a4.592,4.592,0,0,0,2.538-.875l.029-.041a.384.384,0,0,0,.088-.237c0-.723-2.222-1.308-4.965-1.308s-4.962.585-4.962,1.308a.333.333,0,0,0,.009.073v0c.076.345.662.656,1.565.875m.783.158h0c.1.018.193.029.3.044m7.154-.875.029-.041.61-.8.167-3.021a.567.567,0,0,0-.249-.5,8,8,0,0,0-3.455-.869c-.5-.053-1.052-.094-1.685-.126-.589-.026-1.12-.029-1.6-.012-2.62.088-3.631.767-3.983,1.121a.576.576,0,0,0-.161.416l.094,2.69.431.94v0m9.147-1.683a13.534,13.534,0,0,0-4.1-.594,12.762,12.762,0,0,0-4,.416m5.862-3.17c.1-.389.407-.465,1.005-1.1a2.727,2.727,0,0,0,.431-2.459,7.086,7.086,0,0,1-.208-1.686c0-1.068.378-1.294.378-1.294-.742-.187-1.2.866-1.2.866a6.33,6.33,0,0,0-.152-2.008c-.258-.861-1.257-.6-1.257-.6.982.36.018,1.891-.17,1.821s-.07-.515-.07-.515c-.636.05-1.366.992-1.366.992a.885.885,0,0,0-.569-.673.805.805,0,0,0-.923.4.977.977,0,0,1,.56.181c.545.413.27.846-.076,1.291a3.484,3.484,0,0,0-.947,1.894,4.038,4.038,0,0,0,1.287,2.755m3-1.5a2.424,2.424,0,0,0,.788-2.4m-1.187,22.428c.3-.088.489-.2.489-.334a.011.011,0,0,0,0-.009v-.009c-.015-.138-.232-.255-.566-.34a5.481,5.481,0,0,0-2.336,0c-.343.088-.563.211-.566.354v0c0,.152.261.29.665.378m2.8-.381v-.711h0c0-.088-.088-.17-.237-.243v0a3.956,3.956,0,0,0-1.5-.237,3.686,3.686,0,0,0-1.53.258c-.132.067-.205.143-.205.225v.711m2.67,1.993.311-1.657.05-.281s-.267-.266-1.3-.284h-.091c-.944,0-1.035.269-1.035.269l.056.34.293,1.809m.906-.568a.9.9,0,0,0-.906.568v.006a.523.523,0,0,0-.021.149.638.638,0,0,0,.258.5,1.06,1.06,0,0,0,.668.222.84.84,0,0,0,.923-.72.6.6,0,0,0-.117-.351A.985.985,0,0,0,170.911,33.508Zm.654-5.851-.059,1.657m-1.02-1.32.029,1.4m1.823,23.877a17.03,17.03,0,0,0-1.7,3.185M189.7,68.283c-1.547,2.207-6.131,6.22-8.675,9.753s-4.191,6.443-4.191,7.379m-1.647,7.511a6.89,6.89,0,0,0-.24.729m15.474-21.085c-.774,1.765-5.859,7.063-7.57,8.445a18.544,18.544,0,0,0-3.318,3.422,55.813,55.813,0,0,0-4.346,8.486m0,0v0l-.053,2-.035,1.478m4.214-8.384s-2.456,4.648-4.214,8.384v0a29.866,29.866,0,0,0-1.7,4.089,17.218,17.218,0,0,0,1.131,9.1m2.394-11.688a33.381,33.381,0,0,0-2.142,7.836c-.164,1.56-.232,2.807-.252,3.852-.026,1.4.029,2.433.029,3.378,0,1.654.61,4.195.387,5.354a33.861,33.861,0,0,0-.829,4.912,2.565,2.565,0,0,0,.545,1.592m10.891-39.968c-.994,1.768-3.977,9.109-4.7,10.93m-2.16,41.88c.7-2.415,4.631-18.043,6.155-24.126l0,0m7.767-11.106c-.727,1.259-4.642,6.929-7.767,11.106l0,0c-1.19,1.592-2.268,2.971-3.007,3.8-2.353,2.643-4.654,5.749-7.084,7.011-.035.149-.067.307-.1.471a50.222,50.222,0,0,0-.741,8.542c0,.462.009.9.026,1.306.114,2.763.278,4.616.319,5.026m2.3-2.866a29.847,29.847,0,0,1-2.3,2.866,2.121,2.121,0,0,1-.516.41c-.721.331.325,3.466.785,4.323v0a10.945,10.945,0,0,0-.656,2.356,7.45,7.45,0,0,1-2.031,3.079,1.987,1.987,0,0,0-.788,1.7c.07.457,2.339-.173,3.96-.4a4.99,4.99,0,0,1,1.163-.064,9.478,9.478,0,0,0,2.72,0c2.013-.1,1.509-.2,2.717,0a11.186,11.186,0,0,0,3.373-.2,23.253,23.253,0,0,1,3.324-.249c.8.047.51-.234.51-.234v-1.057m-13.983,1.092c1.1-1.162,2.441-5.819,2.969-7.772m-3.277,1.748a1.616,1.616,0,0,0,1.556.184m3.429-16.972c-1.949.234-4.522,3.893-4.522,3.893m2.028,11.132a1.228,1.228,0,0,0,.785.015,4.077,4.077,0,0,0,1.785-1.106c1.638-1.554,1.949-3.27,2.5-4.045a6.785,6.785,0,0,1,1.826-1.815v0a16.641,16.641,0,0,1,3.942-1.92c4.129-1.478,7.482-3.5,7.638-4.517l.006-.067c0-.916-3.139-.36-3.748-1.955l0-.006c-.615-1.63,1.02-1.786,2.342-2.64.243-.158.721-.433,1.348-.787,1.1-.621,2.655-1.475,4.156-2.324,1.7-.96,3.338-1.911,4.165-2.5a2.325,2.325,0,0,0,.542-.465c.258-.427-.264-4.341-.847-8.448-.481-3.363-1-6.856-1.178-8.679-.39-4.048-1.014-5.371-.469-6.618s1.325-2.333,1.4-3.659a1.907,1.907,0,0,0-.012-.3c-.22-1.806-2.518-7.611-3.027-9.581-.545-2.1-.859-1.168-1.014-3.194s-.545-4.669-.7-6.071m-5.032,20.148v.006c-.026.4-.07.986-.12,1.7-.152,2.172-.4,5.535-.636,8.6-.232,2.951-.46,5.617-.6,6.68-.39,2.877-2.025,16.167-.317,18.134a.009.009,0,0,1,0,.006s0,0,0,0m3.74,2.023a.48.48,0,0,0,.006-.067,41.333,41.333,0,0,0-.062-5.386m-11.635-14.01c.621-.855,2.26-9.809,3.663-13.934a85.924,85.924,0,0,0,3.162-14.238m4.446-14.337c-.856,1.733-3.927,9.156-4.282,9.914m2.21-10.081a7.111,7.111,0,0,0-.853,1.382m3.4,2.687s-2.992,17.622-2.992,19.118c0,1.226-.026,2.883.747,3.513m5.947-24.433-1.832-1.622m5.185,6.952a15.425,15.425,0,0,0-1.263-5.594,7.6,7.6,0,0,0-2.629-2.8,3.911,3.911,0,0,1-1.36-1.139,3.331,3.331,0,0,0-.815-.521,4.634,4.634,0,0,0-1.814-.442c-.258-.009-.513-.023-.756-.044-.695-.061-1.3-.161-1.632-.222-.308.009-.147.787.381,1.376.023.026.047.053.073.079a6.035,6.035,0,0,0,2.286,1.879,6.476,6.476,0,0,0,2.342.477M206.8,79.419c-1.111-1.142-2.978-2.576-3.376-3.205-.252-.4-.533-.919-.818-1.467v0c-.234-.448-.472-.913-.695-1.344-.492-.948-.92-3.132-1.477-3.852a4.04,4.04,0,0,0-2.858-1.739c-.053-.006-.105-.009-.155-.018h0m1.161-.6a3.536,3.536,0,0,0-2.35-.307m6.351,10.04s.29,4.95.607,8.8c.026.322.053.638.079.94.07.817.237,2.274.457,4.086.193,1.6.428,3.48.68,5.439.012.105.026.208.038.313.314,2.435.648,4.985.95,7.277.492,3.738.9,6.8,1.011,7.6.267,2.034.437,2.81.17,3.559m-.041-1.382a2.263,2.263,0,0,0-.132-.492,7.333,7.333,0,0,0-2.943-2.974m.6,27.785c.519-.445,1.691-1.528,1.717-2.3.032-.943-.487-7.2-.487-8.261s.944-1,1.035-1.578a4.47,4.47,0,0,0,.029-.533c.006-.887-.091-2.4-.091-2.933,0-.439.4-.738.633-1.215a1.569,1.569,0,0,0,.161-.913c-.073-.667-.308-3.249-.487-5.2-.073-.773-.135-1.449-.173-1.873m-2.266,10.646c0-.237-.018-.656-.053-1.159-.041-.571-.1-1.253-.158-1.894s-.12-1.241-.161-1.654m2.919,2.081a.4.4,0,0,0,.056-.105c.085-.24.056-.7-.249-.837a5.216,5.216,0,0,0-2.564.515m.158,1.894a3.871,3.871,0,0,1,1.161,1.683c.085.471.832.583.885.966m-5.645.023s-1.281,15.3-1.462,18.436m2.875-12.73c-.12,4.04.015,13.521.375,14.6m-17.761,5.172a5.347,5.347,0,0,0,2.016-2.269,17.439,17.439,0,0,0,1.134-3.317c1.005-3.674,2.154-9.156,2.424-11.164m-8.719,16.615a4.942,4.942,0,0,0,1.943-2.263,66.26,66.26,0,0,0,1.9-7.441m-4.08,3.393c1.328-1.95,2.216-5.366,2.79-8.539v0m4.666,13.568a1.9,1.9,0,0,0,.24.082,8.4,8.4,0,0,0,2.764.269.805.805,0,0,0,.469-.211c.208-.22.082-.562-.126-.861-.3-.43-1.032-.515-1.246-.773m1.372,1.633a4.053,4.053,0,0,0,1.427.2.735.735,0,0,0,.135-.041.434.434,0,0,0,.179-.149.523.523,0,0,0-.032-.609c-.164-.167-.563-.378-.706-.565m.56,1.323a2.408,2.408,0,0,0,.733.044.653.653,0,0,0,.114-.035.41.41,0,0,0,.243-.281.5.5,0,0,0-.091-.436,7.788,7.788,0,0,1-.665-.533m.513,1.25a2.011,2.011,0,0,0,.633.035.394.394,0,0,0,.29-.2.454.454,0,0,0-.05-.486,6.913,6.913,0,0,1-.6-.483m-5.911,1.964c2.383.623,6.755.047,6.755.047a.849.849,0,0,0,.123-.173,1.188,1.188,0,0,0,.006-.925m-.319.056a1.03,1.03,0,0,0,.2-.009.36.36,0,0,0,.123-.047.352.352,0,0,0,.073-.515,2.543,2.543,0,0,0-.492-.392,8.581,8.581,0,0,0-2.447-.542,11.618,11.618,0,0,0-2.157-.141,2.866,2.866,0,0,0-.785.182,1.932,1.932,0,0,0-1.316,1.32,2.358,2.358,0,0,0-.073.4m3.828-3.276a10.6,10.6,0,0,0-4.678-1.294m9.932,4.61a7.8,7.8,0,0,1-1.723-1.973,12.539,12.539,0,0,0-4.329-3.15m2.479-9.408c-1.093,3.024.249,6.387,1.09,8.278M187,150.576a5.832,5.832,0,0,0,.422-2.476m8.282,2.2a10.19,10.19,0,0,0,2.233.123c.633.076.633.351,2.166.746a10.819,10.819,0,0,0,3.663.667,1.447,1.447,0,0,0,.756-.217.167.167,0,0,0,.029-.249,4.471,4.471,0,0,1-1.328-1.991m1.3,2.239a1.406,1.406,0,0,0,1.246.1c.317-.214.149-.524-.9-3.071-.463-1.124-.689-5.8-.806-10.772-.152-6.3-.138-13.082-.234-13.778a1.136,1.136,0,0,0-.085-.316c-.387-.913-1.808-.828-2.588-1.063a3.055,3.055,0,0,1-1.553-1.215m6.43-19.966c.343.389.545.562.788.615h0a3.232,3.232,0,0,0,.988-.064c.976-.126,1.753-2.2,2.307-3.454.484-1.1.853-5.131.935-6.776m-5.659,11.92a13.144,13.144,0,0,0,1.427-1.625h0m2.693-4.821c.067-.785.073-2.605.073-3.621m-3.165,6.384a1.153,1.153,0,0,0,1.864-.085,21.956,21.956,0,0,0,.4-4.809m-2.764,1.888a9.4,9.4,0,0,0-.117,1.387m7.456-9.227a3.75,3.75,0,0,0-.158-1.373l-.009-.015c-.114-.187-.428-.682-.715-1.115-.2-.3-.384-.577-.478-.7l0,0a.314.314,0,0,0-.026-.032.741.741,0,0,0-.3-.2c-.188-.073-.39-.079-.481.035-.3.381.223,1.294.463,1.628a1.427,1.427,0,0,1,.164.4,6.735,6.735,0,0,1,.243,1.546c-.012.123-.018.266-.023.386-.009.149-.015.261-.015.261m2.74-2.462a3.851,3.851,0,0,0-.053-.48,2.625,2.625,0,0,0-.475-.966,4.122,4.122,0,0,0-.3-.366,6.378,6.378,0,0,0-.58-.55,1.252,1.252,0,0,0-.569-.337c-.144-.012-.484-.094-.794-.12-.249-.023-.481-.012-.574.1a.588.588,0,0,0,.129.834c.032.023.079.059.129.094m1.527,2.067a2.049,2.049,0,0,0-.1-.957,4.191,4.191,0,0,0-.486-.413c-.193-.149-.419-.313-.615-.46a0,0,0,0,1,0,0m3.622.58a5.49,5.49,0,0,0-.3-.887.625.625,0,0,0-.094-.149c-.062-.067-.217-.222-.4-.4-.328-.316-.756-.708-.944-.852a.428.428,0,0,0-.059-.044,1.807,1.807,0,0,0-1.184-.184c-.668.056-.7.389-.648.667m-1.2,7.1c.12,0,.237-.006.355-.015a3.887,3.887,0,0,0,2.2-.685,31.208,31.208,0,0,0,1.926-2.959c.574-.758,1.814-2.942,1.723-3.331a5.419,5.419,0,0,0-1-1.639c-.123-.149-.255-.3-.393-.451-.19-.2-.36-.381-.513-.533-.463-.451-.78-.644-1.043-.462-.457.31-.129,1.033.369,1.607a.009.009,0,0,1,0,.006c.334.381.671.732.87,1a.916.916,0,0,1,.185.34,4.46,4.46,0,0,1-.15.984m.671-2.494,1.568-2.6-.51-.322-.613-.381L215,82.264m.2,2.154-.463.773m-.407-1.777-.536.925m-1.266,2.172-.138.24m-7.981,9.44,1.591.621.434.167.809.632,1.454-2.406.9-1.49,1.108-1.838,1.249-2.07m-.217-1.932-5.3,9.1m10.53-16.653,1.111-1.227-1.09-.562-1.266,1.057.633.351m.633-1.408-7.1-3.794-.141,1.616-.879-.524L206.8,79.419l-3.614,6.308m-1.377,4.37c-.68-1.642-1.237-4.116-2.274-5.922a4.929,4.929,0,0,0-1.694-1.87c-2.265-1.335-2.884-1.285-2.884-1.285m-1.9,11.568a2.4,2.4,0,0,1,.375-.445c.545-.542,1.445-1.133,2.406-1.97a8.72,8.72,0,0,0,2.52-4.578m1.761,11.527c-.193-3.759-.352-10.134-.58-12.947m-2.617-18.1a3.71,3.71,0,0,0-1.744.375m.375-1.25a6.013,6.013,0,0,0-1.254.152M204.445,96.5l1.486.588,1.31.518" transform="translate(10 16)" fill="none" stroke="#b3b0a7" stroke-linecap="round" stroke-linejoin="round" stroke-width="0.5"/></g><g transform="matrix(0.883, 0.469, -0.469, 0.883, 984.501, -2425.419)" clip-path="url(#d)"><path d="M748.068,907.747a2.43,2.43,0,0,0-2.285,1.59m11.927,1.432a1.824,1.824,0,0,0-.166-1.471m.685-2.373s-2.079-.411-2.643.5a4.2,4.2,0,0,0-.5,1.33m.349-2.66a3.784,3.784,0,0,0-.819-1.74m-3.37,2.425a8.08,8.08,0,0,0,.639-1.906c.037-.16.059-.258.059-.258m-.059.258a4.554,4.554,0,0,0-1.023-.27m1.908,3.392c-.675-.9-1.418-.336-1.91.24l-.083.1a10.642,10.642,0,0,0-1.006,2.434m1.24,0a5.048,5.048,0,0,0,1.824-2.357,2.556,2.556,0,0,0,.1-.4.916.916,0,0,0-.049-.632,2.285,2.285,0,0,0-.893-.446h-.005a4.7,4.7,0,0,0-.74-.16,4.291,4.291,0,0,0-1.711.113,3.074,3.074,0,0,0-.714.318,5.729,5.729,0,0,0-.748.538,11.986,11.986,0,0,0-1.69,1.805m4.654,35.057v-33.84m-3.81,0v33.84m-14.563-26.286v26a.287.287,0,0,0,.287.288h31.7a.286.286,0,0,0,.287-.288v-26m-13.9,0h15.013a.389.389,0,0,0,.388-.392V911.16a.39.39,0,0,0-.388-.392h-34.5a.39.39,0,0,0-.388.392v6.771a.388.388,0,0,0,.388.392h15.678m8.485-7.554a5.827,5.827,0,0,0,1.836-1.471q-.816-.21-1.644-.383c-.272-.057-.544-.112-.818-.161q-1.122-.208-2.252-.341m-7.413-2.234c.021-.232.055-.589.106-1.025a5.386,5.386,0,0,0-.018-1.335,6.223,6.223,0,0,0-.129-.671m3.44,4.062a3.906,3.906,0,0,0-.642-.2c-.659-.15-1.361-.184-2.017-.336l-.023,0a2.983,2.983,0,0,0-1.716-.061,2,2,0,0,0-1.131,1.338,4.04,4.04,0,0,0-.14,1.18m1.1,1.641a3.863,3.863,0,0,0-1.638-.382,2.573,2.573,0,0,0-1.668.382m7.546,0a6.826,6.826,0,0,0-.828-.584,10.8,10.8,0,0,0-1.282-.632c-.2-.079-.395-.151-.595-.215a5.9,5.9,0,0,0-1.833-.3,4.037,4.037,0,0,0-.8.087,3.86,3.86,0,0,0-1.168.451,2.963,2.963,0,0,0-1.149,1.19m15.07-1.855a7.039,7.039,0,0,0,2.329-1.99,3.463,3.463,0,0,0-2.8-.831c-.125.011-.251.026-.375.046-.28.045-.559.105-.834.176-.748.193-1.481.454-2.236.624m2.236-.624a4.1,4.1,0,0,0,.39-1.962,11.739,11.739,0,0,0-2.084.892m-1.007-.953a3.231,3.231,0,0,0-.663.309,10.02,10.02,0,0,0-2.682,2.41m3.806-.074a12.055,12.055,0,0,1,.546-1.692c.024-.062.049-.127.07-.193a1.333,1.333,0,0,0-.29-1.492,1.562,1.562,0,0,0-1.377-.038,12.428,12.428,0,0,0-1.533.589,11.8,11.8,0,0,0-2.583,1.613,5.891,5.891,0,0,0-.815.833m3.4-2.446a8.1,8.1,0,0,0-3.8-1.558.639.639,0,0,0-.479.069.67.67,0,0,0-.176.522c0,.11-.008.219-.01.328-.006.438,0,.874,0,1.31,0,.522.011.907.021,1.17m1.2.724-.158-.119a6.141,6.141,0,0,0-.582-.378,4.2,4.2,0,0,0-.458-.227,1.769,1.769,0,0,0-.911-.158c-.546.081-1.093.168-1.633.285a10.072,10.072,0,0,0-1.709.518,1.406,1.406,0,0,0-.914.795,1.006,1.006,0,0,0,.245.882,2.941,2.941,0,0,0,.746.574l1.2.731m.437-3.5a5.875,5.875,0,0,1-.232-1.715,2.447,2.447,0,0,1,.189-1,1.113,1.113,0,0,1,.745-.64,1.741,1.741,0,0,1,1.2.367l.622.38m-33.349-30.36a13.164,13.164,0,0,1,1.657,2.393,29.639,29.639,0,0,1,2.47,6.182,56.7,56.7,0,0,1,1.395,22.641c.978-.691,2.837-2.614,3.282-2.978a.309.309,0,0,1,.09-.061,33.683,33.683,0,0,1,2.739,2.365c.223.2.429.394.606.558q.074-.778.121-1.562a56.882,56.882,0,0,0-2.886-20.963,30.24,30.24,0,0,0-2.835-6.182,10.742,10.742,0,0,0-1.863-2.291m.2-3.837a2.48,2.48,0,0,0-1.08.036c-.679.17-2.18.695-3.039,1m2.457.117a2.734,2.734,0,0,0,1.986-.1m5.628,4.447a.762.762,0,0,0,.052-.221c.054-.615-.578-1.048-1.141-1.3a14.275,14.275,0,0,0-7.542-1.089,13.962,13.962,0,0,0-1.643.311l-.287.076m.287-.076a13.519,13.519,0,0,1,4.121.629c.124.043.245.087.36.132s.2.082.295.127a28.878,28.878,0,0,0,4.04,1.776,3.945,3.945,0,0,0,.688.138,2.334,2.334,0,0,0,.28.013,1.5,1.5,0,0,0,.714-.17,1.135,1.135,0,0,0,.2-.14,1.633,1.633,0,0,0,.49-1.234c.018-.38-.01-.788,0-1.18a2.018,2.018,0,0,1,.4-1.348,1.5,1.5,0,0,1,.126-.125,2.94,2.94,0,0,0,.5-.487,1.2,1.2,0,0,0-.132-1.34,2.033,2.033,0,0,0-.5-.451,4.384,4.384,0,0,0-.67-.349,11.76,11.76,0,0,0-9.872.349c-.189.1-.373.216-.556.334M702.3,871.251a13.478,13.478,0,0,0-2.707,1.422,17.363,17.363,0,0,0-3.2,2.831,28.433,28.433,0,0,0-4.1,6.182c-.58,1.15-1.108,2.344-1.587,3.557h0a59.1,59.1,0,0,0-3.95,18.381,11.332,11.332,0,0,1,3.1-1.608,12.416,12.416,0,0,1,.852,1.022v0c.766.966,1.836,2.37,2.3,3.055.193-9.53,1.747-17.754,5.67-24.41a30.187,30.187,0,0,1,4.805-6.182h0a31.476,31.476,0,0,1,3.289-2.831c.163-.122.326-.242.492-.362m.121-2.545c-.694-.513-2.14-1.567-2.79-1.954-1.216-.723-3.026-.652-2.325.36.414.6,1.4.637,2.558.841m2.408-.487h0a.685.685,0,0,0,0,.392,4.225,4.225,0,0,1,.144.846,7.846,7.846,0,0,1-.132,1.954c-.012.066-.029.165-.039.263h0a.641.641,0,0,0,.015.263.263.263,0,0,0,.034.064.766.766,0,0,0,.328.252l.031.015a7.167,7.167,0,0,0,2.47.655,7.3,7.3,0,0,0,1.172,0,.673.673,0,0,0,.328-.122,1.054,1.054,0,0,0,.368-.453.954.954,0,0,0,.078-.3,7.8,7.8,0,0,1,.409-1.945c.059-.171.125-.342.2-.51a.815.815,0,0,0,.135-.49.523.523,0,0,0-.044-.158.838.838,0,0,0-.263-.333,2.037,2.037,0,0,0-.4-.252,6.784,6.784,0,0,0-3.57-.686,3.893,3.893,0,0,0-.916.158.572.572,0,0,0-.355.384Zm-.023,3.456-.049-.031a14.038,14.038,0,0,0-3.357-1.529,14.3,14.3,0,0,0-4.173-.627,13.779,13.779,0,0,0-1.744.11c-.608.078-1.335.309-1.457.915a.75.75,0,0,0-.013.226m10.814-2.52a11.619,11.619,0,0,0-9.655-3.71,2.82,2.82,0,0,0-1.343.431,1.19,1.19,0,0,0-.5,1.246,6.493,6.493,0,0,0,.427.769c.561,1.2-.932,2.747-.208,3.863a1.078,1.078,0,0,0,.08.109,1.421,1.421,0,0,0,.673.436,3.206,3.206,0,0,0,1.009.146,28.552,28.552,0,0,0,4.375-.54c.068-.011.138-.018.212-.026h0a10.241,10.241,0,0,1,2.407.1,12.6,12.6,0,0,1,2.454.6m2.928,1.28L707.7,875.5v32.063m-.109-35-.127.11-3.251,2.831v32.063m22.154-8.259V871.2h-2.4m-16.5,1.473h-.692m-7.178,0h-5.823m30.969,28.885V872.673h-1.3m.515,29.976.789-1.091,1.626-2.25,2.04-2.821V875m-5.182,28.651-2.829,3.914M690.7,885.243v-3.557m0,21.355v4.526h29.693v-6.218m-24.365-30.114-2.26,1.439-4.447,2.831m23.969-6.582h-.818m16.4,0H723.83m-2.216,6.582.029,6.182m-.582,0h.582l3.093-3.06m-9.021,3.06H707.7M696.387,875.5h-7.068l.047,6.182h2.92m20.959-6.182H707.7m-1.108,0h-.858m-1.521,0h-.73m.73,6.182h-5.537m19.555-6.182h3.388l.132-.12m4.617,1.636L728.4,875l.473-.467v-5.613l-2.513,2.278m-.731.672-.322.275m-1.877,1.708v0l1.3-1.18" transform="translate(-112.21 1711.706)" fill="none" stroke="#b3b0a7" stroke-linecap="round" stroke-linejoin="round" stroke-width="0.5"/></g><g clip-path="url(#e)"><g transform="translate(116.567 366.541)"><g transform="translate(-0.172 342.344)"><g clip-path="url(#f)"><path d="M146.228,351.46l-8.067,10.581m-26.542-11.7,8.058,8.2m31.477-11.117.534-2.645-2.424,1.185-2.351-1.325.378,2.672-1.987,1.826,2.658.466,1.123,2.453,1.264-2.384,2.681-.31-1.876-1.939ZM111.115,346.3l.786-2.581-2.527.946-2.212-1.545.119,2.7-2.153,1.626,2.6.719.881,2.551,1.488-2.251,2.7-.05-1.681-2.111Zm-4.684,25.344a8.379,8.379,0,0,0-2-.281,8.474,8.474,0,0,0-1.788.156m1.56,29.528c-3.14.042-5.676.756-5.665,1.595s2.566,1.486,5.706,1.445,5.676-.756,5.665-1.6-2.566-1.486-5.705-1.445ZM111,391.415h0a6.347,6.347,0,0,0,.836-2.041,37.249,37.249,0,0,1,1.8-5.047,8.525,8.525,0,0,0,.507-2.938,6.519,6.519,0,0,0-.249-2.047c-.443-1.315-1.313-1.414-1.784-1.366a2.771,2.771,0,0,0-.859.345c-.39.213-.785.47-.995.6-.406.258-2.02,1.535-.308,2.318a2.669,2.669,0,0,0,1.19.256,3.121,3.121,0,0,0,1.97-.875M95.963,393.259a2.823,2.823,0,0,1,.892-1.619c.024-.012.053-.028.086-.047a9.635,9.635,0,0,1,2.674-1.253,20.8,20.8,0,0,0,3.034-.331c1.342-.257,1.538-.8,1.56-1.327s-.992-.878-2.049-1.06a14.468,14.468,0,0,0-3.647-.083c-.493.081-1.061.164-1.6.261-.327.057-.645.121-.932.19a1.775,1.775,0,0,0-.462.19,3.056,3.056,0,0,0-.857.775m12.6,15.138a22.336,22.336,0,0,0-1.912,5.573,155.018,155.018,0,0,0-.621,16.111c.041.557.128,1.42.236,2.448.369,3.5,1,8.91,1.053,10.6.028.928.129,3.583.224,6.418.126,3.825.242,7.978.146,8.665M94.843,383.843a6.32,6.32,0,0,1,1.627-.646,1.3,1.3,0,0,1,.146-.015c.06,0,.148,0,.254.007.975.042,3.635.327,4.391.421.839.1,4.5.512,4.237,2.208s-3.7.639-4.133.579-3.337.306-3.958.365a1.279,1.279,0,0,0-.506.208,7.122,7.122,0,0,0-1.387,1.21m-2.21,6.1a14.587,14.587,0,0,1-.812-2.743,3.089,3.089,0,0,1,.021-.735c.139-.965.637-1.8.462-2.1a3.97,3.97,0,0,1,.154-2.185,5.231,5.231,0,0,0,.466-2,17.349,17.349,0,0,1-.183-3.391,8.989,8.989,0,0,1,.273-1.281c.175-.539.462-.985,1-1,.483-.012,1.279-.006,2.045,0h.123c.7.008,1.358.021,1.725.025a14.062,14.062,0,0,1,3.962.746c.625.375,2.608,2.22,1.964,2.806a2.063,2.063,0,0,1-2.46.173,4.35,4.35,0,0,0-2.01-.469,14.716,14.716,0,0,0-2.87.481c-.031.017-.156.123-.294.242-.16.138-.339.3-.4.344m-.518,28.537v0a46.777,46.777,0,0,1-.522,6.539c-.6,2.84-2.565,13.513-2.866,17.547-.156,2.078-.4,5.979-.567,9.419a64.043,64.043,0,0,0-.147,6.588M96,410.447v0c.062-1.744.128-3.381.26-4.539a14.278,14.278,0,0,0-.721-5.925c-.227-.7-.472-1.328-.692-1.848-.17-.4-.378-.9-.6-1.439m2.482-17.844.128-.122c.485-.463,1.1-1.01,1.4-.879a6.96,6.96,0,0,0,1.937.546c.707.062,1.759-.521,1.063-1.425A6.862,6.862,0,0,0,97.8,375.2a1.118,1.118,0,0,0-.491.02,18.1,18.1,0,0,0-2.781,1.4,1.983,1.983,0,0,0-1.106,1.623,4.555,4.555,0,0,0,.261,1.6m13.207-22.964a9.259,9.259,0,0,0-2.23-.41,6.051,6.051,0,0,0-2.179.2m4.4,1.07a9.257,9.257,0,0,0-2.231-.41,6.052,6.052,0,0,0-2.18.2m2.31,2.188a17.139,17.139,0,0,1,2.578.307h.01c.049.01.146-.075.21-.186.081-.139.013-.221-.007-.638a.914.914,0,0,0-.074-.469s-.031-.146-.148-.169l-.033-.005a19.762,19.762,0,0,0-5.382-.236l-.063.005c-.1.01-.129.121-.163.161a2.564,2.564,0,0,0-.132.515,2.592,2.592,0,0,0-.011.648.177.177,0,0,0,.2.2c.026,0,.054-.007.081-.01a17.269,17.269,0,0,1,2.937-.121Zm2.535-1.159c-.022-.87-.03-1.553-.035-1.694v-.008c-.008-.314-.417-1.1-2.249-1.354s-2.855.378-2.9.683c-.008.065-.026.229-.05.453-.043.428-.1,1.074-.15,1.682m5.425,1.7c.04,1.057.1,2.119.183,2.733.207,1.481,1.013,7.2,1.1,8.4a4.716,4.716,0,0,0,1.295,2.677c.618.874,1.314,1.713,1.316,4.476M97.8,375.2a15.909,15.909,0,0,1,2.182-3.333c.535-.621,1.745-10.45,1.86-12.028h0m-4.9,31.749h0c.028,3.3.05,6.092.055,6.616a6.929,6.929,0,0,0,1.1,4.48c1.131,1.559,4.844,1.717,6.312,1.612a22.841,22.841,0,0,0,2.849-.206,7.455,7.455,0,0,0,1.721-.553c1.828-.833,2.091-3.442,2.028-5.215-.026-.751-.028-3.6-.006-6.911m.143-9.916c-.071,2.613-.119,6.51-.142,9.915m-14.13-8.226c0-.114,0-.225,0-.335m-.011-4.126c0,.042-.006.083-.007.124m.061,8.949v0c0-.278,0-.553-.008-.828m29.988.094a3.018,3.018,0,0,0,.261-.278,1.579,1.579,0,0,0,.033-2.173l-.024-.017s-.025-.017-.071-.042a1.235,1.235,0,0,0-1.291.025,2.95,2.95,0,0,0-.724,3.118h0a3.481,3.481,0,0,0-.411,1.4m3.224,9.162c.175-.125.363-.27.55-.425v0c.7-.585,1.394-1.346,1.335-1.981-.078-.836-.974-.9-1.657-.8a3.587,3.587,0,0,0-.4.087m-.065-.408c.121-.125.253-.255.386-.385.376-.364.764-.715,1-.9a1.78,1.78,0,0,0,.754-1.628c-.076-.656-.764-.8-1.888-.664a2.327,2.327,0,0,0-.236.042,3.968,3.968,0,0,0-.943.36q-.123.063-.238.128m.232-.139c.01-.486.439-.8.865-1.057.221-.132.442-.246.6-.359a2.518,2.518,0,0,0,.93-1.875c-.072-.6-.645-.961-1.656-1.167a1.661,1.661,0,0,0-.274-.032,2.617,2.617,0,0,0-.29.008,5.1,5.1,0,0,0-1.816.634m36.171,62.209a46.342,46.342,0,0,1-3.084-4.666,82.351,82.351,0,0,1-4.433-8.156c-1.181-2.836-4.378-10.393-5.379-13.48a85.389,85.389,0,0,0-4.971-10.6c-.536-.935-2.855-2.109-4.144-2.708m8.4-17.311a8.7,8.7,0,0,0-1.831-4.433,16.1,16.1,0,0,1-1.439-3.708c-.29-1.267-1.584-1.429-2.223-1.55a10.14,10.14,0,0,1-1.029-.256,6.991,6.991,0,0,1-1.449-.587c-.674-.4-1.955-1.013-2.264-.224a2.688,2.688,0,0,0,.367,2.229,15.437,15.437,0,0,0,2.717,2.587,8.382,8.382,0,0,1,1.5,1.977c.02.036.035.065.045.086,0,0,.339,1.439.439,1.734m31.672,54.4c-1.15-4.821-5.445-11.64-7.694-15.124s-8.02-12.429-10.458-18.018c-.681-1.56-1.384-3.09-2.063-4.518M134.2,410.205a15.309,15.309,0,0,0,2.567.059,12.2,12.2,0,0,0,4.308-.945c.814-.387,1.292-.856,1.264-1.334-.062-1.075-2.659-1.8-5.8-1.618a10.374,10.374,0,0,0-4.931,1.3m4.927-29.637a7.858,7.858,0,0,0-5.751.382m3.033-14.7a4.3,4.3,0,0,0-2.07-.288,3.772,3.772,0,0,0-1.917.52m4.024.42a4.264,4.264,0,0,0-2.07-.289,3.79,3.79,0,0,0-1.917.52m-.461,2.866a.785.785,0,0,0,.063.056,4.147,4.147,0,0,1,2.477-.754,10.515,10.515,0,0,1,3.075.421.2.2,0,0,0,.027-.036,1.443,1.443,0,0,0-.093-1.509.784.784,0,0,0-.2-.157,5.963,5.963,0,0,0-2.8-.551,5.221,5.221,0,0,0-2.526.7.639.639,0,0,0-.093.079v0a1.492,1.492,0,0,0-.268,1.3,1.521,1.521,0,0,0,.341.451Zm-2.233,19.591v0c-.01-.1-.021-.184-.029-.269m.964,8.269v0c-.028-.236-.056-.472-.084-.706m7.024-27.193c.36,1.362,1.285,4.365,1.484,5.345a33.632,33.632,0,0,0,1.8,6.1c.517.779,2.1,1.963,2.779,4.443m-12.37,17.526c-.093-.843-.2-1.77-.307-2.734m5.694,12.8a18.01,18.01,0,0,0,3.152-.026,12.918,12.918,0,0,0,1.881-.292l.069-.015a7.788,7.788,0,0,0,1.97-.75c3.731-2.1,2.431-6.553,2.282-8.25-.093-1.048-.593-5.118-1.1-9.086-.137-1.093-.276-2.178-.407-3.189m-14.4,1.466h0c.027.233.055.469.083.709m-.572-6.643a.069.069,0,0,1,0-.024,9.534,9.534,0,0,1,1.1-4c.279-.424,1.035-1.1,1.013-1.967-.039-1.4.021-4.587.027-5.636,0-.985.122-3.857.182-5.456m5.349-1.98c-.077-.542-.149-1.133-.168-1.651-.032-.8-.749-1.2-2.787-1.169s-2.691.948-2.689,1.457a13.515,13.515,0,0,0,.224,1.592m31.545,7.313a4.631,4.631,0,0,0-3.227-.538m-.379,35.473a.043.043,0,0,0,.014,0c1.456.054,2.409-.065,2.457-.364.086-.533-2.741-1.435-6.315-2.016q-.258-.042-.513-.079m0,0c-3.342-.5-6.035-.513-6.117,0-.014.084.045.177.168.276m18.086-47.612a3.955,3.955,0,0,0-2.5-1.53,3.072,3.072,0,0,0-2.663.417M165,358.823a4.556,4.556,0,0,0-2.823-1.589,3.936,3.936,0,0,0-2.5.438M214.75,463.022c-1.921-1.182-10.04-10.779-15.829-17.781-2.814-3.405-5.079-6.2-5.814-7.109-2.248-2.794-8.016-9.656-11.355-13.057a111.072,111.072,0,0,0-9.238-8.155c-1.524-1.2-2.809-1.243-4.733-2.285s-2.648-2.166-4.17-4.172c-1.321-1.736-2.159-2.933-2.8-3.768m3.3-17.543h0a.071.071,0,0,1,.021.008c.544.233,1.434.606,2.176.878a5.719,5.719,0,0,1,3.2,2.77c.488,1.279,1.98,4.232,2.772,5.846a14.031,14.031,0,0,0,4.873,5.631c2.931,2.1,16.879,13.239,24.8,17.978,5.979,3.577,26.7,16.736,36.5,22.976l5.222,3.327M145.742,404a1.654,1.654,0,0,0-.411.319c-.214.275-.395,1.4,1.492,1.859a11.153,11.153,0,0,0,1.663.282c.156.014.3.021.432.025h0m-2.455-7.575a4.2,4.2,0,0,0-1.774.783,1.364,1.364,0,0,0,1.107,2.276m1.909-9.008-.071.028a2.674,2.674,0,0,0-1.513,1.285,1.431,1.431,0,0,0,.95,1.732m2.084-10.083a1.606,1.606,0,0,0-.721.953.969.969,0,0,0,.31,1.051m18.827,6.03a44.653,44.653,0,0,1-3.463-4.8c-.27-.413-.478-.735-.59-.9-.482-.723-1.41-2.474-1.719-2.852s-1.444-.653-3.024-1.408-3.264-2.337-3.986-2.063a2.062,2.062,0,0,0-1.306,2.406,6.841,6.841,0,0,0,2.99,4.536,10.111,10.111,0,0,1,3.918,4.639,19.626,19.626,0,0,1,.926,4.123,18.576,18.576,0,0,0,.81,2.785,22.269,22.269,0,0,0,.874,2.13c.688,1.409,1.685,3.333,2.2,4.158m-.182-46.64h0c.033-.325.1-.8.143-1.224.027-.253.047-.49.051-.669a1.267,1.267,0,0,0-.011-.249,3.342,3.342,0,0,0-2.9-1.951c-2-.269-2.717.754-2.749,1,0,.012,0,.029-.008.05-.019.114-.064.337-.117.595-.089.438-.2.97-.255,1.214m5.846,1.231a3.22,3.22,0,0,0-3.116-2.191,2.983,2.983,0,0,0-2.73.96,2.771,2.771,0,0,0-.647,1.413,1.925,1.925,0,0,0,.171.755m5.957,1.371c.6-.449.511-1.614.445-1.973a2.7,2.7,0,0,0-.079-.333m-.89,29.1c.586-2.848,1.631-7.928,1.739-9.5.147-2.162-1.3-4.211-1.624-4.9a5.813,5.813,0,0,1-.024-2.756c.107-.825.386-8.287.433-9.633,0-.126.007-.2.007-.207a2.818,2.818,0,0,0-2.731-2.8c-2.562-.339-3.037.991-3.233,1.638-.016.056-.031.1-.044.149-.174.558-2.89,8.688-3.486,10.387-.163.464-.2.6-1.111,1.295s-2.7,2.245-3.065,4.1c-.146.741-.926,4.573-1.835,8.995-.135.657-.272,1.328-.411,2-.349,1.69-.7,3.411-1.039,5.033-.017.082-.033.163-.051.243h0c-.2.982-.4,1.925-.582,2.8-.227,1.092-.433,2.078-.609,2.9-.275,1.295-.469,2.192-.539,2.472-.05.2-.093.4-.128.587a5.629,5.629,0,0,0-.056,2.031,3.622,3.622,0,0,0,.427,1.177,1.08,1.08,0,0,0,.3.306,3.219,3.219,0,0,0,.508.3,12.308,12.308,0,0,0,1.945.7h0c1.553.449,3.406.817,4.59,1.028.136.024.272.047.411.07,1.149.185,2.381.317,3.356.385l.014,0A10.655,10.655,0,0,0,159,408a1.959,1.959,0,0,0,1.8-1.3.323.323,0,0,1,.015-.035c.217-.495.751-3.215,1.306-6.245m-42.135-29.339-5.03.425m-.121-.77,4.932-.307m.97,3.461.243-.022a.135.135,0,0,0,.1-.055.138.138,0,0,0,.022-.11,4.217,4.217,0,0,0-.426-1.731.136.136,0,0,0-.14-.1l-.024,0-6.128.422-.035,0a.136.136,0,0,0-.089.042.149.149,0,0,0-.037.09,5.479,5.479,0,0,0-.121.91,5.286,5.286,0,0,0,.048,1.007.135.135,0,0,0,.147.138l.233-.021,6.208-.57Zm-6.208.57v.01c.051.785-.242,4.531-.276,6.922-.006.386,0,.739.007,1.036.077,2.134.27,4.889.343,6.272s-.874,2.972-1.517,4.026a9.006,9.006,0,0,0-.643,4.873c.117,1.216.766,6.458,1.164,9.659.186,1.483.318,2.528.318,2.528a28.619,28.619,0,0,0,.579,4.557c.222,1.034.624,1.213,1.217,1.327a2.952,2.952,0,0,0,2.858-.85c1.035-1.1,4.719-5.243,5.584-6.431s3.238-5.087,3.48-5.51l.377-.864s-.027-.689-.063-1.67c-.024-.614-.05-1.342-.077-2.087-.019-.548-.037-1.1-.054-1.63a13.084,13.084,0,0,0-.122-1.487c-.02-.142-.042-.278-.065-.408a9.375,9.375,0,0,0-.852-2.5,4.97,4.97,0,0,0-.314-.549c-.455-.715-1.218-1.725-1.817-2.59a9.9,9.9,0,0,1-.783-1.266c-.479-1.036-1.2-6.383-1.6-8s-1.309-4.93-1.487-5.674c-.015-.066-.032-.157-.05-.268v0m-.228-2.02c-.063-.642-.117-1.28-.154-1.721a.6.6,0,0,0-.638-.548l-4.9.321a.6.6,0,0,0-.558.639c.03.446.073,1.086.118,1.731h0m4.1,117.564c1.135-2.13,3.541-10.949,4.754-18.427a167.681,167.681,0,0,0,1.506-21.261,47.353,47.353,0,0,1,.363-4.925c.385-3.285,1.061-6.989,1.949-8.06,1.442-1.739,4.385-4.758,5.732-7.3s2.827-3.076,3.4-5.433-1.542-3.149-1.827-3.479a2.39,2.39,0,0,1-.371-1.788c.108-.77.347-2.183-.089-2.9a2.869,2.869,0,0,0-2.1-.957m-.363,1.15a5.585,5.585,0,0,1,.363-1.15,22.464,22.464,0,0,1,1.7-3.272,4.8,4.8,0,0,0,.628-1.419,2.961,2.961,0,0,0,.072-.427,2.286,2.286,0,0,0-.635-1.867,3.179,3.179,0,0,0-1.955-.668,7.221,7.221,0,0,0-1.417.035M127.519,412c.153-.223,1.507-2.3,2.677-4.293a18.768,18.768,0,0,0,1.7-3.4,2.276,2.276,0,0,0-.841-2.845,7.677,7.677,0,0,0-2.316-.893c-.275-.077-.54-.149-.781-.222m-27.441,85.913c2.289-4.215,5.287-15.929,6.182-19.887s3.376-12.793,4.24-16.527c.267-1.159.543-2.806.793-4.6a77.031,77.031,0,0,0,.878-10.419c-.145-2.478-.95-7.259-1.254-9.186s-1.362-5.111-1.592-7.282-.42-6.358-.371-7.125a3.067,3.067,0,0,1,.6-1.582,3.374,3.374,0,0,1,1.125-.969c.834-.451,1.819-.993,2.491-1.422M25.376,456.177c1.184-.988,8.337-7.8,11.989-10.855l.1-.081c3.794-3.2,17.632-16.322,19.589-19.013,1.973-2.713,9.9-10.847,13.132-11.655s6.626-4.365,7.96-5.7c.386-.386.926-.882,1.528-1.4a20.814,20.814,0,0,1,4.129-3c1.132-.4,5.051-.525,6.385-.768a14.015,14.015,0,0,0,3.233-.809c.174-.058.335-.121.483-.186v0c1.609-.721,1.756-1.9,1.5-2.681-.185-.557-1.382-.47-2.387-.332-.526.071-1,.157-1.249.171-.728.04-2.667.444-3.719.444s-4.243.364-5.172.322-.767-.767-.242-.929,4.848-1.939,5.576-1.98,1.171.04,3.637-.121c.189-.012.367-.032.535-.058a3.173,3.173,0,0,0,1.868-.849,1.8,1.8,0,0,0,.506-1.559c-.074-.424-.7-.689-1.448-.855a13.621,13.621,0,0,0-1.963-.249c-.212-.014-.4-.022-.55-.028a36.817,36.817,0,0,0-3.8.161c-.768.082-4.486,1.213-5.415,1.213s-1.374,0-1.131-.929,3.313-3.233,4.041-3.516a14.89,14.89,0,0,1,3.6-.081c1.05,0,1.252.525,1.98.728a2.88,2.88,0,0,0,.582.1,1.465,1.465,0,0,0,1.519-.7.757.757,0,0,0,.058-.175c.161-.781-.757-1.967-1.432-2.491a6.546,6.546,0,0,0-1.373-.8v0a8.944,8.944,0,0,0-2.3-.657,8.844,8.844,0,0,0-4.768.486c-.97.565-5.536,3.6-5.9,3.8s-1.374.4-1.091-.445,2.95-7.153,3.6-7.638,2.828-2.183,3.637-2.263c.615-.061,1.912-.264,2.691-.375.243-.034.436-.06.542-.069.445-.04.686-1.616-1.011-1.818-.313-.038-.67-.083-1.05-.128v0c-1.683-.2-3.83-.4-4.687.13a21.713,21.713,0,0,0-4.054,3.023,2.866,2.866,0,0,0-.311.412c-.686,1.131-3.281,5.64-5.224,8.687s-8.491,13.785-10.158,15.337S48.02,414.948,45.1,416.927s-11.176,7.823-18.141,11.606c-5.707,3.1-17.794,11.957-23.628,16.709-1.285,1.046-2.266,1.894-2.809,2.437m76.689-83.8a45.19,45.19,0,0,0-4.879,1.491m4.773-2.21s-1.281.315-2.246.6-2.808.965-2.808.965m.828,3.954h0c.582-.171,2.117-.617,3.287-.972a22.244,22.244,0,0,0,2.594-.9m-6.643-.432a27.373,27.373,0,0,0,2.662-.639c1.264-.378,2.788-.957,3.206-1.118m11.433,22.891c-.271-.918-.46-1.566-.535-1.825a7.55,7.55,0,0,0-2.145-3.8c-.414-.4-.934-.889-1.459-1.466M75.018,381.55c-.129-1.132-.422-2.608-.58-3.826-.243-1.86-1.453-8.506-1.495-8.87a.389.389,0,0,0-.064-.177m10.881,9.72a7.751,7.751,0,0,1-.581-1.21c-.769-2.063-4.126-9.587-4.329-9.952a.972.972,0,0,1-.09-.429,4.115,4.115,0,0,0-.044-1.1,6.538,6.538,0,0,0-.731-1.089,1.066,1.066,0,0,1-.068-.108c-.093-.185-.093-1.874-.83-1.935a9.134,9.134,0,0,0-2.566.5,10.568,10.568,0,0,0-2.59,1.092c-.525.486-.04,1.7.122,1.982a.677.677,0,0,1,.063.231,7.569,7.569,0,0,0,.139,1.551c.164.456.485.544.622.753m19.5,28.865c.212.724.425,1.445.633,2.151m-13.339,7.778c.7,2.556,1.576,6.063,2.294,7.177.81,1.253,1.174,1.253,1.618,1.295s4.612-1.254,6.149-1.7,4.814-1.538,5.7-1.821a.856.856,0,0,0,.517-.686m0,0A4.059,4.059,0,0,0,96,410.447m0,0a8.148,8.148,0,0,0-.2-1.177l-.2-.81-1.7-5.75m-2.56-8.676c-.24-.813-.474-1.6-.695-2.355" transform="translate(-0.306 -342.877)" fill="none" stroke="#b3b0a7" stroke-linecap="round" stroke-linejoin="round" stroke-width="0.5"/></g></g></g></g></g></svg>