<svg xmlns="http://www.w3.org/2000/svg" xmlns:xlink="http://www.w3.org/1999/xlink" width="287" height="80" viewBox="0 0 287 80"><defs><clipPath id="a"><rect width="287" height="80" transform="translate(11 8)" fill="#fff" stroke="#707070" stroke-width="1"/></clipPath></defs><g transform="translate(-11 -8)" clip-path="url(#a)"><path d="M28.852,102.426a14.054,14.054,0,0,0,1.462.4m1.9.9c.078.387.387.827.543.852m-1.162-.671a1.938,1.938,0,0,0,.232-.774m2.285-.231a3.326,3.326,0,0,0-1.274.432h0l-.131.067m2.856.229c-.4-.007-.8,0-1.185,0h0c-.537.012-1.02.032-1.342.049m-1.936-.1a5.289,5.289,0,0,0-1.946-.009m4.4.723a1,1,0,0,0-.275-.413,3.008,3.008,0,0,0-.244-.2,2.976,2.976,0,0,1-.317-.273l-.009-.009c-.024-.025-.046-.05-.068-.075-.085-.1-.163-.2-.256-.287a1.032,1.032,0,0,0-.1-.084,1.518,1.518,0,0,0-.45-.183c-.129-.037-.293-.065-.378.04,0,0-.005.007-.008.011a.458.458,0,0,0-.054.2.947.947,0,0,1-.293.56l-.007.007c-.092.084-.2.149-.286.24a.529.529,0,0,0-.063.087l0,0a.312.312,0,0,0-.037.252.3.3,0,0,0,.069.11h0a.738.738,0,0,0,.117.1,3.92,3.92,0,0,0,2.191.709.708.708,0,0,0,.5-.561.571.571,0,0,0-.028-.229m0,0a.723.723,0,0,0,.227-.009,2.586,2.586,0,0,0,.332-.126,2.216,2.216,0,0,1,1.255.109,5.514,5.514,0,0,0,1.589.153h0c.078,0,.154-.009.23-.016.2-.019.47-.152.4-.34-.061-.158-.342-.206-.312-.372.017-.1.135-.137.232-.155l.943-.186c-.148-.561-.85-.777-1.428-.718a8.4,8.4,0,0,1-1.721.232,2.218,2.218,0,0,1,.534-.253c.179-.084.354-.249.332-.445-.033-.3-.443-.362-.743-.322a6.932,6.932,0,0,0-3.037,1.188m-.939-.217a7.366,7.366,0,0,0-3.16-.768.5.5,0,0,0-.347.086c-.175.158-.05.463.147.6a6.5,6.5,0,0,1,.623.33,5.3,5.3,0,0,1-1.9.142,2.539,2.539,0,0,0-1.251.453.5.5,0,0,0-.221.271c-.058.265.274.438.543.471a8.116,8.116,0,0,0,1.917-.146,11.982,11.982,0,0,1,2.025-.037c.318.016.634.039.95.064m-1.2.856s-1.475.666-1.617,1.278m13.318.86c-.3-.454-3.89-1.993-3.89-1.993m.348,12.552c.2-4.1-3.775-11.345-3.775-11.345m6.731,5.191a13.384,13.384,0,0,0-6.829-6.74m12.793,17.293a10.773,10.773,0,0,0,.614-2.864M31.7,104.9a9.287,9.287,0,0,0-2.187,4.357c-.522,2.665-.832,5.913-.832,5.913M18.341,128.849a10.3,10.3,0,0,0,4.272,2.317m-1.854-6.856a5.063,5.063,0,0,0,2.073,1.99m-3.07-6.02s2.413,5.664,5.41,6.923m24.27,2.84a28.956,28.956,0,0,0,.565-4.986m-6.146,3.7c3.378-.793,4.613-2.4,4.613-2.4M36.956,104.43c3.5.978,8.622,2.793,10.625,12.665a37.177,37.177,0,0,0,2.427,7.961c1.812,4.027,3.159,4.211,1.36,5.7-2.588,2.137-7.193,2.411-11.44,2.219s-8.274.353-13.092.7a71.67,71.67,0,0,1-11.175-.494.916.916,0,0,1-.706-1.346c.573-1.065,1.406-2.634,1.97-3.792.937-1.923,2.046-10.534,4.678-16.528,2.337-5.322,5.715-6.515,8.218-7.291" transform="translate(180.197 -43.703) rotate(-8)" fill="none" stroke="#b3b0a7" stroke-linecap="round" stroke-linejoin="round" stroke-width="0.5"/><path d="M37.968,102.806a23.2,23.2,0,0,0,2.414.666m3.137,1.486c.128.639.639,1.365.9,1.407M42.5,105.256a3.2,3.2,0,0,0,.384-1.278m3.772-.381a5.491,5.491,0,0,0-2.1.713h0c-.089.044-.164.084-.216.111m4.715.377c-.654-.011-1.326-.006-1.956.007h0c-.886.02-1.684.053-2.216.08m-3.2-.16a8.731,8.731,0,0,0-3.213-.015m7.265,1.193a1.647,1.647,0,0,0-.454-.682,4.962,4.962,0,0,0-.4-.336,4.912,4.912,0,0,1-.523-.45l-.015-.015c-.039-.041-.077-.083-.112-.125-.141-.161-.269-.331-.422-.474a1.7,1.7,0,0,0-.17-.139,2.506,2.506,0,0,0-.743-.3c-.213-.062-.484-.107-.624.065,0,.006-.009.011-.013.018a.757.757,0,0,0-.09.337,1.564,1.564,0,0,1-.484.924l-.011.011c-.152.138-.332.246-.471.4a.874.874,0,0,0-.1.143l0,0a.514.514,0,0,0-.06.416.492.492,0,0,0,.115.181h0a1.219,1.219,0,0,0,.194.162,6.471,6.471,0,0,0,3.616,1.171,1.169,1.169,0,0,0,.822-.927.942.942,0,0,0-.047-.379m0,0a1.193,1.193,0,0,0,.375-.015,4.27,4.27,0,0,0,.548-.207,3.658,3.658,0,0,1,2.072.18,9.1,9.1,0,0,0,2.623.252h0c.128,0,.254-.015.38-.026.333-.031.776-.25.653-.561-.1-.26-.564-.339-.514-.615.029-.162.222-.226.384-.257l1.556-.307c-.244-.927-1.4-1.282-2.357-1.186a13.865,13.865,0,0,1-2.841.382,3.662,3.662,0,0,1,.881-.417c.295-.138.584-.411.548-.734-.054-.5-.732-.6-1.226-.532a11.443,11.443,0,0,0-5.013,1.961m-1.55-.358A12.16,12.16,0,0,0,37.03,102.2a.826.826,0,0,0-.573.142c-.289.261-.083.764.242.982a10.725,10.725,0,0,1,1.028.544c-.953.455-2.077.151-3.129.234a4.192,4.192,0,0,0-2.066.748.817.817,0,0,0-.365.448c-.1.437.453.723.9.777a13.4,13.4,0,0,0,3.164-.241,19.78,19.78,0,0,1,3.343-.06c.524.026,1.046.064,1.568.1m-1.982,1.413s-2.436,1.1-2.669,2.11m21.985,1.419c-.489-.749-6.421-3.29-6.421-3.29m.575,20.72c.331-6.769-6.231-18.729-6.231-18.729m11.111,8.57a22.094,22.094,0,0,0-11.273-11.126M67.351,135.51a17.785,17.785,0,0,0,1.014-4.727m-25.7-23.891a15.331,15.331,0,0,0-3.611,7.193c-.861,4.4-1.373,9.761-1.373,9.761M20.617,146.423c1.42,1.666,5.471,3.525,7.052,3.825m-3.06-11.318a8.357,8.357,0,0,0,3.423,3.285m-5.068-9.938s3.983,9.349,8.931,11.429m40.064,4.689c.518-1.49.815-6.026.933-8.231m-10.146,6.115c5.576-1.309,7.616-3.955,7.616-3.955M51.346,106.114c5.783,1.614,14.233,4.61,17.539,20.907a61.37,61.37,0,0,0,4.007,13.141c2.991,6.648,5.215,6.952,2.246,9.4-4.272,3.528-11.874,3.979-18.885,3.663s-13.658.582-21.612,1.162c-5.9.431-14.442-.373-18.447-.816a1.512,1.512,0,0,1-1.166-2.222c.946-1.758,2.321-4.348,3.253-6.26,1.546-3.175,3.377-17.389,7.723-27.284,3.858-8.785,9.434-10.755,13.567-12.035" transform="translate(160.376 -75.235) rotate(9)" fill="none" stroke="#b3b0a7" stroke-linecap="round" stroke-linejoin="round" stroke-width="0.5"/></g></svg>