<svg xmlns="http://www.w3.org/2000/svg" xmlns:xlink="http://www.w3.org/1999/xlink" width="287" height="80" viewBox="0 0 287 80"><defs><clipPath id="a"><rect width="287" height="80" transform="translate(11 8)" fill="#fdfcf8" stroke="#6c655d" stroke-width="1"/></clipPath></defs><g transform="translate(-11 -8)" clip-path="url(#a)"><g transform="translate(43.961 -10.647)" opacity="0.5"><path d="M185.169,39.538c-.017.115-.059.358-.111.645a12.781,12.781,0,0,1-.336,1.441,1.568,1.568,0,0,1-.1.253c-.258.465-1.242,1.919-2.437,1.919a3.133,3.133,0,0,1-2.414-1.739c-.05-.107-.117-.279-.189-.484h0c-.122-.348-.268-.792-.392-1.192-.031-.1-.059-.189-.086-.277v0c-.073-.233-.136-.436-.176-.57m-.552.779a1.364,1.364,0,0,0,.621,1.161.9.9,0,0,0,.271.113.522.522,0,0,0,.254,0,.516.516,0,0,0,.061-.017h0m5.143.05a.38.38,0,0,0,.132.021.753.753,0,0,0,.447-.149,1.157,1.157,0,0,0,.292-.289,1.41,1.41,0,0,0,.273-.792m-7.727-2.994c-.067.1-.128.2-.182.3v0a4.117,4.117,0,0,0-.365.861,1.423,1.423,0,0,0-.034.216v0c-.042.408-.042,1.089-.2,1.244s-.141.5.277.517a1.191,1.191,0,0,0,.4-.061.988.988,0,0,0,.338-.191v0a2.369,2.369,0,0,0,.552-.777,4.637,4.637,0,0,0,.3-.813l0,0a4.241,4.241,0,0,0,2.823-2.355,4.228,4.228,0,0,0,2.821,2.355,5.025,5.025,0,0,0,.3.819,2.031,2.031,0,0,0,.7.878.828.828,0,0,0,.191.088,1.312,1.312,0,0,0,.34.061c.478.021.5-.36.338-.517a1.572,1.572,0,0,1-.2-.729v0a2.659,2.659,0,0,0-.136-.608c-.055-.126-.147-.321-.277-.576-.048-.092-.1-.193-.159-.3s-.13-.239-.206-.373l-.092-.163c-.048-.086-.1-.165-.151-.243a3.226,3.226,0,0,0-.31-.392v0a3.168,3.168,0,0,0-.378-.352,4.37,4.37,0,0,0-.537-.365c-.082-.05-.168-.1-.258-.147a1.183,1.183,0,0,0-.126-.059,2.788,2.788,0,0,0-.476-.138,4.853,4.853,0,0,0-.585-.09c-.132-.015-.271-.025-.411-.031-.176-.006-.359-.008-.541,0q-.223.006-.447.025c-.2.019-.4.046-.6.084a5,5,0,0,0-.487.115,3.8,3.8,0,0,0-.4.142,2.974,2.974,0,0,0-.375.184c-.061.036-.122.073-.178.111a4.247,4.247,0,0,0-.413.31c-.117.1-.227.205-.329.312a3.938,3.938,0,0,0-.292.341,3.819,3.819,0,0,0-.231.321m.029,1.194a1.173,1.173,0,0,0,1.053.107l0,0m5.644,0a1.277,1.277,0,0,0,.906,0m-.18,2.487c.136.551.415,1.67.682,2.648v0c.159.589.313,1.129.428,1.466.264.773.7,1.818.95,2.535m-1.839-.348a4.755,4.755,0,0,0-.1-.591c-.143-.572-1.181-3.375-1.3-3.7m-6.342.205c.023-.073.046-.151.067-.23a16.8,16.8,0,0,0,.38-2.256m.455,3.746a19.376,19.376,0,0,0,.294-3.1m-1.391,1.582a1.954,1.954,0,0,0,.262.025m-.5-2.629a3.438,3.438,0,0,1-.5,1.186.81.81,0,0,0-.126.566m9.264,1.542v0a1.116,1.116,0,0,0,.885-1.548,5.576,5.576,0,0,1-.763-1.743m.143-1.246v0a3.643,3.643,0,0,0,.075-.486c.021-.222.036-.509.038-.882q0-.248-.006-.547a3.974,3.974,0,0,0-.038-.44,4.371,4.371,0,0,0-.216-.894,4.462,4.462,0,0,0-.464-.949,4.373,4.373,0,0,0-.812-.947,4.294,4.294,0,0,0-1-.651,4.721,4.721,0,0,0-1.453-.4,5.679,5.679,0,0,0-.667-.04c-.172,0-.344.006-.516.021a5.664,5.664,0,0,0-1.785.419,4.43,4.43,0,0,0-1.038.614,3.9,3.9,0,0,0-.862.966,4.111,4.111,0,0,0-.434.945,4.481,4.481,0,0,0-.145.561,3.229,3.229,0,0,0-.05.36,3.049,3.049,0,0,0,.065.991,3.123,3.123,0,0,0,.331.846v0m1.8,6.4c.659-1.123.308-2.989.164-3.616m5.338.054a12.007,12.007,0,0,0-.445,1.573,6.743,6.743,0,0,0,.235,4.133m-1.986-14.234-.443-4.973-.74,4.954m3.641,1.073,3.37-3.854-4.375,3.2m2.28,2.547,4.862-2.223-5.325,1.274m.724,2.83,5.619-.578-5.663-.408m-6.917-3.444-4.373-3.2,3.335,3.815m-5.468,0,4.172,1.906m.434-.945L173.179,34m4.048,3.959-1.951-.2m-.369-.631,2.255-.161M170.181,38a13.014,13.014,0,0,0-2.492,5.214c-.4,2.093.048,4.387.749,5.235a1.062,1.062,0,0,0,1.089.3,4.861,4.861,0,0,0,2.555-1.848,18.5,18.5,0,0,0,2.1-3.339,23.264,23.264,0,0,0,1.491-3.213,2.586,2.586,0,0,0,.155-.727,4.981,4.981,0,0,0-.55-1.873,4.755,4.755,0,0,0-.369-.631,2.491,2.491,0,0,0-.329-.388,2.385,2.385,0,0,0-1.292-.591m-4.421,8.394c.208.247.824.165,1.525-.124a2.321,2.321,0,0,0,.722-.729A36.778,36.778,0,0,0,173.4,39.81a7.038,7.038,0,0,0,.453-1.022,2.689,2.689,0,0,0,.164-1.563m-2.462,7.064a13.571,13.571,0,0,0,3.329-5.22m-6.473,7.772s.023.637,1.177.555,2.722-2.348,2.722-2.348m-2.779,3.708c.036.524-.159,1.2.122,1.588.327.452,1.235.616,1.4,1.068s-.493,1.6-.082,2.057-.659,2.1-.082,2.92a5.646,5.646,0,0,1,1.514,3.329m-.573-4.879a13.443,13.443,0,0,0,2.23-3.138c.906-1.77,2.307-7.2,2.183-8.436M171.97,51.4a11.319,11.319,0,0,0,1.8-2.744m2.311,1.841a30,30,0,0,0,.906-4.483m-1.315-5.658a3.087,3.087,0,0,0,.684,1.307c.191.214.426.438.656.654.319.3.625.57.8.771.019.025.042.052.065.082.057.071.124.157.2.256.256.348.589.83.9,1.259.071.1.141.195.21.287.05.065.109.147.174.237a8.828,8.828,0,0,0,3.11,2.989,8.646,8.646,0,0,0,1.164.442M179.24,46.51c.323.645,1.061,2.114,2.192,2.436m3.486-.61a3.622,3.622,0,0,0-1.29.3,3.544,3.544,0,0,0-.68.408,61.8,61.8,0,0,0-7.569,6.879,28.823,28.823,0,0,0-2.98,3.792,19.22,19.22,0,0,0-1.323,2.658c-1.185,2.794-1.221,5.2-.824,6.234.306.813,1.361.989,2.081.89m-3.5-43.082c.088,1.238.185,2.753.235,3.676a19.476,19.476,0,0,0,.665,4.588A18.539,18.539,0,0,1,170.181,38c.034.448.059.823.09,1.066.019.138.036.352.059.616a12.433,12.433,0,0,0,.78,4m2.739-4.9c-.071-.243-.214-.735-.331-1.213-.029-.117-.057-.233-.082-.341-.038-.178-.071-.344-.09-.482-.025-.157-.044-.367-.061-.605-.042-.6-.071-1.383-.1-2.011,0-.048,0-.094-.006-.14-.013-.23-.023-.434-.036-.593a16.716,16.716,0,0,0-.64-3.758,13.133,13.133,0,0,1-.772-3.942c-.038-.894-.008-4.185-.008-4.726a3.86,3.86,0,0,0-.3-1.588,2.77,2.77,0,0,1-.323-.838,1.157,1.157,0,0,0-.472-.564c-.017-.01-.034-.023-.048-.031a1.333,1.333,0,0,1-.378-.381c-.138-.184-.357-.526-.694-.136-.132.151-.055.71.084,1a6.943,6.943,0,0,0,.512.706,1,1,0,0,1,.059.1c.076.153.206.408.319.626v0c.1.178.178.333.214.385m-3.3-3.725c0-.04,0-.086,0-.14,0-.111-.01-.247-.027-.388-.008-.069-.019-.14-.034-.209a1.388,1.388,0,0,0-.113-.352c-.151-.291-.392-.2-.417-.038-.008.048-.021.151-.029.277a2.573,2.573,0,0,0,.029.9c.1.226.4.62.646,1.05m-.178.838s.243.029.526.04c.126,0,.262,0,.388,0,.4-.023.849-.01.862-.327.015-.358-.153-.469-.749-.534a2.773,2.773,0,0,0-.556-.01,1.229,1.229,0,0,0-.275.052.677.677,0,0,0-.464.4c-.176.444.331.62.331.62a.036.036,0,0,0-.013.008.5.5,0,0,0-.2.36.507.507,0,0,0,.292.608,2.384,2.384,0,0,0,.464.071c.682.069,1.85.09,1.909-.222a.459.459,0,0,0-.059-.367.689.689,0,0,0-.5-.218c-.187-.021-.852-.1-1.409-.172l-.491-.061m.443,2.26.178-.115c.176-.113,1.116-.176,1.319-.277s.191-.356-.052-.457a4.832,4.832,0,0,0-1.319-.1,1.515,1.515,0,0,0-.329.04c-.279.09-.252.595-.151,1.077a5.493,5.493,0,0,0,.636,1.391m2.534-4.583.055-1.075.015-.262a.246.246,0,0,0-.138-.233,3.507,3.507,0,0,0-1.441-.3,2.926,2.926,0,0,0-1.261.245.244.244,0,0,0-.134.237l.015.251h0l.05.825m2.544,6.058.2-3.823v0m-2.59.157-.017-.268m.069,1.106.1,1.67.073,1.175m-.306-4.929-.017-.268m2.838-1.636c.111-.019.254-.061.275-.14.034-.134.084-.809.084-.809a.847.847,0,0,0-.145-.1h0A3.777,3.777,0,0,0,169,15.477a2.383,2.383,0,0,0-1.458.354.829.829,0,0,0-.178.178m.029.388a1.487,1.487,0,0,0,.294.419h0m3.154-.985h0a3.286,3.286,0,0,0,1.816-.626l.021-.029a.275.275,0,0,0,.063-.17c0-.517-1.59-.936-3.553-.936s-3.551.419-3.551.936a.238.238,0,0,0,.006.052v0c.055.247.474.469,1.12.626m.56.113h0c.069.013.138.021.212.031m5.12-.626.021-.029.436-.574.12-2.162a.406.406,0,0,0-.178-.358,5.728,5.728,0,0,0-2.473-.622c-.354-.038-.753-.067-1.206-.09-.422-.019-.8-.021-1.143-.008-1.875.063-2.6.549-2.85.8a.412.412,0,0,0-.115.3l.067,1.925.308.672v0m6.546-1.2a9.685,9.685,0,0,0-2.936-.425,9.133,9.133,0,0,0-2.865.3m4.195-2.269c.073-.279.292-.333.719-.79a1.951,1.951,0,0,0,.308-1.76,5.071,5.071,0,0,1-.149-1.207c0-.765.271-.926.271-.926-.531-.134-.862.62-.862.62a4.53,4.53,0,0,0-.109-1.437c-.185-.616-.9-.432-.9-.432.7.258.013,1.353-.122,1.3s-.05-.369-.05-.369c-.455.036-.977.71-.977.71a.633.633,0,0,0-.407-.482.576.576,0,0,0-.661.289.7.7,0,0,1,.4.13c.39.3.193.605-.055.924a2.493,2.493,0,0,0-.677,1.355,2.89,2.89,0,0,0,.921,1.971m2.15-1.07a1.735,1.735,0,0,0,.564-1.716m-.849,16.051c.216-.063.35-.147.35-.239a.008.008,0,0,0,0-.006v-.006c-.01-.1-.166-.182-.4-.243a3.923,3.923,0,0,0-1.672,0c-.245.063-.4.151-.4.253v0c0,.109.187.207.476.27m2.005-.272v-.509h0c0-.063-.063-.121-.17-.174v0a2.831,2.831,0,0,0-1.072-.17,2.638,2.638,0,0,0-1.095.184c-.094.048-.147.1-.147.161v.509m1.911,1.427.222-1.186.036-.2s-.191-.191-.927-.2h-.065c-.675,0-.74.193-.74.193l.04.243.21,1.295m.648-.406a.646.646,0,0,0-.648.406v0a.375.375,0,0,0-.015.107.457.457,0,0,0,.185.356.759.759,0,0,0,.478.159.6.6,0,0,0,.661-.515.426.426,0,0,0-.084-.251A.7.7,0,0,0,169.309,25.545Zm.468-4.188-.042,1.186M169,21.6l.021,1m1.3,17.088a12.187,12.187,0,0,0-1.219,2.279m13.643,8.465c-1.107,1.579-4.388,4.452-6.208,6.98s-3,4.611-3,5.281m-1.179,5.375a4.932,4.932,0,0,0-.172.522M183.271,53.5c-.554,1.263-4.193,5.055-5.418,6.044a13.271,13.271,0,0,0-2.374,2.449,39.942,39.942,0,0,0-3.11,6.073m0,0v0l-.038,1.433-.025,1.058m3.016-6s-1.758,3.327-3.016,6v0a21.375,21.375,0,0,0-1.216,2.926A12.322,12.322,0,0,0,171.9,80m1.714-8.365a23.889,23.889,0,0,0-1.533,5.608c-.117,1.117-.166,2.009-.18,2.757-.019,1,.021,1.741.021,2.417a36.693,36.693,0,0,1,.277,3.831,24.232,24.232,0,0,0-.594,3.515,1.836,1.836,0,0,0,.39,1.14m7.794-28.6c-.711,1.265-2.846,6.519-3.36,7.822m-1.546,29.971c.5-1.728,3.314-12.913,4.4-17.266l0,0m5.558-7.948c-.52.9-3.322,4.958-5.558,7.948l0,0c-.852,1.14-1.623,2.126-2.152,2.721-1.684,1.892-3.331,4.114-5.069,5.017-.025.107-.048.22-.071.337a35.941,35.941,0,0,0-.531,6.113c0,.331.006.645.019.934.082,1.978.2,3.3.229,3.6m1.649-2.051a21.358,21.358,0,0,1-1.649,2.051,1.518,1.518,0,0,1-.369.293c-.516.237.233,2.48.562,3.094v0a7.832,7.832,0,0,0-.47,1.686,5.332,5.332,0,0,1-1.453,2.2,1.422,1.422,0,0,0-.564,1.219c.05.327,1.674-.124,2.834-.289a3.571,3.571,0,0,1,.833-.046,6.783,6.783,0,0,0,1.946,0,5.6,5.6,0,0,1,1.944,0,8.005,8.005,0,0,0,2.414-.145,16.641,16.641,0,0,1,2.378-.178c.575.034.365-.168.365-.168v-.756m-10.007.781c.789-.832,1.747-4.165,2.125-5.562m-2.345,1.251a1.157,1.157,0,0,0,1.114.132m2.454-12.146c-1.395.168-3.236,2.786-3.236,2.786m1.451,7.967a.879.879,0,0,0,.562.01,2.918,2.918,0,0,0,1.277-.792,10.073,10.073,0,0,0,1.787-2.9,4.856,4.856,0,0,1,1.307-1.3v0a11.909,11.909,0,0,1,2.821-1.374c2.955-1.058,5.355-2.508,5.466-3.232l0-.048c0-.656-2.246-.258-2.683-1.4l0,0c-.44-1.167.73-1.278,1.676-1.89.174-.113.516-.31.965-.564.789-.444,1.9-1.056,2.974-1.663,1.219-.687,2.389-1.368,2.98-1.787a1.664,1.664,0,0,0,.388-.333c.185-.306-.189-3.107-.606-6.046-.344-2.407-.717-4.906-.843-6.211-.279-2.9-.726-3.844-.336-4.736a7.949,7.949,0,0,0,1-2.619,1.364,1.364,0,0,0-.008-.218c-.157-1.293-1.8-5.447-2.167-6.856-.39-1.5-.615-.836-.726-2.285s-.39-3.341-.5-4.345m-3.6,14.419v0c-.019.289-.05.706-.086,1.219-.109,1.554-.283,3.961-.455,6.153-.166,2.112-.329,4.02-.432,4.78-.279,2.059-1.449,11.57-.227,12.977a.006.006,0,0,1,0,0s0,0,0,0m2.676,1.448a.345.345,0,0,0,0-.048,29.579,29.579,0,0,0-.044-3.854m-8.327-10.026c.445-.612,1.617-7.02,2.622-9.971A61.492,61.492,0,0,0,183.424,60m3.182-10.26c-.612,1.24-2.81,6.553-3.064,7.1m1.581-7.215a5.089,5.089,0,0,0-.61.989m2.433,1.923S184.8,65.141,184.8,66.211c0,.878-.019,2.063.535,2.514m4.256-17.486-1.311-1.161m3.71,4.975a11.039,11.039,0,0,0-.9-4,5.442,5.442,0,0,0-1.881-2,2.8,2.8,0,0,1-.973-.815,2.384,2.384,0,0,0-.583-.373,3.316,3.316,0,0,0-1.3-.316c-.185-.006-.367-.017-.541-.031-.5-.044-.931-.115-1.168-.159-.22.006-.1.564.273.985.017.019.034.038.052.057a4.319,4.319,0,0,0,1.636,1.345,4.634,4.634,0,0,0,1.676.341M195,58.4c-.795-.817-2.131-1.843-2.416-2.294-.18-.285-.382-.658-.585-1.05v0c-.168-.321-.338-.654-.5-.962a28.594,28.594,0,0,0-1.057-2.757,2.891,2.891,0,0,0-2.045-1.244c-.038,0-.076-.006-.111-.013h0m.831-.427a2.531,2.531,0,0,0-1.682-.22m4.545,7.185s.208,3.542.434,6.3c.019.23.038.457.057.672.05.584.17,1.628.327,2.924.138,1.146.306,2.491.487,3.892.008.075.019.149.027.224.224,1.743.464,3.567.68,5.208.352,2.675.646,4.866.724,5.44a6.011,6.011,0,0,1,.122,2.547m-.029-.989a1.62,1.62,0,0,0-.094-.352,5.248,5.248,0,0,0-2.106-2.128m.432,19.884c.371-.318,1.21-1.093,1.229-1.647.023-.675-.348-5.151-.348-5.912s.675-.719.74-1.129a3.2,3.2,0,0,0,.021-.381c0-.635-.065-1.72-.065-2.1,0-.314.285-.528.453-.869a1.123,1.123,0,0,0,.115-.654c-.052-.478-.22-2.325-.348-3.725-.052-.553-.1-1.037-.124-1.341M193.087,90.1c0-.17-.013-.469-.038-.83-.029-.408-.071-.9-.113-1.355s-.086-.888-.115-1.184m2.089,1.489a.282.282,0,0,0,.04-.075c.061-.172.04-.5-.178-.6a3.733,3.733,0,0,0-1.835.369m.113,1.355a2.77,2.77,0,0,1,.831,1.2c.061.337.6.417.633.691m-4.04.017s-.917,10.95-1.047,13.193m2.058-9.11a89.486,89.486,0,0,0,.268,10.451m-12.71,3.7a3.827,3.827,0,0,0,1.443-1.623,12.479,12.479,0,0,0,.812-2.373c.719-2.629,1.542-6.553,1.735-7.99m-6.24,11.89a3.537,3.537,0,0,0,1.391-1.619,47.418,47.418,0,0,0,1.359-5.325m-2.92,2.428a17.606,17.606,0,0,0,2-6.111v0m3.339,9.71a1.359,1.359,0,0,0,.172.059,6.012,6.012,0,0,0,1.978.193.576.576,0,0,0,.336-.151c.149-.157.059-.4-.09-.616-.216-.308-.738-.369-.891-.553m.982,1.169a2.9,2.9,0,0,0,1.021.142.526.526,0,0,0,.1-.029.31.31,0,0,0,.128-.107.375.375,0,0,0-.023-.436c-.117-.119-.4-.27-.505-.4m.4.947a1.724,1.724,0,0,0,.524.031.466.466,0,0,0,.082-.025.293.293,0,0,0,.174-.2.354.354,0,0,0-.065-.312,5.574,5.574,0,0,1-.476-.381m.367.894a1.44,1.44,0,0,0,.453.025.282.282,0,0,0,.208-.142.325.325,0,0,0-.036-.348,4.948,4.948,0,0,1-.432-.346m-4.23,1.406a16.771,16.771,0,0,0,4.834.034.608.608,0,0,0,.088-.124.85.85,0,0,0,0-.662m-.229.04a.737.737,0,0,0,.141-.006.258.258,0,0,0,.088-.034.252.252,0,0,0,.052-.369,1.819,1.819,0,0,0-.352-.281,6.141,6.141,0,0,0-1.751-.388,8.315,8.315,0,0,0-1.544-.1,2.052,2.052,0,0,0-.562.13,1.383,1.383,0,0,0-.942.945,1.688,1.688,0,0,0-.052.289m2.739-2.344a7.588,7.588,0,0,0-3.347-.926m7.108,3.3a5.581,5.581,0,0,1-1.233-1.412,8.974,8.974,0,0,0-3.1-2.254m1.774-6.733c-.782,2.164.178,4.571.78,5.924m-5.806,5.076a4.174,4.174,0,0,0,.3-1.772m5.927,1.577a7.293,7.293,0,0,0,1.6.088c.453.054.453.251,1.55.534a7.743,7.743,0,0,0,2.622.478,1.035,1.035,0,0,0,.541-.155.119.119,0,0,0,.021-.178,3.2,3.2,0,0,1-.95-1.424m.929,1.6a1.006,1.006,0,0,0,.891.071c.227-.153.107-.375-.644-2.2-.331-.8-.493-4.148-.577-7.709-.109-4.506-.1-9.362-.168-9.86a.813.813,0,0,0-.061-.226c-.277-.654-1.294-.593-1.852-.76a2.187,2.187,0,0,1-1.112-.869m4.6-14.289c.245.279.39.4.564.44h0a2.313,2.313,0,0,0,.707-.046c.7-.09,1.254-1.577,1.651-2.472a23.62,23.62,0,0,0,.669-4.85m-4.05,8.53a9.407,9.407,0,0,0,1.021-1.163h0m1.927-3.45c.048-.561.052-1.864.052-2.591M194.725,73.2a.825.825,0,0,0,1.334-.061,15.713,15.713,0,0,0,.289-3.442m-1.978,1.351a6.726,6.726,0,0,0-.084.993m5.336-6.6a2.683,2.683,0,0,0-.113-.982l-.006-.01c-.082-.134-.306-.488-.512-.8-.143-.216-.275-.413-.342-.5l0,0a.224.224,0,0,0-.019-.023.53.53,0,0,0-.212-.145c-.134-.052-.279-.057-.344.025-.218.272.159.926.331,1.165a1.021,1.021,0,0,1,.117.285,4.821,4.821,0,0,1,.174,1.106c-.008.088-.013.191-.017.277-.006.107-.01.186-.01.186m1.961-1.762a2.757,2.757,0,0,0-.038-.344,1.879,1.879,0,0,0-.34-.691,2.945,2.945,0,0,0-.218-.262,4.562,4.562,0,0,0-.415-.394.9.9,0,0,0-.407-.241c-.1-.008-.346-.067-.568-.086-.178-.017-.344-.008-.411.071a.421.421,0,0,0,.092.6l.092.067m1.093,1.479a1.466,1.466,0,0,0-.071-.685,3,3,0,0,0-.348-.3c-.138-.107-.3-.224-.44-.329a0,0,0,0,1,0,0m2.592.415a3.93,3.93,0,0,0-.212-.635.448.448,0,0,0-.067-.107c-.044-.048-.155-.159-.289-.287-.235-.226-.541-.507-.675-.61a.307.307,0,0,0-.042-.031,1.293,1.293,0,0,0-.847-.132c-.478.04-.5.279-.464.478m-.86,5.08c.086,0,.17,0,.254-.01a2.782,2.782,0,0,0,1.573-.49,22.336,22.336,0,0,0,1.378-2.118,7.893,7.893,0,0,0,1.233-2.384,3.878,3.878,0,0,0-.713-1.173c-.088-.107-.182-.216-.281-.323-.136-.145-.258-.272-.367-.381-.331-.323-.558-.461-.747-.331-.327.222-.092.739.264,1.15a.006.006,0,0,1,0,0c.239.272.48.524.623.719a.656.656,0,0,1,.132.243,3.192,3.192,0,0,1-.107.7m.48-1.785,1.122-1.86-.365-.23-.438-.272-.967,1.659M201,61.978l-.331.553m-.292-1.272-.384.662m-.906,1.554-.1.172M193.28,70.4l1.139.444.31.119.579.452,1.04-1.722.642-1.066.793-1.316.893-1.481m-.155-1.383-3.792,6.515m7.536-11.917.795-.878-.78-.4-.906.756.453.251m.453-1.008L197.2,55.054l-.1,1.156-.629-.375L195,58.4l-2.586,4.514m-.986,3.128A34.9,34.9,0,0,0,189.8,61.8a3.527,3.527,0,0,0-1.212-1.339c-1.621-.955-2.064-.92-2.064-.92m-1.363,8.279a1.719,1.719,0,0,1,.268-.318c.39-.388,1.034-.811,1.722-1.41a6.241,6.241,0,0,0,1.8-3.276m1.261,8.249c-.138-2.69-.252-7.252-.415-9.265m-1.873-12.954a2.655,2.655,0,0,0-1.248.268m.268-.894a4.3,4.3,0,0,0-.9.109m7.261,22.3,1.063.421.938.371" transform="translate(10 16)" fill="none" stroke="#b3b0a7" stroke-linecap="round" stroke-linejoin="round" stroke-width="0.5"/></g></g></svg>