<svg xmlns="http://www.w3.org/2000/svg" xmlns:xlink="http://www.w3.org/1999/xlink" width="287" height="80" viewBox="0 0 287 80"><defs><clipPath id="a"><rect width="287" height="80" transform="translate(41 47)" fill="#fdfcf8" stroke="#6c655d" stroke-width="1"/></clipPath></defs><g transform="translate(-41 -47)" clip-path="url(#a)"><g transform="translate(1)"><g transform="translate(170.904 63.616) rotate(-7)" opacity="0.999"><path d="M15.1,21.962C9.13,23.831,5.2,27.675,2.34,32.551a11.908,11.908,0,0,0,.125,12.582,36.494,36.494,0,0,0,15.69,13.534A66.228,66.228,0,0,0,35.2,63.659a25.1,25.1,0,0,0,11.617-.454,36.378,36.378,0,0,0,6.171-2.451,15.816,15.816,0,0,0,5.973-5.671c.456-.739,1.054-1.433,1.585-2.131a2.734,2.734,0,0,0,.662-1.214c.243-2.612.961-5.944.935-8.558a19.142,19.142,0,0,0-.523-5.018c-.6-2.4-1.441-5.043-2.231-7.389-.6-1.769-1.775-1.909-3.44-1.256-2.071.815-4.164,1.927-6.208,2.812-1.68.728-3.252,1.454-4.953,2.132-1.328.53-2.784.915-4.075,1.521a41.02,41.02,0,0,1-5.7,1.342c-1.177,0-3.655.636-4.836.794-2.028.27-4.063.168-6.09.435-2.177.286-2.37-.343-2.361-2.537.01-2.31.327-4.433.327-6.9-.39.1-1.305-.118-1.719-.01-1.37-1.66-.956-2.917-.735-4.829a7.411,7.411,0,0,0-.347-4.2c-2.227-.733-4.942.658-6.737-1.906,2.37-2.262,3.76-2.846,6.937-2.849a13.115,13.115,0,0,0,2.735-1.18c5.048-2.377,10.141-4.665,15.1-7.211,3.257-1.671,6.307-3.742,9.471-5.6,3.526-2.067,5.563-1.8,8.166,1.3A31.613,31.613,0,0,1,58.534,7.95c1.7,3.16,3.182,6.436,4.733,9.674a11.537,11.537,0,0,1,.751,2.014c.525,2-.014,2.666-2.084,3.159a37.45,37.45,0,0,1-7.68,1.295,10.06,10.06,0,0,0-2.927.948c-.748.274-1.458.665-2.22.883a3.1,3.1,0,0,1-3.652-1.035c-.627-.826-1.574-1.819-2.327-2.787-.924.8-1.4.934-1.905,1.407-1.422,1.329-1.535,1.195-2.915-.066-.408-.375-.644-.591-1.06-.955a7.5,7.5,0,0,0-.959-.118c-2.05,3.616-.848,8.735-2.946,12.5-1.539-.674-1.465-1.841-1.456-2.925.027-2.956.107-5.911.155-8.868.016-.964.052-1.954-1.029-2.463l-3.4,1.067-.963-2.047c-.3,0-.574-.084-.739.017a2.853,2.853,0,0,0-1.068.87c-1.359,2.537-2.519,5.113-2.437,8.127.067,2.47-.12,4.949-.259,7.421-.089,1.594.262,2.091,1.82,1.943a49.623,49.623,0,0,0,7.96-1.066c1.748-.456,3.636-.344,5.439-.627a24.655,24.655,0,0,0,3.426-.951,98.76,98.76,0,0,0,13.17-5.591,14.54,14.54,0,0,1,1.761-.749c2.243-.737,3.256-.257,4.028,1.968.654,1.887,1.152,3.829,1.846,5.7a22.708,22.708,0,0,1,1.025,7.9c.005,2.129-.18,1.132-.559,4.551-.4,2.409-.28,3.052-.735,3.7-.689.977-1.545,1.843-2.18,2.851-2.241,3.56-5.615,5.417-9.4,7.009-4.036,1.7-7.141,1.525-11.476,1.636a26.138,26.138,0,0,1-3.812-.468,80,80,0,0,1-15.208-4.061c-6.465-3.179-12.63-7.317-16.491-13.354C.41,42.788-.69,38.059,1.167,34.06c2.248-4.842,5.449-9.031,10.454-11.454C12.571,22.146,13.493,21.446,15.1,21.962Zm28.1-.483a17.07,17.07,0,0,1,2.355,2.561c1.588,1.9,3.223,1.623,5.281.648,1.488-.705,3.328-1.974,4.874-1.831,2.684.246,3.756-.138,6.534-.5,0,0,1.85-.138,1.619-1.49a14.093,14.093,0,0,0-.7-2.45c-1.2-2.522-2.418-4.968-3.616-7.492-1.521-3.2-3-6.417-5.6-8.875C51.836.51,51.55-.753,47.319,1.4c-1.9,1.275-3.593,1.941-5.618,3.489-3,1.76-6.556,3.441-9.682,5.039-2.7,1.378-5.156,2.7-7.955,3.849-2.032.834-3.871,2.089-6.238,1.979a5.629,5.629,0,0,0-4.757,2.62c1.961,1.667,3.793,1.065,5.111,1.082,1.888.529,1.215.5,1.988,2.635-.121,1.349-.35,2.816-.4,4.166a7.262,7.262,0,0,0,.276,2.1c.223-.011,1.7.105,1.925.093.1-.735-.609-2.207-.5-2.939a4.351,4.351,0,0,1,.265-1.32c.377-.738.9-1.4,1.311-2.12.394-.693.642-1.479,1.1-2.125,1.144-1.631,2.818-1.487,3.882.268a3.21,3.21,0,0,0,.557.523l2.266-1.259c1.593.489,1.6,1.46,1.569,2.922-.055,2.388.014,4.94-.04,7.328-.025,1.1-.412,3.3.849,4.5a27.224,27.224,0,0,0,1.1-5.248c.344-1.72.61-4.041,1.079-5.729.429-1.548,1.434-1.814,2.693-.834.622.485,1.193,1.035,1.855,1.616C41,23.209,41.99,22.433,43.2,21.479Z" transform="translate(0 0)" fill="#b3b0a7" fill-rule="evenodd"/><path d="M9.923,0a6.408,6.408,0,0,1-.865.957A16.233,16.233,0,0,0,2.78,8.915c-.97,2.345-2.289,4.636-1.768,7.33A16.456,16.456,0,0,0,8.6,27.667,80.491,80.491,0,0,0,17,31.7a34.737,34.737,0,0,0,12.086,2.664,19.939,19.939,0,0,0,3.786-.392,18.572,18.572,0,0,0,14.365-9.607c1.252-2.131,1.6-4.8,2.332-7.226.09-.3,0-.655.1-.951a8.012,8.012,0,0,0-.533-6.015,2.787,2.787,0,0,1-.087-.9c.5-.245.5,1.052.371-.312.279.157.4.167.416.254.134,1.022.68,1.514.572,2.515-.429,3.963-.478,7.837-2.287,11.459-1.016,2.033-1.984,4.171-3.927,5.6-.892.656-1.538,1.427-2.453,2.038a20.206,20.206,0,0,1-14.082,3.6,35.263,35.263,0,0,1-13.476-3.58c-1.9-.989-4.023-1.962-5.833-3.09C4.355,25.271,2.387,22.219.993,17.86a7.49,7.49,0,0,1,.166-5.941C2.121,9.993,2.906,8,3.849,6.063,5,3.711,6.965,2.383,8.9.705,9.107.521,9.183.08,9.923,0Z" transform="translate(6.86 25.606)" fill="#b3b0a7" fill-rule="evenodd"/><path d="M8.135,3.54C8.139,6.1,6.745,8,4.829,8.052,2.506,8.11-.012,5.988,0,3.984A4.345,4.345,0,0,1,4.342,0C7.076.1,8.328,1.3,8.135,3.54ZM2.14,2.367a6.683,6.683,0,0,1,2.5-.9c.792.06,1.532.821,2.228,1.236C6.23.539,4.041.192,2.14,2.367Z" transform="translate(24.87 44.41)" fill="#b3b0a7" fill-rule="evenodd"/><path d="M4.081,0A2.653,2.653,0,0,1,6.593,2.915C6.534,4.623,4.878,6.624,3.461,6.7A3.86,3.86,0,0,1,0,3.327C.074,1.337,1.718,0,4.081,0ZM3.645,3.224c1.169.094,1.453-.307.865-1.389ZM2.7,1.858l-.467-.232q-.36.73-.722,1.46l.444.22Zm1.91,3.4-.263-.371c-.344.19-.688.379-1.032.57.059.113.119.226.178.34Z" transform="translate(44.383 35.077)" fill="#b3b0a7" fill-rule="evenodd"/><path d="M.145,15.181c.237-.447.485-.936.752-1.414.228-.407.478-.8.964-1.606L0,13.037C1.449,11.03,2.686,9.317,3.924,7.6l-.6-.535q-.241.768-.482,1.539L2.3,8.182c.585-1.344,1.236-2.663,1.737-4.037A26.439,26.439,0,0,1,5.646,0c-.034.481-.076.96-.1,1.441-.105,1.845-.2,3.689-.309,5.533a2.089,2.089,0,0,1-.131.9C3.6,10.4,2.073,12.906.544,15.412a.19.19,0,0,1-.181.03C.3,15.406.26,15.325.145,15.181Z" transform="translate(53.864 42.83)" fill="#b3b0a7" fill-rule="evenodd"/><path d="M2.3,5.1C.909,5.068,0,4.319,0,3.212,0,1.844,1.546-.007,2.678,0,3.951.007,5.559,1.334,5.58,2.4,5.608,3.847,4.045,5.132,2.3,5.1ZM1.126,3.317c1.757,1.4,3.042.98,3.432-1.045C3.084,4.005,3.084,4.005,1.126,3.317Z" transform="translate(12.242 33.353)" fill="#b3b0a7" fill-rule="evenodd"/><path d="M3.045,7.824C2.5,7.048,2.081,6.391,1.6,5.776S.6,4.584,0,3.885C.964,2.633,1.855,1.476,2.99,0L6.178.625C6.778,3.973,5.684,6.395,3.045,7.824ZM1.361,3.334c.909,1.086,1.7,2.029,2.5,2.984,1.451-1.845,1.662-2.543,1.5-4.7C3.282.819,3.26.829,1.361,3.334Z" transform="translate(13.02 41.337)" fill="#b3b0a7" fill-rule="evenodd"/><path d="M3.99,6.487C2.528,6.882,1.481,6.12.642,5a3.16,3.16,0,0,1-.154-3.6A1.917,1.917,0,0,1,2.365.169,10.819,10.819,0,0,0,3.781.045c3.25-.268,4.031.6,3.345,3.864C6.908,4.949,6.878,6.164,5.6,6.727L6.584.976C4.788.959,3.392.862,2.011.967A1.775,1.775,0,0,0,.9,3.278,6.9,6.9,0,0,0,2.626,5.421,4.131,4.131,0,0,0,4.1,5.944Q4.043,6.216,3.99,6.487Z" transform="translate(38.034 46.257)" fill="#b3b0a7" fill-rule="evenodd"/><path d="M1.366,0l.7.963C1.524,3.06,1.006,5.077.488,7.094.072,4.628-.688,2.148,1.366,0Z" transform="translate(5.013 32.448)" fill="#b3b0a7" fill-rule="evenodd"/><path d="M2.862,0,0,5.85C.29,3.552.927,1.43,2.862,0Z" transform="translate(3.361 30.054)" fill="#b3b0a7" fill-rule="evenodd"/><path d="M1.006,2.728Q.5,1.453,0,.175L.416,0Q.984,1.206,1.553,2.415Z" transform="translate(5.43 43.611)" fill="#b3b0a7" fill-rule="evenodd"/><path d="M0,2.121C2,1.4,2.565,2.76,3.761,3.18c.094-1,.183-1.949.3-3.18.9,1.01.71,2.835,2.243,2.562L7.926,5.471l.54-.311c.213,2.37.425,4.715.668,7.419l-.725-1.293c-.8,2.061.721,4,0,6.451C7.4,14.458,6.715,11.653,5.656,9A15.48,15.48,0,0,0,0,2.121ZM7.233,8.883l.486-.169c-.214-.77-.428-1.54-.7-2.517C5.727,7.515,6.795,8.137,7.233,8.883ZM5.158,5.731l.756-.117q-.276-1.26-.551-2.521l-.618.12Q4.952,4.472,5.158,5.731Z" transform="translate(47.78 3.411)" fill="#b3b0a7" fill-rule="evenodd"/><path d="M3.075,4.806C1.113,4.731,0,3.9,0,2.51,0,.813,1.281-.078,3.615.005,5.109.058,5.828.914,5.763,2.563,5.7,4.191,4.878,4.876,3.075,4.806Z" transform="translate(33.306 12.702)" fill="#b3b0a7" fill-rule="evenodd"/><path d="M0,.506a2.451,2.451,0,0,1,3.243.25,4.01,4.01,0,0,1,.882,3.752,1.2,1.2,0,0,1-1.653.85,3.135,3.135,0,0,1-2.379-3.3A15.343,15.343,0,0,0,0,.506Z" transform="translate(46.983 15.562)" fill="#b3b0a7" fill-rule="evenodd"/><path d="M7.187,3.425c-.1,3.057-1.687,3.524-4.193,3.74A2.567,2.567,0,0,1,0,4.323,4.4,4.4,0,0,1,4.411,0C6.186.09,7.235,1.381,7.187,3.425Zm-1.028.037c-.046-1.628-.8-2.5-2.177-2.508A3.11,3.11,0,0,0,.864,4.13,2.039,2.039,0,0,0,3.13,6.289C5.161,6.227,6.21,5.249,6.159,3.462Z" transform="translate(40.689 6.786)" fill="#b3b0a7" fill-rule="evenodd"/><path d="M.466,5.949Q.232,2.975,0,0C1.16,1.909,1.3,3.444.466,5.949Z" transform="translate(57.716 14.767)" fill="#b3b0a7" fill-rule="evenodd"/><path d="M1.376.327.264,1.389,0,1.157Q.522.58,1.042,0Z" transform="translate(51.618 56.754)" fill="#b3b0a7" fill-rule="evenodd"/></g><g transform="translate(265.433 87.96) rotate(17)"><path d="M0,29.187C.421,23.5,1.365,18.225,2.058,12.668l1.118.185c-.232-1.644-.551-3.264-.665-4.9s-.025-3.282-.025-5.01C4.3,3.26,5.121,4.606,6.159,5.831L7.311.72c1.776.773,2.482,2.321,3.5,3.63C11.945,3,12.336,1.187,13.706,0c.946.693.648,1.8,1.134,2.611l2.066-2c1.19.713,1.308.912,2.038,3.291,1.134-.762,1.378-2.412,2.868-2.811,1.027.5.7,1.714,1.263,2.57l1.675-2.6a1.273,1.273,0,0,1,.775,1.346c.043,3.7.173,7.414-1.361,10.923a3.835,3.835,0,0,0-.122.983c-.172,1.258-.33,2.518-.527,3.773-.2,1.3-.44,2.593-.675,3.886-.409,2.255-.843,4.507-1.233,6.765-.143.827-.4,1.569-.528,2.4a7.064,7.064,0,0,1-.145,1.115c-.179.575-.252.882-.719.64-1.956-1.014-4.5-.851-6.59-1.2-2.637-.441-5.244-1.075-7.847-1.7-.86-.127-1.825-.265-3.743-.474C1.829,29.512.2,29.225,0,29.187ZM23.515,15.016l-.313-.2c-.811.338-1.64.641-2.43,1.023-1.3.629-3.241,1.523-4.506,2.217s-1.876,1.039-3.159,1.724c-1.046.559-2.131.95-3.179,1.419a59.517,59.517,0,0,0-7.4,2.667c-.322.151-.487.326-1.038-.087,2.668-1.053,5.8-1.918,8.334-2.916-.54-1.34-5.69-7-7.376-7.783C1.73,14.992.239,28.517.276,28.972c.543.11,6.8.931,7.691,1.225a64.952,64.952,0,0,0,7.748,1.45,24.831,24.831,0,0,1,4.016.738l.7.165.058-.315C21.835,26.5,22.521,20.731,23.515,15.016Zm-9.781,3.811c.831-.481.831-.481,1.262-2.068.95-3.507,1.123-8.854.331-10.255a6.4,6.4,0,0,0-2.454,2.461,2.093,2.093,0,0,0-.359,1.159,29.376,29.376,0,0,1-1.216,9.19,4.072,4.072,0,0,1-.293.662,2.3,2.3,0,0,1-.038-1.192c.112-.54.263-1.073.4-1.608,1.175-4.7,1.01-9.537-1.635-13.727a8.04,8.04,0,0,0-2.2-1.927c-.252,1.251-.506,2.355-.687,3.471-.179,1.1-.717,1.091-.264,2.181a21.842,21.842,0,0,1,1.491,4.877c.136,1.56-.009,3.143.026,4.716A2.892,2.892,0,0,0,8.436,18.2c.516.818,1.165,1.553,1.853,2.443,1.327-.608,2.984-.821,3.3-2.778.087-.543.286-1.066.407-1.6.211-.937.4-1.879.6-2.819l.276.052A27.89,27.89,0,0,1,13.734,18.827Zm3.75-1.915c1.357-.7,2.423-1.312,3.541-1.8a1.419,1.419,0,0,0,.937-1.217,38.109,38.109,0,0,0,.578-10.064c-.111-.887-.5-2.262-.827-2.293.11.149.027.035-.067-.09-.316.343-.782.781-1,1.068-.363.471-.664.993-1.052,1.441a2.11,2.11,0,0,0-.519,1.641,24.913,24.913,0,0,1-1.188,9.554C17.73,15.621,17.66,16.122,17.484,16.912Zm-2.228.946c1.622-.561,1.642-.591,2.006-2.026.219-.865.446-1.729.7-2.583a20.573,20.573,0,0,0,.628-7.465,15.34,15.34,0,0,0-.695-3.1A2.013,2.013,0,0,0,16.824,1.28c-1.576,1.139-2.541,2.482-1.713,4.577.649-.153.939.231,1.013.878a9.889,9.889,0,0,1,.2,1.636c-.108,1.95-.237,3.9-.442,5.842C15.754,15.423,15.474,16.616,15.256,17.858ZM3.045,3.98c-.345,3.124.364,8.927,1.317,9.97-.293-2.481-.567-4.793-.84-7.105l.27-.057a1.432,1.432,0,0,1,.184.4c.2,1.685.378,3.373.6,5.055a6.12,6.12,0,0,0,.486,2.449,21.8,21.8,0,0,0,2.815,2.993C8.683,10.737,4.833,2.7,3.045,3.98ZM22.47,14.273l.206.2c.277-.274.658-.5.809-.831a14.175,14.175,0,0,0,.979-2.621,34.3,34.3,0,0,0,.747-8.789,2.731,2.731,0,0,0-.325-.731s-.828,1.371-1.1,1.794a4.825,4.825,0,0,0-.71,3.13c-.052.823.047,1.608-.026,2.408l-.01.1C22.881,10.655,22.665,12.463,22.47,14.273ZM13.684.672a22.285,22.285,0,0,0-2.456,4.143.871.871,0,0,0,.047.6c.374,1.056.769,2.105,1.215,3.314C13.1,8,13.674,7.348,14.207,6.659a1.226,1.226,0,0,0,.229-.714A18.87,18.87,0,0,0,13.684.672Z" transform="translate(0 0)" fill="#b3b0a7" fill-rule="evenodd"/><path d="M.919,5.484C.613,3.653.311,1.855,0,0,.486.478.722,1.146.991,2.708,1.286,4.422,1.28,4.743.919,5.484Z" transform="translate(8.889 5.417)" fill="#b3b0a7" fill-rule="evenodd"/><path d="M0,6.036Q.491,3.017.981,0l.294.054a25.719,25.719,0,0,1-1.04,6.07Z" transform="translate(20.681 8.759)" fill="#b3b0a7" fill-rule="evenodd"/><path d="M1.05.058Q.692,2.087.333,4.115L0,4.056Q.349,2.027.7,0Z" transform="translate(17.083 7.733)" fill="#b3b0a7" fill-rule="evenodd"/></g><path d="M10.754,30.1l.6,6.039c-1-.7-.678-1.369-.718-2.331-.216-5.179-.13-10.4-.417-15.576-.08-1.432-.119-2.928-.333-4.424A10.678,10.678,0,0,1,2.451,8.431c-1.32-2.806-.565-5.548.2-8.359,2.523.152,5,.425,7.469.413S15.086.177,17.653,0a17.3,17.3,0,0,1,.365,7.46c-.567,3.083-2.752,4.851-5.568,5.919-.407.154-1.546.377-2.027.518,0,2.52.212,4.855.221,7.355.008,2.289.16,5.058.186,7.347.016,1.4.681,1.218,2.1,1.471a13.932,13.932,0,0,1,3.193.857c1.644.729,2.175,1.9,1.45,3.538a21.482,21.482,0,0,1-2.45,3.664A3.547,3.547,0,0,1,13.6,39.264c-1.506.305-2.851.581-4.377.759a11.1,11.1,0,0,1-7.109-1.2A6.672,6.672,0,0,1,.477,37.428a1.984,1.984,0,0,1-.183-2.343,8.02,8.02,0,0,1,5.392-4.633c.973-.229,1.933-.516,2.908-.737a3.794,3.794,0,0,1,1.609.169c-1.276.374-3.387.807-4.669,1.159A7.171,7.171,0,0,0,.91,34.866C.388,35.872-.051,36.38.776,37.209a9.4,9.4,0,0,0,7.215,2.6c.889-.05,3.352-.68,4.236-.8,2.173-.283,4.692-3.013,5.091-5.354.187-1.1.278-1.146-.567-1.908C15.477,30.6,12.545,30.225,10.754,30.1ZM5.944,11.8c4.613,3.36,7.886.511,10.5-1.528,1.232-1.508,2.037-4.79,1.14-6.468-2.426.361-8.208.286-8.912.373-1,.263-4.18-.21-6.313.343-.776.527.265,3.442,1.115,4.872C4.057,10.442,4.134,10.437,5.944,11.8ZM17.147.907c-4.8.685-9.45,1.348-14.21.316A7.037,7.037,0,0,0,2.2,4.15c4.393-.107,9.6-.4,13.986-.546a4.779,4.779,0,0,0,1.322-.5C17.383,2.353,17.271,1.672,17.147.907Z" transform="matrix(0.985, -0.174, 0.174, 0.985, 158.547, 86.618)" fill="#b3b0a7" fill-rule="evenodd"/><path d="M1.816,20.634c-2.32-2.393-2.006-3.032.559-6.1-1.172-2.525-.23-4.484,1-6.6A9.746,9.746,0,0,1,6.623,5.053C10.175,2.762,13.9.79,18.151.141A21.228,21.228,0,0,1,21.959.033c4.249.126,8.42.691,12.151,2.916a26.3,26.3,0,0,1,3.118,2.488c.244.2.4.523.661.689,2.071,1.315,2.154,3.256,1.738,5.368a6.468,6.468,0,0,0-.05.687,4.707,4.707,0,0,0,.654.553,2.306,2.306,0,0,1,1.1,2.955,2.911,2.911,0,0,0,.173,2.175,8.663,8.663,0,0,1-.617,8.4,3.675,3.675,0,0,0-.685,2.075c-.054,2.48-1.564,4.113-3.7,5.128a23.664,23.664,0,0,1-3.662.981,37.227,37.227,0,0,1-23.994-.781,8.86,8.86,0,0,1-5.5-5.289,1.666,1.666,0,0,0-.876-.907c-3.136-1.09-2.951-3.178-1.366-6.045A5.152,5.152,0,0,1,1.816,20.634ZM23.979,31.356c2.544.508,5.073-.2,7.606-.109A9.4,9.4,0,0,0,38,28.685a4.278,4.278,0,0,0,.665-.942,3,3,0,0,0-2.142.729,5.031,5.031,0,0,1-3.8,1.88c-2.413.18-4.828.324-7.242.489-.541.037-1.191-.2-1.492.528l-2.9-.639-.065.353ZM16.438,18.449c2.869-.173,5.957-.122,9.074-.238,3.207-.736,6.332-1.624,9.463-2.518,2.512-.717,3.716-2.579,4.062-5.039.16-1.138.433-2.845-.936-3.493a23.239,23.239,0,0,1-2.485-2.255A24.983,24.983,0,0,0,31.91,2.519C28.382.528,21.747.27,20.73.363a23.8,23.8,0,0,0-4.047.331c-3.245.48-5.189,2.041-8.065,3.606-2.664,1.449-5.09,2.912-6.146,5.846-.542,1.505-.787,2.862.281,4.121a11.653,11.653,0,0,0,6.191,3.552C11.342,18.121,13.758,18.243,16.438,18.449Zm18.993,1.51c-.035.457-.075.829-.09,1.2A2.7,2.7,0,0,1,33.209,23.8c-2.97.707-5.807.606-8.433-1.534a4.874,4.874,0,0,0-.75-.486,11.147,11.147,0,0,1-2.413-.793c-.244-.012-.827.5-1.3.619-1,.578-1.844.278-3,.09a4.483,4.483,0,0,1-2.161-1.815,13.69,13.69,0,0,0-1.686,1.363c-1.332.661.355.407-5.241,1.173,1.082.516,4.942,1.173,5.941,1.567a11.854,11.854,0,0,0,2.389.646c1.317.217,2.648.338,3.975.5,4.61,2.627,7.824.982,11.74,1.429a36.838,36.838,0,0,0,4.565.289,4.223,4.223,0,0,0,3.592-1.427c1.5-1.953,1.808-6.281.171-8.369-.544.177-1.8.62-2.022,1.017A3.87,3.87,0,0,1,35.431,19.959Zm3.957,8.582c-.491.4-.8.7-1.154.94a13.219,13.219,0,0,1-6.474,2.6,61.368,61.368,0,0,1-10.668.113,8.843,8.843,0,0,1-3.27-.91,3.328,3.328,0,0,0-2.928-.27c-1.825.566-3.811,1.157-5.751-.026-.413-.253-1.13-.008-1.707.008q-.056.253-.112.5c.826.4,1.609,1.6,2.469,1.911,3.93,1.414,7.994,1.377,12.181,1.579a41.72,41.72,0,0,0,13.559-2.025A8.042,8.042,0,0,0,37.719,31.8,3.856,3.856,0,0,0,39.388,28.541ZM15.057,18.819c-1.685,0-3.093.112-4.478-.023a12.111,12.111,0,0,1-6.007-2.3c.127.092-.363-.241-.49-.335a8.415,8.415,0,0,1-1.413-1.32c-.062-.074-.666.473-1.2,1.28-1.719,2.809-.476,3.173,1.11,4.5a4.784,4.784,0,0,1,2.683-.07C6.466,21.49,13.235,22.015,15.057,18.819Zm23.972-5.641c-1.862,2.159-3.353,2.543-5.682,3.429-1.346.3-2.34.59-3.627.972L28.3,20.12a32.981,32.981,0,0,0,4.433-.7,4.784,4.784,0,0,1,2.19-.325,3.656,3.656,0,0,0,2.192-.4,2.071,2.071,0,0,0,.9-1.176c1.077-.194,2.48-.409,2.863-2C41.164,14.326,40.75,12.491,39.029,13.177Zm-9.62,4.555a19.446,19.446,0,0,0-3.269.805c-3.8.145-5.773.213-9.572.393a.941.941,0,0,0-.707,1.442c.808,1.343,3.407,1.7,4.862.855a8.253,8.253,0,0,0,.893-.552,4.86,4.86,0,0,0,5.263.109C27.675,20.3,27.825,20.392,29.409,17.733Zm-4.177,4.606c.56.667,3.634,2.274,7.808.833,1.519-.335,2.1-1.873,1.918-3.439a26.628,26.628,0,0,1-4.578.672C28.691,20.252,26.33,20.859,25.232,22.339ZM3.067,20.808c-.8,2.386,1.083,5.805,3.516,6.066-.691-1.245-1.477-3.465-2.157-4.69l.385-.237c.44.587.762,2.055,1.166,2.665.6.9.981,1.374,1.588,2.267a3.522,3.522,0,0,0,2.822,1.414c-1.03-1.695-2.239-3.86-3.393-5.41C6.288,21.935,4.631,20.058,3.067,20.808Zm.686,5.731c-.058,1.859.9,5.159,2.785,4.982.968-.09,2.33-1.647,3.227-1.149,2.463,2.142,4.476.169,5.388-.524-1.493-.448-4.749-.823-6.167-1.342S5.119,27.136,3.753,26.54Zm-.127-.475a10.9,10.9,0,0,1-1.052-2.217,12.854,12.854,0,0,1-.04-2.68C.89,22.46.246,24.5.964,25.482A1.86,1.86,0,0,0,3.626,26.064Zm9.595,2.642a23.253,23.253,0,0,1-2.692-3.795,2.541,2.541,0,0,0-2.676-1.669L11.441,28.4C11.965,28.494,12.562,28.6,13.221,28.706Zm6.513,2.042a30.244,30.244,0,0,1-1.688-3.56c-.681-1.271-1.747-1.353-3.347-1.326C16.431,27.3,16.69,31.215,19.734,30.749Zm9.389-1.075a8.888,8.888,0,0,0,2.9-.271c-.918-2.558-2.679-2.549-6.462-2.343C26.111,27.672,28.363,28.828,29.123,29.673Zm-12.985.107c-.662-.968-1.679-2.654-2.232-3.68-.642-1.191-1.663-1.551-3.261-1.933C12.289,26.3,12.394,28.8,16.138,29.78Zm3.011-3.464c1.452,3.014,3.127,4.82,5.153,4.389C23.136,29.434,21.551,26.2,19.149,26.316ZM27.986,30.3c-.93-1.815-2.8-3.494-4.835-3.229C24.38,29.416,23.718,30.788,27.986,30.3Zm4.454-2.572-.127.415a5.8,5.8,0,0,0,1.705.958c.412.074.924-.416,1.391-.654-.029-.106-.058-.213-.088-.317Z" transform="matrix(0.966, 0.259, -0.259, 0.966, 245.487, 46.955)" fill="#b3b0a7" fill-rule="evenodd"/></g></g></svg>