<svg xmlns="http://www.w3.org/2000/svg" xmlns:xlink="http://www.w3.org/1999/xlink" width="15" height="19" viewBox="0 0 15 19"><defs><style>.a{fill:none;stroke:#707070;}.b{clip-path:url(#a);}.c{fill:#e4e2d9;}.d,.e{stroke:none;}.e{fill:#6c655d;}.f{filter:url(#b);}</style><clipPath id="a"><rect class="a" width="15" height="19" transform="translate(306 28.5)"/></clipPath><filter id="b" x="-309.5" y="-31" width="321.999" height="104" filterUnits="userSpaceOnUse"><feOffset dx="1" dy="2" input="SourceAlpha"/><feGaussianBlur stdDeviation="1.5" result="c"/><feFlood flood-color="#6c655d" flood-opacity="0.6"/><feComposite operator="in" in2="c"/><feComposite in="SourceGraphic"/></filter></defs><g class="b" transform="translate(-306 -28.5)"><g class="f" transform="matrix(1, 0, 0, 1, 306, 28.5)"><g class="c" transform="translate(-306 -28.5)"><path class="d" d="M 312.499267578125 94.49955749511719 L 0.5000104308128357 94.49955749511719 L 0.5000104308128357 0.5016618371009827 L 312.4992980957031 1.49835193157196 L 312.4992980957031 3.324038028717041 C 309.0262756347656 3.451313495635986 306.2398071289062 6.316360950469971 306.2398071289062 9.819905281066895 C 306.2398071289062 13.32299900054932 309.0262756347656 16.18766975402832 312.499267578125 16.31492805480957 L 312.499267578125 22.32392311096191 C 309.0262756347656 22.45119857788086 306.2398071289062 25.31624603271484 306.2398071289062 28.81978988647461 C 306.2398071289062 32.32288360595703 309.0262756347656 35.18759155273438 312.499267578125 35.31484985351562 L 312.499267578125 41.32376861572266 C 309.0262756347656 41.45104598999023 306.2398071289062 44.31613159179688 306.2398071289062 47.8197135925293 C 306.2398071289062 51.32325744628906 309.0262756347656 54.1883430480957 312.499267578125 54.31562042236328 L 312.499267578125 60.32373046875 C 309.0262756347656 60.45100402832031 306.2398071289062 63.31605529785156 306.2398071289062 66.81959533691406 C 306.2398071289062 70.32314300537109 309.0262756347656 73.18822479248047 312.499267578125 73.31550598144531 L 312.499267578125 79.32361602783203 C 309.0262756347656 79.45088958740234 306.2398071289062 82.31597900390625 306.2398071289062 85.81951904296875 C 306.2398071289062 89.32306671142578 309.0262756347656 92.18814849853516 312.499267578125 92.3154296875 L 312.499267578125 94.49955749511719 Z"/><path class="e" d="M 311.9992980957031 93.99954223632812 L 311.9992980957031 92.78090667724609 C 308.4862976074219 92.40969848632812 305.7398376464844 89.42929840087891 305.7398376464844 85.81949615478516 C 305.7398376464844 82.20973968505859 308.4862976074219 79.2293701171875 311.9992980957031 78.85816955566406 L 311.9992980957031 73.78099060058594 C 308.4862976074219 73.40978240966797 305.7398376464844 70.42938232421875 305.7398376464844 66.819580078125 C 305.7398376464844 63.20982360839844 308.4862976074219 60.22941970825195 311.9992980957031 59.85821151733398 L 311.9992980957031 54.78107833862305 C 308.4862976074219 54.40986633300781 305.7398376464844 51.42946624755859 305.7398376464844 47.81970596313477 C 305.7398376464844 44.20991134643555 308.4862976074219 41.2295036315918 311.9992980957031 40.85829544067383 L 311.9992980957031 35.78033065795898 C 308.4862976074219 35.4091682434082 305.7398376464844 32.42911911010742 305.7398376464844 28.81978988647461 C 305.7398376464844 25.21003150939941 308.4862976074219 22.22962951660156 311.9992980957031 21.85842132568359 L 311.9992980957031 16.78037452697754 C 308.4862976074219 16.40921401977539 305.7398376464844 13.42920303344727 305.7398376464844 9.819873809814453 C 305.7398376464844 6.2101149559021 308.4862976074219 3.229747533798218 311.9992980957031 2.858543634414673 L 311.9993286132812 1.996730923652649 L 1.000039339065552 1.003244996070862 L 1.000039339065552 93.99954223632812 L 311.9992980957031 93.99954223632812 M 312.9993286132812 94.99954223632812 L 312.9992980957031 94.99954223632812 L 312.998291015625 94.99954223632812 L 312.9992980957031 94.99954223632812 L 312.9993286132812 94.99954223632812 Z M 312.9993286132812 94.99954223632812 L 3.93066402466502e-05 94.99954223632812 L 3.93066402466502e-05 4.019165135105141e-05 L 312.9993286132812 0.9999151825904846 L 312.9992980957031 3.825165271759033 C 312.9194030761719 3.821831941604614 312.8325500488281 3.819623470306396 312.7401123046875 3.819623470306396 C 309.4315490722656 3.819623470306396 306.7398376464844 6.511332035064697 306.7398376464844 9.819873809814453 C 306.7398376464844 13.12795639038086 309.4315490722656 15.81929016113281 312.7401123046875 15.81929016113281 C 312.8255920410156 15.81929016113281 312.9127807617188 15.81745719909668 312.9992980957031 15.8137903213501 L 312.9992980957031 22.82504081726074 C 312.9194030761719 22.82170677185059 312.8325500488281 22.81949806213379 312.7401123046875 22.81949806213379 C 309.4315490722656 22.81949806213379 306.7398376464844 25.51120758056641 306.7398376464844 28.81978988647461 C 306.7398376464844 32.12787246704102 309.4315490722656 34.81924819946289 312.7401123046875 34.81924819946289 C 312.8265075683594 34.81924819946289 312.9136657714844 34.81733322143555 312.9992980957031 34.81366348266602 L 312.9992980957031 41.82487487792969 C 312.9197387695312 41.82158279418945 312.8329467773438 41.81937408447266 312.7401123046875 41.81937408447266 C 309.4315490722656 41.81937408447266 306.7398376464844 44.51112365722656 306.7398376464844 47.81970596313477 C 306.7398376464844 51.12829208374023 309.4315490722656 53.81999969482422 312.7401123046875 53.81999969482422 C 312.8255920410156 53.81999969482422 312.9127807617188 53.81816482543945 312.9992980957031 53.81449890136719 L 312.9992980957031 60.82483291625977 C 312.9194030761719 60.82149887084961 312.8325500488281 60.81929016113281 312.7401123046875 60.81929016113281 C 309.4315490722656 60.81929016113281 306.7398376464844 63.5109977722168 306.7398376464844 66.819580078125 C 306.7398376464844 70.12820434570312 309.4315490722656 72.81991577148438 312.7401123046875 72.81991577148438 C 312.8262023925781 72.81991577148438 312.9134216308594 72.81808471679688 312.9992980957031 72.81437683105469 L 312.9992980957031 79.82474517822266 C 312.9197387695312 79.82141876220703 312.8329467773438 79.81925201416016 312.7401123046875 79.81925201416016 C 309.4315490722656 79.81925201416016 306.7398376464844 82.51091766357422 306.7398376464844 85.81949615478516 C 306.7398376464844 89.12808227539062 309.4315490722656 91.81983184814453 312.7401123046875 91.81983184814453 C 312.8255920410156 91.81983184814453 312.9127807617188 91.81795501708984 312.9992980957031 91.81429290771484 L 312.9992980957031 94.99854278564453 L 312.9992980957031 94.99954223632812 Z"/></g></g></g></svg>