<svg xmlns="http://www.w3.org/2000/svg" xmlns:xlink="http://www.w3.org/1999/xlink" width="287" height="80" viewBox="0 0 287 80"><defs><clipPath id="a"><rect width="287" height="80" transform="translate(11 8)" fill="#fff" stroke="#707070" stroke-width="1"/></clipPath></defs><g transform="translate(-11 -8)" clip-path="url(#a)"><path d="M27.923,102.388a13.122,13.122,0,0,0,1.365.377m1.774.84c.073.362.361.772.507.8m-1.085-.627a1.81,1.81,0,0,0,.217-.723m2.134-.216a3.106,3.106,0,0,0-1.189.4h0l-.122.063m2.667.213c-.37-.006-.75,0-1.106,0h0c-.5.011-.953.03-1.254.045m-1.808-.091a4.939,4.939,0,0,0-1.817-.008m4.109.675a.932.932,0,0,0-.257-.386,2.808,2.808,0,0,0-.228-.19,2.778,2.778,0,0,1-.3-.255l-.008-.008c-.022-.023-.043-.047-.064-.07-.08-.091-.152-.187-.239-.268a.963.963,0,0,0-.1-.079,1.418,1.418,0,0,0-.42-.171c-.121-.035-.274-.061-.353.037l-.007.01a.428.428,0,0,0-.051.191.885.885,0,0,1-.274.523l-.006.006c-.086.078-.188.139-.267.224a.494.494,0,0,0-.059.081v0a.291.291,0,0,0-.034.235.279.279,0,0,0,.065.1h0a.69.69,0,0,0,.11.091,3.66,3.66,0,0,0,2.046.662.661.661,0,0,0,.465-.524.533.533,0,0,0-.027-.214m0,0a.675.675,0,0,0,.212-.008,2.415,2.415,0,0,0,.31-.117,2.069,2.069,0,0,1,1.172.1,5.149,5.149,0,0,0,1.484.142h0c.073,0,.144-.008.215-.015.188-.017.439-.142.369-.318-.057-.147-.319-.192-.291-.348.016-.091.126-.128.217-.145l.88-.174c-.138-.524-.794-.725-1.333-.671a7.842,7.842,0,0,1-1.607.216,2.072,2.072,0,0,1,.5-.236c.167-.078.33-.232.31-.415-.031-.281-.414-.338-.694-.3a6.472,6.472,0,0,0-2.836,1.109m-.877-.2a6.878,6.878,0,0,0-2.95-.717.467.467,0,0,0-.324.08c-.163.147-.047.432.137.556a6.067,6.067,0,0,1,.581.308,4.951,4.951,0,0,1-1.77.133,2.371,2.371,0,0,0-1.168.423.462.462,0,0,0-.207.253c-.054.247.256.409.507.44a7.578,7.578,0,0,0,1.79-.136,11.188,11.188,0,0,1,1.891-.034c.3.015.592.036.887.059m-1.121.8s-1.378.622-1.51,1.193m12.435.8a22.02,22.02,0,0,0-3.632-1.861m.325,11.72c.187-3.829-3.525-10.593-3.525-10.593m6.285,4.847A12.5,12.5,0,0,0,32.6,104.74m11.945,16.147a10.059,10.059,0,0,0,.574-2.674M30.58,104.7a8.671,8.671,0,0,0-2.042,4.068c-.487,2.488-.777,5.521-.777,5.521m-9.652,12.77a9.616,9.616,0,0,0,3.989,2.164m-1.731-6.4a4.727,4.727,0,0,0,1.936,1.858m-2.866-5.621s2.253,5.288,5.052,6.464m22.661,2.652a27.037,27.037,0,0,0,.528-4.656m-5.739,3.459a7.779,7.779,0,0,0,4.308-2.237M35.49,104.259c3.271.913,8.051,2.607,9.92,11.826a34.713,34.713,0,0,0,2.266,7.433c1.692,3.761,2.949,3.932,1.27,5.318-2.416,2-6.716,2.251-10.682,2.072s-7.725.329-12.224.657a66.922,66.922,0,0,1-10.434-.461.855.855,0,0,1-.66-1.257c.535-.994,1.313-2.46,1.84-3.541.875-1.8,1.91-9.836,4.368-15.433a10.944,10.944,0,0,1,7.674-6.808" transform="translate(184.491 -42.609) rotate(-8)" fill="none" stroke="#b3b0a7" stroke-linecap="round" stroke-linejoin="round" stroke-width="0.5"/><path d="M32.283,102.569a17.5,17.5,0,0,0,1.82.5m2.366,1.12c.1.482.482,1.029.676,1.061m-1.447-.836a2.413,2.413,0,0,0,.289-.964m2.845-.287a4.141,4.141,0,0,0-1.586.538h0l-.163.084m3.556.285c-.493-.008-1,0-1.475.006h0c-.668.015-1.27.04-1.671.061m-2.41-.121a6.585,6.585,0,0,0-2.423-.011m5.479.9a1.242,1.242,0,0,0-.343-.515,3.743,3.743,0,0,0-.3-.253,3.7,3.7,0,0,1-.394-.34l-.011-.011c-.03-.031-.058-.062-.085-.094-.106-.121-.2-.249-.318-.357a1.285,1.285,0,0,0-.129-.105,1.89,1.89,0,0,0-.56-.228c-.161-.046-.365-.081-.471.049,0,0-.007.008-.009.014a.571.571,0,0,0-.068.254,1.18,1.18,0,0,1-.365.7l-.008.008c-.114.1-.25.185-.355.3a.658.658,0,0,0-.078.108l0,0a.388.388,0,0,0-.045.314.371.371,0,0,0,.086.137h0a.92.92,0,0,0,.146.122,4.88,4.88,0,0,0,2.727.883.882.882,0,0,0,.62-.7.711.711,0,0,0-.035-.286m0,0a.9.9,0,0,0,.283-.011,3.219,3.219,0,0,0,.413-.156,2.758,2.758,0,0,1,1.563.136,6.866,6.866,0,0,0,1.978.19h0c.1,0,.192-.011.287-.02.251-.023.585-.189.492-.423-.076-.2-.425-.256-.388-.463.021-.122.168-.17.289-.194l1.173-.232c-.184-.7-1.058-.967-1.777-.894a10.456,10.456,0,0,1-2.142.288,2.762,2.762,0,0,1,.664-.315c.222-.1.44-.31.413-.554-.041-.374-.552-.45-.925-.4a8.63,8.63,0,0,0-3.781,1.479m-1.169-.27a9.171,9.171,0,0,0-3.933-.956.623.623,0,0,0-.432.107c-.218.2-.062.576.182.741a8.088,8.088,0,0,1,.775.41,6.6,6.6,0,0,1-2.36.177,3.161,3.161,0,0,0-1.558.564.616.616,0,0,0-.275.338c-.072.329.342.545.675.586a10.1,10.1,0,0,0,2.386-.181,14.917,14.917,0,0,1,2.521-.045c.4.02.789.048,1.183.079m-1.495,1.065s-1.837.829-2.013,1.591m16.58,1.07c-.369-.565-4.843-2.481-4.843-2.481m.434,15.626c.249-5.105-4.7-14.124-4.7-14.124m8.38,6.463a16.662,16.662,0,0,0-8.5-8.391m15.927,21.529a13.413,13.413,0,0,0,.765-3.565M35.825,105.651a11.562,11.562,0,0,0-2.723,5.424c-.65,3.318-1.036,7.362-1.036,7.362M19.2,135.464a12.822,12.822,0,0,0,5.318,2.885m-2.308-8.536a6.3,6.3,0,0,0,2.581,2.477M20.967,124.8s3,7.051,6.735,8.619m30.215,3.536a36.049,36.049,0,0,0,.7-6.208m-7.652,4.612c4.205-.987,5.743-2.982,5.743-2.982m-14.34-27.308c4.362,1.217,10.734,3.477,13.227,15.768a46.284,46.284,0,0,0,3.022,9.911c2.256,5.014,3.933,5.243,1.694,7.091-3.222,2.661-8.955,3-14.243,2.762s-10.3.439-16.3.877a89.23,89.23,0,0,1-13.912-.615,1.14,1.14,0,0,1-.879-1.676c.714-1.326,1.75-3.279,2.453-4.721,1.166-2.394,2.547-13.115,5.824-20.577,2.91-6.626,7.115-8.111,10.232-9.077" transform="matrix(0.998, 0.07, -0.07, 0.998, 163.041, -58.566)" fill="none" stroke="#b3b0a7" stroke-linecap="round" stroke-linejoin="round" stroke-width="0.5"/></g></svg>