<svg xmlns="http://www.w3.org/2000/svg" xmlns:xlink="http://www.w3.org/1999/xlink" width="287" height="80" viewBox="0 0 287 80"><defs><clipPath id="a"><rect width="287" height="80" transform="translate(11 8)" fill="#fff" stroke="#707070" stroke-width="1"/></clipPath></defs><g transform="translate(-11 -8)" clip-path="url(#a)"><g transform="translate(139 21.5)"><path d="M57.586,292.3c.478-1.187.34-4.675.34-4.675M15.672,326.155l1.814-.063m53.648,9.894c.866-1.616,1.408-6.245,1.408-6.245M50.573,338.1s-1.987,3.128-1.987,4.363M47.7,320.674c1.509-2.684,1.509-11.381,1.509-11.381m24.342,36.52-4.185-.213m-.29-2.01,4.4.359m-4.4-1.939,3.824.5M52.482,293.25l1.344-.869M55.742,306.3a21.836,21.836,0,0,0-4.431-11.965m-.272-2.556,2.188-1.136m-3.235-.566,2.472-1.136m45.413,46.112a7.547,7.547,0,0,1,4.38,1.052,98.774,98.774,0,0,0,9.241,4.911c2.762,1.172,5.072.407,4.983-1.351s-3.987-3.921-5.346-5.184a18.865,18.865,0,0,1-3.715-5.227,21.165,21.165,0,0,0-3.443-5.679,2.807,2.807,0,0,0-3.992-.414,3.921,3.921,0,0,0-.673.64,6.929,6.929,0,0,1-2.292,2.058m-4.637.871a10.9,10.9,0,0,0-3.776-.381m11.378-3.189a29.865,29.865,0,0,0-1.352-4.408c-.77-1.486-1.631-2.388-3.76-2.162s-2.719,1.667-4.032,2.162a7.692,7.692,0,0,1-2.683.577m.208,8.135c.064-.244.147-.6.241-1.115.079-.424.165-.958.257-1.621a13.97,13.97,0,0,0-.706-5.4c-.1-.31-.163-.491-.163-.491a42.521,42.521,0,0,1-4.3.345c-1.728.043-7.551.628-10.207.9m3.047,22.375h0c1.466-.554,3.092-1.222,4.058-1.642a75.125,75.125,0,0,1,9.5-2.746,13.7,13.7,0,0,1,6.459.221,6.047,6.047,0,0,0,1.324-3.24,28.931,28.931,0,0,0,.389-5.384,6.312,6.312,0,0,0-1.245-3.809.991.991,0,0,0-.3-.257.3.3,0,0,0-.107-.015,35.523,35.523,0,0,0-4.231,1.143c-.419.119-.808.226-1.131.3-.513.12-1.593.277-2.886.435-2.869.348-6.792.7-7.933.666-1.479-.051-6.754.427-8.8.412m-4.281,8.265c1.265-1.309,3.456-5.938,4.281-8.265.074-.214.14-.409.191-.577.307-1.031,1.029-4.467,1.669-7.882.623-3.313,1.174-6.606,1.2-7.663.053-2.142.44-10.324.053-14.059a19.2,19.2,0,0,0-3.146-9.447c-1.766-2.363-5.631-3.242-7.62-3.351a31.763,31.763,0,0,0-7.358.379,4.18,4.18,0,0,0-2.238,1.39h0m.427-.046a3.708,3.708,0,0,0-.424.046h0a4.652,4.652,0,0,0-1.479.5m1.621,3.829a24.4,24.4,0,0,0,.285-4.378,2.021,2.021,0,0,0-.038-.224m1.3,29.888c.158,1.71.158,4.045.158,5.552,0,2.223.31,7.1.31,9.264,0,.4.01.848.036,1.326a20.613,20.613,0,0,0,.671,4.528M53.77,321.777c.008.628.015,1.3.02,1.931.01,1.149.023,2.193.046,2.714a13.812,13.812,0,0,0,1.065,5.14,2.793,2.793,0,0,0,.427.6,4.811,4.811,0,0,0,1.25.932m-2.787-9.386c-.361-.081-.75-.173-1.123-.249h0m2.236,8.1a31.063,31.063,0,0,1-3.151.005c-1.535,0-4.736.782-7.549,1.194h0m48.475,10.021a2.965,2.965,0,0,0-.607.882m.534,3.74a1.358,1.358,0,0,0,1.039-.856,21.593,21.593,0,0,0,.983-2.571,12.56,12.56,0,0,0,.076-1.718c0-.518-.038-1.128-.5-1.128-.379,0-.584.516-.668,1m-4.6,6.266a13.571,13.571,0,0,0,2.637-.259A1.8,1.8,0,0,0,92.6,347.4a4.333,4.333,0,0,0,.407-.775,11.262,11.262,0,0,0,.744-2.5c.046-.432.32-1.748-.224-2.007a.508.508,0,0,0-.173-.043c-.3-.02-.516.29-.681.7a13.8,13.8,0,0,0-.46,1.819,2.406,2.406,0,0,1-.307.6m-4.744-.607c.49-.013,1.316-.03,1.819-.03.531,0,1.283,0,1.733-.041m-4.551-.75a9.246,9.246,0,0,0,1,.821,1.851,1.851,0,0,0,.389.208,12.131,12.131,0,0,0,2.145.353,4.277,4.277,0,0,0,.925-.231m1.141-1.751a1.089,1.089,0,0,0-.8-.584,28.272,28.272,0,0,0-3.532.079c-1.113.04-2.742-.592-3.814-.592a10.785,10.785,0,0,0-2.937.475c-.595.2-.714.2-2.223.079-.562-.046-1.243-.1-1.918-.173h0c-.714-.069-1.42-.147-1.974-.221m10.009,3a11.3,11.3,0,0,0-2.975-1.817m-6.858,4.1a10.2,10.2,0,0,0,3.27.572,41.133,41.133,0,0,1,4.487.163c1.408.107,3.468.379,4.381.5a5.5,5.5,0,0,0,2.05-.361,9.8,9.8,0,0,0,1.522-.625A3.853,3.853,0,0,0,91.88,345.4c.005-.061.015-.125.025-.193a7.322,7.322,0,0,0,.16-1.54c-.02-.244-.1-.427-.267-.48l-.038-.008c-.5-.1-.955.811-1.034,1.273,0,.025-.008.051-.013.077a3.6,3.6,0,0,1-.094.4,2.4,2.4,0,0,1-.805,1.22c-.673.554-3.019-.119-3.019-.119M16.968,323.652a5.992,5.992,0,0,0-.727-.323,18.414,18.414,0,0,0-3.938-.889,27.81,27.81,0,0,0-7.183.806,15.276,15.276,0,0,0-3.636,2.007c-1.077.76-2.289,3.263-2.828,3.977a16.467,16.467,0,0,0-1.7,5.493c0,1.25-.4,3.615-1.481,4.6a10.947,10.947,0,0,1-3.636,1.786,6.974,6.974,0,0,1-1.885.4,12.566,12.566,0,0,0,2.871.447c1.3,0,.315,1.026-.089,1.026a6.8,6.8,0,0,0-.762.046,7.211,7.211,0,0,0,3.321.448c1.931-.181,3.367-.269,3.232.177s-1.031.892-1.031.892a21.092,21.092,0,0,0,4.487-.8c1.212-.536,2.515-.582,3.458-1.026a4.259,4.259,0,0,0,1.339-1.029m35.92-7.915c.5-.307,1-.65,1.5-1.011h0a27.07,27.07,0,0,0,5.112-4.632c.661-.9,2.03-2.726,3.351-4.67h0c.376-.557.75-1.123,1.1-1.682a28.059,28.059,0,0,0,1.461-2.551,14.6,14.6,0,0,0,.844-2.274,44.6,44.6,0,0,0,1.392-8.349,52.588,52.588,0,0,0-1.011-9.406c-.269-1.385-1.161-4.894-1.931-7.531a18.9,18.9,0,0,0-1.1-3.179,5.41,5.41,0,0,0-.523-.651,1.589,1.589,0,0,0-.361-.307s-1.784.719-2.16.879a3.763,3.763,0,0,1-1.558.643,7.086,7.086,0,0,0-3.275,1.281c-.808.7-4.673,3.69-5.425,4.543a39.769,39.769,0,0,1-3.384,3.636c-1.237,1.067-3.008,3.847-4.083,4.22s-.968.91-.968,1.5-1.88,2.566-2.523,3.42-2.848,4.756-3.6,5.557-1.934,1.5-2.416,2.3-1.235,3.1-1.827,3.687c-.562.559-4.286,2.462-5.082,4.139M27.3,328.488a4.972,4.972,0,0,0-4.04,3.877m-6.337-8.982c.013.086.025.175.043.269.107.666.282,1.494.516,2.439.32,1.306.744,2.838,1.235,4.487a22.007,22.007,0,0,0,3.133,7.005v0a8.956,8.956,0,0,0,1.464,1.527c2.467,2.008,6.581,3.062,9.409,4.025s5.732,1.768,8.039,2.36,7.8,1.806,11.889,2.4a85.435,85.435,0,0,0,8.563.592c1.639.147,4.914-.74,5.735-.816s7.3.455,7.567.455c.119,0,.185-.229.221-.605.043-.454.043-1.125.043-1.877a14.6,14.6,0,0,0-.219-3.407c-.074-.237-.175-.4-.313-.447-.584-.211-4.988-.951-5.465-1.108a18.8,18.8,0,0,0-3.715-1.428,50.907,50.907,0,0,1-7.219-1.426c-.175-.066-.379-.134-.6-.208a58.837,58.837,0,0,0-8.044-1.9,28.854,28.854,0,0,1-6.51-1.946,11.264,11.264,0,0,1-1.187-.587c-1.326-.793-4.723-3.961-7.216-4.965m-17.423-1.169-1.578-.457-.02-.005.005,0a.079.079,0,0,0,.015,0c.066.015.267.02.381-.44a2.584,2.584,0,0,0,.061-.4c.084-1-3.074-2.01-4.126-2.01s-1.857,1.092-1.517,1.717c.333.6,2.477,1.537,2.477,1.537s-2.7.569-3.212.762-1.062,1.3-1.8,2.363a2.958,2.958,0,0,0-.785,2.053c0,1,.526,2.4.307,3.138a7.209,7.209,0,0,0-1.667-2.528s.526,1.875,1.1,3.531a9.963,9.963,0,0,1-.02,5.321,1.432,1.432,0,0,1-.152.3m15.52-4.353a2.808,2.808,0,0,1-.4,1.657c-.508.948-4.317,2.525-7.236,2.779a33.577,33.577,0,0,1-7.445-.335c-.1-.018-.2-.033-.287-.051" transform="translate(10.331 -285.236)" fill="none" stroke="#b3b0a7" stroke-linecap="round" stroke-linejoin="round" stroke-width="0.5"/><path d="M60.9,473.029l.1-2.257m.032,6.812-.065,1.58" transform="translate(-41.51 -423.522)" fill="none" stroke="#b3b0a7" stroke-linecap="round" stroke-linejoin="round" stroke-width="1"/><path d="M70.152,472.394c0,.5-.253.9-.566.9s-.565-.4-.565-.9.253-.9.565-.9.566.4.566.9Z" transform="translate(-48.525 -423.966)" fill="#b3b0a7" stroke="rgba(0,0,0,0)" stroke-width="1"/><path d="M69.774,497.644c0,.5-.253.9-.565.9s-.566-.4-.566-.9.253-.9.566-.9.565.4.565.9Z" transform="translate(-48.243 -442.852)" fill="#b3b0a7" stroke="rgba(0,0,0,0)" stroke-width="1"/><path d="M81.373,490.894s.685.852,1.4.852a.73.73,0,0,0,.788-.614m2.675.135s-.392-1.417.325-1.845.682.607.574,1.249-.9.6-.9.6Z" transform="translate(-57.871 -437.329)" fill="none" stroke="#b3b0a7" stroke-linecap="round" stroke-linejoin="round" stroke-width="0.5"/></g></g></svg>