<svg xmlns="http://www.w3.org/2000/svg" xmlns:xlink="http://www.w3.org/1999/xlink" width="2" height="75" viewBox="0 0 2 75">
  <defs>
    <clipPath id="clip-path">
      <rect width="2" height="75" fill="none"/>
    </clipPath>
  </defs>
  <g id="リピートグリッド_3" data-name="リピートグリッド 3" clip-path="url(#clip-path)">
    <g transform="translate(-284 -51)">
      <g id="楕円形_14" data-name="楕円形 14" transform="translate(284 51)" fill="#fff" stroke="#928d82" stroke-width="1">
        <circle cx="1" cy="1" r="1" stroke="none"/>
        <circle cx="1" cy="1" r="0.5" fill="none"/>
      </g>
    </g>
    <g transform="translate(-284 -47)">
      <g id="楕円形_14-2" data-name="楕円形 14" transform="translate(284 51)" fill="#fff" stroke="#928d82" stroke-width="1">
        <circle cx="1" cy="1" r="1" stroke="none"/>
        <circle cx="1" cy="1" r="0.5" fill="none"/>
      </g>
    </g>
    <g transform="translate(-284 -43)">
      <g id="楕円形_14-3" data-name="楕円形 14" transform="translate(284 51)" fill="#fff" stroke="#928d82" stroke-width="1">
        <circle cx="1" cy="1" r="1" stroke="none"/>
        <circle cx="1" cy="1" r="0.5" fill="none"/>
      </g>
    </g>
    <g transform="translate(-284 -39)">
      <g id="楕円形_14-4" data-name="楕円形 14" transform="translate(284 51)" fill="#fff" stroke="#928d82" stroke-width="1">
        <circle cx="1" cy="1" r="1" stroke="none"/>
        <circle cx="1" cy="1" r="0.5" fill="none"/>
      </g>
    </g>
    <g transform="translate(-284 -35)">
      <g id="楕円形_14-5" data-name="楕円形 14" transform="translate(284 51)" fill="#fff" stroke="#928d82" stroke-width="1">
        <circle cx="1" cy="1" r="1" stroke="none"/>
        <circle cx="1" cy="1" r="0.5" fill="none"/>
      </g>
    </g>
    <g transform="translate(-284 -31)">
      <g id="楕円形_14-6" data-name="楕円形 14" transform="translate(284 51)" fill="#fff" stroke="#928d82" stroke-width="1">
        <circle cx="1" cy="1" r="1" stroke="none"/>
        <circle cx="1" cy="1" r="0.5" fill="none"/>
      </g>
    </g>
    <g transform="translate(-284 -27)">
      <g id="楕円形_14-7" data-name="楕円形 14" transform="translate(284 51)" fill="#fff" stroke="#928d82" stroke-width="1">
        <circle cx="1" cy="1" r="1" stroke="none"/>
        <circle cx="1" cy="1" r="0.5" fill="none"/>
      </g>
    </g>
    <g transform="translate(-284 -23)">
      <g id="楕円形_14-8" data-name="楕円形 14" transform="translate(284 51)" fill="#fff" stroke="#928d82" stroke-width="1">
        <circle cx="1" cy="1" r="1" stroke="none"/>
        <circle cx="1" cy="1" r="0.5" fill="none"/>
      </g>
    </g>
    <g transform="translate(-284 -19)">
      <g id="楕円形_14-9" data-name="楕円形 14" transform="translate(284 51)" fill="#fff" stroke="#928d82" stroke-width="1">
        <circle cx="1" cy="1" r="1" stroke="none"/>
        <circle cx="1" cy="1" r="0.5" fill="none"/>
      </g>
    </g>
    <g transform="translate(-284 -15)">
      <g id="楕円形_14-10" data-name="楕円形 14" transform="translate(284 51)" fill="#fff" stroke="#928d82" stroke-width="1">
        <circle cx="1" cy="1" r="1" stroke="none"/>
        <circle cx="1" cy="1" r="0.5" fill="none"/>
      </g>
    </g>
    <g transform="translate(-284 -11)">
      <g id="楕円形_14-11" data-name="楕円形 14" transform="translate(284 51)" fill="#fff" stroke="#928d82" stroke-width="1">
        <circle cx="1" cy="1" r="1" stroke="none"/>
        <circle cx="1" cy="1" r="0.5" fill="none"/>
      </g>
    </g>
    <g transform="translate(-284 -7)">
      <g id="楕円形_14-12" data-name="楕円形 14" transform="translate(284 51)" fill="#fff" stroke="#928d82" stroke-width="1">
        <circle cx="1" cy="1" r="1" stroke="none"/>
        <circle cx="1" cy="1" r="0.5" fill="none"/>
      </g>
    </g>
    <g transform="translate(-284 -3)">
      <g id="楕円形_14-13" data-name="楕円形 14" transform="translate(284 51)" fill="#fff" stroke="#928d82" stroke-width="1">
        <circle cx="1" cy="1" r="1" stroke="none"/>
        <circle cx="1" cy="1" r="0.5" fill="none"/>
      </g>
    </g>
    <g transform="translate(-284 1)">
      <g id="楕円形_14-14" data-name="楕円形 14" transform="translate(284 51)" fill="#fff" stroke="#928d82" stroke-width="1">
        <circle cx="1" cy="1" r="1" stroke="none"/>
        <circle cx="1" cy="1" r="0.5" fill="none"/>
      </g>
    </g>
    <g transform="translate(-284 5)">
      <g id="楕円形_14-15" data-name="楕円形 14" transform="translate(284 51)" fill="#fff" stroke="#928d82" stroke-width="1">
        <circle cx="1" cy="1" r="1" stroke="none"/>
        <circle cx="1" cy="1" r="0.5" fill="none"/>
      </g>
    </g>
    <g transform="translate(-284 9)">
      <g id="楕円形_14-16" data-name="楕円形 14" transform="translate(284 51)" fill="#fff" stroke="#928d82" stroke-width="1">
        <circle cx="1" cy="1" r="1" stroke="none"/>
        <circle cx="1" cy="1" r="0.5" fill="none"/>
      </g>
    </g>
    <g transform="translate(-284 13)">
      <g id="楕円形_14-17" data-name="楕円形 14" transform="translate(284 51)" fill="#fff" stroke="#928d82" stroke-width="1">
        <circle cx="1" cy="1" r="1" stroke="none"/>
        <circle cx="1" cy="1" r="0.5" fill="none"/>
      </g>
    </g>
    <g transform="translate(-284 17)">
      <g id="楕円形_14-18" data-name="楕円形 14" transform="translate(284 51)" fill="#fff" stroke="#928d82" stroke-width="1">
        <circle cx="1" cy="1" r="1" stroke="none"/>
        <circle cx="1" cy="1" r="0.5" fill="none"/>
      </g>
    </g>
    <g transform="translate(-284 21)">
      <g id="楕円形_14-19" data-name="楕円形 14" transform="translate(284 51)" fill="#fff" stroke="#928d82" stroke-width="1">
        <circle cx="1" cy="1" r="1" stroke="none"/>
        <circle cx="1" cy="1" r="0.5" fill="none"/>
      </g>
    </g>
  </g>
</svg>
