<svg xmlns="http://www.w3.org/2000/svg" xmlns:xlink="http://www.w3.org/1999/xlink" width="153" height="41" viewBox="0 0 153 41"><defs><clipPath id="a"><rect width="153" height="41" transform="translate(94.116 205)" fill="none"/></clipPath></defs><g transform="translate(-94.116 -205)"><g clip-path="url(#a)"><g transform="translate(0 -2)"><path d="M4.333-10.3V0H2.3V-4.186H-2.3V0h-2.03V-10.3H-2.3v4.158H2.3V-10.3Z" transform="matrix(0.875, -0.485, 0.485, 0.875, 103.697, 240.561)" fill="#6c655d"/><path d="M-4.7,0-.056-10.71H.056L4.7,0H2.352L-.616-7.532.854-8.54-2.7,0Zm3.178-3.724H1.568l.714,1.708H-2.156Z" transform="matrix(0.914, -0.407, 0.407, 0.914, 113.424, 233.697)" fill="#6c655d"/><path d="M0-10.3a4.919,4.919,0,0,1,2.156.427A3.076,3.076,0,0,1,3.5-8.673a3.536,3.536,0,0,1,.462,1.841,4.436,4.436,0,0,1-.189,1.267,3.376,3.376,0,0,1-.6,1.155,2.937,2.937,0,0,1-1.106.833,4.1,4.1,0,0,1-1.7.315H-1.092V0h-2.03V-10.3ZM.35-5.236A1.651,1.651,0,0,0,1.12-5.4,1.345,1.345,0,0,0,1.6-5.8a1.682,1.682,0,0,0,.252-.511,1.7,1.7,0,0,0,.077-.462,2.346,2.346,0,0,0-.049-.413,1.67,1.67,0,0,0-.2-.525,1.242,1.242,0,0,0-.469-.448,1.69,1.69,0,0,0-.847-.182H-1.092v3.108Z" transform="translate(123.197 229.789) rotate(-20)" fill="#6c655d"/><path d="M0-10.3a4.919,4.919,0,0,1,2.156.427A3.076,3.076,0,0,1,3.5-8.673a3.536,3.536,0,0,1,.462,1.841,4.436,4.436,0,0,1-.189,1.267,3.376,3.376,0,0,1-.6,1.155,2.937,2.937,0,0,1-1.106.833,4.1,4.1,0,0,1-1.7.315H-1.092V0h-2.03V-10.3ZM.35-5.236A1.651,1.651,0,0,0,1.12-5.4,1.345,1.345,0,0,0,1.6-5.8a1.682,1.682,0,0,0,.252-.511,1.7,1.7,0,0,0,.077-.462,2.346,2.346,0,0,0-.049-.413,1.67,1.67,0,0,0-.2-.525,1.242,1.242,0,0,0-.469-.448,1.69,1.69,0,0,0-.847-.182H-1.092v3.108Z" transform="translate(131.965 225.864) rotate(-16)" fill="#6c655d"/><path d="M-1.05-3.206l-3.794-7.1h2.506L.322-4.956l-.6.042L2.338-10.3H4.844L.98-3.206V0H-1.05Z" transform="matrix(0.978, -0.208, 0.208, 0.978, 142.728, 223.924)" fill="#6c655d"/><path d="M-.175-10.3a4.471,4.471,0,0,1,2.562.651,2.195,2.195,0,0,1,.952,1.939A2.607,2.607,0,0,1,2.87-6.125,2.811,2.811,0,0,1,1.6-5.173a5.024,5.024,0,0,1-1.841.315L-.567-5.95a6.747,6.747,0,0,1,2.261.35,3.661,3.661,0,0,1,1.561,1,2.28,2.28,0,0,1,.574,1.561,3.061,3.061,0,0,1-.3,1.421,2.558,2.558,0,0,1-.812.938,3.463,3.463,0,0,1-1.155.518A5.463,5.463,0,0,1,.231,0H-3.2V-10.3ZM.063-6.09a1.063,1.063,0,0,0,.889-.364,1.3,1.3,0,0,0,.287-.826.931.931,0,0,0-.357-.8,1.569,1.569,0,0,0-.959-.266H-1.169V-6.09Zm.07,4.2a2.6,2.6,0,0,0,.812-.119,1.2,1.2,0,0,0,.574-.378,1,1,0,0,0,.21-.651.875.875,0,0,0-.252-.679,1.4,1.4,0,0,0-.651-.322A3.736,3.736,0,0,0-.007-4.13H-1.169v2.24Z" transform="translate(164.427 220.974) rotate(-7)" fill="#6c655d"/><path d="M-1.015-10.3h2.03V0h-2.03Z" transform="translate(173 221)" fill="#6c655d"/><path d="M-3.472-10.3H3.472v1.96H.966V0h-2.03V-8.344H-3.472Z" transform="translate(193.573 222.974) rotate(7)" fill="#6c655d"/><path d="M4.333-10.3V0H2.3V-4.186H-2.3V0h-2.03V-10.3H-2.3v4.158H2.3V-10.3Z" transform="translate(205.035 225.864) rotate(16)" fill="#6c655d"/><path d="M-.35-10.3a5.579,5.579,0,0,1,1.722.245,3.5,3.5,0,0,1,1.267.7,2.981,2.981,0,0,1,.777,1.092,3.692,3.692,0,0,1,.266,1.435,4.365,4.365,0,0,1-.189,1.26,3.264,3.264,0,0,1-.616,1.148,3.054,3.054,0,0,1-1.127.833,4.229,4.229,0,0,1-1.736.315H-1.442V0h-2.03V-10.3ZM0-5.236A1.714,1.714,0,0,0,.77-5.39a1.315,1.315,0,0,0,.483-.392,1.613,1.613,0,0,0,.252-.5,1.7,1.7,0,0,0,.077-.483,2.386,2.386,0,0,0-.049-.427,1.67,1.67,0,0,0-.2-.525,1.242,1.242,0,0,0-.469-.448,1.69,1.69,0,0,0-.847-.182H-1.442v3.108Zm1.9,1.26L4.452,0H2.086l-2.6-3.92Z" transform="translate(181.817 220.995) rotate(3)" fill="#6c655d"/><path d="M-4.067,0V-10.3h3.08a6.783,6.783,0,0,1,2.646.462A4.684,4.684,0,0,1,3.416-8.61a4.936,4.936,0,0,1,.973,1.722A6.2,6.2,0,0,1,4.7-4.97,4.975,4.975,0,0,1,4.284-2.9,4.714,4.714,0,0,1,3.157-1.337a4.946,4.946,0,0,1-1.652.994A5.743,5.743,0,0,1-.483,0Zm2.03-1.96h1.2a4.549,4.549,0,0,0,1.4-.2,3.093,3.093,0,0,0,1.085-.6,2.571,2.571,0,0,0,.7-.987A3.561,3.561,0,0,0,2.6-5.11a3.581,3.581,0,0,0-.329-1.645,2.743,2.743,0,0,0-.812-.987,2.979,2.979,0,0,0-.987-.483,3.447,3.447,0,0,0-.854-.133H-2.037Z" transform="translate(217.803 230.789) rotate(20)" fill="#6c655d"/><path d="M-4.7,0-.056-10.71H.056L4.7,0H2.352L-.616-7.532.854-8.54-2.7,0Zm3.178-3.724H1.568l.714,1.708H-2.156Z" transform="translate(228.803 234.789) rotate(20)" fill="#6c655d"/><path d="M-1.05-3.206l-3.794-7.1h2.506L.322-4.956l-.6.042L2.338-10.3H4.844L.98-3.206V0H-1.05Z" transform="translate(236.25 240.531) rotate(30)" fill="#6c655d"/></g><path d="M-14.9,0q.868-.882,1.666-1.7T-11.8-3.283A8.324,8.324,0,0,0-10.794-4.76a3,3,0,0,0,.371-1.386,1.3,1.3,0,0,0-.1-.532,1.165,1.165,0,0,0-.294-.406,1.329,1.329,0,0,0-.448-.259,1.745,1.745,0,0,0-.581-.091,1.684,1.684,0,0,0-.574.091,1.232,1.232,0,0,0-.42.245,1.161,1.161,0,0,0-.259.336.835.835,0,0,0-.091.378,1.993,1.993,0,0,0,.147.791,2.055,2.055,0,0,0,.4.609L-13.9-3.85a1.692,1.692,0,0,1-.693-.658,3.858,3.858,0,0,1-.434-.973,3.188,3.188,0,0,1-.147-.847,2.78,2.78,0,0,1,.427-1.47A3.235,3.235,0,0,1-13.5-8.946,4.106,4.106,0,0,1-11.5-9.394a3.171,3.171,0,0,1,1.68.434A3.1,3.1,0,0,1-8.708-7.819a3.015,3.015,0,0,1,.4,1.5,3.826,3.826,0,0,1-.2,1.218,5.733,5.733,0,0,1-.539,1.155,11.235,11.235,0,0,1-.777,1.12q-.434.553-.9,1.127l-.924-.266H-8.2V0ZM-3,.112a3.532,3.532,0,0,1-1.82-.476,3.353,3.353,0,0,1-1.288-1.4,4.877,4.877,0,0,1-.476-2.254,4.229,4.229,0,0,1,.315-1.6A6.166,6.166,0,0,1-5.4-7.105,8.992,8.992,0,0,1-4.123-8.428,11.426,11.426,0,0,1-2.569-9.534l1.358,1.47A5.516,5.516,0,0,0-3.045-6.951a4.667,4.667,0,0,0-1.05,1.407A3.234,3.234,0,0,0-4.431-4.2l-.5-.056a3.542,3.542,0,0,1,.973-1.372A2.539,2.539,0,0,1-2.3-6.118,2.5,2.5,0,0,1-1-5.74,2.96,2.96,0,0,1,.028-4.69a3.013,3.013,0,0,1,.4,1.568,3.02,3.02,0,0,1-.5,1.757,3.241,3.241,0,0,1-1.281,1.1A3.757,3.757,0,0,1-3,.112Zm-.084-1.82a1.562,1.562,0,0,0,.721-.161,1.191,1.191,0,0,0,.5-.476,1.5,1.5,0,0,0,.182-.763,1.285,1.285,0,0,0-.189-.721,1.2,1.2,0,0,0-.5-.434,1.652,1.652,0,0,0-.707-.147,1.652,1.652,0,0,0-.707.147,1.336,1.336,0,0,0-.5.392.844.844,0,0,0-.189.525v.336a1.176,1.176,0,0,0,.182.63,1.432,1.432,0,0,0,.5.483A1.384,1.384,0,0,0-3.087-1.708Zm6.006-7.1h1.96v2.66H6.363V-4.62H4.879V0H2.919V-4.62H1.967V-6.146h.952ZM8.351,0V-11.046h1.918v6.16l-.014-.238a2.521,2.521,0,0,1,.91-.931,2.731,2.731,0,0,1,1.442-.357,2.115,2.115,0,0,1,1.449.511,1.722,1.722,0,0,1,.6,1.323V0h-1.96V-3.85a1.047,1.047,0,0,0-.217-.651.836.836,0,0,0-.679-.245,1.154,1.154,0,0,0-.784.294,1.885,1.885,0,0,0-.518.8,3.413,3.413,0,0,0-.182,1.162V0Z" transform="translate(169.116 243)" fill="#6c655d"/><g transform="translate(81.116 222)" fill="none" stroke="#6c655d" stroke-width="1" stroke-dasharray="3 4"><ellipse cx="89" cy="61.5" rx="89" ry="61.5" stroke="none"/><ellipse cx="89" cy="61.5" rx="88.5" ry="61" fill="none"/></g></g></g></svg>