<svg xmlns="http://www.w3.org/2000/svg" xmlns:xlink="http://www.w3.org/1999/xlink" width="158" height="46" viewBox="0 0 158 46"><defs><style>.a,.c{fill:none;}.b{clip-path:url(#a);}.c{stroke:#6c655d;stroke-dasharray:3 4;}.d{fill:#6c655d;}.e{stroke:none;}</style><clipPath id="a"><rect class="a" width="158" height="46" transform="translate(11)"/></clipPath></defs><g class="b" transform="translate(-11)"><g class="c" transform="translate(0 17)"><ellipse class="e" cx="89" cy="61.5" rx="89" ry="61.5"/><ellipse class="a" cx="89" cy="61.5" rx="88.5" ry="61"/></g></g><g transform="translate(1 2)"><path class="d" d="M494.009,1166.98l6.306,8.149-1.605,1.242-2.562-3.31-3.643,2.819,2.562,3.31-1.6,1.243-6.306-8.149,1.6-1.242,2.545,3.288,3.643-2.819-2.545-3.289Z" transform="translate(-487.156 -1147.074)"/><path class="d" d="M503.615,1172.961l-1.1-11.623.1-.053,9.244,7.132-2.06,1.136-6.237-5.161.8-1.593,1.012,9.2Zm.984-4.8,2.709-1.495,1.45,1.15-3.885,2.144Z" transform="translate(-487.156 -1147.074)"/><path class="d" d="M514.578,1156.068a4.908,4.908,0,0,1,2.159-.409,3.079,3.079,0,0,1,1.7.615,3.534,3.534,0,0,1,1.116,1.535,4.446,4.446,0,0,1,.3,1.246,3.378,3.378,0,0,1-.128,1.3,2.94,2.94,0,0,1-.715,1.186,4.1,4.1,0,0,1-1.46.927l-1.351.544,1.219,3.026-1.883.758-3.848-9.558Zm2.217,4.571a1.659,1.659,0,0,0,.654-.437,1.354,1.354,0,0,0,.3-.557,1.7,1.7,0,0,0,.043-.568,1.751,1.751,0,0,0-.1-.458,2.4,2.4,0,0,0-.2-.365,1.674,1.674,0,0,0-.384-.411,1.247,1.247,0,0,0-.6-.24,1.7,1.7,0,0,0-.854.147l-1.351.544,1.162,2.883Z" transform="translate(-487.156 -1147.074)"/><path class="d" d="M526.428,1152.019a4.911,4.911,0,0,1,2.191-.18,3.077,3.077,0,0,1,1.622.79,3.535,3.535,0,0,1,.948,1.644,4.436,4.436,0,0,1,.165,1.27,3.378,3.378,0,0,1-.263,1.276,2.925,2.925,0,0,1-.836,1.1,4.1,4.1,0,0,1-1.549.769l-1.4.4.893,3.138-1.952.555-2.821-9.91Zm1.724,4.778a1.651,1.651,0,0,0,.7-.365,1.36,1.36,0,0,0,.354-.523,1.7,1.7,0,0,0,.1-.561,1.684,1.684,0,0,0-.052-.465,2.383,2.383,0,0,0-.16-.384,1.674,1.674,0,0,0-.339-.449,1.251,1.251,0,0,0-.574-.3,1.7,1.7,0,0,0-.865.057l-1.4.4.851,2.989Z" transform="translate(-487.156 -1147.074)"/><path class="d" d="M539.048,1156.328l-4.987-6.317,2.466-.443,3.562,4.8-.585.147,1.625-5.767,2.467-.443-2.55,7.669.566,3.156-2,.358Z" transform="translate(-487.156 -1147.074)"/><path class="d" d="M559.476,1147.076a4.465,4.465,0,0,1,2.576.59,2.191,2.191,0,0,1,1,1.915,2.611,2.611,0,0,1-.431,1.6,2.819,2.819,0,0,1-1.251.982,5.009,5.009,0,0,1-1.833.358l-.348-1.083a6.721,6.721,0,0,1,2.269.3,3.662,3.662,0,0,1,1.584.963,2.274,2.274,0,0,1,.611,1.547,3.058,3.058,0,0,1-.267,1.428,2.57,2.57,0,0,1-.789.957,3.472,3.472,0,0,1-1.143.545,5.449,5.449,0,0,1-1.326.193l-3.429.081-.244-10.3Zm.337,4.207a1.063,1.063,0,0,0,.881-.386,1.3,1.3,0,0,0,.267-.832.929.929,0,0,0-.376-.789,1.564,1.564,0,0,0-.965-.243l-1.092.026.054,2.253Zm.17,4.2a2.566,2.566,0,0,0,.809-.139,1.192,1.192,0,0,0,.565-.391,1,1,0,0,0,.2-.656.878.878,0,0,0-.268-.672,1.393,1.393,0,0,0-.659-.307,3.748,3.748,0,0,0-.835-.071l-1.162.027.054,2.24Z" transform="translate(-487.156 -1147.074)"/><path class="d" d="M568.9,1147.152l2.027.1-.508,10.291-2.027-.1Z" transform="translate(-487.156 -1147.074)"/><path class="d" d="M580.09,1148.083a5.6,5.6,0,0,1,1.678.459,3.523,3.523,0,0,1,1.169.854,2.991,2.991,0,0,1,.632,1.182,3.681,3.681,0,0,1,.083,1.457,4.33,4.33,0,0,1-.346,1.226,3.267,3.267,0,0,1-.755,1.061,3.064,3.064,0,0,1-1.224.685,4.221,4.221,0,0,1-1.762.093l-1.444-.183-.413,3.25-2.014-.256,1.3-10.222Zm-.291,5.071a1.727,1.727,0,0,0,.783-.055,1.324,1.324,0,0,0,.528-.328,1.6,1.6,0,0,0,.313-.462,1.688,1.688,0,0,0,.138-.469,2.48,2.48,0,0,0,0-.43,1.653,1.653,0,0,0-.134-.546,1.243,1.243,0,0,0-.41-.5,1.679,1.679,0,0,0-.817-.287l-1.444-.184-.392,3.083Zm1.729,1.49,2.028,4.266-2.348-.3-2.089-4.216Z" transform="translate(-487.156 -1147.074)"/><path class="d" d="M589.072,1149.465l6.778,1.509-.426,1.913-2.446-.545-1.813,8.145-1.981-.441L591,1151.9l-2.35-.523Z" transform="translate(-487.156 -1147.074)"/><path class="d" d="M609.509,1155.234l-3.317,9.756-1.921-.653,1.347-3.963-4.361-1.483-1.347,3.963-1.923-.653,3.317-9.756,1.922.654-1.338,3.936,4.361,1.483,1.338-3.937Z" transform="translate(-487.156 -1147.074)"/><path class="d" d="M610.936,1166.959l4.573-9.233,2.76,1.367a6.794,6.794,0,0,1,2.167,1.588,4.7,4.7,0,0,1,1.027,1.884,4.938,4.938,0,0,1,.107,1.975,6.168,6.168,0,0,1-.575,1.855,4.983,4.983,0,0,1-1.286,1.668,4.72,4.72,0,0,1-1.706.9,4.953,4.953,0,0,1-1.922.158,5.752,5.752,0,0,1-1.934-.575Zm2.689-.855,1.079.534a4.54,4.54,0,0,0,1.345.44,3.106,3.106,0,0,0,1.236-.052,2.587,2.587,0,0,0,1.066-.574,4.1,4.1,0,0,0,1.259-2.734,2.728,2.728,0,0,0-.289-1.245,2.98,2.98,0,0,0-.67-.871,3.429,3.429,0,0,0-.707-.5l-1.479-.733Z" transform="translate(-487.156 -1147.074)"/><path class="d" d="M621.09,1172.165l9.851-6.266.093.063-2.151,11.475-1.948-1.318,1.762-7.9,1.782-.011-7.731,5.081Zm4.72-1.3,2.562,1.734-.366,1.815-3.676-2.487Z" transform="translate(-487.156 -1147.074)"/><path class="d" d="M635,1178.488l1.976-7.8,1.852,1.687-1.636,5.745-.472-.374,5.564-2.222,1.853,1.687-7.636,2.645-2.159,2.371-1.5-1.368Z" transform="translate(-487.156 -1147.074)"/></g><path class="d" d="M-14.9,0q.868-.882,1.666-1.7T-11.8-3.283A8.324,8.324,0,0,0-10.794-4.76a3,3,0,0,0,.371-1.386,1.3,1.3,0,0,0-.1-.532,1.165,1.165,0,0,0-.294-.406,1.329,1.329,0,0,0-.448-.259,1.745,1.745,0,0,0-.581-.091,1.684,1.684,0,0,0-.574.091,1.232,1.232,0,0,0-.42.245,1.161,1.161,0,0,0-.259.336.835.835,0,0,0-.091.378,1.993,1.993,0,0,0,.147.791,2.055,2.055,0,0,0,.4.609L-13.9-3.85a1.692,1.692,0,0,1-.693-.658,3.858,3.858,0,0,1-.434-.973,3.188,3.188,0,0,1-.147-.847,2.78,2.78,0,0,1,.427-1.47A3.235,3.235,0,0,1-13.5-8.946,4.106,4.106,0,0,1-11.5-9.394a3.171,3.171,0,0,1,1.68.434A3.1,3.1,0,0,1-8.708-7.819a3.015,3.015,0,0,1,.4,1.5,3.826,3.826,0,0,1-.2,1.218,5.733,5.733,0,0,1-.539,1.155,11.235,11.235,0,0,1-.777,1.12q-.434.553-.9,1.127l-.924-.266H-8.2V0ZM-3,.112a3.532,3.532,0,0,1-1.82-.476,3.353,3.353,0,0,1-1.288-1.4,4.877,4.877,0,0,1-.476-2.254,4.229,4.229,0,0,1,.315-1.6A6.166,6.166,0,0,1-5.4-7.105,8.992,8.992,0,0,1-4.123-8.428,11.426,11.426,0,0,1-2.569-9.534l1.358,1.47A5.516,5.516,0,0,0-3.045-6.951a4.667,4.667,0,0,0-1.05,1.407A3.234,3.234,0,0,0-4.431-4.2l-.5-.056a3.542,3.542,0,0,1,.973-1.372A2.539,2.539,0,0,1-2.3-6.118,2.5,2.5,0,0,1-1-5.74,2.96,2.96,0,0,1,.028-4.69a3.013,3.013,0,0,1,.4,1.568,3.02,3.02,0,0,1-.5,1.757,3.241,3.241,0,0,1-1.281,1.1A3.757,3.757,0,0,1-3,.112Zm-.084-1.82a1.562,1.562,0,0,0,.721-.161,1.191,1.191,0,0,0,.5-.476,1.5,1.5,0,0,0,.182-.763,1.285,1.285,0,0,0-.189-.721,1.2,1.2,0,0,0-.5-.434,1.652,1.652,0,0,0-.707-.147,1.652,1.652,0,0,0-.707.147,1.336,1.336,0,0,0-.5.392.844.844,0,0,0-.189.525v.336a1.176,1.176,0,0,0,.182.63,1.432,1.432,0,0,0,.5.483A1.384,1.384,0,0,0-3.087-1.708Zm6.006-7.1h1.96v2.66H6.363V-4.62H4.879V0H2.919V-4.62H1.967V-6.146h.952ZM8.351,0V-11.046h1.918v6.16l-.014-.238a2.521,2.521,0,0,1,.91-.931,2.731,2.731,0,0,1,1.442-.357,2.115,2.115,0,0,1,1.449.511,1.722,1.722,0,0,1,.6,1.323V0h-1.96V-3.85a1.047,1.047,0,0,0-.217-.651.836.836,0,0,0-.679-.245,1.154,1.154,0,0,0-.784.294,1.885,1.885,0,0,0-.518.8,3.413,3.413,0,0,0-.182,1.162V0Z" transform="translate(78.169 43)"/></svg>