<?xml version="1.0" standalone="no"?>
<!DOCTYPE svg PUBLIC "-//W3C//DTD SVG 20010904//EN"
 "http://www.w3.org/TR/2001/REC-SVG-20010904/DTD/svg10.dtd">
<svg version="1.0" xmlns="http://www.w3.org/2000/svg"
 width="512.000000pt" height="512.000000pt" viewBox="0 0 512.000000 512.000000"
 preserveAspectRatio="xMidYMid meet">
<metadata>
Created by potrace 1.11, written by Peter Selinger 2001-2013
</metadata>
<g transform="translate(0.000000,512.000000) scale(0.100000,-0.100000)"
fill="#000000" stroke="none">
<path d="M2799 3672 c-380 -255 -628 -552 -726 -868 -26 -84 -27 -100 -27
-274 0 -167 3 -194 27 -282 69 -257 224 -441 445 -530 359 -144 803 10 961
334 47 96 64 178 64 303 1 200 -54 338 -187 471 -125 125 -238 173 -408 174
-136 0 -243 -30 -327 -90 l-44 -33 28 49 c54 94 90 139 171 221 91 91 190 160
324 225 49 23 90 46 90 49 0 12 -282 309 -293 309 -7 0 -51 -26 -98 -58z m97
-1057 c73 -22 129 -67 160 -132 39 -79 39 -188 0 -267 -53 -108 -166 -167
-293 -152 -164 19 -265 132 -267 301 -1 99 19 144 89 196 86 66 203 86 311 54z"/>
<path d="M980 3700 c-365 -38 -626 -266 -671 -586 -27 -195 96 -497 239 -586
l33 -20 107 98 c59 54 120 110 135 124 l29 27 -35 46 c-50 66 -78 147 -80 232
-1 79 12 112 65 162 57 55 121 77 218 77 130 -1 220 -50 273 -149 33 -63 30
-185 -7 -298 -71 -217 -230 -423 -691 -894 l-237 -243 721 0 721 0 0 210 0
210 -240 0 c-132 0 -240 3 -240 6 0 3 33 46 73 97 163 206 259 356 317 497 52
126 64 184 64 320 1 112 -2 134 -28 214 -56 169 -177 311 -331 387 -131 64
-272 86 -435 69z"/>
<path d="M4237 2713 c-4 -3 -7 -235 -7 -515 l0 -508 94 0 93 0 6 148 c7 169
15 206 57 249 53 54 129 49 149 -9 6 -18 11 -108 11 -209 l0 -179 95 0 95 0 0
218 c0 128 -5 233 -11 257 -23 81 -117 134 -219 122 -59 -7 -104 -28 -147 -70
l-33 -31 0 267 0 267 -88 0 c-49 0 -92 -3 -95 -7z"/>
<path d="M3780 2385 l0 -125 -45 0 -46 0 3 -72 3 -73 43 -3 42 -3 0 -210 0
-209 95 0 95 0 0 210 0 209 68 3 67 3 3 73 3 72 -71 0 -70 0 0 125 0 125 -95
0 -95 0 0 -125z"/>
</g>
</svg>
